<?xml version="1.0" standalone="no"?>
<!DOCTYPE svg PUBLIC "-//W3C//DTD SVG 1.1//EN" "http://www.w3.org/Graphics/SVG/1.1/DTD/svg11.dtd" >
<svg xmlns="http://www.w3.org/2000/svg" xmlns:xlink="http://www.w3.org/1999/xlink" version="1.1">
<metadata>
Created by FontForge 20161013 at Fri Feb 21 21:38:29 2014
 By ,,,
Copyright (c) 2013 Parachute, www.parachute.gr.  All rights reserved.
</metadata>
<defs>
<font id="PFSquareSansCondPro-BoldItalic" horiz-adv-x="470" >
  <font-face 
    font-family="PF Square Sans Cond Pro"
    font-weight="700"
    font-style="italic"
    font-stretch="normal"
    units-per-em="1000"
    panose-1="2 11 8 6 0 0 0 9 0 4"
    ascent="800"
    descent="-200"
    x-height="494"
    cap-height="664"
    bbox="-128.118 -318.533 1261 943.6"
    underline-thickness="70"
    underline-position="-260"
    unicode-range="U+0020-FB05"
  />
<missing-glyph horiz-adv-x="408" 
d="M409 0h-408v700h408v-700zM205 259l-84 -175h168zM120 616l85 -174l84 174h-169zM158 351l-71 149v-299zM323 498l-71 -149l71 -147v296z" />
    <glyph glyph-name="fj" unicode="fj" horiz-adv-x="497" 
d="M366 726q84 0 131 -26q22 -12 13 -36l-24 -64q-6 -19 -34 -14q-50 7 -83 7q-65 0 -78 -66l-6 -33h216q26 0 22 -22l-84 -451q-27 -135 -89 -186q-60 -52 -184 -47q-5 0 -10.5 1.5t-10.5 6.5t-4 14l9 79q2 12 7.5 17t20.5 9q63 15 82 31q20 17 30 71l69 357h-99l-68 -352
q-4 -22 -30 -22h-94q-15 0 -20 5t-3 17l68 352h-33q-12 0 -15.5 5t-1.5 18l14 74q5 23 27 23h33l10 56q36 176 219 176z" />
    <glyph glyph-name="ffj" unicode="ffj" horiz-adv-x="740" 
d="M772 472l-87 -451q-27 -133 -90 -186q-60 -52 -185 -47q-11 0 -19 5.5t-6 16.5l8 76q2 13 9 19t24 10q59 15 79 33q18 15 29 68l69 357h-96l-68 -352q-2 -21 -27 -21h-101q-25 0 -20 21l70 352h-98l-68 -352q-5 -15 -11 -18t-16 -3h-100q-26 0 -21 21l69 352h-32
q-14 0 -17.5 5t-1.5 18l15 75q5 23 28 23h32l9 48q35 176 212 176q70 0 115 -20q49 40 140 40q87 0 131 -26q22 -11 14 -37l-25 -63q-4 -11 -12 -14t-23 0q-74 7 -82 7q-65 0 -79 -66l-8 -45h217q15 0 20 -6t3 -16zM291 494h98l9 50q0 10 9 37q-19 4 -49 4q-47 0 -60 -55z
" />
    <glyph glyph-name="ff" unicode="ff" horiz-adv-x="613" 
d="M608 738q26 0 68 -8q38 -7 59 -20q17 -11 9 -29l-26 -68q-8 -21 -25 -16q-54 8 -88 8q-26 0 -40.5 -16t-21.5 -50l-8 -45h89q25 0 17 -22l-15 -76q-2 -9 -3.5 -13t-7 -7t-15.5 -3h-90l-106 -543q-4 -22 -26 -22h-101q-15 0 -18.5 5t-1.5 17l106 543h-98l-92 -476
q-4 -22 -26 -22h-101q-15 0 -19 5t-1 17l92 476h-32q-14 0 -17.5 5t-1.5 18l15 75q5 23 28 23h32l9 48q16 85 70.5 130.5t142.5 45.5q70 0 112 -19q46 39 132 39zM356 585q-50 0 -64 -72l-3 -19h98l8 45q7 33 10 42q-19 4 -49 4z" />
    <glyph glyph-name="fi" unicode="fi" horiz-adv-x="497" 
d="M369 726q88 0 134 -26q23 -14 13 -37l-24 -63q-4 -11 -12 -14t-24 0q-71 7 -84 7q-64 0 -78 -66l-6 -33h215q26 0 22 -22l-84 -450q-4 -22 -27 -22h-102q-23 0 -19 22l68 352h-98l-105 -545q-4 -22 -27 -22h-101q-23 0 -19 22l105 545h-32q-23 0 -19 22l15 75q5 23 28 23
h32l10 56q36 176 219 176z" />
    <glyph glyph-name="fl" unicode="fl" horiz-adv-x="510" 
d="M361 725q100 0 142 -21q57 16 67 16q17 0 14 -18l-132 -680q-4 -22 -26 -22h-102q-25 0 -21 22l110 568q-10 2 -49 2q-64 0 -77 -66l-6 -32h57q14 0 17.5 -6t-0.5 -17l-15 -75q-2 -13 -7 -18t-19 -5h-58l-105 -542q-4 -22 -27 -22h-101q-15 0 -18.5 5t-1.5 17l105 542
h-32q-12 0 -15.5 5t-1.5 18l15 75q4 23 26 23h33l10 55q35 176 218 176z" />
    <glyph glyph-name="ffi" unicode="ffi" horiz-adv-x="741" 
d="M476 698q49 40 140 40q90 0 134 -26q22 -11 14 -37l-25 -63q-4 -11 -12 -14t-23 0q-74 7 -85 7q-65 0 -79 -66l-8 -45h222q14 0 18 -8t-1 -15l-87 -450q0 -1 -1.5 -5.5t-2.5 -6t-3.5 -4.5t-7 -4t-11.5 -1h-102q-24 0 -19 21l67 352h-97l-105 -544q-2 -21 -27 -21h-99
q-24 0 -20 21l105 544h-98l-91 -477q-5 -15 -11 -18t-16 -3h-100q-25 0 -21 21l92 477h-32q-14 0 -17.5 5t-1.5 18l15 75q5 23 28 23h32l9 48q35 176 212 176q70 0 115 -20zM291 494h98l9 50q0 10 9 37q-19 4 -49 4q-47 0 -60 -55z" />
    <glyph glyph-name="ffl" unicode="ffl" horiz-adv-x="758" 
d="M610 732q98 0 142 -22l55 17q11 3 19 -0.5t6 -14.5l-134 -690q-4 -22 -30 -22h-94q-14 0 -20 5.5t-4 16.5l112 575q-22 3 -45 3q-69 0 -82 -67l-7 -39h57q14 0 17.5 -6t-0.5 -17l-15 -75q-2 -13 -7 -18t-19 -5h-58l-104 -543q-4 -22 -31 -22h-93q-15 0 -20 5.5t-3 16.5
l104 543h-96l-93 -476q-4 -22 -31 -22h-94q-15 0 -20 5.5t-3 16.5l94 476h-29q-27 0 -22 23l15 75q5 23 31 23h29l9 48q35 176 212 176q59 0 110 -24q53 38 142 38zM289 519l-4 -25h95l9 50l9 37q-21 4 -46 4q-50 0 -63 -66z" />
    <glyph glyph-name="ft" unicode="ft" horiz-adv-x="606" 
d="M590 116l-3 -56q-2 -24 -16 -34q-46 -34 -133 -34q-83 0 -108.5 37.5t-9.5 122.5l43 221h-98l-107 -544q-2 -21 -27 -21h-101q-15 0 -19 4.5t-1 16.5l108 544h-35q-22 0 -16 23l15 75q4 23 27 23h33l11 59q36 182 192 182q75 0 101 -20q15 -11 6 -33l-26 -68
q-5 -17 -20 -15q-6 0 -15.5 0.5t-16.5 1.5l-6 1q-32 0 -47.5 -14t-22.5 -51l-8 -43h98l10 54q4 19 31 32l100 42q12 7 20.5 2.5t5.5 -18.5l-21 -112h83q14 0 17.5 -6t-1.5 -17l-14 -74q-2 -10 -3.5 -13.5t-7.5 -7t-17 -3.5h-82l-28 -146q-12 -64 -10 -79q2 -12 9.5 -16
t24.5 -4q21 0 71 5q9 1 12 -3t2 -14z" />
    <glyph glyph-name=".notdef" horiz-adv-x="408" 
d="M409 0h-408v700h408v-700zM205 259l-84 -175h168zM120 616l85 -174l84 174h-169zM158 351l-71 149v-299zM323 498l-71 -149l71 -147v296z" />
    <glyph glyph-name=".null" horiz-adv-x="0" 
 />
    <glyph glyph-name="nonmarkingreturn" horiz-adv-x="333" 
 />
    <glyph glyph-name="space" unicode=" " horiz-adv-x="252" 
 />
    <glyph glyph-name="exclam" unicode="!" horiz-adv-x="250" 
d="M121 137q62 0 62 -48q0 -99 -91 -99q-62 0 -62 48q0 45 23 72t68 27zM290 642l-94 -428q-5 -20 -27 -20h-70q-13 0 -16.5 4.5t-1.5 15.5l70 428q5 21 27 21h93q13 0 17 -4.5t2 -16.5z" />
    <glyph glyph-name="quotedbl" unicode="&#x22;" horiz-adv-x="326" 
d="M385 646l-51 -209q-5 -14 -17 -14h-64q-15 0 -13 14l31 209q2 17 20 17h82q15 0 12 -17zM249 646l-52 -209q-2 -14 -18 -14h-64q-13 0 -11 14l30 209q3 17 20 17h82q16 0 13 -17z" />
    <glyph glyph-name="numbersign" unicode="#" horiz-adv-x="521" 
d="M205 20l79 187h-57l-79 -188q-5 -12 -9 -15.5t-12 -3.5h-74q-23 0 -14 20l77 187h-63q-19 0 -14 18l12 63q5 18 28 18h79l30 74h-65q-21 0 -17 19l12 62q4 18 29 18h83l69 164q5 13 9.5 16.5t13.5 3.5h77q19 0 10 -20l-69 -164h58l69 164q5 13 9 16.5t13 3.5h77
q19 0 11 -20l-69 -164h66q11 0 14 -4t1 -15l-12 -61q-3 -19 -24 -19h-87l-31 -74h73q11 0 14 -3.5t1 -14.5l-13 -63q-4 -18 -24 -18h-92l-79 -188q-6 -12 -9.5 -15.5t-12.5 -3.5h-74q-23 0 -14 20zM356 380h-57l-31 -74h57z" />
    <glyph glyph-name="dollar" unicode="$" horiz-adv-x="521" 
d="M263 0l-19 -95q-2 -15 -19 -15h-26q-11 0 -13.5 3t0.5 12l18 93q-104 7 -163 37q-28 15 -14 38l24 58q7 16 12.5 19t20.5 -1q70 -15 145 -21l30 145q-75 26 -114 63.5t-39 96.5q0 113 64 167q63 54 164 59l18 90q3 15 20 15h26q10 0 12 -3t1 -12l-18 -91q78 -6 132 -32
q26 -13 16 -38l-23 -58q-9 -24 -29 -19q-100 15 -121 17l-26 -136l40 -12q21 -7 41 -17q29 -14 42 -28q39 -37 39 -98q0 -115 -69 -174q-67 -58 -172 -63zM364 204q0 36 -49 52l-25 -128q74 14 74 76zM241 456q0 -26 45 -46q13 72 23 118q-68 -8 -68 -72z" />
    <glyph glyph-name="percent" unicode="%" horiz-adv-x="871" 
d="M252 677q140 0 140 -136q0 -46 -14 -107q-13 -58 -40 -108q-52 -95 -164 -95q-71 0 -104.5 36.5t-33.5 99.5q0 32 11 93q7 47 33 101q51 112 172 116zM235 572q-42 0 -64 -112q-10 -43 -10 -80q0 -43 28 -43q48 0 70 109q12 54 12 84q0 42 -36 42zM695 438
q140 0 140 -135q0 -51 -13 -107q-14 -62 -41 -108q-52 -95 -164 -95q-71 0 -104.5 36.5t-33.5 99.5q0 29 11 93q44 216 205 216zM678 334q-40 0 -64 -113q-10 -41 -10 -80q0 -43 29 -43q46 0 70 110q11 61 11 83q0 43 -36 43zM677 685l-370 -696q-6 -12 -21 -12h-76
q-20 0 -13 15l365 688q12 20 29 20h76q17 0 10 -15z" />
    <glyph glyph-name="ampersand" unicode="&#x26;" horiz-adv-x="638" 
d="M353 575q-20 0 -32 -28q-20 -46 -6 -96q62 41 62 92q0 32 -24 32zM225 104q46 0 94 30q-56 87 -82 154q-70 -52 -70 -122q0 -30 15.5 -46t42.5 -16zM389 39q-85 -50 -195 -50q-81 0 -126 37t-45 108q0 152 173 265q-15 41 -15 75q0 93 51.5 147t136.5 54q61 0 96.5 -33
t35.5 -87q0 -57 -42 -112q-40 -54 -104 -85q24 -65 73 -136q69 86 105 187q5 15 10 17.5t26 2.5h57q20 0 25.5 -7t2.5 -28q-14 -66 -59 -143q-48 -81 -92 -126q36 -43 81 -80q16 -13 0 -33l-44 -59q-9 -13 -17 -14.5t-29 7.5q-46 28 -105 93z" />
    <glyph glyph-name="quotesingle" unicode="'" horiz-adv-x="195" 
d="M254 646l-52 -209q-2 -14 -19 -14h-64q-13 0 -10 14l30 209q3 17 20 17h81q17 0 14 -17z" />
    <glyph glyph-name="parenleft" unicode="(" horiz-adv-x="291" 
d="M262 702q14 17 23.5 18.5t20.5 -8.5l44 -35q11 -8 11 -14.5t-10 -22.5q-72 -103 -115 -236q-41 -132 -41 -262q0 -102 25 -181q4 -17 1 -23t-18 -14l-56 -34q-29 -21 -41 8q-55 123 -55 270q0 284 211 534z" />
    <glyph glyph-name="parenright" unicode=")" horiz-adv-x="291" 
d="M133 640q-4 16 -1.5 22.5t16.5 14.5l57 35q12 7 19 8.5t12.5 -2.5t10.5 -16q55 -126 55 -268q0 -276 -212 -536q-14 -16 -23.5 -17.5t-20.5 9.5l-45 34q-10 8 -10 14t10 23q71 106 114 238q43 130 43 260q0 97 -25 181z" />
    <glyph glyph-name="asterisk" unicode="*" horiz-adv-x="372" 
d="M271 665h33q15 0 20 -5.5t3 -19.5l-10 -69l68 32q20 11 27 -9l13 -28q8 -19 -7 -29l-70 -48l51 -49q13 -13 -1 -32l-24 -28q-16 -19 -35 -9l-54 31l-17 -67q-5 -23 -30 -23h-37q-15 0 -19 4t-2 19l7 67l-61 -31q-22 -10 -29 5l-17 38q-4 10 5 20l71 54l-44 37
q-9 9 -10 14.5t7 20.5l22 31q15 21 33 12l58 -30l16 69q4 14 10 18.5t23 4.5z" />
    <glyph glyph-name="plus" unicode="+" horiz-adv-x="510" 
d="M498 360l-14 -72q-3 -21 -25 -21h-115l-28 -147q-2 -12 -7 -16t-16 -4h-88q-12 0 -16 4t-2 16l28 147h-117q-19 0 -16 21l14 71q4 21 24 21h117l27 138q4 21 26 21h88q20 0 15 -21l-27 -138h115q12 0 15.5 -4.5t1.5 -15.5z" />
    <glyph glyph-name="comma" unicode="," horiz-adv-x="204" 
d="M-24 -96q42 40 42 96q0 24 -9 38q-8 14 -5.5 25t18.5 23l66 52q28 22 48 -9q21 -31 21 -80q0 -132 -136 -217q-24 -16 -38 4l-18 29q-7 13 -5.5 18t16.5 21z" />
    <glyph glyph-name="hyphen" unicode="-" horiz-adv-x="352" 
d="M382 359l-15 -78q-5 -21 -24 -21h-278q-22 0 -16 21l15 77q4 21 25 21h277q10 0 15 -5.5t1 -14.5z" />
    <glyph glyph-name="period" unicode="." horiz-adv-x="198" 
d="M96 142q64 0 64 -50q0 -46 -22.5 -74t-70.5 -28q-65 0 -65 51q0 101 94 101z" />
    <glyph glyph-name="slash" unicode="/" horiz-adv-x="278" 
d="M386 669l-285 -715q-8 -17 -28 -17h-83q-25 0 -15 22l285 717q8 17 28 17h82q20 0 16 -24z" />
    <glyph glyph-name="zero" unicode="0" horiz-adv-x="521" 
d="M227 -9q-190 0 -190 194q0 65 20 156q1 9 10 49q22 81 44 122q37 72 90 111q65 49 156 49q109 0 151 -54q43 -52 43 -143q0 -47 -12 -125q-19 -116 -54 -191q-22 -50 -55 -87q-33 -36 -86 -58.5t-117 -22.5zM332 537q-44 0 -71.5 -50t-48.5 -155q-15 -84 -15 -120
q0 -85 55 -85q48 0 76.5 48.5t50.5 156.5q16 76 16 123q0 82 -63 82z" />
    <glyph glyph-name="one" unicode="1" horiz-adv-x="521" 
d="M454 110l-17 -89q-2 -13 -7.5 -17t-20.5 -4h-329q-24 0 -20 21l17 88q3 21 28 21h84l74 383h-70q-18 0 -23.5 3.5t-3.5 15.5l9 49q5 24 30 34l79 37q28 12 64 12h70q14 0 20 -5.5t4 -17.5l-99 -511h91q15 0 18.5 -4t1.5 -16z" />
    <glyph glyph-name="two" unicode="2" horiz-adv-x="521" 
d="M308 534q-30 0 -149 -11q-22 -2 -29 2t-6 19l3 56q1 28 39 43q34 13 87 21q56 8 87 8q189 0 189 -152q0 -72 -30 -125t-99 -117q-46 -46 -155 -140l2 -7h196q15 0 19.5 -5t2.5 -16l-18 -88q-2 -13 -8 -17.5t-20 -4.5h-386q-16 0 -21.5 5.5t-3.5 16.5l14 71q4 20 24 40
l257 234q64 58 64 124q0 43 -59 43z" />
    <glyph glyph-name="three" unicode="3" horiz-adv-x="521" 
d="M314 290l-108 24q-20 5 -25.5 12t-1.5 24l7 37q4 27 21 39l128 104l-2 4h-181q-24 0 -21 21l17 88q4 21 30 21h359q15 0 19 -4.5t2 -17.5l-13 -68q-6 -26 -30 -47l-120 -104l-1 -4l38 -12q76 -24 76 -121q0 -146 -86 -221q-86 -74 -215 -74q-27 0 -80 8q-49 7 -79 21
q-34 16 -25 44l21 56q6 16 15 21t29 1q85 -13 137 -13q120 0 120 116q0 38 -31 45z" />
    <glyph glyph-name="four" unicode="4" horiz-adv-x="521" 
d="M531 259l-18 -90q-3 -21 -25 -21q-6 0 -26 0.5t-26 0.5l-24 -128q0 -1 -1.5 -5.5t-2.5 -6t-3.5 -4.5t-7 -4t-11.5 -1h-106q-24 0 -20 21l24 128q-66 0 -119 -1h-120q-15 0 -22 6t-4 18l15 78q5 17 17 32l316 362q15 18 47 18h99q24 0 19 -20l-70 -363h52q12 0 15.5 -4.5
t1.5 -15.5zM193 276h118l34 174h-1q-1 1 -2 1l-149 -172v-3z" />
    <glyph glyph-name="five" unicode="5" horiz-adv-x="521" 
d="M508 533h-204l-30 -92l133 -27q101 -20 101 -131q0 -137 -82 -215q-83 -77 -218 -77q-28 0 -81 8q-49 7 -78 21q-34 16 -24 44l20 55q6 18 14.5 22.5t30.5 0.5q81 -14 137 -14t88 33t32 89q0 31 -43 41l-170 36q-45 9 -28 56l80 244q6 20 18 28.5t36 8.5h294
q14 0 18 -4.5t2 -16.5l-17 -88q-4 -22 -29 -22z" />
    <glyph glyph-name="six" unicode="6" horiz-adv-x="521" 
d="M315 292q-34 0 -106 -8q-15 -73 -15 -104q0 -28 13.5 -42.5t48.5 -14.5q100 0 100 122q0 47 -41 47zM353 534q-46 0 -71.5 -28t-43.5 -90q60 7 122 7q153 0 153 -149q0 -77 -25 -134t-67.5 -88.5t-91 -46t-102.5 -14.5q-103 0 -146.5 40t-43.5 123q0 59 20 156
q9 50 23 99q11 41 36 95q26 53 56 86q77 81 198 81q98 0 157 -27q33 -16 21 -42l-20 -55q-7 -17 -16 -21.5t-27 -2.5q-79 11 -132 11z" />
    <glyph glyph-name="seven" unicode="7" horiz-adv-x="521" 
d="M553 527l-332 -530q-16 -27 -44 -13l-79 32q-22 8 -5 34l296 483h-244q-27 0 -21 21l17 88q4 22 30 22h397q26 0 22 -22l-12 -62q-5 -19 -25 -53z" />
    <glyph glyph-name="eight" unicode="8" horiz-adv-x="521" 
d="M359 673q88 0 137 -37.5t49 -110.5q0 -37 -17 -84q-22 -59 -91 -90q67 -36 67 -123q0 -110 -82 -174q-82 -63 -198 -63q-202 0 -202 154q0 68 33 123t96 84q-56 29 -56 99q0 97 78 159q79 63 186 63zM333 540q-35 0 -57 -23t-22 -58q0 -40 53 -54q38 8 57.5 31.5
t19.5 54.5q0 49 -51 49zM250 126q42 0 70.5 29.5t28.5 69.5q0 53 -68 73q-43 -10 -70.5 -38t-27.5 -75q0 -29 18 -44t49 -15z" />
    <glyph glyph-name="nine" unicode="9" horiz-adv-x="521" 
d="M280 370q34 0 106 8q15 75 15 104q0 57 -62 57q-100 0 -100 -122q0 -47 41 -47zM230 128q53 0 80.5 27.5t46.5 91.5q-67 -8 -123 -8q-153 0 -153 148q0 62 17 111.5t44.5 81t65.5 52.5t77.5 30t81.5 9q102 0 146 -40.5t44 -123.5q0 -49 -20 -155q-9 -50 -23 -99
q-12 -44 -37 -95q-23 -49 -56 -86q-34 -36 -86 -58.5t-113 -22.5q-96 0 -159 27q-32 15 -21 42l20 55q7 17 15.5 22t26.5 3q88 -12 126 -12z" />
    <glyph glyph-name="colon" unicode=":" horiz-adv-x="201" 
d="M97 142q65 0 65 -50q0 -45 -23 -73.5t-71 -28.5q-65 0 -65 51q0 45 23.5 73t70.5 28zM158 455q65 0 65 -50q0 -45 -23 -73.5t-71 -28.5q-65 0 -65 50q0 47 23 74.5t71 27.5z" />
    <glyph glyph-name="semicolon" unicode=";" horiz-adv-x="201" 
d="M160 455q36 0 50.5 -13.5t13.5 -41.5q-4 -97 -93 -97q-34 0 -50 14t-14 42q2 96 93 96zM-26 -97q38 37 42 90q2 27 -9 45q-9 15 -6.5 25.5t19.5 22.5l66 52q28 22 48 -9q23 -33 21 -86q-4 -129 -136 -211q-25 -16 -39 4l-18 29q-7 12 -5 17.5t17 20.5z" />
    <glyph glyph-name="semicolon" unicode="&#x37e;" horiz-adv-x="201" 
d="M160 455q36 0 50.5 -13.5t13.5 -41.5q-4 -97 -93 -97q-34 0 -50 14t-14 42q2 96 93 96zM-26 -97q38 37 42 90q2 27 -9 45q-9 15 -6.5 25.5t19.5 22.5l66 52q28 22 48 -9q23 -33 21 -86q-4 -129 -136 -211q-25 -16 -39 4l-18 29q-7 12 -5 17.5t17 20.5z" />
    <glyph glyph-name="less" unicode="&#x3c;" horiz-adv-x="510" 
d="M457 166l-20 -95q-2 -9 -10.5 -12.5t-16.5 2.5l-308 206q-15 10 -12 23l14 71q1 12 19 23l389 207q9 6 17 3t6 -14l-19 -103q-2 -14 -21 -23l-241 -131l-1 -5l191 -128q15 -10 13 -24z" />
    <glyph glyph-name="equal" unicode="=" horiz-adv-x="510" 
d="M517 452l-14 -72q-4 -22 -24 -22h-363q-20 0 -16 22l14 71q4 21 24 21h363q21 0 16 -20zM481 267l-14 -72q-2 -12 -7 -16.5t-17 -4.5h-363q-20 0 -16 21l14 72q5 20 24 20h363q12 0 15 -4.5t1 -15.5z" />
    <glyph glyph-name="greater" unicode="&#x3e;" horiz-adv-x="510" 
d="M46 71l20 105q1 13 22 24l240 128l1 5l-190 131q-13 10 -12 23l19 93q2 11 11 14t15 -3l309 -207q14 -11 12 -23l-14 -71q-3 -12 -23 -23l-388 -206q-10 -6 -17 -2.5t-5 12.5z" />
    <glyph glyph-name="question" unicode="?" horiz-adv-x="373" 
d="M205 89q0 -44 -24 -71.5t-67 -27.5q-63 0 -63 48q0 45 22.5 72.5t68.5 27.5q63 0 63 -49zM87 205l8 50q11 67 40 105q29 39 93 91q37 28 37 62q0 33 -52 33q-40 0 -83 -7q-22 -3 -26.5 0t-2.5 18l5 58q2 14 6 19.5t20 13.5q54 24 128 24q162 0 162 -132q0 -92 -104 -169
q-41 -30 -60.5 -58t-27.5 -69l-7 -37q-5 -23 -27 -23h-86q-15 0 -20 4.5t-3 16.5z" />
    <glyph glyph-name="at" unicode="@" horiz-adv-x="773" 
d="M518 523l1 1l3 10q4 13 17 13h70q16 0 13 -17l-47 -251q-9 -39 24 -39q30 0 56 43t35 114q13 106 -33 169t-143 63q-124 0 -209 -85q-84 -83 -101 -212q-34 -252 166 -252q70 0 120 12q26 5 31 3.5t7 -17.5l6 -36q4 -21 -16 -32q-34 -15 -76 -22q-48 -8 -75 -8
q-157 0 -223 95t-45 256q20 172 140 282q121 111 281 111q158 0 225 -91q69 -90 52 -227q-15 -129 -79 -193q-63 -63 -141 -63q-37 0 -64.5 16.5t-34.5 43.5q-52 -43 -119 -44q-89 0 -84 110q1 37 9 82q21 102 56 146.5t102 44.5q48 0 76 -26zM456 440q-25 0 -38 -16.5
t-22 -61.5q-6 -30 -6 -48q-2 -39 24 -39q21 0 56 21l25 134q-20 10 -39 10z" />
    <glyph glyph-name="A" unicode="A" horiz-adv-x="552" 
d="M366 31l-4 118h-150l-52 -122q-10 -27 -41 -27h-105q-28 0 -15 28l282 607q11 21 19 25q10 4 27 4h117q17 0 24 -6.5t9 -22.5l50 -607q1 -28 -21 -28h-109q-18 0 -24 6.5t-7 24.5zM359 499h-4q-2 -7 -38 -97l-51 -130h90v118q0 64 3 109z" />
    <glyph glyph-name="B" unicode="B" horiz-adv-x="537" 
d="M336 530h-59l-24 -122h64q28 0 47.5 22.5t19.5 55.5q0 44 -48 44zM200 134h73q38 0 60 26t22 66q0 53 -54 53h-73l-14 -73zM171 664h205q173 0 173 -140q0 -43 -19 -87q-25 -58 -94 -86v-2q0 -1 -1 -2q79 -32 79 -128q0 -106 -73 -162.5t-201 -56.5h-197q-13 0 -18 4.5
t-5 16.5l121 621q4 22 30 22z" />
    <glyph glyph-name="C" unicode="C" horiz-adv-x="507" 
d="M389 672q101 0 162 -32q29 -17 19 -44l-22 -58q-6 -15 -15 -19t-29 -1q-82 9 -122 9q-57 0 -90 -48.5t-52 -146.5q-13 -65 -13 -105q0 -48 18.5 -70.5t60.5 -22.5q54 0 141 9q21 2 28 -2t8 -18l2 -53q2 -29 -37 -46q-72 -33 -183 -33q-205 0 -205 232q0 41 9 109
q51 340 320 340z" />
    <glyph glyph-name="D" unicode="D" horiz-adv-x="564" 
d="M320 530h-44l-77 -396h39q75 0 121 79q47 80 47 212q0 55 -21 80t-65 25zM171 664h183q113 0 163 -56.5t50 -165.5q0 -179 -73 -304q-37 -65 -106 -101.5t-160 -36.5h-184q-24 0 -24 15q0 1 0.5 3t0.5 3l121 621q4 22 29 22z" />
    <glyph glyph-name="E" unicode="E" horiz-adv-x="476" 
d="M454 113l-19 -92q-2 -8 -3.5 -11t-7 -6.5t-16.5 -3.5h-363q-25 0 -21 21l121 621q2 8 4 12t8 7t17 3h337q22 0 19 -19l-17 -88q-5 -27 -28 -27h-205l-23 -118h190q23 0 18 -21l-17 -90q-1 -8 -2.5 -11.5t-7.5 -7t-17 -3.5h-189l-29 -145h233q22 0 18 -21z" />
    <glyph glyph-name="F" unicode="F" horiz-adv-x="448" 
d="M28 25l118 617q4 22 31 22h340q11 0 16.5 -4.5t4.5 -11.5l-18 -96q-4 -22 -30 -22h-209l-23 -120h181q10 0 14.5 -3.5t3.5 -10.5l-18 -98q-4 -22 -29 -22h-177l-50 -255q-5 -21 -31 -21h-102q-26 0 -22 25z" />
    <glyph glyph-name="G" unicode="G" horiz-adv-x="550" 
d="M262 -9q-108 0 -155 55t-47 164q0 57 11 131q17 108 61 187q86 144 260 144q96 0 162 -31q32 -15 21 -44l-21 -59q-6 -16 -15 -19.5t-30 -0.5q-86 11 -123 11q-59 0 -92.5 -49t-52.5 -148q-13 -62 -13 -108q0 -93 74 -93q36 0 51 7l24 122h-45q-25 0 -20 20l16 81
q3 13 8.5 17.5t19.5 4.5h170q14 0 20.5 -6.5t4.5 -15.5l-57 -284q-6 -38 -43 -54q-84 -32 -189 -32z" />
    <glyph glyph-name="H" unicode="H" horiz-adv-x="553" 
d="M605 642l-120 -621q-5 -21 -30 -21h-106q-15 0 -20 5t-2 16l49 256h-144l-49 -256q-5 -21 -29 -21h-107q-25 0 -21 21l120 621q4 22 30 22h107q24 0 20 -22l-44 -230h144l44 230q4 22 31 22h106q16 0 20 -5.5t1 -16.5z" />
    <glyph glyph-name="I" unicode="I" horiz-adv-x="260" 
d="M308 642l-120 -621q-4 -21 -30 -21h-108q-24 0 -20 21l120 621q4 22 29 22h108q25 0 21 -22z" />
    <glyph glyph-name="J" unicode="J" horiz-adv-x="404" 
d="M453 642l-91 -465q-19 -96 -70.5 -141t-153.5 -45q-29 0 -77 8q-42 7 -63 22q-15 10 -4 36l19 65q6 14 12 17t21 1q85 -8 87 -8q35 0 53 19t25 58l83 433q4 22 32 22h106q16 0 20 -5.5t1 -16.5z" />
    <glyph glyph-name="K" unicode="K" horiz-adv-x="528" 
d="M612 637l-226 -254l116 -353q4 -12 -1.5 -21t-17.5 -9h-112q-18 0 -27.5 5.5t-12 11.5t-7.5 21l-62 209l-59 -67l-30 -159q-5 -21 -30 -21h-103q-15 0 -20 5.5t-3 15.5l120 621q4 22 32 22h105q24 0 20 -22l-42 -220h5q35 51 78 99l102 124q15 19 52 19h114q13 0 16.5 -7
t-7.5 -20z" />
    <glyph glyph-name="L" unicode="L" horiz-adv-x="459" 
d="M443 117l-19 -97q-3 -20 -28 -20h-351q-15 0 -19.5 4.5t-2.5 16.5l120 621q4 22 30 22h107q15 0 19 -5t1 -17l-98 -508h223q11 0 15.5 -4t2.5 -13z" />
    <glyph glyph-name="M" unicode="M" horiz-adv-x="665" 
d="M717 643l-120 -622q-5 -21 -29 -21h-103q-14 0 -19 5.5t-3 15.5l54 280q-2 0 -4 1l-38 -68l-58 -99q-16 -25 -40 -25h-52q-29 0 -33 24l-24 105l-6 34l-5 33q-1 -1 -3 -1l-55 -284q-5 -21 -32 -21h-98q-29 0 -24 21l120 622q5 21 32 21h83q22 0 29.5 -4.5t10.5 -18.5
l29 -135l37 -192h6q18 38 112 192l83 134q15 24 51 24h80q24 0 19 -21z" />
    <glyph glyph-name="N" unicode="N" horiz-adv-x="571" 
d="M357 24l-59 161q-15 42 -27 81t-17.5 60.5t-7.5 25.5h-1l-2 -1l-64 -330q-5 -21 -29 -21h-103q-25 0 -21 21l120 622q6 21 30 21h78q21 0 26.5 -4.5t9.5 -17.5l69 -194q36 -108 43 -141q2 0 3 1l65 334q4 22 30 22h103q26 0 20 -22l-120 -619q-4 -23 -27 -23h-79
q-31 0 -40 24z" />
    <glyph glyph-name="O" unicode="O" horiz-adv-x="588" 
d="M390 672q115 0 162 -56q46 -55 46 -150q0 -35 -11 -115q-51 -360 -326 -360q-203 0 -203 205q0 55 16 147q60 329 316 329zM366 534q-49 0 -78 -47.5t-50 -156.5q-14 -76 -14 -114q0 -86 63 -86q52 0 82.5 46.5t51.5 153.5q14 78 14 117q0 46 -16 66.5t-53 20.5z" />
    <glyph glyph-name="P" unicode="P" horiz-adv-x="484" 
d="M289 243h-66l-44 -222q-2 -21 -28 -21h-107q-14 0 -19 4.5t-3 16.5l121 621q4 22 30 22h196q82 0 127 -42.5t45 -124.5q0 -44 -12 -85.5t-39 -81t-79 -63.5t-122 -24zM325 530h-47l-30 -157h48q37 0 59.5 27t22.5 75q0 55 -53 55z" />
    <glyph glyph-name="Q" unicode="Q" horiz-adv-x="591" 
d="M391 672q115 0 160 -56q46 -55 46 -152q0 -116 -34 -224q-33 -111 -108 -178l75 -29q26 -11 13 -34l-48 -87q-19 -34 -53 -15l-171 94h-10q-204 0 -204 204q0 56 17 146q64 331 317 331zM366 534q-48 0 -78 -48.5t-50 -155.5q-14 -68 -14 -116q0 -84 64 -84q50 0 81 47
t52 153q23 111 11 157.5t-66 46.5z" />
    <glyph glyph-name="R" unicode="R" horiz-adv-x="513" 
d="M416 280l56 -255q2 -11 -4.5 -18t-19.5 -7h-102q-34 0 -38 22l-36 230h-49l-45 -230q-4 -22 -28 -22h-107q-14 0 -19 4.5t-3 16.5l121 621q4 22 29 22h208q75 0 121 -42.5t46 -121.5q0 -156 -130 -220zM331 530h-55q-20 -111 -28 -148h53q35 0 58.5 23t23.5 75
q0 50 -52 50z" />
    <glyph glyph-name="S" unicode="S" horiz-adv-x="497" 
d="M342 671q105 0 161 -29q36 -17 23 -43l-21 -59q-7 -18 -16 -22t-30 0q-73 14 -126 14q-79 0 -79 -70q0 -30 36 -46l23 -9l57 -18q58 -20 88 -55t30 -97q0 -67 -24 -116.5t-66 -77t-90.5 -40t-105.5 -12.5q-109 0 -170 31q-35 16 -22 43l21 59q6 19 17 23t32 -2
q89 -14 148 -14q93 0 93 78q0 24 -14.5 36.5t-50.5 22.5q-72 22 -115 52q-54 42 -54 119q0 121 70 176q71 56 185 56z" />
    <glyph glyph-name="T" unicode="T" horiz-adv-x="457" 
d="M549 641l-17 -89q-6 -22 -32 -22h-115l-98 -508q-4 -22 -28 -22h-107q-15 0 -19.5 5t-2.5 17l98 508h-114q-28 0 -22 22l17 89q5 23 31 23h387q27 0 22 -23z" />
    <glyph glyph-name="U" unicode="U" horiz-adv-x="560" 
d="M295 130q79 0 101 115l76 397q4 22 31 22h105q16 0 20 -5.5t1 -16.5l-78 -398q-22 -120 -91.5 -186.5t-184.5 -66.5q-117 0 -164 72q-47 74 -26 190l77 389q4 22 31 22h105q25 0 21 -22l-77 -397q-12 -60 1 -87.5t52 -27.5z" />
    <glyph glyph-name="V" unicode="V" horiz-adv-x="559" 
d="M267 637l10 -212q6 -109 6 -220h5q64 151 84 201l96 227q13 31 45 31h114q24 0 14 -25l-296 -610q-12 -29 -47 -29h-101q-12 0 -19 1.5t-10 7.5t-3.5 7.5t-1.5 11.5l-57 611q-1 12 6 18.5t22 6.5h99q20 0 27 -6t7 -21z" />
    <glyph glyph-name="W" unicode="W" horiz-adv-x="760" 
d="M403 247h-4l-52 -121l-43 -97q-11 -29 -47 -29h-88q-37 0 -37 29l-30 608q0 28 22 28h113q17 0 24 -6t7 -21l5 -225q2 -33 0 -92q-1 -39 -1 -76h5l49 125l49 117l-10 153q-1 25 18 25h105q17 0 24 -6t8 -21l7 -211q1 -19 -1 -183h5q29 94 68 192l80 202q11 27 42 27h108
q24 0 13 -26l-258 -610q-12 -29 -48 -29h-91q-32 0 -34 29l-4 92q-4 57 -4 126z" />
    <glyph glyph-name="X" unicode="X" horiz-adv-x="503" 
d="M304 21l-38 184l-108 -182q-14 -23 -44 -23h-116q-13 0 -17 8t4 20l219 317l-89 291q-4 11 3.5 19.5t20.5 8.5h105q19 0 25 -3.5t8 -17.5l34 -165l97 163q12 23 41 23h119q14 0 17.5 -8.5t-3.5 -17.5l-208 -293l96 -319q8 -26 -25 -26h-105q-32 0 -36 21z" />
    <glyph glyph-name="Y" unicode="Y" horiz-adv-x="550" 
d="M306 435l8 -54h6q22 49 69 126l77 129q10 16 20 22t30 6h109q12 0 16 -6t-2 -16l-269 -400h1l-43 -221q-4 -21 -29 -21h-106q-15 0 -19.5 4.5t-2.5 16.5l43 221l-106 397q-5 9 3 17t20 8h103q21 0 27.5 -6t10.5 -27l24 -129q7 -39 10 -67z" />
    <glyph glyph-name="Z" unicode="Z" 
d="M441 113l-17 -92q-2 -12 -7.5 -16.5t-21.5 -4.5h-371q-26 0 -21 21l10 56l6 26q7 26 30 54l299 373h-199q-16 0 -20 6t-1 19l16 87q3 22 30 22h348q26 0 21 -21l-14 -72q-4 -24 -34 -63l-298 -374h223q11 0 16.5 -3t5.5 -7.5t-1 -10.5z" />
    <glyph glyph-name="bracketleft" unicode="[" horiz-adv-x="251" 
d="M202 5l-15 -80q-3 -20 -25 -20h-162q-21 0 -17 22l145 746q6 22 26 22h162q20 0 16 -21l-16 -82q-5 -20 -25 -20h-42l-106 -546h43q20 0 16 -21z" />
    <glyph glyph-name="backslash" unicode="\" horiz-adv-x="275" 
d="M139 -44l-62 714q0 24 22 24h82q21 0 25 -16l63 -718q0 -21 -24 -21h-82q-22 0 -24 17z" />
    <glyph glyph-name="bracketright" unicode="]" horiz-adv-x="251" 
d="M-16 -75l15 80q4 21 26 21h44l106 546h-43q-22 0 -17 20l16 82q5 21 25 21h162q20 0 16 -22l-145 -746q-4 -22 -26 -22h-162q-20 0 -17 20z" />
    <glyph glyph-name="asciicircum" unicode="^" horiz-adv-x="493" 
d="M509 355l-44 -28q-8 -6 -13 -7t-9 2t-8 11l-112 204l-197 -204q-17 -17 -31 -4l-31 25q-7 10 -6 14.5t12 18.5l201 258q9 12 17.5 15.5t28.5 3.5h71q29 0 36 -19l94 -262q6 -18 -9 -28z" />
    <glyph glyph-name="underscore" unicode="_" horiz-adv-x="426" 
d="M409 -66l-11 -55q-4 -21 -25 -21h-427q-22 0 -17 21l10 54q5 21 26 21h427q12 0 15.5 -4.5t1.5 -15.5z" />
    <glyph glyph-name="grave" unicode="`" horiz-adv-x="458" 
d="M327 561l-99 139q-13 18 8 30l70 43q21 14 29 -3l76 -163q9 -19 -7 -28l-42 -25q-13 -7 -20 -5.5t-15 12.5z" />
    <glyph glyph-name="a" unicode="a" horiz-adv-x="489" 
d="M360 462h1q1 1 2 1l4 15q4 16 23 16h97q21 0 17 -24l-88 -448q-4 -22 -27 -22h-102q-18 0 -18 13q0 3 2.5 13.5t2.5 11.5h-2l-2 1q-56 -46 -126 -46q-59 0 -86 31.5t-27 93.5q0 61 10 120q17 103 61 174q51 83 148 83q70 0 110 -33zM277 357q-65 0 -84 -114
q-7 -39 -7 -60q0 -29 7.5 -39.5t26.5 -10.5q28 0 75 25l36 186q-25 13 -54 13z" />
    <glyph glyph-name="b" unicode="b" 
d="M282 371q-22 0 -55 -11l-44 -229q13 -8 43 -5.5t48 21.5q45 48 50 172q0 29 -10 40.5t-32 11.5zM331 503q81 0 115.5 -35t34.5 -108t-14.5 -136.5t-44.5 -117t-83.5 -84.5t-125.5 -31q-113 0 -171 30q-29 15 -21 50l118 613q4 22 33 22h96q26 0 22 -22l-37 -192l1 -2
q40 13 77 13z" />
    <glyph glyph-name="c" unicode="c" horiz-adv-x="408" 
d="M296 503q36 0 76 -10q44 -11 62 -23q14 -10 7 -29l-23 -62q-8 -22 -25 -20q-95 9 -102 9q-35 0 -61 -28t-35 -81q-7 -36 -7 -75q0 -32 12.5 -45.5t40.5 -13.5q58 0 111 8q30 8 30 -17l-1 -56q0 -15 -3.5 -21t-15.5 -14q-22 -15 -73 -24q-49 -9 -92 -9q-89 0 -125.5 38.5
t-36.5 116.5q0 53 6 93q14 104 68 178q63 85 187 85z" />
    <glyph glyph-name="d" unicode="d" horiz-adv-x="472" 
d="M353 493l3 3l37 187q5 23 32 23h94q27 0 22 -23l-128 -661q-4 -22 -28 -22h-103q-22 0 -18 21l3 13q-1 1 -3 1q-64 -42 -120 -42q-61 0 -88.5 32t-27.5 97q0 39 14 117q24 135 70 198q50 68 162 68q40 0 79 -12zM276 372q-31 0 -49 -27t-33 -100q-9 -48 -9 -72
q0 -41 30 -41q33 0 75 24l40 207q-26 9 -54 9z" />
    <glyph glyph-name="e" unicode="e" horiz-adv-x="449" 
d="M301 503q68 0 111 -33.5t43 -94.5q0 -181 -274 -193q-2 -10 -2 -21q0 -26 12 -36t44 -10q47 0 133 10q21 3 21 -21q0 -6 -0.5 -22t-0.5 -22q0 -28 -22 -40q-52 -30 -168 -30q-165 0 -165 165q0 39 7 80q17 101 69 175q64 93 192 93zM307 351q0 34 -35 34q-26 0 -41 -18.5
t-28 -59.5l-6 -25q110 9 110 69z" />
    <glyph glyph-name="f" unicode="f" horiz-adv-x="365" 
d="M7 -174l110 548l-1 -1h-50q-14 0 -17.5 5t-1.5 17l15 76q4 22 28 22h49l10 47q33 176 210 176q74 0 119 -24q21 -12 12 -37l-23 -62q-6 -20 -35 -16q-40 6 -79 6q-49 0 -61 -65l-5 -25h88q16 0 19.5 -5t0.5 -16l-15 -77q-3 -13 -8 -17.5t-20 -4.5h-90l-107 -547
q-4 -22 -27 -22h-101q-15 0 -18.5 5t-1.5 17z" />
    <glyph glyph-name="g" unicode="g" horiz-adv-x="471" 
d="M268 -5l3 17h-1q-39 -12 -77 -12q-80 0 -115 36t-35 109q0 148 58 247q64 111 208 111q76 0 133 -15t57 -50q0 -11 -1 -14l-77 -406q-18 -88 -45 -134q-52 -93 -209 -93q-84 0 -135 24q-31 15 -24 40l22 57q6 17 14.5 20.5t27.5 -2.5q58 -11 112 -11q39 0 58 18t26 58z
M240 132q25 0 56 11l43 221q-2 1 -30 4q-43 0 -68 -31q-43 -50 -43 -154q0 -29 10 -40t32 -11z" />
    <glyph glyph-name="h" unicode="h" horiz-adv-x="477" 
d="M289 684l-41 -213l2 -2q69 34 120 34q77 0 103 -42q12 -18 15 -46q4 -41 -8 -109l-55 -284q-4 -22 -29 -22h-101q-25 0 -21 22l54 275q8 38 0 52.5t-30 14.5q-34 0 -77 -25l-61 -317q-4 -22 -28 -22h-101q-25 0 -21 22l128 662q4 22 30 22h102q23 0 19 -22z" />
    <glyph glyph-name="i" unicode="i" horiz-adv-x="237" 
d="M289 624q-16 -76 -93 -76q-43 0 -56 19t-6 57q14 74 91 74q43 0 57 -18t7 -56zM254 472l-87 -451q-5 -21 -29 -21h-96q-29 0 -24 21l87 451q4 22 33 22h96q24 0 20 -22z" />
    <glyph glyph-name="j" unicode="j" horiz-adv-x="250" 
d="M236 698q65 0 65 -48q0 -102 -93 -102q-66 0 -66 51q0 45 23.5 72t70.5 27zM266 472l-87 -451q-25 -132 -91 -184q-64 -50 -188 -49q-14 0 -21.5 5.5t-6.5 16.5l10 79q2 13 7 17.5t21 8.5q36 9 52 14q17 6 32 17q16 11 23.5 28.5t14.5 54.5l85 443q4 22 31 22h96
q26 0 22 -22z" />
    <glyph glyph-name="k" unicode="k" horiz-adv-x="454" 
d="M271 23l-47 148l-43 -46l-20 -104q-5 -21 -27 -21h-101q-25 0 -21 21l128 663q4 22 30 22h101q22 0 18 -22l-67 -345q2 0 3 -1q17 23 32 40q9 11 23 29l54 65q16 22 53 22h105q13 0 15.5 -7.5t-9.5 -20.5l-157 -170l88 -269q7 -27 -22 -27h-97q-31 0 -39 23z" />
    <glyph glyph-name="l" unicode="l" horiz-adv-x="257" 
d="M144 -5q-66 0 -85.5 33.5t-4.5 112.5l105 542q4 22 30 22h99q24 0 20 -22l-103 -530q-3 -17 2.5 -23.5t19.5 -8.5q13 0 18.5 -3.5t5.5 -17.5l-9 -65q-2 -16 -14 -23q-29 -17 -84 -17z" />
    <glyph glyph-name="m" unicode="m" horiz-adv-x="719" 
d="M246 472l-3 -19l1 -1h2q64 51 126 51q83 0 99 -64q82 64 151 64q85 0 104 -64q6 -18 5 -42q-1 -39 -12 -92l-55 -281q-4 -19 -16 -23q-3 -1 -11 -1h-104q-25 0 -20 21l55 278q12 62 -26 62q-25 0 -72 -25l-8 -47l-52 -268q-2 -21 -26 -21h-102q-24 0 -20 21l55 280
q12 60 -27 60q-26 0 -70 -24l-61 -313q-1 -5 -1.5 -6.5t-2.5 -6t-4 -6.5t-7 -3.5t-11 -1.5h-104q-15 0 -19 4.5t-1 16.5l87 451q2 8 4 12t8 7t17 3h102q23 0 19 -22z" />
    <glyph glyph-name="n" unicode="n" horiz-adv-x="476" 
d="M246 472l-3 -17l4 -2q64 49 131 49q74 0 97 -42q12 -18 13 -46q4 -42 -9 -109l-55 -284q-4 -21 -29 -21h-102q-25 0 -20 21l54 277q13 63 -30 63q-25 0 -77 -23l-61 -317q-5 -21 -27 -21h-102q-26 0 -21 21l87 451q4 22 30 22h104q20 0 16 -22z" />
    <glyph glyph-name="o" unicode="o" 
d="M297 503q174 0 174 -162q0 -39 -9 -89q-42 -260 -259 -260q-170 0 -170 156q0 45 13 106q14 69 42 124q57 121 209 125zM275 372q-32 0 -51.5 -31.5t-30.5 -101.5q-7 -50 -7 -66q0 -50 39 -50q33 0 51.5 28.5t31.5 96.5q10 46 10 73q0 51 -43 51z" />
    <glyph glyph-name="p" unicode="p" 
d="M159 0l-4 -2l-33 -172q-1 -5 -2 -7.5t-3.5 -6.5t-8.5 -6t-14 -2h-102q-23 0 -19 22l124 645q3 22 28 22h103q12 0 15.5 -4.5t3.5 -17.5l-3 -16l4 -2q57 48 119 48q60 0 86 -33.5t26 -102.5q0 -44 -8 -106q-22 -138 -76.5 -204t-159.5 -66q-34 0 -76 11zM294 359
q-36 0 -74 -25l-40 -204q28 -9 44 -9q38 0 58 23q20 24 33 102q9 47 9 70q0 43 -30 43z" />
    <glyph glyph-name="q" unicode="q" horiz-adv-x="471" 
d="M230 124q28 0 55 10l45 230q-18 5 -44 5q-27 0 -48 -19.5t-31 -52.5q-19 -63 -19 -122q0 -29 10 -40t32 -11zM182 -8q-82 0 -116.5 35t-34.5 108t14.5 136.5t44.5 117t83.5 84.5t125.5 31q114 0 172 -31q28 -16 21 -50l-117 -597q-4 -22 -32 -22h-96q-26 0 -22 22l34 176
l-1 2q-39 -12 -76 -12z" />
    <glyph glyph-name="r" unicode="r" horiz-adv-x="352" 
d="M411 476l-8 -87q-2 -21 -9 -29t-28 -13q-85 -19 -142 -44l-54 -282q-4 -21 -28 -21h-100q-15 0 -19 4.5t-2 16.5l87 451q4 22 30 22h100q23 0 19 -22l-7 -38l2 -2q30 29 74 49q41 19 67 19q21 0 18 -24z" />
    <glyph glyph-name="s" unicode="s" horiz-adv-x="414" 
d="M267 503q81 0 141 -23q17 -7 22 -16.5t0 -26.5l-14 -49q-4 -15 -11.5 -18t-28.5 0q-80 11 -118 11q-43 0 -43 -37q0 -9 3.5 -14.5t7.5 -7t13 -4.5t14 -6q63 -19 82 -28q34 -15 49.5 -38t18.5 -63q1 -54 -19 -93t-54.5 -60t-73 -30t-83.5 -9q-84 0 -138 23
q-21 9 -25.5 19.5t2.5 28.5l14 48q5 15 13.5 18.5t27.5 -0.5q61 -13 121 -13t61 43q0 25 -38 34q-31 10 -38 11l-33 12q-25 10 -32 16q-51 41 -45 86q-2 98 57 142t147 44z" />
    <glyph glyph-name="t" unicode="t" horiz-adv-x="351" 
d="M346 116l-5 -68q-2 -21 -26 -32q-54 -24 -136 -24q-71 0 -96 35t-10 108l46 239h-32q-24 0 -18 22l14 76q4 22 27 22h34l19 98q4 17 30 25l94 28q15 4 23 -1t5 -19l-26 -131h82q26 0 18 -23l-14 -73q-1 -7 -1.5 -9t-2.5 -6.5t-4.5 -5.5t-7.5 -2t-12 -1h-82l-34 -174
q-8 -44 -2 -58t32 -14q21 0 58 5q18 3 22.5 0t4.5 -17z" />
    <glyph glyph-name="u" unicode="u" 
d="M265 22l4 22l-4 2q-65 -54 -133 -54q-79 0 -98 44q-12 34 -9 65q3 35 12 78l56 293q4 22 30 22h100q14 0 18.5 -5t2.5 -17l-51 -263q-8 -48 -2 -61q16 -30 101 11l61 314q1 21 30 21h99q14 0 18 -5t2 -17l-88 -450q-3 -22 -27 -22h-102q-24 0 -20 22z" />
    <glyph glyph-name="v" unicode="v" horiz-adv-x="467" 
d="M523 469l-227 -438q-15 -31 -49 -31h-83q-20 0 -28.5 7t-10.5 24l-55 437q-2 26 25 26h97q18 0 23 -4t6 -19l8 -150q7 -124 4 -149h5q5 15 65 154l66 147q6 12 13 16.5t25 4.5h98q28 0 18 -25z" />
    <glyph glyph-name="w" unicode="w" horiz-adv-x="649" 
d="M340 197h-4l-18 -43l-21 -51l-36 -76q-13 -27 -38 -27h-80q-15 0 -23 6t-10 13t-3 21l-37 428q-2 11 5.5 18.5t20.5 7.5h99q16 0 21 -4.5t6 -19.5l4 -137q5 -101 3 -139h4q30 72 51 118l26 57l-11 99q-2 26 26 26h90q15 0 20 -4.5t6 -19.5l5 -137q3 -103 1 -134h5
q17 49 52 137l54 137q6 12 13 16.5t23 4.5h95q28 0 18 -25l-198 -428q-10 -24 -19.5 -32.5t-27.5 -8.5h-80q-24 3 -29.5 11t-5.5 27l-3 61q-5 79 -4 98z" />
    <glyph glyph-name="x" unicode="x" horiz-adv-x="454" 
d="M262 17l-34 135l-83 -134q-12 -18 -38 -18h-114q-13 0 -17 7t5 19l173 225l-78 217q-4 10 3 18t19 8h104q20 0 24.5 -4t8.5 -22l27 -120l79 128q11 18 36 18h116q28 0 13 -26l-168 -216l88 -226q4 -10 -3 -18t-20 -8h-109q-27 0 -32 17z" />
    <glyph glyph-name="y" unicode="y" horiz-adv-x="458" 
d="M234 197h4l53 121l71 155q10 21 36 21h100q28 0 13 -26l-328 -641q-8 -15 -15.5 -19t-25.5 -4h-86q-30 0 -17 25l95 184l-58 456q-3 25 25 25h95q15 0 20.5 -4.5t6.5 -17.5l9 -162q4 -64 2 -113z" />
    <glyph glyph-name="z" unicode="z" horiz-adv-x="403" 
d="M-11 20l8 46q7 37 34 67l220 238h-156q-14 0 -18 5.5t-2 17.5l15 78q4 22 29 22h301q15 0 19.5 -4.5t2.5 -16.5l-7 -39q0 -4 -4 -16q0 -11 -4 -16q-17 -34 -28 -45l-214 -235h170q14 0 18 -5t2 -17l-15 -79q-4 -21 -27 -21h-323q-15 0 -19 4t-2 16z" />
    <glyph glyph-name="braceleft" unicode="{" horiz-adv-x="295" 
d="M261 -22l-12 -61q-3 -14 -22 -20q-26 -8 -65 -8q-123 0 -97 131l32 161q15 63 -18 74q-15 7 -14 20l9 47q3 16 22 23q16 6 27 18q12 16 22 66l27 138q10 54 45 95q36 41 95 41q46 0 71 -6q17 -5 14 -20l-13 -67q-4 -18 -25 -18q-27 0 -39.5 -11t-17.5 -37l-25 -129
q-7 -34 -27.5 -67t-51.5 -49l-1 -5q38 -19 39 -53q3 -19 -5 -66l-26 -132q-5 -25 2.5 -34.5t36.5 -11.5q21 -2 17 -19z" />
    <glyph glyph-name="bar" unicode="|" horiz-adv-x="260" 
d="M232 674v-763q0 -22 -25 -22h-80q-26 0 -26 22v763q0 22 26 22h80q25 0 25 -22z" />
    <glyph glyph-name="braceright" unicode="}" horiz-adv-x="295" 
d="M-29 -83l12 61q3 18 25 19q29 2 40.5 11.5t16.5 34.5l26 132q5 25 11 47q18 51 69 72l1 5q-27 17 -35 55q-7 39 0 61l25 129q5 26 -2.5 37t-34.5 11q-12 0 -16.5 4t-2.5 14l13 67q3 16 22 20q29 6 73 6q58 0 78 -41q20 -42 10 -95l-27 -138q-10 -33 -7 -54.5t24 -29.5
q15 -6 12 -23l-9 -47q-1 -12 -22 -20q-22 -6 -31 -21.5t-15 -52.5l-32 -161q-26 -131 -147 -131q-39 0 -63 8q-16 6 -14 20z" />
    <glyph glyph-name="asciitilde" unicode="~" horiz-adv-x="510" 
d="M359 221q-29 0 -80 25q-45 20 -61 20q-21 0 -61 -43q-9 -10 -13.5 -11t-19.5 7l-39 27q-13 9 -4 25q60 110 153 110q33 0 87 -22q47 -21 61 -21q21 0 53 38q16 19 33 5l42 -32q12 -13 5 -23q-63 -105 -156 -105z" />
    <glyph glyph-name="exclamdown" unicode="&#xa1;" horiz-adv-x="259" 
d="M198 499q63 0 63 -49q0 -98 -91 -98q-63 0 -63 50q0 43 21.5 70t69.5 27zM214 275l-72 -429q-5 -20 -27 -20h-93q-13 0 -17 4.5t-2 15.5l95 429q5 20 27 20h70q22 0 19 -20z" />
    <glyph glyph-name="cent" unicode="&#xa2;" horiz-adv-x="521" 
d="M214 -160l-33 4q-13 2 -9 15l44 136q-129 20 -129 169q0 124 50 223q28 54 83 85t129 31q1 0 31 -2l43 131q6 15 19 14l28 -3q14 -2 8 -19l-43 -133q34 -9 55 -21q13 -7 7 -29l-20 -62q-8 -21 -25 -20l-58 6l-77 -240q38 0 92 8q30 9 30 -17l-1 -57q0 -24 -22 -37
q-40 -25 -142 -30l-44 -137q-5 -17 -16 -15zM241 184q0 -40 20 -51l76 234q-43 -4 -69.5 -52.5t-26.5 -130.5z" />
    <glyph glyph-name="sterling" unicode="&#xa3;" horiz-adv-x="521" 
d="M393 668q29 0 79 -8q46 -8 72 -24q13 -10 5 -38l-17 -55q-6 -22 -36 -16q-59 7 -98 7q-36 0 -58 -29q-10 -14 -17 -34q-9 -28 -19 -78h110q15 0 19 -4t2 -15l-14 -72q-2 -12 -8 -16t-21 -4h-107q-27 -121 -56 -156h213q16 0 20 -4.5t1 -15.5l-17 -87q-2 -12 -7.5 -15.5
t-20.5 -3.5h-378q-19 0 -16 24l11 63q4 17 18 31q26 24 44 56t24 51t15 57h-36q-15 0 -19 4t-2 16l14 72q2 11 8 15t21 4h33q1 15 11 61q19 98 62 152q50 62 165 62z" />
    <glyph glyph-name="currency" unicode="&#xa4;" horiz-adv-x="529" 
d="M300 199q39 0 62 23t23 62q0 40 -22.5 63t-62.5 23q-38 0 -59.5 -23t-21.5 -63t21.5 -62.5t59.5 -22.5zM119 281q0 53 22 91l-45 46q-10 10 -10 15.5t10 14.5l37 35q13 11 17.5 10.5t16.5 -10.5l40 -41q38 20 91 22q56 0 96 -24l49 48q12 10 17 10t13 -9l41 -40
q9 -9 8 -14t-10 -14l-51 -52q20 -40 20 -84q0 -53 -23 -96l52 -52q18 -17 2 -30l-35 -36q-9 -12 -15.5 -12t-15.5 9l-56 53q-47 -23 -92 -22q-45 0 -83 18l-49 -46q-12 -11 -16 -11.5t-15 7.5l-40 41q-13 13 4 28l45 44q-25 49 -25 101z" />
    <glyph glyph-name="yen" unicode="&#xa5;" horiz-adv-x="521" 
d="M276 642l31 -232h7l122 230q8 15 16 19.5t27 4.5h102q30 0 15 -25l-202 -321h90q11 0 14 -3.5t1 -13.5l-7 -39q-3 -10 -7.5 -14t-15.5 -4h-112l-8 -42h112q11 0 14 -3.5t1 -14.5l-7 -38q-2 -11 -6 -14.5t-16 -3.5h-112l-21 -106q-4 -22 -31 -22h-98q-16 0 -21.5 5.5
t-3.5 16.5l21 106h-113q-20 0 -14 18l7 38q3 18 21 18h113l8 42h-113q-11 0 -13.5 3.5t-0.5 14.5l7 39q3 17 22 17h92l-73 321q-2 10 5.5 17.5t19.5 7.5h91q35 0 36 -22z" />
    <glyph glyph-name="brokenbar" unicode="&#xa6;" horiz-adv-x="260" 
d="M237 263v-352q0 -22 -25 -22h-80q-26 0 -26 22v352q0 22 26 22h80q25 0 25 -22zM237 673v-310q0 -22 -25 -22h-80q-26 0 -26 22v310q0 22 26 22h80q25 0 25 -22z" />
    <glyph glyph-name="section" unicode="&#xa7;" horiz-adv-x="396" 
d="M294 676q48 0 94 -10q49 -11 67 -23q19 -13 10 -32l-24 -54q-9 -17 -18.5 -20t-24.5 3q-75 14 -97 14q-68 0 -68 -51q0 -14 11 -28q10 -11 41 -30q32 -19 38 -24q27 -19 42 -33q17 -13 30 -38.5t13 -52.5q0 -84 -84 -162q39 -55 39 -108q0 -66 -33 -111q-59 -81 -176 -81
q-41 0 -93 11q-49 10 -68 23t-11 31l25 53q8 17 18 21t25 -3q52 -15 108 -15q29 0 49.5 15t20.5 43q0 20 -20 35l-18 13q-7 6 -48 29q-24 14 -45 31q-20 17 -35.5 44t-15.5 57q0 41 24 87t67 80q-39 32 -39 89q0 104 67 153q61 44 129 44zM270 262q0 18 -13.5 31.5
t-43.5 30.5q-31 -41 -31 -66q0 -17 14 -30t46 -30q28 32 28 64z" />
    <glyph glyph-name="dieresis" unicode="&#xa8;" horiz-adv-x="458" 
d="M245 692q60 0 60 -44q0 -96 -87 -96q-60 0 -60 44q0 96 87 96zM430 692q33 0 46.5 -10.5t13.5 -32.5q0 -97 -87 -97q-59 0 -59 45q0 95 86 95z" />
    <glyph glyph-name="copyright" unicode="&#xa9;" horiz-adv-x="768" 
d="M270 331q0 201 153 201q57 0 102 -20q18 -8 15 -27l-6 -34q-4 -15 -22 -12q-36 6 -76 6q-36 0 -51.5 -27t-15.5 -85q0 -66 14.5 -91.5t52.5 -25.5q31 0 80 7q16 1 19 -13l8 -32q5 -20 -14 -28q-46 -20 -106 -20q-93 0 -126 63q-27 55 -27 138zM84 336q0 142 99 239
q101 99 242 99q144 0 244 -98q99 -98 99 -240q0 -140 -101 -238t-242 -98t-242 98q-99 98 -99 238zM425 597q-107 0 -184 -77q-76 -76 -76 -184q0 -107 76 -183t184 -76t184 76q77 77 77 183q0 108 -76 184q-77 77 -185 77z" />
    <glyph glyph-name="ordfeminine" unicode="&#xaa;" horiz-adv-x="343" 
d="M386 552l-58 -302q-1 -13 -17 -13h-76q-17 0 -14 17l2 12q-38 -35 -83 -35q-46 0 -66 22t-20 67q0 29 5 71q13 84 51 132t103 48q41 0 65 -24l2 10q3 12 16 12h76q19 0 14 -17zM237 348q3 13 23 114q-14 8 -34 8q-15 0 -29 -18.5t-21 -47.5q-5 -25 -5 -46q0 -26 20 -26
q24 0 46 16z" />
    <glyph glyph-name="guillemotleft" unicode="&#xab;" horiz-adv-x="485" 
d="M300 43l-1 3l-65 135q-11 18 7 39l112 127q14 17 23.5 21t34.5 4h84q26 0 4 -25l-132 -147l75 -155q4 -7 0 -12.5t-12 -5.5h-90q-30 0 -40 16zM110 46l-66 135q-10 17 7 39l113 127q14 17 23.5 21t34.5 4h84q25 0 4 -25l-132 -147l75 -155q7 -18 -12 -18h-90
q-33 0 -41 19z" />
    <glyph glyph-name="logicalnot" unicode="&#xac;" horiz-adv-x="510" 
d="M424 101h-76q-14 0 -18.5 4t-2.5 16l30 152h-252q-24 0 -20 22l13 69q4 22 29 22h353q14 0 18 -4.5t2 -16.5l-47 -244q-2 -12 -8.5 -16t-20.5 -4z" />
    <glyph glyph-name="sfthyphen" unicode="&#xad;" horiz-adv-x="351" 
d="M378 359l-15 -78q-2 -12 -8 -16.5t-20 -4.5h-269q-24 0 -20 21l15 77q5 21 28 21h269q25 0 20 -20z" />
    <glyph glyph-name="registered" unicode="&#xae;" horiz-adv-x="488" 
d="M366 497l38 -87q3 -4 1 -7t-7 -3h-43q-11 0 -15 9l-30 77h-16v-76q0 -10 -7 -10h-41q-7 0 -7 10v213q0 10 8 10h80q31 0 52 -19t21 -54q0 -45 -34 -63zM343 560q0 21 -25 21h-24v-45h24q25 0 25 24zM312 299q-90 0 -155 63q-64 63 -64 153t64 153q65 63 155 63
q93 0 156 -63q64 -61 64 -153q0 -91 -64 -154q-65 -62 -156 -62zM312 345q71 0 120 49q50 50 50 121q0 70 -50 120t-120 50q-69 0 -121 -50q-50 -50 -50 -120t50 -120t121 -50z" />
    <glyph glyph-name="overscore" unicode="&#xaf;" horiz-adv-x="458" 
d="M490 657l-14 -72q-4 -22 -28 -22h-261q-26 0 -22 22l14 71q5 21 30 21h261q14 0 18 -4.5t2 -15.5z" />
    <glyph glyph-name="degree" unicode="&#xb0;" horiz-adv-x="349" 
d="M237 386q-68 0 -109.5 40t-41.5 101q0 58 44 100q45 42 107 42q61 0 105 -42q43 -42 43 -100q0 -60 -43 -100q-43 -41 -105 -41zM275 566q-17 17 -40 17t-40 -17q-17 -16 -17 -39.5t16 -41.5q16 -16 41 -16t41 16q16 18 16 41.5t-17 39.5z" />
    <glyph glyph-name="plusminus" unicode="&#xb1;" horiz-adv-x="510" 
d="M508 403l-14 -71q-2 -12 -8 -16.5t-21 -4.5h-112l-27 -138q-4 -21 -27 -21h-81q-25 0 -21 21l27 138h-113q-25 0 -20 21l14 71q5 20 28 20h113l24 127q4 21 29 21h80q25 0 20 -21l-24 -127h112q15 0 19 -4.5t2 -15.5zM449 98l-13 -65q-4 -22 -29 -22h-353q-24 0 -20 22
l12 64q4 21 28 21h353q15 0 19.5 -4.5t2.5 -15.5z" />
    <glyph glyph-name="twosuperior" unicode="&#xb2;" horiz-adv-x="359" 
d="M257 660q-21 0 -103 -8q-17 -2 -22 1t-4 16l2 40q0 25 32 39q51 19 119 19q134 0 134 -108q0 -81 -87 -155l-82 -71l1 -3h112q11 0 15 -3.5t3 -13.5l-14 -69q-2 -17 -24 -17h-267q-12 0 -16 4t-2 13l10 50q4 20 21 34l167 147q37 33 37 64q0 21 -32 21z" />
    <glyph glyph-name="threesuperior" unicode="&#xb3;" horiz-adv-x="359" 
d="M198 322q-64 0 -109 20q-30 15 -20 40l16 38q5 14 10.5 16.5t23.5 0.5q56 -8 93 -8q69 0 69 53q0 24 -34 31l-58 13q-23 4 -18 30l6 25q4 18 19 28l64 48v3h-110q-11 0 -14.5 3.5t-1.5 12.5l14 69q3 17 22 17h253q14 0 18 -3.5t2 -12.5l-10 -50q-5 -25 -26 -38l-68 -50
v-5l16 -6q53 -20 53 -85q0 -54 -17.5 -92.5t-49 -59t-66.5 -29.5t-77 -9z" />
    <glyph glyph-name="acute" unicode="&#xb4;" horiz-adv-x="457" 
d="M382 770l70 -34q20 -10 3 -32l-118 -151q-13 -18 -26 -10l-44 28q-10 7 -3 25l90 165q9 16 28 9z" />
    <glyph glyph-name="mu" unicode="&#xb5;" horiz-adv-x="473" 
d="M268 22l4 17l-4 1q-39 -27 -69 -32q-19 -6 -46 -6l-34 -175q-4 -23 -29 -23h-101q-14 0 -18 5t-1 18l124 645q4 22 29 22h101q25 0 21 -22l-53 -275q-7 -37 -0.5 -49.5t29.5 -12.5q19 0 75 27l60 310q4 22 30 22h98q26 0 22 -22l-88 -450q-3 -22 -29 -22h-99
q-26 0 -22 22z" />
    <glyph glyph-name="mu" unicode="&#x3bc;" horiz-adv-x="473" 
d="M268 22l4 17l-4 1q-39 -27 -69 -32q-19 -6 -46 -6l-34 -175q-4 -23 -29 -23h-101q-14 0 -18 5t-1 18l124 645q4 22 29 22h101q25 0 21 -22l-53 -275q-7 -37 -0.5 -49.5t29.5 -12.5q19 0 75 27l60 310q4 22 30 22h98q26 0 22 -22l-88 -450q-3 -22 -29 -22h-99
q-26 0 -22 22z" />
    <glyph glyph-name="paragraph" unicode="&#xb6;" horiz-adv-x="495" 
d="M295 664h258q27 0 22 -23l-15 -78q-4 -24 -23 -24h-27l-121 -622q-5 -24 -31 -24h-60q-15 0 -20 5t-3 19l121 623h-58l-121 -623q-5 -24 -32 -24h-59q-28 0 -24 24l71 364q-49 6 -75 44t-26 96q0 121 67 182t156 61z" />
    <glyph glyph-name="middot" unicode="&#xb7;" horiz-adv-x="201" 
d="M137 345q64 0 64 -50q0 -46 -23 -74.5t-71 -28.5q-64 0 -64 51q0 47 23 74.5t71 27.5z" />
    <glyph glyph-name="cedilla" unicode="&#xb8;" horiz-adv-x="363" 
d="M118 -98q-22 1 -10 25l40 82q7 10 15 10h49q9 0 7 -8l-30 -58q40 -2 56.5 -17.5t16.5 -44.5q0 -55 -38.5 -89.5t-106.5 -34.5q-48 0 -75 11q-11 8 -7 17l10 32q5 12 21 8q25 -3 55 -3q52 0 52 45q0 13 -10.5 17.5t-44.5 7.5z" />
    <glyph glyph-name="onesuperior" unicode="&#xb9;" horiz-adv-x="345" 
d="M357 413l-13 -69q-2 -10 -6 -13.5t-16 -3.5h-224q-12 0 -15 3.5t-1 13.5l13 69q3 16 22 16h49l43 218h-53q-14 0 -11 16l8 40q3 16 23 25l41 20q31 14 53 14h62q20 0 17 -17l-62 -316h54q11 0 14.5 -3.5t1.5 -12.5z" />
    <glyph glyph-name="ordmasculine" unicode="&#xba;" horiz-adv-x="329" 
d="M363 407q-13 -66 -45 -114q-39 -61 -138 -61q-76 0 -104 40q-10 16 -15 42q-4 36 7 93q11 56 43 104q41 61 135 61q46 0 75 -15t37.5 -38.5t10.5 -53t-6 -58.5zM245 402q8 38 4.5 55t-22.5 17q-31 0 -45 -72q-16 -71 17 -71q18 0 28 16t18 55z" />
    <glyph glyph-name="guillemotright" unicode="&#xbb;" horiz-adv-x="483" 
d="M272 181l-120 -135q-13 -19 -47 -19h-90q-8 0 -10 5.5t4 12.5l135 155l-74 147q-12 25 14 25h84q25 0 32.5 -4t15.5 -21l63 -127q10 -19 -7 -39zM461 181l-119 -135q-16 -19 -47 -19h-91q-8 0 -9.5 5.5t4.5 12.5l134 155l-74 147q-10 25 14 25h85q24 0 31.5 -4t16.5 -21
l62 -127q11 -20 -7 -39z" />
    <glyph glyph-name="onequarter" unicode="&#xbc;" horiz-adv-x="883" 
d="M831 175l-13 -66q-3 -17 -22 -17h-29l-14 -75q-1 -7 -2.5 -10t-6.5 -5t-14 -2h-80q-12 0 -15.5 3t-1.5 14l14 75h-156q-12 0 -16 4t-2 13l8 41q4 22 21 43l194 223q16 18 39 18h77q12 0 16.5 -4t2.5 -12l-44 -227h29q11 0 14 -3t1 -13zM598 189h69l20 100zM332 323
l-13 -69q-2 -10 -6 -13.5t-16 -3.5h-224q-11 0 -14.5 3.5t-1.5 13.5l13 69q3 16 22 16h49l43 218h-53q-14 0 -11 16l8 40q3 16 23 25l41 20q31 14 53 14h62q20 0 17 -17l-62 -316h54q11 0 14.5 -3.5t1.5 -12.5zM703 685l-370 -696q-6 -12 -21 -12h-76q-20 0 -13 15l365 688
q12 20 29 20h76q17 0 10 -15z" />
    <glyph glyph-name="onehalf" unicode="&#xbd;" horiz-adv-x="883" 
d="M690 685l-370 -696q-6 -12 -21 -12h-76q-21 0 -13 15l365 688q12 20 29 20h76q7 0 10 -4t0 -11zM321 323l-13 -69q-2 -10 -6 -13.5t-16 -3.5h-224q-12 0 -15 3.5t-1 13.5l13 69q3 16 22 16h49l43 218h-53q-14 0 -11 16l8 40q3 16 23 25l41 20q31 14 53 14h62q20 0 17 -17
l-62 -316h54q11 0 14.5 -3.5t1.5 -12.5zM705 332q-20 0 -103 -7q-18 -2 -23 0.5t-4 16.5l2 39q0 25 33 39q47 19 119 19q134 0 134 -107q0 -80 -88 -156l-81 -71l1 -3h112q21 0 18 -17l-14 -68q-3 -17 -24 -17h-267q-12 0 -16 4t-2 13l10 50q5 22 20 34l168 146q37 33 37 64
q0 21 -32 21z" />
    <glyph glyph-name="threequarters" unicode="&#xbe;" horiz-adv-x="883" 
d="M728 685l-370 -696q-6 -12 -21 -12h-76q-21 0 -13 15l365 688q12 20 29 20h76q7 0 10 -4t0 -11zM180 232q-64 0 -109 20q-30 15 -20 40l16 38q5 14 10.5 16.5t23.5 0.5q56 -8 93 -8q69 0 69 53q0 24 -34 31l-58 13q-23 4 -18 30l6 25q4 18 19 28l64 48v3h-110
q-11 0 -14.5 3.5t-1.5 12.5l14 69q3 17 22 17h253q14 0 18 -3.5t2 -12.5l-10 -50q-5 -25 -26 -38l-68 -50v-5l16 -6q53 -20 53 -85q0 -54 -17.5 -92.5t-49 -59t-66.5 -29.5t-77 -9zM855 175l-13 -66q-3 -17 -22 -17h-29l-14 -75q-1 -7 -2.5 -10t-6.5 -5t-14 -2h-80
q-12 0 -15.5 3t-1.5 14l14 75h-156q-12 0 -16 4t-2 13l8 41q4 22 21 43l194 223q16 18 39 18h77q12 0 16.5 -4t2.5 -12l-44 -227h29q11 0 14 -3t1 -13zM622 189h69l20 100z" />
    <glyph glyph-name="questiondown" unicode="&#xbf;" horiz-adv-x="373" 
d="M200 400q0 44 24 71.5t67 27.5q63 0 63 -48q0 -45 -22.5 -72.5t-68.5 -27.5q-63 0 -63 49zM318 284l-8 -50q-11 -66 -40 -106q-30 -39 -93 -90q-37 -28 -37 -62q0 -33 52 -33q40 0 83 7q22 3 26.5 0t2.5 -18l-5 -58q-2 -14 -6 -19.5t-20 -13.5q-54 -24 -128 -24
q-162 0 -162 132q0 92 104 169q41 30 60.5 58t27.5 69l7 37q5 23 27 23h86q15 0 20 -4.5t3 -16.5z" />
    <glyph glyph-name="Agrave" unicode="&#xc0;" horiz-adv-x="552" 
d="M366 31l-4 118h-150l-52 -122q-10 -27 -41 -27h-105q-28 0 -15 28l282 607q11 21 19 25q10 4 27 4h117q17 0 24 -6.5t9 -22.5l50 -607q1 -28 -21 -28h-109q-18 0 -24 6.5t-7 24.5zM359 499h-4q-2 -7 -38 -97l-51 -130h90v118q0 64 3 109zM246 828l53 66q16 19 29 8
l132 -120q10 -10 3 -25l-38 -44q-14 -14 -26 -7l-147 91q-21 10 -6 31z" />
    <glyph glyph-name="Aacute" unicode="&#xc1;" horiz-adv-x="552" 
d="M366 31l-4 118h-150l-52 -122q-10 -27 -41 -27h-105q-28 0 -15 28l282 607q11 21 19 25q10 4 27 4h117q17 0 24 -6.5t9 -22.5l50 -607q1 -28 -21 -28h-109q-18 0 -24 6.5t-7 24.5zM359 499h-4q-2 -7 -38 -97l-51 -130h90v118q0 64 3 109zM544 789l-165 -80q-21 -11 -33 9
l-27 40q-7 12 12 27l164 115q21 14 29 -7l34 -74q8 -20 -14 -30z" />
    <glyph glyph-name="Acircumflex" unicode="&#xc2;" horiz-adv-x="552" 
d="M366 31l-4 118h-150l-52 -122q-10 -27 -41 -27h-105q-28 0 -15 28l282 607q11 21 19 25q10 4 27 4h117q17 0 24 -6.5t9 -22.5l50 -607q1 -28 -21 -28h-109q-18 0 -24 6.5t-7 24.5zM359 499h-4q-2 -7 -38 -97l-51 -130h90v118q0 64 3 109zM247 700l-23 33q-11 18 8 34
l132 116q10 10 32 10h55q18 0 24 -2.5t13 -11.5l85 -116q10 -13 -5 -27l-37 -33q-17 -13 -32 2l-96 82l-126 -86q-21 -14 -30 -1z" />
    <glyph glyph-name="Atilde" unicode="&#xc3;" horiz-adv-x="552" 
d="M366 31l-4 118h-150l-52 -122q-10 -27 -41 -27h-105q-28 0 -15 28l282 607q11 21 19 25q10 4 27 4h117q17 0 24 -6.5t9 -22.5l50 -607q1 -28 -21 -28h-109q-18 0 -24 6.5t-7 24.5zM359 499h-4q-2 -7 -38 -97l-51 -130h90v118q0 64 3 109zM452 725q-25 0 -70 22t-59 22
q-26 0 -52 -35q-12 -16 -24 -9l-44 29q-10 7 -2 23q56 104 138 104q33 0 70 -22q38 -22 51 -22q19 0 49 34q15 20 31 8l40 -30q12 -9 4 -24q-55 -100 -132 -100z" />
    <glyph glyph-name="Adieresis" unicode="&#xc4;" horiz-adv-x="552" 
d="M366 31l-4 118h-150l-52 -122q-10 -27 -41 -27h-105q-28 0 -15 28l282 607q11 21 19 25q10 4 27 4h117q17 0 24 -6.5t9 -22.5l50 -607q1 -28 -21 -28h-109q-18 0 -24 6.5t-7 24.5zM359 499h-4q-2 -7 -38 -97l-51 -130h90v118q0 64 3 109zM317 860q61 0 61 -44
q0 -96 -88 -96q-60 0 -60 44q0 96 87 96zM506 860q33 0 47 -10.5t14 -32.5q0 -97 -88 -97q-59 0 -59 44q0 96 86 96z" />
    <glyph glyph-name="Aring" unicode="&#xc5;" horiz-adv-x="552" 
d="M366 31l-4 118h-150l-52 -122q-10 -27 -41 -27h-105q-28 0 -15 28l282 607q11 21 19 25q10 4 27 4h117q17 0 24 -6.5t9 -22.5l50 -607q1 -28 -21 -28h-109q-18 0 -24 6.5t-7 24.5zM359 499h-4q-2 -7 -38 -97l-51 -130h90v118q0 64 3 109zM385 687q-44 0 -72.5 26
t-28.5 68q0 60 42 99q43 40 99 40q42 0 70 -28t28 -70q0 -54 -41 -95q-40 -40 -97 -40zM415 849q-21 0 -37 -16.5t-16 -40.5q0 -35 35 -35q20 0 36 16.5t16 38.5q0 15 -9.5 26t-24.5 11z" />
    <glyph glyph-name="AE" unicode="&#xc6;" horiz-adv-x="793" 
d="M779 117l-19 -96q-1 -7 -2.5 -11t-7.5 -7t-17 -3h-356q-25 0 -20 23l24 126h-146l-78 -126q-14 -23 -47 -23h-109q-24 0 -11 25l378 614q9 15 19.5 20t34.5 5h420q11 0 16 -4.5t4 -11.5l-18 -98q-3 -20 -29 -20h-202l-23 -118h184q10 0 15 -3t4 -9l-18 -99
q-1 -8 -2.5 -11.5t-7.5 -7t-16 -3.5h-184l-29 -145h223q11 0 16 -4.5t4 -12.5zM404 272l50 255h-4l-146 -255h100z" />
    <glyph glyph-name="Ccedilla" unicode="&#xc7;" horiz-adv-x="507" 
d="M397 527q-65 0 -103 -74q-36 -71 -44 -182q-6 -69 11.5 -103t66.5 -34q52 0 139 9q21 2 28 -2t8 -18v-53q1 -28 -35 -46q-71 -32 -173 -33l-20 -38q43 -2 59.5 -18.5t13.5 -47.5q-2 -54 -40 -87t-106 -33q-46 0 -73 11q-13 6 -8 17l11 32q4 11 21 9q32 -4 54 -4
q51 0 52 42q1 15 -10 20t-45 8q-22 1 -10 25l34 70q-164 35 -146 261q7 165 76 281q78 131 255 133q95 0 156 -32q29 -17 20 -44l-22 -58q-6 -15 -15 -19t-29 -1q-85 9 -126 9z" />
    <glyph glyph-name="Egrave" unicode="&#xc8;" horiz-adv-x="476" 
d="M454 113l-19 -92q-2 -8 -3.5 -11t-7 -6.5t-16.5 -3.5h-363q-25 0 -21 21l121 621q2 8 4 12t8 7t17 3h337q22 0 19 -19l-17 -88q-5 -27 -28 -27h-205l-23 -118h190q23 0 18 -21l-17 -90q-1 -8 -2.5 -11.5t-7.5 -7t-17 -3.5h-189l-29 -145h233q22 0 18 -21zM223 828l53 66
q16 19 29 8l132 -120q10 -10 3 -25l-38 -44q-14 -14 -26 -7l-147 91q-21 10 -6 31z" />
    <glyph glyph-name="Eacute" unicode="&#xc9;" horiz-adv-x="476" 
d="M454 113l-19 -92q-2 -8 -3.5 -11t-7 -6.5t-16.5 -3.5h-363q-25 0 -21 21l121 621q2 8 4 12t8 7t17 3h337q22 0 19 -19l-17 -88q-5 -27 -28 -27h-205l-23 -118h190q23 0 18 -21l-17 -90q-1 -8 -2.5 -11.5t-7.5 -7t-17 -3.5h-189l-29 -145h233q22 0 18 -21zM487 789
l-165 -80q-21 -11 -33 9l-27 40q-8 12 12 27l164 115q21 14 29 -7l34 -74q8 -20 -14 -30z" />
    <glyph glyph-name="Ecircumflex" unicode="&#xca;" horiz-adv-x="476" 
d="M454 113l-19 -92q-2 -8 -3.5 -11t-7 -6.5t-16.5 -3.5h-363q-25 0 -21 21l121 621q2 8 4 12t8 7t17 3h337q22 0 19 -19l-17 -88q-5 -27 -28 -27h-205l-23 -118h190q23 0 18 -21l-17 -90q-1 -8 -2.5 -11.5t-7.5 -7t-17 -3.5h-189l-29 -145h233q22 0 18 -21zM204 700l-23 33
q-11 18 8 34l132 116q10 10 32 10h55q18 0 24 -2.5t13 -11.5l85 -116q10 -13 -5 -27l-37 -33q-17 -13 -32 2l-96 82l-126 -86q-21 -14 -30 -1z" />
    <glyph glyph-name="Edieresis" unicode="&#xcb;" horiz-adv-x="476" 
d="M454 113l-19 -92q-2 -8 -3.5 -11t-7 -6.5t-16.5 -3.5h-363q-25 0 -21 21l121 621q2 8 4 12t8 7t17 3h337q22 0 19 -19l-17 -88q-5 -27 -28 -27h-205l-23 -118h190q23 0 18 -21l-17 -90q-1 -8 -2.5 -11.5t-7.5 -7t-17 -3.5h-189l-29 -145h233q22 0 18 -21zM284 860
q61 0 61 -44q0 -96 -88 -96q-60 0 -60 44q0 96 87 96zM473 860q33 0 47 -10.5t14 -32.5q0 -97 -88 -97q-59 0 -59 44q0 96 86 96z" />
    <glyph glyph-name="Igrave" unicode="&#xcc;" horiz-adv-x="260" 
d="M308 642l-120 -621q-4 -21 -30 -21h-108q-24 0 -20 21l120 621q4 22 29 22h108q25 0 21 -22zM99 828l53 66q16 19 29 8l132 -120q10 -10 3 -25l-38 -44q-14 -14 -26 -7l-147 91q-21 10 -6 31z" />
    <glyph glyph-name="Iacute" unicode="&#xcd;" horiz-adv-x="260" 
d="M308 642l-120 -621q-4 -21 -30 -21h-108q-24 0 -20 21l120 621q4 22 29 22h108q25 0 21 -22zM395 789l-165 -80q-21 -11 -33 9l-27 40q-8 12 12 27l164 115q21 14 29 -7l34 -74q8 -20 -14 -30z" />
    <glyph glyph-name="Icircumflex" unicode="&#xce;" horiz-adv-x="260" 
d="M308 642l-120 -621q-4 -21 -30 -21h-108q-24 0 -20 21l120 621q4 22 29 22h108q25 0 21 -22zM100 700l-23 33q-11 18 8 34l132 116q10 10 32 10h55q18 0 24 -2.5t13 -11.5l85 -116q10 -13 -5 -27l-37 -33q-16 -13 -32 2l-96 82l-126 -86q-21 -14 -30 -1z" />
    <glyph glyph-name="Idieresis" unicode="&#xcf;" horiz-adv-x="260" 
d="M308 642l-120 -621q-4 -21 -30 -21h-108q-24 0 -20 21l120 621q4 22 29 22h108q25 0 21 -22zM177 860q61 0 61 -44q0 -96 -88 -96q-60 0 -60 44q0 96 87 96zM366 860q33 0 47 -10.5t14 -32.5q0 -97 -88 -97q-59 0 -59 44q0 96 86 96z" />
    <glyph glyph-name="Eth" unicode="&#xd0;" horiz-adv-x="563" 
d="M171 664h183q113 0 163 -56.5t50 -165.5q0 -179 -73 -304q-37 -65 -106 -101.5t-160 -36.5h-184q-24 0 -24 15q0 1 0.5 3t0.5 3l51 267h-21q-21 0 -16 17l11 60q5 20 24 20h21l51 257q4 22 29 22zM320 530h-44l-28 -145h65q19 0 16 -19l-11 -57q-2 -8 -3.5 -11.5
t-6.5 -6.5t-14 -3h-65l-30 -154h39q75 0 121 79q47 80 47 212q0 55 -21 80t-65 25z" />
    <glyph glyph-name="Ntilde" unicode="&#xd1;" horiz-adv-x="572" 
d="M357 24l-59 161q-15 42 -27 81t-17.5 60.5t-7.5 25.5h-1l-2 -1l-64 -330q-5 -21 -29 -21h-103q-25 0 -21 21l120 622q6 21 30 21h78q21 0 26.5 -4.5t9.5 -17.5l69 -194q36 -108 43 -141q2 0 3 1l65 334q4 22 30 22h103q26 0 20 -22l-120 -619q-4 -23 -27 -23h-79
q-31 0 -40 24zM464 715q-25 0 -70 22t-59 22q-26 0 -52 -35q-12 -16 -24 -9l-44 29q-10 7 -2 23q56 104 138 104q33 0 70 -22q38 -22 51 -22q19 0 49 34q15 20 31 8l40 -30q12 -9 4 -24q-55 -100 -132 -100z" />
    <glyph glyph-name="Ograve" unicode="&#xd2;" horiz-adv-x="588" 
d="M390 672q115 0 162 -56q46 -55 46 -150q0 -35 -11 -115q-51 -360 -326 -360q-203 0 -203 205q0 55 16 147q60 329 316 329zM366 534q-49 0 -78 -47.5t-50 -156.5q-14 -76 -14 -114q0 -86 63 -86q52 0 82.5 46.5t51.5 153.5q14 78 14 117q0 46 -16 66.5t-53 20.5zM268 828
l53 66q16 19 29 8l132 -120q10 -10 3 -25l-38 -44q-14 -14 -26 -7l-147 91q-21 10 -6 31z" />
    <glyph glyph-name="Oacute" unicode="&#xd3;" horiz-adv-x="588" 
d="M390 672q115 0 162 -56q46 -55 46 -150q0 -35 -11 -115q-51 -360 -326 -360q-203 0 -203 205q0 55 16 147q60 329 316 329zM366 534q-49 0 -78 -47.5t-50 -156.5q-14 -76 -14 -114q0 -86 63 -86q52 0 82.5 46.5t51.5 153.5q14 78 14 117q0 46 -16 66.5t-53 20.5zM564 789
l-165 -80q-21 -11 -33 9l-27 40q-7 12 12 27l164 115q21 14 29 -7l34 -74q8 -20 -14 -30z" />
    <glyph glyph-name="Ocircumflex" unicode="&#xd4;" horiz-adv-x="588" 
d="M390 672q115 0 162 -56q46 -55 46 -150q0 -35 -11 -115q-51 -360 -326 -360q-203 0 -203 205q0 55 16 147q60 329 316 329zM366 534q-49 0 -78 -47.5t-50 -156.5q-14 -76 -14 -114q0 -86 63 -86q52 0 82.5 46.5t51.5 153.5q14 78 14 117q0 46 -16 66.5t-53 20.5zM261 700
l-23 33q-11 18 8 34l132 116q10 10 32 10h55q18 0 24 -2.5t13 -11.5l85 -116q10 -13 -5 -27l-37 -33q-17 -13 -32 2l-96 82l-126 -86q-21 -14 -30 -1z" />
    <glyph glyph-name="Otilde" unicode="&#xd5;" horiz-adv-x="588" 
d="M390 672q115 0 162 -56q46 -55 46 -150q0 -35 -11 -115q-51 -360 -326 -360q-203 0 -203 205q0 55 16 147q60 329 316 329zM366 534q-49 0 -78 -47.5t-50 -156.5q-14 -76 -14 -114q0 -86 63 -86q52 0 82.5 46.5t51.5 153.5q14 78 14 117q0 46 -16 66.5t-53 20.5zM486 721
q-25 0 -70 22t-59 22q-26 0 -52 -35q-12 -16 -24 -9l-44 29q-10 7 -2 23q56 104 138 104q33 0 70 -22q38 -22 51 -22q19 0 49 34q15 20 31 8l40 -30q12 -9 4 -24q-55 -100 -132 -100z" />
    <glyph glyph-name="Odieresis" unicode="&#xd6;" horiz-adv-x="588" 
d="M390 672q115 0 162 -56q46 -55 46 -150q0 -35 -11 -115q-51 -360 -326 -360q-203 0 -203 205q0 55 16 147q60 329 316 329zM366 534q-49 0 -78 -47.5t-50 -156.5q-14 -76 -14 -114q0 -86 63 -86q52 0 82.5 46.5t51.5 153.5q14 78 14 117q0 46 -16 66.5t-53 20.5zM337 860
q61 0 61 -44q0 -96 -88 -96q-60 0 -60 44q0 96 87 96zM526 860q33 0 47 -10.5t14 -32.5q0 -97 -88 -97q-59 0 -59 44q0 96 86 96z" />
    <glyph glyph-name="multiply" unicode="&#xd7;" horiz-adv-x="510" 
d="M231 510l73 -106l116 106q10 10 16 10.5t16 -9.5l42 -46q12 -14 -6 -32l-124 -114l77 -110q13 -17 -5 -32l-62 -49q-19 -15 -29 1l-74 104l-113 -104q-18 -17 -32 -1l-42 49q-7 11 -5.5 16t12.5 16l120 110l-79 114q-11 18 6 32l60 46q13 10 19.5 9.5t13.5 -10.5z" />
    <glyph glyph-name="Oslash" unicode="&#xd8;" horiz-adv-x="588" 
d="M399 672q99 0 150 -45l27 32q15 18 28 8l13 -10q8 -7 7.5 -11t-9.5 -14l-35 -43q27 -47 27 -123q0 -35 -11 -115q-51 -360 -326 -360q-95 0 -145 43l-25 -31q-15 -18 -29 -7l-16 11q-8 7 2 22l36 44q-26 49 -26 123q0 55 16 147q60 329 316 329zM430 330q12 72 13 92
l-205 -251q14 -41 58 -41q52 0 82.5 46.5t51.5 153.5zM247 330q-10 -44 -13 -86l204 248q-14 42 -63 42t-78 -47.5t-50 -156.5z" />
    <glyph glyph-name="Ugrave" unicode="&#xd9;" horiz-adv-x="560" 
d="M295 130q79 0 101 115l76 397q4 22 31 22h105q16 0 20 -5.5t1 -16.5l-78 -398q-22 -120 -91.5 -186.5t-184.5 -66.5q-117 0 -164 72q-47 74 -26 190l77 389q4 22 31 22h105q25 0 21 -22l-77 -397q-12 -60 1 -87.5t52 -27.5zM266 828l53 66q16 19 29 8l132 -120
q10 -10 3 -25l-38 -44q-14 -14 -26 -7l-147 91q-21 10 -6 31z" />
    <glyph glyph-name="Uacute" unicode="&#xda;" horiz-adv-x="560" 
d="M295 130q79 0 101 115l76 397q4 22 31 22h105q16 0 20 -5.5t1 -16.5l-78 -398q-22 -120 -91.5 -186.5t-184.5 -66.5q-117 0 -164 72q-47 74 -26 190l77 389q4 22 31 22h105q25 0 21 -22l-77 -397q-12 -60 1 -87.5t52 -27.5zM557 789l-165 -80q-21 -11 -33 9l-27 40
q-8 12 12 27l164 115q21 14 29 -7l34 -74q8 -20 -14 -30z" />
    <glyph glyph-name="Ucircumflex" unicode="&#xdb;" horiz-adv-x="560" 
d="M295 130q79 0 101 115l76 397q4 22 31 22h105q16 0 20 -5.5t1 -16.5l-78 -398q-22 -120 -91.5 -186.5t-184.5 -66.5q-117 0 -164 72q-47 74 -26 190l77 389q4 22 31 22h105q25 0 21 -22l-77 -397q-12 -60 1 -87.5t52 -27.5zM269 700l-23 33q-11 18 8 34l132 116
q10 10 32 10h55q18 0 24 -2.5t13 -11.5l85 -116q10 -13 -5 -27l-37 -33q-17 -13 -32 2l-96 82l-126 -86q-21 -14 -30 -1z" />
    <glyph glyph-name="Udieresis" unicode="&#xdc;" horiz-adv-x="560" 
d="M295 130q79 0 101 115l76 397q4 22 31 22h105q16 0 20 -5.5t1 -16.5l-78 -398q-22 -120 -91.5 -186.5t-184.5 -66.5q-117 0 -164 72q-47 74 -26 190l77 389q4 22 31 22h105q25 0 21 -22l-77 -397q-12 -60 1 -87.5t52 -27.5zM343 860q61 0 61 -44q0 -96 -88 -96
q-60 0 -60 44q0 96 87 96zM532 860q33 0 47 -10.5t14 -32.5q0 -97 -88 -97q-59 0 -59 44q0 96 86 96z" />
    <glyph glyph-name="Yacute" unicode="&#xdd;" horiz-adv-x="550" 
d="M306 435l8 -54h6q22 49 69 126l77 129q10 16 20 22t30 6h109q12 0 16 -6t-2 -16l-269 -400h1l-43 -221q-4 -21 -29 -21h-106q-15 0 -19.5 4.5t-2.5 16.5l43 221l-106 397q-5 9 3 17t20 8h103q21 0 27.5 -6t10.5 -27l24 -129q7 -39 10 -67zM519 789l-165 -80
q-21 -11 -33 9l-27 40q-8 12 12 27l164 115q21 14 29 -7l34 -74q8 -20 -14 -30z" />
    <glyph glyph-name="Thorn" unicode="&#xde;" horiz-adv-x="490" 
d="M306 418h-46l-30 -157h48q37 0 60 28.5t23 76.5q0 52 -55 52zM303 642l-17 -90h65q82 0 127 -41.5t45 -122.5q0 -85 -51 -163q-27 -43 -80 -68t-122 -25h-66l-21 -110q-4 -22 -27 -22h-109q-25 0 -21 22l120 620q4 22 29 22h109q26 0 19 -22z" />
    <glyph glyph-name="germandbls" unicode="&#xdf;" horiz-adv-x="483" 
d="M279 335q-17 6 -15 21l8 47q2 11 6 16t14 7q25 6 41 32.5t19 64.5q6 62 -36 62q-44 0 -58 -68l-97 -496q-5 -23 -31 -23h-95q-14 0 -20 6t-4 17l90 461q23 116 82.5 174t144.5 58q78 0 123.5 -39t45.5 -110q0 -28 -13 -71q-15 -60 -75 -89v-5q69 -32 69 -129
q0 -137 -59.5 -211t-160.5 -74q-28 0 -40 4q-25 7 -21 28l14 71q3 17 21 19q51 8 73.5 46.5t22.5 116.5q0 26 -11 40.5t-38 23.5z" />
    <glyph glyph-name="agrave" unicode="&#xe0;" horiz-adv-x="489" 
d="M360 462h1q1 1 2 1l4 15q4 16 23 16h97q21 0 17 -24l-88 -448q-4 -22 -27 -22h-102q-18 0 -18 13q0 3 2.5 13.5t2.5 11.5h-2l-2 1q-56 -46 -126 -46q-59 0 -86 31.5t-27 93.5q0 61 10 120q17 103 61 174q51 83 148 83q70 0 110 -33zM277 357q-65 0 -84 -114
q-7 -39 -7 -60q0 -29 7.5 -39.5t26.5 -10.5q28 0 75 25l36 186q-25 13 -54 13zM319 561l-99 139q-13 18 8 30l70 43q21 14 29 -3l76 -163q9 -19 -7 -28l-42 -25q-13 -7 -20 -5.5t-15 12.5z" />
    <glyph glyph-name="aacute" unicode="&#xe1;" horiz-adv-x="489" 
d="M360 462h1q1 1 2 1l4 15q4 16 23 16h97q21 0 17 -24l-88 -448q-4 -22 -27 -22h-102q-18 0 -18 13q0 3 2.5 13.5t2.5 11.5h-2l-2 1q-56 -46 -126 -46q-59 0 -86 31.5t-27 93.5q0 61 10 120q17 103 61 174q51 83 148 83q70 0 110 -33zM277 357q-65 0 -84 -114
q-7 -39 -7 -60q0 -29 7.5 -39.5t26.5 -10.5q28 0 75 25l36 186q-25 13 -54 13zM364 770l70 -34q20 -10 3 -32l-118 -151q-13 -18 -26 -10l-44 28q-10 7 -3 25l90 165q9 16 28 9z" />
    <glyph glyph-name="acircumflex" unicode="&#xe2;" horiz-adv-x="489" 
d="M360 462h1q1 1 2 1l4 15q4 16 23 16h97q21 0 17 -24l-88 -448q-4 -22 -27 -22h-102q-18 0 -18 13q0 3 2.5 13.5t2.5 11.5h-2l-2 1q-56 -46 -126 -46q-59 0 -86 31.5t-27 93.5q0 61 10 120q17 103 61 174q51 83 148 83q70 0 110 -33zM277 357q-65 0 -84 -114
q-7 -39 -7 -60q0 -29 7.5 -39.5t26.5 -10.5q28 0 75 25l36 186q-25 13 -54 13zM181 543l-30 30q-12 14 8 34l135 137q9 10 31 10h59q13 0 20 -2t9 -4t7 -9l79 -137q8 -14 -7 -27l-33 -31q-17 -16 -34 1l-89 97l-124 -98q-17 -15 -31 -1z" />
    <glyph glyph-name="atilde" unicode="&#xe3;" horiz-adv-x="489" 
d="M360 462h1q1 1 2 1l4 15q4 16 23 16h97q21 0 17 -24l-88 -448q-4 -22 -27 -22h-102q-18 0 -18 13q0 3 2.5 13.5t2.5 11.5h-2l-2 1q-56 -46 -126 -46q-59 0 -86 31.5t-27 93.5q0 61 10 120q17 103 61 174q51 83 148 83q70 0 110 -33zM277 357q-65 0 -84 -114
q-7 -39 -7 -60q0 -29 7.5 -39.5t26.5 -10.5q28 0 75 25l36 186q-25 13 -54 13zM386 565q-25 0 -70 22t-59 22q-26 0 -52 -35q-12 -16 -24 -9l-44 29q-10 7 -2 23q56 104 138 104q33 0 70 -22q38 -22 51 -22q19 0 49 34q15 20 31 8l40 -30q12 -9 4 -24q-55 -100 -132 -100z
" />
    <glyph glyph-name="adieresis" unicode="&#xe4;" horiz-adv-x="489" 
d="M360 462h1q1 1 2 1l4 15q4 16 23 16h97q21 0 17 -24l-88 -448q-4 -22 -27 -22h-102q-18 0 -18 13q0 3 2.5 13.5t2.5 11.5h-2l-2 1q-56 -46 -126 -46q-59 0 -86 31.5t-27 93.5q0 61 10 120q17 103 61 174q51 83 148 83q70 0 110 -33zM277 357q-65 0 -84 -114
q-7 -39 -7 -60q0 -29 7.5 -39.5t26.5 -10.5q28 0 75 25l36 186q-25 13 -54 13zM248 692q60 0 60 -44q0 -96 -87 -96q-60 0 -60 44q0 96 87 96zM433 692q33 0 46.5 -10.5t13.5 -32.5q0 -97 -87 -97q-59 0 -59 45q0 95 86 95z" />
    <glyph glyph-name="aring" unicode="&#xe5;" horiz-adv-x="489" 
d="M360 462h1q1 1 2 1l4 15q4 16 23 16h97q21 0 17 -24l-88 -448q-4 -22 -27 -22h-102q-18 0 -18 13q0 3 2.5 13.5t2.5 11.5h-2l-2 1q-56 -46 -126 -46q-59 0 -86 31.5t-27 93.5q0 61 10 120q17 103 61 174q51 83 148 83q70 0 110 -33zM277 357q-65 0 -84 -114
q-7 -39 -7 -60q0 -29 7.5 -39.5t26.5 -10.5q28 0 75 25l36 186q-25 13 -54 13zM323 542q-44 0 -72.5 26t-28.5 68q0 60 42 99q43 40 99 40q42 0 70 -28t28 -70q0 -54 -41 -95q-40 -40 -97 -40zM353 704q-21 0 -37 -16.5t-16 -40.5q0 -35 35 -35q19 0 35.5 16t16.5 39
q0 15 -9.5 26t-24.5 11z" />
    <glyph glyph-name="ae" unicode="&#xe6;" horiz-adv-x="688" 
d="M285 503q90 0 121 -40q46 34 124 37q76 0 122.5 -33.5t46.5 -99.5q0 -99 -77 -139q-65 -34 -155 -40l-37 -2q-4 -15 -4 -31q0 -25 13 -32.5t48 -7.5q28 0 69 4q52 5 62 5q20 0 20 -23v-41q0 -20 -6 -29t-26 -17q-54 -24 -155 -24q-109 0 -147 69q-86 -67 -188 -67
q-61 0 -85 29.5t-24 91.5q3 93 57.5 140.5t147.5 47.5q68 0 87 -1l3 15q0 1 2 11.5t2 12.5q0 39 -63 39q-45 0 -113 -9q-14 -3 -21 -3q-15 0 -15 20v52q0 31 62 48q65 17 129 17zM220 206q-67 0 -67 -67q0 -21 13.5 -28t41.5 0.5t69 28.5q1 37 5 64q-30 2 -62 2zM553 349
q0 32 -39 32q-28 1 -46.5 -25.5t-24.5 -68.5q49 0 79.5 15.5t30.5 46.5z" />
    <glyph glyph-name="ccedilla" unicode="&#xe7;" horiz-adv-x="408" 
d="M124 -98q-22 1 -10 25l33 69q-61 11 -86.5 48t-25.5 103q0 53 6 93q14 104 68 178q63 85 187 85q36 0 76 -10q44 -11 62 -23q14 -10 7 -29l-23 -62q-8 -22 -25 -20q-95 9 -102 9q-35 0 -61 -28t-35 -81q-7 -36 -7 -75q0 -32 12.5 -45.5t40.5 -13.5q58 0 111 8
q30 8 30 -17l-1 -56q0 -15 -3.5 -21t-15.5 -14q-42 -27 -147 -32l-20 -40q40 -2 56.5 -17.5t16.5 -44.5q0 -55 -38.5 -89.5t-106.5 -34.5q-48 0 -75 11q-11 8 -7 17l10 32q5 12 21 8q25 -3 55 -3q52 0 52 45q0 13 -10.5 17.5t-44.5 7.5z" />
    <glyph glyph-name="egrave" unicode="&#xe8;" horiz-adv-x="449" 
d="M301 503q68 0 111 -33.5t43 -94.5q0 -181 -274 -193q-2 -10 -2 -21q0 -26 12 -36t44 -10q47 0 133 10q21 3 21 -21q0 -6 -0.5 -22t-0.5 -22q0 -28 -22 -40q-52 -30 -168 -30q-165 0 -165 165q0 39 7 80q17 101 69 175q64 93 192 93zM307 351q0 34 -35 34q-26 0 -41 -18.5
t-28 -59.5l-6 -25q110 9 110 69zM297 561l-99 139q-13 18 8 30l70 43q21 14 29 -3l76 -163q9 -19 -7 -28l-42 -25q-13 -7 -20 -5.5t-15 12.5z" />
    <glyph glyph-name="eacute" unicode="&#xe9;" horiz-adv-x="449" 
d="M301 503q68 0 111 -33.5t43 -94.5q0 -181 -274 -193q-2 -10 -2 -21q0 -26 12 -36t44 -10q47 0 133 10q21 3 21 -21q0 -6 -0.5 -22t-0.5 -22q0 -28 -22 -40q-52 -30 -168 -30q-165 0 -165 165q0 39 7 80q17 101 69 175q64 93 192 93zM307 351q0 34 -35 34q-26 0 -41 -18.5
t-28 -59.5l-6 -25q110 9 110 69zM356 770l70 -34q20 -10 3 -32l-118 -151q-13 -18 -26 -10l-44 28q-10 7 -3 25l90 165q9 16 28 9z" />
    <glyph glyph-name="ecircumflex" unicode="&#xea;" horiz-adv-x="449" 
d="M301 503q68 0 111 -33.5t43 -94.5q0 -181 -274 -193q-2 -10 -2 -21q0 -26 12 -36t44 -10q47 0 133 10q21 3 21 -21q0 -6 -0.5 -22t-0.5 -22q0 -28 -22 -40q-52 -30 -168 -30q-165 0 -165 165q0 39 7 80q17 101 69 175q64 93 192 93zM307 351q0 34 -35 34q-26 0 -41 -18.5
t-28 -59.5l-6 -25q110 9 110 69zM169 543l-30 30q-12 14 8 34l135 137q9 10 31 10h59q13 0 20 -2t9 -4t7 -9l79 -137q8 -14 -7 -27l-33 -31q-16 -16 -34 1l-89 97l-124 -98q-17 -15 -31 -1z" />
    <glyph glyph-name="edieresis" unicode="&#xeb;" horiz-adv-x="449" 
d="M301 503q68 0 111 -33.5t43 -94.5q0 -181 -274 -193q-2 -10 -2 -21q0 -26 12 -36t44 -10q47 0 133 10q21 3 21 -21q0 -6 -0.5 -22t-0.5 -22q0 -28 -22 -40q-52 -30 -168 -30q-165 0 -165 165q0 39 7 80q17 101 69 175q64 93 192 93zM307 351q0 34 -35 34q-26 0 -41 -18.5
t-28 -59.5l-6 -25q110 9 110 69zM239 692q60 0 60 -44q0 -96 -87 -96q-60 0 -60 44q0 96 87 96zM424 692q33 0 46.5 -10.5t13.5 -32.5q0 -97 -87 -97q-59 0 -59 45q0 95 86 95z" />
    <glyph glyph-name="igrave" unicode="&#xec;" horiz-adv-x="263" 
d="M267 472l-87 -451q-4 -21 -24 -21h-108q-19 0 -19 21l88 451q3 22 26 22h109q19 0 15 -22zM175 561l-99 139q-13 18 8 30l70 43q21 14 29 -3l76 -163q9 -19 -7 -28l-42 -25q-13 -7 -20 -5.5t-15 12.5z" />
    <glyph glyph-name="iacute" unicode="&#xed;" horiz-adv-x="263" 
d="M267 472l-87 -451q-4 -21 -24 -21h-108q-19 0 -19 21l88 451q3 22 26 22h109q19 0 15 -22zM262 770l70 -34q20 -10 3 -32l-118 -151q-13 -18 -26 -10l-44 28q-10 7 -3 25l90 165q9 16 28 9z" />
    <glyph glyph-name="icircumflex" unicode="&#xee;" horiz-adv-x="267" 
d="M269 472l-87 -451q-4 -21 -24 -21h-108q-19 0 -19 21l88 451q3 22 26 22h109q19 0 15 -22zM71 543l-30 30q-12 14 8 34l135 137q9 10 31 10h59q13 0 20 -2t9 -4t7 -9l79 -137q8 -14 -7 -27l-33 -31q-17 -16 -34 1l-89 97l-124 -98q-17 -15 -31 -1z" />
    <glyph glyph-name="idieresis" unicode="&#xef;" horiz-adv-x="263" 
d="M267 472l-87 -451q-4 -21 -24 -21h-108q-19 0 -19 21l88 451q3 22 26 22h109q19 0 15 -22zM137 692q60 0 60 -44q0 -96 -87 -96q-60 0 -60 44q0 96 87 96zM322 692q33 0 46.5 -10.5t13.5 -32.5q0 -97 -87 -97q-59 0 -59 45q0 95 86 95z" />
    <glyph glyph-name="eth" unicode="&#xf0;" horiz-adv-x="474" 
d="M272 367q-28 0 -49 -33.5t-30 -90.5q-7 -35 -7 -64q0 -57 43 -57q61 0 86 136q10 50 10 92q-22 17 -53 17zM481 648l-52 -26q52 -79 52 -203q0 -74 -10 -135q-45 -293 -271 -293q-86 0 -126.5 44t-40.5 120q0 55 15 120q23 95 77 155q56 62 148 62q41 0 65 -10l4 4
q-9 50 -25 76l-69 -32q-19 -10 -24 4l-9 25q-5 12 15 18l56 26q-17 19 -43 42q-17 14 -20.5 21.5t2.5 18.5l27 37q13 16 19 18t27 -4q64 -28 99 -71l64 32q12 6 15.5 4.5t8.5 -14.5l8 -20q4 -13 -12 -19z" />
    <glyph glyph-name="ntilde" unicode="&#xf1;" horiz-adv-x="476" 
d="M246 472l-3 -17l4 -2q64 49 131 49q74 0 97 -42q12 -18 13 -46q4 -42 -9 -109l-55 -284q-4 -21 -29 -21h-102q-25 0 -20 21l54 277q13 63 -30 63q-25 0 -77 -23l-61 -317q-5 -21 -27 -21h-102q-26 0 -21 21l87 451q4 22 30 22h104q20 0 16 -22zM377 565q-25 0 -70 22
t-59 22q-26 0 -52 -35q-12 -17 -24 -9l-44 29q-10 7 -2 23q56 104 138 104q33 0 70 -22q38 -22 51 -22q19 0 49 34q15 20 31 8l40 -30q12 -9 4 -24q-55 -100 -132 -100z" />
    <glyph glyph-name="ograve" unicode="&#xf2;" 
d="M297 503q174 0 174 -162q0 -39 -9 -89q-42 -260 -259 -260q-170 0 -170 156q0 45 13 106q14 69 42 124q57 121 209 125zM275 372q-32 0 -51.5 -31.5t-30.5 -101.5q-7 -50 -7 -66q0 -50 39 -50q33 0 51.5 28.5t31.5 96.5q10 46 10 73q0 51 -43 51zM290 561l-99 139
q-13 18 8 30l70 43q21 14 29 -3l76 -163q9 -19 -7 -28l-42 -25q-13 -7 -20 -5.5t-15 12.5z" />
    <glyph glyph-name="oacute" unicode="&#xf3;" 
d="M297 503q174 0 174 -162q0 -39 -9 -89q-42 -260 -259 -260q-170 0 -170 156q0 45 13 106q14 69 42 124q57 121 209 125zM275 372q-32 0 -51.5 -31.5t-30.5 -101.5q-7 -50 -7 -66q0 -50 39 -50q33 0 51.5 28.5t31.5 96.5q10 46 10 73q0 51 -43 51zM378 770l70 -34
q20 -10 3 -32l-118 -151q-13 -18 -26 -10l-44 28q-10 7 -3 25l90 165q9 16 28 9z" />
    <glyph glyph-name="ocircumflex" unicode="&#xf4;" 
d="M297 503q174 0 174 -162q0 -39 -9 -89q-42 -260 -259 -260q-170 0 -170 156q0 45 13 106q14 69 42 124q57 121 209 125zM275 372q-32 0 -51.5 -31.5t-30.5 -101.5q-7 -50 -7 -66q0 -50 39 -50q33 0 51.5 28.5t31.5 96.5q10 46 10 73q0 51 -43 51zM171 543l-30 30
q-12 14 8 34l135 137q9 10 31 10h59q13 0 20 -2t9 -4t7 -9l79 -137q8 -14 -7 -27l-33 -31q-16 -16 -34 1l-89 97l-124 -98q-17 -15 -31 -1z" />
    <glyph glyph-name="otilde" unicode="&#xf5;" 
d="M297 503q174 0 174 -162q0 -39 -9 -89q-42 -260 -259 -260q-170 0 -170 156q0 45 13 106q14 69 42 124q57 121 209 125zM275 372q-32 0 -51.5 -31.5t-30.5 -101.5q-7 -50 -7 -66q0 -50 39 -50q33 0 51.5 28.5t31.5 96.5q10 46 10 73q0 51 -43 51zM381 565q-25 0 -70 22
t-59 22q-26 0 -52 -35q-12 -16 -24 -9l-44 29q-10 7 -2 23q56 104 138 104q33 0 70 -22q38 -22 51 -22q19 0 49 34q15 20 31 8l40 -30q12 -9 4 -24q-55 -100 -132 -100z" />
    <glyph glyph-name="odieresis" unicode="&#xf6;" 
d="M297 503q174 0 174 -162q0 -39 -9 -89q-42 -260 -259 -260q-170 0 -170 156q0 45 13 106q14 69 42 124q57 121 209 125zM275 372q-32 0 -51.5 -31.5t-30.5 -101.5q-7 -50 -7 -66q0 -50 39 -50q33 0 51.5 28.5t31.5 96.5q10 46 10 73q0 51 -43 51zM241 692q60 0 60 -44
q0 -96 -87 -96q-60 0 -60 44q0 96 87 96zM426 692q33 0 46.5 -10.5t13.5 -32.5q0 -97 -87 -97q-59 0 -59 45q0 95 86 95z" />
    <glyph glyph-name="divide" unicode="&#xf7;" horiz-adv-x="510" 
d="M338 572q63 0 63 -46q0 -103 -92 -103q-65 0 -65 49q0 100 94 100zM271 229q64 0 64 -48q0 -101 -93 -101q-65 0 -65 47q0 102 94 102zM448 269h-344q-20 0 -16 21l13 70q5 20 24 20h344q12 0 15.5 -4.5t1.5 -15.5l-13 -70q-5 -21 -25 -21z" />
    <glyph glyph-name="oslash" unicode="&#xf8;" 
d="M297 503q77 0 118 -31l20 24q9 9 11 10t11 -4l11 -9q10 -7 -2 -23l-22 -27q27 -37 27 -102q0 -39 -9 -89q-42 -260 -259 -260q-71 0 -111 25l-15 -18q-11 -15 -22 -7l-13 10q-10 8 0 19l20 24q-29 38 -29 103q0 45 13 106q14 69 42 124q57 121 209 125zM275 372
q-32 0 -51.5 -31.5t-30.5 -101.5l-6 -43l126 153q-9 23 -38 23zM308 248q4 21 7 39l-123 -149q9 -15 33 -15q33 0 51.5 28.5t31.5 96.5z" />
    <glyph glyph-name="ugrave" unicode="&#xf9;" 
d="M265 22l4 22l-4 2q-65 -54 -133 -54q-79 0 -98 44q-12 34 -9 65q3 35 12 78l56 293q4 22 30 22h100q14 0 18.5 -5t2.5 -17l-51 -263q-8 -48 -2 -61q16 -30 101 11l61 314q1 21 30 21h99q14 0 18 -5t2 -17l-88 -450q-3 -22 -27 -22h-102q-24 0 -20 22zM287 561l-99 139
q-13 18 8 30l70 43q21 14 29 -3l76 -163q9 -19 -7 -28l-42 -25q-13 -7 -20 -5.5t-15 12.5z" />
    <glyph glyph-name="uacute" unicode="&#xfa;" 
d="M265 22l4 22l-4 2q-65 -54 -133 -54q-79 0 -98 44q-12 34 -9 65q3 35 12 78l56 293q4 22 30 22h100q14 0 18.5 -5t2.5 -17l-51 -263q-8 -48 -2 -61q16 -30 101 11l61 314q1 21 30 21h99q14 0 18 -5t2 -17l-88 -450q-3 -22 -27 -22h-102q-24 0 -20 22zM372 770l70 -34
q20 -10 3 -32l-118 -151q-13 -18 -26 -10l-44 28q-10 7 -3 25l90 165q9 16 28 9z" />
    <glyph glyph-name="ucircumflex" unicode="&#xfb;" 
d="M265 22l4 22l-4 2q-65 -54 -133 -54q-79 0 -98 44q-12 34 -9 65q3 35 12 78l56 293q4 22 30 22h100q14 0 18.5 -5t2.5 -17l-51 -263q-8 -48 -2 -61q16 -30 101 11l61 314q1 21 30 21h99q14 0 18 -5t2 -17l-88 -450q-3 -22 -27 -22h-102q-24 0 -20 22zM173 543l-30 30
q-12 14 8 34l135 137q9 10 31 10h59q13 0 20 -2t9 -4t7 -9l79 -137q8 -14 -7 -27l-33 -31q-17 -16 -34 1l-89 97l-124 -98q-17 -15 -31 -1z" />
    <glyph glyph-name="udieresis" unicode="&#xfc;" 
d="M265 22l4 22l-4 2q-65 -54 -133 -54q-79 0 -98 44q-12 34 -9 65q3 35 12 78l56 293q4 22 30 22h100q14 0 18.5 -5t2.5 -17l-51 -263q-8 -48 -2 -61q16 -30 101 11l61 314q1 21 30 21h99q14 0 18 -5t2 -17l-88 -450q-3 -22 -27 -22h-102q-24 0 -20 22zM247 692
q60 0 60 -44q0 -96 -87 -96q-60 0 -60 44q0 96 87 96zM432 692q33 0 46.5 -10.5t13.5 -32.5q0 -97 -87 -97q-59 0 -59 45q0 95 86 95z" />
    <glyph glyph-name="yacute" unicode="&#xfd;" horiz-adv-x="458" 
d="M234 197h4l53 121l71 155q10 21 36 21h100q28 0 13 -26l-328 -641q-8 -15 -15.5 -19t-25.5 -4h-86q-30 0 -17 25l95 184l-58 456q-3 25 25 25h95q15 0 20.5 -4.5t6.5 -17.5l9 -162q4 -64 2 -113zM375 770l70 -34q20 -10 3 -32l-118 -151q-13 -18 -26 -10l-44 28
q-10 7 -3 25l90 165q9 16 28 9z" />
    <glyph glyph-name="thorn" unicode="&#xfe;" 
d="M159 0l-4 -2l-33 -172q-1 -5 -2 -7.5t-3.5 -6.5t-8.5 -6t-14 -2h-102q-23 0 -19 22l164 857q3 22 28 22h103q12 0 15.5 -4.5t3.5 -17.5l-43 -228l4 -2q57 48 119 48q60 0 86 -33.5t26 -102.5q0 -44 -8 -106q-22 -138 -76.5 -204t-159.5 -66q-34 0 -76 11zM294 359
q-36 0 -74 -25l-40 -204q28 -9 44 -9q38 0 58 24q21 25 34 101q8 43 8 70q0 43 -30 43z" />
    <glyph glyph-name="ydieresis" unicode="&#xff;" horiz-adv-x="458" 
d="M234 197h4l53 121l71 155q10 21 36 21h100q28 0 13 -26l-328 -641q-8 -15 -15.5 -19t-25.5 -4h-86q-30 0 -17 25l95 184l-58 456q-3 25 25 25h95q15 0 20.5 -4.5t6.5 -17.5l9 -162q4 -64 2 -113zM244 692q60 0 60 -44q0 -96 -87 -96q-60 0 -60 44q0 96 87 96zM429 692
q33 0 46.5 -10.5t13.5 -32.5q0 -97 -87 -97q-59 0 -59 45q0 95 86 95z" />
    <glyph glyph-name="Amacron" unicode="&#x100;" horiz-adv-x="552" 
d="M366 31l-4 118h-150l-52 -122q-10 -27 -41 -27h-105q-28 0 -15 28l282 607q11 21 19 25q10 4 27 4h117q17 0 24 -6.5t9 -22.5l50 -607q1 -28 -21 -28h-109q-18 0 -24 6.5t-7 24.5zM359 499h-4q-2 -7 -38 -97l-51 -130h90v118q0 64 3 109zM567 822l-14 -72q-4 -22 -29 -22
h-260q-25 0 -21 22l12 75q2 17 31 17h260q13 0 18 -4t3 -16z" />
    <glyph glyph-name="amacron" unicode="&#x101;" horiz-adv-x="489" 
d="M360 462h1q1 1 2 1l4 15q4 16 23 16h97q21 0 17 -24l-88 -448q-4 -22 -27 -22h-102q-18 0 -18 13q0 3 2.5 13.5t2.5 11.5h-2l-2 1q-56 -46 -126 -46q-59 0 -86 31.5t-27 93.5q0 61 10 120q17 103 61 174q51 83 148 83q70 0 110 -33zM277 357q-65 0 -84 -114
q-7 -39 -7 -60q0 -29 7.5 -39.5t26.5 -10.5q28 0 75 25l36 186q-25 13 -54 13zM488 657l-14 -72q-4 -22 -28 -22h-261q-26 0 -22 22l14 71q5 21 30 21h261q14 0 18 -4.5t2 -15.5z" />
    <glyph glyph-name="Abreve" unicode="&#x102;" horiz-adv-x="552" 
d="M366 31l-4 118h-150l-52 -122q-10 -27 -41 -27h-105q-28 0 -15 28l282 607q11 21 19 25q10 4 27 4h117q17 0 24 -6.5t9 -22.5l50 -607q1 -28 -21 -28h-109q-18 0 -24 6.5t-7 24.5zM359 499h-4q-2 -7 -38 -97l-51 -130h90v118q0 64 3 109zM385 700q-53 0 -95 30t-54 82
q-7 28 9 41l39 31q12 7 17.5 8t8.5 -1.5t9 -12.5q25 -42 43 -57t45 -15q45 0 107 69q13 14 21 15t21 -9l26 -23q10 -12 8.5 -19t-12.5 -22q-36 -54 -87.5 -85.5t-105.5 -31.5z" />
    <glyph glyph-name="abreve" unicode="&#x103;" horiz-adv-x="489" 
d="M360 462h1q1 1 2 1l4 15q4 16 23 16h97q21 0 17 -24l-88 -448q-4 -22 -27 -22h-102q-18 0 -18 13q0 3 2.5 13.5t2.5 11.5h-2l-2 1q-56 -46 -126 -46q-59 0 -86 31.5t-27 93.5q0 61 10 120q17 103 61 174q51 83 148 83q70 0 110 -33zM277 357q-65 0 -84 -114
q-7 -39 -7 -60q0 -29 7.5 -39.5t26.5 -10.5q28 0 75 25l36 186q-25 13 -54 13zM313 545q-55 0 -98 31.5t-55 85.5q-7 28 10 42l37 29q19 10 23.5 9t13.5 -15q25 -44 43 -60t44 -16q45 0 108 72q20 26 42 8l30 -23q10 -13 9 -19.5t-14 -24.5q-39 -57 -90 -88t-103 -31z" />
    <glyph glyph-name="Aogonek" unicode="&#x104;" horiz-adv-x="552" 
d="M475 -118q23 8 23 -7l4 -38q0 -13 -18 -22q-43 -22 -89 -22q-53 -1 -77.5 20.5t-22.5 62.5q5 72 72 139q-1 3 -1 16l-4 118h-150l-52 -122q-10 -27 -41 -27h-105q-28 0 -15 28l282 607q11 21 19 25q10 4 27 4h117q17 0 24 -6.5t9 -22.5l50 -607q1 -28 -21 -28h-63
q-45 -60 -46 -97q-2 -22 17.5 -27.5t60.5 6.5zM359 499h-4q-2 -7 -38 -97l-51 -130h90v118q0 64 3 109z" />
    <glyph glyph-name="aogonek" unicode="&#x105;" horiz-adv-x="489" 
d="M378 -118q23 8 23 -7l4 -38q0 -13 -18 -22q-43 -22 -89 -22q-53 -1 -77.5 20.5t-22.5 62.5q4 70 71 137q0 3 2.5 13.5t2.5 11.5h-2l-2 1q-56 -46 -126 -46q-59 0 -86 31.5t-27 93.5q0 61 10 120q17 103 61 174q51 83 148 83q70 0 110 -33h1q1 1 2 1l4 15q4 16 23 16h97
q21 0 17 -24l-88 -448q-4 -22 -27 -22h-43q-45 -60 -46 -97q-2 -22 17.5 -27.5t60.5 6.5zM277 357q-65 0 -84 -114q-7 -39 -7 -60q0 -29 7.5 -39.5t26.5 -10.5q28 0 75 25l36 186q-25 13 -54 13z" />
    <glyph glyph-name="Cacute" unicode="&#x106;" horiz-adv-x="507" 
d="M389 672q101 0 162 -32q29 -17 19 -44l-22 -58q-6 -15 -15 -19t-29 -1q-82 9 -122 9q-57 0 -90 -48.5t-52 -146.5q-13 -65 -13 -105q0 -48 18.5 -70.5t60.5 -22.5q54 0 141 9q21 2 28 -2t8 -18l2 -53q2 -29 -37 -46q-72 -33 -183 -33q-205 0 -205 232q0 41 9 109
q51 340 320 340zM544 789l-165 -80q-21 -11 -33 9l-27 40q-7 12 12 27l164 115q21 14 29 -7l34 -74q8 -20 -14 -30z" />
    <glyph glyph-name="cacute" unicode="&#x107;" horiz-adv-x="408" 
d="M296 503q36 0 76 -10q44 -11 62 -23q14 -10 7 -29l-23 -62q-8 -22 -25 -20q-95 9 -102 9q-35 0 -61 -28t-35 -81q-7 -36 -7 -75q0 -32 12.5 -45.5t40.5 -13.5q58 0 111 8q30 8 30 -17l-1 -56q0 -15 -3.5 -21t-15.5 -14q-22 -15 -73 -24q-49 -9 -92 -9q-89 0 -125.5 38.5
t-36.5 116.5q0 53 6 93q14 104 68 178q63 85 187 85zM354 770l70 -34q20 -10 3 -32l-118 -151q-13 -18 -26 -10l-44 28q-10 7 -3 25l90 165q9 16 28 9z" />
    <glyph glyph-name="Ccircumflex" unicode="&#x108;" horiz-adv-x="507" 
d="M389 672q101 0 162 -32q29 -17 19 -44l-22 -58q-6 -15 -15 -19t-29 -1q-82 9 -122 9q-57 0 -90 -48.5t-52 -146.5q-13 -65 -13 -105q0 -48 18.5 -70.5t60.5 -22.5q54 0 141 9q21 2 28 -2t8 -18l2 -53q2 -29 -37 -46q-72 -33 -183 -33q-205 0 -205 232q0 41 9 109
q51 340 320 340zM250 700l-23 33q-11 18 8 34l132 116q10 10 32 10h55q18 0 24 -2.5t13 -11.5l85 -116q10 -13 -5 -27l-37 -33q-16 -13 -32 2l-96 82l-126 -86q-21 -14 -30 -1z" />
    <glyph glyph-name="ccircumflex" unicode="&#x109;" horiz-adv-x="408" 
d="M296 503q36 0 76 -10q44 -11 62 -23q14 -10 7 -29l-23 -62q-8 -22 -25 -20q-95 9 -102 9q-35 0 -61 -28t-35 -81q-7 -36 -7 -75q0 -32 12.5 -45.5t40.5 -13.5q58 0 111 8q30 8 30 -17l-1 -56q0 -15 -3.5 -21t-15.5 -14q-22 -15 -73 -24q-49 -9 -92 -9q-89 0 -125.5 38.5
t-36.5 116.5q0 53 6 93q14 104 68 178q63 85 187 85zM159 543l-30 30q-12 14 8 34l135 137q9 10 31 10h59q13 0 20 -2t9 -4t7 -9l79 -137q8 -14 -7 -27l-33 -31q-16 -16 -34 1l-89 97l-124 -98q-17 -15 -31 -1z" />
    <glyph glyph-name="Cdotaccent" unicode="&#x10a;" horiz-adv-x="507" 
d="M389 672q101 0 162 -32q29 -17 19 -44l-22 -58q-6 -15 -15 -19t-29 -1q-82 9 -122 9q-57 0 -90 -48.5t-52 -146.5q-13 -65 -13 -105q0 -48 18.5 -70.5t60.5 -22.5q54 0 141 9q21 2 28 -2t8 -18l2 -53q2 -29 -37 -46q-72 -33 -183 -33q-205 0 -205 232q0 41 9 109
q51 340 320 340zM433 873q63 0 63 -48q0 -45 -22.5 -73.5t-70.5 -28.5q-64 0 -64 52q0 44 24 71t70 27z" />
    <glyph glyph-name="cdotaccent" unicode="&#x10b;" horiz-adv-x="408" 
d="M296 503q36 0 76 -10q44 -11 62 -23q14 -10 7 -29l-23 -62q-8 -22 -25 -20q-95 9 -102 9q-35 0 -61 -28t-35 -81q-7 -36 -7 -75q0 -32 12.5 -45.5t40.5 -13.5q58 0 111 8q30 8 30 -17l-1 -56q0 -15 -3.5 -21t-15.5 -14q-22 -15 -73 -24q-49 -9 -92 -9q-89 0 -125.5 38.5
t-36.5 116.5q0 53 6 93q14 104 68 178q63 85 187 85zM327 710q63 0 63 -48q0 -45 -22.5 -73.5t-70.5 -28.5q-64 0 -64 52q0 44 24 71t70 27z" />
    <glyph glyph-name="Ccaron" unicode="&#x10c;" horiz-adv-x="507" 
d="M389 672q101 0 162 -32q29 -17 19 -44l-22 -58q-6 -15 -15 -19t-29 -1q-82 9 -122 9q-57 0 -90 -48.5t-52 -146.5q-13 -65 -13 -105q0 -48 18.5 -70.5t60.5 -22.5q54 0 141 9q21 2 28 -2t8 -18l2 -53q2 -29 -37 -46q-72 -33 -183 -33q-205 0 -205 232q0 41 9 109
q51 340 320 340zM257 864l31 31q13 13 30 -1l93 -86l127 82q24 16 33 2l29 -31q10 -13 -5 -27l-130 -116q-17 -14 -43 -14h-55q-19 0 -28 10l-87 116q-12 17 5 34z" />
    <glyph glyph-name="ccaron" unicode="&#x10d;" horiz-adv-x="408" 
d="M296 503q36 0 76 -10q44 -11 62 -23q14 -10 7 -29l-23 -62q-8 -22 -25 -20q-95 9 -102 9q-35 0 -61 -28t-35 -81q-7 -36 -7 -75q0 -32 12.5 -45.5t40.5 -13.5q58 0 111 8q30 8 30 -17l-1 -56q0 -15 -3.5 -21t-15.5 -14q-22 -15 -73 -24q-49 -9 -92 -9q-89 0 -125.5 38.5
t-36.5 116.5q0 53 6 93q14 104 68 178q63 85 187 85zM148 718l38 32q16 14 31 -1l86 -98l127 97q23 17 34 1l25 -33q10 -12 -5 -27l-131 -137q-15 -15 -42 -15h-59q-23 0 -27 10l-82 137q-12 19 5 34z" />
    <glyph glyph-name="Dcaron" unicode="&#x10e;" horiz-adv-x="564" 
d="M320 530h-44l-77 -396h39q75 0 121 79q47 80 47 212q0 55 -21 80t-65 25zM171 664h183q113 0 163 -56.5t50 -165.5q0 -179 -73 -304q-37 -65 -106 -101.5t-160 -36.5h-184q-24 0 -24 15q0 1 0.5 3t0.5 3l121 621q4 22 29 22zM204 864l31 31q13 13 30 -1l93 -86l127 82
q24 16 33 2l29 -31q10 -13 -5 -27l-130 -116q-17 -14 -43 -14h-55q-19 0 -28 10l-87 116q-12 17 5 34z" />
    <glyph glyph-name="dcaron" unicode="&#x10f;" horiz-adv-x="620" 
d="M332 493l3 3l37 187q5 23 32 23h94q27 0 22 -23l-128 -661q-4 -22 -28 -22h-103q-23 0 -18 21l3 13q-1 1 -3 1q-65 -42 -120 -42q-61 0 -88.5 32t-27.5 97q0 39 14 117q24 135 70 198q50 68 162 68q40 0 79 -12zM255 372q-31 0 -49 -27t-33 -100q-9 -48 -9 -72
q0 -41 30 -41q33 0 75 24l40 207q-25 9 -54 9zM536 536q42 39 42 83q0 13 -9 35q-8 15 -6 23t17 19l59 43q30 23 49 -8q19 -28 19 -74q0 -60 -34 -107t-90 -76q-26 -14 -37 2l-20 26q-7 9 -5.5 15.5t15.5 18.5z" />
    <glyph glyph-name="Dcroat" unicode="&#x110;" horiz-adv-x="563" 
d="M171 664h183q113 0 163 -56.5t50 -165.5q0 -179 -73 -304q-37 -65 -106 -101.5t-160 -36.5h-184q-24 0 -24 15q0 1 0.5 3t0.5 3l51 267h-21q-21 0 -16 17l11 60q5 20 24 20h21l51 257q4 22 29 22zM320 530h-44l-28 -145h65q19 0 16 -19l-11 -57q-2 -8 -3.5 -11.5
t-6.5 -6.5t-14 -3h-65l-30 -154h39q75 0 121 79q47 80 47 212q0 55 -21 80t-65 25z" />
    <glyph glyph-name="dslash" unicode="&#x111;" horiz-adv-x="485" 
d="M352 487l3 3l11 55h-95q-19 0 -16 17l8 41q3 20 24 20h94l12 60q5 23 32 23h94q27 0 22 -23l-12 -60h31q19 0 16 -19l-8 -38q-2 -8 -3.5 -11.5t-6.5 -6.5t-14 -3h-30l-101 -523q-4 -22 -28 -22h-103q-22 0 -18 21l3 13q-1 1 -3 1q-64 -42 -120 -42q-61 0 -88.5 32
t-27.5 97q0 39 14 117q24 136 70 195q48 65 161 65q40 0 79 -12zM275 366q-32 0 -50 -24q-18 -26 -31 -97q-9 -48 -9 -72q0 -41 30 -41q33 0 75 24l39 201q-25 9 -54 9z" />
    <glyph glyph-name="Emacron" unicode="&#x112;" horiz-adv-x="476" 
d="M454 113l-19 -92q-2 -8 -3.5 -11t-7 -6.5t-16.5 -3.5h-363q-25 0 -21 21l121 621q2 8 4 12t8 7t17 3h337q22 0 19 -19l-17 -88q-5 -27 -28 -27h-205l-23 -118h190q23 0 18 -21l-17 -90q-1 -8 -2.5 -11.5t-7.5 -7t-17 -3.5h-189l-29 -145h233q22 0 18 -21zM529 822
l-14 -72q-4 -22 -29 -22h-260q-25 0 -21 22l12 75q2 17 31 17h260q13 0 18 -4t3 -16z" />
    <glyph glyph-name="emacron" unicode="&#x113;" horiz-adv-x="449" 
d="M301 503q68 0 111 -33.5t43 -94.5q0 -181 -274 -193q-2 -10 -2 -21q0 -26 12 -36t44 -10q47 0 133 10q21 3 21 -21q0 -6 -0.5 -22t-0.5 -22q0 -28 -22 -40q-52 -30 -168 -30q-165 0 -165 165q0 39 7 80q17 101 69 175q64 93 192 93zM307 351q0 34 -35 34q-26 0 -41 -18.5
t-28 -59.5l-6 -25q110 9 110 69zM483 657l-14 -72q-4 -22 -28 -22h-261q-26 0 -22 22l14 71q4 21 30 21h261q14 0 18 -4.5t2 -15.5z" />
    <glyph glyph-name="Ebreve" unicode="&#x114;" horiz-adv-x="476" 
d="M454 113l-19 -92q-2 -8 -3.5 -11t-7 -6.5t-16.5 -3.5h-363q-25 0 -21 21l121 621q2 8 4 12t8 7t17 3h337q22 0 19 -19l-17 -88q-5 -27 -28 -27h-205l-23 -118h190q23 0 18 -21l-17 -90q-1 -8 -2.5 -11.5t-7.5 -7t-17 -3.5h-189l-29 -145h233q22 0 18 -21zM351 700
q-53 0 -95 30t-54 82q-7 28 9 41l39 31q12 7 17.5 8t8.5 -1.5t9 -12.5q25 -42 43 -57t45 -15q46 0 107 69q13 14 20.5 15t21.5 -9l26 -23q10 -12 8.5 -19t-12.5 -22q-36 -54 -87.5 -85.5t-105.5 -31.5z" />
    <glyph glyph-name="ebreve" unicode="&#x115;" horiz-adv-x="449" 
d="M301 503q68 0 111 -33.5t43 -94.5q0 -181 -274 -193q-2 -10 -2 -21q0 -26 12 -36t44 -10q47 0 133 10q21 3 21 -21q0 -6 -0.5 -22t-0.5 -22q0 -28 -22 -40q-52 -30 -168 -30q-165 0 -165 165q0 39 7 80q17 101 69 175q64 93 192 93zM307 351q0 34 -35 34q-26 0 -41 -18.5
t-28 -59.5l-6 -25q110 9 110 69zM302 545q-55 0 -98 31.5t-55 85.5q-7 28 10 42l37 29q19 10 23.5 9t13.5 -15q25 -44 43 -60t44 -16q45 0 108 72q20 26 42 8l30 -23q10 -13 9 -19.5t-14 -24.5q-39 -57 -90 -88t-103 -31z" />
    <glyph glyph-name="Edotaccent" unicode="&#x116;" horiz-adv-x="476" 
d="M454 113l-19 -92q-2 -8 -3.5 -11t-7 -6.5t-16.5 -3.5h-363q-25 0 -21 21l121 621q2 8 4 12t8 7t17 3h337q22 0 19 -19l-17 -88q-5 -27 -28 -27h-205l-23 -118h190q23 0 18 -21l-17 -90q-1 -8 -2.5 -11.5t-7.5 -7t-17 -3.5h-189l-29 -145h233q22 0 18 -21zM376 860
q63 0 63 -48q0 -45 -22.5 -73.5t-70.5 -28.5q-64 0 -64 52q0 44 24 71t70 27z" />
    <glyph glyph-name="edotaccent" unicode="&#x117;" horiz-adv-x="449" 
d="M301 503q68 0 111 -33.5t43 -94.5q0 -181 -274 -193q-2 -10 -2 -21q0 -26 12 -36t44 -10q47 0 133 10q21 3 21 -21q0 -6 -0.5 -22t-0.5 -22q0 -28 -22 -40q-52 -30 -168 -30q-165 0 -165 165q0 39 7 80q17 101 69 175q64 93 192 93zM307 351q0 34 -35 34q-26 0 -41 -18.5
t-28 -59.5l-6 -25q110 9 110 69zM340 710q63 0 63 -48q0 -45 -22.5 -73.5t-70.5 -28.5q-64 0 -64 52q0 44 24 71t70 27z" />
    <glyph glyph-name="Eogonek" unicode="&#x118;" horiz-adv-x="476" 
d="M384 -118q23 8 23 -7l4 -38q0 -13 -18 -22q-43 -22 -89 -22q-53 -1 -77.5 20.5t-22.5 62.5q1 58 58 124h-217q-25 0 -21 21l121 621q2 8 4 12t8 7t17 3h337q22 0 19 -19l-17 -88q-5 -27 -28 -27h-205l-23 -118h190q23 0 18 -21l-17 -90q-1 -8 -2.5 -11.5t-7.5 -7
t-17 -3.5h-189l-29 -145h233q22 0 18 -21l-19 -92q-2 -8 -3.5 -11t-7 -6.5t-16.5 -3.5h-56q-45 -60 -46 -97q-2 -22 17.5 -27.5t60.5 6.5z" />
    <glyph glyph-name="eogonek" unicode="&#x119;" horiz-adv-x="449" 
d="M354 -117q23 8 23 -7l4 -38q0 -13 -18 -22q-43 -22 -89 -22q-53 -1 -77.5 20.5t-22.5 62.5q1 54 49 114q-6 -1 -25 -1q-165 0 -165 165q0 39 7 80q17 101 69 175q64 93 192 93q68 0 111 -33.5t43 -94.5q0 -181 -274 -193q-2 -10 -2 -21q0 -26 12 -36t44 -10q47 0 133 10
q21 3 21 -21q0 -6 -0.5 -22t-0.5 -22q0 -28 -22 -40q-12 -8 -42 -16q-47 -60 -48 -100q-2 -22 17.5 -27.5t60.5 6.5zM307 351q0 34 -35 34q-26 0 -41 -18.5t-28 -59.5l-6 -25q110 9 110 69z" />
    <glyph glyph-name="Ecaron" unicode="&#x11a;" horiz-adv-x="476" 
d="M454 113l-19 -92q-2 -8 -3.5 -11t-7 -6.5t-16.5 -3.5h-363q-25 0 -21 21l121 621q2 8 4 12t8 7t17 3h337q22 0 19 -19l-17 -88q-5 -27 -28 -27h-205l-23 -118h190q23 0 18 -21l-17 -90q-1 -8 -2.5 -11.5t-7.5 -7t-17 -3.5h-189l-29 -145h233q22 0 18 -21zM211 864l31 31
q13 13 30 -1l93 -86l127 82q24 16 33 2l29 -31q10 -13 -5 -27l-130 -116q-17 -14 -43 -14h-55q-19 0 -28 10l-87 116q-12 17 5 34z" />
    <glyph glyph-name="ecaron" unicode="&#x11b;" horiz-adv-x="449" 
d="M301 503q68 0 111 -33.5t43 -94.5q0 -181 -274 -193q-2 -10 -2 -21q0 -26 12 -36t44 -10q47 0 133 10q21 3 21 -21q0 -6 -0.5 -22t-0.5 -22q0 -28 -22 -40q-52 -30 -168 -30q-165 0 -165 165q0 39 7 80q17 101 69 175q64 93 192 93zM307 351q0 34 -35 34q-26 0 -41 -18.5
t-28 -59.5l-6 -25q110 9 110 69zM168 718l38 32q16 14 31 -1l86 -98l127 97q23 17 34 1l25 -33q10 -12 -5 -27l-131 -137q-15 -15 -42 -15h-59q-23 0 -27 10l-82 137q-12 19 5 34z" />
    <glyph glyph-name="Gcircumflex" unicode="&#x11c;" horiz-adv-x="550" 
d="M262 -9q-108 0 -155 55t-47 164q0 57 11 131q17 108 61 187q86 144 260 144q96 0 162 -31q32 -15 21 -44l-21 -59q-6 -16 -15 -19.5t-30 -0.5q-86 11 -123 11q-59 0 -92.5 -49t-52.5 -148q-13 -62 -13 -108q0 -93 74 -93q36 0 51 7l24 122h-45q-25 0 -20 20l16 81
q3 13 8.5 17.5t19.5 4.5h170q14 0 20.5 -6.5t4.5 -15.5l-57 -284q-6 -38 -43 -54q-84 -32 -189 -32zM265 700l-23 33q-11 18 8 34l132 116q10 10 32 10h55q18 0 24 -2.5t13 -11.5l85 -116q10 -13 -5 -27l-37 -33q-17 -13 -32 2l-96 82l-126 -86q-21 -14 -30 -1z" />
    <glyph glyph-name="gcircumflex" unicode="&#x11d;" horiz-adv-x="471" 
d="M268 -5l3 17h-1q-39 -12 -77 -12q-80 0 -115 36t-35 109q0 148 58 247q64 111 208 111q76 0 133 -15t57 -50q0 -11 -1 -14l-77 -406q-18 -88 -45 -134q-52 -93 -209 -93q-84 0 -135 24q-31 15 -24 40l22 57q6 17 14.5 20.5t27.5 -2.5q58 -11 112 -11q39 0 58 18t26 58z
M200 543l-30 30q-12 14 8 34l135 137q9 10 31 10h59q13 0 20 -2t9 -4t7 -9l79 -137q8 -14 -7 -27l-33 -31q-16 -16 -34 1l-89 97l-124 -98q-17 -15 -31 -1zM240 132q25 0 56 11l43 221q-2 1 -30 4q-43 0 -68 -31q-43 -50 -43 -154q0 -29 10 -40t32 -11z" />
    <glyph glyph-name="Gbreve" unicode="&#x11e;" horiz-adv-x="550" 
d="M262 -9q-108 0 -155 55t-47 164q0 57 11 131q17 108 61 187q86 144 260 144q96 0 162 -31q32 -15 21 -44l-21 -59q-6 -16 -15 -19.5t-30 -0.5q-86 11 -123 11q-59 0 -92.5 -49t-52.5 -148q-13 -62 -13 -108q0 -93 74 -93q36 0 51 7l24 122h-45q-25 0 -20 20l16 81
q3 13 8.5 17.5t19.5 4.5h170q14 0 20.5 -6.5t4.5 -15.5l-57 -284q-6 -38 -43 -54q-84 -32 -189 -32zM401 700q-53 0 -95 30t-54 82q-7 28 9 41l39 31q12 7 17.5 8t8.5 -1.5t9 -12.5q25 -42 43 -57t45 -15q46 0 107 69q13 14 21 15t21 -9l26 -23q10 -12 8.5 -19t-12.5 -22
q-36 -54 -87.5 -85.5t-105.5 -31.5z" />
    <glyph glyph-name="gbreve" unicode="&#x11f;" horiz-adv-x="471" 
d="M268 -5l3 17h-1q-39 -12 -77 -12q-80 0 -115 36t-35 109q0 148 58 247q64 111 208 111q76 0 133 -15t57 -50q0 -11 -1 -14l-77 -406q-18 -88 -45 -134q-52 -93 -209 -93q-84 0 -135 24q-31 15 -24 40l22 57q6 17 14.5 20.5t27.5 -2.5q58 -11 112 -11q39 0 58 18t26 58z
M321 545q-55 0 -98 31.5t-55 85.5q-7 28 10 42l37 29q19 10 23.5 9t13.5 -15q25 -44 43 -60t44 -16q45 0 108 72q20 26 42 8l30 -23q10 -13 9 -19.5t-14 -24.5q-39 -57 -90 -88t-103 -31zM240 132q25 0 56 11l43 221q-2 1 -30 4q-43 0 -68 -31q-43 -50 -43 -154
q0 -29 10 -40t32 -11z" />
    <glyph glyph-name="Gdotaccent" unicode="&#x120;" horiz-adv-x="550" 
d="M262 -9q-108 0 -155 55t-47 164q0 57 11 131q17 108 61 187q86 144 260 144q96 0 162 -31q32 -15 21 -44l-21 -59q-6 -16 -15 -19.5t-30 -0.5q-86 11 -123 11q-59 0 -92.5 -49t-52.5 -148q-13 -62 -13 -108q0 -93 74 -93q36 0 51 7l24 122h-45q-25 0 -20 20l16 81
q3 13 8.5 17.5t19.5 4.5h170q14 0 20.5 -6.5t4.5 -15.5l-57 -284q-6 -38 -43 -54q-84 -32 -189 -32zM426 860q63 0 63 -48q0 -45 -22.5 -73.5t-70.5 -28.5q-64 0 -64 52q0 44 24 71t70 27z" />
    <glyph glyph-name="gdotaccent" unicode="&#x121;" horiz-adv-x="471" 
d="M268 -5l3 17h-1q-39 -12 -77 -12q-80 0 -115 36t-35 109q0 148 58 247q64 111 208 111q76 0 133 -15t57 -50q0 -11 -1 -14l-77 -406q-18 -88 -45 -134q-52 -93 -209 -93q-84 0 -135 24q-31 15 -24 40l22 57q6 17 14.5 20.5t27.5 -2.5q58 -11 112 -11q39 0 58 18t26 58z
M240 132q25 0 56 11l43 221q-2 1 -30 4q-43 0 -68 -31q-43 -50 -43 -154q0 -29 10 -40t32 -11zM363 710q63 0 63 -48q0 -45 -22.5 -73.5t-70.5 -28.5q-64 0 -64 52q0 44 24 71t70 27z" />
    <glyph glyph-name="Gcommaaccent" unicode="&#x122;" horiz-adv-x="550" 
d="M262 -9q-108 0 -155 55t-47 164q0 57 11 131q17 108 61 187q86 144 260 144q96 0 162 -31q32 -15 21 -44l-21 -59q-6 -16 -15 -19.5t-30 -0.5q-86 11 -123 11q-59 0 -92.5 -49t-52.5 -148q-13 -62 -13 -108q0 -93 74 -93q36 0 51 7l24 122h-45q-25 0 -20 20l16 81
q3 13 8.5 17.5t19.5 4.5h170q14 0 20.5 -6.5t4.5 -15.5l-57 -284q-6 -38 -43 -54q-84 -32 -189 -32zM145 -242q42 39 42 83q0 13 -9 35q-8 15 -6 23t17 19l59 43q30 23 49 -8q19 -28 19 -74q0 -60 -34 -107t-90 -76q-26 -14 -37 2l-20 26q-7 9 -5.5 15.5t15.5 18.5z" />
    <glyph glyph-name="gcommaaccent" unicode="&#x123;" horiz-adv-x="471" 
d="M268 11l3 17h-1q-39 -12 -77 -12q-80 0 -115 36t-35 109q0 148 58 247q64 111 208 111q76 0 133 -15t57 -50q0 -11 -1 -14l-77 -406q-18 -88 -45 -134q-52 -93 -209 -93q-84 0 -135 24q-31 15 -24 40l22 57q6 17 14.5 20.5t27.5 -2.5q58 -11 112 -11q39 0 58 18t26 58z
M456 770q-42 -39 -42 -83q0 -19 9 -35q8 -16 5.5 -24t-16.5 -18l-59 -44q-30 -23 -50 9q-18 27 -18 74q0 110 123 182q26 14 38 -2l19 -26q7 -9 6 -15t-15 -18zM240 148q25 0 56 11l43 221q-2 1 -30 4q-43 0 -68 -31q-43 -50 -43 -154q0 -29 10 -40t32 -11z" />
    <glyph glyph-name="Hcircumflex" unicode="&#x124;" horiz-adv-x="553" 
d="M605 642l-120 -621q-5 -21 -30 -21h-106q-15 0 -20 5t-2 16l49 256h-144l-49 -256q-5 -21 -29 -21h-107q-25 0 -21 21l120 621q4 22 30 22h107q24 0 20 -22l-44 -230h144l44 230q4 22 31 22h106q16 0 20 -5.5t1 -16.5zM251 700l-23 33q-11 18 8 34l132 116q10 10 32 10
h55q18 0 24 -2.5t13 -11.5l85 -116q10 -13 -5 -27l-37 -33q-17 -13 -32 2l-96 82l-126 -86q-21 -14 -30 -1z" />
    <glyph glyph-name="hcircumflex" unicode="&#x125;" horiz-adv-x="477" 
d="M289 684l-41 -213l2 -2q69 34 120 34q77 0 103 -42q12 -18 15 -46q4 -41 -8 -109l-55 -284q-4 -22 -29 -22h-101q-25 0 -21 22l54 275q8 38 0 52.5t-30 14.5q-34 0 -77 -25l-61 -317q-4 -22 -28 -22h-101q-25 0 -21 22l128 662q4 22 30 22h102q23 0 19 -22zM82 722
l-23 33q-11 18 8 34l132 116q10 10 32 10h55q18 0 24 -2.5t13 -11.5l85 -116q10 -13 -5 -27l-37 -33q-16 -13 -32 2l-96 82l-126 -86q-21 -14 -30 -1z" />
    <glyph glyph-name="Hbar" unicode="&#x126;" horiz-adv-x="553" 
d="M577 498l-92 -477q-5 -21 -30 -21h-106q-15 0 -20 5t-2 16l49 256h-144l-49 -256q-5 -21 -29 -21h-107q-25 0 -21 21l92 477h-23q-10 0 -12.5 3t-0.5 14l7 42q2 17 19 17h25l13 68q4 22 30 22h107q24 0 20 -22l-13 -68h144l13 68q4 22 31 22h106q16 0 20 -5.5t1 -16.5
l-13 -68h20q17 0 14 -17l-8 -43q-3 -16 -17 -16h-24zM275 498l-16 -86h144l16 86h-144z" />
    <glyph glyph-name="hbar" unicode="&#x127;" horiz-adv-x="477" 
d="M259 542l-16 -82l3 -2q65 34 120 34q76 0 102 -42q12 -16 15 -46q4 -42 -9 -109l-53 -273q-4 -22 -28 -22h-101q-24 0 -21 22l51 264q7 41 0 54t-29 13q-32 0 -76 -25l-60 -306q-1 -22 -29 -22h-100q-14 0 -18.5 5t-2.5 17l101 520h-26q-11 0 -14 3.5t-1 14.5l9 42
q2 11 6 14t15 3h26l12 65q4 22 30 22h101q27 0 20 -22l-12 -65h134q10 0 12.5 -3.5t0.5 -13.5l-8 -43q-2 -10 -6 -13.5t-13 -3.5h-135z" />
    <glyph glyph-name="Itilde" unicode="&#x128;" horiz-adv-x="260" 
d="M307 716q-25 0 -70 22t-59 22q-26 0 -52 -35q-12 -17 -24 -9l-44 29q-10 7 -2 23q56 104 138 104q33 0 70 -22q38 -22 51 -22q19 0 49 34q15 20 31 8l40 -30q12 -9 4 -24q-55 -100 -132 -100zM308 642l-120 -621q-4 -21 -30 -21h-108q-24 0 -20 21l120 621q4 22 29 22
h108q25 0 21 -22z" />
    <glyph glyph-name="itilde" unicode="&#x129;" horiz-adv-x="267" 
d="M276 472l-87 -451q-5 -21 -24 -21h-108q-19 0 -19 21l88 451q3 22 26 22h109q19 0 15 -22zM284 564q-25 0 -70 22t-59 22q-26 0 -52 -35q-12 -17 -24 -9l-44 29q-10 7 -2 23q56 104 138 104q33 0 70 -22q38 -22 51 -22q19 0 49 34q15 20 31 8l40 -30q12 -9 4 -24
q-55 -100 -132 -100z" />
    <glyph glyph-name="Imacron" unicode="&#x12a;" horiz-adv-x="260" 
d="M308 642l-120 -621q-4 -21 -30 -21h-108q-24 0 -20 21l120 621q4 22 29 22h108q25 0 21 -22zM419 822l-14 -72q-4 -22 -29 -22h-260q-25 0 -21 22l12 75q2 17 31 17h260q13 0 18 -4t3 -16z" />
    <glyph glyph-name="imacron" unicode="&#x12b;" horiz-adv-x="263" 
d="M267 472l-87 -451q-4 -21 -24 -21h-108q-19 0 -19 21l88 451q3 22 26 22h109q19 0 15 -22zM381 657l-14 -72q-4 -22 -28 -22h-261q-26 0 -22 22l14 71q4 21 30 21h261q14 0 18 -4.5t2 -15.5z" />
    <glyph glyph-name="Ibreve" unicode="&#x12c;" horiz-adv-x="264" 
d="M308 642l-120 -621q-4 -21 -30 -21h-108q-24 0 -20 21l120 621q4 22 29 22h108q25 0 21 -22zM242 704q-53 0 -95 30t-54 82q-7 28 9 41l39 31q12 7 17.5 8t8.5 -1.5t9 -12.5q25 -42 43 -57t45 -15q46 0 107 69q13 13 20 14t22 -8l26 -23q10 -12 8.5 -19t-12.5 -22
q-36 -54 -87.5 -85.5t-105.5 -31.5z" />
    <glyph glyph-name="ibreve" unicode="&#x12d;" horiz-adv-x="263" 
d="M267 472l-87 -451q-4 -21 -24 -21h-108q-19 0 -19 21l88 451q3 22 26 22h109q19 0 15 -22zM205 551q-55 0 -98 31.5t-55 85.5q-7 28 10 42l37 29q19 10 23.5 9t13.5 -15q25 -44 43 -60t44 -16q45 0 108 72q20 26 42 8l30 -23q10 -13 9 -19.5t-14 -24.5q-39 -57 -90 -88
t-103 -31z" />
    <glyph glyph-name="Iogonek" unicode="&#x12e;" horiz-adv-x="260" 
d="M313 642l-120 -621q-5 -21 -30 -21h-56q-39 -49 -50 -99q-8 -35 30 -35q17 0 46 8q21 7 24 -7l3 -38q1 -13 -17 -22q-43 -22 -89 -22q-60 -1 -84 26.5t-14 78.5q14 62 77 124l122 628q4 22 29 22h108q25 0 21 -22z" />
    <glyph glyph-name="iogonek" unicode="&#x12f;" horiz-adv-x="238" 
d="M113 -128q23 8 23 -7l4 -38q0 -13 -18 -22q-43 -22 -89 -22q-53 -1 -77.5 20.5t-22.5 62.5q5 75 84 150q0 4 1 5l87 451q4 22 33 22h96q24 0 20 -22l-87 -451q-5 -21 -29 -21h-50q-52 -64 -53 -107q-2 -22 17.5 -27.5t60.5 6.5zM289 624q-16 -76 -93 -76q-43 0 -56 19
t-6 57q14 74 91 74q43 0 57 -18t7 -56z" />
    <glyph glyph-name="Idot" unicode="&#x130;" horiz-adv-x="260" 
d="M308 642l-120 -621q-4 -21 -30 -21h-108q-24 0 -20 21l120 621q4 22 29 22h108q25 0 21 -22zM282 880q63 0 63 -48q0 -45 -22.5 -73.5t-70.5 -28.5q-64 0 -64 52q0 44 24 71t70 27z" />
    <glyph glyph-name="dotlessi" unicode="&#x131;" horiz-adv-x="263" 
d="M267 472l-87 -451q-4 -21 -24 -21h-108q-19 0 -19 21l88 451q3 22 26 22h109q19 0 15 -22z" />
    <glyph glyph-name="IJ" unicode="&#x132;" horiz-adv-x="657" 
d="M702 642l-91 -465q-19 -96 -70.5 -141t-153.5 -45q-29 0 -77 8q-42 7 -63 22q-15 10 -4 36l19 65q6 14 12 17t21 1q85 -8 87 -8q35 0 53 19t25 58l83 433q4 22 32 22h106q16 0 20 -5.5t1 -16.5zM305 642l-120 -621q-5 -21 -30 -21h-108q-25 0 -20 21l120 621q4 22 29 22
h108q25 0 21 -22z" />
    <glyph glyph-name="ij" unicode="&#x133;" horiz-adv-x="480" 
d="M284 624q-16 -76 -93 -76q-43 0 -56 19t-6 57q14 74 91 74q43 0 57 -18t7 -56zM249 472l-87 -451q-4 -21 -29 -21h-96q-29 0 -24 21l87 451q4 22 33 22h96q24 0 20 -22zM465 698q65 0 65 -48q0 -102 -93 -102q-66 0 -66 51q0 45 23.5 72t70.5 27zM495 472l-87 -451
q-25 -132 -91 -184q-64 -50 -188 -49q-14 0 -21.5 5.5t-6.5 16.5l10 79q2 13 7 17.5t21 8.5q36 9 52 14q17 6 31 17q17 11 24.5 28t14.5 55l85 443q4 22 31 22h96q26 0 22 -22z" />
    <glyph glyph-name="Jcircumflex" unicode="&#x134;" horiz-adv-x="410" 
d="M453 643l-91 -465q-19 -96 -70.5 -141t-153.5 -45q-29 0 -77 8q-42 7 -63 22q-15 10 -4 36l19 65q6 14 12 17t21 1q85 -8 87 -8q35 0 53 19t25 58l83 433q4 22 32 22h106q16 0 20 -5.5t1 -16.5zM247 702l-23 33q-11 18 8 34l132 116q10 10 32 10h55q18 0 24 -2.5
t13 -11.5l85 -116q10 -13 -5 -27l-37 -33q-17 -13 -32 2l-96 82l-126 -86q-21 -14 -30 -1z" />
    <glyph glyph-name="jcircumflex" unicode="&#x135;" horiz-adv-x="250" 
d="M266 472l-87 -451q-25 -132 -91 -184q-64 -50 -188 -49q-14 0 -21.5 5.5t-6.5 16.5l10 79q1 12 5.5 16.5t22.5 9.5q61 11 84 30q25 19 38 84l85 443q4 22 31 22h96q26 0 22 -22zM65 559l-30 30q-12 14 8 34l135 137q9 10 31 10h59q13 0 20 -2t9 -4t7 -9l79 -137
q8 -14 -7 -27l-33 -31q-17 -16 -34 1l-89 97l-124 -98q-17 -15 -31 -1z" />
    <glyph glyph-name="Kcommaaccent" unicode="&#x136;" horiz-adv-x="528" 
d="M612 637l-226 -254l116 -353q4 -12 -1.5 -21t-17.5 -9h-112q-18 0 -27.5 5.5t-12 11.5t-7.5 21l-62 209l-59 -67l-30 -159q-5 -21 -30 -21h-103q-15 0 -20 5.5t-3 15.5l120 621q4 22 32 22h105q24 0 20 -22l-42 -220h5q35 51 78 99l102 124q15 19 52 19h114q13 0 16.5 -7
t-7.5 -20zM122 -242q42 39 42 83q0 13 -9 35q-8 15 -6 23t17 19l59 43q30 23 49 -8q19 -28 19 -74q0 -60 -34 -107t-90 -76q-26 -14 -37 2l-20 26q-7 9 -5.5 15.5t15.5 18.5z" />
    <glyph glyph-name="kcommaaccent" unicode="&#x137;" horiz-adv-x="453" 
d="M271 23l-47 148l-43 -46l-20 -104q-5 -21 -27 -21h-101q-25 0 -21 21l128 663q4 22 30 22h101q22 0 18 -22l-67 -345q2 0 3 -1q17 23 32 40q9 11 23 29l54 65q16 22 53 22h105q13 0 15.5 -7.5t-9.5 -20.5l-157 -170l88 -269q7 -27 -22 -27h-97q-31 0 -39 23zM87 -242
q42 39 42 83q0 13 -9 35q-8 15 -6 23t17 19l59 43q30 23 49 -8q19 -28 19 -74q0 -60 -34 -107t-90 -76q-26 -14 -37 2l-20 26q-7 9 -5.5 15.5t15.5 18.5z" />
    <glyph glyph-name="kgreenlandic" unicode="&#x138;" horiz-adv-x="463" 
d="M271 23l-47 148l-43 -46l-20 -104q-5 -21 -27 -21h-101q-25 0 -21 21l89 451q4 22 30 22h101q22 0 18 -22l-28 -133q2 0 3 -1q17 23 32 40q9 11 23 29l54 65q16 22 53 22h105q13 0 15.5 -7.5t-9.5 -20.5l-157 -170l88 -269q7 -27 -22 -27h-97q-31 0 -39 23z" />
    <glyph glyph-name="Lacute" unicode="&#x139;" horiz-adv-x="458" 
d="M443 117l-19 -97q-3 -20 -28 -20h-351q-15 0 -19.5 4.5t-2.5 16.5l120 621q4 22 30 22h107q15 0 19 -5t1 -17l-98 -508h223q11 0 15.5 -4t2.5 -13zM381 789l-165 -80q-21 -11 -33 9l-27 40q-8 12 12 27l164 115q21 14 29 -7l34 -74q8 -20 -14 -30z" />
    <glyph glyph-name="lacute" unicode="&#x13a;" horiz-adv-x="257" 
d="M144 -5q-66 0 -85.5 33.5t-4.5 112.5l105 542q4 22 30 22h99q24 0 20 -22l-103 -530q-3 -17 2.5 -23.5t19.5 -8.5q13 0 18.5 -3.5t5.5 -17.5l-9 -65q-2 -16 -14 -23q-29 -17 -84 -17zM395 827l-165 -80q-21 -11 -33 9l-27 40q-8 12 12 27l164 115q21 14 29 -7l34 -74
q8 -20 -14 -30z" />
    <glyph glyph-name="Lcommaaccent" unicode="&#x13b;" horiz-adv-x="458" 
d="M443 117l-19 -97q-3 -20 -28 -20h-351q-15 0 -19.5 4.5t-2.5 16.5l120 621q4 22 30 22h107q15 0 19 -5t1 -17l-98 -508h223q11 0 15.5 -4t2.5 -13zM84 -243q42 39 42 83q0 12 -9 35q-8 15 -6 23t17 19l59 43q30 23 49 -8q19 -28 19 -74q0 -60 -34 -107t-90 -76
q-26 -14 -37 2l-20 26q-7 9 -5.5 15.5t15.5 18.5z" />
    <glyph glyph-name="lcommaaccent" unicode="&#x13c;" horiz-adv-x="257" 
d="M131 -5q-66 0 -85.5 33.5t-4.5 112.5l105 542q4 22 30 22h99q24 0 20 -22l-103 -530q-3 -17 2.5 -23.5t19.5 -8.5q13 0 18.5 -3.5t5.5 -17.5l-9 -65q-2 -16 -14 -23q-29 -17 -84 -17zM-27 -242q42 39 42 83q0 13 -9 35q-8 15 -6 23t17 19l59 43q30 23 49 -8
q19 -28 19 -74q0 -60 -34 -107t-90 -76q-26 -14 -37 2l-20 26q-7 9 -5.5 15.5t15.5 18.5z" />
    <glyph glyph-name="Lcaron" unicode="&#x13d;" horiz-adv-x="451" 
d="M422 117l-19 -97q-3 -20 -28 -20h-351q-15 0 -19.5 4.5t-2.5 16.5l120 621q4 22 30 22h107q15 0 19 -5t1 -17l-98 -508h223q11 0 15.5 -4t2.5 -13zM323 467q42 39 42 83q0 12 -9 35q-8 15 -6 23t17 19l59 43q30 23 49 -8q19 -28 19 -74q0 -60 -34 -107t-90 -76
q-26 -14 -37 2l-20 26q-7 9 -5.5 15.5t15.5 18.5z" />
    <glyph glyph-name="lcaron" unicode="&#x13e;" horiz-adv-x="381" 
d="M123 -5q-66 0 -85.5 33.5t-4.5 112.5l105 542q4 22 30 22h99q24 0 20 -22l-103 -530q-3 -17 2.5 -23.5t19.5 -8.5q13 0 18.5 -3.5t5.5 -17.5l-9 -65q-2 -16 -14 -23q-29 -17 -84 -17zM294 516q42 39 42 83q0 13 -9 35q-8 15 -6 23t17 19l59 43q30 23 49 -8q19 -28 19 -74
q0 -60 -34 -107t-90 -76q-26 -14 -37 2l-20 26q-7 9 -5.5 15.5t15.5 18.5z" />
    <glyph glyph-name="Ldot" unicode="&#x13f;" horiz-adv-x="458" 
d="M443 117l-19 -97q-3 -20 -28 -20h-351q-15 0 -19.5 4.5t-2.5 16.5l120 621q4 22 30 22h107q15 0 19 -5t1 -17l-98 -508h223q11 0 15.5 -4t2.5 -13zM427 448q63 0 63 -48q0 -45 -22.5 -73.5t-70.5 -28.5q-64 0 -64 52q0 44 24 71t70 27z" />
    <glyph glyph-name="ldot" unicode="&#x140;" horiz-adv-x="374" 
d="M142 -5q-66 0 -85.5 33.5t-4.5 112.5l105 542q4 22 30 22h99q24 0 20 -22l-103 -530q-3 -17 2.5 -23.5t19.5 -8.5q13 0 18.5 -3.5t5.5 -17.5l-9 -65q-2 -16 -14 -23q-29 -17 -84 -17zM390 472q63 0 63 -48q0 -45 -22.5 -73.5t-70.5 -28.5q-64 0 -64 52q0 44 24 71t70 27z
" />
    <glyph glyph-name="Lslash" unicode="&#x141;" horiz-adv-x="458" 
d="M443 117l-19 -97q-3 -20 -28 -20h-351q-15 0 -19.5 4.5t-2.5 16.5l37 193l-34 -17q-11 -5 -14.5 -3.5t-7.5 10.5l-13 37q-3 10 -1 14t14 10l73 36l66 341q4 22 30 22h107q15 0 19 -5t1 -17l-49 -254l57 29q14 8 19 -7l16 -38q6 -15 -9 -22l-100 -50l-32 -166h223
q11 0 15.5 -4t2.5 -13z" />
    <glyph glyph-name="lslash" unicode="&#x142;" horiz-adv-x="257" 
d="M131 -5q-66 0 -85.5 33.5t-4.5 112.5l15 81l-22 -12q-11 -5 -15 -3.5t-8 10.5l-14 36q-4 10 -2 14t13 10l66 34l72 372q4 22 30 22h99q24 0 20 -22l-55 -284l42 22q17 8 21 -7l17 -37q6 -15 -10 -22l-88 -46l-30 -156q-3 -17 2.5 -23.5t19.5 -8.5q13 0 18.5 -3.5
t5.5 -17.5l-9 -65q-2 -16 -14 -23q-29 -17 -84 -17z" />
    <glyph glyph-name="Nacute" unicode="&#x143;" horiz-adv-x="572" 
d="M357 24l-59 161q-15 42 -27 81t-17.5 60.5t-7.5 25.5h-1l-2 -1l-64 -330q-5 -21 -29 -21h-103q-25 0 -21 21l120 622q6 21 30 21h78q21 0 26.5 -4.5t9.5 -17.5l69 -194q36 -108 43 -141q2 0 3 1l65 334q4 22 30 22h103q26 0 20 -22l-120 -619q-4 -23 -27 -23h-79
q-31 0 -40 24zM545 789l-165 -80q-21 -11 -33 9l-27 40q-8 12 12 27l164 115q21 14 29 -7l34 -74q8 -20 -14 -30z" />
    <glyph glyph-name="nacute" unicode="&#x144;" horiz-adv-x="476" 
d="M246 472l-3 -17l4 -2q64 49 131 49q74 0 97 -42q12 -18 13 -46q4 -42 -9 -109l-55 -284q-4 -21 -29 -21h-102q-25 0 -20 21l54 277q13 63 -30 63q-25 0 -77 -23l-61 -317q-5 -21 -27 -21h-102q-26 0 -21 21l87 451q4 22 30 22h104q20 0 16 -22zM357 770l70 -34
q20 -10 3 -32l-118 -151q-13 -18 -26 -10l-44 28q-10 7 -3 25l90 165q9 16 28 9z" />
    <glyph glyph-name="Ncommaaccent" unicode="&#x145;" horiz-adv-x="572" 
d="M357 24l-59 161q-15 42 -27 81t-17.5 60.5t-7.5 25.5h-1l-2 -1l-64 -330q-5 -21 -29 -21h-103q-25 0 -21 21l120 622q6 21 30 21h78q21 0 26.5 -4.5t9.5 -17.5l69 -194q36 -108 43 -141q2 0 3 1l65 334q4 22 30 22h103q26 0 20 -22l-120 -619q-4 -23 -27 -23h-79
q-31 0 -40 24zM147 -242q42 39 42 83q0 13 -9 35q-8 15 -6 23t17 19l59 43q30 23 49 -8q19 -28 19 -74q0 -60 -34 -107t-90 -76q-26 -14 -37 2l-20 26q-7 9 -5.5 15.5t15.5 18.5z" />
    <glyph glyph-name="ncommaaccent" unicode="&#x146;" horiz-adv-x="476" 
d="M246 472l-3 -17l4 -2q64 49 131 49q74 0 97 -42q12 -18 13 -46q4 -42 -9 -109l-55 -284q-4 -21 -29 -21h-102q-25 0 -20 21l54 277q13 63 -30 63q-25 0 -77 -23l-61 -317q-5 -21 -27 -21h-102q-26 0 -21 21l87 451q4 22 30 22h104q20 0 16 -22zM99 -242q42 39 42 83
q0 13 -9 35q-8 15 -6 23t17 19l59 43q30 23 49 -8q19 -28 19 -74q0 -60 -34 -107t-90 -76q-26 -14 -37 2l-20 26q-7 9 -5.5 15.5t15.5 18.5z" />
    <glyph glyph-name="Ncaron" unicode="&#x147;" horiz-adv-x="572" 
d="M357 24l-59 161q-15 42 -27 81t-17.5 60.5t-7.5 25.5h-1l-2 -1l-64 -330q-5 -21 -29 -21h-103q-25 0 -21 21l120 622q6 21 30 21h78q21 0 26.5 -4.5t9.5 -17.5l69 -194q36 -108 43 -141q2 0 3 1l65 334q4 22 30 22h103q26 0 20 -22l-120 -619q-4 -23 -27 -23h-79
q-31 0 -40 24zM253 864l31 31q13 13 30 -1l93 -86l127 82q24 16 33 2l29 -31q10 -13 -5 -27l-130 -116q-17 -14 -43 -14h-55q-19 0 -28 10l-87 116q-12 17 5 34z" />
    <glyph glyph-name="ncaron" unicode="&#x148;" horiz-adv-x="476" 
d="M246 472l-3 -17l4 -2q64 49 131 49q74 0 97 -42q12 -18 13 -46q4 -42 -9 -109l-55 -284q-4 -21 -29 -21h-102q-25 0 -20 21l54 277q13 63 -30 63q-25 0 -77 -23l-61 -317q-5 -21 -27 -21h-102q-26 0 -21 21l87 451q4 22 30 22h104q20 0 16 -22zM162 718l38 32
q16 14 31 -1l86 -98l127 97q23 17 34 1l25 -33q10 -12 -5 -27l-131 -137q-15 -15 -42 -15h-59q-23 0 -27 10l-82 137q-12 19 5 34z" />
    <glyph glyph-name="napostrophe" unicode="&#x149;" horiz-adv-x="580" 
d="M346 472l-3 -17l4 -2q64 49 131 49q74 0 97 -42q12 -18 13 -46q4 -42 -9 -109l-55 -284q-4 -21 -29 -21h-102q-25 0 -20 21l54 277q13 63 -30 63q-25 0 -77 -23l-61 -317q-5 -21 -27 -21h-102q-26 0 -21 21l87 451q4 22 30 22h104q20 0 16 -22zM82 549q42 39 42 83
q0 12 -9 35q-8 15 -6 23t17 19l59 43q30 23 49 -8q19 -28 19 -74q0 -60 -34 -107t-90 -76q-26 -14 -37 2l-20 26q-7 9 -5.5 15.5t15.5 18.5z" />
    <glyph glyph-name="Eng" unicode="&#x14a;" horiz-adv-x="572" 
d="M354 31l-72 198q-17 46 -38 117h-1q-1 -1 -2 -1l-63 -324q-4 -21 -29 -21h-103q-13 0 -18.5 5.5t-3.5 15.5l121 622q5 21 30 21h78q21 0 26.5 -4.5t9.5 -17.5l66 -185l24 -74l24 -74q2 0 3 1l64 332q4 22 29 22h103q28 0 21 -22l-131 -674q-19 -95 -62 -140.5t-127 -45.5
q-47 0 -68 10q-16 7 -12 26l15 71q5 19 33 23q38 6 52 18t21 45q10 47 10 56z" />
    <glyph glyph-name="eng" unicode="&#x14b;" horiz-adv-x="475" 
d="M244 472l-3 -17l4 -1q63 48 131 48q72 0 96 -42q12 -18 13 -47q3 -42 -10 -108l-68 -348q-33 -175 -195 -175q-38 0 -59 9q-19 6 -13 27q16 65 17 70q6 20 32 23q36 2 51.5 16t21.5 47l63 324q6 35 -1.5 49.5t-29.5 14.5q-28 0 -76 -24l-61 -316q-4 -22 -28 -22h-101
q-26 0 -22 22l88 450q3 22 29 22h104q21 0 17 -22z" />
    <glyph glyph-name="Omacron" unicode="&#x14c;" horiz-adv-x="588" 
d="M390 672q115 0 162 -56q46 -55 46 -150q0 -35 -11 -115q-51 -360 -326 -360q-203 0 -203 205q0 55 16 147q60 329 316 329zM366 534q-49 0 -78 -47.5t-50 -156.5q-14 -76 -14 -114q0 -86 63 -86q52 0 82.5 46.5t51.5 153.5q14 78 14 117q0 46 -16 66.5t-53 20.5zM584 822
l-14 -72q-4 -22 -29 -22h-260q-25 0 -21 22l12 75q2 17 31 17h260q13 0 18 -4t3 -16z" />
    <glyph glyph-name="omacron" unicode="&#x14d;" 
d="M297 503q174 0 174 -162q0 -39 -9 -89q-42 -260 -259 -260q-170 0 -170 156q0 45 13 106q14 69 42 124q57 121 209 125zM275 372q-32 0 -51.5 -31.5t-30.5 -101.5q-7 -50 -7 -66q0 -50 39 -50q33 0 51.5 28.5t31.5 96.5q10 46 10 73q0 51 -43 51zM486 657l-14 -72
q-4 -22 -28 -22h-261q-26 0 -22 22l14 71q5 21 30 21h261q14 0 18 -4.5t2 -15.5z" />
    <glyph glyph-name="Obreve" unicode="&#x14e;" horiz-adv-x="588" 
d="M390 672q115 0 162 -56q46 -55 46 -150q0 -35 -11 -115q-51 -360 -326 -360q-203 0 -203 205q0 55 16 147q60 329 316 329zM366 534q-49 0 -78 -47.5t-50 -156.5q-14 -76 -14 -114q0 -86 63 -86q52 0 82.5 46.5t51.5 153.5q14 78 14 117q0 46 -16 66.5t-53 20.5zM412 704
q-53 0 -95 30t-54 82q-7 28 9 41l39 31q12 7 17.5 8t8.5 -1.5t9 -12.5q25 -42 43 -57t45 -15q46 0 107 69q13 13 21 14.5t21 -8.5l26 -23q10 -12 8.5 -19t-12.5 -22q-36 -54 -87.5 -85.5t-105.5 -31.5z" />
    <glyph glyph-name="obreve" unicode="&#x14f;" 
d="M297 503q174 0 174 -162q0 -39 -9 -89q-42 -260 -259 -260q-170 0 -170 156q0 45 13 106q14 69 42 124q57 121 209 125zM275 372q-32 0 -51.5 -31.5t-30.5 -101.5q-7 -50 -7 -66q0 -50 39 -50q33 0 51.5 28.5t31.5 96.5q10 46 10 73q0 51 -43 51zM307 545q-55 0 -98 31.5
t-55 85.5q-7 28 10 42l37 29q19 10 23.5 9t13.5 -15q25 -44 43 -60t44 -16q45 0 108 72q20 26 42 8l30 -23q10 -13 9 -19.5t-14 -24.5q-39 -57 -90 -88t-103 -31z" />
    <glyph glyph-name="Ohungarumlaut" unicode="&#x150;" horiz-adv-x="588" 
d="M390 672q115 0 162 -56q46 -55 46 -150q0 -35 -11 -115q-51 -360 -326 -360q-203 0 -203 205q0 55 16 147q60 329 316 329zM366 534q-49 0 -78 -47.5t-50 -156.5q-14 -76 -14 -114q0 -86 63 -86q52 0 82.5 46.5t51.5 153.5q14 78 14 117q0 46 -16 66.5t-53 20.5zM444 896
l43 -63q13 -19 -9 -31l-162 -94q-21 -12 -30 1l-30 43q-8 11 8 23l149 124q19 15 31 -3zM641 896l43 -63q13 -19 -9 -31l-162 -94q-21 -12 -30 1l-30 43q-8 11 8 23l149 124q19 15 31 -3z" />
    <glyph glyph-name="ohungarumlaut" unicode="&#x151;" 
d="M297 503q174 0 174 -162q0 -39 -9 -89q-42 -260 -259 -260q-170 0 -170 156q0 45 13 106q14 69 42 124q57 121 209 125zM275 372q-32 0 -51.5 -31.5t-30.5 -101.5q-7 -50 -7 -66q0 -50 39 -50q33 0 51.5 28.5t31.5 96.5q10 46 10 73q0 51 -43 51zM404 707l-118 -152
q-14 -21 -35 -9l-37 21q-14 8 -4 27l93 168q11 22 28 11l69 -36q17 -11 4 -30zM557 707l-118 -152q-15 -20 -35 -9l-37 21q-14 8 -4 27l93 168q11 22 28 11l69 -36q19 -10 4 -30z" />
    <glyph glyph-name="OE" unicode="&#x152;" horiz-adv-x="717" 
d="M274 130h21l75 401q-2 0 -6 0.5t-6 0.5q-46 0 -75.5 -48.5t-50.5 -153.5q-14 -75 -14 -115q0 -41 12.5 -61.5t43.5 -23.5zM656 0h-323q-36 -9 -79 -9q-201 0 -201 205q0 56 16 145q17 99 55 174q26 49 57 80q75 77 205 77q34 0 74 -8h294q23 0 19 -22l-18 -92
q-5 -20 -28 -20h-202l-23 -118h189q23 0 19 -19l-18 -92q-1 -2 -1.5 -5t-1 -4.5t-2 -4t-3 -3.5t-4 -2.5t-6.5 -2t-9 -0.5h-189l-28 -145h234q24 0 19 -21l-18 -92q-3 -21 -27 -21z" />
    <glyph glyph-name="oe" unicode="&#x153;" horiz-adv-x="720" 
d="M357 42h-5q-60 -50 -149 -50q-170 0 -170 156q0 38 12 106q45 247 251 247q95 0 132 -58l1 -1h1q52 61 148 61q68 0 111 -33.5t43 -94.5q0 -181 -275 -193q-2 -16 -2 -18q0 -28 12 -38.5t45 -10.5q43 0 133 10q20 3 20 -24v-41q0 -22 -14 -33q-47 -37 -171 -37
q-90 0 -123 52zM274 371q-32 0 -51 -32t-30 -101q-7 -38 -7 -65q0 -51 39 -51q33 0 51.5 28.5t31.5 96.5q9 45 9 74q0 50 -43 50zM584 351q0 15 -9.5 24.5t-26.5 9.5q-53 0 -75 -103q109 9 111 69z" />
    <glyph glyph-name="Racute" unicode="&#x154;" horiz-adv-x="513" 
d="M416 280l56 -255q2 -11 -4.5 -18t-19.5 -7h-102q-34 0 -38 22l-36 230h-49l-45 -230q-4 -22 -28 -22h-107q-14 0 -19 4.5t-3 16.5l121 621q4 22 29 22h208q75 0 121 -42.5t46 -121.5q0 -156 -130 -220zM331 530h-55q-20 -111 -28 -148h53q35 0 58.5 23t23.5 75
q0 50 -52 50zM479 789l-165 -80q-21 -11 -33 9l-27 40q-8 12 12 27l164 115q21 14 29 -7l34 -74q8 -20 -14 -30z" />
    <glyph glyph-name="racute" unicode="&#x155;" horiz-adv-x="352" 
d="M411 476l-8 -87q-2 -21 -9 -29t-28 -13q-85 -19 -142 -44l-54 -282q-4 -21 -28 -21h-100q-15 0 -19 4.5t-2 16.5l87 451q4 22 30 22h100q23 0 19 -22l-7 -38l2 -2q30 29 74 49q41 19 67 19q21 0 18 -24zM276 770l70 -34q20 -10 3 -32l-118 -151q-13 -18 -26 -10l-44 28
q-10 7 -3 25l90 165q9 16 28 9z" />
    <glyph glyph-name="Rcommaaccent" unicode="&#x156;" horiz-adv-x="513" 
d="M416 280l56 -255q2 -11 -4.5 -18t-19.5 -7h-102q-34 0 -38 22l-36 230h-49l-45 -230q-4 -22 -28 -22h-107q-14 0 -19 4.5t-3 16.5l121 621q4 22 29 22h208q75 0 121 -42.5t46 -121.5q0 -156 -130 -220zM331 530h-55q-20 -111 -28 -148h53q35 0 58.5 23t23.5 75
q0 50 -52 50zM117 -240q42 39 42 83q0 13 -9 35q-8 15 -6 23t17 19l59 43q30 23 49 -8q19 -28 19 -74q0 -60 -34 -107t-90 -76q-26 -14 -37 2l-20 26q-7 9 -5.5 15.5t15.5 18.5z" />
    <glyph glyph-name="rcommaaccent" unicode="&#x157;" horiz-adv-x="352" 
d="M411 476l-8 -87q-2 -21 -9 -29t-28 -13q-85 -19 -142 -44l-54 -282q-4 -21 -28 -21h-100q-15 0 -19 4.5t-2 16.5l87 451q4 22 30 22h100q23 0 19 -22l-7 -38l2 -2q30 29 74 49q41 19 67 19q21 0 18 -24zM-34 -246q42 39 42 83q0 13 -9 35q-8 15 -6 23t17 19l59 43
q30 23 49 -8q19 -28 19 -74q0 -60 -34 -107t-90 -76q-26 -14 -37 2l-20 26q-7 9 -5.5 15.5t15.5 18.5z" />
    <glyph glyph-name="Rcaron" unicode="&#x158;" horiz-adv-x="513" 
d="M416 280l56 -255q2 -11 -4.5 -18t-19.5 -7h-102q-34 0 -38 22l-36 230h-49l-45 -230q-4 -22 -28 -22h-107q-14 0 -19 4.5t-3 16.5l121 621q4 22 29 22h208q75 0 121 -42.5t46 -121.5q0 -156 -130 -220zM331 530h-55q-20 -111 -28 -148h53q35 0 58.5 23t23.5 75
q0 50 -52 50zM198 864l31 31q13 13 30 -1l93 -86l127 82q24 16 33 2l29 -31q10 -13 -5 -27l-130 -116q-17 -14 -43 -14h-55q-19 0 -28 10l-87 116q-12 17 5 34z" />
    <glyph glyph-name="rcaron" unicode="&#x159;" horiz-adv-x="352" 
d="M411 476l-8 -87q-2 -21 -9 -29t-28 -13q-85 -19 -142 -44l-54 -282q-4 -21 -28 -21h-100q-15 0 -19 4.5t-2 16.5l87 451q4 22 30 22h100q23 0 19 -22l-7 -38l2 -2q30 29 74 49q41 19 67 19q21 0 18 -24zM58 718l38 32q16 14 31 -1l86 -98l127 97q23 17 34 1l25 -33
q10 -12 -5 -27l-131 -137q-15 -15 -42 -15h-59q-23 0 -27 10l-82 137q-12 19 5 34z" />
    <glyph glyph-name="Sacute" unicode="&#x15a;" horiz-adv-x="497" 
d="M342 671q105 0 161 -29q36 -17 23 -43l-21 -59q-7 -18 -16 -22t-30 0q-73 14 -126 14q-79 0 -79 -70q0 -30 36 -46l23 -9l57 -18q58 -20 88 -55t30 -97q0 -67 -24 -116.5t-66 -77t-90.5 -40t-105.5 -12.5q-109 0 -170 31q-35 16 -22 43l21 59q6 19 17 23t32 -2
q89 -14 148 -14q93 0 93 78q0 24 -14.5 36.5t-50.5 22.5q-72 22 -115 52q-54 42 -54 119q0 121 70 176q71 56 185 56zM488 789l-165 -80q-21 -11 -33 9l-27 40q-7 12 12 27l164 115q21 14 29 -7l34 -74q8 -20 -14 -30z" />
    <glyph glyph-name="sacute" unicode="&#x15b;" horiz-adv-x="414" 
d="M267 503q81 0 141 -23q17 -7 22 -16.5t0 -26.5l-14 -49q-4 -15 -11.5 -18t-28.5 0q-80 11 -118 11q-43 0 -43 -37q0 -9 3.5 -14.5t7.5 -7t13 -4.5t14 -6q63 -19 82 -28q34 -15 49.5 -38t18.5 -63q1 -54 -19 -93t-54.5 -60t-73 -30t-83.5 -9q-84 0 -138 23
q-21 9 -25.5 19.5t2.5 28.5l14 48q5 15 13.5 18.5t27.5 -0.5q61 -13 121 -13t61 43q0 25 -38 34q-31 10 -38 11l-33 12q-25 10 -32 16q-51 41 -45 86q-2 98 57 142t147 44zM322 770l70 -34q20 -10 3 -32l-118 -151q-13 -18 -26 -10l-44 28q-10 7 -3 25l90 165q9 16 28 9z
" />
    <glyph glyph-name="Scircumflex" unicode="&#x15c;" horiz-adv-x="497" 
d="M342 671q105 0 161 -29q36 -17 23 -43l-21 -59q-7 -18 -16 -22t-30 0q-73 14 -126 14q-79 0 -79 -70q0 -30 36 -46l23 -9l57 -18q58 -20 88 -55t30 -97q0 -67 -24 -116.5t-66 -77t-90.5 -40t-105.5 -12.5q-109 0 -170 31q-35 16 -22 43l21 59q6 19 17 23t32 -2
q89 -14 148 -14q93 0 93 78q0 24 -14.5 36.5t-50.5 22.5q-72 22 -115 52q-54 42 -54 119q0 121 70 176q71 56 185 56zM200 700l-23 33q-11 18 8 34l132 116q10 10 32 10h55q18 0 24 -2.5t13 -11.5l85 -116q10 -13 -5 -27l-37 -33q-17 -13 -32 2l-96 82l-126 -86
q-21 -14 -30 -1z" />
    <glyph glyph-name="scircumflex" unicode="&#x15d;" horiz-adv-x="414" 
d="M267 503q81 0 141 -23q17 -7 22 -16.5t0 -26.5l-14 -49q-4 -15 -11.5 -18t-28.5 0q-80 11 -118 11q-43 0 -43 -37q0 -9 3.5 -14.5t7.5 -7t13 -4.5t14 -6q63 -19 82 -28q34 -15 49.5 -38t18.5 -63q1 -54 -19 -93t-54.5 -60t-73 -30t-83.5 -9q-84 0 -138 23
q-21 9 -25.5 19.5t2.5 28.5l14 48q5 15 13.5 18.5t27.5 -0.5q61 -13 121 -13t61 43q0 25 -38 34q-31 10 -38 11l-33 12q-25 10 -32 16q-51 41 -45 86q-2 98 57 142t147 44zM136 543l-30 30q-12 14 8 34l135 137q9 10 31 10h59q13 0 20 -2t9 -4t7 -9l79 -137q8 -14 -7 -27
l-33 -31q-16 -16 -34 1l-89 97l-124 -98q-17 -15 -31 -1z" />
    <glyph glyph-name="Scedilla" unicode="&#x15e;" horiz-adv-x="497" 
d="M151 -98q-22 1 -10 25l31 65q-95 8 -140 30q-35 16 -22 43l21 59q6 19 17 23t32 -2q89 -14 148 -14q93 0 93 78q0 24 -14.5 36.5t-50.5 22.5q-72 22 -115 52q-54 42 -54 119q0 121 70 176q71 56 185 56q105 0 161 -29q36 -17 23 -43l-21 -59q-7 -18 -16 -22t-30 0
q-73 14 -126 14q-79 0 -79 -70q0 -30 36 -46l23 -9l57 -18q58 -20 88 -55t30 -97q0 -61 -19.5 -108t-55 -74.5t-78 -42.5t-93.5 -19l-20 -40q40 -2 56.5 -17.5t16.5 -44.5q0 -55 -38.5 -89.5t-106.5 -34.5q-48 0 -75 11q-11 8 -7 17l10 32q5 12 21 8q26 -3 55 -3q52 0 52 45
q0 13 -10.5 17.5t-44.5 7.5z" />
    <glyph glyph-name="scedilla" unicode="&#x15f;" horiz-adv-x="414" 
d="M117 -98q-22 1 -10 25l32 66q-69 6 -104 21q-21 9 -25.5 19.5t2.5 28.5l14 48q5 15 13.5 18.5t27.5 -0.5q61 -13 121 -13t61 43q0 25 -38 34q-31 10 -38 11l-33 12q-25 10 -32 16q-51 41 -45 86q-2 98 57 142t147 44q81 0 141 -23q17 -7 22 -16.5t0 -26.5l-14 -49
q-4 -15 -11.5 -18t-28.5 0q-80 11 -118 11q-43 0 -43 -37q0 -9 3.5 -14.5t7.5 -7t13 -4.5t14 -6q63 -19 82 -28q34 -15 49.5 -38t18.5 -63q1 -94 -54 -139q-55 -44 -141 -51l-20 -40q40 -2 56.5 -17.5t16.5 -44.5q0 -55 -38.5 -89.5t-106.5 -34.5q-48 0 -75 11q-11 8 -7 17
l10 32q5 12 21 8q26 -3 55 -3q52 0 52 45q0 13 -10.5 17.5t-44.5 7.5z" />
    <glyph glyph-name="Scaron" unicode="&#x160;" horiz-adv-x="497" 
d="M342 671q105 0 161 -29q36 -17 23 -43l-21 -59q-7 -18 -16 -22t-30 0q-73 14 -126 14q-79 0 -79 -70q0 -30 36 -46l23 -9l57 -18q58 -20 88 -55t30 -97q0 -67 -24 -116.5t-66 -77t-90.5 -40t-105.5 -12.5q-109 0 -170 31q-35 16 -22 43l21 59q6 19 17 23t32 -2
q89 -14 148 -14q93 0 93 78q0 24 -14.5 36.5t-50.5 22.5q-72 22 -115 52q-54 42 -54 119q0 121 70 176q71 56 185 56zM209 864l31 31q13 13 30 -1l93 -86l127 82q24 16 33 2l29 -31q10 -13 -5 -27l-130 -116q-17 -14 -43 -14h-55q-19 0 -28 10l-87 116q-12 17 5 34z" />
    <glyph glyph-name="scaron" unicode="&#x161;" horiz-adv-x="414" 
d="M267 503q81 0 141 -23q17 -7 22 -16.5t0 -26.5l-14 -49q-4 -15 -11.5 -18t-28.5 0q-80 11 -118 11q-43 0 -43 -37q0 -9 3.5 -14.5t7.5 -7t13 -4.5t14 -6q63 -19 82 -28q34 -15 49.5 -38t18.5 -63q1 -54 -19 -93t-54.5 -60t-73 -30t-83.5 -9q-84 0 -138 23
q-21 9 -25.5 19.5t2.5 28.5l14 48q5 15 13.5 18.5t27.5 -0.5q61 -13 121 -13t61 43q0 25 -38 34q-31 10 -38 11l-33 12q-25 10 -32 16q-51 41 -45 86q-2 98 57 142t147 44zM138 718l38 32q16 14 31 -1l86 -98l127 97q23 17 34 1l25 -33q10 -12 -5 -27l-131 -137
q-15 -15 -42 -15h-59q-23 0 -27 10l-82 137q-12 19 5 34z" />
    <glyph glyph-name="Tcommaaccent" unicode="&#x162;" horiz-adv-x="457" 
d="M544 641l-17 -89q-6 -22 -32 -22h-115l-98 -508q-4 -22 -28 -22h-107q-15 0 -19.5 5t-2.5 17l98 508h-114q-28 0 -22 22l17 89q5 23 31 23h387q27 0 22 -23zM76 -246q42 39 42 83q0 13 -9 35q-8 15 -6 23t17 19l59 43q30 23 49 -8q19 -28 19 -74q0 -60 -34 -107t-90 -76
q-26 -14 -37 2l-20 26q-7 9 -5.5 15.5t15.5 18.5z" />
    <glyph glyph-name="tcommaaccent" unicode="&#x163;" horiz-adv-x="351" 
d="M337 116l-5 -68q-2 -21 -26 -32q-54 -24 -136 -24q-71 0 -96 35t-10 108l46 239h-32q-24 0 -18 22l14 76q4 22 27 22h34l19 98q4 17 30 25l94 28q15 4 23 -1t5 -19l-26 -131h82q26 0 18 -23l-14 -73q-1 -7 -1.5 -9t-2.5 -6.5t-4.5 -5.5t-7.5 -2t-12 -1h-82l-34 -174
q-8 -44 -2 -58t32 -14q21 0 58 5q18 3 22.5 0t4.5 -17zM25 -250q42 39 42 83q0 13 -9 35q-8 15 -6 23t17 19l59 43q30 23 49 -8q19 -28 19 -74q0 -60 -34 -107t-90 -76q-26 -14 -37 2l-20 26q-7 9 -5.5 15.5t15.5 18.5z" />
    <glyph glyph-name="Tcaron" unicode="&#x164;" horiz-adv-x="457" 
d="M549 641l-17 -89q-6 -22 -32 -22h-115l-98 -508q-4 -22 -28 -22h-107q-15 0 -19.5 5t-2.5 17l98 508h-114q-28 0 -22 22l17 89q5 23 31 23h387q27 0 22 -23zM203 864l31 31q13 13 30 -1l93 -86l127 82q24 16 33 2l29 -31q10 -13 -5 -27l-130 -116q-17 -14 -43 -14h-55
q-19 0 -28 10l-87 116q-12 17 5 34z" />
    <glyph glyph-name="tcaron" unicode="&#x165;" horiz-adv-x="447" 
d="M346 116l-5 -68q-2 -21 -26 -32q-54 -24 -136 -24q-71 0 -96 35t-10 108l46 239h-32q-24 0 -18 22l14 76q4 22 27 22h34l19 98q4 17 30 25l94 28q15 4 23 -1t5 -19l-26 -131h82q26 0 18 -23l-14 -73q-1 -7 -1.5 -9t-2.5 -6.5t-4.5 -5.5t-7.5 -2t-12 -1h-82l-34 -174
q-8 -44 -2 -58t32 -14q21 0 58 5q18 3 22.5 0t4.5 -17zM366 597q42 39 42 83q0 12 -9 35q-8 15 -6 23t17 19l59 43q30 23 49 -8q19 -28 19 -74q0 -60 -34 -107t-90 -76q-26 -14 -37 2l-20 26q-7 9 -5.5 15.5t15.5 18.5z" />
    <glyph glyph-name="Tbar" unicode="&#x166;" horiz-adv-x="447" 
d="M524 641l-17 -89q-4 -22 -32 -22h-115l-27 -139h90q17 0 14 -17l-8 -43q-3 -16 -17 -16h-94l-56 -293q-4 -22 -28 -22h-107q-15 0 -19.5 5t-2.5 17l56 293h-83q-10 0 -12.5 3t-0.5 14l7 42q2 17 19 17h85l27 139h-114q-16 0 -20.5 5t-1.5 17l17 89q5 23 31 23h387
q27 0 22 -23z" />
    <glyph glyph-name="tbar" unicode="&#x167;" horiz-adv-x="343" 
d="M317 116l-5 -68q-2 -21 -26 -32q-54 -24 -136 -24q-71 0 -96 35t-10 108l18 96h-27q-10 0 -12.5 3t-0.5 14l7 42q2 17 19 17h29l13 67h-32q-24 0 -18 22l14 76q4 22 27 22h34l19 98q4 17 30 25l94 28q16 4 23.5 -1t4.5 -19l-26 -131h82q26 0 18 -23l-14 -73
q-1 -7 -1.5 -9t-2.5 -6.5t-4.5 -5.5t-7.5 -2t-12 -1h-82l-13 -67h81q17 0 14 -17l-8 -43q-3 -16 -17 -16h-85l-6 -31q-8 -44 -2 -58t32 -14q21 0 58 5q18 3 22.5 0t4.5 -17z" />
    <glyph glyph-name="Utilde" unicode="&#x168;" horiz-adv-x="560" 
d="M295 130q79 0 101 115l76 397q4 22 31 22h105q16 0 20 -5.5t1 -16.5l-78 -398q-22 -120 -91.5 -186.5t-184.5 -66.5q-117 0 -164 72q-47 74 -26 190l77 389q4 22 31 22h105q25 0 21 -22l-77 -397q-12 -60 1 -87.5t52 -27.5zM480 717q-25 0 -70 22t-59 22q-26 0 -52 -35
q-12 -17 -24 -9l-44 29q-10 7 -2 23q56 104 138 104q33 0 70 -22q38 -22 51 -22q19 0 49 34q15 20 31 8l40 -30q12 -9 4 -24q-55 -100 -132 -100z" />
    <glyph glyph-name="utilde" unicode="&#x169;" 
d="M265 22l4 22l-4 2q-65 -54 -133 -54q-79 0 -98 44q-12 34 -9 65q3 35 12 78l56 293q4 22 30 22h100q14 0 18.5 -5t2.5 -17l-51 -263q-8 -48 -2 -61q16 -30 101 11l61 314q1 21 30 21h99q14 0 18 -5t2 -17l-88 -450q-3 -22 -27 -22h-102q-24 0 -20 22zM384 564
q-25 0 -70 22t-59 22q-26 0 -52 -35q-12 -17 -24 -9l-44 29q-10 7 -2 23q56 104 138 104q33 0 70 -22q38 -22 51 -22q19 0 49 34q15 20 31 8l40 -30q12 -9 4 -24q-55 -100 -132 -100z" />
    <glyph glyph-name="Umacron" unicode="&#x16a;" horiz-adv-x="560" 
d="M295 130q79 0 101 115l76 397q4 22 31 22h105q16 0 20 -5.5t1 -16.5l-78 -398q-22 -120 -91.5 -186.5t-184.5 -66.5q-117 0 -164 72q-47 74 -26 190l77 389q4 22 31 22h105q25 0 21 -22l-77 -397q-12 -60 1 -87.5t52 -27.5zM587 822l-14 -72q-4 -22 -29 -22h-260
q-25 0 -21 22l12 75q2 17 31 17h260q13 0 18 -4t3 -16z" />
    <glyph glyph-name="umacron" unicode="&#x16b;" 
d="M265 22l4 22l-4 2q-65 -54 -133 -54q-79 0 -98 44q-12 34 -9 65q3 35 12 78l56 293q4 22 30 22h100q14 0 18.5 -5t2.5 -17l-51 -263q-8 -48 -2 -61q16 -30 101 11l61 314q1 21 30 21h99q14 0 18 -5t2 -17l-88 -450q-3 -22 -27 -22h-102q-24 0 -20 22zM488 657l-14 -72
q-4 -22 -28 -22h-261q-26 0 -22 22l14 71q5 21 30 21h261q14 0 18 -4.5t2 -15.5z" />
    <glyph glyph-name="Ubreve" unicode="&#x16c;" horiz-adv-x="560" 
d="M295 130q79 0 101 115l76 397q4 22 31 22h105q16 0 20 -5.5t1 -16.5l-78 -398q-22 -120 -91.5 -186.5t-184.5 -66.5q-117 0 -164 72q-47 74 -26 190l77 389q4 22 31 22h105q25 0 21 -22l-77 -397q-12 -60 1 -87.5t52 -27.5zM406 696q-55 0 -98 31.5t-55 85.5q-7 28 10 42
l37 29q19 10 23.5 9t13.5 -15q25 -44 43 -60t44 -16q45 0 108 72q20 26 42 8l30 -23q10 -13 9 -19.5t-14 -24.5q-39 -57 -90 -88t-103 -31z" />
    <glyph glyph-name="ubreve" unicode="&#x16d;" 
d="M265 22l4 22l-4 2q-65 -54 -133 -54q-79 0 -98 44q-12 34 -9 65q3 35 12 78l56 293q4 22 30 22h100q14 0 18.5 -5t2.5 -17l-51 -263q-8 -48 -2 -61q16 -30 101 11l61 314q1 21 30 21h99q14 0 18 -5t2 -17l-88 -450q-3 -22 -27 -22h-102q-24 0 -20 22zM305 545
q-55 0 -98 31.5t-55 85.5q-7 28 10 42l37 29q19 10 23.5 9t13.5 -15q25 -44 43 -60t44 -16q45 0 108 72q20 26 42 8l30 -23q10 -13 9 -19.5t-14 -24.5q-39 -57 -90 -88t-103 -31z" />
    <glyph glyph-name="Uring" unicode="&#x16e;" horiz-adv-x="560" 
d="M295 130q79 0 101 115l76 397q4 22 31 22h105q16 0 20 -5.5t1 -16.5l-78 -398q-22 -120 -91.5 -186.5t-184.5 -66.5q-117 0 -164 72q-47 74 -26 190l77 389q4 22 31 22h105q25 0 21 -22l-77 -397q-12 -60 1 -87.5t52 -27.5zM400 685q-44 0 -72.5 26t-28.5 68q0 60 42 99
q43 40 99 40q42 0 70 -28t28 -70q0 -54 -41 -95q-40 -40 -97 -40zM430 847q-21 0 -37 -16.5t-16 -40.5q0 -35 35 -35q19 0 35.5 17t16.5 38q0 15 -9.5 26t-24.5 11z" />
    <glyph glyph-name="uring" unicode="&#x16f;" 
d="M265 22l4 22l-4 2q-65 -54 -133 -54q-79 0 -98 44q-12 34 -9 65q3 35 12 78l56 293q4 22 30 22h100q14 0 18.5 -5t2.5 -17l-51 -263q-8 -48 -2 -61q16 -30 101 11l61 314q1 21 30 21h99q14 0 18 -5t2 -17l-88 -450q-3 -22 -27 -22h-102q-24 0 -20 22zM313 542
q-44 0 -72.5 26t-28.5 68q0 60 42 99q43 40 99 40q42 0 70 -28t28 -70q0 -54 -41 -95q-40 -40 -97 -40zM343 704q-21 0 -37 -16.5t-16 -40.5q0 -35 35 -35q19 0 35.5 16t16.5 39q0 15 -9.5 26t-24.5 11z" />
    <glyph glyph-name="Uhungarumlaut" unicode="&#x170;" horiz-adv-x="560" 
d="M295 130q79 0 101 115l76 397q4 22 31 22h105q16 0 20 -5.5t1 -16.5l-78 -398q-22 -120 -91.5 -186.5t-184.5 -66.5q-117 0 -164 72q-47 74 -26 190l77 389q4 22 31 22h105q25 0 21 -22l-77 -397q-12 -60 1 -87.5t52 -27.5zM434 900l43 -63q13 -19 -9 -31l-162 -94
q-21 -12 -30 1l-30 43q-8 11 8 23l149 124q19 15 31 -3zM631 900l43 -63q13 -19 -9 -31l-162 -94q-21 -12 -30 1l-30 43q-8 11 8 23l149 124q19 15 31 -3z" />
    <glyph glyph-name="uhungarumlaut" unicode="&#x171;" 
d="M265 22l4 22l-4 2q-65 -54 -133 -54q-79 0 -98 44q-12 34 -9 65q3 35 12 78l56 293q4 22 30 22h100q14 0 18.5 -5t2.5 -17l-51 -263q-8 -48 -2 -61q16 -30 101 11l61 314q1 21 30 21h99q14 0 18 -5t2 -17l-88 -450q-3 -22 -27 -22h-102q-24 0 -20 22zM378 707l-118 -152
q-14 -21 -35 -9l-37 21q-14 8 -4 27l93 168q11 22 28 11l69 -36q17 -11 4 -30zM531 707l-118 -152q-15 -20 -35 -9l-37 21q-14 8 -4 27l93 168q11 22 28 11l69 -36q19 -10 4 -30z" />
    <glyph glyph-name="Uogonek" unicode="&#x172;" horiz-adv-x="560" 
d="M339 -118q23 8 23 -7l4 -38q0 -13 -18 -22q-43 -22 -89 -22q-53 -1 -77.5 20.5t-22.5 62.5q1 58 55 121q-83 17 -116.5 85t-15.5 171l77 389q4 22 31 22h105q25 0 21 -22l-77 -397q-12 -60 1 -87.5t52 -27.5q79 0 101 115l76 397q4 22 31 22h105q16 0 20 -5.5t1 -16.5
l-78 -398q-47 -236 -247 -251q-39 -57 -40 -90q-2 -22 17.5 -27.5t60.5 6.5z" />
    <glyph glyph-name="uogonek" unicode="&#x173;" 
d="M369 -125q23 8 23 -7l4 -38q0 -13 -18 -22q-43 -22 -89 -22q-53 -1 -77.5 20.5t-22.5 62.5q5 71 75 141q-1 3 1 12l4 22l-4 2q-65 -54 -133 -54q-79 0 -98 44q-12 34 -9 65q3 35 12 78l56 293q4 22 30 22h100q14 0 18.5 -5t2.5 -17l-51 -263q-8 -48 -2 -61q16 -30 101 11
l61 314q1 21 30 21h99q14 0 18 -5t2 -17l-88 -450q-3 -22 -27 -22h-45q-50 -62 -51 -104q-2 -22 17.5 -27.5t60.5 6.5z" />
    <glyph glyph-name="Wcircumflex" unicode="&#x174;" horiz-adv-x="761" 
d="M403 247h-4l-52 -121l-43 -97q-11 -29 -47 -29h-88q-37 0 -37 29l-30 608q0 28 22 28h113q17 0 24 -6t7 -21l5 -225q2 -33 0 -92q-1 -39 -1 -76h5l49 125l49 117l-10 153q-1 25 18 25h105q17 0 24 -6t8 -21l7 -211q1 -19 -1 -183h5q29 94 68 192l80 202q11 27 42 27h108
q24 0 13 -26l-258 -610q-12 -29 -48 -29h-91q-32 0 -34 29l-4 92q-4 57 -4 126zM334 700l-23 33q-11 18 8 34l132 116q10 10 32 10h55q18 0 24 -2.5t13 -11.5l85 -116q10 -13 -5 -27l-37 -33q-16 -13 -32 2l-96 82l-126 -86q-21 -14 -30 -1z" />
    <glyph glyph-name="wcircumflex" unicode="&#x175;" horiz-adv-x="649" 
d="M340 197h-4l-18 -43l-21 -51l-36 -76q-13 -27 -38 -27h-80q-15 0 -23 6t-10 13t-3 21l-37 428q-2 11 5.5 18.5t20.5 7.5h99q16 0 21 -4.5t6 -19.5l4 -137q5 -101 3 -139h4q30 72 51 118l26 57l-11 99q-2 26 26 26h90q15 0 20 -4.5t6 -19.5l5 -137q3 -103 1 -134h5
q17 49 52 137l54 137q6 12 13 16.5t23 4.5h95q28 0 18 -25l-198 -428q-10 -24 -19.5 -32.5t-27.5 -8.5h-80q-24 3 -29.5 11t-5.5 27l-3 61q-5 79 -4 98zM267 543l-30 30q-12 14 8 34l135 137q9 10 31 10h59q13 0 20 -2t9 -4t7 -9l79 -137q8 -14 -7 -27l-33 -31
q-16 -16 -34 1l-89 97l-124 -98q-17 -15 -31 -1z" />
    <glyph glyph-name="Ycircumflex" unicode="&#x176;" horiz-adv-x="550" 
d="M306 435l8 -54h6q22 49 69 126l77 129q10 16 20 22t30 6h109q12 0 16 -6t-2 -16l-269 -400h1l-43 -221q-4 -21 -29 -21h-106q-15 0 -19.5 4.5t-2.5 16.5l43 221l-106 397q-5 9 3 17t20 8h103q21 0 27.5 -6t10.5 -27l24 -129q7 -39 10 -67zM229 700l-23 33q-11 18 8 34
l132 116q10 10 32 10h55q18 0 24 -2.5t13 -11.5l85 -116q10 -13 -5 -27l-37 -33q-17 -13 -32 2l-96 82l-126 -86q-21 -14 -30 -1z" />
    <glyph glyph-name="ycircumflex" unicode="&#x177;" horiz-adv-x="458" 
d="M234 197h4l53 121l71 155q10 21 36 21h100q28 0 13 -26l-328 -641q-8 -15 -15.5 -19t-25.5 -4h-86q-30 0 -17 25l95 184l-58 456q-3 25 25 25h95q15 0 20.5 -4.5t6.5 -17.5l9 -162q4 -64 2 -113zM164 543l-30 30q-12 14 8 34l135 137q9 10 31 10h59q13 0 20 -2t9 -4t7 -9
l79 -137q8 -14 -7 -27l-33 -31q-16 -16 -34 1l-89 97l-124 -98q-17 -15 -31 -1z" />
    <glyph glyph-name="Ydieresis" unicode="&#x178;" horiz-adv-x="550" 
d="M306 435l8 -54h6q22 49 69 126l77 129q10 16 20 22t30 6h109q12 0 16 -6t-2 -16l-269 -400h1l-43 -221q-4 -21 -29 -21h-106q-15 0 -19.5 4.5t-2.5 16.5l43 221l-106 397q-5 9 3 17t20 8h103q21 0 27.5 -6t10.5 -27l24 -129q7 -39 10 -67zM315 860q61 0 61 -44
q0 -96 -88 -96q-60 0 -60 44q0 96 87 96zM504 860q33 0 47 -10.5t14 -32.5q0 -97 -88 -97q-59 0 -59 44q0 96 86 96z" />
    <glyph glyph-name="Zacute" unicode="&#x179;" horiz-adv-x="471" 
d="M441 113l-17 -92q-2 -12 -7.5 -16.5t-21.5 -4.5h-371q-26 0 -21 21l10 56l6 26q7 26 30 54l299 373h-199q-16 0 -20 6t-1 19l16 87q3 22 30 22h348q26 0 21 -21l-14 -72q-4 -24 -34 -63l-298 -374h223q11 0 16.5 -3t5.5 -7.5t-1 -10.5zM486 789l-165 -80q-21 -11 -33 9
l-27 40q-7 12 12 27l164 115q21 14 29 -7l34 -74q8 -20 -14 -30z" />
    <glyph glyph-name="zacute" unicode="&#x17a;" horiz-adv-x="402" 
d="M-11 20l8 46q7 37 34 67l220 238h-156q-14 0 -18 5.5t-2 17.5l15 78q4 22 29 22h301q15 0 19.5 -4.5t2.5 -16.5l-7 -39q0 -4 -4 -16q0 -11 -4 -16q-17 -34 -28 -45l-214 -235h170q14 0 18 -5t2 -17l-15 -79q-4 -21 -27 -21h-323q-15 0 -19 4t-2 16zM339 770l70 -34
q20 -10 3 -32l-118 -151q-13 -18 -26 -10l-44 28q-10 7 -3 25l90 165q9 16 28 9z" />
    <glyph glyph-name="Zdotaccent" unicode="&#x17b;" horiz-adv-x="471" 
d="M441 113l-17 -92q-2 -12 -7.5 -16.5t-21.5 -4.5h-371q-26 0 -21 21l10 56l6 26q7 26 30 54l299 373h-199q-16 0 -20 6t-1 19l16 87q3 22 30 22h348q26 0 21 -21l-14 -72q-4 -24 -34 -63l-298 -374h223q11 0 16.5 -3t5.5 -7.5t-1 -10.5zM390 873q63 0 63 -48
q0 -45 -22.5 -73.5t-70.5 -28.5q-64 0 -64 52q0 44 24 71t70 27z" />
    <glyph glyph-name="zdotaccent" unicode="&#x17c;" horiz-adv-x="402" 
d="M-11 20l8 46q7 37 34 67l220 238h-156q-14 0 -18 5.5t-2 17.5l15 78q4 22 29 22h301q15 0 19.5 -4.5t2.5 -16.5l-7 -39q0 -4 -4 -16q0 -11 -4 -16q-17 -34 -28 -45l-214 -235h170q14 0 18 -5t2 -17l-15 -79q-4 -21 -27 -21h-323q-15 0 -19 4t-2 16zM316 710q63 0 63 -48
q0 -45 -22.5 -73.5t-70.5 -28.5q-64 0 -64 52q0 44 24 71t70 27z" />
    <glyph glyph-name="Zcaron" unicode="&#x17d;" horiz-adv-x="471" 
d="M441 113l-17 -92q-2 -12 -7.5 -16.5t-21.5 -4.5h-371q-26 0 -21 21l10 56l6 26q7 26 30 54l299 373h-199q-16 0 -20 6t-1 19l16 87q3 22 30 22h348q26 0 21 -21l-14 -72q-4 -24 -34 -63l-298 -374h223q11 0 16.5 -3t5.5 -7.5t-1 -10.5zM223 864l31 31q13 13 30 -1l93 -86
l127 82q24 16 33 2l29 -31q10 -13 -5 -27l-130 -116q-17 -14 -43 -14h-55q-19 0 -28 10l-87 116q-12 17 5 34z" />
    <glyph glyph-name="zcaron" unicode="&#x17e;" horiz-adv-x="402" 
d="M-11 20l8 46q7 37 34 67l220 238h-156q-14 0 -18 5.5t-2 17.5l15 78q4 22 29 22h301q15 0 19.5 -4.5t2.5 -16.5l-7 -39q0 -4 -4 -16q0 -11 -4 -16q-17 -34 -28 -45l-214 -235h170q14 0 18 -5t2 -17l-15 -79q-4 -21 -27 -21h-323q-15 0 -19 4t-2 16zM136 718l38 32
q16 14 31 -1l86 -98l127 97q23 17 34 1l25 -33q10 -12 -5 -27l-131 -137q-15 -15 -42 -15h-59q-23 0 -27 10l-82 137q-12 19 5 34z" />
    <glyph glyph-name="florin" unicode="&#x192;" horiz-adv-x="521" 
d="M22 -55l17 61q4 15 10 18t25 1q23 -4 45 -4q23 0 35 21.5t27 81.5l42 185h-44q-17 0 -22 4t-4 16l9 67q1 14 6 18t22 4h56l23 98q16 62 49 110q40 57 125 57q55 0 110 -21q13 -8 8 -19l-21 -70q-6 -20 -37 -13q-6 1 -11.5 2t-9.5 1.5t-7 1t-4.5 0.5h-2.5q-26 0 -39 -18
t-23 -63l-16 -66h60q18 0 23 -3.5t3 -15.5l-7 -70q-1 -14 -6 -17t-25 -3h-69l-61 -262q-16 -64 -59.5 -105.5t-109.5 -41.5q-67 0 -105 18q-16 9 -12 27z" />
    <glyph glyph-name="Ohorn" unicode="&#x1a0;" horiz-adv-x="596" 
d="M369 672q101 0 154 -48h12q28 0 42.5 21t24.5 75l8 40q2 14 24 14h72q11 0 14.5 -3t2.5 -11l-15 -77q-27 -143 -136 -159q5 -35 5 -58q0 -35 -11 -115q-51 -360 -326 -360q-203 0 -203 205q0 55 16 147q60 329 316 329zM345 534q-49 0 -78 -47.5t-50 -156.5
q-14 -76 -14 -114q0 -86 63 -86q52 0 82.5 46.5t51.5 153.5q14 78 14 117q0 46 -16 66.5t-53 20.5z" />
    <glyph glyph-name="ohorn" unicode="&#x1a1;" horiz-adv-x="503" 
d="M276 503q86 0 129 -39q27 1 41 21.5t24 74.5l8 40q2 14 24 14h71q12 0 16 -3t2 -11l-15 -77q-26 -137 -127 -158q0 -3 0.5 -12t0.5 -12q0 -39 -9 -89q-42 -260 -259 -260q-170 0 -170 156q0 45 13 106q14 69 42 124q57 121 209 125zM254 372q-32 0 -51.5 -31.5
t-30.5 -101.5q-7 -50 -7 -66q0 -50 39 -50q33 0 51.5 28.5t31.5 96.5q10 46 10 73q0 51 -43 51z" />
    <glyph glyph-name="Uhorn" unicode="&#x1af;" horiz-adv-x="629" 
d="M274 130q79 0 101 115l76 397q4 22 31 22h105q16 0 20 -5.5t1 -16.5l-3 -15q30 0 42 16q12 15 23 69l10 49q3 15 25 15h71q12 0 15.5 -3t2.5 -12l-16 -78q-32 -161 -163 -161h-31l-54 -278q-22 -120 -91.5 -186.5t-184.5 -66.5q-118 0 -164 72q-47 74 -26 190l77 389
q4 22 31 22h105q25 0 21 -22l-77 -397q-12 -60 1 -87.5t52 -27.5z" />
    <glyph glyph-name="uhorn" unicode="&#x1b0;" horiz-adv-x="566" 
d="M244 22l4 22l-4 2q-64 -54 -133 -54q-79 0 -98 44q-12 34 -9 65q3 35 12 78l56 293q4 22 30 22h100q14 0 18.5 -5t2.5 -17l-51 -263q-8 -48 -2 -61q16 -30 101 11l61 314q2 21 30 21h99q14 0 18 -5t2 -17l-2 -8h3q28 0 42.5 20.5t24.5 75.5l8 40q2 14 24 14h72
q10 0 14.5 -3t3.5 -11l-15 -77q-15 -77 -56 -119t-107 -42h-34l-66 -340q-3 -22 -27 -22h-102q-24 0 -20 22z" />
    <glyph glyph-name="AEacute" unicode="&#x1fc;" horiz-adv-x="793" 
d="M779 117l-19 -96q-1 -7 -2.5 -11t-7.5 -7t-17 -3h-356q-25 0 -20 23l24 126h-146l-78 -126q-14 -23 -47 -23h-109q-24 0 -11 25l378 614q9 15 19.5 20t34.5 5h420q11 0 16 -4.5t4 -11.5l-18 -98q-3 -20 -29 -20h-202l-23 -118h184q10 0 15 -3t4 -9l-18 -99
q-1 -8 -2.5 -11.5t-7.5 -7t-16 -3.5h-184l-29 -145h223q11 0 16 -4.5t4 -12.5zM404 272l50 255h-4l-146 -255h100zM757 789l-165 -80q-21 -11 -33 9l-27 40q-8 12 12 27l164 115q21 14 29 -7l34 -74q8 -20 -14 -30z" />
    <glyph glyph-name="aeacute" unicode="&#x1fd;" horiz-adv-x="688" 
d="M285 503q90 0 121 -40q46 34 124 37q76 0 122.5 -33.5t46.5 -99.5q0 -99 -77 -139q-65 -34 -155 -40l-37 -2q-4 -15 -4 -31q0 -25 13 -32.5t48 -7.5q28 0 69 4q52 5 62 5q20 0 20 -23v-41q0 -20 -6 -29t-26 -17q-54 -24 -155 -24q-109 0 -147 69q-86 -67 -188 -67
q-61 0 -85 29.5t-24 91.5q3 93 57.5 140.5t147.5 47.5q68 0 87 -1l3 15q0 1 2 11.5t2 12.5q0 39 -63 39q-45 0 -113 -9q-14 -3 -21 -3q-15 0 -15 20v52q0 31 62 48q65 17 129 17zM220 206q-67 0 -67 -67q0 -21 13.5 -28t41.5 0.5t69 28.5q1 37 5 64q-30 2 -62 2zM553 349
q0 32 -39 32q-28 1 -46.5 -25.5t-24.5 -68.5q49 0 79.5 15.5t30.5 46.5zM481 770l70 -34q20 -10 3 -32l-118 -151q-13 -18 -26 -10l-44 28q-10 7 -3 25l90 165q9 16 28 9z" />
    <glyph glyph-name="Oslashacute" unicode="&#x1fe;" horiz-adv-x="588" 
d="M399 672q99 0 150 -45l27 32q15 18 28 8l13 -10q8 -7 7.5 -11t-9.5 -14l-35 -43q27 -47 27 -123q0 -35 -11 -115q-51 -360 -326 -360q-95 0 -145 43l-25 -31q-15 -18 -29 -7l-16 11q-8 7 2 22l36 44q-26 49 -26 123q0 55 16 147q60 329 316 329zM570 789l-165 -80
q-21 -11 -33 9l-27 40q-7 12 12 27l164 115q21 14 29 -7l34 -74q8 -20 -14 -30zM430 330q12 72 13 92l-205 -251q14 -41 58 -41q52 0 82.5 46.5t51.5 153.5zM247 330q-10 -44 -13 -86l204 248q-14 42 -63 42t-78 -47.5t-50 -156.5z" />
    <glyph glyph-name="oslashacute" unicode="&#x1ff;" 
d="M297 503q77 0 118 -31l20 24q9 9 11 10t11 -4l11 -9q10 -7 -2 -23l-22 -27q27 -37 27 -102q0 -39 -9 -89q-42 -260 -259 -260q-71 0 -111 25l-15 -18q-11 -15 -22 -7l-13 10q-10 8 0 19l20 24q-29 38 -29 103q0 45 13 106q14 69 42 124q57 121 209 125zM380 770l70 -34
q20 -10 3 -32l-118 -151q-13 -18 -26 -10l-44 28q-10 7 -3 25l90 165q9 16 28 9zM275 372q-32 0 -51.5 -31.5t-30.5 -101.5l-6 -43l126 153q-9 23 -38 23zM308 248q4 21 7 39l-123 -149q9 -15 33 -15q33 0 51.5 28.5t31.5 96.5z" />
    <glyph glyph-name="Scommaaccent" unicode="&#x218;" horiz-adv-x="497" 
d="M342 671q105 0 161 -29q36 -17 23 -43l-21 -59q-7 -18 -16 -22t-30 0q-73 14 -126 14q-79 0 -79 -70q0 -30 36 -46l23 -9l57 -18q58 -20 88 -55t30 -97q0 -67 -24 -116.5t-66 -77t-90.5 -40t-105.5 -12.5q-109 0 -170 31q-35 16 -22 43l21 59q6 19 17 23t32 -2
q89 -14 148 -14q93 0 93 78q0 24 -14.5 36.5t-50.5 22.5q-72 22 -115 52q-54 42 -54 119q0 121 70 176q71 56 185 56zM94 -246q42 39 42 83q0 13 -9 35q-8 15 -6 23t17 19l59 43q30 23 49 -8q19 -28 19 -74q0 -60 -34 -107t-90 -76q-26 -14 -37 2l-20 26q-7 9 -5.5 15.5
t15.5 18.5z" />
    <glyph glyph-name="scommaaccent" unicode="&#x219;" horiz-adv-x="414" 
d="M267 503q81 0 141 -23q17 -7 22 -16.5t0 -26.5l-14 -49q-4 -15 -11.5 -18t-28.5 0q-80 11 -118 11q-43 0 -43 -37q0 -9 3.5 -14.5t7.5 -7t13 -4.5t14 -6q63 -19 82 -28q34 -15 49.5 -38t18.5 -63q1 -54 -19 -93t-54.5 -60t-73 -30t-83.5 -9q-84 0 -138 23
q-21 9 -25.5 19.5t2.5 28.5l14 48q5 15 13.5 18.5t27.5 -0.5q61 -13 121 -13t61 43q0 25 -38 34q-31 10 -38 11l-33 12q-25 10 -32 16q-51 41 -45 86q-2 98 57 142t147 44zM53 -246q42 39 42 83q0 13 -9 35q-8 15 -6 23t17 19l59 43q30 23 49 -8q19 -28 19 -74
q0 -60 -34 -107t-90 -76q-26 -14 -37 2l-20 26q-7 9 -5.5 15.5t15.5 18.5z" />
    <glyph glyph-name="uni021A" unicode="&#x21a;" horiz-adv-x="457" 
d="M544 641l-17 -89q-6 -22 -32 -22h-115l-98 -508q-4 -22 -28 -22h-107q-15 0 -19.5 5t-2.5 17l98 508h-114q-28 0 -22 22l17 89q5 23 31 23h387q27 0 22 -23zM75 -243q42 39 42 83q0 12 -9 35q-8 15 -6 23t17 19l59 43q30 23 49 -8q19 -28 19 -74q0 -60 -34 -107t-90 -76
q-26 -14 -37 2l-20 26q-7 9 -5.5 15.5t15.5 18.5z" />
    <glyph glyph-name="uni021B" unicode="&#x21b;" horiz-adv-x="351" 
d="M338 116l-5 -68q-2 -21 -26 -32q-54 -24 -136 -24q-71 0 -96 35t-10 108l46 239h-32q-24 0 -18 22l14 76q4 22 27 22h34l19 98q4 17 30 25l94 28q15 4 23 -1t5 -19l-26 -131h82q26 0 18 -23l-14 -73q-1 -7 -1.5 -9t-2.5 -6.5t-4.5 -5.5t-7.5 -2t-12 -1h-82l-34 -174
q-8 -44 -2 -58t32 -14q21 0 58 5q18 3 22.5 0t4.5 -17zM17 -246q42 39 42 83q0 13 -9 35q-8 15 -6 23t17 19l59 43q30 23 49 -8q19 -28 19 -74q0 -60 -34 -107t-90 -76q-26 -14 -37 2l-20 26q-7 9 -5.5 15.5t15.5 18.5z" />
    <glyph glyph-name="schwa" unicode="&#x259;" horiz-adv-x="435" 
d="M11 118q0 181 274 193q2 10 2 21q0 26 -12 36t-44 10q-47 0 -133 -10q-21 -3 -21 21q0 5 0.5 22t0.5 22q0 28 22 40q52 30 168 30q165 0 165 -165q0 -35 -6 -74q-14 -102 -68 -180q-29 -41 -80 -67.5t-114 -26.5q-68 0 -111 33.5t-43 94.5zM159 142q0 -34 35 -34
q26 0 41 18.5t28 59.5l6 25q-110 -9 -110 -69z" />
    <glyph glyph-name="primemod" unicode="&#x2b9;" horiz-adv-x="260" 
d="M353 656l-188 -269q-13 -18 -29 -9l-57 28q-13 9 -2 26l163 274q14 27 40 13l69 -35q16 -10 4 -28z" />
    <glyph glyph-name="circumflex" unicode="&#x2c6;" horiz-adv-x="465" 
d="M174 543l-30 30q-12 14 8 34l135 137q9 10 31 10h59q13 0 20 -2t9 -4t7 -9l79 -137q8 -14 -7 -27l-33 -31q-16 -16 -34 1l-89 97l-124 -98q-17 -15 -31 -1z" />
    <glyph glyph-name="caron" unicode="&#x2c7;" horiz-adv-x="443" 
d="M166 718l38 32q16 14 31 -1l86 -98l127 97q23 17 34 1l25 -33q10 -12 -5 -27l-131 -137q-15 -15 -42 -15h-59q-23 0 -27 10l-82 137q-12 19 5 34z" />
    <glyph glyph-name="breve" unicode="&#x2d8;" horiz-adv-x="461" 
d="M315 545q-55 0 -98 31.5t-55 85.5q-7 28 10 42l37 29q19 10 23.5 9t13.5 -15q25 -44 43 -60t44 -16q45 0 108 72q20 26 42 8l30 -23q10 -13 9 -19.5t-14 -24.5q-39 -57 -90 -88t-103 -31z" />
    <glyph glyph-name="dotaccent" unicode="&#x2d9;" horiz-adv-x="418" 
d="M310 710q63 0 63 -48q0 -45 -22.5 -73.5t-70.5 -28.5q-64 0 -64 52q0 44 24 71t70 27z" />
    <glyph glyph-name="ring" unicode="&#x2da;" horiz-adv-x="486" 
d="M317 542q-44 0 -72.5 26t-28.5 68q0 60 42 99q43 40 99 40q42 0 70 -28t28 -70q0 -54 -41 -95q-40 -40 -97 -40zM347 704q-21 0 -37 -16.5t-16 -40.5q0 -35 35 -35q19 0 35.5 16t16.5 39q0 15 -9.5 26t-24.5 11z" />
    <glyph glyph-name="ogonek" unicode="&#x2db;" horiz-adv-x="357" 
d="M211 -118q23 8 23 -7l4 -38q0 -13 -18 -22q-43 -22 -89 -22q-53 -1 -77.5 20.5t-22.5 62.5q5 80 94 159h83q-70 -77 -75 -132q-2 -22 17.5 -27.5t60.5 6.5z" />
    <glyph glyph-name="tilde" unicode="&#x2dc;" horiz-adv-x="465" 
d="M392 564q-25 0 -70 22t-59 22q-26 0 -52 -35q-12 -17 -24 -9l-44 29q-10 7 -2 23q56 104 138 104q33 0 70 -22q38 -22 51 -22q19 0 49 34q15 20 31 8l40 -30q12 -9 4 -24q-55 -100 -132 -100z" />
    <glyph glyph-name="hungarumlaut" unicode="&#x2dd;" horiz-adv-x="509" 
d="M426 707l-118 -152q-14 -21 -35 -9l-37 21q-14 8 -4 27l93 168q11 22 28 11l69 -36q17 -11 4 -30zM579 707l-118 -152q-15 -20 -35 -9l-37 21q-14 8 -4 27l93 168q11 22 28 11l69 -36q19 -10 4 -30z" />
    <glyph glyph-name="tonos" unicode="&#x384;" horiz-adv-x="457" 
d="M377 770l70 -34q20 -10 3 -32l-118 -151q-13 -18 -26 -10l-44 28q-10 7 -3 25l90 165q9 16 28 9z" />
    <glyph glyph-name="dieresistonos" unicode="&#x385;" horiz-adv-x="453" 
d="M181 683q57 0 57 -41q0 -90 -82 -90q-56 0 -56 41q0 90 81 90zM457 683q56 0 56 -40q0 -91 -81 -91q-56 0 -56 42q0 89 81 89zM336 772l74 -26q23 -8 6 -32l-100 -163q-14 -20 -25 -13l-47 23q-13 6 -6 25l71 174q7 18 27 12z" />
    <glyph glyph-name="Alphatonos" unicode="&#x386;" horiz-adv-x="552" 
d="M364 31l-4 118h-150l-52 -122q-10 -27 -41 -27h-105q-28 0 -15 28l282 607q11 21 19 25q10 4 27 4h117q17 0 24 -6.5t9 -22.5l50 -607q1 -28 -21 -28h-109q-18 0 -24 6.5t-7 24.5zM357 499h-4q-2 -7 -38 -97l-51 -130h90v118q0 64 3 109zM113 678l70 -34q20 -10 3 -32
l-118 -151q-13 -18 -26 -10l-44 28q-10 7 -3 25l90 165q9 16 28 9z" />
    <glyph glyph-name="anoteleia" unicode="&#x387;" horiz-adv-x="201" 
d="M152 461q64 0 64 -49q0 -46 -22.5 -74.5t-71.5 -28.5q-63 0 -63 50q0 102 93 102z" />
    <glyph glyph-name="Epsilontonos" unicode="&#x388;" horiz-adv-x="476" 
d="M458 113l-19 -92q-2 -8 -3.5 -11t-7 -6.5t-16.5 -3.5h-363q-25 0 -21 21l121 621q2 8 4 12t8 7t17 3h337q22 0 19 -19l-17 -88q-5 -27 -28 -27h-205l-23 -118h190q23 0 18 -21l-17 -90q-1 -8 -2.5 -11.5t-7.5 -7t-17 -3.5h-189l-29 -145h233q22 0 18 -21zM15 678l70 -34
q20 -10 3 -32l-118 -151q-13 -18 -26 -10l-44 28q-10 7 -3 25l90 165q9 16 28 9z" />
    <glyph glyph-name="Etatonos" unicode="&#x389;" horiz-adv-x="553" 
d="M608 642l-120 -621q-4 -21 -30 -21h-106q-16 0 -20.5 5t-1.5 16l49 256h-144l-49 -256q-4 -21 -29 -21h-107q-26 0 -21 21l120 621q4 22 30 22h107q24 0 20 -22l-44 -230h144l44 230q4 22 31 22h106q16 0 20 -5.5t1 -16.5zM11 678l70 -34q20 -10 3 -32l-118 -151
q-13 -18 -26 -10l-44 28q-10 7 -3 25l90 165q9 16 28 9z" />
    <glyph glyph-name="Iotatonos" unicode="&#x38a;" horiz-adv-x="260" 
d="M311 642l-120 -621q-5 -21 -30 -21h-108q-25 0 -20 21l120 621q4 22 29 22h108q25 0 21 -22zM14 678l70 -34q20 -10 3 -32l-118 -151q-13 -18 -26 -10l-44 28q-10 7 -3 25l90 165q9 16 28 9z" />
    <glyph glyph-name="Omicrontonos" unicode="&#x38c;" horiz-adv-x="588" 
d="M396 672q115 0 162 -56q46 -55 46 -150q0 -35 -11 -115q-51 -360 -326 -360q-203 0 -203 205q0 55 16 147q60 329 316 329zM372 534q-49 0 -78 -47.5t-50 -156.5q-14 -76 -14 -114q0 -86 63 -86q52 0 82.5 46.5t51.5 153.5q14 78 14 117q0 46 -16 66.5t-53 20.5zM56 678
l70 -34q20 -10 3 -32l-118 -151q-13 -18 -26 -10l-44 28q-10 7 -3 25l90 165q9 16 28 9z" />
    <glyph glyph-name="Upsilontonos" unicode="&#x38e;" horiz-adv-x="550" 
d="M309 435l8 -54h6q23 49 69 126l77 129q10 16 20 22t30 6h109q12 0 16 -6t-2 -16l-269 -400h1l-43 -221q-5 -21 -29 -21h-106q-15 0 -19.5 4.5t-2.5 16.5l43 221l-106 397q-5 9 3 17t20 8h103q21 0 27.5 -6t10.5 -27l24 -129q7 -39 10 -67zM5 678l70 -34q20 -10 3 -32
l-118 -151q-13 -18 -26 -10l-44 28q-10 7 -3 25l90 165q9 16 28 9z" />
    <glyph glyph-name="Omegatonos" unicode="&#x38f;" horiz-adv-x="611" 
d="M54 134h58l2 2q-36 45 -36 132q0 89 34 185q23 60 55 106q36 50 98 81.5t138 31.5q223 0 223 -227q0 -196 -109 -308l2 -3h45q24 0 19 -21l-17 -87q-6 -26 -27 -26h-210q-25 0 -20 23l19 96q4 22 29 41q67 44 96 171q13 49 13 103q0 100 -78 100q-101 0 -136 -179
q-12 -60 -12 -100q0 -66 26 -92q1 -1 4.5 -5.5t4 -5.5t2.5 -4.5t2.5 -5.5t1 -5.5t0.5 -7t-1 -7.5l-19 -99q-5 -23 -32 -23h-200q-23 0 -19 22l18 91q3 21 26 21zM55 678l70 -34q20 -10 3 -32l-118 -151q-13 -18 -26 -10l-44 28q-10 7 -3 25l90 165q9 16 28 9z" />
    <glyph glyph-name="iotadieresistonos" unicode="&#x390;" horiz-adv-x="238" 
d="M77 683q57 0 57 -41q0 -90 -82 -90q-56 0 -56 41q0 90 81 90zM353 683q56 0 56 -40q0 -91 -81 -91q-56 0 -56 42q0 89 81 89zM232 772l74 -26q23 -8 6 -32l-100 -163q-14 -20 -25 -13l-47 23q-13 6 -6 25l71 174q7 18 27 12zM252 472l-87 -451q-5 -21 -29 -21h-96
q-29 0 -24 21l87 451q4 22 33 22h96q24 0 20 -22z" />
    <glyph glyph-name="Alpha" unicode="&#x391;" horiz-adv-x="552" 
d="M366 31l-4 118h-150l-52 -122q-10 -27 -41 -27h-105q-28 0 -15 28l282 607q11 21 19 25q10 4 27 4h117q17 0 24 -6.5t9 -22.5l50 -607q1 -28 -21 -28h-109q-18 0 -24 6.5t-7 24.5zM359 499h-4q-2 -7 -38 -97l-51 -130h90v118q0 64 3 109z" />
    <glyph glyph-name="Beta" unicode="&#x392;" horiz-adv-x="537" 
d="M336 530h-59l-24 -122h64q28 0 47.5 22.5t19.5 55.5q0 44 -48 44zM200 134h73q38 0 60 26t22 66q0 53 -54 53h-73l-14 -73zM171 664h205q173 0 173 -140q0 -43 -19 -87q-25 -58 -94 -86v-2q0 -1 -1 -2q79 -32 79 -128q0 -106 -73 -162.5t-201 -56.5h-197q-13 0 -18 4.5
t-5 16.5l121 621q4 22 30 22z" />
    <glyph glyph-name="Gamma" unicode="&#x393;" horiz-adv-x="442" 
d="M489 530h-211l-98 -508q-4 -22 -31 -22h-101q-16 0 -21.5 5.5t-3.5 16.5l120 621q5 21 31 21h341q24 0 21 -21l-18 -91q-4 -22 -29 -22z" />
    <glyph glyph-name="increment" unicode="&#x394;" horiz-adv-x="549" 
d="M460 634l54 -610q0 -24 -23 -24h-492q-20 0 -20 13q0 4 4 13l284 609q7 17 17 23t32 6h108q25 0 29 -8q4 -6 7 -22zM341 496h-4q-13 -37 -49 -131q-8 -20 -101 -232h161l-6 243q-1 34 -1 120z" />
    <glyph glyph-name="increment" unicode="&#x2206;" horiz-adv-x="549" 
d="M460 634l54 -610q0 -24 -23 -24h-492q-20 0 -20 13q0 4 4 13l284 609q7 17 17 23t32 6h108q25 0 29 -8q4 -6 7 -22zM341 496h-4q-13 -37 -49 -131q-8 -20 -101 -232h161l-6 243q-1 34 -1 120z" />
    <glyph glyph-name="Epsilon" unicode="&#x395;" horiz-adv-x="476" 
d="M454 113l-19 -92q-2 -8 -3.5 -11t-7 -6.5t-16.5 -3.5h-363q-25 0 -21 21l121 621q2 8 4 12t8 7t17 3h337q22 0 19 -19l-17 -88q-5 -27 -28 -27h-205l-23 -118h190q23 0 18 -21l-17 -90q-1 -8 -2.5 -11.5t-7.5 -7t-17 -3.5h-189l-29 -145h233q22 0 18 -21z" />
    <glyph glyph-name="Zeta" unicode="&#x396;" horiz-adv-x="471" 
d="M441 113l-17 -92q-2 -12 -7.5 -16.5t-21.5 -4.5h-371q-26 0 -21 21l10 56l6 26q7 26 30 54l299 373h-199q-16 0 -20 6t-1 19l16 87q3 22 30 22h348q26 0 21 -21l-14 -72q-4 -24 -34 -63l-298 -374h223q11 0 16.5 -3t5.5 -7.5t-1 -10.5z" />
    <glyph glyph-name="Eta" unicode="&#x397;" horiz-adv-x="553" 
d="M605 642l-120 -621q-5 -21 -30 -21h-106q-15 0 -20 5t-2 16l49 256h-144l-49 -256q-5 -21 -29 -21h-107q-25 0 -21 21l120 621q4 22 30 22h107q24 0 20 -22l-44 -230h144l44 230q4 22 31 22h106q16 0 20 -5.5t1 -16.5z" />
    <glyph glyph-name="Theta" unicode="&#x398;" horiz-adv-x="603" 
d="M399 671q121 0 167 -57q48 -56 48 -153q0 -39 -5 -87q-16 -132 -55 -204q-38 -80 -109.5 -130.5t-177.5 -48.5q-211 0 -211 205q0 53 17 144q66 331 326 331zM372 533q-52 0 -83 -47.5t-52 -156.5q-14 -70 -14 -110q0 -46 16.5 -67.5t54.5 -21.5q56 0 90 48t52 151
q14 82 14 114q0 46 -18.5 68t-59.5 22zM417 381l-12 -73q-5 -20 -27 -20h-101q-21 0 -17 19l13 72q1 9 6.5 13.5t11.5 5.5t18 1h94q17 0 14 -18z" />
    <glyph glyph-name="Iota" unicode="&#x399;" horiz-adv-x="260" 
d="M308 642l-120 -621q-4 -21 -30 -21h-108q-24 0 -20 21l120 621q4 22 29 22h108q25 0 21 -22z" />
    <glyph glyph-name="Kappa" unicode="&#x39a;" horiz-adv-x="528" 
d="M612 637l-226 -254l116 -353q4 -12 -1.5 -21t-17.5 -9h-112q-18 0 -27.5 5.5t-12 11.5t-7.5 21l-62 209l-59 -67l-30 -159q-5 -21 -30 -21h-103q-15 0 -20 5.5t-3 15.5l120 621q4 22 32 22h105q24 0 20 -22l-42 -220h5q35 51 78 99l102 124q15 19 52 19h114q13 0 16.5 -7
t-7.5 -20z" />
    <glyph glyph-name="Lambda" unicode="&#x39b;" horiz-adv-x="552" 
d="M299 384l-151 -357q-7 -16 -15.5 -21.5t-25.5 -5.5h-106q-20 0 -20 12q0 6 5 16l282 607q6 17 15 23t31 6h117q17 0 24 -6.5t9 -22.5l50 -607v-6q0 -22 -21 -22h-108q-18 0 -24.5 6.5t-6.5 24.5q0 50 -5 195q-4 116 -4 196q0 13 2 77h-4q-18 -51 -44 -115z" />
    <glyph glyph-name="Mu" unicode="&#x39c;" horiz-adv-x="666" 
d="M717 643l-120 -622q-5 -21 -29 -21h-103q-14 0 -19 5.5t-3 15.5l54 280q-2 0 -4 1l-38 -68l-58 -99q-16 -25 -40 -25h-52q-29 0 -33 24l-24 105l-6 34l-5 33q-1 -1 -3 -1l-55 -284q-5 -21 -32 -21h-98q-29 0 -24 21l120 622q5 21 32 21h83q22 0 29.5 -4.5t10.5 -18.5
l29 -135l37 -192h6q18 38 112 192l83 134q15 24 51 24h80q24 0 19 -21z" />
    <glyph glyph-name="Nu" unicode="&#x39d;" horiz-adv-x="572" 
d="M357 24l-59 161q-15 42 -27 81t-17.5 60.5t-7.5 25.5h-1l-2 -1l-64 -330q-5 -21 -29 -21h-103q-25 0 -21 21l120 622q6 21 30 21h78q21 0 26.5 -4.5t9.5 -17.5l69 -194q36 -108 43 -141q2 0 3 1l65 334q4 22 30 22h103q26 0 20 -22l-120 -619q-4 -23 -27 -23h-79
q-31 0 -40 24z" />
    <glyph glyph-name="Xi" unicode="&#x39e;" horiz-adv-x="495" 
d="M512 529h-384q-13 0 -17.5 4.5t-1.5 16.5l18 92q3 22 30 22h378q23 0 19 -22l-18 -92q-1 -7 -3 -11t-7 -7t-14 -3zM432 278h-323q-21 0 -18 20l17 92q3 22 26 22h328q21 0 17 -22l-17 -92q-3 -20 -30 -20zM427 0h-410q-21 0 -18 20l17 92q3 22 26 22h415q21 0 17 -22
l-17 -92q-3 -20 -30 -20z" />
    <glyph glyph-name="Omicron" unicode="&#x39f;" horiz-adv-x="588" 
d="M390 672q115 0 162 -56q46 -55 46 -150q0 -35 -11 -115q-51 -360 -326 -360q-203 0 -203 205q0 55 16 147q60 329 316 329zM366 534q-49 0 -78 -47.5t-50 -156.5q-14 -76 -14 -114q0 -86 63 -86q52 0 82.5 46.5t51.5 153.5q14 78 14 117q0 46 -16 66.5t-53 20.5z" />
    <glyph glyph-name="Pi" unicode="&#x3a0;" horiz-adv-x="561" 
d="M614 641l-120 -620q-4 -21 -29 -21h-106q-15 0 -20 5t-2 16l98 507h-156l-98 -507q-2 -21 -29 -21h-106q-16 0 -20.5 5t-1.5 16l120 620q5 23 30 23h421q29 0 19 -23z" />
    <glyph glyph-name="Rho" unicode="&#x3a1;" horiz-adv-x="484" 
d="M289 243h-66l-44 -222q-2 -21 -28 -21h-107q-14 0 -19 4.5t-3 16.5l121 621q4 22 30 22h196q82 0 127 -42.5t45 -124.5q0 -44 -12 -85.5t-39 -81t-79 -63.5t-122 -24zM325 530h-47l-30 -157h48q37 0 59.5 27t22.5 75q0 55 -53 55z" />
    <glyph glyph-name="Sigma" unicode="&#x3a3;" horiz-adv-x="453" 
d="M447 113l-17 -91q-3 -13 -8.5 -17.5t-21.5 -4.5h-375q-25 0 -21 21l6 35q12 59 47 110l128 175l-70 167q-13 30 -2 89l8 41q4 25 33 25h342q28 0 20 -22l-18 -92q-1 -8 -2.5 -11.5t-8 -6.5t-18.5 -3h-197l70 -165q9 -21 -8 -44l-136 -185h228q11 0 16.5 -3t5.5 -7.5
t-1 -10.5z" />
    <glyph glyph-name="Tau" unicode="&#x3a4;" horiz-adv-x="457" 
d="M549 641l-17 -89q-6 -22 -32 -22h-115l-98 -508q-4 -22 -28 -22h-107q-15 0 -19.5 5t-2.5 17l98 508h-114q-28 0 -22 22l17 89q5 23 31 23h387q27 0 22 -23z" />
    <glyph glyph-name="Upsilon" unicode="&#x3a5;" horiz-adv-x="541" 
d="M285 435l8 -54h6q23 49 69 126l77 129q10 16 20 22t30 6h109q12 0 16 -6t-2 -16l-269 -400h1l-43 -221q-5 -21 -29 -21h-106q-15 0 -19.5 4.5t-2.5 16.5l43 221l-106 397q-5 9 2.5 17t20.5 8h103q21 0 27.5 -6t10.5 -27l24 -129q7 -39 10 -67z" />
    <glyph glyph-name="Phi" unicode="&#x3a6;" horiz-adv-x="726" 
d="M374 598l9 44q3 22 30 22h108q26 0 19 -22l-8 -45q200 -23 200 -212q0 -98 -66 -185q-34 -44 -95 -74t-139 -38l-13 -67q-5 -16 -12 -19q-6 -2 -16 -2h-107q-25 0 -21 21l12 65q-210 18 -210 200q0 71 33 141q19 40 53 77q34 36 92.5 62t130.5 32zM334 390l16 82
q-56 -10 -90.5 -56t-34.5 -113q0 -78 74 -92l7 35t9 47zM507 473l-51 -261q51 8 85 53q35 47 35 115q0 80 -69 93z" />
    <glyph glyph-name="Chi" unicode="&#x3a7;" horiz-adv-x="503" 
d="M304 21l-38 184l-108 -182q-14 -23 -44 -23h-116q-13 0 -17 8t4 20l219 317l-89 291q-4 11 3.5 19.5t20.5 8.5h105q19 0 25 -3.5t8 -17.5l34 -165l97 163q12 23 41 23h119q14 0 17.5 -8.5t-3.5 -17.5l-208 -293l96 -319q8 -26 -25 -26h-105q-32 0 -36 21z" />
    <glyph glyph-name="Psi" unicode="&#x3a8;" horiz-adv-x="683" 
d="M759 641l-44 -236q-20 -110 -91.5 -173.5t-180.5 -71.5l-27 -138q-4 -22 -32 -22h-100q-16 0 -21.5 5.5t-3.5 16.5l27 138q-111 7 -153 78t-18 195l40 208q5 23 31 23h104q11 0 16 -3.5t5 -8.5t-1 -11l-44 -229q-20 -101 46 -114l67 343q5 23 30 23h108q29 0 19 -23
l-66 -342q72 19 91 113l44 229q5 23 31 23h102q16 0 20 -5t1 -18z" />
    <glyph glyph-name="Omega" unicode="&#x3a9;" horiz-adv-x="611" 
d="M51 134h58l2 2q-36 45 -36 132q0 89 34 185q23 60 55 106q36 50 98 81.5t138 31.5q223 0 223 -227q0 -196 -109 -308l2 -3h45q23 0 19 -21l-17 -87q-6 -26 -27 -26h-210q-25 0 -20 23l19 96q4 22 29 41q68 44 96 171q13 49 13 103q0 100 -78 100q-101 0 -136 -179
q-12 -60 -12 -100q0 -66 26 -92q1 -1 4.5 -5.5t4 -5.5t2.5 -4.5t2.5 -5.5t1 -5.5t0.5 -7t-1 -7.5l-19 -99q-5 -23 -32 -23h-200q-23 0 -19 22l18 91q3 21 26 21z" />
    <glyph glyph-name="Iotadieresis" unicode="&#x3aa;" horiz-adv-x="260" 
d="M308 642l-120 -621q-4 -21 -30 -21h-108q-24 0 -20 21l120 621q4 22 29 22h108q25 0 21 -22zM179 860q61 0 61 -44q0 -96 -88 -96q-60 0 -60 44q0 96 87 96zM368 860q33 0 47 -10.5t14 -32.5q0 -97 -88 -97q-59 0 -59 44q0 96 86 96z" />
    <glyph glyph-name="Upsilondieresis" unicode="&#x3ab;" horiz-adv-x="550" 
d="M306 435l8 -54h6q22 49 69 126l77 129q10 16 20 22t30 6h109q12 0 16 -6t-2 -16l-269 -400h1l-43 -221q-4 -21 -29 -21h-106q-15 0 -19.5 4.5t-2.5 16.5l43 221l-106 397q-5 9 3 17t20 8h103q21 0 27.5 -6t10.5 -27l24 -129q7 -39 10 -67zM316 860q61 0 61 -44
q0 -96 -88 -96q-60 0 -60 44q0 96 87 96zM505 860q33 0 47 -10.5t14 -32.5q0 -97 -88 -97q-59 0 -59 44q0 96 86 96z" />
    <glyph glyph-name="alphatonos" unicode="&#x3ac;" horiz-adv-x="489" 
d="M360 462h1q1 1 2 1l4 15q4 16 23 16h97q21 0 17 -24l-88 -448q-4 -22 -27 -22h-102q-18 0 -18 13q0 3 2.5 13.5t2.5 11.5h-2l-2 1q-56 -46 -126 -46q-59 0 -86 34t-27 104q0 47 10 111q18 119 72.5 186.5t136.5 69.5q66 0 110 -36zM277 357q-60 0 -83 -107
q-12 -60 -6 -90.5t32 -26.5q28 0 75 25l36 186q-25 13 -54 13zM380 770l70 -34q20 -10 3 -32l-118 -151q-13 -18 -26 -10l-44 28q-10 7 -3 25l90 165q9 16 28 9z" />
    <glyph glyph-name="epsilontonos" unicode="&#x3ad;" horiz-adv-x="410" 
d="M276 304h39q12 0 15 -4.5t1 -16.5l-11 -56q-2 -13 -7.5 -18t-17.5 -5h-50q-63 0 -63 -53q0 -34 49 -34q55 0 124 10q20 3 26 0t7 -18l-1 -49q-1 -18 -8 -27t-30 -18q-55 -23 -142 -23q-186 0 -186 121q0 15 3.5 32t12 39t29 41.5t49.5 30.5l1 4q-47 24 -47 77q0 50 22 86
t59 52q63 30 127 30q82 0 142 -28q22 -13 15 -35l-18 -53q-6 -17 -16.5 -20.5t-27.5 2.5q-62 9 -88 9q-60 0 -60 -47q0 -29 52 -29zM337 770l70 -34q20 -10 3 -32l-118 -151q-13 -18 -26 -10l-44 28q-10 7 -3 25l90 165q9 16 28 9z" />
    <glyph glyph-name="etatonos" unicode="&#x3ae;" horiz-adv-x="476" 
d="M244 472l-3 -17l4 -1q63 48 131 48q72 0 96 -42q12 -18 13 -47q3 -42 -10 -108l-92 -480q-5 -21 -28 -21h-101q-15 0 -19 4.5t-2 16.5l92 473q6 35 -1.5 49.5t-29.5 14.5q-28 0 -76 -24l-61 -316q-4 -22 -28 -22h-101q-26 0 -22 22l88 450q3 22 29 22h104q21 0 17 -22z
M359 770l70 -34q20 -10 3 -32l-118 -151q-13 -18 -26 -10l-44 28q-10 7 -3 25l90 165q9 16 28 9z" />
    <glyph glyph-name="iotatonos" unicode="&#x3af;" horiz-adv-x="238" 
d="M254 472l-87 -451q-5 -21 -29 -21h-96q-29 0 -24 21l87 451q4 22 33 22h96q24 0 20 -22zM262 770l70 -34q20 -10 3 -32l-118 -151q-13 -18 -26 -10l-44 28q-10 7 -3 25l90 165q9 16 28 9z" />
    <glyph glyph-name="upsilondieresistonos" unicode="&#x3b0;" horiz-adv-x="474" 
d="M261 472l-53 -272q-15 -78 40 -78q54 0 69 78l53 272q4 22 29 22h102q24 0 20 -22l-54 -278q-18 -94 -78 -147.5t-159 -53.5q-105 0 -148 53t-25 148l54 278q4 22 28 22h102q24 0 20 -22zM207 683q57 0 57 -41q0 -90 -82 -90q-56 0 -56 41q0 90 81 90zM483 683
q56 0 56 -40q0 -91 -81 -91q-56 0 -56 42q0 89 81 89zM362 772l74 -26q23 -8 6 -32l-100 -163q-14 -20 -25 -13l-47 23q-13 6 -6 25l71 174q7 18 27 12z" />
    <glyph glyph-name="alpha" unicode="&#x3b1;" horiz-adv-x="489" 
d="M360 462h1q1 1 2 1l4 15q4 16 23 16h97q21 0 17 -24l-88 -448q-4 -22 -27 -22h-102q-18 0 -18 13q0 3 2.5 13.5t2.5 11.5h-2l-2 1q-56 -46 -126 -46q-59 0 -86 34t-27 104q0 47 10 111q18 119 72.5 186.5t136.5 69.5q66 0 110 -36zM277 357q-60 0 -83 -107
q-12 -60 -6 -90.5t32 -26.5q28 0 75 25l36 186q-25 13 -54 13z" />
    <glyph glyph-name="beta" unicode="&#x3b2;" 
d="M279 339q-11 1 -23 4q-10 4 -7 23l10 52q3 18 20 23q69 25 69 104q0 38 -37 38q-43 0 -68 -124l-65 -330q18 -5 49 -8q36 0 55 22t31 81q9 45 9 67q0 27 -8.5 37t-34.5 11zM-26 -173l123 639q23 119 85 182.5t152 63.5q78 0 121 -35t43 -98q0 -117 -99 -164q0 -1 -0.5 -3
l-0.5 -2q74 -30 74 -121q0 -15 -6 -60q-18 -123 -73 -181.5t-156 -58.5q-34 0 -75 11q-3 -1 -6 -4l-33 -169q-4 -22 -28 -22h-101q-27 0 -20 22z" />
    <glyph glyph-name="gamma" unicode="&#x3b3;" horiz-adv-x="466" 
d="M240 180h6q29 76 50 121l79 172q6 12 13 16.5t24 4.5h102q24 0 11 -25l-242 -465l-35 -178q-4 -22 -27 -22h-102q-15 0 -18.5 5t-1.5 17l34 171l-42 357q-1 21 -19 24q-16 1 -16 17l2 62q2 24 20 33q35 16 74 16q41 0 57.5 -17t18.5 -60l9 -162q3 -75 3 -87z" />
    <glyph glyph-name="delta" unicode="&#x3b4;" horiz-adv-x="471" 
d="M344 714q75 0 129 -23q22 -9 27.5 -17t-0.5 -24l-14 -48q-7 -18 -17.5 -21.5t-38.5 2.5q-45 6 -99 9q-46 0 -46 -39q0 -12 14.5 -24.5t61.5 -43.5q12 -7 16 -10q46 -30 67.5 -69t21.5 -98q0 -32 -4 -59q-11 -86 -43 -137q-29 -54 -83.5 -87.5t-133.5 -32.5
q-168 0 -168 156q0 44 13 106q7 33 21 67q17 37 46.5 71.5t65.5 51.5q-45 33 -45 89q0 93 59 137t150 44zM225 122q45 0 67 52q24 52 24 122q0 49 -42 70q-55 -25 -76 -116q-12 -51 -12 -81q0 -47 39 -47z" />
    <glyph glyph-name="epsilon" unicode="&#x3b5;" horiz-adv-x="410" 
d="M276 304h39q12 0 15 -4.5t1 -16.5l-11 -56q-2 -13 -7.5 -18t-17.5 -5h-50q-63 0 -63 -53q0 -34 49 -34q55 0 124 10q20 3 26 0t7 -18l-1 -49q-1 -18 -8 -27t-30 -18q-55 -23 -142 -23q-186 0 -186 121q0 15 3.5 32t12 39t29 41.5t49.5 30.5l1 4q-47 24 -47 77q0 50 22 86
t59 52q63 30 127 30q82 0 142 -28q22 -13 15 -35l-18 -53q-6 -17 -16.5 -20.5t-27.5 2.5q-62 9 -88 9q-60 0 -60 -47q0 -29 52 -29z" />
    <glyph glyph-name="zeta" unicode="&#x3b6;" horiz-adv-x="422" 
d="M222 369v3h-125q-20 0 -16 22l15 78q4 22 25 22h342q11 0 13.5 -4t0.5 -16l-12 -61q-6 -31 -23 -40l-55 -30l-57 -33q-38 -22 -60 -39q-101 -71 -95 -115q0 -46 129 -46h34q15 0 21 -4t10 -18l9 -43q4 -18 -9 -39q-84 -137 -95 -160q-8 -18 -14.5 -22t-21.5 0l-71 20
q-17 5 -3 38l2 4q21 46 57 100q-203 8 -203 137q0 138 202 246z" />
    <glyph glyph-name="eta" unicode="&#x3b7;" horiz-adv-x="476" 
d="M244 472l-3 -17l4 -1q63 48 131 48q72 0 96 -42q12 -18 13 -47q3 -42 -10 -108l-92 -480q-5 -21 -28 -21h-101q-15 0 -19 4.5t-2 16.5l92 473q6 35 -1.5 49.5t-29.5 14.5q-28 0 -76 -24l-61 -316q-4 -22 -28 -22h-101q-26 0 -22 22l88 450q3 22 29 22h104q21 0 17 -22z
" />
    <glyph glyph-name="theta" unicode="&#x3b8;" horiz-adv-x="491" 
d="M348 709q175 0 175 -184q0 -57 -19 -164q-8 -45 -15 -73q-18 -84 -47 -141q-34 -72 -86 -111q-63 -44 -144 -44q-171 0 -171 179q0 68 25 190q18 101 53 182q22 50 51 85q70 81 178 81zM343 312h-133q-17 -82 -17 -123q0 -69 44 -69q38 0 61.5 43.5t44.5 148.5zM326 582
q-63 0 -93 -160h129q12 55 12 91q0 69 -48 69z" />
    <glyph glyph-name="iota" unicode="&#x3b9;" horiz-adv-x="237" 
d="M254 472l-87 -451q-5 -21 -29 -21h-96q-29 0 -24 21l87 451q4 22 33 22h96q24 0 20 -22z" />
    <glyph glyph-name="kappa" unicode="&#x3ba;" horiz-adv-x="455" 
d="M271 23l-47 148l-43 -46l-20 -104q-5 -21 -27 -21h-101q-25 0 -21 21l89 451q4 22 30 22h101q22 0 18 -22l-28 -133q2 0 3 -1q17 23 32 40q9 11 23 29l54 65q16 22 53 22h105q13 0 15.5 -7.5t-9.5 -20.5l-157 -170l88 -269q7 -27 -22 -27h-97q-31 0 -39 23z" />
    <glyph glyph-name="lambda" unicode="&#x3bb;" horiz-adv-x="444" 
d="M252 281h-4q-38 -91 -48 -114l-75 -150q-8 -17 -28 -17h-101q-15 0 -17.5 5t3.5 18l238 448l-3 71q-1 40 -19 45q-14 2 -25 2q-20 0 -20 15l3 64q2 20 21 27q48 16 91 16q46 0 68.5 -20t26.5 -71l34 -481q1 -18 4 -23t15 -6q17 -3 19 -8q1 -3 0 -9l-8 -61q-3 -17 -20 -25
q-33 -13 -75 -13q-43 0 -60 21.5t-17 63.5l-3 99q-1 67 0 103z" />
    <glyph glyph-name="nu" unicode="&#x3bd;" horiz-adv-x="468" 
d="M523 469l-227 -438q-15 -31 -49 -31h-83q-20 0 -28.5 7t-10.5 24l-55 437q-2 26 25 26h97q18 0 23 -4t6 -19l8 -150q7 -124 4 -149h5q5 15 65 154l66 147q6 12 13 16.5t25 4.5h98q28 0 18 -25z" />
    <glyph glyph-name="xi" unicode="&#x3be;" horiz-adv-x="398" 
d="M340 710q34 0 84 -8q46 -7 67 -22q16 -10 7 -33l-20 -53q-7 -22 -22 -20q-64 9 -108 9q-102 0 -102 -93q0 -53 91 -53h55q20 0 17 -20l-13 -66q-4 -22 -25 -22h-65q-55 0 -91 -40t-36 -107q0 -34 25 -55q32 -16 98 -16h33q15 0 21 -4t10 -18l9 -44q5 -18 -9 -39l-27 -41
q-52 -81 -72 -122q-8 -15 -13 -20q-2 -3 -4.5 -3.5t-4.5 -0.5t-5.5 1t-7.5 1l-74 20q-18 5 -2 42q17 39 60 103q-94 2 -142 41t-48 121q0 24 6 54t19.5 65t40.5 66t64 48l1 5q-59 30 -59 104q0 96 68 158q70 62 174 62z" />
    <glyph glyph-name="omicron" unicode="&#x3bf;" 
d="M297 503q174 0 174 -162q0 -39 -9 -89q-42 -260 -259 -260q-170 0 -170 156q0 45 13 106q45 249 251 249zM275 372q-32 0 -51.5 -31.5t-30.5 -101.5q-7 -50 -7 -66q0 -50 39 -50q33 0 51.5 28.5t31.5 96.5q10 46 10 73q0 51 -43 51z" />
    <glyph glyph-name="pi" unicode="&#x3c0;" horiz-adv-x="486" 
d="M522 472l-87 -451q-5 -21 -29 -21h-101q-25 0 -20 21l67 349h-125l-67 -349q-4 -21 -28 -21h-101q-25 0 -21 21l87 451q4 22 30 22h375q16 0 19.5 -5.5t0.5 -16.5z" />
    <glyph glyph-name="rho" unicode="&#x3c1;" horiz-adv-x="472" 
d="M283 370q-47 0 -70 -71q-13 -41 -17 -67l-7 -35q-1 -5 -4.5 -32.5t-5.5 -35.5q32 -8 43 -8q38 0 60 28t34 101q6 39 6 62q0 58 -39 58zM-29 -173l81 418q49 259 248 259q175 0 175 -170q0 -35 -8 -86q-21 -132 -76 -195.5t-158 -63.5q-24 0 -73 11l-6 -3l-34 -170
q-1 -8 -2.5 -11.5t-8 -7.5t-17.5 -4h-101q-25 0 -20 23z" />
    <glyph glyph-name="sigma1" unicode="&#x3c2;" horiz-adv-x="414" 
d="M267 503q81 0 141 -23q17 -7 22 -16.5t0 -26.5l-14 -49q-4 -15 -11.5 -18t-28.5 0q-80 11 -118 11q-43 0 -43 -37q0 -9 3.5 -14.5t7.5 -7t13 -4.5t14 -6q63 -19 82 -28q34 -15 49.5 -38t18.5 -63q1 -54 -19 -93t-54.5 -60t-73 -30t-83.5 -9q-84 0 -138 23
q-21 9 -25.5 19.5t2.5 28.5l14 48q5 15 13.5 18.5t27.5 -0.5q61 -13 121 -13t61 43q0 25 -38 34q-31 10 -38 11l-33 12q-25 10 -32 16q-51 41 -45 86q-2 98 57 142t147 44z" />
    <glyph glyph-name="sigma" unicode="&#x3c3;" horiz-adv-x="489" 
d="M221 120q33 0 52 28t32 96q8 50 8 70q0 37 -19 57q-80 -6 -103 -123q-6 -28 -8 -69q0 -33 8 -46t30 -13zM496 371h-54l-3 -5q19 -26 19 -76q0 -32 -8 -77q-18 -95 -80 -159q-62 -62 -170 -62q-94 0 -131 42q-36 44 -36 113q0 24 1 35q2 60 21 123q26 82 77 129
q63 60 169 60h218q25 0 21 -22l-15 -78q-2 -13 -8 -18t-21 -5z" />
    <glyph glyph-name="tau" unicode="&#x3c4;" horiz-adv-x="393" 
d="M400 371h-98l-34 -171q-8 -44 -2 -58t32 -14q1 0 7.5 0.5t21 2t28.5 2.5q19 1 23.5 -2t4.5 -17l-2 -57q-1 -28 -29 -41q-52 -24 -136 -24q-71 0 -96 35t-10 108l46 236h-73q-24 0 -19 26l14 74q5 23 29 23h317q26 0 18 -22l-14 -75q-2 -10 -4 -14.5t-7.5 -8t-16.5 -3.5z
" />
    <glyph glyph-name="upsilon" unicode="&#x3c5;" horiz-adv-x="474" 
d="M261 472l-53 -272q-15 -78 40 -78q54 0 69 78l53 272q4 22 29 22h102q24 0 20 -22l-54 -278q-18 -94 -78 -147.5t-159 -53.5q-105 0 -148 53t-25 148l54 278q4 22 28 22h102q24 0 20 -22z" />
    <glyph glyph-name="phi" unicode="&#x3c6;" horiz-adv-x="645" 
d="M439 374l-51 -259q48 9 76 60q30 53 30 114q0 81 -55 85zM205 491q23 12 36 -10l34 -58q9 -14 -4 -23q-40 -30 -63 -83.5t-23 -112.5q0 -81 61 -91l64 333q12 59 70 59h68q191 0 191 -190q0 -136 -73 -224q-73 -87 -202 -101l-29 -144q-4 -22 -31 -22h-94q-15 0 -20 5
t-3 17l27 143q-177 15 -177 187q0 101 42 184t126 131z" />
    <glyph glyph-name="chi" unicode="&#x3c7;" horiz-adv-x="454" 
d="M262 17l-34 135l-83 -134q-12 -18 -38 -18h-114q-13 0 -17 7t5 19l173 225l-78 217q-4 10 3 18t19 8h104q20 0 24.5 -4t8.5 -22l27 -120l79 128q11 18 36 18h116q28 0 13 -26l-168 -216l88 -226q4 -10 -3 -18t-20 -8h-109q-27 0 -32 17z" />
    <glyph glyph-name="psi" unicode="&#x3c8;" horiz-adv-x="620" 
d="M369 -8l-28 -145q-4 -22 -28 -22h-100q-15 0 -19 5t-1 17l28 145q-95 7 -138 66.5t-24 153.5l51 260q4 22 29 22h98q22 0 18 -22l-52 -270q-13 -66 44 -80l79 403q3 22 29 22h98q7 0 11.5 -1t6 -4t2 -5t0 -6.5t-0.5 -5.5l-79 -403q64 9 79 80l52 270q4 22 28 22h98
q14 0 18 -5t1 -17l-53 -273q-19 -93 -81 -147t-166 -60z" />
    <glyph glyph-name="omega" unicode="&#x3c9;" horiz-adv-x="670" 
d="M562 503q104 -51 104 -188q0 -60 -11 -110q-21 -99 -78 -156t-149 -57q-38 0 -68.5 17.5t-42.5 47.5l-5 -1q-49 -64 -131 -64q-147 0 -147 155q0 279 201 356q24 8 34.5 5t15.5 -18l20 -60q6 -17 -20 -34q-49 -32 -74 -92t-25 -134q0 -49 34 -49q45 0 59 71l20 105
q3 22 27 22h83q21 0 17 -22l-21 -105l-1 -6q0 -6 -1 -13t-1 -10q0 -42 35 -42q48 0 71 110q9 42 9 80q0 55 -36 91q-17 18 -7 34l35 54q11 16 22 18.5t31 -5.5z" />
    <glyph glyph-name="iotadieresis" unicode="&#x3ca;" horiz-adv-x="237" 
d="M254 472l-87 -451q-5 -21 -29 -21h-96q-29 0 -24 21l87 451q4 22 33 22h96q24 0 20 -22zM125 692q60 0 60 -44q0 -96 -87 -96q-60 0 -60 44q0 96 87 96zM310 692q33 0 46.5 -10.5t13.5 -32.5q0 -97 -87 -97q-59 0 -59 45q0 95 86 95z" />
    <glyph glyph-name="upsilondieresis" unicode="&#x3cb;" horiz-adv-x="474" 
d="M261 472l-53 -272q-15 -78 40 -78q54 0 69 78l53 272q4 22 29 22h102q24 0 20 -22l-54 -278q-18 -94 -78 -147.5t-159 -53.5q-105 0 -148 53t-25 148l54 278q4 22 28 22h102q24 0 20 -22zM259 692q60 0 60 -44q0 -96 -87 -96q-60 0 -60 44q0 96 87 96zM444 692
q33 0 46.5 -10.5t13.5 -32.5q0 -97 -87 -97q-59 0 -59 45q0 95 86 95z" />
    <glyph glyph-name="omicrontonos" unicode="&#x3cc;" 
d="M297 503q174 0 174 -162q0 -39 -9 -89q-42 -260 -259 -260q-170 0 -170 156q0 45 13 106q14 69 42 124q57 121 209 125zM275 372q-32 0 -51.5 -31.5t-30.5 -101.5q-7 -50 -7 -66q0 -50 39 -50q33 0 51.5 28.5t31.5 96.5q10 46 10 73q0 51 -43 51zM381 770l70 -34
q20 -10 3 -32l-118 -151q-13 -18 -26 -10l-44 28q-10 7 -3 25l90 165q9 16 28 9z" />
    <glyph glyph-name="upsilontonos" unicode="&#x3cd;" horiz-adv-x="474" 
d="M261 472l-53 -272q-15 -78 40 -78q54 0 69 78l53 272q4 22 29 22h102q24 0 20 -22l-54 -278q-18 -94 -78 -147.5t-159 -53.5q-105 0 -148 53t-25 148l54 278q4 22 28 22h102q24 0 20 -22zM393 770l70 -34q20 -10 3 -32l-118 -151q-13 -18 -26 -10l-44 28q-10 7 -3 25
l90 165q9 16 28 9z" />
    <glyph glyph-name="omegatonos" unicode="&#x3ce;" horiz-adv-x="670" 
d="M562 503q104 -51 104 -188q0 -60 -11 -110q-21 -99 -78 -156t-149 -57q-38 0 -68.5 17.5t-42.5 47.5l-5 -1q-49 -64 -131 -64q-147 0 -147 155q0 279 201 356q24 8 34.5 5t15.5 -18l20 -60q6 -17 -20 -34q-49 -32 -74 -92t-25 -134q0 -49 34 -49q45 0 59 71l20 105
q3 22 27 22h83q21 0 17 -22l-21 -105l-1 -6q0 -6 -1 -13t-1 -10q0 -42 35 -42q48 0 71 110q9 42 9 80q0 55 -36 91q-17 18 -7 34l35 54q11 16 22 18.5t31 -5.5zM478 770l70 -34q20 -10 3 -32l-118 -151q-13 -18 -26 -10l-44 28q-10 7 -3 25l90 165q9 16 28 9z" />
    <glyph glyph-name="uni0400" unicode="&#x400;" horiz-adv-x="476" 
d="M454 113l-19 -92q-2 -8 -3.5 -11t-7 -6.5t-16.5 -3.5h-363q-25 0 -21 21l121 621q2 8 4 12t8 7t17 3h337q22 0 19 -19l-17 -88q-5 -27 -28 -27h-205l-23 -118h190q23 0 18 -21l-17 -90q-1 -8 -2.5 -11.5t-7.5 -7t-17 -3.5h-189l-29 -145h233q22 0 18 -21zM225 828l53 66
q16 19 29 8l132 -120q10 -10 3 -25l-38 -44q-14 -14 -26 -7l-147 91q-21 10 -6 31z" />
    <glyph glyph-name="afii10023" unicode="&#x401;" horiz-adv-x="476" 
d="M454 113l-19 -92q-2 -8 -3.5 -11t-7 -6.5t-16.5 -3.5h-363q-25 0 -21 21l121 621q2 8 4 12t8 7t17 3h337q22 0 19 -19l-17 -88q-5 -27 -28 -27h-205l-23 -118h190q23 0 18 -21l-17 -90q-1 -8 -2.5 -11.5t-7.5 -7t-17 -3.5h-189l-29 -145h233q22 0 18 -21zM281 860
q61 0 61 -44q0 -96 -88 -96q-60 0 -60 44q0 96 87 96zM470 860q33 0 47 -10.5t14 -32.5q0 -97 -88 -97q-59 0 -59 44q0 96 86 96z" />
    <glyph glyph-name="afii10051" unicode="&#x402;" horiz-adv-x="643" 
d="M379 -157q-26 -12 -38 11l-32 57q-11 17 15 37q75 59 116 136t41 152q0 69 -59 69q-40 0 -96 -29l-49 -254q-4 -22 -29 -22h-106q-15 0 -19.5 5t-2.5 17l98 507h-119q-28 0 -19 23l17 90q2 9 3.5 12.5t8 6.5t17.5 3h453q25 0 21 -22l-18 -92q-3 -21 -30 -21h-177
l-23 -119q70 24 116 24q169 0 169 -176q0 -90 -31 -173t-88 -140q-21 -21 -67 -56q-42 -32 -72 -46z" />
    <glyph glyph-name="afii10052" unicode="&#x403;" horiz-adv-x="442" 
d="M489 530h-211l-98 -508q-4 -22 -31 -22h-101q-16 0 -21.5 5.5t-3.5 16.5l120 621q5 21 31 21h341q24 0 21 -21l-18 -91q-4 -22 -29 -22zM477 789l-165 -80q-21 -11 -33 9l-27 40q-8 12 12 27l164 115q21 14 29 -7l34 -74q8 -20 -14 -30z" />
    <glyph glyph-name="afii10053" unicode="&#x404;" horiz-adv-x="507" 
d="M389 672q101 0 162 -32q29 -17 19 -44l-22 -58q-6 -15 -14.5 -18.5t-29.5 -1.5q-69 9 -122 9q-101 0 -125 -122h185q22 0 18 -19l-17 -85q-1 -8 -2.5 -11.5t-7.5 -7t-16 -3.5h-186q-4 -23 -4 -52q0 -48 18.5 -70.5t60.5 -22.5q54 0 141 9q21 2 28 -2t8 -18l2 -53
q2 -29 -37 -46q-72 -33 -183 -33q-205 0 -205 232q0 41 9 109q51 340 320 340z" />
    <glyph glyph-name="afii10054" unicode="&#x405;" horiz-adv-x="497" 
d="M342 671q105 0 161 -29q36 -17 23 -43l-21 -59q-7 -18 -16 -22t-30 0q-73 14 -126 14q-79 0 -79 -70q0 -30 36 -46l23 -9l57 -18q58 -20 88 -55t30 -97q0 -67 -24 -116.5t-66 -77t-90.5 -40t-105.5 -12.5q-109 0 -170 31q-35 16 -22 43l21 59q6 19 17 23t32 -2
q89 -14 148 -14q93 0 93 78q0 24 -14.5 36.5t-50.5 22.5q-72 22 -115 52q-54 42 -54 119q0 121 70 176q71 56 185 56z" />
    <glyph glyph-name="afii10055" unicode="&#x406;" horiz-adv-x="260" 
d="M308 642l-120 -621q-4 -21 -30 -21h-108q-24 0 -20 21l120 621q4 22 29 22h108q25 0 21 -22z" />
    <glyph glyph-name="afii10056" unicode="&#x407;" horiz-adv-x="260" 
d="M308 642l-120 -621q-4 -21 -30 -21h-108q-24 0 -20 21l120 621q4 22 29 22h108q25 0 21 -22zM178 860q61 0 61 -44q0 -96 -88 -96q-60 0 -60 44q0 96 87 96zM367 860q33 0 47 -10.5t14 -32.5q0 -97 -88 -97q-59 0 -59 44q0 96 86 96z" />
    <glyph glyph-name="afii10057" unicode="&#x408;" horiz-adv-x="404" 
d="M453 642l-91 -465q-19 -96 -70.5 -141t-153.5 -45q-29 0 -77 8q-42 7 -63 22q-15 10 -4 36l19 65q6 14 12 17t21 1q85 -8 87 -8q35 0 53 19t25 58l83 433q4 22 32 22h106q16 0 20 -5.5t1 -16.5z" />
    <glyph glyph-name="afii10058" unicode="&#x409;" horiz-adv-x="796" 
d="M312 25l100 505h-79l-54 -213q-9 -38 -25 -92q-27 -97 -62 -146q-67 -98 -181 -93q-24 0 -30 6t-4 22l10 76q1 11 5.5 14.5t26.5 10.5q46 16 67 62q22 47 66 216l64 248q6 23 33 23h323q25 0 20 -23l-44 -227h72q178 0 178 -164q0 -124 -75 -187q-73 -63 -182 -63h-205
q-28 0 -24 25zM587 285h-64l-30 -154h61q38 0 61.5 28t23.5 76q0 50 -52 50z" />
    <glyph glyph-name="afii10059" unicode="&#x40a;" horiz-adv-x="777" 
d="M519 0h-204q-15 0 -20 4.5t-3 16.5l50 255h-112l-51 -252q-1 -5 -1.5 -6.5t-2.5 -6t-4.5 -6.5t-7.5 -3.5t-12 -1.5h-107q-12 0 -18.5 7t-3.5 19l122 615q5 23 30 23h107q25 0 20 -23l-44 -229h111l45 229q5 23 30 23h107q26 0 21 -23l-44 -228h71q179 0 179 -163
q0 -123 -75 -186.5t-183 -63.5zM566 284h-64l-31 -153h62q38 0 61.5 28t23.5 75q0 27 -12.5 38.5t-39.5 11.5z" />
    <glyph glyph-name="afii10060" unicode="&#x40b;" horiz-adv-x="649" 
d="M636 254l-45 -230q-5 -24 -30 -24h-105q-27 0 -21 24l43 226q15 71 -37 71q-33 0 -107 -33l-51 -264q-4 -17 -16 -22q-8 -2 -14 -2h-106q-28 0 -22 24l98 506h-118q-11 0 -16 2.5t-6 7.5t1 13l18 87q1 8 3 12.5t8.5 8t18.5 3.5h452q23 0 20 -22l-17 -89q-2 -8 -4 -12
t-8.5 -7.5t-17.5 -3.5h-177l-20 -106q82 30 132 30q55 0 89.5 -16t47 -43.5t15 -64t-7.5 -76.5z" />
    <glyph glyph-name="afii10061" unicode="&#x40c;" horiz-adv-x="535" 
d="M416 345l-1 -4q54 -24 62 -122l15 -194q1 -13 -6 -19t-21 -6h-93q-24 0 -31 6t-9 30l-8 171q-2 39 -16 54.5t-41 15.5h-39l-48 -254l-1 -3q-7 -20 -27 -20h-109q-14 0 -18.5 5t-2.5 17l121 620q2 8 4 12t8 7t17 3h108q26 0 19 -22l-45 -232h32q52 0 84 68l71 156
q8 17 16.5 23t27.5 6h103q26 0 16 -25l-79 -170q-45 -99 -109 -123zM530 789l-165 -80q-21 -11 -33 9l-27 40q-7 12 12 27l164 115q21 14 29 -7l34 -74q8 -20 -14 -30z" />
    <glyph glyph-name="uni040D" unicode="&#x40d;" horiz-adv-x="582" 
d="M27 26l119 616q2 8 4 12t8 7t17 3h108q23 0 19 -22l-63 -327h5l46 68l183 254q19 27 49 27h93q25 0 20 -21l-121 -622q-2 -21 -28 -21h-109q-25 0 -20 21l65 337h-3q-33 -49 -46 -66l-193 -265q-20 -27 -52 -27h-82q-24 0 -19 26zM278 828l53 66q16 19 29 8l132 -120
q10 -10 3 -25l-38 -44q-14 -14 -26 -7l-147 91q-21 10 -6 31z" />
    <glyph glyph-name="afii10062" unicode="&#x40e;" horiz-adv-x="532" 
d="M301 324l5 1l73 157l76 148q8 15 11.5 20t12 9.5t22.5 4.5h109q24 0 14 -22l-257 -476q-31 -56 -46 -78q-16 -27 -44 -56q-51 -52 -133 -52q-38 0 -70 9q-20 7 -25 15.5t1 24.5l16 50q5 14 11.5 18t21.5 4q66 -5 92 35l12 18l-93 485q-4 25 20 25h105q20 0 27 -4.5
t8 -19.5l17 -146q14 -131 14 -170zM380 691q-55 0 -98 31.5t-55 85.5q-7 28 10 42l37 29q19 10 23.5 9t13.5 -15q25 -44 43 -60t44 -16q45 0 108 72q20 26 42 8l30 -23q10 -13 9 -19.5t-14 -24.5q-39 -57 -90 -88t-103 -31z" />
    <glyph glyph-name="afii10145" unicode="&#x40f;" horiz-adv-x="553" 
d="M450 0h-127l-32 -130q-6 -22 -13 -28t-25 -6h-76q-19 0 -24 5t-2 23l21 136h-129q-12 0 -17.5 3.5t-5.5 8.5t1 10l120 620q4 22 30 22h107q15 0 19 -5t1 -17l-98 -507h145l98 507q4 22 29 22h107q27 0 21 -22l-120 -620q-3 -12 -8 -17t-22 -5z" />
    <glyph glyph-name="afii10017" unicode="&#x410;" horiz-adv-x="552" 
d="M366 31l-4 118h-150l-52 -122q-10 -27 -41 -27h-105q-28 0 -15 28l282 607q11 21 19 25q10 4 27 4h117q17 0 24 -6.5t9 -22.5l50 -607q1 -28 -21 -28h-109q-18 0 -24 6.5t-7 24.5zM359 499h-4q-2 -7 -38 -97l-51 -130h90v118q0 64 3 109z" />
    <glyph glyph-name="afii10018" unicode="&#x411;" horiz-adv-x="508" 
d="M251 0h-206q-25 0 -21 21l121 621q4 22 28 22h342q25 0 21 -22l-18 -92q-1 -7 -3 -11t-9 -7t-18 -3h-207q-6 -25 -22 -115h72q96 0 137 -47t41 -116q0 -122 -76 -186q-76 -65 -182 -65zM298 285h-65q-4 -24 -17 -86q-3 -14 -6 -30.5t-5 -25t-2 -12.5h61q39 0 62.5 27.5
t23.5 74.5q0 52 -52 52z" />
    <glyph glyph-name="afii10019" unicode="&#x412;" horiz-adv-x="537" 
d="M336 530h-59l-24 -122h64q28 0 47.5 22.5t19.5 55.5q0 44 -48 44zM200 134h73q38 0 60 26t22 66q0 53 -54 53h-73l-14 -73zM171 664h205q173 0 173 -140q0 -43 -19 -87q-25 -58 -94 -86v-2q0 -1 -1 -2q79 -32 79 -128q0 -106 -73 -162.5t-201 -56.5h-197q-13 0 -18 4.5
t-5 16.5l121 621q4 22 30 22z" />
    <glyph glyph-name="afii10020" unicode="&#x413;" horiz-adv-x="442" 
d="M489 530h-211l-98 -508q-4 -22 -31 -22h-101q-16 0 -21.5 5.5t-3.5 16.5l120 621q5 21 31 21h341q24 0 21 -21l-18 -91q-4 -22 -29 -22z" />
    <glyph glyph-name="afii10021" unicode="&#x414;" horiz-adv-x="635" 
d="M424 -130l19 130h-309l-35 -130q-5 -18 -12 -23t-25 -5h-76q-17 0 -22 7t-2 27l33 213q5 29 33 36l39 9q50 42 88 160q24 74 31 103q16 55 32 124l27 108q8 35 45 35h345q24 0 20 -22l-99 -511l37 -4q29 -4 20 -33q-14 -61 -52 -218q-4 -21 -11 -27.5t-25 -6.5h-73
q-19 0 -25 5.5t-3 22.5zM236 135h163l77 398h-106l-56 -211q-23 -114 -78 -187z" />
    <glyph glyph-name="afii10022" unicode="&#x415;" horiz-adv-x="476" 
d="M454 113l-19 -92q-2 -8 -3.5 -11t-7 -6.5t-16.5 -3.5h-363q-25 0 -21 21l121 621q2 8 4 12t8 7t17 3h337q22 0 19 -19l-17 -88q-5 -27 -28 -27h-205l-23 -118h190q23 0 18 -21l-17 -90q-1 -8 -2.5 -11.5t-7.5 -7t-17 -3.5h-189l-29 -145h233q22 0 18 -21z" />
    <glyph glyph-name="afii10024" unicode="&#x416;" horiz-adv-x="797" 
d="M687 345l-1 -4q55 -22 63 -122l14 -194q1 -13 -5.5 -19t-20.5 -6h-95q-26 0 -33 6.5t-8 29.5l-8 171q-2 39 -15.5 54.5t-39.5 15.5h-26l-49 -254q0 -1 -1 -5t-2 -5.5l-3 -4.5t-4 -4.5t-6.5 -2.5t-10.5 -1h-108q-25 0 -21 22l49 255h-18q-26 0 -45.5 -15.5t-36.5 -54.5
l-76 -171q-9 -23 -18 -29.5t-34 -6.5h-102q-31 0 -18 25l90 194q45 100 111 122l1 4q-56 22 -64 123l-12 170q0 13 5.5 19t20.5 6h103q18 0 25 -6t8 -23l9 -156q5 -68 56 -68h21l45 232q4 22 30 22h108q28 0 18 -22l-45 -232h22q52 0 81 68l73 156q7 17 15.5 23t27.5 6h103
q26 0 16 -25l-79 -170q-44 -99 -110 -123z" />
    <glyph glyph-name="afii10025" unicode="&#x417;" horiz-adv-x="489" 
d="M209 128q51 0 81 27t30 76q0 36 -29.5 47.5t-106.5 11.5q-16 0 -20 4.5t-2 17.5l15 75q3 15 9.5 20t21.5 5q82 0 117.5 18t35.5 60q0 52 -66 52q-59 0 -141 -15q-39 -7 -39 19l-1 60q0 20 24 33q68 39 191 39q94 0 143 -41.5t49 -112.5q0 -51 -28.5 -96.5t-76.5 -69.5
l-1 -6q27 -12 45.5 -48t18.5 -77q0 -115 -82 -176q-81 -60 -203 -60q-51 0 -110 10q-62 11 -81 33q-13 13 -3 34l21 60q9 20 42 14q87 -14 146 -14z" />
    <glyph glyph-name="afii10026" unicode="&#x418;" horiz-adv-x="582" 
d="M27 26l119 616q2 8 4 12t8 7t17 3h108q23 0 19 -22l-63 -327h5l46 68l183 254q19 27 49 27h93q25 0 20 -21l-121 -622q-2 -21 -28 -21h-109q-25 0 -20 21l65 337h-3q-33 -49 -46 -66l-193 -265q-20 -27 -52 -27h-82q-24 0 -19 26z" />
    <glyph glyph-name="afii10027" unicode="&#x419;" horiz-adv-x="582" 
d="M27 26l119 616q2 8 4 12t8 7t17 3h108q23 0 19 -22l-63 -327h5l46 68l183 254q19 27 49 27h93q25 0 20 -21l-121 -622q-2 -21 -28 -21h-109q-25 0 -20 21l65 337h-3q-33 -49 -46 -66l-193 -265q-20 -27 -52 -27h-82q-24 0 -19 26zM405 698q-55 0 -98 31.5t-55 85.5
q-7 28 10 42l37 29q19 10 23.5 9t13.5 -15q25 -44 43 -60t44 -16q45 0 108 72q20 26 42 8l30 -23q10 -13 9 -19.5t-14 -24.5q-39 -57 -90 -88t-103 -31z" />
    <glyph glyph-name="afii10028" unicode="&#x41a;" horiz-adv-x="535" 
d="M416 345l-1 -4q54 -24 62 -122l15 -194q1 -13 -6 -19t-21 -6h-93q-24 0 -31 6t-9 30l-8 171q-2 39 -16 54.5t-41 15.5h-39l-48 -254l-1 -3q-7 -20 -27 -20h-109q-14 0 -18.5 5t-2.5 17l121 620q2 8 4 12t8 7t17 3h108q26 0 19 -22l-45 -232h32q52 0 84 68l71 156
q8 17 16.5 23t27.5 6h103q26 0 16 -25l-79 -170q-45 -99 -109 -123z" />
    <glyph glyph-name="afii10029" unicode="&#x41b;" horiz-adv-x="549" 
d="M419 530h-84l-54 -213q-9 -38 -25 -92q-27 -97 -62 -146q-67 -98 -181 -93q-24 0 -30 6t-4 22l10 76q1 11 5.5 14.5t26.5 10.5q46 16 67 62q22 47 66 216l64 248q5 23 33 23h327q26 0 21 -23l-120 -619q-2 -22 -30 -22h-107q-26 0 -22 24z" />
    <glyph glyph-name="afii10030" unicode="&#x41c;" horiz-adv-x="665" 
d="M717 643l-120 -622q-5 -21 -29 -21h-103q-14 0 -19 5.5t-3 15.5l54 280q-2 0 -4 1l-38 -68l-58 -99q-16 -25 -40 -25h-52q-29 0 -33 24l-24 105l-6 34l-5 33q-1 -1 -3 -1l-55 -284q-5 -21 -32 -21h-98q-29 0 -24 21l120 622q5 21 32 21h83q22 0 29.5 -4.5t10.5 -18.5
l29 -135l37 -192h6q18 38 112 192l83 134q15 24 51 24h80q24 0 19 -21z" />
    <glyph glyph-name="afii10031" unicode="&#x41d;" horiz-adv-x="553" 
d="M605 642l-120 -621q-5 -21 -30 -21h-106q-15 0 -20 5t-2 16l49 256h-144l-49 -256q-5 -21 -29 -21h-107q-25 0 -21 21l120 621q4 22 30 22h107q24 0 20 -22l-44 -230h144l44 230q4 22 31 22h106q16 0 20 -5.5t1 -16.5z" />
    <glyph glyph-name="afii10032" unicode="&#x41e;" horiz-adv-x="588" 
d="M390 672q115 0 162 -56q46 -55 46 -150q0 -35 -11 -115q-51 -360 -326 -360q-203 0 -203 205q0 55 16 147q60 329 316 329zM366 534q-49 0 -78 -47.5t-50 -156.5q-14 -76 -14 -114q0 -86 63 -86q52 0 82.5 46.5t51.5 153.5q14 78 14 117q0 46 -16 66.5t-53 20.5z" />
    <glyph glyph-name="afii10033" unicode="&#x41f;" horiz-adv-x="561" 
d="M614 641l-120 -620q-4 -21 -29 -21h-106q-15 0 -20 5t-2 16l98 507h-156l-98 -507q-2 -21 -29 -21h-106q-16 0 -20.5 5t-1.5 16l120 620q5 23 30 23h421q29 0 19 -23z" />
    <glyph glyph-name="afii10034" unicode="&#x420;" horiz-adv-x="484" 
d="M289 243h-66l-44 -222q-2 -21 -28 -21h-107q-14 0 -19 4.5t-3 16.5l121 621q4 22 30 22h196q82 0 127 -42.5t45 -124.5q0 -44 -12 -85.5t-39 -81t-79 -63.5t-122 -24zM325 530h-47l-30 -157h48q37 0 59.5 27t22.5 75q0 55 -53 55z" />
    <glyph glyph-name="afii10035" unicode="&#x421;" horiz-adv-x="507" 
d="M389 672q101 0 162 -32q29 -17 19 -44l-22 -58q-6 -15 -15 -19t-29 -1q-82 9 -122 9q-57 0 -90 -48.5t-52 -146.5q-13 -65 -13 -105q0 -48 18.5 -70.5t60.5 -22.5q54 0 141 9q21 2 28 -2t8 -18l2 -53q2 -29 -37 -46q-72 -33 -183 -33q-205 0 -205 232q0 41 9 109
q51 340 320 340z" />
    <glyph glyph-name="afii10036" unicode="&#x422;" horiz-adv-x="457" 
d="M549 641l-17 -89q-6 -22 -32 -22h-115l-98 -508q-4 -22 -28 -22h-107q-15 0 -19.5 5t-2.5 17l98 508h-114q-28 0 -22 22l17 89q5 23 31 23h387q27 0 22 -23z" />
    <glyph glyph-name="afii10037" unicode="&#x423;" horiz-adv-x="532" 
d="M301 324l5 1l73 157l76 148q8 15 11.5 20t12 9.5t22.5 4.5h109q24 0 14 -22l-257 -476q-31 -56 -46 -78q-16 -27 -44 -56q-51 -52 -133 -52q-38 0 -70 9q-20 7 -25 15.5t1 24.5l16 50q5 14 11.5 18t21.5 4q66 -5 92 35l12 18l-93 485q-4 25 20 25h105q20 0 27 -4.5
t8 -19.5l17 -146q14 -131 14 -170z" />
    <glyph glyph-name="afii10038" unicode="&#x424;" horiz-adv-x="726" 
d="M374 598l9 44q3 22 30 22h108q26 0 19 -22l-8 -45q200 -23 200 -212q0 -98 -66 -185q-34 -44 -95 -74t-139 -38l-13 -67q-5 -16 -12 -19q-6 -2 -16 -2h-107q-25 0 -21 21l12 65q-210 18 -210 200q0 71 33 141q19 40 53 77q34 36 92.5 62t130.5 32zM334 390l16 82
q-56 -10 -90.5 -56t-34.5 -113q0 -78 74 -92l7 35t9 47zM507 473l-51 -261q51 8 85 53q35 47 35 115q0 80 -69 93z" />
    <glyph glyph-name="afii10039" unicode="&#x425;" horiz-adv-x="503" 
d="M304 21l-38 184l-108 -182q-14 -23 -44 -23h-116q-13 0 -17 8t4 20l219 317l-89 291q-4 11 3.5 19.5t20.5 8.5h105q19 0 25 -3.5t8 -17.5l34 -165l97 163q12 23 41 23h119q14 0 17.5 -8.5t-3.5 -17.5l-208 -293l96 -319q8 -26 -25 -26h-105q-32 0 -36 21z" />
    <glyph glyph-name="afii10040" unicode="&#x426;" horiz-adv-x="580" 
d="M372 -129l20 129h-350q-12 0 -17.5 3.5t-5 8.5t1.5 10l120 620q2 22 30 22h108q27 0 19 -22l-98 -507h144l98 507q4 22 28 22h109q15 0 19 -5t1 -17l-98 -504l41 -6q27 -4 21 -33l-55 -223q-5 -21 -12 -27.5t-25 -6.5h-73q-17 0 -22.5 6t-3.5 23z" />
    <glyph glyph-name="afii10041" unicode="&#x427;" horiz-adv-x="535" 
d="M376 384l50 258q6 22 31 22h107q26 0 20 -22l-120 -620q-2 -8 -4 -12t-8 -7t-17 -3h-106q-13 0 -19 6t-4 16l44 229q-63 -22 -124 -22q-96 0 -133 48q-16 22 -20 54q-6 56 9 128l35 182q5 23 30 23h106q26 0 21 -23l-33 -170q-15 -52 -8 -79t42 -27q48 0 101 19z" />
    <glyph glyph-name="afii10042" unicode="&#x428;" horiz-adv-x="768" 
d="M815 642l-120 -620q-4 -22 -28 -22h-625q-12 0 -17.5 3.5t-5 8.5t1.5 10l120 620q2 22 30 22h107q15 0 19 -5t1 -17l-98 -507h99l98 507q4 22 29 22h109q24 0 20 -22l-98 -507h102l98 507q4 22 30 22h109q23 0 19 -22z" />
    <glyph glyph-name="afii10043" unicode="&#x429;" horiz-adv-x="796" 
d="M588 -129l20 129h-566q-12 0 -17.5 3.5t-5 8.5t1.5 10l120 620q2 22 30 22h107q15 0 19 -5t1 -17l-98 -507h99l98 507q4 22 29 22h109q24 0 20 -22l-98 -507h102l98 507q4 22 30 22h109q23 0 19 -22l-98 -504l40 -6q29 -5 22 -31l-56 -225q-5 -21 -12 -27.5t-24 -6.5h-74
q-18 0 -23 5.5t-2 23.5z" />
    <glyph glyph-name="afii10044" unicode="&#x42a;" horiz-adv-x="639" 
d="M424 286h-64l-30 -154h61q38 0 61.5 28t23.5 74q0 52 -52 52zM429 642l-44 -228h71q178 0 178 -162q0 -124 -75 -189q-75 -63 -182 -63h-206q-15 0 -19 4.5t-2 17.5l98 508h-147q-14 -1 -19 4.5t-2 15.5l18 91q5 23 29 23h282q24 0 20 -22z" />
    <glyph glyph-name="afii10045" unicode="&#x42b;" horiz-adv-x="753" 
d="M803 642l-121 -621q-4 -21 -29 -21h-107q-28 0 -21 21l120 621q3 22 29 22h108q25 0 21 -22zM300 285h-64l-30 -154h62q37 0 61 28t24 75q0 51 -53 51zM254 0h-206q-25 0 -21 22l121 620q4 22 29 22h109q24 0 20 -22l-45 -228h71q179 0 179 -164q0 -83 -38 -142
q-72 -108 -219 -108z" />
    <glyph glyph-name="afii10046" unicode="&#x42c;" horiz-adv-x="508" 
d="M298 285h-64l-30 -154h62q37 0 61 28t24 75q0 51 -53 51zM252 0h-206q-26 0 -21 23l121 619q3 22 29 22h109q24 0 20 -22l-45 -228h71q179 0 179 -164q0 -83 -38 -142q-72 -108 -219 -108z" />
    <glyph glyph-name="afii10047" unicode="&#x42d;" horiz-adv-x="514" 
d="M194 -9q-104 0 -161 33q-30 18 -20 46l23 54q9 24 44 20q86 -11 130 -11q92 0 132 148h-175q-21 0 -18 21l17 84q3 22 26 22h174q16 120 -77 120q-63 0 -127 -10q-39 -8 -39 20l1 57q0 25 38 45q69 32 169 32q59 0 99.5 -16.5t62 -47t30.5 -66.5t9 -84q0 -52 -6 -104
q-7 -57 -21.5 -107t-41 -98t-62 -82t-89 -55t-118.5 -21z" />
    <glyph glyph-name="afii10048" unicode="&#x42e;" horiz-adv-x="795" 
d="M303 278h-73l-50 -256q-4 -22 -28 -22h-107q-26 0 -22 22l120 620q4 22 30 22h108q24 0 20 -22l-45 -231h74q76 259 289 259q110 0 153.5 -54t43.5 -149q0 -55 -9 -119q-14 -106 -57 -194q-74 -159 -259 -163q-194 0 -194 213q0 38 6 74zM595 532q-44 0 -71 -46.5
t-48 -155.5q-14 -70 -14 -116q0 -85 55 -85q47 0 75 46.5t49 154.5q15 74 15 119q0 43 -14.5 63t-46.5 20z" />
    <glyph glyph-name="afii10049" unicode="&#x42f;" horiz-adv-x="529" 
d="M179 298l2 6q-33 15 -51 49t-18 76q0 63 22.5 111.5t60.5 74.5q71 49 162 49h202q25 0 21 -21l-112 -620q-5 -23 -29 -23h-109q-23 0 -22 22l47 239h-34q-40 0 -73 -69l-75 -163q-10 -19 -19 -24t-33 -5h-96q-30 0 -20 25l83 180q34 76 91 93zM379 385l27 145h-54
q-31 0 -54.5 -25.5t-23.5 -69.5q0 -50 57 -50h48z" />
    <glyph glyph-name="afii10065" unicode="&#x430;" horiz-adv-x="489" 
d="M360 462h1q1 1 2 1l4 15q4 16 23 16h97q21 0 17 -24l-88 -448q-4 -22 -27 -22h-102q-18 0 -18 13q0 3 2.5 13.5t2.5 11.5h-2l-2 1q-56 -46 -126 -46q-59 0 -86 31.5t-27 93.5q0 61 10 120q17 103 61 174q51 83 148 83q70 0 110 -33zM277 357q-65 0 -84 -114
q-7 -39 -7 -60q0 -29 7.5 -39.5t26.5 -10.5q28 0 75 25l36 186q-25 13 -54 13z" />
    <glyph glyph-name="afii10066" unicode="&#x431;" 
d="M279 361q-30 0 -61 -14q-15 -43 -25 -92q-10 -51 -10 -81q0 -52 43 -52q61 0 81 107q10 44 10 81q0 51 -38 51zM202 -9q-170 0 -170 161q0 50 13 127q28 155 79 249.5t144 139.5q74 35 182 60q29 8 34 -12l16 -74q4 -21 -20 -30l-45 -13q-36 -10 -52 -16q-47 -17 -58 -22
q-23 -10 -44.5 -32.5t-32.5 -53.5l4 -2q37 18 76 18q141 0 141 -160q0 -47 -10 -104q-42 -236 -257 -236z" />
    <glyph glyph-name="afii10067" unicode="&#x432;" 
d="M214 302l-36 -177q18 -7 55 -7q36 0 57 16.5t22 44.5q0 40 -47 40h-10q-13 0 -16 4t-1 15l9 46q5 21 21 22q53 7 55 42q0 14 -11 24t-28 10q-53 0 -70 -80zM221 -8q-129 0 -180 33q-24 15 -17 51l44 242q36 188 228 188q78 0 124 -35t44 -94q-1 -66 -58 -101h-1
q57 -25 57 -101q-2 -71 -62 -127q-59 -56 -179 -56z" />
    <glyph glyph-name="afii10068" unicode="&#x433;" horiz-adv-x="408" 
d="M271 504q76 0 117 -30.5t40 -87.5q-4 -101 -72 -144q-57 -37 -142 -50q-15 -3 -24.5 -7t-17.5 -15.5t-8 -28.5q-2 -26 51 -26q51 0 126 13q19 4 25 0.5t6 -18.5l-1 -47q-1 -20 -9.5 -30t-34.5 -19q-60 -23 -143 -23q-84 0 -127.5 29.5t-41.5 91.5q1 86 49 137
q21 21 50 35q43 22 110 34q57 12 58 40q0 26 -35 24q-29 0 -126 -12q-19 -2 -25.5 1.5t-6.5 17.5l1 48q0 17 9.5 26.5t34.5 18.5q59 22 137 22z" />
    <glyph glyph-name="afii10069" unicode="&#x434;" horiz-adv-x="467" 
d="M260 339q-26 0 -44 -28q-31 -48 -31 -126q-1 -61 49 -61q23 0 41.5 21.5t27.5 57.5q17 62 22 118q-28 18 -65 18zM252 469q53 0 91 -22q2 18 2 33q0 58 -23 80.5t-78 23.5q-30 0 -58 -2q-31 0 -31 25v51q-1 18 5.5 25.5t28.5 14.5q51 12 92 12q100 1 152 -58t52 -180
q-1 -71 -13 -146q-10 -56 -14 -72q-8 -37 -19 -73q-14 -44 -31 -73q-69 -117 -190 -117q-105 0 -146 53.5t-37 132.5q2 71 27 142q54 150 190 150z" />
    <glyph glyph-name="afii10070" unicode="&#x435;" horiz-adv-x="449" 
d="M301 503q68 0 111 -33.5t43 -94.5q0 -181 -274 -193q-2 -10 -2 -21q0 -26 12 -36t44 -10q47 0 133 10q21 3 21 -21q0 -6 -0.5 -22t-0.5 -22q0 -28 -22 -40q-52 -30 -168 -30q-165 0 -165 165q0 39 7 80q17 101 69 175q64 93 192 93zM307 351q0 34 -35 34q-26 0 -41 -18.5
t-28 -59.5l-6 -25q110 9 110 69z" />
    <glyph glyph-name="afii10072" unicode="&#x436;" horiz-adv-x="838" 
d="M510 165h-2l-73 -148q-9 -18 -35 -18h-51q-25 0 -21 22l30 117q22 84 30 122l-2 1q-3 -4 -11.5 -18t-19 -31.5t-21.5 -36.5q-24 -41 -56 -91q-64 -93 -186 -93q-51 0 -90 17q-20 11 -20 24l5 20l17 54q9 24 35 16q24 -4 67 -4q70 0 93 126q6 35 7 48q4 84 -74 84
q-20 0 -45 -4t-25 19l3 57q1 26 30 39q41 15 90 15q156 0 157 -166l3 -1l85 139q12 19 36 19h52q22 0 18 -22l-52 -211h3l91 141q68 101 179 101q63 0 99 -18q20 -11 13 -37l-19 -59q-7 -22 -28 -19q-27 3 -50 3q-51 0 -76 -28.5t-40 -93.5q-7 -38 -8 -55q-5 -75 72 -76
l54 2q11 0 15 -0.5t7.5 -5t3.5 -14.5l-3 -43q0 -2 -0.5 -8t-0.5 -8t-1 -6.5t-2 -6t-2.5 -5.5t-4 -5.5t-6 -4.5t-8.5 -5.5t-11 -4.5q-38 -13 -83 -13q-85 0 -130 44t-38 130z" />
    <glyph glyph-name="afii10073" unicode="&#x437;" horiz-adv-x="398" 
d="M270 505q69 0 111.5 -28.5t42.5 -86.5q0 -90 -93 -128l1 -1v-1q60 -26 60 -88q0 -102 -75 -144q-65 -36 -138 -36q-54 0 -101 10q-49 11 -68 27q-16 13 -8 33l18 43q9 23 28 19q60 -12 110 -12q37 0 56 15t19 38q0 22 -14 30t-61 11q-22 2 -18 15l11 63q4 18 24 18
q88 0 88 46q0 33 -56 33q-24 0 -90 -8q-36 -11 -36 23l-1 45q0 21 19 31q27 15 77 24q51 9 94 9z" />
    <glyph glyph-name="afii10074" unicode="&#x438;" 
d="M265 22l4 22l-4 2q-65 -54 -133 -54q-79 0 -98 44q-12 34 -9 65q3 35 12 78l56 293q4 22 30 22h100q14 0 18.5 -5t2.5 -17l-51 -263q-8 -48 -2 -61q16 -30 101 11l61 314q1 21 30 21h99q14 0 18 -5t2 -17l-88 -450q-3 -22 -27 -22h-102q-24 0 -20 22z" />
    <glyph glyph-name="afii10075" unicode="&#x439;" 
d="M265 22l4 22l-4 2q-65 -54 -133 -54q-79 0 -98 44q-12 34 -9 65q3 35 12 78l56 293q4 22 30 22h100q14 0 18.5 -5t2.5 -17l-51 -263q-8 -48 -2 -61q16 -30 101 11l61 314q1 21 30 21h99q14 0 18 -5t2 -17l-88 -450q-3 -22 -27 -22h-102q-24 0 -20 22zM308 545
q-55 0 -98 31.5t-55 85.5q-7 28 10 42l37 29q19 10 23.5 9t13.5 -15q25 -44 43 -60t44 -16q45 0 108 72q20 26 42 8l30 -23q10 -13 9 -19.5t-14 -24.5q-39 -57 -90 -88t-103 -31z" />
    <glyph glyph-name="afii10076" unicode="&#x43a;" horiz-adv-x="443" 
d="M337 255v-3q31 -9 46 -34.5t19 -79.5l9 -115q2 -23 -21 -23h-87q-20 -1 -29 3.5t-14 25.5l-7 101q-4 37 -12.5 49.5t-31.5 12.5h-19l-33 -171q-5 -21 -24 -21h-107q-22 0 -18 21l87 451q3 22 26 22h108q20 0 16 -22l-30 -153h14q33 0 62 54l44 85q12 23 20.5 29t30.5 6
h93q10 0 13 -8t-3 -16l-56 -112q-45 -90 -96 -102z" />
    <glyph glyph-name="afii10077" unicode="&#x43b;" horiz-adv-x="494" 
d="M260 494h243q24 0 20 -22l-87 -451q-1 -8 -2.5 -11t-8 -6.5t-18.5 -3.5h-101q-14 0 -18 4.5t-2 16.5l68 350h-69l-51 -177q-29 -106 -68 -153q-44 -54 -155 -54q-17 0 -21.5 5t-2.5 18l8 67q2 10 8 15.5t22 11.5q33 10 47 31q13 21 30 74l63 216q11 39 32 54t63 15z" />
    <glyph glyph-name="afii10078" unicode="&#x43c;" horiz-adv-x="555" 
d="M291 235h4q17 36 55 94l90 143q14 21 44 21h88q21 0 18 -20l-88 -452q-4 -21 -26 -21h-98q-24 0 -19 21l39 198h-3l-76 -122q-12 -21 -29 -21h-46q-9 0 -13.5 2.5t-6 5.5t-3.5 12l-29 123h-2l-39 -198q-5 -21 -26 -21h-96q-23 0 -19 21l88 451q3 21 26 21h82
q19 0 25.5 -4t8.5 -17l33 -139q10 -41 18 -98z" />
    <glyph glyph-name="afii10079" unicode="&#x43d;" horiz-adv-x="478" 
d="M513 470l-87 -448q-4 -22 -25 -22h-108q-22 0 -18 22l34 177h-115l-34 -177q-4 -22 -24 -22h-109q-22 0 -18 22l87 448q4 24 27 24h109q20 0 15 -24l-30 -156h115l30 156q4 24 27 24h108q21 0 16 -24z" />
    <glyph glyph-name="afii10080" unicode="&#x43e;" 
d="M297 503q174 0 174 -162q0 -39 -9 -89q-42 -260 -259 -260q-170 0 -170 156q0 45 13 106q14 69 42 124q57 121 209 125zM275 372q-32 0 -51.5 -31.5t-30.5 -101.5q-7 -50 -7 -66q0 -50 39 -50q33 0 51.5 28.5t31.5 96.5q10 46 10 73q0 51 -43 51z" />
    <glyph glyph-name="afii10081" unicode="&#x43f;" horiz-adv-x="476" 
d="M246 472l-3 -17l4 -2q64 49 131 49q74 0 97 -42q12 -18 13 -46q4 -42 -9 -109l-55 -284q-4 -21 -29 -21h-102q-25 0 -20 21l54 277q13 63 -30 63q-25 0 -77 -23l-61 -317q-5 -21 -27 -21h-102q-26 0 -21 21l87 451q4 22 30 22h104q20 0 16 -22z" />
    <glyph glyph-name="afii10082" unicode="&#x440;" 
d="M159 0l-4 -2l-33 -172q-1 -5 -2 -7.5t-3.5 -6.5t-8.5 -6t-14 -2h-102q-23 0 -19 22l124 645q3 22 28 22h103q12 0 15.5 -4.5t3.5 -17.5l-3 -16l4 -2q57 48 119 48q60 0 86 -33.5t26 -102.5q0 -44 -8 -106q-22 -138 -76.5 -204t-159.5 -66q-34 0 -76 11zM294 359
q-36 0 -74 -25l-40 -204q28 -9 44 -9q38 0 58 23q20 24 33 102q9 47 9 70q0 43 -30 43z" />
    <glyph glyph-name="afii10083" unicode="&#x441;" horiz-adv-x="408" 
d="M296 503q36 0 76 -10q44 -11 62 -23q14 -10 7 -29l-23 -62q-8 -22 -25 -20q-95 9 -102 9q-35 0 -61 -28t-35 -81q-7 -36 -7 -75q0 -32 12.5 -45.5t40.5 -13.5q58 0 111 8q30 8 30 -17l-1 -56q0 -15 -3.5 -21t-15.5 -14q-22 -15 -73 -24q-49 -9 -92 -9q-89 0 -125.5 38.5
t-36.5 116.5q0 53 6 93q14 104 68 178q63 85 187 85z" />
    <glyph glyph-name="afii10084" unicode="&#x442;" horiz-adv-x="719" 
d="M246 472l-3 -19l1 -1h2q64 51 126 51q83 0 99 -64q82 64 151 64q85 0 104 -64q6 -18 5 -42q-1 -39 -12 -92l-55 -281q-4 -19 -16 -23q-3 -1 -11 -1h-104q-25 0 -20 21l55 278q12 62 -26 62q-25 0 -72 -25l-8 -47l-52 -268q-2 -21 -26 -21h-102q-24 0 -20 21l55 280
q12 60 -27 60q-26 0 -70 -24l-61 -313q-1 -5 -1.5 -6.5t-2.5 -6t-4 -6.5t-7 -3.5t-11 -1.5h-104q-15 0 -19 4.5t-1 16.5l87 451q2 8 4 12t8 7t17 3h102q23 0 19 -22z" />
    <glyph glyph-name="afii10085" unicode="&#x443;" horiz-adv-x="458" 
d="M234 197h4l53 121l71 155q10 21 36 21h100q28 0 13 -26l-328 -641q-8 -15 -15.5 -19t-25.5 -4h-86q-30 0 -17 25l95 184l-58 456q-3 25 25 25h95q15 0 20.5 -4.5t6.5 -17.5l9 -162q4 -64 2 -113z" />
    <glyph glyph-name="afii10086" unicode="&#x444;" horiz-adv-x="625" 
d="M231 117l50 258q-48 -11 -76 -63q-29 -53 -29 -122q0 -66 55 -73zM424 375l-50 -258q45 10 74.5 58t29.5 119q0 70 -54 81zM480 641l-26 -136q167 -17 167 -190q0 -40 -7.5 -79t-26.5 -81.5t-48 -75.5t-77 -57.5t-108 -31.5l-29 -145q-3 -22 -26 -22h-104q-14 0 -17.5 5
t-0.5 18l28 144q-168 10 -168 181q0 50 12.5 100t40.5 101.5t83.5 87t130.5 44.5l27 137q3 13 8.5 18t19.5 5h103q28 0 18 -23z" />
    <glyph glyph-name="afii10087" unicode="&#x445;" horiz-adv-x="454" 
d="M262 17l-34 135l-83 -134q-12 -18 -38 -18h-114q-13 0 -17 7t5 19l173 225l-78 217q-4 10 3 18t19 8h104q20 0 24.5 -4t8.5 -22l27 -120l79 128q11 18 36 18h116q28 0 13 -26l-168 -216l88 -226q4 -10 -3 -18t-20 -8h-109q-27 0 -32 17z" />
    <glyph glyph-name="afii10088" unicode="&#x446;" horiz-adv-x="508" 
d="M132 -8q-79 0 -98 44q-12 34 -9 65q3 35 12 78l56 293q4 22 30 22h100q14 0 18.5 -5t2.5 -17l-51 -263q-7 -48 -1.5 -61t28.5 -13q20 0 72 24l60 312q5 23 27 23h103q23 0 20 -23l-68 -343q0 -7 -1 -16.5t-1 -13t1.5 -9t4.5 -10.5q5 -9 23 -25q23 -19 28 -34
q3 -11 -2 -30l-33 -121q-7 -28 -30 -28h-62q-8 0 -13 1t-9 7.5t-3 19.5l15 115q-46 27 -55 67q-32 -27 -77.5 -43t-87.5 -16z" />
    <glyph glyph-name="afii10089" unicode="&#x447;" horiz-adv-x="460" 
d="M51 328l28 144q4 22 28 22h103q15 0 19 -5t1 -17l-20 -106q-12 -64 -8 -80q5 -17 27 -17q35 0 76 23l35 180q4 22 30 22h102q22 0 18 -22l-87 -451q-3 -12 -8 -16.5t-19 -4.5h-103q-25 0 -20 21l28 146q-65 -30 -120 -30q-74 0 -103 41q-10 18 -15 45q-4 41 8 105z" />
    <glyph glyph-name="afii10090" unicode="&#x448;" horiz-adv-x="719" 
d="M508 22l3 19l-1 1h-2q-64 -51 -126 -51q-83 0 -99 64q-82 -64 -151 -64q-47 0 -70.5 16.5t-34.5 46.5q-5 20 -4 43q1 39 12 92l55 281q4 19 16 23q3 1 11 1h104q25 0 20 -21l-55 -278q-12 -62 26 -62q25 0 72 25l8 47l52 268q2 21 26 21h102q24 0 20 -21l-55 -280
q-12 -60 27 -60q26 0 70 24l61 313q1 5 1.5 6.5t2.5 6t4 6.5t7 3.5t11 1.5h104q15 0 19 -4.5t1 -16.5l-87 -451q-2 -8 -4 -12t-8 -7t-17 -3h-102q-23 0 -19 22z" />
    <glyph glyph-name="afii10091" unicode="&#x449;" horiz-adv-x="753" 
d="M382 -9q-83 0 -99 64q-82 -64 -151 -64q-47 0 -70.5 16.5t-34.5 46.5q-5 20 -4 43q1 39 12 92l55 281q4 19 16 23q3 1 11 1h104q25 0 20 -21l-55 -278q-12 -62 26 -62q25 0 72 25l8 47l52 268q2 21 26 21h102q24 0 20 -21l-55 -280q-12 -60 27 -60q26 0 70 24l60 312
q5 23 27 23h103q23 0 20 -23l-68 -343q0 -7 -1 -16.5t-1 -13t1.5 -9t4.5 -10.5q5 -9 23 -25q23 -19 28 -34q3 -11 -2 -30l-33 -121q-7 -28 -30 -28h-62q-8 0 -12.5 1t-9 7.5t-3.5 19.5l15 115q-46 27 -55 67q-67 -58 -157 -58z" />
    <glyph glyph-name="afii10092" unicode="&#x44a;" horiz-adv-x="567" 
d="M410 353q145 0 145 -138q0 -100 -65 -162t-178 -62q-129 0 -176 29q-26 17 -20 52l57 299h-114q-12 0 -16 4.5t-1 16.5l15 81q4 21 26 21h238q27 0 20 -31l-25 -129q56 19 94 19zM295 217q-12 -62 -20 -97q21 -4 54 -4t49.5 20.5t16.5 50.5q0 44 -38 44q-17 0 -62 -14z
" />
    <glyph glyph-name="afii10093" unicode="&#x44b;" horiz-adv-x="678" 
d="M706 470l-87 -445q-4 -25 -32 -25h-93q-12 0 -19.5 7t-4.5 18l86 445q4 24 34 24h92q28 0 24 -24zM316 353q145 0 145 -138q0 -100 -65 -162t-178 -62q-129 0 -176 29q-26 17 -20 52l75 392q3 18 9 24t24 6h97q27 0 20 -31l-25 -129q56 19 94 19zM201 217
q-12 -62 -20 -97q21 -4 54 -4t49.5 20.5t16.5 50.5q0 44 -38 44q-17 0 -62 -14z" />
    <glyph glyph-name="afii10094" unicode="&#x44c;" 
d="M316 353q145 0 145 -138q0 -100 -65 -162t-178 -62q-129 0 -176 29q-26 17 -20 52l75 392q3 18 9 24t24 6h97q27 0 20 -31l-25 -129q56 19 94 19zM201 217q-12 -62 -20 -97q21 -4 54 -4t49.5 20.5t16.5 50.5q0 44 -38 44q-17 0 -62 -14z" />
    <glyph glyph-name="afii10095" unicode="&#x44d;" horiz-adv-x="410" 
d="M249 504q82 0 123 -45t41 -122q0 -55 -10 -104q-43 -241 -253 -241q-80 0 -124 23q-32 17 -19 46l14 46q5 15 15 19t29 0q58 -8 90 -8q68 0 84 85h-128q-23 2 -17 24l11 56q2 13 7.5 17.5t19.5 4.5h125q9 75 -64 75q-13 0 -42.5 -3t-41.5 -4q-20 -1 -27 4t-7 20l1 44
q0 28 24 38q54 25 149 25z" />
    <glyph glyph-name="afii10096" unicode="&#x44e;" horiz-adv-x="659" 
d="M249 200h-55l-35 -177q-5 -23 -29 -23h-100q-26 0 -21 23l87 447q4 24 30 24h100q24 0 20 -24l-30 -156h57q23 83 77 134q56 54 150 54q87 0 124.5 -43t37.5 -128q0 -30 -7 -79q-12 -94 -62 -171q-58 -89 -188 -89q-159 0 -159 163q0 23 3 45zM478 370q-24 0 -43 -25
t-29 -70q-14 -62 -14 -104q0 -47 37 -47q32 0 50 29t30 94q7 35 7 74q0 49 -38 49z" />
    <glyph glyph-name="afii10097" unicode="&#x44f;" horiz-adv-x="456" 
d="M128 214l1 1v2q-48 22 -53 88q0 96 59 143q58 46 151 46h181q26 0 21 -29l-81 -444q-5 -21 -29 -21h-100q-26 0 -21 21l31 158h-32q-18 0 -31 -13.5t-30 -49.5l-40 -88q-8 -18 -17 -23t-33 -5h-91q-24 0 -15 23l39 96q16 40 36 62t54 33zM309 291l17 88h-52
q-21 0 -35 -17t-14 -41q0 -30 35 -30h49z" />
    <glyph glyph-name="uni0450" unicode="&#x450;" horiz-adv-x="449" 
d="M301 503q68 0 111 -33.5t43 -94.5q0 -181 -274 -193q-2 -10 -2 -21q0 -26 12 -36t44 -10q47 0 133 10q21 3 21 -21q0 -6 -0.5 -22t-0.5 -22q0 -28 -22 -40q-52 -30 -168 -30q-165 0 -165 165q0 39 7 80q17 101 69 175q64 93 192 93zM307 351q0 34 -35 34q-26 0 -41 -18.5
t-28 -59.5l-6 -25q110 9 110 69zM292 561l-99 139q-13 18 8 30l70 43q21 14 29 -3l76 -163q9 -19 -7 -28l-42 -25q-13 -7 -20 -5.5t-15 12.5z" />
    <glyph glyph-name="afii10071" unicode="&#x451;" horiz-adv-x="449" 
d="M301 503q68 0 111 -33.5t43 -94.5q0 -181 -274 -193q-2 -10 -2 -21q0 -26 12 -36t44 -10q47 0 133 10q21 3 21 -21q0 -6 -0.5 -22t-0.5 -22q0 -28 -22 -40q-52 -30 -168 -30q-165 0 -165 165q0 39 7 80q17 101 69 175q64 93 192 93zM307 351q0 34 -35 34q-26 0 -41 -18.5
t-28 -59.5l-6 -25q110 9 110 69zM238 699q60 0 60 -44q0 -96 -87 -96q-60 0 -60 44q0 96 87 96zM423 699q33 0 46.5 -10.5t13.5 -32.5q0 -97 -87 -97q-59 0 -59 45q0 95 86 95z" />
    <glyph glyph-name="afii10099" unicode="&#x452;" horiz-adv-x="537" 
d="M128 612h33l14 71q3 13 8.5 18t18.5 5h100q26 0 21 -23l-12 -71h146q17 0 14 -18l-9 -44q-3 -11 -6.5 -14t-13.5 -3h-147l-20 -100q59 28 117 28q72 0 106 -38.5t34 -119.5q0 -115 -53 -233q-28 -61 -77.5 -112.5t-111.5 -81.5q-36 -22 -50 8l-23 49q-8 19 17 36l7 4l4 3
q56 37 97 124q41 88 41 164q0 31 -14 47t-37 16q-33 0 -83 -24l-54 -281q-4 -22 -26 -22h-103q-26 0 -18 32l97 501h-32q-19 0 -14 18l9 44q2 12 5 14.5t15 2.5z" />
    <glyph glyph-name="afii10100" unicode="&#x453;" horiz-adv-x="408" 
d="M271 504q76 0 117 -30.5t40 -87.5q-4 -101 -72 -144q-57 -37 -142 -50q-15 -3 -24.5 -7t-17.5 -15.5t-8 -28.5q-2 -26 51 -26q51 0 126 13q19 4 25 0.5t6 -18.5l-1 -47q-1 -20 -9.5 -30t-34.5 -19q-60 -23 -143 -23q-84 0 -127.5 29.5t-41.5 91.5q1 86 49 137
q21 21 50 35q43 22 110 34q57 12 58 40q0 26 -35 24q-29 0 -126 -12q-19 -2 -25.5 1.5t-6.5 17.5l1 48q0 17 9.5 26.5t34.5 18.5q59 22 137 22zM341 770l70 -34q20 -10 3 -32l-118 -151q-13 -18 -26 -10l-44 28q-10 7 -3 25l90 165q9 16 28 9z" />
    <glyph glyph-name="afii10101" unicode="&#x454;" horiz-adv-x="415" 
d="M296 503q37 0 76 -9t59 -24q14 -11 7 -29l-20 -54q-8 -22 -25 -20q-90 9 -102 9q-31 0 -54.5 -18.5t-29.5 -53.5h132q14 0 17 -4.5t1 -19.5l-10 -51q-2 -10 -3.5 -14.5t-7.5 -8t-18 -3.5h-130q-4 -47 9.5 -66.5t43.5 -19.5q58 0 111 8q30 8 30 -17l-1 -48q0 -15 -3.5 -21
t-15.5 -14q-22 -15 -73 -24q-49 -9 -92 -9q-162 0 -162 155q0 53 6 93q14 104 68 178q63 85 187 85z" />
    <glyph glyph-name="afii10102" unicode="&#x455;" horiz-adv-x="414" 
d="M267 503q81 0 141 -23q17 -7 22 -16.5t0 -26.5l-14 -49q-4 -15 -11.5 -18t-28.5 0q-80 11 -118 11q-43 0 -43 -37q0 -9 3.5 -14.5t7.5 -7t13 -4.5t14 -6q63 -19 82 -28q34 -15 49.5 -38t18.5 -63q1 -54 -19 -93t-54.5 -60t-73 -30t-83.5 -9q-84 0 -138 23
q-21 9 -25.5 19.5t2.5 28.5l14 48q5 15 13.5 18.5t27.5 -0.5q61 -13 121 -13t61 43q0 25 -38 34q-31 10 -38 11l-33 12q-25 10 -32 16q-51 41 -45 86q-2 98 57 142t147 44z" />
    <glyph glyph-name="afii10103" unicode="&#x456;" horiz-adv-x="238" 
d="M289 624q-16 -76 -93 -76q-43 0 -56 19t-6 57q14 74 91 74q43 0 57 -18t7 -56zM254 472l-87 -451q-5 -21 -29 -21h-96q-29 0 -24 21l87 451q4 22 33 22h96q24 0 20 -22z" />
    <glyph glyph-name="afii10104" unicode="&#x457;" horiz-adv-x="263" 
d="M267 472l-87 -451q-4 -21 -24 -21h-108q-19 0 -19 21l88 451q3 22 26 22h109q19 0 15 -22zM140 692q60 0 60 -44q0 -96 -87 -96q-60 0 -60 44q0 96 87 96zM325 692q33 0 46.5 -10.5t13.5 -32.5q0 -97 -87 -97q-59 0 -59 45q0 95 86 95z" />
    <glyph glyph-name="afii10105" unicode="&#x458;" horiz-adv-x="250" 
d="M236 698q65 0 65 -48q0 -102 -93 -102q-66 0 -66 51q0 45 23.5 72t70.5 27zM266 472l-87 -451q-25 -132 -91 -184q-64 -50 -188 -49q-14 0 -21.5 5.5t-6.5 16.5l10 79q2 13 7 17.5t21 8.5q36 9 52 14q17 6 32 17q16 11 23.5 28.5t14.5 54.5l85 443q4 22 31 22h96
q26 0 22 -22z" />
    <glyph glyph-name="afii10106" unicode="&#x459;" horiz-adv-x="739" 
d="M257 494h235q24 0 20 -30l-25 -130q56 19 93 19q146 0 146 -138q0 -106 -67.5 -165t-188.5 -59q-110 0 -159 28q-32 17 -24 53l57 299h-62l-51 -177q-16 -57 -30 -91q-14 -33 -39 -62q-44 -54 -154 -54q-17 0 -21.5 5t-2.5 18l8 67q2 10 8 15.5t22 11.5q33 10 47 31
q13 21 30 74l63 216q11 39 32 54t63 15zM466 217l-19 -97q21 -4 53 -4t49 20.5t17 50.5q0 44 -39 44q-16 0 -61 -14z" />
    <glyph glyph-name="afii10107" unicode="&#x45a;" horiz-adv-x="703" 
d="M549 342q145 0 145 -138q0 -100 -65 -162t-178 -62q-129 0 -176 29q-26 17 -20 52l27 143h-86l-35 -182q-2 -7 -3.5 -10.5t-7.5 -7.5t-15 -4h-107q-22 0 -18 25l86 445q4 24 28 24h108q22 0 17 -24l-30 -151h85l26 134q3 18 9 24t24 6h97q27 0 20 -31l-25 -129
q56 19 94 19zM434 206q-12 -62 -20 -97q21 -4 54 -4t49.5 20.5t16.5 50.5q0 44 -38 44q-17 0 -62 -14z" />
    <glyph glyph-name="afii10108" unicode="&#x45b;" horiz-adv-x="477" 
d="M259 542l-17 -86l3 -2q65 34 120 34q76 0 102 -42q12 -16 15 -46q4 -42 -9 -109l-52 -269q-4 -22 -28 -22h-101q-24 0 -21 22l51 260q7 41 0 54t-29 13q-33 0 -77 -25l-59 -302q-1 -22 -29 -22h-100q-14 0 -18.5 5t-2.5 17l101 520h-21q-11 0 -13.5 3.5t-0.5 14.5l8 42
q2 11 6 14t15 3h21l12 65q4 22 30 22h101q27 0 20 -22l-12 -65h137q11 0 13.5 -3.5t-0.5 -14.5l-8 -42q-2 -10 -6 -13.5t-13 -3.5h-138z" />
    <glyph glyph-name="afii10109" unicode="&#x45c;" horiz-adv-x="443" 
d="M337 255v-3q31 -9 46 -34.5t19 -79.5l9 -115q2 -23 -21 -23h-87q-20 -1 -29 3.5t-14 25.5l-7 101q-4 37 -12.5 49.5t-31.5 12.5h-19l-33 -171q-5 -21 -24 -21h-107q-22 0 -18 21l87 451q3 22 26 22h108q20 0 16 -22l-30 -153h14q33 0 62 54l44 85q12 23 20.5 29t30.5 6
h93q10 0 13 -8t-3 -16l-56 -112q-45 -90 -96 -102zM354 770l70 -34q20 -10 3 -32l-118 -151q-13 -18 -26 -10l-44 28q-10 7 -3 25l90 165q9 16 28 9z" />
    <glyph glyph-name="uni045D" unicode="&#x45d;" 
d="M265 22l4 22l-4 2q-65 -54 -133 -54q-79 0 -98 44q-12 34 -9 65q3 35 12 78l56 293q4 22 30 22h100q14 0 18.5 -5t2.5 -17l-51 -263q-8 -48 -2 -61q16 -30 101 11l61 314q1 21 30 21h99q14 0 18 -5t2 -17l-88 -450q-3 -22 -27 -22h-102q-24 0 -20 22zM287 561l-99 139
q-13 18 8 30l70 43q21 14 29 -3l76 -163q9 -19 -7 -28l-42 -25q-13 -7 -20 -5.5t-15 12.5z" />
    <glyph glyph-name="afii10110" unicode="&#x45e;" horiz-adv-x="458" 
d="M234 197h4l53 121l71 155q10 21 36 21h100q28 0 13 -26l-328 -641q-8 -15 -15.5 -19t-25.5 -4h-86q-30 0 -17 25l95 184l-58 456q-3 25 25 25h95q15 0 20.5 -4.5t6.5 -17.5l9 -162q4 -64 2 -113zM303 547q-55 0 -96.5 30.5t-53.5 82.5q-9 28 10 41l38 31q18 9 22.5 8
t13.5 -14q24 -42 42 -57.5t45 -15.5q44 0 108 69q12 14 20 15.5t21 -8.5l27 -24q8 -5 8.5 -11.5t-2.5 -12t-11 -16.5q-36 -55 -87 -86.5t-105 -31.5z" />
    </font>
</defs>
</svg>
