<?xml version="1.0" standalone="no"?>
<!DOCTYPE svg PUBLIC "-//W3C//DTD SVG 1.1//EN" "http://www.w3.org/Graphics/SVG/1.1/DTD/svg11.dtd" >
<svg xmlns="http://www.w3.org/2000/svg" xmlns:xlink="http://www.w3.org/1999/xlink" version="1.1">
<metadata>
Created by FontForge 20161013 at Fri Feb 21 21:38:31 2014
 By ,,,
Copyright (c) 2013 Parachute, www.parachute.gr.  All rights reserved.
</metadata>
<defs>
<font id="PFSquareSansCondPro-LightItalic" horiz-adv-x="465" >
  <font-face 
    font-family="PF Square Sans Cond Pro"
    font-weight="300"
    font-style="italic"
    font-stretch="normal"
    units-per-em="1000"
    panose-1="2 11 5 6 0 0 0 9 0 4"
    ascent="800"
    descent="-200"
    x-height="487"
    cap-height="663"
    bbox="-124 -243.556 924 871.556"
    underline-thickness="40"
    underline-position="-180"
    unicode-range="U+0020-FB05"
  />
<missing-glyph horiz-adv-x="379" 
d="M379 0h-379v700h379v-700zM342 620l-129 -270l129 -270v540zM166 350l-129 269v-538zM62 660l127 -270l128 270h-255zM189 309l-127 -269h255z" />
    <glyph glyph-name="fj" unicode="fj" horiz-adv-x="404" 
d="M329 706q65 0 113 -23q8 -5 5 -14l-2 -4q0 -2 -1.5 -5t-2.5 -6l-1 -2q-3 -9 -16 -8q-61 10 -105 10q-45 0 -70.5 -25t-37.5 -81l-12 -61h206q8 0 10.5 -2.5t1.5 -9.5l-101 -534q-13 -68 -50 -106t-123 -36q-3 0 -6 0.5t-5.5 3.5t-1.5 8l3 17q2 13 17 14q58 10 81 33
q21 21 32 72l95 496h-167l-84 -432q-2 -11 -15 -11h-27q-7 0 -10 2.5t-2 8.5l83 432h-42q-12 0 -9 11l3 21q3 12 15 12h42l12 64q30 155 172 155z" />
    <glyph glyph-name="ffj" unicode="ffj" horiz-adv-x="624" 
d="M553 719q69 0 113 -22q9 -5 5 -15l-6 -17q-3 -9 -18 -8q-63 10 -104 10q-45 0 -71 -25t-37 -81l-14 -74h203q8 0 10.5 -2.5t1.5 -9.5l-101 -535q-11 -60 -45 -99q-36 -44 -129 -42q-12 0 -11 13l3 16q2 13 17 14q59 10 82 33q22 21 31 70l95 497h-166l-83 -431
q-2 -11 -15 -11h-27q-7 0 -10 2.5t-2 8.5l84 431h-168l-84 -431q-2 -11 -15 -11h-27q-7 0 -10 2.5t-2 8.5l83 431h-42q-12 0 -9 12l3 21q3 12 15 12h42l12 60q30 155 174 155q71 0 112 -19q41 36 110 36zM321 651q-46 0 -72.5 -25t-38.5 -82l-11 -57h168l15 77q11 51 30 79
q-56 8 -91 8z" />
    <glyph glyph-name="ff" unicode="ff" horiz-adv-x="507" 
d="M532 718q52 0 92 -18q13 -7 8 -16l-7 -17q-5 -12 -18 -9q-40 9 -74 9q-82 0 -100 -93l-17 -87h111q14 0 11 -11l-4 -23q-3 -11 -15 -11h-111l-119 -621q-3 -12 -14 -12h-28q-15 0 -12 12l119 621h-163l-98 -493q-3 -12 -15 -12h-27q-8 0 -11 2.5t-2 9.5l98 493h-41
q-13 0 -11 11l4 22q3 12 16 12h41l12 60q30 155 174 155q61 0 103 -18q38 34 98 34zM321 650q-46 0 -72.5 -25t-38.5 -81l-11 -57h164l17 89q8 40 24 66q-43 8 -83 8z" />
    <glyph glyph-name="fi" unicode="fi" horiz-adv-x="404" 
d="M328 705q71 0 114 -22q9 -5 6 -14l-8 -17q-3 -9 -16 -8q-61 10 -106 10q-43 0 -69 -25t-38 -81l-12 -61h205q12 0 11 -12l-86 -464q-2 -11 -14 -11h-28q-13 0 -11 11l79 431h-164l-121 -623q-2 -11 -15 -11h-27q-8 0 -11 2.5t-2 8.5l121 623h-42q-12 0 -10 11l4 21
q3 13 15 13h42l12 64q30 154 171 154z" />
    <glyph glyph-name="fl" unicode="fl" horiz-adv-x="397" 
d="M324 706q50 0 94 -14l26 8q8 2 11 -1t2 -10l-131 -677q-2 -12 -14 -12h-28q-14 0 -12 12l123 635q-43 7 -80 7q-43 0 -69 -25t-38 -81l-12 -61h109q14 0 11 -13l-4 -21q-3 -11 -15 -11h-109l-126 -622q-2 -12 -15 -12h-28q-13 0 -12 12l126 622h-42q-13 0 -10 11l4 21
q3 13 15 13h42l13 64q30 155 169 155z" />
    <glyph glyph-name="ffi" unicode="ffi" horiz-adv-x="624" 
d="M211 544l-11 -57h168l15 77q11 47 28 79q-50 7 -89 7q-92 0 -111 -106zM545 667q-90 0 -109 -106l-14 -74h204q14 0 11 -12l-89 -464q-2 -11 -14 -11h-27q-8 0 -10.5 2.5t-1.5 8.5l83 431h-165l-121 -622q-2 -11 -14 -11h-27q-8 0 -11 2.5t-2 8.5l121 622h-168l-108 -556
q-2 -11 -15 -11h-27q-8 0 -11 2.5t-2 8.5l108 556h-41q-13 0 -10 11l4 21q1 13 16 13h40l12 60q30 155 175 155q70 0 112 -19q44 35 111 35t110 -22q10 -4 5 -14q0 -2 -3 -9l-3 -8q-5 -9 -18 -8q-59 10 -101 10z" />
    <glyph glyph-name="ffl" unicode="ffl" horiz-adv-x="626" 
d="M357 442h-166l-109 -556q-2 -12 -15 -12h-27q-8 0 -11 2.5t-2 9.5l109 556h-42q-12 0 -9 11l4 21q1 13 15 13h41l12 60q30 155 177 155q65 0 109 -18q41 35 109 35q47 0 92 -14l13 4q13 4 16 4q12 0 10 -11l-130 -690q-1 -12 -15 -12h-26q-8 0 -10.5 2.5t-1.5 9.5
l122 648q-43 7 -80 7q-89 0 -108 -106l-15 -74h110q8 0 10 -3t1 -10l-4 -21q-3 -11 -16 -11h-110l-121 -621q-1 -12 -13 -12h-28q-14 0 -12 12zM200 487h166l15 77q11 46 27 78q-43 8 -84 8q-94 0 -113 -106z" />
    <glyph glyph-name="ft" unicode="ft" horiz-adv-x="476" 
d="M456 38v-16q-1 -10 -11 -14q-31 -16 -89 -16q-49 0 -63 23t-4 76l68 351h-164l-120 -621q-3 -12 -13 -12h-30q-13 0 -10 14l118 619h-41q-13 0 -11 11l5 22q1 12 15 12h41l17 86q28 142 155 142q53 0 90 -18q12 -4 7 -16l-7 -17q-3 -11 -19 -8q-40 8 -74 8q-80 0 -98 -93
l-17 -84h165l16 83q3 10 14 13l29 9q15 6 12 -10l-18 -95h91q12 0 10 -12l-5 -22q-2 -11 -13 -11h-92l-65 -334q-9 -34 -0.5 -50t38.5 -16q15 0 60 5q12 1 13 -9z" />
    <glyph glyph-name=".notdef" horiz-adv-x="379" 
d="M379 0h-379v700h379v-700zM342 620l-129 -270l129 -270v540zM166 350l-129 269v-538zM62 660l127 -270l128 270h-255zM189 309l-127 -269h255z" />
    <glyph glyph-name=".null" horiz-adv-x="0" 
 />
    <glyph glyph-name="nonmarkingreturn" horiz-adv-x="333" 
 />
    <glyph glyph-name="space" unicode=" " horiz-adv-x="224" 
 />
    <glyph glyph-name="exclam" unicode="!" horiz-adv-x="180" 
d="M221 650l-106 -483q-3 -11 -11 -11h-18q-11 0 -8 11l85 483q3 13 14 13h36q9 0 8 -13zM104 30q-6 -40 -43 -40t-29 40q9 38 44 38q21 0 26.5 -9t1.5 -29z" />
    <glyph glyph-name="quotedbl" unicode="&#x22;" horiz-adv-x="218" 
d="M217 483h-11q-10 0 -8 8l22 163q2 9 12 9h29q8 0 8 -9l-41 -163q-2 -8 -11 -8zM140 483h-12q-10 0 -8 8l23 163q1 9 11 9h30q8 0 8 -9l-41 -163q-2 -8 -11 -8z" />
    <glyph glyph-name="numbersign" unicode="#" horiz-adv-x="467" 
d="M399 415l-54 -135h110q9 0 8 -9q0 -29 -17 -29h-117l-98 -233q-5 -9 -11 -9h-22q-10 0 -8 8v2l96 232h-104l-97 -233q-5 -9 -11 -9h-24q-8 0 -7 7v3l97 232h-106q-10 0 -8 9q0 29 19 29h111l55 135h-105q-8 0 -7 7v2l4 21q2 8 14 8h110l83 200q4 9 12 9h23q9 0 7 -8
q-1 -1 -1 -2l-82 -199h106l81 200q6 9 12 9h23q4 0 7 -2t2 -6l-1 -1l-83 -200h108q10 0 8 -9q0 -29 -17 -29h-116zM253 415l-55 -135h104l56 135h-105z" />
    <glyph glyph-name="dollar" unicode="$" 
d="M226 4l-17 -89q-1 -7 -7 -7h-26q-5 0 -7 1t-1 5l17 87q-42 1 -92 11q-49 11 -63 20q-5 3 -2 13l7 20q3 7 13 6q84 -14 147 -16q52 262 50 264q-69 19 -101.5 50t-32.5 86q0 100 58 151q59 52 144 54l16 82q1 7 9 7h27q6 0 5 -7l-16 -82q89 -1 132 -26q6 -4 1 -12l-8 -19
q-6 -11 -13 -10q-88 11 -123 13q-48 -241 -48 -242q59 -18 94 -43q45 -30 45 -102q0 -96 -55.5 -151t-152.5 -64zM284 310l-48 -251q64 6 102 45.5t38 104.5q0 40 -22 63t-70 38zM255 374l45 234q-64 -6 -97.5 -44t-33.5 -103q0 -34 21 -54t65 -33z" />
    <glyph glyph-name="percent" unicode="%" horiz-adv-x="677" 
d="M225 667q104 0 104 -108q0 -60 -15 -124q-10 -45 -29 -85q-20 -40 -57 -67t-83 -27q-100 0 -100 108q0 43 13 104q40 199 167 199zM217 625q-32 0 -57.5 -25.5t-39.5 -65t-21 -81t-7 -80.5q0 -73 61 -73q41 0 73 41q57 78 57 210q0 74 -66 74zM535 405q105 0 105 -109
q0 -7 -2 -37q-9 -85 -26 -130q-21 -59 -59.5 -98t-96.5 -37q-101 0 -101 107q0 35 14 105q37 199 166 199zM527 363q-42 0 -72 -45q-53 -80 -53 -207q0 -74 62 -74q43 0 73 42q56 78 56 209q0 75 -66 75zM551 689l-369 -703q-4 -9 -14 -9h-23q-12 0 -6 11l371 702
q3 10 14 10h23q9 0 4 -11z" />
    <glyph glyph-name="ampersand" unicode="&#x26;" horiz-adv-x="577" 
d="M334 625q-53 0 -71 -51q-14 -37 -14 -78q0 -44 15 -78q123 72 123 147q0 27 -14.5 43.5t-38.5 16.5zM358 102q-74 112 -125 251q-155 -89 -155 -215q0 -50 28 -76t76 -26q82 0 176 66zM384 67q-110 -77 -206 -77q-70 0 -111 35t-41 101q0 82 47 147t144 123
q-21 50 -21 115q0 74 40 118t101 44q47 0 75 -26t28 -68q0 -107 -161 -205q33 -98 119 -238q114 111 160 252q1 10 15 10h18q9 0 8 -15q-16 -69 -69 -152q-50 -79 -106 -133q16 -22 51 -57q40 -38 54 -50q10 -7 0 -17l-13 -14q-9 -10 -18 -4q-21 11 -56 45q-38 38 -58 66z
" />
    <glyph glyph-name="quotesingle" unicode="'" horiz-adv-x="161" 
d="M150 483h-16q-6 0 -6 8l23 163q5 9 12 9h30q8 0 8 -7v-2l-42 -163q-2 -8 -9 -8z" />
    <glyph glyph-name="parenleft" unicode="(" horiz-adv-x="236" 
d="M273 700q8 8 13 4l12 -8q6 -5 1 -13q-81 -105 -131 -253q-51 -148 -51 -314q0 -119 34 -206q1 -7 -7 -12l-13 -7q-12 -5 -13 2q-53 114 -53 246q0 179 57 313q58 136 151 248z" />
    <glyph glyph-name="parenright" unicode=")" horiz-adv-x="237" 
d="M159 683q-3 6 6 12l13 8q10 4 13 -3q54 -118 54 -250q0 -303 -209 -557q-6 -8 -14 -3l-11 7q-6 5 -1 13q77 103 130 253q53 153 53 311q0 122 -34 209z" />
    <glyph glyph-name="asterisk" unicode="*" horiz-adv-x="272" 
d="M238 662h10q12 0 9 -10l-13 -81l69 36q10 4 14 -6l4 -10q5 -6 -3 -9l-74 -48l54 -47q5 -6 1 -13l-9 -11q-7 -9 -16 -3l-54 38q-1 -11 -18 -82q-2 -9 -13 -9h-11q-6 0 -8.5 1.5t-1.5 7.5l12 82l-71 -36q-9 -6 -12 2l-5 13q-2 7 5 11l71 47l-52 47q-6 4 0 12l8 10
q8 11 16 4q5 -5 26 -19l28 -18l20 82q2 9 14 9z" />
    <glyph glyph-name="plus" unicode="+" 
d="M435 340l-6 -29q-2 -8 -12 -8h-130l-32 -161q-1 -10 -10 -10h-29q-11 0 -8 10l31 161h-132q-11 0 -9 9l6 28q2 9 12 9h132l30 155q1 10 12 10h30q7 0 6 -10l-30 -155h130q10 0 9 -9z" />
    <glyph glyph-name="comma" unicode="," horiz-adv-x="156" 
d="M9 -125q-9 -6 -14 -1l-8 9q-3 3 1 8q44 35 44 91q0 20 -9 39q-5 13 5 20l39 28q11 8 17 0q11 -14 11 -49q0 -34 -15 -64q-14 -28 -28 -43.5t-43 -37.5z" />
    <glyph glyph-name="hyphen" unicode="-" horiz-adv-x="307" 
d="M301 299h-234q-11 0 -9 9l6 29q2 9 12 9h234q10 0 8 -9l-6 -30q-2 -8 -11 -8z" />
    <glyph glyph-name="period" unicode="." horiz-adv-x="138" 
d="M50 69q30 0 30 -24q0 -54 -45 -54q-29 0 -29 24q0 54 44 54z" />
    <glyph glyph-name="slash" unicode="/" horiz-adv-x="204" 
d="M308 680l-298 -737q-4 -9 -12 -9h-27q-10 0 -6 10l299 739q4 9 13 9h27q8 0 4 -12z" />
    <glyph glyph-name="zero" unicode="0" 
d="M331 671q86 0 123.5 -44t37.5 -130q0 -49 -18 -156q-12 -66 -20 -95q-11 -44 -32 -92q-21 -51 -48 -84q-65 -79 -171 -79q-155 0 -155 171q0 59 23 179l11 54q1 6 3.5 14.5t6 21.5t6.5 23q12 39 24 64q38 77 77 108q60 45 132 45zM323 620q-70 0 -116 -59
q-20 -27 -36 -65q-28 -71 -45 -165q-21 -105 -21 -159q0 -128 106 -128q92 0 139 87q41 75 65 200q20 105 20 161q0 65 -26.5 96.5t-85.5 31.5z" />
    <glyph glyph-name="one" unicode="1" horiz-adv-x="467" 
d="M379 42l-7 -33q-2 -9 -12 -9h-288q-6 0 -8.5 2t-1.5 7l7 33q1 10 13 10h115l104 539h-101q-10 0 -9 9l3 16q3 9 14 14l82 27q20 6 37 6h31q12 0 10 -12l-116 -599h118q10 0 9 -10z" />
    <glyph glyph-name="two" unicode="2" horiz-adv-x="467" 
d="M36 70l279 265q54 54 77.5 95.5t23.5 95.5q0 47 -25.5 67.5t-86.5 20.5q-49 0 -150 -14q-11 -2 -11 9v17q0 10 9 15q24 13 72 20q50 9 90 9q86 0 122.5 -33t36.5 -100q-2 -119 -118 -233l-262 -252h290q6 0 9 -2t2 -8l-7 -33q-1 -9 -12 -9h-349q-14 0 -11 12l6 30
q1 14 15 28z" />
    <glyph glyph-name="three" unicode="3" 
d="M304 332l-99 20q-13 3 -10 15l5 27q3 15 12 22l212 193l-1 1h-271q-12 0 -10 11l6 32q3 10 14 10h325q13 0 12 -12l-6 -31q-5 -20 -18 -33l-204 -187l56 -12q113 -23 113 -123q0 -125 -69 -200q-69 -74 -195 -74q-28 0 -78 8q-47 8 -74 18q-11 5 -5 15l6 19q4 10 16 9
q109 -15 141 -15q76 0 137 51t61 157q0 63 -76 79z" />
    <glyph glyph-name="four" unicode="4" horiz-adv-x="467" 
d="M468 228l-7 -34q-1 -9 -12 -9h-73l-34 -175q-1 -10 -11 -10h-36q-10 0 -9 10l34 175h-289q-11 0 -9 9l6 31q5 16 14 25l362 402q10 10 26 10h30q10 0 7 -9l-80 -416h73q10 0 8 -9zM96 237h235l64 332z" />
    <glyph glyph-name="five" unicode="5" 
d="M303 332l-185 36q-18 5 -12 25l84 257q4 12 19 12h274q6 0 8.5 -2.5t1.5 -6.5l-6 -33q-1 -10 -15 -10h-241l-63 -193l174 -33q96 -18 96 -118q0 -128 -68 -201.5t-193 -73.5q-28 0 -78 8q-47 8 -74 18q-11 5 -5 15l6 19q4 10 16 9q107 -14 147 -14q87 0 137.5 55
t50.5 149q0 36 -17.5 55t-56.5 27z" />
    <glyph glyph-name="six" unicode="6" 
d="M304 331q-61 0 -181 -15l-8 -43q-18 -100 -18 -128q0 -53 27 -78t91 -25q62 0 113 35q63 44 63 167q0 87 -87 87zM352 670q84 0 137 -24q10 -6 7 -16l-8 -19q-5 -11 -16 -8q-66 12 -133 12q-82 0 -129 -61.5t-75 -183.5q131 16 191 16q124 0 124 -128q0 -138 -70 -202
q-70 -65 -178 -65q-88 0 -125 33t-37 104q0 50 24 178q22 120 58 203q69 156 230 161z" />
    <glyph glyph-name="seven" unicode="7" 
d="M504 589l-366 -593q-8 -8 -15 -5l-34 12q-9 4 -1 15l365 593h-316q-11 0 -9 9l6 32q3 11 13 11h368q11 0 10 -12l-5 -28q-1 -11 -16 -34z" />
    <glyph glyph-name="eight" unicode="8" 
d="M331 672q74 0 113.5 -34t39.5 -99q0 -59 -33 -113t-107 -78q96 -32 96 -137q0 -103 -68 -162q-67 -58 -176 -58q-170 0 -170 143q0 171 160 219q-36 12 -57.5 44.5t-21.5 72.5q0 92 64 147t160 55zM321 621q-70 0 -112 -40.5t-42 -109.5q0 -39 25 -62.5t75 -36.5
q158 32 158 158q0 91 -104 91zM206 43q44 0 81 15q41 16 68 55.5t27 93.5q0 51 -30 77.5t-94 45.5q-56 -14 -93 -35q-81 -49 -81 -154q0 -98 122 -98z" />
    <glyph glyph-name="nine" unicode="9" 
d="M157 482q-7 -32 -7 -64q0 -46 19.5 -67t67.5 -21q59 0 181 15l8 43q17 97 17 128q0 53 -27 78t-89 25q-143 0 -170 -137zM184 -9q-89 0 -143 24q-10 6 -6 16l7 19q5 11 17 8q66 -12 137 -12q93 0 142 74q43 65 67 171q-129 -16 -190 -16q-124 0 -124 127q0 139 70 203
q71 65 179 65q87 0 122.5 -34t35.5 -107q0 -37 -20 -174q-55 -364 -294 -364z" />
    <glyph glyph-name="colon" unicode=":" horiz-adv-x="156" 
d="M61 70q30 0 30 -24q0 -54 -45 -54q-29 0 -29 23q0 55 44 55zM133 441q30 0 30 -23q0 -55 -45 -55q-29 0 -29 23q0 55 44 55z" />
    <glyph glyph-name="semicolon" unicode=";" horiz-adv-x="156" 
d="M167 409q-4 -46 -44 -46q-34 0 -28 33q5 45 43 45q34 0 29 -32zM6 -125q-9 -6 -14 -1l-8 9q-5 5 2 9q43 34 43 90q0 20 -9 39q-5 13 5 20l39 28q11 8 17 0q11 -14 11 -49q0 -34 -15 -64q-14 -28 -28 -43.5t-43 -37.5z" />
    <glyph glyph-name="semicolon" unicode="&#x37e;" horiz-adv-x="156" 
d="M167 409q-4 -46 -44 -46q-34 0 -28 33q5 45 43 45q34 0 29 -32zM6 -125q-9 -6 -14 -1l-8 9q-5 5 2 9q43 34 43 90q0 20 -9 39q-5 13 5 20l39 28q11 8 17 0q11 -14 11 -49q0 -34 -15 -64q-14 -28 -28 -43.5t-43 -37.5z" />
    <glyph glyph-name="less" unicode="&#x3c;" 
d="M399 144l-7 -28q-2 -14 -12 -6l-273 188q-9 4 -7 15l5 24q1 11 12 15l345 195q8 4 11 2t1 -8l-6 -37q-1 -10 -14 -16l-293 -166v-2l230 -157q10 -7 8 -19z" />
    <glyph glyph-name="equal" unicode="=" 
d="M451 424l-6 -29q-2 -8 -12 -8h-310q-10 0 -8 8l5 29q3 9 12 9h310q10 0 9 -9zM419 260l-6 -29q-2 -8 -12 -8h-310q-10 0 -8 8l5 29q3 9 13 9h309q10 0 9 -9z" />
    <glyph glyph-name="greater" unicode="&#x3e;" 
d="M60 116l7 37q1 11 15 19l290 157l1 2l-228 166q-8 6 -7 16l6 28q4 13 13 6l270 -195q9 -5 8 -15l-5 -24q-1 -10 -14 -15l-347 -188q-11 -6 -9 6z" />
    <glyph glyph-name="question" unicode="?" horiz-adv-x="297" 
d="M82 167l13 74q16 98 142 192q38 28 55 53.5t17 61.5q0 69 -93 69q-50 0 -98 -6q-11 -2 -11 9l1 19q0 10 14 15q46 17 110 17q60 0 94.5 -29t34.5 -88q0 -39 -16 -70q-15 -29 -31 -45.5t-48 -39.5q-56 -42 -84 -78.5t-39 -89.5l-12 -63q-1 -12 -13 -12h-24q-8 0 -10.5 2.5
t-1.5 8.5zM121 31q-9 -40 -45 -40q-22 0 -27.5 9.5t-1.5 30.5q7 39 44 39t30 -39z" />
    <glyph glyph-name="at" unicode="@" horiz-adv-x="689" 
d="M316 -16q-117 0 -186 73q-68 74 -68 198q0 120 56 221q56 99 143.5 153.5t184.5 54.5q126 0 192 -66t66 -187q0 -135 -58 -211q-57 -76 -129 -76q-79 0 -86 63q-79 -43 -129 -43q-41 0 -59.5 22t-19.5 68q0 44 10 91q19 103 54 147q36 45 107 45q44 0 93 -20l2 9
q1 6 11 6h22q8 0 8 -7v-5l-52 -273q-10 -63 45 -63q56 0 98 72q43 73 43 176q0 99 -56.5 155.5t-154.5 56.5q-142 0 -245 -115q-102 -114 -102 -273q0 -109 59 -171.5t164 -62.5q48 0 98 14q13 3 15 -3l2 -16q2 -8 -11 -14q-45 -19 -117 -19zM433 247l45 234q-48 20 -93 20
q-42 0 -66 -35.5t-41 -121.5q-9 -42 -9 -79q0 -32 11 -44.5t36 -12.5q46 0 117 39z" />
    <glyph glyph-name="A" unicode="A" horiz-adv-x="458" 
d="M365 651l57 -640q2 -11 -9 -11h-37q-10 0 -12 9l-12 173h-222l-79 -171q-5 -11 -16 -11h-39q-12 0 -6 11l305 640q5 11 17 11h41q10 0 12 -11zM332 439l-10 150h-4l-69 -152l-95 -204h195z" />
    <glyph glyph-name="B" unicode="B" horiz-adv-x="463" 
d="M307 610h-105l-47 -240h110q69 0 111 43t42 108q0 89 -111 89zM93 52h129q81 0 122 47t41 115q0 47 -29 76t-82 29h-129zM167 662h154q156 0 156 -137q0 -55 -28.5 -103t-87.5 -73l1 -2q83 -29 83 -135q0 -97 -61 -155q-62 -57 -146 -57h-195q-9 0 -12.5 3t-1.5 9
l124 638q1 12 14 12z" />
    <glyph glyph-name="C" unicode="C" horiz-adv-x="450" 
d="M367 669q90 0 146 -22q10 -4 6 -16l-7 -19q-4 -9 -16 -8q-81 10 -135 10q-81 0 -131 -60q-21 -26 -39 -66q-27 -63 -47 -164q-12 -57 -12 -122q0 -154 125 -154q63 0 149 9q13 1 13 -9v-18q0 -11 -10 -15q-65 -24 -161 -24q-175 0 -175 205q0 60 13 134q22 121 61 201
q71 138 220 138z" />
    <glyph glyph-name="D" unicode="D" horiz-adv-x="517" 
d="M308 610h-102l-108 -558h96q103 0 163.5 66.5t85.5 206.5q12 67 12 122q0 83 -35.5 123t-111.5 40zM173 662h137q107 0 155 -51t48 -151q0 -53 -11 -127q-26 -160 -97 -246q-72 -87 -217 -87h-141q-9 0 -12 3t-1 9l124 638q2 12 15 12z" />
    <glyph glyph-name="E" unicode="E" horiz-adv-x="418" 
d="M384 41l-6 -31q-1 -10 -13 -10h-325q-12 0 -9 10l124 641q3 12 13 12h289q12 0 9 -11l-5 -31q-3 -11 -14 -11h-243l-46 -234h228q10 0 9 -10l-6 -29q-1 -12 -13 -12h-227l-54 -273h280q12 0 9 -11z" />
    <glyph glyph-name="F" unicode="F" horiz-adv-x="397" 
d="M34 12l124 639q3 12 14 12h293q12 0 9 -11l-5 -31q-3 -11 -14 -11h-249l-46 -240h220q10 0 9 -10l-5 -30q-3 -12 -15 -12h-219l-59 -306q-3 -12 -13 -12h-34q-13 0 -10 12z" />
    <glyph glyph-name="G" unicode="G" horiz-adv-x="506" 
d="M358 615q-79 0 -129 -60q-20 -24 -39 -67q-26 -59 -46 -164q-14 -70 -14 -126q0 -152 131 -152q69 0 112 18l44 226h-79q-9 0 -11 2.5t-2 10.5l6 31q3 11 18 11h124q13 0 12 -12l-55 -286q-5 -24 -34 -35q-52 -20 -144 -20q-94 0 -138 49.5t-44 149.5q0 54 14 133
q26 154 85 243q68 103 197 103q92 0 148 -22q10 -4 6 -16l-7 -19q-3 -9 -16 -8q-69 10 -139 10z" />
    <glyph glyph-name="H" unicode="H" horiz-adv-x="499" 
d="M539 651l-122 -640q-2 -11 -12 -11h-33q-13 0 -11 11l60 314h-273l-62 -314q-2 -11 -12 -11h-34q-11 0 -9 11l125 640q3 12 13 12h34q11 0 8 -12l-53 -274h273l52 274q3 12 14 12h33q12 0 9 -12z" />
    <glyph glyph-name="I" unicode="I" horiz-adv-x="192" 
d="M222 651l-124 -640q-2 -11 -15 -11h-31q-13 0 -11 11l124 640q3 12 15 12h31q14 0 11 -12z" />
    <glyph glyph-name="J" unicode="J" horiz-adv-x="349" 
d="M378 651l-95 -490q-18 -87 -61 -129t-122 -42q-63 0 -111 21q-11 5 -6 16l7 20q5 9 16 8q54 -9 94 -9q59 0 87.5 29.5t40.5 97.5l93 478q3 12 14 12h32q14 0 11 -12z" />
    <glyph glyph-name="K" unicode="K" horiz-adv-x="459" 
d="M210 651l-74 -372l1 -1h1l100 117l232 260q8 8 19 8h43q5 0 7 -3.5t-2 -7.5l-238 -268l119 -373q5 -11 -9 -11h-34q-15 0 -16 10l-103 325l-137 -153l-33 -171q-2 -11 -13 -11h-33q-13 0 -10 11l124 640q3 12 14 12h33q11 0 9 -12z" />
    <glyph glyph-name="L" unicode="L" horiz-adv-x="403" 
d="M377 41l-6 -31q-3 -10 -13 -10h-315q-12 0 -9 11l124 639q3 13 13 13h34q11 0 8 -13l-116 -598h270q13 0 10 -11z" />
    <glyph glyph-name="M" unicode="M" horiz-adv-x="625" 
d="M319 186h3l95 163l185 303q9 11 21 11h31q14 0 11 -12l-124 -639q-3 -12 -15 -12h-30q-15 0 -12 12q9 42 55 289q14 70 23.5 123t14 76.5t3.5 23.5l-48 -84l-195 -321q-9 -11 -19 -11h-24q-11 0 -14 9l-76 334q-3 13 -14 71h-2l-99 -510q-3 -12 -14 -12h-31q-14 0 -11 12
l124 640q3 11 13 11h32q12 0 15 -11l76 -342q1 -4 3.5 -16t5 -24.5t4.5 -24.5q11 -53 13 -59z" />
    <glyph glyph-name="N" unicode="N" horiz-adv-x="531" 
d="M411 113l2 3l104 534q3 13 15 13h30q13 0 10 -13l-124 -639q-3 -11 -14 -11h-30q-11 0 -16 11l-159 436q-24 67 -33 104q-1 -1 -4 -1l-104 -538q-3 -12 -14 -12h-31q-14 0 -11 12l124 640q2 11 14 11h32q11 0 16 -11l133 -368q4 -11 28 -84q27 -75 32 -87z" />
    <glyph glyph-name="O" unicode="O" horiz-adv-x="537" 
d="M363 671q94 0 135 -46t41 -137q0 -48 -17 -147q-7 -40 -15 -73q-16 -83 -44 -137q-73 -140 -225 -140q-172 0 -172 187q0 61 20 167q19 101 51 173q68 148 226 153zM355 619q-87 0 -135.5 -69.5t-77.5 -218.5q-17 -94 -17 -145q0 -75 25.5 -109t92.5 -34q90 0 140 69
t80 219q17 85 17 145q0 75 -28 109t-97 34z" />
    <glyph glyph-name="P" unicode="P" horiz-adv-x="427" 
d="M202 610l-55 -282h107q82 0 122 52t40 127q0 103 -117 103h-97zM167 663h147q76 0 117.5 -39t41.5 -113q0 -42 -12.5 -81.5t-37.5 -74.5t-70.5 -56t-104.5 -21h-111l-51 -266q-3 -12 -13 -12h-34q-13 0 -10 12l124 640q3 11 14 11z" />
    <glyph glyph-name="Q" unicode="Q" horiz-adv-x="538" 
d="M355 619q-84 0 -134.5 -72.5t-78.5 -215.5q-19 -95 -19 -137q0 -81 26 -116t94 -35q95 0 145 72q50 73 78 216q14 76 14 127q0 87 -27 124t-98 37zM421 -81l-162 74q-22 -2 -24 -2q-90 0 -130 47t-40 136q0 62 20 167q20 100 54 174q66 151 225 156q173 0 173 -185
q0 -138 -38 -272q-21 -72 -61.5 -125t-93.5 -73l114 -38q11 -5 5 -16l-18 -33q-7 -16 -24 -10z" />
    <glyph glyph-name="R" unicode="R" horiz-adv-x="438" 
d="M300 610h-100l-53 -272h106q74 0 118.5 46t44.5 132q0 94 -116 94zM165 663h151q75 0 116.5 -36t41.5 -108q0 -84 -40 -144.5t-113 -78.5l66 -286q0 -10 -8 -10h-37q-13 0 -16 10l-59 278h-130l-53 -276q-3 -12 -13 -12h-34q-13 0 -10 12l124 640q2 11 14 11z" />
    <glyph glyph-name="S" unicode="S" horiz-adv-x="440" 
d="M318 669q100 0 152 -24q12 -4 7 -15l-7 -18q-5 -11 -18 -10q-72 13 -139 13q-72 0 -112.5 -40t-40.5 -112q0 -42 35 -64q26 -16 78 -33l12 -4q62 -21 95 -45q43 -29 43 -99q0 -115 -67 -172q-69 -56 -169 -55q-35 0 -93 8q-52 7 -75 18q-11 7 -7 17l7 19q4 10 18 7
q79 -14 160 -14q76 0 121 42.5t45 121.5q0 42 -24 63t-86 40q-72 22 -107 46q-44 30 -44 98q0 104 58.5 158t157.5 54z" />
    <glyph glyph-name="T" unicode="T" horiz-adv-x="403" 
d="M472 610h-153l-117 -599q-2 -11 -12 -11h-34q-12 0 -10 11l116 599h-151q-12 0 -10 11l6 31q3 11 14 11h361q12 0 9 -11l-6 -31q-2 -11 -13 -11z" />
    <glyph glyph-name="U" unicode="U" horiz-adv-x="516" 
d="M604 649l-82 -420q-46 -237 -247 -237q-206 0 -160 243l82 414q3 14 17 14h29q15 0 12 -14l-81 -416q-18 -95 7.5 -141.5t100.5 -46.5q147 0 185 188l81 416q3 14 17 14h27q15 0 12 -14z" />
    <glyph glyph-name="V" unicode="V" horiz-adv-x="469" 
d="M218 75h3l93 204l175 373q4 10 16 10h38q7 0 5 -6l-1 -2q-1 -2 -1 -3l-307 -641q-4 -10 -15 -10h-40q-12 0 -13 9l-57 643v4q2 6 9 6h37q11 0 11 -10l27 -318q20 -254 20 -259z" />
    <glyph glyph-name="W" unicode="W" horiz-adv-x="690" 
d="M398 425h-4q-35 -91 -73 -178l-105 -237q-4 -10 -14 -10h-43q-10 0 -11 10l-38 642q1 10 10 10h37q11 0 11 -9l22 -395l7 -173h2q21 55 69 168l120 278l-7 121q0 10 9 10h38q11 0 11 -9l21 -410q4 -101 4 -168h3q31 84 73 180l171 398q5 9 16 9h36q11 0 5 -11l-282 -640
q-6 -11 -15 -11h-42q-12 0 -13 10l-12 235q-4 85 -6 180z" />
    <glyph glyph-name="X" unicode="X" horiz-adv-x="439" 
d="M339 10l-85 277l-195 -277q-6 -10 -16 -10h-44q-12 0 -5 10l237 333l-99 309q-5 11 7 11h39q12 0 13 -10l79 -254l176 254q6 9 18 9h44q5 1 6 -2.5t-2 -7.5l-221 -309l109 -333q3 -10 -7 -10h-40q-10 0 -14 10z" />
    <glyph glyph-name="Y" unicode="Y" horiz-adv-x="425" 
d="M250 352h5q36 64 83 132l111 169q7 9 17 9h41q9 0 5 -10l-241 -358l-55 -282q-3 -12 -12 -12h-33q-14 0 -11 12l55 282l-101 359q-4 9 9 9h39q10 0 11 -9l46 -168q21 -77 31 -133z" />
    <glyph glyph-name="Z" unicode="Z" horiz-adv-x="410" 
d="M365 41l-5 -29q-3 -12 -14 -12h-336q-13 0 -10 11l5 26q2 11 10 24l395 549h-265q-12 0 -10 11l6 31q3 11 14 11h316q13 0 10 -10l-5 -30q-6 -17 -11 -22l-391 -549h282q12 0 9 -11z" />
    <glyph glyph-name="bracketleft" unicode="[" horiz-adv-x="206" 
d="M129 -63l-5 -27q-1 -10 -13 -10h-111q-12 0 -10 11l150 773q3 11 15 11h112q9 0 8 -10l-6 -27q-1 -10 -13 -10h-70l-136 -702h70q12 0 9 -9z" />
    <glyph glyph-name="backslash" unicode="\" horiz-adv-x="204" 
d="M124 683l63 -739v-2q0 -7 -10 -7h-26q-7 0 -10 8l-63 739v3q0 7 8 7h27q9 0 11 -9z" />
    <glyph glyph-name="bracketright" unicode="]" horiz-adv-x="206" 
d="M274 684l-150 -773q-1 -10 -14 -10h-111q-11 0 -9 9l5 27q3 9 13 9h70l136 702h-70q-10 0 -9 10l6 27q1 10 12 10h112q12 0 9 -11z" />
    <glyph glyph-name="asciicircum" unicode="^" horiz-adv-x="408" 
d="M435 388l-17 -9q-8 -3 -12 4l-108 234l-197 -233q-8 -8 -15 -2l-14 11q-4 3 1 12l192 246q8 11 23 11h39q15 0 19 -10l90 -252q5 -8 -1 -12z" />
    <glyph glyph-name="underscore" unicode="_" horiz-adv-x="428" 
d="M388 -97l-4 -19q-2 -8 -12 -8h-423q-6 0 -8 2t-1 6l4 19q1 10 12 10h423q10 0 9 -10z" />
    <glyph glyph-name="grave" unicode="`" horiz-adv-x="415" 
d="M302 555l-74 119q-5 8 4 13l33 18q11 5 15 -3l57 -127q4 -7 -3 -11l-18 -11q-10 -4 -14 2z" />
    <glyph glyph-name="a" unicode="a" horiz-adv-x="431" 
d="M387 465l3 14q2 8 16 8h24q9 0 9 -10v-2l-89 -465q-1 -10 -12 -10h-31q-12 0 -9 11l7 38l-1 1q-94 -58 -167 -58q-53 0 -77.5 29.5t-24.5 90.5q0 46 14 124q27 142 73 199q47 59 140 59q69 0 125 -29zM314 99l60 317q-59 28 -123 28q-57 0 -90 -47.5t-56 -162.5
q-14 -73 -14 -108q0 -45 15.5 -63.5t48.5 -18.5q29 0 79 18q53 21 80 37z" />
    <glyph glyph-name="b" unicode="b" horiz-adv-x="424" 
d="M187 -9q-88 0 -151 21q-18 6 -14 34l126 644q3 13 15 13h30q11 0 10 -13l-44 -221l2 -1q68 28 133 28q69 0 98 -32t29 -103q0 -141 -50 -248q-25 -57 -73 -89.5t-111 -32.5zM288 446q-58 0 -138 -26l-70 -364q57 -12 115 -12q48 0 84 31.5t54 83.5q32 95 32 191
q0 51 -18 73.5t-59 22.5z" />
    <glyph glyph-name="c" unicode="c" horiz-adv-x="350" 
d="M263 497q76 0 127 -22q8 -3 5 -14l-7 -17q-3 -8 -19 -7q-72 9 -111 9q-62 0 -95.5 -45t-53.5 -155q-12 -74 -12 -105q0 -54 21.5 -76.5t69.5 -22.5q62 0 123 10q14 2 14 -9l-1 -16q0 -10 -10 -14q-53 -22 -141 -22q-71 0 -102.5 34.5t-31.5 104.5q0 48 13 113
q19 115 59 178q48 76 152 76z" />
    <glyph glyph-name="d" unicode="d" horiz-adv-x="422" 
d="M386 471l1 1l43 219q3 12 15 12h27q10 0 10 -6q0 -1 -0.5 -3t-0.5 -3l-131 -681q-1 -10 -12 -10h-32q-6 0 -8.5 2t-1.5 6l8 42q-97 -58 -167 -58q-53 0 -77.5 29.5t-24.5 90.5q0 46 14 124q27 139 74 200q47 60 141 60q68 0 122 -25zM314 99l63 324q-66 24 -125 24
q-57 0 -90.5 -49t-56.5 -164q-14 -73 -14 -108q0 -45 15.5 -63.5t48.5 -18.5q29 0 79 18q53 21 80 37z" />
    <glyph glyph-name="e" unicode="e" horiz-adv-x="398" 
d="M409 383q0 -46 -21 -83.5t-56 -59.5q-30 -19 -76 -33q-74 -21 -155 -23q-5 -33 -5 -59q0 -44 21 -62.5t67 -18.5q49 0 142 11q13 1 13 -10v-15q0 -11 -8 -14q-59 -24 -156 -24q-71 0 -104 31t-33 104q0 24 13 108q39 261 231 261q56 0 91.5 -31t35.5 -82zM354 371
q0 38 -23 57.5t-60 19.5q-118 0 -155 -169l-9 -48q66 0 150 25q44 15 70.5 44.5t26.5 70.5z" />
    <glyph glyph-name="f" unicode="f" horiz-adv-x="286" 
d="M18 -167l118 609h-66q-11 0 -11 7l1 5l4 21q3 12 15 12h65l15 77q28 142 156 142q53 0 90 -18q10 -4 7 -16l-6 -17q-5 -11 -20 -8q-42 8 -74 8q-41 0 -65 -22.5t-34 -70.5l-15 -75h109q12 0 10 -11l-5 -23q-2 -11 -13 -11h-110l-116 -609q-2 -11 -15 -11h-27
q-8 0 -11 2.5t-2 8.5z" />
    <glyph glyph-name="g" unicode="g" horiz-adv-x="427" 
d="M445 442l-90 -472q-16 -83 -58.5 -119t-128.5 -36q-79 0 -133 23q-10 3 -5 14l6 17q4 10 20 8q71 -10 117 -10q60 0 89.5 26.5t41.5 87.5l7 39h-1l-24 -8q-63 -22 -110 -20q-66 0 -97 29.5t-32 85.5t11 135q24 136 75.5 195.5t147.5 59.5q87 0 149 -21q21 -7 15 -34z
M320 68l70 364q-66 12 -115 12q-58 0 -97 -40q-40 -40 -62 -152q-22 -113 -7 -161.5t73 -48.5q55 0 138 26z" />
    <glyph glyph-name="h" unicode="h" horiz-adv-x="422" 
d="M321 496q56 0 80 -25q15 -15 18.5 -43t1.5 -46.5t-10 -67.5l-59 -303q-2 -11 -14 -11h-32q-11 0 -9 11l59 307q16 69 4.5 98.5t-56.5 29.5q-51 0 -162 -57l-73 -378q-2 -11 -14 -11h-32q-9 0 -7 11l132 681q2 11 11 11h32q12 0 10 -11l-50 -255q2 0 3 -1q102 60 167 60z
" />
    <glyph glyph-name="i" unicode="i" horiz-adv-x="180" 
d="M213 617q-5 -36 -40 -36q-19 0 -24 8.5t-2 27.5q7 34 40 34q19 0 24.5 -8t1.5 -26zM180 475l-90 -464q-2 -11 -13 -11h-30q-8 0 -10 2t-1 9l90 464q2 12 15 12h31q11 0 8 -12z" />
    <glyph glyph-name="j" unicode="j" horiz-adv-x="193" 
d="M192 476l-105 -540q-12 -60 -43 -95q-36 -44 -131 -42q-13 0 -11 12l2 17q2 11 17 14q61 10 82 30t30 68l104 536q2 11 14 11h30q13 0 11 -11zM223 617q-5 -36 -39 -36q-19 0 -24 8.5t-2 27.5q7 34 40 34q18 0 23.5 -8t1.5 -26z" />
    <glyph glyph-name="k" unicode="k" horiz-adv-x="365" 
d="M409 475l-177 -177l103 -286q5 -12 -8 -12h-36q-14 0 -17 11l-84 243l-87 -88l-30 -155q-2 -11 -14 -11h-31q-11 0 -9 11l132 681q3 11 13 11h31q13 0 10 -11l-87 -446q0 -1 1 -1l88 91l139 142q10 10 20 10h39q14 0 4 -13z" />
    <glyph glyph-name="l" unicode="l" horiz-adv-x="189" 
d="M91 -7q-30 0 -40.5 16t-4.5 52l123 629q1 12 15 12h28q8 0 10.5 -2.5t1.5 -9.5l-119 -609q-4 -24 1 -30t29 -5q14 0 14 -8l-2 -23q0 -9 -11 -14q-26 -8 -45 -8z" />
    <glyph glyph-name="m" unicode="m" horiz-adv-x="682" 
d="M320 496q82 0 90 -68q107 68 179 68q60 0 80 -38q8 -14 10 -43q1 -38 -12 -109l-57 -295q-2 -11 -14 -11h-32q-11 0 -9 11l63 325q23 110 -47 110q-45 0 -161 -62q-1 -22 -8 -57l-10 -51l-50 -265q-2 -11 -14 -11h-32q-11 0 -9 11l63 325q23 110 -47 110q-43 0 -157 -57
l-73 -378q-2 -11 -14 -11h-32q-9 0 -7 11l90 464q3 12 11 12h32q11 0 10 -12l-8 -38q2 0 3 -1q102 60 162 60z" />
    <glyph glyph-name="n" unicode="n" horiz-adv-x="416" 
d="M319 496q56 0 80 -25q12 -11 17.5 -26t4 -41t-3 -38.5t-7.5 -51.5l-59 -303q-2 -11 -15 -11h-31q-12 0 -10 11l60 307q16 64 4.5 96t-57.5 32q-50 0 -161 -57l-73 -378q-2 -11 -15 -11h-30q-11 0 -9 11l90 464q3 12 13 12h30q13 0 11 -12l-8 -38q1 0 2 -1q102 60 167 60z
" />
    <glyph glyph-name="o" unicode="o" horiz-adv-x="420" 
d="M270 497q144 0 144 -145q0 -42 -12 -100q-16 -86 -41 -143q-24 -56 -66.5 -85t-113.5 -32q-76 0 -109 35t-33 104q0 45 15 121q11 66 37 125q50 115 179 120zM263 447q-66 0 -100.5 -48t-54.5 -154q-13 -62 -13 -104q0 -51 21 -75.5t68 -24.5q69 0 104.5 48t56.5 156
q13 61 13 102q0 100 -95 100z" />
    <glyph glyph-name="p" unicode="p" horiz-adv-x="420" 
d="M79 16v-1q-3 -23 -19 -96q-5 -24 -11 -52.5t-6 -30.5q-3 -12 -15 -12h-30q-14 0 -9 12l124 639q3 12 13 12h31q13 0 10 -12l-7 -37l1 -1q94 58 166 58q53 0 76 -29t23 -92q0 -52 -12 -124q-22 -135 -72 -197t-142 -62q-67 0 -121 25zM151 388l-64 -324q67 -24 125 -24
q59 0 93 49.5t53 163.5q12 69 12 110q0 44 -14 62.5t-47 18.5q-31 0 -79 -19q-49 -20 -79 -37z" />
    <glyph glyph-name="q" unicode="q" horiz-adv-x="424" 
d="M275 496q91 0 151 -22q18 -6 14 -33l-118 -604q-3 -13 -14 -13h-30q-11 0 -10 13l35 180l-1 2q-72 -29 -134 -29q-69 0 -98 32.5t-29 103.5q0 140 49 248q27 57 74.5 89.5t110.5 32.5zM174 41q60 0 138 25l71 364q-59 13 -116 13q-48 0 -84 -30.5t-54 -81.5
q-32 -93 -32 -194q0 -51 18 -73.5t59 -22.5z" />
    <glyph glyph-name="r" unicode="r" horiz-adv-x="254" 
d="M317 484l-3 -32q-1 -11 -12 -16q-79 -22 -138 -52l-72 -373q-2 -11 -13 -11h-32q-6 0 -7.5 2t-1.5 9l90 465q2 11 13 11h31q12 0 10 -11l-9 -47q0 -1 1 -1q73 51 131 65q13 5 12 -9z" />
    <glyph glyph-name="s" unicode="s" horiz-adv-x="355" 
d="M241 497q82 0 125 -22q8 -5 5 -14l-6 -17q-5 -10 -19 -8q-84 10 -109 10q-108 0 -108 -101q0 -27 21 -43t50.5 -24.5t59.5 -18.5t51 -34t21 -63q0 -168 -192 -170q-91 0 -130 21q-7 4 -4 15l6 16q4 10 18 9q96 -11 121 -11q125 0 125 108q0 30 -21 47.5t-50.5 26t-59 18
t-50.5 32.5t-21 61q0 81 44.5 121.5t122.5 40.5z" />
    <glyph glyph-name="t" unicode="t" horiz-adv-x="262" 
d="M247 38v-16q-1 -10 -10 -14q-33 -16 -90 -16q-49 0 -63.5 23t-4.5 76l68 351h-49q-11 0 -8 11l4 22q3 12 15 12h48l22 111q1 10 13 14l30 9q15 4 12 -11l-24 -123h92q12 0 10 -12l-4 -22q-3 -11 -15 -11h-92l-65 -334q-9 -34 -0.5 -50t38.5 -16q16 0 61 5q12 1 12 -9z
" />
    <glyph glyph-name="u" unicode="u" horiz-adv-x="423" 
d="M135 -8q-63 0 -87 32q-9 12 -11 39q-1 38 11 98l61 315q2 11 13 11h32q11 0 9 -11l-60 -309q-16 -65 -4.5 -95.5t56.5 -30.5q48 0 159 57l73 378q2 11 15 11h29q12 0 10 -11l-90 -465q-2 -11 -14 -11h-29q-13 0 -11 11l7 39q-2 0 -3 1q-95 -59 -166 -59z" />
    <glyph glyph-name="v" unicode="v" horiz-adv-x="387" 
d="M165 187l13 -114h3l14 31q36 70 42 84l142 289q6 10 15 10h38q4 0 6 -1.5t1 -4.5l-1 -2q-1 -1 -1 -3l-240 -467q-5 -9 -14 -9h-35q-10 0 -12 9l-58 467q-2 11 8 11h35q12 0 12 -9z" />
    <glyph glyph-name="w" unicode="w" horiz-adv-x="581" 
d="M382 223l10 -135h5l178 389q6 10 15 10h35q4 0 6 -1.5t1 -3.5l-2 -6l-221 -467q-5 -9 -14 -9h-34q-13 0 -13 9q-16 164 -25 298h-3l-63 -135l-77 -163q-4 -9 -13 -9h-34q-12 0 -12 9l-42 467q-2 11 9 11h35q12 0 12 -11l19 -237q10 -117 11 -158h2l64 140l81 170l-6 85
q-2 11 8 11h37q9 0 11 -11z" />
    <glyph glyph-name="x" unicode="x" horiz-adv-x="360" 
d="M405 475l-174 -226l92 -237q5 -12 -8 -12h-38q-12 0 -16 10l-69 191l-144 -191q-7 -10 -18 -10h-41q-11 0 -4 12l183 236l-84 227q-2 4 0.5 8t7.5 4h35q6 0 9 -3t5.5 -11t3.5 -10l61 -169l137 183q7 10 15 10h43q11 0 4 -12z" />
    <glyph glyph-name="y" unicode="y" horiz-adv-x="390" 
d="M142 476l39 -394h6l84 170l113 225q6 10 16 10h35q10 0 4 -11l-325 -642q-4 -10 -17 -10h-30q-11 0 -6 11l80 160l-55 481q-2 11 8 11h36q12 0 12 -11z" />
    <glyph glyph-name="z" unicode="z" horiz-adv-x="361" 
d="M-5 10l5 24q3 12 11 22l317 383h-220q-12 0 -9 11l5 26q3 11 13 11h268q14 0 10 -10l-5 -27q-3 -13 -11 -21l-312 -379h235q13 0 10 -11l-5 -27q-3 -12 -14 -12h-288q-11 0 -10 10z" />
    <glyph glyph-name="braceleft" unicode="{" horiz-adv-x="214" 
d="M38 -11l37 186q24 87 -24 107q-8 3 -7 10l3 14q2 8 11 10q35 12 47 42q13 33 18 65l35 179q10 52 29.5 76.5t59.5 24.5q29 0 42 -5q7 -3 6 -12l-3 -14q-2 -8 -13 -10q-38 -5 -50 -15t-18 -35l-39 -202q-18 -88 -72 -112q49 -35 27 -120l-39 -199q-4 -26 4 -35.5t45 -14.5
q10 -2 10 -6q0 -1 -1 -4l-3 -14q-2 -8 -10 -12q-17 -5 -44 -5q-30 0 -43.5 14.5t-12 37t4.5 49.5z" />
    <glyph glyph-name="bar" unicode="|" horiz-adv-x="195" 
d="M164 682v-787q0 -11 -12 -11h-22q-14 0 -14 11v787q0 12 13 12h22q13 0 13 -12z" />
    <glyph glyph-name="braceright" unicode="}" horiz-adv-x="214" 
d="M143 175l-37 -186q-10 -52 -29.5 -76.5t-59.5 -24.5q-29 0 -42 5q-6 3 -5 12l2 14q2 8 13 10q38 5 50.5 15t16.5 35l39 199q10 49 24.5 75t48.5 45q-42 22 -28 112l39 202q6 25 -2.5 35t-45.5 15q-10 2 -10 6q0 1 1 4l3 14q2 8 10 12q17 5 44 5q30 0 43.5 -14.5t12 -37
t-4.5 -49.5l-35 -179q-10 -30 -8 -66q3 -32 31 -41q9 -1 7 -10l-3 -14q-1 -7 -11 -10q-36 -12 -47 -43q-7 -19 -17 -64z" />
    <glyph glyph-name="asciitilde" unicode="~" 
d="M341 244q-30 0 -82 34q-44 29 -63 29q-26 0 -70 -47q-10 -12 -21 -4l-13 8q-8 6 -2 19q48 74 112 74q34 0 86 -34q47 -29 62 -29q13 0 24 7q13 7 44 41q10 10 19 3l14 -10q8 -8 2 -15q-49 -76 -112 -76z" />
    <glyph glyph-name="exclamdown" unicode="&#xa1;" horiz-adv-x="201" 
d="M167 487q30 0 30 -25q0 -53 -46 -53q-29 0 -29 25q0 53 45 53zM151 310l-82 -483q-1 -13 -12 -13h-35q-11 0 -10 13q8 43 51 239q30 136 52 244q3 11 13 11h17q9 0 6 -11z" />
    <glyph glyph-name="cent" unicode="&#xa2;" horiz-adv-x="467" 
d="M311 497q2 0 11 -0.5t12 -0.5l41 123q4 10 13 9l21 -2q9 -2 5 -12l-41 -123q33 -4 65 -16q8 -3 5 -14l-7 -17q-3 -8 -19 -7q-45 6 -60 6l-132 -401h11q62 0 123 10q14 2 14 -9l-1 -16q0 -10 -10 -14q-53 -22 -141 -22q-2 0 -7 0.5t-6 0.5l-40 -121q-2 -11 -12 -10l-22 3
q-8 2 -5 11l40 122q-82 21 -82 133q0 48 13 113q19 115 59 178q48 76 152 76zM145 141q0 -75 42 -91l131 396h-12q-62 0 -95.5 -45t-53.5 -155q-12 -74 -12 -105z" />
    <glyph glyph-name="sterling" unicode="&#xa3;" 
d="M353 669q84 0 142 -23q11 -4 6 -15l-7 -20q-5 -9 -15 -8q-99 11 -125 11q-96 0 -119 -117l-28 -145h167q14 0 11 -11l-5 -24q-2 -12 -15 -12h-166l-16 -81q-25 -135 -72 -171h278q14 0 11 -12l-7 -31q-1 -10 -15 -10h-343q-7 0 -10 2.5t-2 8.5l4 22q3 11 17 19
q58 28 81 163l18 90h-42q-13 0 -10 12l4 24q3 11 14 11h43l28 149q15 79 60 123.5t113 44.5z" />
    <glyph glyph-name="currency" unicode="&#xa4;" 
d="M96 267q0 55 33 102l-47 46q-6 6 -2 13l24 24q6 6 12 -1l47 -46q43 32 100 32q59 0 103 -32l47 48q7 8 13 1l22 -24q6 -5 0 -13l-48 -48q33 -43 33 -100q0 -58 -34 -107l49 -49q10 -6 2 -14l-23 -23q-6 -6 -14 2l-48 49q-46 -31 -102 -31q-52 0 -96 29l-51 -50
q-7 -9 -14 -2l-24 23q-6 6 2 13l51 50q-35 47 -35 108zM145 267q0 -54 33 -89t85 -35q53 0 87 36q35 37 35 88q0 55 -34 89.5t-88 34.5q-52 0 -85 -34.5t-33 -89.5z" />
    <glyph glyph-name="yen" unicode="&#xa5;" 
d="M196 653l72 -299h4l191 299q5 9 16 9h37q14 0 7 -10l-223 -340h138q8 0 7 -9l-5 -29q-1 -7 -11 -7h-145l-11 -54h144q10 0 9 -10l-6 -28q-2 -6 -10 -6h-145l-30 -157q-3 -12 -15 -12h-29q-14 0 -11 12l30 157h-140q-6 0 -7.5 1.5t-0.5 5.5l5 29q2 8 12 8h139l11 54h-140
q-10 0 -8 8l6 29q0 8 12 8h131l-90 340q-1 5 2 7.5t9 2.5h32q10 0 13 -9z" />
    <glyph glyph-name="brokenbar" unicode="&#xa6;" horiz-adv-x="195" 
d="M167 268v-373q0 -11 -12 -11h-22q-14 0 -14 11v373q0 11 13 11h22q13 0 13 -11zM167 680v-355q0 -11 -12 -11h-22q-14 0 -14 11v355q0 12 13 12h22q13 0 13 -12z" />
    <glyph glyph-name="section" unicode="&#xa7;" horiz-adv-x="364" 
d="M277 665q97 0 144 -29q6 -3 2 -13l-7 -16q-6 -12 -20 -7q-58 16 -115 16q-56 0 -90.5 -30t-34.5 -76q0 -40 66 -81l28 -18q20 -12 30 -20q8 -5 24 -18q22 -16 40 -45q17 -25 17 -60q0 -43 -19 -76t-64 -74q37 -37 37 -86q0 -87 -57 -132q-56 -45 -130 -45q-97 0 -152 30
q-8 7 -3 15l8 16q5 11 19 6q63 -18 131 -18q58 0 93.5 33t35.5 89q0 34 -21.5 54.5t-82.5 52.5q-102 54 -102 135q0 76 85 152q-38 35 -38 80q0 77 53 121t123 44zM171 391q-63 -55 -63 -117q0 -23 12 -42q2 -3 32 -33q12 -9 44 -27l25 -12l23 -12q62 59 62 113
q0 35 -26.5 60t-95.5 63q-3 1 -7 3.5t-6 3.5z" />
    <glyph glyph-name="dieresis" unicode="&#xa8;" horiz-adv-x="416" 
d="M390 645q26 0 26 -21q0 -48 -39 -48q-26 0 -26 20q0 49 39 49zM242 645q25 0 25 -20q0 -49 -38 -49q-26 0 -26 21q0 48 39 48z" />
    <glyph glyph-name="copyright" unicode="&#xa9;" horiz-adv-x="751" 
d="M756 326q0 -141 -99 -240q-100 -98 -240 -98q-142 0 -240 98q-98 100 -98 240q0 141 99 239q99 99 239 99q143 0 241 -98t98 -240zM629 112q88 88 88 214q0 125 -88 213q-89 89 -212 89t-212 -89q-87 -89 -87 -213q0 -126 87 -214q88 -88 212 -88t212 88zM422 118
q-79 0 -109 53.5t-30 148.5q0 87 26 143q31 64 116 64q56 0 98 -16q8 -5 7 -12l-3 -14q-1 -9 -15 -7q-60 7 -86 7q-54 0 -74.5 -39.5t-20.5 -123.5t21 -123t73 -39q42 0 92 8q11 0 13 -8l2 -14q3 -8 -6 -12q-39 -16 -104 -16z" />
    <glyph glyph-name="ordfeminine" unicode="&#xaa;" horiz-adv-x="296" 
d="M219 590q45 0 84 -24l2 8q1 9 13 9h18q13 0 12 -13l-59 -296q-3 -13 -14 -13h-19q-6 0 -10 2.5t-3 7.5l5 24q-62 -40 -108 -40q-40 -3 -59 21.5t-18 66.5t11 98q32 149 145 149zM212 547q-36 0 -57 -30t-36 -101q-9 -40 -9 -66q0 -29 9 -40t31 -11q19 0 51.5 12t54.5 26
q5 29 38 192q-41 18 -82 18z" />
    <glyph glyph-name="guillemotleft" unicode="&#xab;" horiz-adv-x="329" 
d="M105 42l-63 125q-6 10 5 22l110 126q11 11 22 11h32q5 0 5.5 -4t-2.5 -7l-121 -137l71 -138q2 -3 0 -6t-6 -3h-36q-12 0 -17 11zM224 42l-62 125q-6 10 5 22l110 126q11 11 22 11h31q5 0 5.5 -4t-2.5 -7l-120 -137l34 -68q29 -55 36 -70q2 -9 -5 -9h-36q-12 0 -18 11z
" />
    <glyph glyph-name="logicalnot" unicode="&#xac;" 
d="M384 134h-23q-9 0 -8 10l31 161h-275q-11 0 -9 9l5 26q3 11 13 11h308q12 0 9 -10l-38 -197q-3 -10 -13 -10z" />
    <glyph glyph-name="sfthyphen" unicode="&#xad;" horiz-adv-x="306" 
d="M298 299h-232q-9 0 -9 6v3l6 29q1 9 12 9h232q8 0 8 -7v-2l-6 -30q-2 -8 -11 -8z" />
    <glyph glyph-name="registered" unicode="&#xae;" horiz-adv-x="485" 
d="M90 507q0 89 61 150q62 62 150 62q90 0 150 -62q61 -61 61 -150t-62 -151t-149 -62q-88 0 -150 62q-61 61 -61 151zM301 690q-77 0 -129 -54q-53 -53 -53 -129q0 -75 53 -130q52 -54 129 -54q75 0 128 54q53 55 53 130q0 76 -53 129q-53 54 -128 54zM392 373h-21
q-7 0 -15 15l-44 94h-51v-100q0 -9 -7 -9h-17q-8 0 -8 8v247q0 8 9 8h77q35 0 56.5 -19.5t21.5 -56.5q0 -58 -48 -74l52 -103q4 -10 -5 -10zM309 606h-48v-95h50q49 0 49 49q0 46 -51 46z" />
    <glyph glyph-name="overscore" unicode="&#xaf;" horiz-adv-x="416" 
d="M430 622l-6 -30q-2 -8 -11 -8h-206q-11 0 -8 8l6 30q1 10 11 10h206q11 0 8 -10z" />
    <glyph glyph-name="degree" unicode="&#xb0;" horiz-adv-x="293" 
d="M204 654q46 0 78 -33q32 -32 32 -76q0 -45 -32 -76t-78 -31q-51 0 -82.5 30.5t-31.5 76.5q0 45 33 76q35 33 81 33zM271 544q0 30 -20 50t-48 20q-29 0 -49.5 -20t-20.5 -50t19 -49t51 -19q30 0 49 19.5t19 48.5z" />
    <glyph glyph-name="plusminus" unicode="&#xb1;" 
d="M435 341l-5 -28q-2 -8 -13 -8h-129l-31 -161q-1 -10 -11 -10h-29q-9 0 -8 10l31 161h-131q-10 0 -8 8l6 28q1 10 11 10h131l30 155q3 10 13 10h29q9 0 6 -10l-30 -155h129q10 0 9 -10zM383 76l-5 -27q-2 -8 -12 -8h-307q-11 0 -8 9l5 26q2 9 11 9h307q10 0 9 -9z" />
    <glyph glyph-name="twosuperior" unicode="&#xb2;" horiz-adv-x="293" 
d="M72 404l169 156q58 54 58 106q0 46 -66 46q-35 0 -95 -7q-9 -1 -9 7v15q1 10 10 14q31 16 103 16q104 0 104 -83q0 -74 -74 -142l-148 -137v-1h166q10 0 9 -12l-3 -18q-3 -12 -15 -12h-217q-7 0 -9.5 2t-1.5 10l3 16q1 11 16 24z" />
    <glyph glyph-name="threesuperior" unicode="&#xb3;" horiz-adv-x="293" 
d="M157 347q-15 0 -52 5q-32 5 -47 12q-9 5 -5 14l7 12q4 10 18 9q50 -8 89 -8q48 0 78 30.5t30 81.5q0 36 -44 44l-61 11q-13 3 -11 15l4 17q1 8 11 16l115 102q0 1 -1 2h-153q-13 0 -11 11l4 20q3 12 15 12h202q7 0 10.5 -3.5t2.5 -8.5l-4 -20q-3 -12 -14 -23l-117 -102
q53 -10 73 -22q27 -16 27 -62q0 -90 -47.5 -127.5t-118.5 -37.5z" />
    <glyph glyph-name="acute" unicode="&#xb4;" horiz-adv-x="415" 
d="M407 678l-100 -127q-6 -7 -13 -3l-15 10q-6 3 0 13l79 134q5 8 14 3l32 -16q9 -5 3 -14z" />
    <glyph glyph-name="mu" unicode="&#xb5;" horiz-adv-x="425" 
d="M74 10l-33 -172q-3 -13 -17 -13h-28q-12 0 -9 13l124 637q1 12 15 12h28q12 0 11 -12l-61 -315q-15 -61 -3.5 -90t56.5 -29q47 0 165 62l72 372q2 12 16 12h26q14 0 12 -12l-90 -463q-2 -12 -16 -12h-27q-13 0 -12 12l7 39h-3q-97 -60 -167 -60q-44 0 -66 19z" />
    <glyph glyph-name="mu" unicode="&#x3bc;" horiz-adv-x="425" 
d="M74 10l-33 -172q-3 -13 -17 -13h-28q-12 0 -9 13l124 637q1 12 15 12h28q12 0 11 -12l-61 -315q-15 -61 -3.5 -90t56.5 -29q47 0 165 62l72 372q2 12 16 12h26q14 0 12 -12l-90 -463q-2 -12 -16 -12h-27q-13 0 -12 12l7 39h-3q-97 -60 -167 -60q-44 0 -66 19z" />
    <glyph glyph-name="paragraph" unicode="&#xb6;" horiz-adv-x="422" 
d="M302 659h179q14 0 11 -13l-5 -25q-3 -14 -17 -14h-27l-132 -684q-3 -13 -16 -13h-24q-15 0 -12 13l133 685h-84l-133 -685q-3 -13 -17 -13h-24q-14 0 -11 13l75 389q-65 0 -90 49q-26 50 -12 115q18 84 74 133.5t132 49.5z" />
    <glyph glyph-name="middot" unicode="&#xb7;" horiz-adv-x="156" 
d="M104 292q30 0 30 -24q0 -56 -46 -56q-28 0 -28 24q0 56 44 56z" />
    <glyph glyph-name="cedilla" unicode="&#xb8;" horiz-adv-x="350" 
d="M127 -59l39 73h32l-32 -61q40 -3 53.5 -19t7.5 -47q-15 -74 -102 -74q-39 0 -60 12q-4 3 -1 8l7 15q5 6 9 5q33 -6 51 -6q42 0 50 38q4 20 -5.5 27.5t-40.5 10.5q-16 1 -8 18z" />
    <glyph glyph-name="onesuperior" unicode="&#xb9;" horiz-adv-x="249" 
d="M256 382l-4 -19q-2 -11 -13 -11h-165q-7 0 -9 2t-1 9l4 19q2 12 14 12h56l59 302h-56q-13 0 -11 11l2 10q3 10 12 13l58 19q11 4 21 4h18q14 0 13 -13l-68 -346h61q11 0 9 -12z" />
    <glyph glyph-name="ordmasculine" unicode="&#xba;" horiz-adv-x="289" 
d="M322 430q-11 -56 -29 -95q-17 -38 -47 -57.5t-82 -21.5q-63 0 -85 37q-10 18 -11 41q-3 36 9 96q30 161 152 161q79 0 93 -52q12 -43 0 -109zM275 424q30 123 -54 123q-43 0 -64.5 -29t-34.5 -94q-31 -125 51 -125q44 0 67 29.5t35 95.5z" />
    <glyph glyph-name="guillemotright" unicode="&#xbb;" horiz-adv-x="329" 
d="M179 167l-111 -125q-9 -11 -22 -11h-36q-4 0 -4 3t2 6l124 138l-68 137q-2 3 0.5 7t7.5 4h32q9 0 17 -11l61 -126q7 -12 -3 -22zM298 167l-111 -125q-9 -11 -22 -11h-35q-4 0 -4.5 3t2.5 6l124 138l-68 137q-2 3 0.5 7t7.5 4h31q9 0 18 -11l60 -126q8 -11 -3 -22z" />
    <glyph glyph-name="onequarter" unicode="&#xbc;" horiz-adv-x="682" 
d="M609 138l-4 -18q-1 -12 -14 -12h-37l-19 -96q-1 -12 -15 -12h-19q-11 0 -10 12l18 96h-173q-12 0 -11 12l4 16q1 10 10 19l221 235q11 10 23 10h14q13 0 11 -11l-46 -239h37q13 0 10 -12zM386 150h131l35 176zM262 292l-4 -19q-2 -11 -13 -11h-165q-7 0 -9 2t-1 9l4 19
q2 12 14 12h56l59 302h-56q-13 0 -11 11l2 10q3 10 12 13l58 19q11 4 21 4h18q14 0 13 -13l-68 -346h61q11 0 9 -12zM566 689l-369 -703q-5 -9 -14 -9h-23q-12 0 -6 11l371 702q3 10 14 10h23q9 0 4 -11z" />
    <glyph glyph-name="onehalf" unicode="&#xbd;" horiz-adv-x="682" 
d="M245 292l-4 -19q-2 -11 -13 -11h-165q-7 0 -9 2t-1 9l4 19q1 12 14 12h56l59 302h-56q-13 0 -11 11l2 10q3 10 12 13l58 19q11 4 21 4h18q14 0 13 -13l-68 -346h61q10 0 9 -12zM361 52l169 156q58 54 58 106q0 46 -66 46q-35 0 -95 -7q-9 -1 -9 7v15q1 10 10 14
q31 16 103 16q104 0 104 -83q0 -74 -74 -142l-148 -137v-1h166q11 0 9 -12l-3 -18q-3 -12 -15 -12h-217q-7 0 -9.5 2t-1.5 10l3 16q1 11 16 24zM543 689l-369 -703q-4 -9 -14 -9h-23q-12 0 -6 11l371 702q3 10 14 10h23q9 0 4 -11z" />
    <glyph glyph-name="threequarters" unicode="&#xbe;" horiz-adv-x="682" 
d="M581 689l-369 -703q-4 -9 -14 -9h-23q-12 0 -6 11l371 702q3 10 14 10h23q9 0 4 -11zM150 257q-15 0 -52 5q-32 5 -47 12q-9 5 -5 14l7 12q5 10 18 9q50 -8 89 -8q48 0 78 30.5t30 81.5q0 36 -44 44l-61 11q-13 3 -11 15l4 17q1 8 11 16l115 102q0 1 -1 2h-153
q-13 0 -11 11l4 20q3 12 15 12h202q7 0 10.5 -3.5t2.5 -8.5l-4 -20q-3 -12 -14 -23l-117 -102q53 -10 73 -22q27 -16 27 -62q0 -90 -47.5 -127.5t-118.5 -37.5zM631 138l-4 -18q-1 -12 -14 -12h-37l-19 -96q-1 -12 -15 -12h-19q-11 0 -10 12l18 96h-173q-12 0 -11 12l4 16
q1 10 10 19l221 235q11 10 23 10h14q13 0 11 -11l-46 -239h37q13 0 10 -12zM408 150h131l35 176z" />
    <glyph glyph-name="questiondown" unicode="&#xbf;" horiz-adv-x="295" 
d="M248 311l-13 -74q-16 -98 -142 -192q-38 -28 -55 -53.5t-17 -61.5q0 -69 93 -69q50 0 98 6q11 2 11 -9l-1 -19q0 -10 -14 -15q-46 -17 -110 -17q-60 0 -94.5 29t-34.5 88q0 39 16 70q15 29 31 45.5t48 39.5q56 42 84 78.5t39 89.5l12 63q1 12 13 12h24q8 0 10.5 -2.5
t1.5 -8.5zM209 447q9 40 45 40q22 0 27.5 -9.5t1.5 -30.5q-7 -39 -44 -39t-30 39z" />
    <glyph glyph-name="Agrave" unicode="&#xc0;" horiz-adv-x="458" 
d="M365 651l57 -640q2 -11 -9 -11h-37q-10 0 -12 9l-12 173h-222l-79 -171q-5 -11 -16 -11h-39q-12 0 -6 11l305 640q5 11 17 11h41q10 0 12 -11zM332 439l-10 150h-4l-69 -152l-95 -204h195zM226 799l28 31q8 11 16 3l93 -90q4 -7 -1 -12l-15 -16q-7 -7 -13 -3l-107 75
q-7 4 -1 12z" />
    <glyph glyph-name="Aacute" unicode="&#xc1;" horiz-adv-x="458" 
d="M365 651l57 -640q2 -11 -9 -11h-37q-10 0 -12 9l-12 173h-222l-79 -171q-5 -11 -16 -11h-39q-12 0 -6 11l305 640q5 11 17 11h41q10 0 12 -11zM332 439l-10 150h-4l-69 -152l-95 -204h195zM460 830l19 -30q5 -8 -6 -14l-134 -74q-9 -6 -13 3l-10 15q-4 7 4 12l125 90
q11 8 15 -2z" />
    <glyph glyph-name="Acircumflex" unicode="&#xc2;" horiz-adv-x="458" 
d="M365 651l57 -640q2 -11 -9 -11h-37q-10 0 -12 9l-12 173h-222l-79 -171q-5 -11 -16 -11h-39q-12 0 -6 11l305 640q5 11 17 11h41q10 0 12 -11zM332 439l-10 150h-4l-69 -152l-95 -204h195zM349 833h27q18 0 24 -8l67 -88q3 -7 -2 -12l-16 -15q-7 -4 -12 0l-83 78
l-114 -81q-9 -6 -12 1l-10 14q-3 5 2 13l103 91q7 7 26 7z" />
    <glyph glyph-name="Atilde" unicode="&#xc3;" horiz-adv-x="458" 
d="M365 651l57 -640q2 -11 -9 -11h-37q-10 0 -12 9l-12 173h-222l-79 -171q-5 -11 -16 -11h-39q-12 0 -6 11l305 640q5 11 17 11h41q10 0 12 -11zM332 439l-10 150h-4l-69 -152l-95 -204h195zM397 718q-24 0 -63 27q-31 20 -47 20q-23 0 -49 -36q-8 -12 -18 -6l-12 7
q-8 5 -1 17q38 65 89 65q20 0 63 -28q28 -19 46 -19q19 0 45 36q8 11 18 6l13 -7q10 -3 2 -14q-38 -68 -86 -68z" />
    <glyph glyph-name="Adieresis" unicode="&#xc4;" horiz-adv-x="458" 
d="M365 651l57 -640q2 -11 -9 -11h-37q-10 0 -12 9l-12 173h-222l-79 -171q-5 -11 -16 -11h-39q-12 0 -6 11l305 640q5 11 17 11h41q10 0 12 -11zM332 439l-10 150h-4l-69 -152l-95 -204h195zM428 798q26 0 26 -20q0 -48 -39 -48q-25 0 -25 19q0 49 38 49zM287 798
q24 0 24 -19q0 -49 -38 -49q-26 0 -26 20q0 48 40 48z" />
    <glyph glyph-name="Aring" unicode="&#xc5;" horiz-adv-x="458" 
d="M365 651l57 -640q2 -11 -9 -11h-37q-10 0 -12 9l-12 173h-222l-79 -171q-5 -11 -16 -11h-39q-12 0 -6 11l305 640q5 11 17 11h41q10 0 12 -11zM332 439l-10 150h-4l-69 -152l-95 -204h195zM365 832q-23 0 -40 -16.5t-20 -41.5q-2 -21 8.5 -34t31.5 -13q23 0 40.5 17
t19.5 41q2 19 -9 33t-31 14zM370 866q36 0 56.5 -22t16.5 -55q-3 -40 -32 -67.5t-70 -27.5q-36 0 -57 21.5t-17 55.5q4 42 33.5 68.5t69.5 26.5z" />
    <glyph glyph-name="AE" unicode="&#xc6;" horiz-adv-x="700" 
d="M673 41l-6 -31q-1 -10 -13 -10h-317q-7 0 -9.5 2.5t-1.5 7.5l6 34l14 70l13 68h-195l-113 -171q-8 -11 -19 -11h-42q-12 0 -4 12l427 640q11 11 19 11h306q13 0 10 -11l-5 -31q-3 -11 -15 -11h-229l-46 -234h217q10 0 9 -10l-6 -29q-1 -12 -13 -12h-216l-54 -273h274
q12 0 9 -11zM369 233l74 373h-4l-240 -373h170z" />
    <glyph glyph-name="Ccedilla" unicode="&#xc7;" horiz-adv-x="450" 
d="M367 669q90 0 146 -22q10 -4 6 -16l-7 -19q-4 -9 -16 -8q-81 10 -135 10q-81 0 -131 -60q-21 -26 -39 -66q-27 -63 -47 -164q-12 -57 -12 -122q0 -154 125 -154q63 0 149 9q13 1 13 -9v-18q0 -11 -10 -15q-60 -22 -144 -23l-20 -39q40 -3 53.5 -19t7.5 -47
q-15 -74 -102 -74q-39 0 -60 12q-4 3 -1 8l7 15q5 6 9 5q33 -6 51 -6q42 0 50 38q4 20 -5.5 27.5t-40.5 10.5q-16 1 -8 18l27 51q-160 7 -160 204q0 60 13 134q22 121 61 201q71 138 220 138z" />
    <glyph glyph-name="Egrave" unicode="&#xc8;" horiz-adv-x="418" 
d="M384 41l-6 -31q-1 -10 -13 -10h-325q-12 0 -9 10l124 641q3 12 13 12h289q12 0 9 -11l-5 -31q-3 -11 -14 -11h-243l-46 -234h228q10 0 9 -10l-6 -29q-1 -12 -13 -12h-227l-54 -273h280q12 0 9 -11zM223 799l28 31q8 11 16 3l93 -90q4 -7 -1 -12l-15 -16q-7 -7 -13 -3
l-107 75q-7 4 -1 12z" />
    <glyph glyph-name="Eacute" unicode="&#xc9;" horiz-adv-x="418" 
d="M384 41l-6 -31q-1 -10 -13 -10h-325q-12 0 -9 10l124 641q3 12 13 12h289q12 0 9 -11l-5 -31q-3 -11 -14 -11h-243l-46 -234h228q10 0 9 -10l-6 -29q-1 -12 -13 -12h-227l-54 -273h280q12 0 9 -11zM417 830l19 -30q5 -8 -6 -14l-134 -74q-9 -6 -13 3l-10 15q-4 7 4 12
l125 90q11 8 15 -2z" />
    <glyph glyph-name="Ecircumflex" unicode="&#xca;" horiz-adv-x="418" 
d="M384 41l-6 -31q-1 -10 -13 -10h-325q-12 0 -9 10l124 641q3 12 13 12h289q12 0 9 -11l-5 -31q-3 -11 -14 -11h-243l-46 -234h228q10 0 9 -10l-6 -29q-1 -12 -13 -12h-227l-54 -273h280q12 0 9 -11zM329 833h27q18 0 24 -8l67 -88q3 -7 -2 -12l-16 -15q-7 -4 -12 0l-83 78
l-114 -81q-9 -6 -12 1l-10 14q-3 5 2 13l103 91q7 7 26 7z" />
    <glyph glyph-name="Edieresis" unicode="&#xcb;" horiz-adv-x="418" 
d="M384 41l-6 -31q-1 -10 -13 -10h-325q-12 0 -9 10l124 641q3 12 13 12h289q12 0 9 -11l-5 -31q-3 -11 -14 -11h-243l-46 -234h228q10 0 9 -10l-6 -29q-1 -12 -13 -12h-227l-54 -273h280q12 0 9 -11zM413 798q26 0 26 -20q0 -48 -39 -48q-25 0 -25 19q0 49 38 49zM272 798
q24 0 24 -19q0 -49 -38 -49q-26 0 -26 20q0 48 40 48z" />
    <glyph glyph-name="Igrave" unicode="&#xcc;" horiz-adv-x="192" 
d="M222 651l-124 -640q-2 -11 -15 -11h-31q-13 0 -11 11l124 640q3 12 15 12h31q14 0 11 -12zM105 799l28 31q8 11 16 3l93 -90q4 -7 -1 -12l-15 -16q-7 -7 -13 -3l-107 75q-7 4 -1 12z" />
    <glyph glyph-name="Iacute" unicode="&#xcd;" horiz-adv-x="192" 
d="M222 651l-124 -640q-2 -11 -15 -11h-31q-13 0 -11 11l124 640q3 12 15 12h31q14 0 11 -12zM321 830l19 -30q5 -8 -6 -14l-134 -74q-9 -6 -13 3l-10 15q-4 7 4 12l125 90q11 8 15 -2z" />
    <glyph glyph-name="Icircumflex" unicode="&#xce;" horiz-adv-x="192" 
d="M222 651l-124 -640q-2 -11 -15 -11h-31q-13 0 -11 11l124 640q3 12 15 12h31q14 0 11 -12zM219 833h27q18 0 24 -8l67 -88q3 -7 -2 -12l-16 -15q-7 -4 -12 0l-83 78l-114 -81q-9 -6 -12 1l-10 14q-3 5 2 13l103 91q7 7 26 7z" />
    <glyph glyph-name="Idieresis" unicode="&#xcf;" horiz-adv-x="192" 
d="M222 651l-124 -640q-2 -11 -15 -11h-31q-13 0 -11 11l124 640q3 12 15 12h31q14 0 11 -12zM300 798q26 0 26 -20q0 -48 -39 -48q-25 0 -25 19q0 49 38 49zM159 798q24 0 24 -19q0 -49 -38 -49q-26 0 -26 20q0 48 40 48z" />
    <glyph glyph-name="Eth" unicode="&#xd0;" horiz-adv-x="520" 
d="M173 662h137q107 0 155 -51t48 -151q0 -53 -11 -127q-26 -160 -97 -246q-72 -87 -217 -87h-141q-9 0 -12 3t-1 9l59 307h-40q-11 0 -9 9l6 30q2 9 12 9h41l55 283q2 12 15 12zM308 610h-102l-47 -243h110q9 0 8 -9l-6 -31q-2 -8 -11 -8h-111l-51 -267h96
q103 0 163.5 66.5t85.5 206.5q12 67 12 122q0 83 -35.5 123t-111.5 40z" />
    <glyph glyph-name="Ntilde" unicode="&#xd1;" horiz-adv-x="528" 
d="M411 113l2 3l104 534q3 13 15 13h30q13 0 10 -13l-124 -639q-3 -11 -14 -11h-30q-11 0 -16 11l-159 436q-24 67 -33 104q-1 -1 -4 -1l-104 -538q-3 -12 -14 -12h-31q-14 0 -11 12l124 640q2 11 14 11h32q11 0 16 -11l133 -368q4 -11 28 -84q27 -75 32 -87zM433 714
q-24 0 -63 27q-31 20 -47 20q-23 0 -49 -36q-8 -12 -18 -6l-12 7q-8 5 -1 17q38 65 89 65q20 0 63 -28q28 -19 46 -19q19 0 45 36q8 11 18 6l13 -7q10 -3 2 -14q-38 -68 -86 -68z" />
    <glyph glyph-name="Ograve" unicode="&#xd2;" horiz-adv-x="537" 
d="M363 671q94 0 135 -46t41 -137q0 -48 -17 -147q-7 -40 -15 -73q-16 -83 -44 -137q-73 -140 -225 -140q-172 0 -172 187q0 61 20 167q19 101 51 173q68 148 226 153zM355 619q-87 0 -135.5 -69.5t-77.5 -218.5q-17 -94 -17 -145q0 -75 25.5 -109t92.5 -34q90 0 140 69
t80 219q17 85 17 145q0 75 -28 109t-97 34zM286 799l28 31q8 11 16 3l93 -90q4 -7 -1 -12l-15 -16q-7 -7 -13 -3l-107 75q-7 4 -1 12z" />
    <glyph glyph-name="Oacute" unicode="&#xd3;" horiz-adv-x="537" 
d="M363 671q94 0 135 -46t41 -137q0 -48 -17 -147q-7 -40 -15 -73q-16 -83 -44 -137q-73 -140 -225 -140q-172 0 -172 187q0 61 20 167q19 101 51 173q68 148 226 153zM355 619q-87 0 -135.5 -69.5t-77.5 -218.5q-17 -94 -17 -145q0 -75 25.5 -109t92.5 -34q90 0 140 69
t80 219q17 85 17 145q0 75 -28 109t-97 34zM495 830l19 -30q5 -8 -6 -14l-134 -74q-9 -6 -13 3l-10 15q-4 7 4 12l125 90q11 8 15 -2z" />
    <glyph glyph-name="Ocircumflex" unicode="&#xd4;" horiz-adv-x="537" 
d="M363 671q94 0 135 -46t41 -137q0 -48 -17 -147q-7 -40 -15 -73q-16 -83 -44 -137q-73 -140 -225 -140q-172 0 -172 187q0 61 20 167q19 101 51 173q68 148 226 153zM355 619q-87 0 -135.5 -69.5t-77.5 -218.5q-17 -94 -17 -145q0 -75 25.5 -109t92.5 -34q90 0 140 69
t80 219q17 85 17 145q0 75 -28 109t-97 34zM399 833h27q18 0 24 -8l67 -88q3 -7 -2 -12l-16 -15q-7 -4 -12 0l-83 78l-114 -81q-9 -6 -12 1l-10 14q-3 5 2 13l103 91q7 7 26 7z" />
    <glyph glyph-name="Otilde" unicode="&#xd5;" horiz-adv-x="537" 
d="M363 671q94 0 135 -46t41 -137q0 -48 -17 -147q-7 -40 -15 -73q-16 -83 -44 -137q-73 -140 -225 -140q-172 0 -172 187q0 61 20 167q19 101 51 173q68 148 226 153zM355 619q-87 0 -135.5 -69.5t-77.5 -218.5q-17 -94 -17 -145q0 -75 25.5 -109t92.5 -34q90 0 140 69
t80 219q17 85 17 145q0 75 -28 109t-97 34zM448 728q-24 0 -63 27q-31 20 -47 20q-24 0 -49 -36q-7 -12 -18 -6l-12 7q-8 5 -1 17q38 65 89 65q20 0 63 -28q28 -19 46 -19q20 0 45 36q7 11 18 6l13 -7q10 -3 2 -14q-38 -68 -86 -68z" />
    <glyph glyph-name="Odieresis" unicode="&#xd6;" horiz-adv-x="537" 
d="M363 671q94 0 135 -46t41 -137q0 -48 -17 -147q-7 -40 -15 -73q-16 -83 -44 -137q-73 -140 -225 -140q-172 0 -172 187q0 61 20 167q19 101 51 173q68 148 226 153zM355 619q-87 0 -135.5 -69.5t-77.5 -218.5q-17 -94 -17 -145q0 -75 25.5 -109t92.5 -34q90 0 140 69
t80 219q17 85 17 145q0 75 -28 109t-97 34zM471 798q26 0 26 -20q0 -48 -39 -48q-25 0 -25 19q0 49 38 49zM330 798q24 0 24 -19q0 -49 -38 -49q-26 0 -26 20q0 48 40 48z" />
    <glyph glyph-name="multiply" unicode="&#xd7;" 
d="M350 164l-84 127l-140 -132q-7 -9 -12 -1l-20 20q-4 7 4 14l143 135l-87 133q-7 6 1 12l23 18q8 8 12 0l86 -129l134 128q9 8 14 0l19 -19q5 -4 -3 -12l-138 -132l87 -131q5 -7 -2 -14l-24 -19q-8 -5 -13 2z" />
    <glyph glyph-name="Oslash" unicode="&#xd8;" horiz-adv-x="540" 
d="M369 671q88 0 131 -43l31 41q8 9 15 5l15 -11q7 -3 0 -12l-39 -52q23 -43 23 -111q0 -48 -17 -147q-7 -40 -15 -73q-16 -83 -44 -137q-73 -140 -225 -140q-92 0 -136 53l-39 -52q-9 -9 -14 -4l-19 11q-6 5 1 13l51 68q-16 36 -16 98q0 61 20 167q19 101 51 173
q68 148 226 153zM486 476q0 41 -7 65l-333 -446q24 -52 103 -52q90 0 140 69t80 219q17 85 17 145zM361 619q-87 0 -135.5 -69.5t-77.5 -218.5q-17 -94 -17 -145q0 -28 2 -46l330 439q-28 40 -102 40z" />
    <glyph glyph-name="Ugrave" unicode="&#xd9;" horiz-adv-x="513" 
d="M604 649l-82 -420q-46 -237 -247 -237q-206 0 -160 243l82 414q3 14 17 14h29q15 0 12 -14l-81 -416q-18 -95 7.5 -141.5t100.5 -46.5q147 0 185 188l81 416q3 14 17 14h27q15 0 12 -14zM322 799l28 31q8 11 16 3l93 -90q4 -7 -1 -12l-15 -16q-7 -7 -13 -3l-107 75
q-7 4 -1 12z" />
    <glyph glyph-name="Uacute" unicode="&#xda;" horiz-adv-x="513" 
d="M604 649l-82 -420q-46 -237 -247 -237q-206 0 -160 243l82 414q3 14 17 14h29q15 0 12 -14l-81 -416q-18 -95 7.5 -141.5t100.5 -46.5q147 0 185 188l81 416q3 14 17 14h27q15 0 12 -14zM508 830l19 -30q5 -8 -6 -14l-134 -74q-9 -6 -13 3l-10 15q-4 7 4 12l125 90
q11 8 15 -2z" />
    <glyph glyph-name="Ucircumflex" unicode="&#xdb;" horiz-adv-x="513" 
d="M604 649l-82 -420q-46 -237 -247 -237q-206 0 -160 243l82 414q3 14 17 14h29q15 0 12 -14l-81 -416q-18 -95 7.5 -141.5t100.5 -46.5q147 0 185 188l81 416q3 14 17 14h27q15 0 12 -14zM425 833h27q18 0 24 -8l67 -88q3 -7 -2 -12l-16 -15q-7 -4 -12 0l-83 78l-114 -81
q-9 -6 -12 1l-10 14q-3 5 2 13l103 91q7 7 26 7z" />
    <glyph glyph-name="Udieresis" unicode="&#xdc;" horiz-adv-x="513" 
d="M604 649l-82 -420q-46 -237 -247 -237q-206 0 -160 243l82 414q3 14 17 14h29q15 0 12 -14l-81 -416q-18 -95 7.5 -141.5t100.5 -46.5q147 0 185 188l81 416q3 14 17 14h27q15 0 12 -14zM500 798q26 0 26 -20q0 -48 -39 -48q-25 0 -25 19q0 49 38 49zM359 798
q24 0 24 -19q0 -49 -38 -49q-26 0 -26 20q0 48 40 48z" />
    <glyph glyph-name="Yacute" unicode="&#xdd;" horiz-adv-x="423" 
d="M250 352h5q36 64 83 132l111 169q7 9 17 9h41q9 0 5 -10l-241 -358l-55 -282q-3 -12 -12 -12h-33q-14 0 -11 12l55 282l-101 359q-4 9 9 9h39q10 0 11 -9l46 -168q21 -77 31 -133zM418 830l19 -30q5 -8 -6 -14l-134 -74q-9 -6 -13 3l-10 15q-4 7 4 12l125 90q11 8 15 -2z
" />
    <glyph glyph-name="Thorn" unicode="&#xde;" horiz-adv-x="427" 
d="M219 143h-108l-25 -131q-3 -12 -13 -12h-34q-13 0 -10 12l124 639q3 12 14 12h33q12 0 10 -12l-24 -123h105q156 0 156 -148q0 -43 -12.5 -83t-38.5 -75.5t-72 -57t-105 -21.5zM273 476h-97l-55 -282h106q64 0 113 46q50 47 50 133q0 103 -117 103z" />
    <glyph glyph-name="germandbls" unicode="&#xdf;" horiz-adv-x="421" 
d="M206 41q69 0 107.5 61.5t38.5 169.5q0 56 -21.5 78.5t-74.5 22.5q-6 0 -9 1.5t-2 5.5v2l5 23q2 11 13 12q52 12 83.5 56t31.5 100q0 84 -80 84q-100 0 -126 -137l-100 -515q-3 -12 -16 -12h-28q-13 0 -10 12l99 509q18 98 67.5 146.5t119.5 48.5q60 0 94.5 -32.5
t34.5 -91.5q0 -32 -13 -79q-19 -68 -84 -97v-4q72 -23 72 -125q0 -124 -52 -206q-51 -81 -150 -81q-25 0 -52 6q-10 1 -7 14l5 19q3 12 17 10q7 -1 37 -1z" />
    <glyph glyph-name="agrave" unicode="&#xe0;" horiz-adv-x="431" 
d="M387 465l3 14q2 8 16 8h24q9 0 9 -10v-2l-89 -465q-1 -10 -12 -10h-31q-12 0 -9 11l7 38l-1 1q-94 -58 -167 -58q-53 0 -77.5 29.5t-24.5 90.5q0 46 14 124q27 142 73 199q47 59 140 59q69 0 125 -29zM314 99l60 317q-59 28 -123 28q-57 0 -90 -47.5t-56 -162.5
q-14 -73 -14 -108q0 -45 15.5 -63.5t48.5 -18.5q29 0 79 18q53 21 80 37zM306 555l-74 119q-5 8 4 13l33 18q11 5 15 -3l57 -127q4 -7 -3 -11l-18 -11q-10 -4 -14 2z" />
    <glyph glyph-name="aacute" unicode="&#xe1;" horiz-adv-x="431" 
d="M387 465l3 14q2 8 16 8h24q9 0 9 -10v-2l-89 -465q-1 -10 -12 -10h-31q-12 0 -9 11l7 38l-1 1q-94 -58 -167 -58q-53 0 -77.5 29.5t-24.5 90.5q0 46 14 124q27 142 73 199q47 59 140 59q69 0 125 -29zM314 99l60 317q-59 28 -123 28q-57 0 -90 -47.5t-56 -162.5
q-14 -73 -14 -108q0 -45 15.5 -63.5t48.5 -18.5q29 0 79 18q53 21 80 37zM401 678l-100 -127q-6 -7 -13 -3l-15 10q-6 3 0 13l79 134q5 8 14 3l32 -16q9 -5 3 -14z" />
    <glyph glyph-name="acircumflex" unicode="&#xe2;" horiz-adv-x="431" 
d="M387 465l3 14q2 8 16 8h24q9 0 9 -10v-2l-89 -465q-1 -10 -12 -10h-31q-12 0 -9 11l7 38l-1 1q-94 -58 -167 -58q-53 0 -77.5 29.5t-24.5 90.5q0 46 14 124q27 142 73 199q47 59 140 59q69 0 125 -29zM314 99l60 317q-59 28 -123 28q-57 0 -90 -47.5t-56 -162.5
q-14 -73 -14 -108q0 -45 15.5 -63.5t48.5 -18.5q29 0 79 18q53 21 80 37zM362 686l6 -11q5 -11 20.5 -42.5t29.5 -61.5q2 -8 -2 -12l-15 -11q-5 -3 -8 -3q-8 0 -55 71l-21 34l-112 -102q-5 -5 -8 -5q-2 0 -5 3l-15 13q-2 1 -2 4t4 7l106 116q8 8 21 8h35q16 0 21 -8z" />
    <glyph glyph-name="atilde" unicode="&#xe3;" horiz-adv-x="431" 
d="M387 465l3 14q2 8 16 8h24q9 0 9 -10v-2l-89 -465q-1 -10 -12 -10h-31q-12 0 -9 11l7 38l-1 1q-94 -58 -167 -58q-53 0 -77.5 29.5t-24.5 90.5q0 46 14 124q27 142 73 199q47 59 140 59q69 0 125 -29zM314 99l60 317q-59 28 -123 28q-57 0 -90 -47.5t-56 -162.5
q-14 -73 -14 -108q0 -45 15.5 -63.5t48.5 -18.5q29 0 79 18q53 21 80 37zM361 569q-24 0 -63 27q-31 20 -47 20q-23 0 -49 -36q-8 -12 -18 -6l-12 7q-8 5 -1 17q38 65 89 65q20 0 63 -28q28 -19 46 -19q19 0 45 36q8 10 18 6l13 -7q10 -3 2 -14q-38 -68 -86 -68z" />
    <glyph glyph-name="adieresis" unicode="&#xe4;" horiz-adv-x="431" 
d="M387 465l3 14q2 8 16 8h24q9 0 9 -10v-2l-89 -465q-1 -10 -12 -10h-31q-12 0 -9 11l7 38l-1 1q-94 -58 -167 -58q-53 0 -77.5 29.5t-24.5 90.5q0 46 14 124q27 142 73 199q47 59 140 59q69 0 125 -29zM314 99l60 317q-59 28 -123 28q-57 0 -90 -47.5t-56 -162.5
q-14 -73 -14 -108q0 -45 15.5 -63.5t48.5 -18.5q29 0 79 18q53 21 80 37zM386 645q26 0 26 -21q0 -48 -39 -48q-26 0 -26 20q0 49 39 49zM238 645q25 0 25 -20q0 -49 -38 -49q-26 0 -26 21q0 48 39 48z" />
    <glyph glyph-name="aring" unicode="&#xe5;" horiz-adv-x="431" 
d="M387 465l3 14q2 8 16 8h24q9 0 9 -10v-2l-89 -465q-1 -10 -12 -10h-31q-12 0 -9 11l7 38l-1 1q-94 -58 -167 -58q-53 0 -77.5 29.5t-24.5 90.5q0 46 14 124q27 142 73 199q47 59 140 59q69 0 125 -29zM314 99l60 317q-59 28 -123 28q-57 0 -90 -47.5t-56 -162.5
q-14 -73 -14 -108q0 -45 15.5 -63.5t48.5 -18.5q29 0 79 18q53 21 80 37zM327 707q36 0 56.5 -22t16.5 -55q-3 -40 -32 -67.5t-70 -27.5q-36 0 -57 21.5t-17 55.5q4 42 33.5 68.5t69.5 26.5zM322 673q-23 0 -40 -16.5t-20 -41.5q-2 -21 8.5 -34t31.5 -13q23 0 40.5 17
t19.5 41q2 19 -9 33t-31 14z" />
    <glyph glyph-name="ae" unicode="&#xe6;" horiz-adv-x="650" 
d="M614 371q0 38 -22 56.5t-57 18.5q-80 0 -117 -55q-28 -41 -45 -114l-4 -23q20 -4 73 -4q77 3 124 33t48 88zM190 232q-62 0 -94 -35t-32 -96q0 -59 66 -59q36 0 85 20q45 18 85 46q-1 7 -1 32q0 41 7 76q-65 16 -116 16zM259 498q111 0 126 -69q49 67 155 67
q59 0 93.5 -32t34.5 -85q0 -49 -21.5 -85t-58 -55t-77 -27.5t-85.5 -8.5q-41 0 -66 4q-7 -42 -7 -78q0 -49 24 -67.5t73 -18.5q57 0 137 11q11 2 11 -9l-1 -16q0 -10 -8 -15q-37 -22 -155 -22q-93 0 -125 68q-103 -68 -195 -68q-51 0 -78.5 24.5t-27.5 71.5q0 96 50 143.5
t158 47.5q34 0 99 -14q1 12 11 55q10 39 10 53q0 39 -19.5 56t-71.5 17q-66 0 -125 -10q-16 -3 -16 7v19q0 12 18 18q55 18 137 18z" />
    <glyph glyph-name="ccedilla" unicode="&#xe7;" horiz-adv-x="350" 
d="M263 497q76 0 127 -22q8 -3 5 -14l-7 -17q-3 -8 -19 -7q-72 9 -111 9q-62 0 -95.5 -45t-53.5 -155q-12 -74 -12 -105q0 -54 21.5 -76.5t69.5 -22.5q62 0 123 10q14 2 14 -9l-1 -16q0 -10 -10 -14q-51 -21 -131 -22l-20 -38q40 -3 53.5 -19t7.5 -47q-15 -74 -102 -74
q-39 0 -60 12q-4 3 -1 8l7 15q5 6 9 5q33 -6 51 -6q42 0 50 38q4 20 -5.5 27.5t-40.5 10.5q-16 1 -8 18l27 51q-59 6 -85.5 39.5t-26.5 98.5q0 48 13 113q19 115 59 178q48 76 152 76z" />
    <glyph glyph-name="egrave" unicode="&#xe8;" horiz-adv-x="398" 
d="M409 383q0 -46 -21 -83.5t-56 -59.5q-30 -19 -76 -33q-74 -21 -155 -23q-5 -33 -5 -59q0 -44 21 -62.5t67 -18.5q49 0 142 11q13 1 13 -10v-15q0 -11 -8 -14q-59 -24 -156 -24q-71 0 -104 31t-33 104q0 24 13 108q39 261 231 261q56 0 91.5 -31t35.5 -82zM354 371
q0 38 -23 57.5t-60 19.5q-118 0 -155 -169l-9 -48q66 0 150 25q44 15 70.5 44.5t26.5 70.5zM274 555l-74 119q-5 8 4 13l33 18q11 5 15 -3l57 -127q4 -7 -3 -11l-18 -11q-10 -4 -14 2z" />
    <glyph glyph-name="eacute" unicode="&#xe9;" horiz-adv-x="398" 
d="M409 383q0 -46 -21 -83.5t-56 -59.5q-30 -19 -76 -33q-74 -21 -155 -23q-5 -33 -5 -59q0 -44 21 -62.5t67 -18.5q49 0 142 11q13 1 13 -10v-15q0 -11 -8 -14q-59 -24 -156 -24q-71 0 -104 31t-33 104q0 24 13 108q39 261 231 261q56 0 91.5 -31t35.5 -82zM354 371
q0 38 -23 57.5t-60 19.5q-118 0 -155 -169l-9 -48q66 0 150 25q44 15 70.5 44.5t26.5 70.5zM382 678l-100 -127q-6 -7 -13 -3l-15 10q-6 3 0 13l79 134q5 8 14 3l32 -16q9 -5 3 -14z" />
    <glyph glyph-name="ecircumflex" unicode="&#xea;" horiz-adv-x="398" 
d="M409 383q0 -46 -21 -83.5t-56 -59.5q-30 -19 -76 -33q-74 -21 -155 -23q-5 -33 -5 -59q0 -44 21 -62.5t67 -18.5q49 0 142 11q13 1 13 -10v-15q0 -11 -8 -14q-59 -24 -156 -24q-71 0 -104 31t-33 104q0 24 13 108q39 261 231 261q56 0 91.5 -31t35.5 -82zM354 371
q0 38 -23 57.5t-60 19.5q-118 0 -155 -169l-9 -48q66 0 150 25q44 15 70.5 44.5t26.5 70.5zM352 686l6 -11q5 -11 20.5 -42.5t29.5 -61.5q2 -8 -2 -12l-15 -11q-5 -3 -8 -3q-8 0 -55 71l-21 34l-112 -102q-5 -5 -8 -5q-2 0 -5 3l-15 13q-2 1 -2 4t4 7l106 116q8 8 21 8h35
q16 0 21 -8z" />
    <glyph glyph-name="edieresis" unicode="&#xeb;" horiz-adv-x="398" 
d="M409 383q0 -46 -21 -83.5t-56 -59.5q-30 -19 -76 -33q-74 -21 -155 -23q-5 -33 -5 -59q0 -44 21 -62.5t67 -18.5q49 0 142 11q13 1 13 -10v-15q0 -11 -8 -14q-59 -24 -156 -24q-71 0 -104 31t-33 104q0 24 13 108q39 261 231 261q56 0 91.5 -31t35.5 -82zM354 371
q0 38 -23 57.5t-60 19.5q-118 0 -155 -169l-9 -48q66 0 150 25q44 15 70.5 44.5t26.5 70.5zM371 645q26 0 26 -21q0 -48 -39 -48q-26 0 -26 20q0 49 39 49zM223 645q25 0 25 -20q0 -49 -38 -49q-26 0 -26 21q0 48 39 48z" />
    <glyph glyph-name="igrave" unicode="&#xec;" horiz-adv-x="194" 
d="M187 475l-90 -464q-2 -11 -13 -11h-30q-12 0 -10 11l90 464q2 12 14 12h31q11 0 8 -12zM162 555l-74 119q-5 8 4 13l33 18q11 5 15 -3l57 -127q4 -7 -3 -11l-18 -11q-10 -4 -14 2z" />
    <glyph glyph-name="iacute" unicode="&#xed;" horiz-adv-x="194" 
d="M187 475l-90 -464q-2 -11 -13 -11h-30q-12 0 -10 11l90 464q2 12 14 12h31q11 0 8 -12zM279 678l-100 -127q-6 -7 -13 -3l-15 10q-6 3 0 13l79 134q5 8 14 3l32 -16q9 -5 3 -14z" />
    <glyph glyph-name="icircumflex" unicode="&#xee;" horiz-adv-x="195" 
d="M187 475l-90 -464q-2 -11 -13 -11h-30q-12 0 -10 11l90 464q2 12 14 12h31q11 0 8 -12zM243 686l5 -11q6 -11 21.5 -42.5t29.5 -61.5q2 -8 -2 -12l-15 -11q-4 -3 -8 -3q-9 0 -54 71l-22 34l-112 -102q-5 -5 -8 -5q-2 0 -5 3l-15 13q-2 1 -2 4t4 7l106 116q8 8 21 8h35
q16 0 21 -8z" />
    <glyph glyph-name="idieresis" unicode="&#xef;" horiz-adv-x="195" 
d="M187 475l-90 -464q-2 -11 -13 -11h-30q-12 0 -10 11l90 464q2 12 14 12h31q11 0 8 -12zM267 645q26 0 26 -21q0 -48 -39 -48q-26 0 -26 20q0 49 39 49zM119 645q25 0 25 -20q0 -49 -38 -49q-26 0 -26 21q0 48 39 48z" />
    <glyph glyph-name="eth" unicode="&#xf0;" horiz-adv-x="420" 
d="M373 401q-44 41 -109 41q-47 0 -80 -30q-30 -28 -45.5 -66.5t-28.5 -107.5q-9 -54 -11.5 -98t19.5 -72t70 -28q68 0 107.5 56.5t61.5 167.5q16 83 16 137zM450 641l-69 -29q73 -120 32 -338q-18 -94 -47 -159q-54 -118 -182 -122q-88 0 -121 54q-13 23 -18 57
q-6 52 9 131q18 87 42 137q53 115 179 120q57 0 95 -31l4 2q-10 76 -43 128l-93 -39q-10 -4 -10 4l-5 19q-3 10 8 15l76 32q-17 17 -42 38q-29 25 -44 34q-4 4 0 13l11 16q6 9 13 9q5 0 9 -3q66 -37 106 -84l83 34q9 5 11 -4l4 -19q3 -10 -8 -15z" />
    <glyph glyph-name="ntilde" unicode="&#xf1;" horiz-adv-x="413" 
d="M319 496q56 0 80 -25q12 -11 17.5 -26t4 -41t-3 -38.5t-7.5 -51.5l-59 -303q-2 -11 -15 -11h-31q-12 0 -10 11l60 307q16 64 4.5 96t-57.5 32q-50 0 -161 -57l-73 -378q-2 -11 -15 -11h-30q-11 0 -9 11l90 464q3 12 13 12h30q13 0 11 -12l-8 -38q1 0 2 -1q102 60 167 60z
M348 568q-24 0 -63 27q-31 20 -47 20q-24 0 -49 -36q-7 -12 -18 -6l-12 7q-8 5 -1 17q38 65 89 65q20 0 63 -28q28 -19 46 -19q20 0 45 36q7 11 18 6l13 -7q10 -3 2 -14q-38 -68 -86 -68z" />
    <glyph glyph-name="ograve" unicode="&#xf2;" horiz-adv-x="420" 
d="M270 497q144 0 144 -145q0 -42 -12 -100q-16 -86 -41 -143q-24 -56 -66.5 -85t-113.5 -32q-76 0 -109 35t-33 104q0 45 15 121q11 66 37 125q50 115 179 120zM263 447q-66 0 -100.5 -48t-54.5 -154q-13 -62 -13 -104q0 -51 21 -75.5t68 -24.5q69 0 104.5 48t56.5 156
q13 61 13 102q0 100 -95 100zM280 555l-74 119q-5 8 4 13l33 18q11 5 15 -3l57 -127q4 -7 -3 -11l-18 -11q-10 -4 -14 2z" />
    <glyph glyph-name="oacute" unicode="&#xf3;" horiz-adv-x="420" 
d="M270 497q144 0 144 -145q0 -42 -12 -100q-16 -86 -41 -143q-24 -56 -66.5 -85t-113.5 -32q-76 0 -109 35t-33 104q0 45 15 121q11 66 37 125q50 115 179 120zM263 447q-66 0 -100.5 -48t-54.5 -154q-13 -62 -13 -104q0 -51 21 -75.5t68 -24.5q69 0 104.5 48t56.5 156
q13 61 13 102q0 100 -95 100zM389 678l-100 -127q-6 -7 -13 -3l-15 10q-6 3 0 13l79 134q5 8 14 3l32 -16q9 -5 3 -14z" />
    <glyph glyph-name="ocircumflex" unicode="&#xf4;" horiz-adv-x="420" 
d="M270 497q144 0 144 -145q0 -42 -12 -100q-16 -86 -41 -143q-24 -56 -66.5 -85t-113.5 -32q-76 0 -109 35t-33 104q0 45 15 121q11 66 37 125q50 115 179 120zM263 447q-66 0 -100.5 -48t-54.5 -154q-13 -62 -13 -104q0 -51 21 -75.5t68 -24.5q69 0 104.5 48t56.5 156
q13 61 13 102q0 100 -95 100zM354 686l6 -11q5 -11 20.5 -42.5t29.5 -61.5q2 -8 -2 -12l-15 -11q-5 -3 -8 -3q-8 0 -55 71l-21 34l-112 -102q-5 -5 -8 -5q-2 0 -5 3l-15 13q-2 1 -2 4t4 7l106 116q8 8 21 8h35q16 0 21 -8z" />
    <glyph glyph-name="otilde" unicode="&#xf5;" horiz-adv-x="420" 
d="M270 497q144 0 144 -145q0 -42 -12 -100q-16 -86 -41 -143q-24 -56 -66.5 -85t-113.5 -32q-76 0 -109 35t-33 104q0 45 15 121q11 66 37 125q50 115 179 120zM263 447q-66 0 -100.5 -48t-54.5 -154q-13 -62 -13 -104q0 -51 21 -75.5t68 -24.5q69 0 104.5 48t56.5 156
q13 61 13 102q0 100 -95 100zM359 568q-24 0 -63 27q-31 20 -47 20q-23 0 -49 -36q-8 -12 -18 -6l-12 7q-8 5 -1 17q38 65 89 65q20 0 63 -28q28 -19 46 -19q19 0 45 36q8 11 18 6l13 -7q10 -3 2 -14q-38 -68 -86 -68z" />
    <glyph glyph-name="odieresis" unicode="&#xf6;" horiz-adv-x="420" 
d="M270 497q144 0 144 -145q0 -42 -12 -100q-16 -86 -41 -143q-24 -56 -66.5 -85t-113.5 -32q-76 0 -109 35t-33 104q0 45 15 121q11 66 37 125q50 115 179 120zM263 447q-66 0 -100.5 -48t-54.5 -154q-13 -62 -13 -104q0 -51 21 -75.5t68 -24.5q69 0 104.5 48t56.5 156
q13 61 13 102q0 100 -95 100zM378 645q26 0 26 -21q0 -48 -39 -48q-26 0 -26 20q0 49 39 49zM230 645q25 0 25 -20q0 -49 -38 -49q-26 0 -26 21q0 48 39 48z" />
    <glyph glyph-name="divide" unicode="&#xf7;" 
d="M414 303h-307q-10 0 -10 7v2l6 29q3 10 13 10h307q10 0 10 -7v-3l-6 -29q-1 -9 -13 -9zM304 519q30 0 30 -23q0 -55 -45 -55q-29 0 -29 24q0 54 44 54zM244 209q29 0 29 -24q0 -55 -44 -55q-29 0 -29 23q0 56 44 56z" />
    <glyph glyph-name="oslash" unicode="&#xf8;" horiz-adv-x="423" 
d="M276 497q75 0 111 -39l29 36q4 10 12 5l17 -10q6 -5 -1 -13l-37 -48q13 -30 13 -76q0 -42 -12 -100q-16 -86 -41 -143q-24 -56 -66.5 -85t-113.5 -32q-65 0 -100 27l-22 -29q-7 -9 -14 -5l-17 11q-6 5 0 13l29 37q-18 31 -18 85q0 45 15 121q11 66 37 125q50 115 179 120
zM269 447q-66 0 -100.5 -48t-54.5 -154q-13 -62 -13 -104q0 -27 4 -42l245 311q-22 37 -81 37zM364 347q0 6 -2 24l-239 -307q21 -23 67 -23q69 0 104.5 48t56.5 156q13 61 13 102z" />
    <glyph glyph-name="ugrave" unicode="&#xf9;" horiz-adv-x="420" 
d="M135 -8q-63 0 -87 32q-9 12 -11 39q-1 38 11 98l61 315q2 11 13 11h32q11 0 9 -11l-60 -309q-16 -65 -4.5 -95.5t56.5 -30.5q48 0 159 57l73 378q2 11 15 11h29q12 0 10 -11l-90 -465q-2 -11 -14 -11h-29q-13 0 -11 11l7 39q-2 0 -3 1q-95 -59 -166 -59zM282 555l-74 119
q-5 8 4 13l33 18q11 5 15 -3l57 -127q4 -7 -3 -11l-18 -11q-10 -4 -14 2z" />
    <glyph glyph-name="uacute" unicode="&#xfa;" horiz-adv-x="420" 
d="M135 -8q-63 0 -87 32q-9 12 -11 39q-1 38 11 98l61 315q2 11 13 11h32q11 0 9 -11l-60 -309q-16 -65 -4.5 -95.5t56.5 -30.5q48 0 159 57l73 378q2 11 15 11h29q12 0 10 -11l-90 -465q-2 -11 -14 -11h-29q-13 0 -11 11l7 39q-2 0 -3 1q-95 -59 -166 -59zM388 678
l-100 -127q-6 -7 -13 -3l-15 10q-6 3 0 13l79 134q5 8 14 3l32 -16q9 -5 3 -14z" />
    <glyph glyph-name="ucircumflex" unicode="&#xfb;" horiz-adv-x="420" 
d="M135 -8q-63 0 -87 32q-9 12 -11 39q-1 38 11 98l61 315q2 11 13 11h32q11 0 9 -11l-60 -309q-16 -65 -4.5 -95.5t56.5 -30.5q48 0 159 57l73 378q2 11 15 11h29q12 0 10 -11l-90 -465q-2 -11 -14 -11h-29q-13 0 -11 11l7 39q-2 0 -3 1q-95 -59 -166 -59zM360 686l6 -11
q5 -11 20.5 -42.5t29.5 -61.5q2 -8 -2 -12l-15 -11q-5 -3 -8 -3q-9 0 -54 71l-22 34l-112 -102q-5 -5 -8 -5q-2 0 -5 3l-15 13q-2 1 -2 4t4 7l106 116q8 8 21 8h35q16 0 21 -8z" />
    <glyph glyph-name="udieresis" unicode="&#xfc;" horiz-adv-x="420" 
d="M135 -8q-63 0 -87 32q-9 12 -11 39q-1 38 11 98l61 315q2 11 13 11h32q11 0 9 -11l-60 -309q-16 -65 -4.5 -95.5t56.5 -30.5q48 0 159 57l73 378q2 11 15 11h29q12 0 10 -11l-90 -465q-2 -11 -14 -11h-29q-13 0 -11 11l7 39q-2 0 -3 1q-95 -59 -166 -59zM387 645
q26 0 26 -21q0 -48 -39 -48q-26 0 -26 20q0 49 39 49zM239 645q25 0 25 -20q0 -49 -38 -49q-26 0 -26 21q0 48 39 48z" />
    <glyph glyph-name="yacute" unicode="&#xfd;" horiz-adv-x="388" 
d="M142 476l39 -394h6l84 170l113 225q6 10 16 10h35q10 0 4 -11l-325 -642q-4 -10 -17 -10h-30q-11 0 -6 11l80 160l-55 481q-2 11 8 11h36q12 0 12 -11zM377 678l-100 -127q-6 -7 -13 -3l-15 10q-6 3 0 13l79 134q5 8 14 3l32 -16q9 -5 3 -14z" />
    <glyph glyph-name="thorn" unicode="&#xfe;" horiz-adv-x="420" 
d="M200 -9q-40 0 -123 23l-34 -178q-3 -12 -15 -12h-30q-14 0 -9 12l166 856q2 11 13 11h31q12 0 10 -11l-49 -254l1 -1q94 58 166 58q53 0 76 -29t23 -92q0 -52 -12 -124q-22 -137 -71 -198t-143 -61zM151 388l-64 -324q67 -24 125 -24q59 0 93 49.5t53 163.5
q18 98 7.5 146.5t-56.5 44.5q-31 0 -79 -19q-49 -20 -79 -37z" />
    <glyph glyph-name="ydieresis" unicode="&#xff;" horiz-adv-x="388" 
d="M142 476l39 -394h6l84 170l113 225q6 10 16 10h35q10 0 4 -11l-325 -642q-4 -10 -17 -10h-30q-11 0 -6 11l80 160l-55 481q-2 11 8 11h36q12 0 12 -11zM370 645q26 0 26 -21q0 -48 -39 -48q-26 0 -26 20q0 49 39 49zM222 645q25 0 25 -20q0 -49 -38 -49q-26 0 -26 21
q0 48 39 48z" />
    <glyph glyph-name="Amacron" unicode="&#x100;" horiz-adv-x="458" 
d="M365 651l57 -640q2 -11 -9 -11h-37q-10 0 -12 9l-12 173h-222l-79 -171q-5 -11 -16 -11h-39q-12 0 -6 11l305 640q5 11 17 11h41q10 0 12 -11zM332 439l-10 150h-4l-69 -152l-95 -204h195zM464 773l-6 -30q-2 -9 -13 -9h-204q-11 0 -8 9l5 30q1 10 13 10h204q10 0 9 -10z
" />
    <glyph glyph-name="amacron" unicode="&#x101;" horiz-adv-x="431" 
d="M387 465l3 14q2 8 16 8h24q9 0 9 -10v-2l-89 -465q-1 -10 -12 -10h-31q-12 0 -9 11l7 38l-1 1q-94 -58 -167 -58q-53 0 -77.5 29.5t-24.5 90.5q0 46 14 124q27 142 73 199q47 59 140 59q69 0 125 -29zM314 99l60 317q-59 28 -123 28q-57 0 -90 -47.5t-56 -162.5
q-14 -73 -14 -108q0 -45 15.5 -63.5t48.5 -18.5q29 0 79 18q53 21 80 37zM419 622l-6 -30q-2 -8 -11 -8h-206q-11 0 -8 8l6 30q1 10 11 10h206q11 0 8 -10z" />
    <glyph glyph-name="Abreve" unicode="&#x102;" horiz-adv-x="458" 
d="M365 651l57 -640q2 -11 -9 -11h-37q-10 0 -12 9l-12 173h-222l-79 -171q-5 -11 -16 -11h-39q-12 0 -6 11l305 640q5 11 17 11h41q10 0 12 -11zM332 439l-10 150h-4l-69 -152l-95 -204h195zM338 713q-37 0 -64.5 22.5t-37.5 62.5q-4 15 5 21l16 12q11 7 15 -3
q19 -37 34.5 -51.5t41.5 -14.5q23 0 42.5 13t55.5 53q10 10 17 3l12 -11q6 -5 0 -16q-24 -42 -61 -66.5t-76 -24.5z" />
    <glyph glyph-name="abreve" unicode="&#x103;" horiz-adv-x="431" 
d="M387 465l3 14q2 8 16 8h24q9 0 9 -10v-2l-89 -465q-1 -10 -12 -10h-31q-12 0 -9 11l7 38l-1 1q-94 -58 -167 -58q-53 0 -77.5 29.5t-24.5 90.5q0 46 14 124q27 142 73 199q47 59 140 59q69 0 125 -29zM314 99l60 317q-59 28 -123 28q-57 0 -90 -47.5t-56 -162.5
q-14 -73 -14 -108q0 -45 15.5 -63.5t48.5 -18.5q29 0 79 18q53 21 80 37zM301 554q-38 0 -66.5 22t-39.5 62q-6 14 4 21l15 11q11 10 16 -3q19 -37 34.5 -51.5t41.5 -14.5q23 0 43.5 15t54.5 52q9 11 17 3l11 -10q7 -5 -1 -19q-26 -42 -61 -65t-69 -23z" />
    <glyph glyph-name="Aogonek" unicode="&#x104;" horiz-adv-x="458" 
d="M338 -101q-8 -45 37 -45q17 0 45 7q11 2 11 -3l1 -19q0 -8 -8 -10q-27 -13 -60 -15q-42 -1 -61 21t-12 59q14 63 73 112v3l-12 173h-222l-79 -171q-5 -11 -16 -11h-39q-12 0 -6 11l305 640q5 11 17 11h41q10 0 12 -11l57 -640q2 -11 -9 -11h-15q-52 -54 -60 -101z
M332 439l-10 150h-4l-69 -152l-95 -204h195z" />
    <glyph glyph-name="aogonek" unicode="&#x105;" horiz-adv-x="435" 
d="M271 -101q-7 -45 37 -45q17 0 45 7q11 2 11 -3l1 -19q0 -8 -8 -10q-27 -13 -60 -15q-42 -1 -61 21t-12 59q14 63 73 112q0 4 1 5l7 38l-1 1q-94 -58 -167 -58q-53 0 -77.5 29.5t-24.5 90.5q0 46 14 124q27 142 73 199q47 59 140 59q69 0 125 -29l3 14q2 8 16 8h24
q9 0 9 -10v-2l-89 -465q-1 -10 -12 -10h-7q-52 -54 -60 -101zM314 99l60 317q-59 28 -123 28q-57 0 -90 -47.5t-56 -162.5q-14 -73 -14 -108q0 -45 15.5 -63.5t48.5 -18.5q29 0 79 18q53 21 80 37z" />
    <glyph glyph-name="Cacute" unicode="&#x106;" horiz-adv-x="450" 
d="M367 669q90 0 146 -22q10 -4 6 -16l-7 -19q-4 -9 -16 -8q-81 10 -135 10q-81 0 -131 -60q-21 -26 -39 -66q-27 -63 -47 -164q-12 -57 -12 -122q0 -154 125 -154q63 0 149 9q13 1 13 -9v-18q0 -11 -10 -15q-65 -24 -161 -24q-175 0 -175 205q0 60 13 134q22 121 61 201
q71 138 220 138zM476 830l19 -30q5 -8 -6 -14l-134 -74q-9 -6 -13 3l-10 15q-4 7 4 12l125 90q11 8 15 -2z" />
    <glyph glyph-name="cacute" unicode="&#x107;" horiz-adv-x="350" 
d="M263 497q76 0 127 -22q8 -3 5 -14l-7 -17q-3 -8 -19 -7q-72 9 -111 9q-62 0 -95.5 -45t-53.5 -155q-12 -74 -12 -105q0 -54 21.5 -76.5t69.5 -22.5q62 0 123 10q14 2 14 -9l-1 -16q0 -10 -10 -14q-53 -22 -141 -22q-71 0 -102.5 34.5t-31.5 104.5q0 48 13 113
q19 115 59 178q48 76 152 76zM375 678l-100 -127q-6 -7 -13 -3l-15 10q-6 3 0 13l79 134q5 8 14 3l32 -16q9 -5 3 -14z" />
    <glyph glyph-name="Ccircumflex" unicode="&#x108;" horiz-adv-x="450" 
d="M367 669q90 0 146 -22q10 -4 6 -16l-7 -19q-4 -9 -16 -8q-81 10 -135 10q-81 0 -131 -60q-21 -26 -39 -66q-27 -63 -47 -164q-12 -57 -12 -122q0 -154 125 -154q63 0 149 9q13 1 13 -9v-18q0 -11 -10 -15q-65 -24 -161 -24q-175 0 -175 205q0 60 13 134q22 121 61 201
q71 138 220 138zM393 833h27q18 0 24 -8l67 -88q3 -7 -2 -12l-16 -15q-7 -4 -12 0l-83 78l-114 -81q-9 -6 -12 1l-10 14q-3 5 2 13l103 91q7 7 26 7z" />
    <glyph glyph-name="ccircumflex" unicode="&#x109;" horiz-adv-x="350" 
d="M263 497q76 0 127 -22q8 -3 5 -14l-7 -17q-3 -8 -19 -7q-72 9 -111 9q-62 0 -95.5 -45t-53.5 -155q-12 -74 -12 -105q0 -54 21.5 -76.5t69.5 -22.5q62 0 123 10q14 2 14 -9l-1 -16q0 -10 -10 -14q-53 -22 -141 -22q-71 0 -102.5 34.5t-31.5 104.5q0 48 13 113
q19 115 59 178q48 76 152 76zM344 686l6 -11q5 -11 20.5 -42.5t29.5 -61.5q2 -8 -2 -12l-15 -11q-5 -3 -8 -3q-8 0 -55 71l-21 34l-112 -102q-5 -5 -8 -5q-2 0 -5 3l-15 13q-2 1 -2 4t4 7l106 116q8 8 21 8h35q16 0 21 -8z" />
    <glyph glyph-name="Cdotaccent" unicode="&#x10a;" horiz-adv-x="450" 
d="M367 669q90 0 146 -22q10 -4 6 -16l-7 -19q-4 -9 -16 -8q-81 10 -135 10q-81 0 -131 -60q-21 -26 -39 -66q-27 -63 -47 -164q-12 -57 -12 -122q0 -154 125 -154q63 0 149 9q13 1 13 -9v-18q0 -11 -10 -15q-65 -24 -161 -24q-175 0 -175 205q0 60 13 134q22 121 61 201
q71 138 220 138zM386 800q26 0 26 -21q0 -48 -39 -48q-26 0 -26 22q0 47 39 47z" />
    <glyph glyph-name="cdotaccent" unicode="&#x10b;" horiz-adv-x="350" 
d="M263 497q76 0 127 -22q8 -3 5 -14l-7 -17q-3 -8 -19 -7q-72 9 -111 9q-62 0 -95.5 -45t-53.5 -155q-12 -74 -12 -105q0 -54 21.5 -76.5t69.5 -22.5q62 0 123 10q14 2 14 -9l-1 -16q0 -10 -10 -14q-53 -22 -141 -22q-71 0 -102.5 34.5t-31.5 104.5q0 48 13 113
q19 115 59 178q48 76 152 76zM299 645q26 0 26 -21q0 -48 -39 -48q-26 0 -26 22q0 47 39 47z" />
    <glyph glyph-name="Ccaron" unicode="&#x10c;" horiz-adv-x="450" 
d="M367 669q90 0 146 -22q10 -4 6 -16l-7 -19q-4 -9 -16 -8q-81 10 -135 10q-81 0 -131 -60q-21 -26 -39 -66q-27 -63 -47 -164q-12 -57 -12 -122q0 -154 125 -154q63 0 149 9q13 1 13 -9v-18q0 -11 -10 -15q-65 -24 -161 -24q-175 0 -175 205q0 60 13 134q22 121 61 201
q71 138 220 138zM394 710h-28q-18 0 -24 7l-67 91q-4 7 2 13l16 14q7 7 12 1l82 -81l113 78q8 5 13 0l12 -15q3 -5 -4 -12l-102 -88q-11 -8 -25 -8z" />
    <glyph glyph-name="ccaron" unicode="&#x10d;" horiz-adv-x="350" 
d="M263 497q76 0 127 -22q8 -3 5 -14l-7 -17q-3 -8 -19 -7q-72 9 -111 9q-62 0 -95.5 -45t-53.5 -155q-12 -74 -12 -105q0 -54 21.5 -76.5t69.5 -22.5q62 0 123 10q14 2 14 -9l-1 -16q0 -10 -10 -14q-53 -22 -141 -22q-71 0 -102.5 34.5t-31.5 104.5q0 48 13 113
q19 115 59 178q48 76 152 76zM293 541h-37q-16 0 -21 8l-56 115q-5 8 1 12l17 13q9 4 13 0l74 -102l111 102q7 6 13 0l13 -13q3 -4 -3 -12l-103 -115q-5 -8 -22 -8z" />
    <glyph glyph-name="Dcaron" unicode="&#x10e;" horiz-adv-x="517" 
d="M308 610h-102l-108 -558h96q103 0 163.5 66.5t85.5 206.5q12 67 12 122q0 83 -35.5 123t-111.5 40zM173 662h137q107 0 155 -51t48 -151q0 -53 -11 -127q-26 -160 -97 -246q-72 -87 -217 -87h-141q-9 0 -12 3t-1 9l124 638q2 12 15 12zM341 710h-28q-18 0 -24 7l-67 91
q-4 7 2 13l16 14q6 7 12 1l82 -81l113 78q8 5 13 0l12 -15q3 -5 -4 -12l-102 -88q-11 -8 -25 -8z" />
    <glyph glyph-name="dcaron" unicode="&#x10f;" horiz-adv-x="499" 
d="M386 471l1 1l43 219q3 12 15 12h27q10 0 10 -6q0 -1 -0.5 -3t-0.5 -3l-131 -681q-1 -10 -12 -10h-32q-6 0 -8.5 2t-1.5 6l8 42q-97 -58 -167 -58q-53 0 -77.5 29.5t-24.5 90.5q0 46 14 124q27 139 74 200q47 60 141 60q68 0 122 -25zM314 99l63 324q-66 24 -125 24
q-57 0 -90.5 -49t-56.5 -164q-14 -73 -14 -108q0 -45 15.5 -63.5t48.5 -18.5q29 0 79 18q53 21 80 37zM497 563q38 38 38 80q0 19 -9 42q-4 9 5 17l36 24q13 9 19 -1q11 -16 11 -41q0 -83 -82 -140q-10 -10 -14 -2l-7 10q-3 5 3 11z" />
    <glyph glyph-name="Dcroat" unicode="&#x110;" horiz-adv-x="520" 
d="M173 662h137q107 0 155 -51t48 -151q0 -53 -11 -127q-26 -160 -97 -246q-72 -87 -217 -87h-141q-9 0 -12 3t-1 9l59 307h-40q-11 0 -9 9l6 30q2 9 12 9h41l55 283q2 12 15 12zM308 610h-102l-47 -243h110q9 0 8 -9l-6 -31q-2 -8 -11 -8h-111l-51 -267h96
q103 0 163.5 66.5t85.5 206.5q12 67 12 122q0 83 -35.5 123t-111.5 40z" />
    <glyph glyph-name="dslash" unicode="&#x111;" horiz-adv-x="422" 
d="M386 471l1 1q14 74 19 97h-149q-9 0 -8 9l5 24q3 10 13 10h148l15 79q3 12 15 12h27q10 0 10 -6q0 -1 -0.5 -3t-0.5 -3l-15 -79h48q8 0 7 -10l-5 -24q-3 -9 -11 -9h-48l-107 -559q-1 -10 -12 -10h-32q-6 0 -8.5 2t-1.5 6l8 42q-97 -58 -167 -58q-53 0 -77.5 29.5
t-24.5 90.5q0 46 14 124q27 139 74 200q47 60 141 60q68 0 122 -25zM314 99l63 324q-66 24 -125 24q-57 0 -90.5 -49t-56.5 -164q-14 -73 -14 -108q0 -45 15.5 -63.5t48.5 -18.5q29 0 79 18q53 21 80 37z" />
    <glyph glyph-name="Emacron" unicode="&#x112;" horiz-adv-x="418" 
d="M384 41l-6 -31q-1 -10 -13 -10h-325q-12 0 -9 10l124 641q3 12 13 12h289q12 0 9 -11l-5 -31q-3 -11 -14 -11h-243l-46 -234h228q10 0 9 -10l-6 -29q-1 -12 -13 -12h-227l-54 -273h280q12 0 9 -11zM447 773l-6 -30q-1 -9 -13 -9h-204q-11 0 -8 9l5 30q1 10 13 10h204
q10 0 9 -10z" />
    <glyph glyph-name="emacron" unicode="&#x113;" horiz-adv-x="398" 
d="M409 383q0 -46 -21 -83.5t-56 -59.5q-30 -19 -76 -33q-74 -21 -155 -23q-5 -33 -5 -59q0 -44 21 -62.5t67 -18.5q49 0 142 11q13 1 13 -10v-15q0 -11 -8 -14q-59 -24 -156 -24q-71 0 -104 31t-33 104q0 24 13 108q39 261 231 261q56 0 91.5 -31t35.5 -82zM354 371
q0 38 -23 57.5t-60 19.5q-118 0 -155 -169l-9 -48q66 0 150 25q44 15 70.5 44.5t26.5 70.5zM409 622l-6 -30q-2 -8 -11 -8h-206q-11 0 -8 8l6 30q1 10 11 10h206q11 0 8 -10z" />
    <glyph glyph-name="Ebreve" unicode="&#x114;" horiz-adv-x="418" 
d="M384 41l-6 -31q-1 -10 -13 -10h-325q-12 0 -9 10l124 641q3 12 13 12h289q12 0 9 -11l-5 -31q-3 -11 -14 -11h-243l-46 -234h228q10 0 9 -10l-6 -29q-1 -12 -13 -12h-227l-54 -273h280q12 0 9 -11zM317 712q-37 0 -64.5 22.5t-37.5 62.5q-4 15 5 21l16 12q10 8 15 -3
q19 -37 34.5 -51.5t41.5 -14.5q23 0 42.5 13t55.5 53q10 10 17 3l12 -11q6 -5 0 -16q-24 -42 -61 -66.5t-76 -24.5z" />
    <glyph glyph-name="ebreve" unicode="&#x115;" horiz-adv-x="398" 
d="M409 383q0 -46 -21 -83.5t-56 -59.5q-30 -19 -76 -33q-74 -21 -155 -23q-5 -33 -5 -59q0 -44 21 -62.5t67 -18.5q49 0 142 11q13 1 13 -10v-15q0 -11 -8 -14q-59 -24 -156 -24q-71 0 -104 31t-33 104q0 24 13 108q39 261 231 261q56 0 91.5 -31t35.5 -82zM354 371
q0 38 -23 57.5t-60 19.5q-118 0 -155 -169l-9 -48q66 0 150 25q44 15 70.5 44.5t26.5 70.5zM295 554q-38 0 -66.5 22t-39.5 62q-6 14 4 21l15 11q11 10 16 -3q19 -37 34.5 -51.5t41.5 -14.5q23 0 43.5 15t54.5 52q9 11 17 3l11 -10q7 -5 -1 -19q-26 -42 -61 -65t-69 -23z
" />
    <glyph glyph-name="Edotaccent" unicode="&#x116;" horiz-adv-x="418" 
d="M384 41l-6 -31q-1 -10 -13 -10h-325q-12 0 -9 10l124 641q3 12 13 12h289q12 0 9 -11l-5 -31q-3 -11 -14 -11h-243l-46 -234h228q10 0 9 -10l-6 -29q-1 -12 -13 -12h-227l-54 -273h280q12 0 9 -11zM329 790q26 0 26 -21q0 -48 -39 -48q-26 0 -26 22q0 47 39 47z" />
    <glyph glyph-name="edotaccent" unicode="&#x117;" horiz-adv-x="398" 
d="M409 383q0 -46 -21 -83.5t-56 -59.5q-30 -19 -76 -33q-74 -21 -155 -23q-5 -33 -5 -59q0 -44 21 -62.5t67 -18.5q49 0 142 11q13 1 13 -10v-15q0 -11 -8 -14q-59 -24 -156 -24q-71 0 -104 31t-33 104q0 24 13 108q39 261 231 261q56 0 91.5 -31t35.5 -82zM354 371
q0 38 -23 57.5t-60 19.5q-118 0 -155 -169l-9 -48q66 0 150 25q44 15 70.5 44.5t26.5 70.5zM304 645q26 0 26 -21q0 -48 -39 -48q-26 0 -26 22q0 47 39 47z" />
    <glyph glyph-name="Eogonek" unicode="&#x118;" horiz-adv-x="418" 
d="M279 -101q-7 -45 37 -45q17 0 45 7q11 2 11 -3l1 -19q0 -8 -8 -10q-27 -13 -60 -15q-42 -1 -61 21t-12 59q10 55 66 106h-258q-12 0 -9 10l124 641q3 12 13 12h289q12 0 9 -11l-5 -31q-3 -11 -14 -11h-243l-46 -234h228q10 0 9 -10l-6 -29q-1 -12 -13 -12h-227l-54 -273
h280q12 0 9 -11l-6 -31q-1 -10 -13 -10h-26q-52 -54 -60 -101z" />
    <glyph glyph-name="eogonek" unicode="&#x119;" horiz-adv-x="398" 
d="M232 -94q-8 -45 37 -45q17 0 45 7q11 2 11 -3l1 -19q0 -8 -8 -10q-27 -14 -60 -15q-42 -1 -61 21t-12 59q7 47 55 95q-41 -4 -65 -4q-71 0 -104 31t-33 104q0 24 13 108q39 261 231 261q56 0 91.5 -31t35.5 -82q0 -46 -21 -83.5t-56 -59.5q-30 -19 -76 -33
q-74 -21 -155 -23q-5 -33 -5 -59q0 -44 21 -62.5t67 -18.5q49 0 142 11q13 1 13 -10v-15q0 -11 -8 -14q-11 -4 -42 -13q-49 -52 -57 -97zM354 371q0 38 -23 57.5t-60 19.5q-118 0 -155 -169l-9 -48q66 0 150 25q44 15 70.5 44.5t26.5 70.5z" />
    <glyph glyph-name="Ecaron" unicode="&#x11a;" horiz-adv-x="418" 
d="M384 41l-6 -31q-1 -10 -13 -10h-325q-12 0 -9 10l124 641q3 12 13 12h289q12 0 9 -11l-5 -31q-3 -11 -14 -11h-243l-46 -234h228q10 0 9 -10l-6 -29q-1 -12 -13 -12h-227l-54 -273h280q12 0 9 -11zM342 710h-28q-18 0 -24 7l-67 91q-4 7 2 13l16 14q6 7 12 1l82 -81
l113 78q8 5 13 0l12 -15q3 -5 -4 -12l-102 -88q-11 -8 -25 -8z" />
    <glyph glyph-name="ecaron" unicode="&#x11b;" horiz-adv-x="398" 
d="M409 383q0 -46 -21 -83.5t-56 -59.5q-30 -19 -76 -33q-74 -21 -155 -23q-5 -33 -5 -59q0 -44 21 -62.5t67 -18.5q49 0 142 11q13 1 13 -10v-15q0 -11 -8 -14q-59 -24 -156 -24q-71 0 -104 31t-33 104q0 24 13 108q39 261 231 261q56 0 91.5 -31t35.5 -82zM354 371
q0 38 -23 57.5t-60 19.5q-118 0 -155 -169l-9 -48q66 0 150 25q44 15 70.5 44.5t26.5 70.5zM308 541h-37q-16 0 -21 8l-56 115q-5 8 1 12l17 13q9 4 13 0l74 -102l111 102q7 6 13 0l13 -13q3 -4 -3 -12l-103 -115q-5 -8 -22 -8z" />
    <glyph glyph-name="Gcircumflex" unicode="&#x11c;" horiz-adv-x="506" 
d="M358 615q-79 0 -129 -60q-20 -24 -39 -67q-26 -59 -46 -164q-14 -70 -14 -126q0 -152 131 -152q69 0 112 18l44 226h-79q-9 0 -11 2.5t-2 10.5l6 31q3 11 18 11h124q13 0 12 -12l-55 -286q-5 -24 -34 -35q-52 -20 -144 -20q-94 0 -138 49.5t-44 149.5q0 54 14 133
q26 154 85 243q68 103 197 103q92 0 148 -22q10 -4 6 -16l-7 -19q-3 -9 -16 -8q-69 10 -139 10zM401 833h27q18 0 24 -8l67 -88q3 -7 -2 -12l-16 -15q-7 -4 -12 0l-83 78l-114 -81q-9 -6 -12 1l-10 14q-3 5 2 13l103 91q7 7 26 7z" />
    <glyph glyph-name="gcircumflex" unicode="&#x11d;" horiz-adv-x="424" 
d="M445 442l-90 -472q-16 -83 -58.5 -119t-128.5 -36q-79 0 -133 23q-10 3 -5 14l6 17q4 10 20 8q71 -10 117 -10q60 0 89.5 26.5t41.5 87.5l7 39h-1l-24 -8q-63 -22 -110 -20q-66 0 -97 29.5t-32 85.5t11 135q24 136 75.5 195.5t147.5 59.5q87 0 149 -21q21 -7 15 -34z
M320 68l70 364q-66 12 -115 12q-58 0 -97 -40q-40 -40 -62 -152q-22 -113 -7 -161.5t73 -48.5q55 0 138 26zM379 686l5 -11q6 -11 21.5 -42.5t29.5 -61.5q2 -8 -2 -12l-15 -11q-5 -3 -8 -3q-8 0 -55 71l-21 34l-112 -102q-5 -5 -8 -5q-2 0 -5 3l-15 13q-2 1 -2 4t4 7
l106 116q8 8 21 8h35q16 0 21 -8z" />
    <glyph glyph-name="Gbreve" unicode="&#x11e;" horiz-adv-x="506" 
d="M358 615q-79 0 -129 -60q-20 -24 -39 -67q-26 -59 -46 -164q-14 -70 -14 -126q0 -152 131 -152q69 0 112 18l44 226h-79q-9 0 -11 2.5t-2 10.5l6 31q3 11 18 11h124q13 0 12 -12l-55 -286q-5 -24 -34 -35q-52 -20 -144 -20q-94 0 -138 49.5t-44 149.5q0 54 14 133
q26 154 85 243q68 103 197 103q92 0 148 -22q10 -4 6 -16l-7 -19q-3 -9 -16 -8q-69 10 -139 10zM389 712q-37 0 -64.5 22.5t-37.5 62.5q-4 15 5 21l16 12q10 8 15 -3q19 -37 34.5 -51.5t41.5 -14.5q23 0 42.5 13t55.5 53q10 10 17 3l12 -11q6 -5 0 -16q-24 -42 -61 -66.5
t-76 -24.5z" />
    <glyph glyph-name="gbreve" unicode="&#x11f;" horiz-adv-x="424" 
d="M445 442l-90 -472q-16 -83 -58.5 -119t-128.5 -36q-79 0 -133 23q-10 3 -5 14l6 17q4 10 20 8q71 -10 117 -10q60 0 89.5 26.5t41.5 87.5l7 39h-1l-24 -8q-63 -22 -110 -20q-66 0 -97 29.5t-32 85.5t11 135q24 136 75.5 195.5t147.5 59.5q87 0 149 -21q21 -7 15 -34z
M320 68l70 364q-66 12 -115 12q-58 0 -97 -40q-40 -40 -62 -152q-22 -113 -7 -161.5t73 -48.5q55 0 138 26zM320 554q-38 0 -66.5 22t-39.5 62q-6 14 4 21l15 11q11 10 16 -3q19 -37 34.5 -51.5t41.5 -14.5q23 0 43.5 15t54.5 52q9 11 17 3l11 -10q7 -5 -1 -19
q-26 -42 -61 -65t-69 -23z" />
    <glyph glyph-name="Gdotaccent" unicode="&#x120;" horiz-adv-x="506" 
d="M358 615q-79 0 -129 -60q-20 -24 -39 -67q-26 -59 -46 -164q-14 -70 -14 -126q0 -152 131 -152q69 0 112 18l44 226h-79q-9 0 -11 2.5t-2 10.5l6 31q3 11 18 11h124q13 0 12 -12l-55 -286q-5 -24 -34 -35q-52 -20 -144 -20q-94 0 -138 49.5t-44 149.5q0 54 14 133
q26 154 85 243q68 103 197 103q92 0 148 -22q10 -4 6 -16l-7 -19q-3 -9 -16 -8q-69 10 -139 10zM395 790q26 0 26 -21q0 -48 -39 -48q-26 0 -26 22q0 47 39 47z" />
    <glyph glyph-name="gdotaccent" unicode="&#x121;" horiz-adv-x="424" 
d="M445 442l-90 -472q-16 -83 -58.5 -119t-128.5 -36q-79 0 -133 23q-10 3 -5 14l6 17q4 10 20 8q71 -10 117 -10q60 0 89.5 26.5t41.5 87.5l7 39h-1l-24 -8q-63 -22 -110 -20q-66 0 -97 29.5t-32 85.5t11 135q24 136 75.5 195.5t147.5 59.5q87 0 149 -21q21 -7 15 -34z
M320 68l70 364q-66 12 -115 12q-58 0 -97 -40q-40 -40 -62 -152q-22 -113 -7 -161.5t73 -48.5q55 0 138 26zM335 645q26 0 26 -21q0 -48 -39 -48q-26 0 -26 22q0 47 39 47z" />
    <glyph glyph-name="Gcommaaccent" unicode="&#x122;" horiz-adv-x="506" 
d="M358 615q-79 0 -129 -60q-20 -24 -39 -67q-26 -59 -46 -164q-14 -70 -14 -126q0 -152 131 -152q69 0 112 18l44 226h-79q-9 0 -11 2.5t-2 10.5l6 31q3 11 18 11h124q13 0 12 -12l-55 -286q-5 -24 -34 -35q-52 -20 -144 -20q-94 0 -138 49.5t-44 149.5q0 54 14 133
q26 154 85 243q68 103 197 103q92 0 148 -22q10 -4 6 -16l-7 -19q-3 -9 -16 -8q-69 10 -139 10zM145 -212q38 38 38 80q0 20 -9 42q-4 9 5 17l36 24q13 9 19 -1q11 -16 11 -41q0 -83 -82 -140q-9 -9 -14 -2l-7 10q-3 5 3 11z" />
    <glyph glyph-name="gcommaaccent" unicode="&#x123;" horiz-adv-x="424" 
d="M445 442l-90 -472q-16 -83 -58.5 -119t-128.5 -36q-79 0 -133 23q-10 3 -5 14l6 17q4 10 20 8q71 -10 117 -10q60 0 89.5 26.5t41.5 87.5l7 39h-1l-24 -8q-63 -22 -110 -20q-66 0 -97 29.5t-32 85.5t11 135q24 136 75.5 195.5t147.5 59.5q87 0 149 -21q21 -7 15 -34z
M320 68l70 364q-66 12 -115 12q-58 0 -97 -40q-40 -40 -62 -152q-22 -113 -7 -161.5t73 -48.5q55 0 138 26zM393 712q-39 -37 -41 -80q0 -21 8 -42q2 -11 -6 -17l-37 -24q-13 -9 -19 1q-11 15 -9 41q1 81 86 140q11 9 14 2l8 -10q2 -5 -4 -11z" />
    <glyph glyph-name="Hcircumflex" unicode="&#x124;" horiz-adv-x="499" 
d="M539 651l-122 -640q-2 -11 -12 -11h-33q-13 0 -11 11l60 314h-273l-62 -314q-2 -11 -12 -11h-34q-11 0 -9 11l125 640q3 12 13 12h34q11 0 8 -12l-53 -274h273l52 274q3 12 14 12h33q12 0 9 -12zM358 833h27q18 0 24 -8l67 -88q3 -7 -2 -12l-16 -15q-8 -4 -12 0l-83 78
l-114 -81q-9 -6 -12 1l-10 14q-3 5 2 13l103 91q7 7 26 7z" />
    <glyph glyph-name="hcircumflex" unicode="&#x125;" horiz-adv-x="420" 
d="M321 496q56 0 80 -25q15 -15 18.5 -43t1.5 -46.5t-10 -67.5l-59 -303q-2 -11 -14 -11h-32q-11 0 -9 11l59 307q16 69 4.5 98.5t-56.5 29.5q-51 0 -162 -57l-73 -378q-2 -11 -14 -11h-32q-9 0 -7 11l132 681q2 11 11 11h32q12 0 10 -11l-50 -255q2 0 3 -1q102 60 167 60z
M187 840h27q18 0 24 -8l67 -88q3 -7 -2 -12l-16 -15q-7 -5 -12 0l-83 78l-114 -81q-9 -6 -12 1l-10 14q-3 5 2 13l103 91q7 7 26 7z" />
    <glyph glyph-name="Hbar" unicode="&#x126;" horiz-adv-x="499" 
d="M508 489l-91 -478q-2 -11 -12 -11h-33q-13 0 -11 11l60 314h-273l-62 -314q-2 -11 -12 -11h-34q-11 0 -9 11l93 478h-34q-10 0 -8 9l5 24q3 10 13 10h33l23 119q3 12 13 12h34q11 0 8 -12l-23 -119h272l23 119q3 12 14 12h33q12 0 9 -12l-23 -119h28q8 0 7 -10l-5 -24
q-3 -9 -11 -9h-27zM179 489l-21 -112h273l21 112h-273z" />
    <glyph glyph-name="hbar" unicode="&#x127;" horiz-adv-x="420" 
d="M321 496q56 0 80 -25q15 -15 18.5 -43t1.5 -46.5t-10 -67.5l-59 -303q-2 -11 -14 -11h-32q-11 0 -9 11l59 307q16 69 4.5 98.5t-56.5 29.5q-51 0 -162 -57l-73 -378q-2 -11 -14 -11h-32q-9 0 -7 11l108 556h-45q-9 0 -8 9l5 24q3 10 13 10h43l16 82q2 11 11 11h32
q12 0 10 -11l-16 -82h176q8 0 7 -10l-5 -24q-3 -9 -11 -9h-176l-25 -130q2 0 3 -1q102 60 167 60z" />
    <glyph glyph-name="Itilde" unicode="&#x128;" horiz-adv-x="192" 
d="M267 722q-24 0 -63 27q-31 20 -47 20q-23 0 -49 -36q-8 -12 -18 -6l-12 7q-8 5 -1 17q38 65 89 65q20 0 63 -28q28 -19 46 -19q19 0 45 36q8 11 18 6l13 -7q10 -3 2 -14q-38 -68 -86 -68zM222 651l-124 -640q-2 -11 -15 -11h-31q-13 0 -11 11l124 640q3 12 15 12h31
q14 0 11 -12z" />
    <glyph glyph-name="itilde" unicode="&#x129;" horiz-adv-x="194" 
d="M239 566q-24 0 -63 27q-31 20 -47 20q-24 0 -49 -36q-8 -12 -18 -6l-12 7q-8 5 -1 17q38 65 89 65q20 0 63 -28q28 -19 46 -19q19 0 45 36q8 11 18 6l13 -7q10 -3 2 -14q-38 -68 -86 -68zM191 475l-90 -464q-2 -11 -13 -11h-30q-12 0 -10 11l90 464q2 12 14 12h31
q11 0 8 -12z" />
    <glyph glyph-name="Imacron" unicode="&#x12a;" horiz-adv-x="192" 
d="M222 651l-124 -640q-2 -11 -15 -11h-31q-13 0 -11 11l124 640q3 12 15 12h31q14 0 11 -12zM329 773l-6 -30q-1 -9 -13 -9h-204q-11 0 -8 9l5 30q3 10 13 10h204q12 0 9 -10z" />
    <glyph glyph-name="imacron" unicode="&#x12b;" horiz-adv-x="194" 
d="M298 622l-6 -30q-2 -8 -11 -8h-206q-11 0 -8 8l6 30q1 10 11 10h206q9 0 8 -10zM187 475l-90 -464q-2 -11 -13 -11h-30q-12 0 -10 11l90 464q2 12 14 12h31q11 0 8 -12z" />
    <glyph glyph-name="Ibreve" unicode="&#x12c;" horiz-adv-x="193" 
d="M222 651l-124 -640q-2 -11 -15 -11h-31q-13 0 -11 11l124 640q3 12 15 12h31q14 0 11 -12zM202 712q-37 0 -64.5 22.5t-37.5 62.5q-4 15 5 21l16 12q11 8 15 -3q19 -37 34.5 -51.5t41.5 -14.5q23 0 42.5 13t55.5 53q10 10 17 3l12 -11q6 -5 0 -16q-24 -42 -61 -66.5
t-76 -24.5z" />
    <glyph glyph-name="ibreve" unicode="&#x12d;" horiz-adv-x="194" 
d="M187 475l-90 -464q-2 -11 -13 -11h-30q-12 0 -10 11l90 464q2 12 14 12h31q11 0 8 -12zM180 560q-38 0 -66.5 22t-39.5 62q-6 14 4 21l15 11q11 10 16 -3q19 -37 34.5 -51.5t41.5 -14.5q23 0 43.5 15t54.5 52q9 11 17 3l11 -10q7 -5 -1 -19q-26 -42 -61 -65t-69 -23z" />
    <glyph glyph-name="Iogonek" unicode="&#x12e;" horiz-adv-x="192" 
d="M21 -101q-7 -45 37 -45q17 0 45 7q11 2 11 -3l1 -19q0 -8 -8 -10q-27 -13 -60 -15q-42 -1 -61 21t-12 59q12 59 71 111q0 4 1 6l124 640q3 12 15 12h31q14 0 11 -12l-124 -640q-2 -11 -15 -11h-7q-52 -54 -60 -101z" />
    <glyph glyph-name="iogonek" unicode="&#x12f;" horiz-adv-x="179" 
d="M17 -101q-7 -45 37 -45q17 0 45 7q11 2 11 -3l1 -19q0 -8 -8 -10q-27 -13 -60 -15q-42 -1 -61 21t-12 59q12 60 71 110q0 5 1 7l90 464q2 12 15 12h31q11 0 8 -12l-90 -464q-2 -11 -13 -11h-6q-52 -54 -60 -101zM219 617q-5 -36 -40 -36q-19 0 -24 8.5t-2 27.5
q7 34 40 34q19 0 24.5 -8t1.5 -26z" />
    <glyph glyph-name="Idot" unicode="&#x130;" horiz-adv-x="192" 
d="M222 651l-124 -640q-2 -11 -15 -11h-31q-13 0 -11 11l124 640q3 12 15 12h31q14 0 11 -12zM226 800q26 0 26 -21q0 -48 -39 -48q-26 0 -26 22q0 47 39 47z" />
    <glyph glyph-name="dotlessi" unicode="&#x131;" horiz-adv-x="194" 
d="M187 475l-90 -464q-2 -11 -13 -11h-30q-12 0 -10 11l90 464q2 12 14 12h31q11 0 8 -12z" />
    <glyph glyph-name="IJ" unicode="&#x132;" horiz-adv-x="493" 
d="M537 651l-95 -490q-18 -87 -61 -129t-122 -42q-63 0 -111 21q-11 5 -6 16l7 20q5 9 16 8q54 -9 94 -9q59 0 87.5 29.5t40.5 97.5l93 478q3 12 14 12h32q14 0 11 -12zM213 651l-124 -640q-2 -11 -15 -11h-31q-13 0 -11 11l124 640q3 12 15 12h31q14 0 11 -12z" />
    <glyph glyph-name="ij" unicode="&#x133;" horiz-adv-x="327" 
d="M195 617q-5 -36 -40 -36q-19 0 -24 8.5t-2 27.5q7 34 40 34q19 0 24.5 -8t1.5 -26zM162 475l-90 -464q-2 -11 -13 -11h-30q-8 0 -10 2t-1 9l90 464q2 12 15 12h31q11 0 8 -12zM344 476l-105 -540q-12 -60 -43 -95q-36 -44 -131 -42q-13 0 -11 12l2 17q2 11 17 14
q61 10 82 30t30 68l104 536q2 11 14 11h30q13 0 11 -11zM375 617q-5 -36 -39 -36q-19 0 -24 8.5t-2 27.5q7 34 40 34q18 0 23.5 -8t1.5 -26z" />
    <glyph glyph-name="Jcircumflex" unicode="&#x134;" horiz-adv-x="349" 
d="M378 652l-95 -490q-18 -87 -61 -129t-122 -42q-63 0 -111 21q-11 5 -6 16l7 20q5 9 16 8q54 -9 94 -9q59 0 87.5 29.5t40.5 97.5l93 478q3 12 14 12h32q14 0 11 -12zM373 835h27q18 0 24 -8l67 -88q3 -7 -2 -12l-16 -15q-7 -4 -12 0l-83 78l-114 -81q-9 -6 -12 1l-10 14
q-3 5 2 13l103 91q7 7 26 7z" />
    <glyph glyph-name="jcircumflex" unicode="&#x135;" horiz-adv-x="192" 
d="M191 476l-105 -537q-12 -62 -42 -99q-35 -43 -130 -41q-14 0 -12 12l3 17q2 11 16 14q62 9 82 29q19 19 30 69l104 536q2 11 13 11h30q13 0 11 -11zM241 686l5 -11q6 -11 21.5 -42.5t29.5 -61.5q2 -8 -2 -12l-15 -11q-5 -3 -8 -3q-8 0 -55 71l-21 34l-112 -102
q-5 -5 -8 -5q-2 0 -5 3l-15 13q-2 1 -2 4t4 7l106 116q8 8 21 8h35q16 0 21 -8z" />
    <glyph glyph-name="Kcommaaccent" unicode="&#x136;" horiz-adv-x="459" 
d="M210 651l-74 -372l1 -1h1l100 117l232 260q8 8 19 8h43q5 0 7 -3.5t-2 -7.5l-238 -268l119 -373q5 -11 -9 -11h-34q-15 0 -16 10l-103 325l-137 -153l-33 -171q-2 -11 -13 -11h-33q-13 0 -10 11l124 640q3 12 14 12h33q11 0 9 -12zM124 -211q38 38 38 80q0 19 -9 42
q-4 9 5 17l36 24q13 9 19 -1q11 -16 11 -41q0 -83 -82 -140q-10 -9 -14 -2l-7 10q-3 5 3 11z" />
    <glyph glyph-name="kcommaaccent" unicode="&#x137;" horiz-adv-x="363" 
d="M409 475l-177 -177l103 -286q5 -12 -8 -12h-36q-14 0 -17 11l-84 243l-87 -88l-30 -155q-2 -11 -14 -11h-31q-11 0 -9 11l132 681q3 11 13 11h31q13 0 10 -11l-87 -446q0 -1 1 -1l88 91l139 142q10 10 20 10h39q14 0 4 -13zM80 -211q38 38 38 80q0 19 -9 42q-4 9 5 17
l36 24q13 9 19 -1q11 -16 11 -41q0 -83 -82 -140q-10 -9 -14 -2l-7 10q-3 5 3 11z" />
    <glyph glyph-name="kgreenlandic" unicode="&#x138;" horiz-adv-x="367" 
d="M409 475l-177 -177l103 -286q5 -12 -8 -12h-36q-14 0 -17 11l-84 243l-87 -88l-30 -155q-2 -11 -14 -11h-31q-11 0 -9 11l90 466q3 11 13 11h31q13 0 10 -11l-45 -231q0 -1 1 -1l88 91l139 142q10 10 20 10h39q14 0 4 -13z" />
    <glyph glyph-name="Lacute" unicode="&#x139;" horiz-adv-x="403" 
d="M377 41l-6 -31q-3 -10 -13 -10h-315q-12 0 -9 11l124 639q3 13 13 13h34q11 0 8 -13l-116 -598h270q13 0 10 -11zM314 830l19 -30q5 -8 -6 -14l-134 -74q-9 -6 -13 3l-10 15q-4 7 4 12l125 90q11 8 15 -2z" />
    <glyph glyph-name="lacute" unicode="&#x13a;" horiz-adv-x="188" 
d="M91 -7q-30 0 -40.5 16t-4.5 52l123 629q1 12 15 12h28q8 0 10.5 -2.5t1.5 -9.5l-119 -609q-4 -24 1 -30t29 -5q14 0 14 -8l-2 -23q0 -9 -11 -14q-26 -8 -45 -8zM316 866l19 -30q5 -8 -6 -14l-134 -74q-9 -6 -13 3l-10 15q-4 7 4 12l125 90q11 8 15 -2z" />
    <glyph glyph-name="Lcommaaccent" unicode="&#x13b;" horiz-adv-x="403" 
d="M377 41l-6 -31q-3 -10 -13 -10h-315q-12 0 -9 11l124 639q3 13 13 13h34q11 0 8 -13l-116 -598h270q13 0 10 -11zM126 -213q38 38 38 80q0 19 -9 42q-4 9 5 17l36 24q13 9 19 -1q11 -16 11 -41q0 -83 -82 -140q-10 -9 -14 -2l-7 10q-3 5 3 11z" />
    <glyph glyph-name="lcommaaccent" unicode="&#x13c;" horiz-adv-x="188" 
d="M88 -7q-30 0 -40.5 16t-4.5 52l123 629q2 12 15 12h28q8 0 10.5 -2.5t1.5 -9.5l-119 -609q-4 -24 1 -30t29 -5q14 0 14 -8l-2 -23q0 -9 -11 -14q-26 -8 -45 -8zM-10 -212q38 38 38 80q0 20 -9 42q-4 9 5 17l36 24q13 9 19 -1q11 -16 11 -41q0 -83 -82 -140q-9 -9 -14 -2
l-7 10q-3 5 3 11z" />
    <glyph glyph-name="Lcaron" unicode="&#x13d;" horiz-adv-x="403" 
d="M377 41l-6 -31q-3 -10 -13 -10h-315q-12 0 -9 11l124 639q3 13 13 13h34q11 0 8 -13l-116 -598h270q13 0 10 -11zM290 494q38 38 38 80q0 20 -9 42q-4 9 5 17l36 24q13 9 19 -1q11 -16 11 -41q0 -83 -82 -140q-10 -10 -14 -2l-7 10q-3 5 3 11z" />
    <glyph glyph-name="lcaron" unicode="&#x13e;" horiz-adv-x="233" 
d="M91 -7q-30 0 -40.5 16t-4.5 52l123 629q1 12 15 12h28q8 0 10.5 -2.5t1.5 -9.5l-119 -609q-4 -24 1 -30t29 -5q14 0 14 -8l-2 -23q0 -9 -11 -14q-26 -8 -45 -8zM231 543q38 38 38 80q0 19 -9 42q-4 9 5 17l36 24q13 9 19 -1q11 -16 11 -41q0 -83 -82 -140q-9 -10 -14 -2
l-7 10q-3 5 3 11z" />
    <glyph glyph-name="Ldot" unicode="&#x13f;" horiz-adv-x="403" 
d="M377 41l-6 -31q-3 -10 -13 -10h-315q-12 0 -9 11l124 639q3 13 13 13h34q11 0 8 -13l-116 -598h270q13 0 10 -11zM324 369q26 0 26 -21q0 -48 -39 -48q-26 0 -26 22q0 47 39 47z" />
    <glyph glyph-name="ldot" unicode="&#x140;" horiz-adv-x="231" 
d="M91 -7q-30 0 -40.5 16t-4.5 52l123 629q1 12 15 12h28q8 0 10.5 -2.5t1.5 -9.5l-119 -609q-4 -24 1 -30t29 -5q14 0 14 -8l-2 -23q0 -9 -11 -14q-26 -8 -45 -8zM247 386q26 0 26 -21q0 -48 -39 -48q-26 0 -26 22q0 47 39 47z" />
    <glyph glyph-name="Lslash" unicode="&#x141;" horiz-adv-x="403" 
d="M380 41l-6 -31q-3 -10 -13 -10h-315q-12 0 -9 11l44 229l-47 -25q-10 -6 -15 2l-9 20q-6 10 4 14l77 42l70 357q3 13 13 13h34q11 0 8 -13l-63 -324l84 45q10 7 14 -3l11 -20q4 -10 -6 -14l-113 -61l-43 -221h270q13 0 10 -11z" />
    <glyph glyph-name="lslash" unicode="&#x142;" horiz-adv-x="188" 
d="M90 -7q-30 0 -40.5 16t-4.5 52l41 211l-34 -18q-10 -4 -14 2l-10 20q-5 11 5 15l63 33l72 366q2 12 15 12h28q8 0 10.5 -2.5t1.5 -9.5l-66 -334l55 29q10 7 14 -3l11 -20q4 -10 -6 -14l-84 -44l-43 -223q-4 -24 1 -30t29 -5q14 0 14 -8l-2 -23q0 -9 -11 -14
q-26 -8 -45 -8z" />
    <glyph glyph-name="Nacute" unicode="&#x143;" horiz-adv-x="528" 
d="M411 113l2 3l104 534q3 13 15 13h30q13 0 10 -13l-124 -639q-3 -11 -14 -11h-30q-11 0 -16 11l-159 436q-24 67 -33 104q-1 -1 -4 -1l-104 -538q-3 -12 -14 -12h-31q-14 0 -11 12l124 640q2 11 14 11h32q11 0 16 -11l133 -368q4 -11 28 -84q27 -75 32 -87zM472 830
l19 -30q5 -8 -6 -14l-134 -74q-9 -6 -13 3l-10 15q-4 7 4 12l125 90q11 8 15 -2z" />
    <glyph glyph-name="nacute" unicode="&#x144;" horiz-adv-x="413" 
d="M319 496q56 0 80 -25q12 -11 17.5 -26t4 -41t-3 -38.5t-7.5 -51.5l-59 -303q-2 -11 -15 -11h-31q-12 0 -10 11l60 307q16 64 4.5 96t-57.5 32q-50 0 -161 -57l-73 -378q-2 -11 -15 -11h-30q-11 0 -9 11l90 464q3 12 13 12h30q13 0 11 -12l-8 -38q1 0 2 -1q102 60 167 60z
M377 678l-100 -127q-6 -7 -13 -3l-15 10q-6 3 0 13l79 134q5 8 14 3l32 -16q9 -5 3 -14z" />
    <glyph glyph-name="Ncommaaccent" unicode="&#x145;" horiz-adv-x="528" 
d="M411 113l2 3l104 534q3 13 15 13h30q13 0 10 -13l-124 -639q-3 -11 -14 -11h-30q-11 0 -16 11l-159 436q-24 67 -33 104q-1 -1 -4 -1l-104 -538q-3 -12 -14 -12h-31q-14 0 -11 12l124 640q2 11 14 11h32q11 0 16 -11l133 -368q4 -11 28 -84q27 -75 32 -87zM165 -212
q38 38 38 80q0 20 -9 42q-4 9 5 17l36 24q13 9 19 -1q11 -16 11 -41q0 -83 -82 -140q-9 -9 -14 -2l-7 10q-3 5 3 11z" />
    <glyph glyph-name="ncommaaccent" unicode="&#x146;" horiz-adv-x="413" 
d="M319 496q56 0 80 -25q12 -11 17.5 -26t4 -41t-3 -38.5t-7.5 -51.5l-59 -303q-2 -11 -15 -11h-31q-12 0 -10 11l60 307q16 64 4.5 96t-57.5 32q-50 0 -161 -57l-73 -378q-2 -11 -15 -11h-30q-11 0 -9 11l90 464q3 12 13 12h30q13 0 11 -12l-8 -38q1 0 2 -1q102 60 167 60z
M109 -211q38 38 38 80q0 19 -9 42q-4 9 5 17l36 24q13 9 19 -1q11 -16 11 -41q0 -83 -82 -140q-9 -9 -14 -2l-7 10q-3 5 3 11z" />
    <glyph glyph-name="Ncaron" unicode="&#x147;" horiz-adv-x="528" 
d="M411 113l2 3l104 534q3 13 15 13h30q13 0 10 -13l-124 -639q-3 -11 -14 -11h-30q-11 0 -16 11l-159 436q-24 67 -33 104q-1 -1 -4 -1l-104 -538q-3 -12 -14 -12h-31q-14 0 -11 12l124 640q2 11 14 11h32q11 0 16 -11l133 -368q4 -11 28 -84q27 -75 32 -87zM402 710h-28
q-18 0 -24 7l-67 91q-4 7 2 13l16 14q6 7 12 1l82 -81l113 78q8 5 13 0l12 -15q3 -5 -4 -12l-102 -88q-11 -8 -25 -8z" />
    <glyph glyph-name="ncaron" unicode="&#x148;" horiz-adv-x="413" 
d="M319 496q56 0 80 -25q12 -11 17.5 -26t4 -41t-3 -38.5t-7.5 -51.5l-59 -303q-2 -11 -15 -11h-31q-12 0 -10 11l60 307q16 64 4.5 96t-57.5 32q-50 0 -161 -57l-73 -378q-2 -11 -15 -11h-30q-11 0 -9 11l90 464q3 12 13 12h30q13 0 11 -12l-8 -38q1 0 2 -1q102 60 167 60z
M305 541h-37q-16 0 -21 8l-56 115q-5 8 1 12l17 13q9 4 13 0l74 -102l111 102q7 6 13 0l13 -13q3 -4 -3 -12l-103 -115q-5 -8 -22 -8z" />
    <glyph glyph-name="napostrophe" unicode="&#x149;" horiz-adv-x="437" 
d="M342 496q56 0 80 -25q12 -11 17.5 -26t4 -41t-3 -38.5t-7.5 -51.5l-59 -303q-2 -11 -15 -11h-31q-12 0 -10 11l60 307q16 64 4.5 96t-57.5 32q-50 0 -161 -57l-73 -378q-2 -11 -15 -11h-30q-11 0 -9 11l90 464q3 12 13 12h30q12 0 11 -12l-8 -38q1 0 2 -1q102 60 167 60z
M48 520q38 38 38 80q0 20 -9 42q-4 9 5 17l36 24q13 9 19 -1q11 -16 11 -41q0 -83 -82 -140q-10 -10 -14 -2l-7 10q-3 5 3 11z" />
    <glyph glyph-name="Eng" unicode="&#x14a;" horiz-adv-x="528" 
d="M305 234l-63 177q-28 79 -47 141l-4 -1l-104 -539q-3 -12 -13 -12h-31q-14 0 -11 12l124 640q5 11 14 11h32q10 0 15 -11l149 -416q14 -36 42 -126h2l105 540q3 13 14 13h31q13 0 10 -13l-139 -711q-19 -103 -117 -105q-26 0 -46 7q-7 4 -4 13l6 24q4 9 13 8
q48 -3 67.5 9.5t27.5 50.5l10 58l-23 63z" />
    <glyph glyph-name="eng" unicode="&#x14b;" horiz-adv-x="415" 
d="M319 496q56 0 80 -25q12 -11 17.5 -26t4 -41t-3 -38.5t-7.5 -51.5l-75 -375q-19 -103 -117 -105q-26 0 -46 7q-7 4 -4 13l6 24q4 9 13 8q48 -3 67.5 9.5t27.5 50.5l73 372q16 64 4.5 96t-57.5 32q-50 0 -161 -57l-73 -378q-2 -11 -15 -11h-30q-11 0 -9 11l90 464
q3 12 13 12h30q13 0 11 -12l-8 -38q1 0 2 -1q102 60 167 60z" />
    <glyph glyph-name="Omacron" unicode="&#x14c;" horiz-adv-x="537" 
d="M363 671q94 0 135 -46t41 -137q0 -48 -17 -147q-7 -40 -15 -73q-16 -83 -44 -137q-73 -140 -225 -140q-172 0 -172 187q0 61 20 167q19 101 51 173q68 148 226 153zM355 619q-87 0 -135.5 -69.5t-77.5 -218.5q-17 -94 -17 -145q0 -75 25.5 -109t92.5 -34q90 0 140 69
t80 219q17 85 17 145q0 75 -28 109t-97 34zM501 773l-6 -30q-1 -9 -13 -9h-204q-11 0 -8 9l5 30q3 10 13 10h204q12 0 9 -10z" />
    <glyph glyph-name="omacron" unicode="&#x14d;" horiz-adv-x="420" 
d="M270 497q144 0 144 -145q0 -42 -12 -100q-16 -86 -41 -143q-24 -56 -66.5 -85t-113.5 -32q-76 0 -109 35t-33 104q0 45 15 121q11 66 37 125q50 115 179 120zM263 447q-66 0 -100.5 -48t-54.5 -154q-13 -62 -13 -104q0 -51 21 -75.5t68 -24.5q69 0 104.5 48t56.5 156
q13 61 13 102q0 100 -95 100zM408 622l-6 -30q-2 -8 -11 -8h-206q-11 0 -8 8l6 30q1 10 11 10h206q9 0 8 -10z" />
    <glyph glyph-name="Obreve" unicode="&#x14e;" horiz-adv-x="537" 
d="M363 671q94 0 135 -46t41 -137q0 -48 -17 -147q-7 -40 -15 -73q-16 -83 -44 -137q-73 -140 -225 -140q-172 0 -172 187q0 61 20 167q19 101 51 173q68 148 226 153zM355 619q-87 0 -135.5 -69.5t-77.5 -218.5q-17 -94 -17 -145q0 -75 25.5 -109t92.5 -34q90 0 140 69
t80 219q17 85 17 145q0 75 -28 109t-97 34zM380 712q-37 0 -64.5 22.5t-37.5 62.5q-4 15 5 21l16 12q11 8 15 -3q19 -37 34.5 -51.5t41.5 -14.5q23 0 42.5 13t55.5 53q10 10 17 3l12 -11q6 -5 0 -16q-24 -42 -61 -66.5t-76 -24.5z" />
    <glyph glyph-name="obreve" unicode="&#x14f;" horiz-adv-x="420" 
d="M270 497q144 0 144 -145q0 -42 -12 -100q-16 -86 -41 -143q-24 -56 -66.5 -85t-113.5 -32q-76 0 -109 35t-33 104q0 45 15 121q11 66 37 125q50 115 179 120zM263 447q-66 0 -100.5 -48t-54.5 -154q-13 -62 -13 -104q0 -51 21 -75.5t68 -24.5q69 0 104.5 48t56.5 156
q13 61 13 102q0 100 -95 100zM290 554q-38 0 -66.5 22t-39.5 62q-6 14 4 21l15 11q11 10 16 -3q19 -37 34.5 -51.5t41.5 -14.5q23 0 43.5 15t54.5 52q9 11 17 3l11 -10q7 -5 -1 -19q-26 -42 -61 -65t-69 -23z" />
    <glyph glyph-name="Ohungarumlaut" unicode="&#x150;" horiz-adv-x="537" 
d="M363 671q94 0 135 -46t41 -137q0 -48 -17 -147q-7 -40 -15 -73q-16 -83 -44 -137q-73 -140 -225 -140q-172 0 -172 187q0 61 20 167q19 101 51 173q68 148 226 153zM355 619q-87 0 -135.5 -69.5t-77.5 -218.5q-17 -94 -17 -145q0 -75 25.5 -109t92.5 -34q90 0 140 69
t80 219q17 85 17 145q0 75 -28 109t-97 34zM424 830l16 -31q3 -8 -7 -12l-135 -75q-9 -4 -13 3l-8 16q-4 7 4 12l127 90q11 8 16 -3zM552 830l16 -31q3 -8 -7 -12l-134 -75q-9 -4 -13 3l-8 16q-4 7 4 12l127 90q11 7 15 -3z" />
    <glyph glyph-name="ohungarumlaut" unicode="&#x151;" horiz-adv-x="420" 
d="M270 497q144 0 144 -145q0 -42 -12 -100q-16 -86 -41 -143q-24 -56 -66.5 -85t-113.5 -32q-76 0 -109 35t-33 104q0 45 15 121q11 66 37 125q50 115 179 120zM263 447q-66 0 -100.5 -48t-54.5 -154q-13 -62 -13 -104q0 -51 21 -75.5t68 -24.5q69 0 104.5 48t56.5 156
q13 61 13 102q0 100 -95 100zM346 679l-101 -128q-5 -7 -12 -3l-18 8q-7 4 -1 11l86 136q6 7 15 3l31 -16q7 -4 0 -11zM441 679l-102 -128q-6 -6 -12 -3l-17 8q-7 3 -1 11l85 136q6 7 15 3l31 -16q8 -5 1 -11z" />
    <glyph glyph-name="OE" unicode="&#x152;" horiz-adv-x="663" 
d="M635 41l-6 -31q-3 -10 -13 -10h-321q-33 -9 -70 -9q-89 0 -127.5 47t-38.5 138q0 64 18 165q19 103 50 173q24 51 50 80q70 77 180 77q28 0 65 -8h286q11 0 9 -11l-5 -31q-3 -11 -14 -11h-243l-46 -234h228q10 0 9 -10l-6 -29q-3 -12 -13 -12h-227l-54 -273h280
q12 0 9 -11zM235 43q27 0 53 8l110 560q-26 8 -51 8q-87 0 -138 -72t-77 -216q-15 -81 -15 -143q0 -72 28 -108.5t90 -36.5z" />
    <glyph glyph-name="oe" unicode="&#x153;" horiz-adv-x="693" 
d="M264 447q-66 0 -100 -47.5t-55 -154.5q-12 -57 -12 -101q0 -53 20 -78t68 -25q69 0 104.5 48t56.5 156q12 64 12 101q0 52 -22 76.5t-72 24.5zM650 371q0 38 -22.5 57.5t-59.5 19.5q-67 0 -105 -50q-36 -48 -50 -119l-9 -48q65 0 149 25q44 15 70.5 44.5t26.5 70.5z
M472 -8q-55 0 -86 19t-42 63h-2q-2 1 -3 1q-52 -82 -155 -82q-78 0 -111 34.5t-33 103.5q0 45 15 121q11 66 37 125q50 115 179 120q111 0 133 -90q1 0 2 -1h2q57 90 170 90q56 0 91.5 -31t35.5 -82q0 -46 -21 -83.5t-55 -59.5q-30 -19 -76 -33q-74 -21 -155 -23
q-5 -37 -5 -51q0 -49 19.5 -69t68.5 -20t142 11q13 1 13 -10v-15q0 -11 -8 -14q-58 -24 -156 -24z" />
    <glyph glyph-name="Racute" unicode="&#x154;" horiz-adv-x="438" 
d="M300 610h-100l-53 -272h106q74 0 118.5 46t44.5 132q0 94 -116 94zM165 663h151q75 0 116.5 -36t41.5 -108q0 -84 -40 -144.5t-113 -78.5l66 -286q0 -10 -8 -10h-37q-13 0 -16 10l-59 278h-130l-53 -276q-3 -12 -13 -12h-34q-13 0 -10 12l124 640q2 11 14 11zM409 830
l19 -30q5 -8 -6 -14l-134 -74q-9 -6 -13 3l-10 15q-4 7 4 12l125 90q11 8 15 -2z" />
    <glyph glyph-name="racute" unicode="&#x155;" horiz-adv-x="254" 
d="M317 484l-3 -32q-1 -11 -12 -16q-79 -22 -138 -52l-72 -373q-2 -11 -13 -11h-32q-6 0 -7.5 2t-1.5 9l90 465q2 11 13 11h31q12 0 10 -11l-9 -47q0 -1 1 -1q73 51 131 65q13 5 12 -9zM279 678l-100 -127q-6 -7 -13 -3l-15 10q-6 3 0 13l79 134q5 8 14 3l32 -16q9 -5 3 -14
z" />
    <glyph glyph-name="Rcommaaccent" unicode="&#x156;" horiz-adv-x="438" 
d="M300 610h-100l-53 -272h106q74 0 118.5 46t44.5 132q0 94 -116 94zM165 663h151q75 0 116.5 -36t41.5 -108q0 -84 -40 -144.5t-113 -78.5l66 -286q0 -10 -8 -10h-37q-13 0 -16 10l-59 278h-130l-53 -276q-3 -12 -13 -12h-34q-13 0 -10 12l124 640q2 11 14 11zM115 -209
q38 38 38 80q0 19 -9 42q-4 9 5 17l36 24q13 9 19 -1q11 -16 11 -41q0 -83 -82 -140q-9 -10 -14 -2l-7 10q-3 5 3 11z" />
    <glyph glyph-name="rcommaaccent" unicode="&#x157;" horiz-adv-x="254" 
d="M320 484l-3 -32q-1 -11 -12 -16q-79 -22 -138 -52l-72 -373q-2 -11 -13 -11h-32q-6 0 -7.5 2t-1.5 9l90 465q2 11 13 11h31q12 0 10 -11l-9 -47q0 -1 1 -1q73 51 131 65q14 5 12 -9zM-20 -219q38 38 38 80q0 19 -9 42q-4 9 5 17l36 24q13 9 19 -1q11 -16 11 -41
q0 -83 -82 -140q-10 -10 -14 -2l-7 10q-3 5 3 11z" />
    <glyph glyph-name="Rcaron" unicode="&#x158;" horiz-adv-x="438" 
d="M300 610h-100l-53 -272h106q74 0 118.5 46t44.5 132q0 94 -116 94zM165 663h151q75 0 116.5 -36t41.5 -108q0 -84 -40 -144.5t-113 -78.5l66 -286q0 -10 -8 -10h-37q-13 0 -16 10l-59 278h-130l-53 -276q-3 -12 -13 -12h-34q-13 0 -10 12l124 640q2 11 14 11zM322 710
h-28q-18 0 -24 7l-67 91q-4 7 2 13l16 14q6 7 12 1l82 -81l113 78q8 5 13 0l12 -15q3 -5 -4 -12l-102 -88q-11 -8 -25 -8z" />
    <glyph glyph-name="rcaron" unicode="&#x159;" horiz-adv-x="254" 
d="M317 484l-3 -32q-1 -11 -12 -16q-79 -22 -138 -52l-72 -373q-2 -11 -13 -11h-32q-6 0 -7.5 2t-1.5 9l90 465q2 11 13 11h31q12 0 10 -11l-9 -47q0 -1 1 -1q73 51 131 65q13 5 12 -9zM196 541h-37q-16 0 -21 8l-56 115q-5 8 1 12l17 13q9 4 13 0l74 -102l111 102q7 6 13 0
l13 -13q3 -4 -3 -12l-103 -115q-5 -8 -22 -8z" />
    <glyph glyph-name="Sacute" unicode="&#x15a;" horiz-adv-x="440" 
d="M318 669q100 0 152 -24q12 -4 7 -15l-7 -18q-5 -11 -18 -10q-72 13 -139 13q-72 0 -112.5 -40t-40.5 -112q0 -42 35 -64q26 -16 78 -33l12 -4q62 -21 95 -45q43 -29 43 -99q0 -115 -67 -172q-69 -56 -169 -55q-35 0 -93 8q-52 7 -75 18q-11 7 -7 17l7 19q4 10 18 7
q79 -14 160 -14q76 0 121 42.5t45 121.5q0 42 -24 63t-86 40q-72 22 -107 46q-44 30 -44 98q0 104 58.5 158t157.5 54zM425 830l19 -30q5 -8 -6 -14l-134 -74q-9 -6 -13 3l-10 15q-4 7 4 12l125 90q11 8 15 -2z" />
    <glyph glyph-name="sacute" unicode="&#x15b;" horiz-adv-x="355" 
d="M241 497q82 0 125 -22q8 -5 5 -14l-6 -17q-5 -10 -19 -8q-84 10 -109 10q-108 0 -108 -101q0 -27 21 -43t50.5 -24.5t59.5 -18.5t51 -34t21 -63q0 -168 -192 -170q-91 0 -130 21q-7 4 -4 15l6 16q4 10 18 9q96 -11 121 -11q125 0 125 108q0 30 -21 47.5t-50.5 26t-59 18
t-50.5 32.5t-21 61q0 81 44.5 121.5t122.5 40.5zM334 678l-100 -127q-6 -7 -13 -3l-15 10q-6 3 0 13l79 134q5 8 14 3l32 -16q9 -5 3 -14z" />
    <glyph glyph-name="Scircumflex" unicode="&#x15c;" horiz-adv-x="440" 
d="M318 669q100 0 152 -24q12 -4 7 -15l-7 -18q-5 -11 -18 -10q-72 13 -139 13q-72 0 -112.5 -40t-40.5 -112q0 -42 35 -64q26 -16 78 -33l12 -4q62 -21 95 -45q43 -29 43 -99q0 -115 -67 -172q-69 -56 -169 -55q-35 0 -93 8q-52 7 -75 18q-11 7 -7 17l7 19q4 10 18 7
q79 -14 160 -14q76 0 121 42.5t45 121.5q0 42 -24 63t-86 40q-72 22 -107 46q-44 30 -44 98q0 104 58.5 158t157.5 54zM339 833h27q18 0 24 -8l67 -88q3 -7 -2 -12l-16 -15q-7 -4 -12 0l-83 78l-114 -81q-9 -6 -12 1l-10 14q-3 5 2 13l103 91q7 7 26 7z" />
    <glyph glyph-name="scircumflex" unicode="&#x15d;" horiz-adv-x="355" 
d="M241 497q82 0 125 -22q8 -5 5 -14l-6 -17q-5 -10 -19 -8q-84 10 -109 10q-108 0 -108 -101q0 -27 21 -43t50.5 -24.5t59.5 -18.5t51 -34t21 -63q0 -168 -192 -170q-91 0 -130 21q-7 4 -4 15l6 16q4 10 18 9q96 -11 121 -11q125 0 125 108q0 30 -21 47.5t-50.5 26t-59 18
t-50.5 32.5t-21 61q0 81 44.5 121.5t122.5 40.5zM317 686l5 -11q6 -11 21.5 -42.5t29.5 -61.5q2 -8 -2 -12l-15 -11q-4 -3 -8 -3q-8 0 -55 71l-21 34l-112 -102q-5 -5 -8 -5q-2 0 -5 3l-15 13q-2 1 -2 4t4 7l106 116q8 8 21 8h35q16 0 21 -8z" />
    <glyph glyph-name="Scedilla" unicode="&#x15e;" horiz-adv-x="440" 
d="M318 669q100 0 152 -24q12 -4 7 -15l-7 -18q-5 -11 -18 -10q-72 13 -139 13q-72 0 -112.5 -40t-40.5 -112q0 -42 35 -64q26 -16 78 -33l12 -4q62 -21 95 -45q43 -29 43 -99q0 -113 -65 -169q-66 -57 -163 -58l-20 -38q40 -3 53.5 -19t7.5 -47q-15 -74 -102 -74
q-39 0 -60 12q-4 3 -1 8l7 15q5 6 9 5q33 -6 51 -6q42 0 50 38q4 20 -5.5 27.5t-40.5 10.5q-16 1 -8 18l27 51q-106 6 -144 25q-11 7 -7 17l7 19q4 10 18 7q79 -14 160 -14q76 0 121 42.5t45 121.5q0 42 -24 63t-86 40q-72 22 -107 46q-44 30 -44 98q0 104 58.5 158
t157.5 54z" />
    <glyph glyph-name="scedilla" unicode="&#x15f;" horiz-adv-x="355" 
d="M241 497q82 0 125 -22q8 -5 5 -14l-6 -17q-5 -10 -19 -8q-84 10 -109 10q-108 0 -108 -101q0 -27 21 -43t50.5 -24.5t59.5 -18.5t51 -34t21 -63q0 -162 -178 -169l-20 -40q40 -3 53.5 -19t7.5 -47q-15 -74 -102 -74q-39 0 -60 12q-4 3 -1 8l7 15q5 6 9 5q33 -6 51 -6
q42 0 50 38q4 20 -5.5 27.5t-40.5 10.5q-16 1 -8 18l27 51q-80 4 -112 21q-7 4 -4 15l6 16q4 10 18 9q96 -11 121 -11q125 0 125 108q0 30 -21 47.5t-50.5 26t-59 18t-50.5 32.5t-21 61q0 81 44.5 121.5t122.5 40.5z" />
    <glyph glyph-name="Scaron" unicode="&#x160;" horiz-adv-x="440" 
d="M318 669q100 0 152 -24q12 -4 7 -15l-7 -18q-5 -11 -18 -10q-72 13 -139 13q-72 0 -112.5 -40t-40.5 -112q0 -42 35 -64q26 -16 78 -33l12 -4q62 -21 95 -45q43 -29 43 -99q0 -115 -67 -172q-69 -56 -169 -55q-35 0 -93 8q-52 7 -75 18q-11 7 -7 17l7 19q4 10 18 7
q79 -14 160 -14q76 0 121 42.5t45 121.5q0 42 -24 63t-86 40q-72 22 -107 46q-44 30 -44 98q0 104 58.5 158t157.5 54zM338 710h-28q-18 0 -24 7l-67 91q-4 7 2 13l16 14q7 7 12 1l82 -81l113 78q8 5 13 0l12 -15q3 -5 -4 -12l-102 -88q-11 -8 -25 -8z" />
    <glyph glyph-name="scaron" unicode="&#x161;" horiz-adv-x="355" 
d="M241 497q82 0 125 -22q8 -5 5 -14l-6 -17q-5 -10 -19 -8q-84 10 -109 10q-108 0 -108 -101q0 -27 21 -43t50.5 -24.5t59.5 -18.5t51 -34t21 -63q0 -168 -192 -170q-91 0 -130 21q-7 4 -4 15l6 16q4 10 18 9q96 -11 121 -11q125 0 125 108q0 30 -21 47.5t-50.5 26t-59 18
t-50.5 32.5t-21 61q0 81 44.5 121.5t122.5 40.5zM272 541h-37q-16 0 -21 8l-56 115q-5 8 1 12l17 13q9 4 13 0l74 -102l111 102q7 6 13 0l13 -13q3 -4 -3 -12l-103 -115q-5 -8 -22 -8z" />
    <glyph glyph-name="Tcommaaccent" unicode="&#x162;" horiz-adv-x="401" 
d="M474 610h-153l-117 -599q-2 -11 -12 -11h-34q-12 0 -10 11l116 599h-151q-12 0 -10 11l6 31q3 11 14 11h361q12 0 9 -11l-6 -31q-2 -11 -13 -11zM85 -219q38 38 38 80q0 19 -9 42q-4 9 5 17l36 24q13 9 19 -1q11 -16 11 -41q0 -83 -82 -140q-9 -10 -14 -2l-7 10
q-3 5 3 11z" />
    <glyph glyph-name="tcommaaccent" unicode="&#x163;" horiz-adv-x="261" 
d="M240 38v-16q-1 -10 -10 -14q-33 -16 -90 -16q-49 0 -63.5 23t-4.5 76l68 351h-49q-11 0 -8 11l4 22q3 12 15 12h48l22 111q1 10 13 14l30 9q15 4 12 -11l-24 -123h92q11 0 10 -12l-4 -22q-3 -11 -15 -11h-92l-65 -334q-9 -34 -0.5 -50t38.5 -16q16 0 61 5q12 1 12 -9z
M17 -219q38 38 38 80q0 19 -9 42q-4 9 5 17l36 24q13 9 19 -1q11 -16 11 -41q0 -83 -82 -140q-10 -10 -14 -2l-7 10q-3 5 3 11z" />
    <glyph glyph-name="Tcaron" unicode="&#x164;" horiz-adv-x="401" 
d="M472 610h-153l-117 -599q-2 -11 -12 -11h-34q-12 0 -10 11l116 599h-151q-12 0 -10 11l6 31q3 11 14 11h361q12 0 9 -11l-6 -31q-2 -11 -13 -11zM326 710h-28q-18 0 -24 7l-67 91q-4 7 2 13l16 14q6 7 12 1l82 -81l113 78q8 5 13 0l12 -15q3 -5 -4 -12l-102 -88
q-11 -8 -25 -8z" />
    <glyph glyph-name="tcaron" unicode="&#x165;" horiz-adv-x="276" 
d="M234 38v-16q-1 -10 -10 -14q-33 -16 -90 -16q-49 0 -63.5 23t-4.5 76l68 351h-49q-11 0 -8 11l4 22q3 12 15 12h48l22 111q1 10 13 14l30 9q15 4 12 -11l-24 -123h92q11 0 10 -12l-4 -22q-3 -11 -15 -11h-92l-65 -334q-9 -34 -0.5 -50t38.5 -16q16 0 61 5q12 1 12 -9z
M267 565q38 38 38 80q0 19 -9 42q-4 9 5 17l36 24q13 9 19 -1q11 -16 11 -41q0 -83 -82 -140q-9 -10 -14 -2l-7 10q-3 5 3 11z" />
    <glyph glyph-name="Tbar" unicode="&#x166;" horiz-adv-x="397" 
d="M472 610h-153l-43 -216h112q11 0 8 -10l-4 -24q-3 -9 -12 -9h-112l-66 -340q-2 -11 -12 -11h-34q-12 0 -10 11l66 340h-105q-9 0 -7 9l4 24q3 10 12 10h104l42 216h-151q-12 0 -10 11l6 31q3 11 14 11h361q12 0 9 -11l-6 -31q-2 -11 -13 -11z" />
    <glyph glyph-name="tbar" unicode="&#x167;" horiz-adv-x="258" 
d="M239 38v-16q-1 -10 -10 -14q-33 -16 -90 -16q-49 0 -63.5 23t-4.5 76l35 183h-41q-9 0 -7 9l4 24q3 10 12 10h41l24 125h-49q-11 0 -8 11l4 22q3 12 15 12h48l22 111q1 10 13 14l30 9q15 4 12 -11l-24 -123h92q12 0 10 -12l-4 -22q-3 -11 -15 -11h-92l-24 -125h90
q9 0 8 -10l-5 -24q-2 -9 -11 -9h-91l-32 -166q-9 -34 -0.5 -50t38.5 -16q16 0 61 5q12 1 12 -9z" />
    <glyph glyph-name="Utilde" unicode="&#x168;" horiz-adv-x="513" 
d="M604 649l-82 -420q-46 -237 -247 -237q-206 0 -160 243l82 414q3 14 17 14h29q15 0 12 -14l-81 -416q-18 -95 7.5 -141.5t100.5 -46.5q147 0 185 188l81 416q3 14 17 14h27q15 0 12 -14zM472 715q-24 0 -63 27q-31 20 -47 20q-24 0 -49 -36q-7 -12 -18 -6l-12 7
q-8 5 -1 17q38 65 89 65q20 0 63 -28q28 -19 46 -19q20 0 45 36q7 10 18 6l13 -7q10 -3 2 -14q-38 -68 -86 -68z" />
    <glyph glyph-name="utilde" unicode="&#x169;" horiz-adv-x="420" 
d="M135 -8q-63 0 -87 32q-9 12 -11 39q-1 38 11 98l61 315q2 11 13 11h32q11 0 9 -11l-60 -309q-16 -65 -4.5 -95.5t56.5 -30.5q48 0 159 57l73 378q2 11 15 11h29q12 0 10 -11l-90 -465q-2 -11 -14 -11h-29q-13 0 -11 11l7 39q-2 0 -3 1q-95 -59 -166 -59zM363 565
q-24 0 -63 27q-31 20 -47 20q-24 0 -49 -36q-8 -12 -18 -6l-12 7q-8 5 -1 17q38 65 89 65q20 0 63 -28q28 -19 46 -19q19 0 45 36q8 10 18 6l13 -7q10 -3 2 -14q-38 -68 -86 -68z" />
    <glyph glyph-name="Umacron" unicode="&#x16a;" horiz-adv-x="513" 
d="M604 649l-82 -420q-46 -237 -247 -237q-206 0 -160 243l82 414q3 14 17 14h29q15 0 12 -14l-81 -416q-18 -95 7.5 -141.5t100.5 -46.5q147 0 185 188l81 416q3 14 17 14h27q15 0 12 -14zM538 773l-6 -30q-2 -9 -13 -9h-204q-11 0 -8 9l5 30q3 10 13 10h204q12 0 9 -10z
" />
    <glyph glyph-name="umacron" unicode="&#x16b;" horiz-adv-x="420" 
d="M135 -8q-63 0 -87 32q-9 12 -11 39q-1 38 11 98l61 315q2 11 13 11h32q11 0 9 -11l-60 -309q-16 -65 -4.5 -95.5t56.5 -30.5q48 0 159 57l73 378q2 11 15 11h29q12 0 10 -11l-90 -465q-2 -11 -14 -11h-29q-13 0 -11 11l7 39q-2 0 -3 1q-95 -59 -166 -59zM419 622l-6 -30
q-2 -8 -11 -8h-206q-11 0 -8 8l6 30q1 10 11 10h206q9 0 8 -10z" />
    <glyph glyph-name="Ubreve" unicode="&#x16c;" horiz-adv-x="513" 
d="M604 649l-82 -420q-46 -237 -247 -237q-206 0 -160 243l82 414q3 14 17 14h29q15 0 12 -14l-81 -416q-18 -95 7.5 -141.5t100.5 -46.5q147 0 185 188l81 416q3 14 17 14h27q15 0 12 -14zM407 706q-38 0 -66.5 22t-39.5 62q-6 14 4 21l15 11q11 10 16 -3
q19 -37 34.5 -51.5t41.5 -14.5q23 0 43.5 15t54.5 52q9 11 17 3l11 -10q7 -5 -1 -19q-26 -42 -61 -65t-69 -23z" />
    <glyph glyph-name="ubreve" unicode="&#x16d;" horiz-adv-x="420" 
d="M135 -8q-63 0 -87 32q-9 12 -11 39q-1 38 11 98l61 315q2 11 13 11h32q11 0 9 -11l-60 -309q-16 -65 -4.5 -95.5t56.5 -30.5q48 0 159 57l73 378q2 11 15 11h29q12 0 10 -11l-90 -465q-2 -11 -14 -11h-29q-13 0 -11 11l7 39q-2 0 -3 1q-95 -59 -166 -59zM299 554
q-38 0 -66.5 22t-39.5 62q-6 14 4 21l15 11q11 10 16 -3q19 -37 34.5 -51.5t41.5 -14.5q23 0 43.5 15t54.5 52q9 11 17 3l11 -10q7 -5 -1 -19q-26 -42 -61 -65t-69 -23z" />
    <glyph glyph-name="Uring" unicode="&#x16e;" horiz-adv-x="513" 
d="M604 649l-82 -420q-46 -237 -247 -237q-206 0 -160 243l82 414q3 14 17 14h29q15 0 12 -14l-81 -416q-18 -95 7.5 -141.5t100.5 -46.5q147 0 185 188l81 416q3 14 17 14h27q15 0 12 -14zM426 831q-23 0 -40 -16.5t-20 -41.5q-2 -21 8.5 -34t31.5 -13q23 0 40.5 17
t19.5 41q2 19 -9 33t-31 14zM431 865q36 0 56.5 -22t16.5 -55q-3 -40 -32 -67.5t-70 -27.5q-36 0 -57 21.5t-17 55.5q4 42 33.5 68.5t69.5 26.5z" />
    <glyph glyph-name="uring" unicode="&#x16f;" horiz-adv-x="420" 
d="M135 -8q-63 0 -87 32q-9 12 -11 39q-1 38 11 98l61 315q2 11 13 11h32q11 0 9 -11l-60 -309q-16 -65 -4.5 -95.5t56.5 -30.5q48 0 159 57l73 378q2 11 15 11h29q12 0 10 -11l-90 -465q-2 -11 -14 -11h-29q-13 0 -11 11l7 39q-2 0 -3 1q-95 -59 -166 -59zM310 672
q-23 0 -40 -16.5t-20 -41.5q-2 -21 8.5 -34t31.5 -13q23 0 40.5 17t19.5 41q2 19 -9 33t-31 14zM315 706q36 0 56.5 -22t16.5 -55q-3 -40 -32 -67.5t-70 -27.5q-36 0 -57 21.5t-17 55.5q4 42 33.5 68.5t69.5 26.5z" />
    <glyph glyph-name="Uhungarumlaut" unicode="&#x170;" horiz-adv-x="513" 
d="M604 649l-82 -420q-46 -237 -247 -237q-206 0 -160 243l82 414q3 14 17 14h29q15 0 12 -14l-81 -416q-18 -95 7.5 -141.5t100.5 -46.5q147 0 185 188l81 416q3 14 17 14h27q15 0 12 -14zM468 830l16 -31q3 -8 -7 -12l-135 -75q-9 -4 -13 3l-8 16q-4 7 4 12l127 90
q11 8 16 -3zM596 830l16 -31q3 -8 -7 -12l-134 -75q-9 -4 -13 3l-8 16q-4 7 4 12l127 90q11 7 15 -3z" />
    <glyph glyph-name="uhungarumlaut" unicode="&#x171;" horiz-adv-x="420" 
d="M135 -8q-63 0 -87 32q-9 12 -11 39q-1 38 11 98l61 315q2 11 13 11h32q11 0 9 -11l-60 -309q-16 -65 -4.5 -95.5t56.5 -30.5q48 0 159 57l73 378q2 11 15 11h29q12 0 10 -11l-90 -465q-2 -11 -14 -11h-29q-13 0 -11 11l7 39q-2 0 -3 1q-95 -59 -166 -59zM353 679
l-101 -128q-4 -7 -12 -3l-18 8q-7 4 -1 11l86 136q6 7 15 3l31 -16q7 -4 0 -11zM448 679l-102 -128q-6 -6 -12 -3l-17 8q-7 3 -1 11l85 136q6 7 15 3l31 -16q7 -5 1 -11z" />
    <glyph glyph-name="Uogonek" unicode="&#x172;" horiz-adv-x="513" 
d="M243 -101q-7 -45 37 -45q17 0 45 7q11 2 11 -3l1 -19q0 -8 -8 -10q-27 -13 -60 -15q-42 -1 -61 21t-12 59q11 52 58 99q-187 11 -140 242l82 414q3 14 17 14h29q15 0 12 -14l-81 -416q-18 -95 7.5 -141.5t100.5 -46.5q147 0 185 188l81 416q3 14 17 14h27q15 0 12 -14
l-82 -420q-44 -226 -225 -236q-45 -48 -53 -94z" />
    <glyph glyph-name="uogonek" unicode="&#x173;" horiz-adv-x="420" 
d="M269 -101q-7 -45 37 -45q17 0 45 7q11 2 11 -3l1 -19q0 -8 -8 -10q-27 -13 -60 -15q-42 -1 -61 21t-12 59q12 62 74 113q0 3 1 4l7 39q-2 0 -3 1q-95 -59 -166 -59q-63 0 -87 32q-9 12 -11 39q-1 38 11 98l61 315q2 11 13 11h32q11 0 9 -11l-60 -309q-16 -65 -4.5 -95.5
t56.5 -30.5q48 0 159 57l73 378q2 11 15 11h29q12 0 10 -11l-90 -465q-2 -11 -14 -11h-8q-52 -54 -60 -101z" />
    <glyph glyph-name="Wcircumflex" unicode="&#x174;" horiz-adv-x="687" 
d="M398 425h-4q-35 -91 -73 -178l-105 -237q-4 -10 -14 -10h-43q-10 0 -11 10l-38 642q1 10 10 10h37q11 0 11 -9l22 -395l7 -173h2q21 55 69 168l120 278l-7 121q0 10 9 10h38q11 0 11 -9l21 -410q4 -101 4 -168h3q31 84 73 180l171 398q5 9 16 9h36q11 0 5 -11l-282 -640
q-6 -11 -15 -11h-42q-12 0 -13 10l-12 235q-4 85 -6 180zM457 833h27q18 0 24 -8l67 -88q3 -7 -2 -12l-16 -15q-7 -4 -12 0l-83 78l-114 -81q-9 -6 -12 1l-10 14q-3 5 2 13l103 91q7 7 26 7z" />
    <glyph glyph-name="wcircumflex" unicode="&#x175;" horiz-adv-x="578" 
d="M382 223l10 -135h5l178 389q6 10 15 10h35q4 0 6 -1.5t1 -3.5l-2 -6l-221 -467q-5 -9 -14 -9h-34q-13 0 -13 9q-16 164 -25 298h-3l-63 -135l-77 -163q-4 -9 -13 -9h-34q-12 0 -12 9l-42 467q-2 11 9 11h35q12 0 12 -11l19 -237q10 -117 11 -158h2l64 140l81 170l-6 85
q-2 11 8 11h37q9 0 11 -11zM435 686l5 -11q6 -11 21.5 -42.5t29.5 -61.5q2 -8 -2 -12l-15 -11q-4 -3 -8 -3q-9 0 -54 71l-22 34l-112 -102q-5 -5 -8 -5q-2 0 -5 3l-15 13q-2 1 -2 4t4 7l106 116q8 8 21 8h35q16 0 21 -8z" />
    <glyph glyph-name="Ycircumflex" unicode="&#x176;" horiz-adv-x="423" 
d="M250 352h5q36 64 83 132l111 169q7 9 17 9h41q9 0 5 -10l-241 -358l-55 -282q-3 -12 -12 -12h-33q-14 0 -11 12l55 282l-101 359q-4 9 9 9h39q10 0 11 -9l46 -168q21 -77 31 -133zM332 833h27q18 0 24 -8l67 -88q3 -7 -2 -12l-16 -15q-8 -4 -12 0l-83 78l-114 -81
q-9 -6 -12 1l-10 14q-3 5 2 13l103 91q7 7 26 7z" />
    <glyph glyph-name="ycircumflex" unicode="&#x177;" horiz-adv-x="388" 
d="M142 476l39 -394h6l84 170l113 225q6 10 16 10h35q10 0 4 -11l-325 -642q-4 -10 -17 -10h-30q-11 0 -6 11l80 160l-55 481q-2 11 8 11h36q12 0 12 -11zM345 686l5 -11q6 -11 21.5 -42.5t29.5 -61.5q2 -8 -2 -12l-15 -11q-4 -3 -8 -3q-8 0 -55 71l-21 34l-112 -102
q-5 -5 -8 -5q-2 0 -5 3l-15 13q-2 1 -2 4t4 7l106 116q8 8 21 8h35q16 0 21 -8z" />
    <glyph glyph-name="Ydieresis" unicode="&#x178;" horiz-adv-x="423" 
d="M250 352h5q36 64 83 132l111 169q7 9 17 9h41q9 0 5 -10l-241 -358l-55 -282q-3 -12 -12 -12h-33q-14 0 -11 12l55 282l-101 359q-4 9 9 9h39q10 0 11 -9l46 -168q21 -77 31 -133zM412 798q26 0 26 -20q0 -48 -39 -48q-25 0 -25 19q0 49 38 49zM271 798q24 0 24 -19
q0 -49 -38 -49q-26 0 -26 20q0 48 40 48z" />
    <glyph glyph-name="Zacute" unicode="&#x179;" horiz-adv-x="408" 
d="M365 41l-5 -29q-3 -12 -14 -12h-336q-13 0 -10 11l5 26q2 11 10 24l395 549h-265q-12 0 -10 11l6 31q3 11 14 11h316q13 0 10 -10l-5 -30q-6 -17 -11 -22l-391 -549h282q12 0 9 -11zM412 830l19 -30q5 -8 -6 -14l-134 -74q-9 -6 -13 3l-10 15q-4 7 4 12l125 90
q11 8 15 -2z" />
    <glyph glyph-name="zacute" unicode="&#x17a;" horiz-adv-x="359" 
d="M-5 10l5 24q3 12 11 22l317 383h-220q-12 0 -9 11l5 26q3 11 13 11h268q14 0 10 -10l-5 -27q-3 -13 -11 -21l-312 -379h235q13 0 10 -11l-5 -27q-3 -12 -14 -12h-288q-11 0 -10 10zM356 678l-100 -127q-6 -7 -13 -3l-15 10q-6 3 0 13l79 134q5 8 14 3l32 -16q9 -5 3 -14z
" />
    <glyph glyph-name="Zdotaccent" unicode="&#x17b;" horiz-adv-x="408" 
d="M365 41l-5 -29q-3 -12 -14 -12h-336q-13 0 -10 11l5 26q2 11 10 24l395 549h-265q-12 0 -10 11l6 31q3 11 14 11h316q13 0 10 -10l-5 -30q-6 -17 -11 -22l-391 -549h282q12 0 9 -11zM332 793q26 0 26 -21q0 -48 -39 -48q-26 0 -26 22q0 47 39 47z" />
    <glyph glyph-name="zdotaccent" unicode="&#x17c;" horiz-adv-x="359" 
d="M-5 10l5 24q3 12 11 22l317 383h-220q-12 0 -9 11l5 26q3 11 13 11h268q14 0 10 -10l-5 -27q-3 -13 -11 -21l-312 -379h235q13 0 10 -11l-5 -27q-3 -12 -14 -12h-288q-11 0 -10 10zM284 645q26 0 26 -21q0 -48 -39 -48q-26 0 -26 22q0 47 39 47z" />
    <glyph glyph-name="Zcaron" unicode="&#x17d;" horiz-adv-x="408" 
d="M365 41l-5 -29q-3 -12 -14 -12h-336q-13 0 -10 11l5 26q2 11 10 24l395 549h-265q-12 0 -10 11l6 31q3 11 14 11h316q13 0 10 -10l-5 -30q-6 -17 -11 -22l-391 -549h282q12 0 9 -11zM341 708h-28q-18 0 -24 7l-67 91q-4 7 2 13l16 14q7 7 12 1l82 -81l113 78q8 5 13 0
l12 -15q3 -5 -4 -12l-102 -88q-11 -8 -25 -8z" />
    <glyph glyph-name="zcaron" unicode="&#x17e;" horiz-adv-x="359" 
d="M-5 10l5 24q3 12 11 22l317 383h-220q-12 0 -9 11l5 26q3 11 13 11h268q14 0 10 -10l-5 -27q-3 -13 -11 -21l-312 -379h235q13 0 10 -11l-5 -27q-3 -12 -14 -12h-288q-11 0 -10 10zM282 541h-37q-16 0 -21 8l-56 115q-5 8 1 12l17 13q9 4 13 0l74 -102l111 102q7 6 13 0
l13 -13q3 -4 -3 -12l-103 -115q-5 -8 -22 -8z" />
    <glyph glyph-name="florin" unicode="&#x192;" 
d="M106 -63q-15 0 -37 5.5t-32 12.5q-6 4 -4 12l8 19q3 8 17 5q30 -6 49 -6q31 0 48 25t32 85l59 248h-67q-13 0 -12 12l2 22q1 13 14 13h73l40 154q32 129 125 129q47 0 74 -18q6 -6 3 -12l-7 -19q-5 -8 -18 -5q-30 6 -49 6q-32 0 -51 -28t-35 -93l-28 -114h79q8 0 11 -2.5
t2 -8.5l-2 -24q-2 -12 -16 -12h-84l-64 -276q-37 -130 -130 -130z" />
    <glyph glyph-name="Ohorn" unicode="&#x1a0;" horiz-adv-x="537" 
d="M363 671q101 0 145 -59h9q34 0 53 21t28 70l10 47q2 12 16 12h21q8 0 9.5 -2.5t0.5 -9.5l-9 -49q-24 -123 -117 -133q10 -33 10 -80q0 -48 -17 -147q-7 -40 -15 -73q-16 -83 -44 -137q-73 -140 -225 -140q-172 0 -172 187q0 61 20 167q19 101 51 173q68 148 226 153z
M355 619q-87 0 -135.5 -69.5t-77.5 -218.5q-17 -94 -17 -145q0 -75 25.5 -109t92.5 -34q90 0 140 69t80 219q17 85 17 145q0 75 -28 109t-97 34z" />
    <glyph glyph-name="ohorn" unicode="&#x1a1;" horiz-adv-x="438" 
d="M270 497q92 0 125 -57h1q66 0 83 91l9 47q2 12 16 12h21q8 0 9.5 -2.5t0.5 -9.5l-10 -49q-24 -121 -115 -133q4 -17 4 -44q0 -42 -12 -100q-16 -86 -41 -143q-24 -56 -66.5 -85t-113.5 -32q-76 0 -109 35t-33 104q0 45 15 121q11 66 37 125q50 115 179 120zM263 447
q-66 0 -100.5 -48t-54.5 -154q-13 -62 -13 -104q0 -51 21 -75.5t68 -24.5q69 0 104.5 48t56.5 156q13 61 13 102q0 100 -95 100z" />
    <glyph glyph-name="Uhorn" unicode="&#x1af;" horiz-adv-x="537" 
d="M604 649l-7 -37q36 0 54 20t28 71l9 47q2 12 16 12h21q8 0 9.5 -2.5t0.5 -9.5l-9 -49q-26 -134 -137 -134h-1l-66 -338q-46 -237 -247 -237q-206 0 -160 243l82 414q3 14 17 14h29q15 0 12 -14l-81 -416q-18 -95 7.5 -141.5t100.5 -46.5q147 0 185 188l81 416q3 14 17 14
h27q15 0 12 -14z" />
    <glyph glyph-name="uhorn" unicode="&#x1b0;" horiz-adv-x="463" 
d="M135 -8q-63 0 -87 32q-9 12 -11 39q-1 38 11 98l61 315q2 11 13 11h32q11 0 9 -11l-60 -309q-16 -65 -4.5 -95.5t56.5 -30.5q48 0 159 57l73 378q2 11 15 11h29q12 0 10 -11l-7 -36q66 0 83 91l9 47q2 12 15 12h21q14 0 10 -12l-9 -49q-26 -134 -136 -134h-2l-74 -384
q-2 -11 -14 -11h-29q-13 0 -11 11l7 39q-2 0 -3 1q-95 -59 -166 -59z" />
    <glyph glyph-name="AEacute" unicode="&#x1fc;" horiz-adv-x="700" 
d="M673 41l-6 -31q-1 -10 -13 -10h-317q-7 0 -9.5 2.5t-1.5 7.5l6 34l14 70l13 68h-195l-113 -171q-8 -11 -19 -11h-42q-12 0 -4 12l427 640q11 11 19 11h306q13 0 10 -11l-5 -31q-3 -11 -15 -11h-229l-46 -234h217q10 0 9 -10l-6 -29q-1 -12 -13 -12h-216l-54 -273h274
q12 0 9 -11zM369 233l74 373h-4l-240 -373h170zM667 830l19 -30q5 -8 -6 -14l-134 -74q-9 -6 -13 3l-10 15q-4 7 4 12l125 90q11 8 15 -2z" />
    <glyph glyph-name="aeacute" unicode="&#x1fd;" horiz-adv-x="650" 
d="M614 371q0 38 -22 56.5t-57 18.5q-80 0 -117 -55q-28 -41 -45 -114l-4 -23q20 -4 73 -4q77 3 124 33t48 88zM190 232q-62 0 -94 -35t-32 -96q0 -59 66 -59q36 0 85 20q45 18 85 46q-1 7 -1 32q0 41 7 76q-65 16 -116 16zM259 498q111 0 126 -69q49 67 155 67
q59 0 93.5 -32t34.5 -85q0 -49 -21.5 -85t-58 -55t-77 -27.5t-85.5 -8.5q-41 0 -66 4q-7 -42 -7 -78q0 -49 24 -67.5t73 -18.5q57 0 137 11q11 2 11 -9l-1 -16q0 -10 -8 -15q-37 -22 -155 -22q-93 0 -125 68q-103 -68 -195 -68q-51 0 -78.5 24.5t-27.5 71.5q0 96 50 143.5
t158 47.5q34 0 99 -14q1 12 11 55q10 39 10 53q0 39 -19.5 56t-71.5 17q-66 0 -125 -10q-16 -3 -16 7v19q0 12 18 18q55 18 137 18zM517 678l-100 -127q-6 -7 -13 -3l-15 10q-6 3 0 13l79 134q5 8 14 3l32 -16q9 -5 3 -14z" />
    <glyph glyph-name="Oslashacute" unicode="&#x1fe;" horiz-adv-x="537" 
d="M369 671q88 0 131 -43l31 41q8 9 15 5l15 -11q7 -3 0 -12l-39 -52q23 -43 23 -111q0 -48 -17 -147q-7 -40 -15 -73q-16 -83 -44 -137q-73 -140 -225 -140q-92 0 -136 53l-39 -52q-9 -9 -14 -4l-19 11q-6 5 1 13l51 68q-16 36 -16 98q0 61 20 167q19 101 51 173
q68 148 226 153zM486 476q0 41 -7 65l-333 -446q24 -52 103 -52q90 0 140 69t80 219q17 85 17 145zM361 619q-87 0 -135.5 -69.5t-77.5 -218.5q-17 -94 -17 -145q0 -28 2 -46l330 439q-28 40 -102 40zM493 830l19 -30q5 -8 -6 -14l-134 -74q-9 -6 -13 3l-10 15q-4 7 4 12
l125 90q11 8 15 -2z" />
    <glyph glyph-name="oslashacute" unicode="&#x1ff;" horiz-adv-x="420" 
d="M276 497q75 0 111 -39l29 36q4 10 12 5l17 -10q6 -5 -1 -13l-37 -48q13 -30 13 -76q0 -42 -12 -100q-16 -86 -41 -143q-24 -56 -66.5 -85t-113.5 -32q-65 0 -100 27l-22 -29q-7 -9 -14 -5l-17 11q-6 5 0 13l29 37q-18 31 -18 85q0 45 15 121q11 66 37 125q50 115 179 120
zM269 447q-66 0 -100.5 -48t-54.5 -154q-13 -62 -13 -104q0 -27 4 -42l245 311q-22 37 -81 37zM364 347q0 6 -2 24l-239 -307q21 -23 67 -23q69 0 104.5 48t56.5 156q13 61 13 102zM399 678l-100 -127q-6 -7 -13 -3l-15 10q-6 3 0 13l79 134q5 8 14 3l32 -16q9 -5 3 -14z
" />
    <glyph glyph-name="Scommaaccent" unicode="&#x218;" horiz-adv-x="440" 
d="M318 669q100 0 152 -24q12 -4 7 -15l-7 -18q-5 -11 -18 -10q-72 13 -139 13q-72 0 -112.5 -40t-40.5 -112q0 -42 35 -64q26 -16 78 -33l12 -4q62 -21 95 -45q43 -29 43 -99q0 -115 -67 -172q-69 -56 -169 -55q-35 0 -93 8q-52 7 -75 18q-11 7 -7 17l7 19q4 10 18 7
q79 -14 160 -14q76 0 121 42.5t45 121.5q0 42 -24 63t-86 40q-72 22 -107 46q-44 30 -44 98q0 104 58.5 158t157.5 54zM107 -219q38 38 38 80q0 19 -9 42q-4 9 5 17l36 24q13 9 19 -1q11 -16 11 -41q0 -83 -82 -140q-10 -10 -14 -2l-7 10q-3 5 3 11z" />
    <glyph glyph-name="scommaaccent" unicode="&#x219;" horiz-adv-x="355" 
d="M241 497q82 0 125 -22q8 -5 5 -14l-6 -17q-5 -10 -19 -8q-84 10 -109 10q-108 0 -108 -101q0 -27 21 -43t50.5 -24.5t59.5 -18.5t51 -34t21 -63q0 -168 -192 -170q-91 0 -130 21q-7 4 -4 15l6 16q4 10 18 9q96 -11 121 -11q125 0 125 108q0 30 -21 47.5t-50.5 26t-59 18
t-50.5 32.5t-21 61q0 81 44.5 121.5t122.5 40.5zM64 -219q38 38 38 80q0 19 -9 42q-4 9 5 17l36 24q13 9 19 -1q11 -16 11 -41q0 -83 -82 -140q-10 -10 -14 -2l-7 10q-3 5 3 11z" />
    <glyph glyph-name="uni021A" unicode="&#x21a;" horiz-adv-x="401" 
d="M474 610h-153l-117 -599q-2 -11 -12 -11h-34q-12 0 -10 11l116 599h-151q-12 0 -10 11l6 31q3 11 14 11h361q12 0 9 -11l-6 -31q-2 -11 -13 -11zM87 -213q38 38 38 80q0 19 -9 42q-4 9 5 17l36 24q13 9 19 -1q11 -16 11 -41q0 -83 -82 -140q-9 -9 -14 -2l-7 10q-3 5 3 11
z" />
    <glyph glyph-name="uni021B" unicode="&#x21b;" horiz-adv-x="261" 
d="M240 38v-16q-1 -10 -10 -14q-33 -16 -90 -16q-49 0 -63.5 23t-4.5 76l68 351h-49q-11 0 -8 11l4 22q3 12 15 12h48l22 111q1 10 13 14l30 9q15 4 12 -11l-24 -123h92q11 0 10 -12l-4 -22q-3 -11 -15 -11h-92l-65 -334q-9 -34 -0.5 -50t38.5 -16q16 0 61 5q12 1 12 -9z
M9 -213q38 38 38 80q0 19 -9 42q-4 9 5 17l36 24q13 9 19 -1q11 -16 11 -41q0 -83 -82 -140q-10 -9 -14 -2l-7 10q-3 5 3 11z" />
    <glyph glyph-name="schwa" unicode="&#x259;" horiz-adv-x="392" 
d="M11 105q0 46 21 83.5t55 58.5q31 20 77 34q74 21 155 23q5 33 5 59q0 44 -21 62.5t-67 18.5q-49 0 -142 -11q-13 -1 -13 10v15q0 11 8 14q59 24 156 24q71 0 104 -31t33 -104q0 -24 -13 -108q-39 -261 -231 -261q-56 0 -91.5 31t-35.5 82zM66 117q0 -38 23 -57.5
t60 -19.5q118 0 155 169l9 48q-72 0 -150 -26q-44 -13 -70.5 -43t-26.5 -71z" />
    <glyph glyph-name="primemod" unicode="&#x2b9;" horiz-adv-x="203" 
d="M284 660l-161 -242q-6 -6 -14 -3l-17 8q-7 3 -1 14l143 245q6 10 18 6l31 -14q7 -3 1 -14z" />
    <glyph glyph-name="circumflex" unicode="&#x2c6;" horiz-adv-x="420" 
d="M352 686l6 -11q5 -11 20.5 -42.5t29.5 -61.5q2 -8 -2 -12l-15 -11q-5 -3 -8 -3q-8 0 -55 71l-21 34l-112 -102q-5 -5 -8 -5q-2 0 -5 3l-15 13q-2 1 -2 4t4 7l106 116q8 8 21 8h35q16 0 21 -8z" />
    <glyph glyph-name="caron" unicode="&#x2c7;" horiz-adv-x="389" 
d="M308 541h-37q-16 0 -21 8l-56 115q-5 8 1 12l17 13q9 4 13 0l74 -102l111 102q7 6 13 0l13 -13q3 -4 -3 -12l-103 -115q-5 -8 -22 -8z" />
    <glyph glyph-name="breve" unicode="&#x2d8;" horiz-adv-x="422" 
d="M304 554q-38 0 -66.5 22t-39.5 62q-6 14 4 21l15 11q11 10 16 -3q19 -37 34.5 -51.5t41.5 -14.5q23 0 43.5 15t54.5 52q9 11 17 3l11 -10q7 -5 -1 -19q-26 -42 -61 -65t-69 -23z" />
    <glyph glyph-name="dotaccent" unicode="&#x2d9;" horiz-adv-x="347" 
d="M279 645q26 0 26 -21q0 -48 -39 -48q-26 0 -26 22q0 47 39 47z" />
    <glyph glyph-name="ring" unicode="&#x2da;" horiz-adv-x="426" 
d="M335 672q-23 0 -40 -16.5t-20 -41.5q-2 -21 8.5 -34t31.5 -13q23 0 40.5 17t19.5 41q2 19 -9 33t-31 14zM340 706q36 0 56.5 -22t16.5 -55q-3 -40 -32 -67.5t-70 -27.5q-36 0 -57 21.5t-17 55.5q4 42 33.5 68.5t69.5 26.5z" />
    <glyph glyph-name="ogonek" unicode="&#x2db;" horiz-adv-x="336" 
d="M115 -101q-7 -45 37 -45q17 0 45 7q11 2 11 -3l1 -19q0 -8 -8 -10q-27 -13 -60 -15q-42 -1 -61 21t-12 59q12 62 77 115l38 -1q-59 -59 -68 -109z" />
    <glyph glyph-name="tilde" unicode="&#x2dc;" horiz-adv-x="413" 
d="M360 566q-24 0 -63 27q-31 20 -47 20q-23 0 -49 -36q-7 -12 -18 -6l-12 7q-8 5 -1 17q38 65 89 65q20 0 63 -28q28 -19 46 -19q20 0 45 36q7 11 18 6l13 -7q10 -3 2 -14q-38 -68 -86 -68z" />
    <glyph glyph-name="hungarumlaut" unicode="&#x2dd;" horiz-adv-x="420" 
d="M358 679l-101 -128q-5 -7 -12 -3l-18 8q-7 4 -1 11l86 136q6 7 15 3l31 -16q7 -4 0 -11zM453 679l-102 -128q-6 -6 -12 -3l-17 8q-7 3 -1 11l85 136q6 7 15 3l31 -16q8 -5 1 -11z" />
    <glyph glyph-name="tonos" unicode="&#x384;" horiz-adv-x="415" 
d="M412 679l-101 -128q-6 -6 -12 -3l-18 8q-7 4 -1 11l85 136q6 7 15 3l32 -16q7 -4 0 -11z" />
    <glyph glyph-name="dieresistonos" unicode="&#x385;" horiz-adv-x="348" 
d="M383 612q-5 -36 -38 -36q-17 0 -21.5 8.5t-1.5 27.5q8 33 37 33q31 0 24 -33zM209 612q-5 -36 -38 -36q-18 0 -22.5 8.5t-1.5 27.5q7 33 38 33t24 -33zM209 567l85 136q6 7 15 3l33 -16q5 -3 -1 -11l-101 -128q-6 -6 -13 -3l-17 8q-6 3 -1 11z" />
    <glyph glyph-name="Alphatonos" unicode="&#x386;" horiz-adv-x="458" 
d="M365 651l57 -640q2 -11 -9 -11h-37q-10 0 -12 9l-12 173h-222l-79 -171q-5 -11 -16 -11h-39q-12 0 -6 11l305 640q5 11 17 11h41q10 0 12 -11zM332 439l-10 150h-4l-69 -152l-95 -204h195zM180 634l-101 -128q-6 -6 -12 -3l-18 8q-7 3 -1 11l85 136q6 8 15 3l32 -16
q7 -4 0 -11z" />
    <glyph glyph-name="anoteleia" unicode="&#x387;" horiz-adv-x="156" 
d="M133 440q29 0 29 -23q0 -56 -44 -56q-29 0 -29 25q0 54 44 54z" />
    <glyph glyph-name="Epsilontonos" unicode="&#x388;" horiz-adv-x="418" 
d="M387 41l-6 -31q-1 -10 -13 -10h-325q-12 0 -9 10l124 641q3 12 13 12h289q12 0 9 -11l-5 -31q-3 -11 -14 -11h-243l-46 -234h228q10 0 9 -10l-6 -29q-2 -12 -13 -12h-227l-54 -273h280q12 0 9 -11zM96 634l-101 -128q-6 -6 -12 -3l-18 8q-7 3 -1 11l85 136q6 8 15 3
l32 -16q7 -4 0 -11z" />
    <glyph glyph-name="Etatonos" unicode="&#x389;" horiz-adv-x="499" 
d="M543 651l-122 -640q-2 -11 -12 -11h-33q-13 0 -11 11l60 314h-273l-62 -314q-2 -11 -12 -11h-34q-11 0 -9 11l125 640q3 12 13 12h34q11 0 8 -12l-53 -274h273l52 274q3 12 14 12h33q12 0 9 -12zM97 635l-101 -128q-6 -6 -12 -3l-18 8q-7 4 -1 11l85 136q6 7 15 3l32 -16
q7 -4 0 -11z" />
    <glyph glyph-name="Iotatonos" unicode="&#x38a;" horiz-adv-x="192" 
d="M226 651l-124 -640q-2 -11 -15 -11h-31q-13 0 -11 11l124 640q3 12 15 12h31q14 0 11 -12zM111 634l-101 -128q-6 -6 -12 -3l-18 8q-7 3 -1 11l85 136q6 8 15 3l32 -16q7 -4 0 -11z" />
    <glyph glyph-name="Omicrontonos" unicode="&#x38c;" horiz-adv-x="537" 
d="M365 671q94 0 135 -46t41 -137q0 -48 -17 -147q-7 -40 -15 -73q-16 -83 -44 -137q-73 -140 -225 -140q-172 0 -172 187q0 61 20 167q19 101 51 173q68 148 226 153zM357 619q-87 0 -135.5 -69.5t-77.5 -218.5q-17 -94 -17 -145q0 -75 25.5 -109t92.5 -34q90 0 140 69
t80 219q17 85 17 145q0 75 -28 109t-97 34zM125 635l-101 -128q-6 -6 -12 -3l-18 8q-7 4 -1 11l85 136q6 7 15 3l32 -16q7 -4 0 -11z" />
    <glyph glyph-name="Upsilontonos" unicode="&#x38e;" horiz-adv-x="423" 
d="M252 352h5q36 64 83 132l111 169q7 9 17 9h41q9 0 5 -10l-241 -358l-55 -282q-3 -12 -12 -12h-33q-14 0 -11 12l55 282l-101 359q-4 9 9 9h39q10 0 11 -9l46 -168q21 -77 31 -133zM82 635l-101 -128q-6 -6 -12 -3l-18 8q-7 4 -1 11l85 136q6 7 15 3l32 -16q7 -4 0 -11z
" />
    <glyph glyph-name="Omegatonos" unicode="&#x38f;" horiz-adv-x="552" 
d="M201 63q12 -6 11 -16l-7 -35q-3 -12 -17 -12h-164q-14 0 -11 12l5 28q3 12 16 12h87l1 3q-48 45 -48 161q0 100 29 205q71 250 276 250q90 0 134 -57.5t44 -160.5q0 -113 -38 -227q-37 -112 -113 -171l2 -3h85q13 0 10 -12l-5 -28q-3 -12 -15 -12h-170q-8 0 -10.5 2.5
t-1.5 8.5l6 35q1 9 17 16q67 31 105 97.5t61 180.5q11 55 11 105q0 175 -127 175q-174 0 -225 -278q-14 -81 -14 -132q0 -116 66 -147zM131 635l-101 -128q-6 -6 -12 -3l-18 8q-7 4 -1 11l85 136q6 7 15 3l32 -16q7 -4 0 -11z" />
    <glyph glyph-name="iotadieresistonos" unicode="&#x390;" horiz-adv-x="179" 
d="M296 612q-4 -36 -38 -36q-17 0 -21.5 8.5t-1.5 27.5q7 33 37 33q32 0 24 -33zM122 612q-4 -36 -38 -36q-18 0 -22.5 8.5t-1.5 27.5q8 33 38 33q32 0 24 -33zM122 567l85 136q6 7 15 3l33 -16q5 -3 -1 -11l-101 -128q-6 -6 -13 -3l-17 8q-6 3 -1 11zM180 475l-90 -464
q-2 -11 -12 -11h-31q-12 0 -10 11l90 464q1 12 14 12h31q11 0 8 -12z" />
    <glyph glyph-name="Alpha" unicode="&#x391;" horiz-adv-x="458" 
d="M365 651l57 -640q2 -11 -9 -11h-37q-10 0 -12 9l-12 173h-222l-79 -171q-5 -11 -16 -11h-39q-12 0 -6 11l305 640q5 11 17 11h41q10 0 12 -11zM332 439l-10 150h-4l-69 -152l-95 -204h195z" />
    <glyph glyph-name="Beta" unicode="&#x392;" horiz-adv-x="463" 
d="M307 610h-105l-47 -240h110q69 0 111 43t42 108q0 89 -111 89zM93 52h129q81 0 122 47t41 115q0 47 -29 76t-82 29h-129zM167 662h154q156 0 156 -137q0 -55 -28.5 -103t-87.5 -73l1 -2q83 -29 83 -135q0 -97 -61 -155q-62 -57 -146 -57h-195q-9 0 -12.5 3t-1.5 9
l124 638q1 12 14 12z" />
    <glyph glyph-name="Gamma" unicode="&#x393;" horiz-adv-x="386" 
d="M459 610h-253l-116 -598q-3 -12 -12 -12h-34q-13 0 -10 12l124 639q3 12 14 12h298q11 0 9 -11l-6 -31q-3 -11 -14 -11z" />
    <glyph glyph-name="increment" unicode="&#x394;" horiz-adv-x="459" 
d="M366 650l60 -638q2 -12 -12 -12h-416q-14 0 -8 12l306 639q5 11 20 11h34q14 0 16 -12zM323 580h-6q-6 -17 -83 -184l-164 -344h296l-33 369q0 6 -3 40q-7 82 -7 119z" />
    <glyph glyph-name="increment" unicode="&#x2206;" horiz-adv-x="459" 
d="M366 650l60 -638q2 -12 -12 -12h-416q-14 0 -8 12l306 639q5 11 20 11h34q14 0 16 -12zM323 580h-6q-6 -17 -83 -184l-164 -344h296l-33 369q0 6 -3 40q-7 82 -7 119z" />
    <glyph glyph-name="Epsilon" unicode="&#x395;" horiz-adv-x="418" 
d="M384 41l-6 -31q-1 -10 -13 -10h-325q-12 0 -9 10l124 641q3 12 13 12h289q12 0 9 -11l-5 -31q-3 -11 -14 -11h-243l-46 -234h228q10 0 9 -10l-6 -29q-1 -12 -13 -12h-227l-54 -273h280q12 0 9 -11z" />
    <glyph glyph-name="Zeta" unicode="&#x396;" horiz-adv-x="408" 
d="M365 41l-5 -29q-3 -12 -14 -12h-336q-13 0 -10 11l5 26q2 11 10 24l395 549h-265q-12 0 -10 11l6 31q3 11 14 11h316q13 0 10 -10l-5 -30q-6 -17 -11 -22l-391 -549h282q12 0 9 -11z" />
    <glyph glyph-name="Eta" unicode="&#x397;" horiz-adv-x="499" 
d="M539 651l-122 -640q-2 -11 -12 -11h-33q-13 0 -11 11l60 314h-273l-62 -314q-2 -11 -12 -11h-34q-11 0 -9 11l125 640q3 12 13 12h34q11 0 8 -12l-53 -274h273l52 274q3 12 14 12h33q12 0 9 -12z" />
    <glyph glyph-name="Theta" unicode="&#x398;" horiz-adv-x="549" 
d="M370 671q95 0 137.5 -48t42.5 -140q0 -51 -15 -142q-21 -119 -57 -193q-69 -151 -240 -157q-92 0 -132.5 47t-40.5 136q0 52 20 167q61 330 285 330zM360 619q-87 0 -138 -71t-79 -217q-18 -88 -18 -146q0 -71 29.5 -106.5t93.5 -35.5q91 0 146 72.5t80 215.5
q16 95 16 144q0 74 -30 109t-100 35zM435 363l-6 -30q-2 -11 -16 -11h-210q-8 0 -10 2t-1 9l6 30q1 10 14 10h211q9 0 11 -2t1 -8z" />
    <glyph glyph-name="Iota" unicode="&#x399;" horiz-adv-x="192" 
d="M222 651l-124 -640q-2 -11 -15 -11h-31q-13 0 -11 11l124 640q3 12 15 12h31q14 0 11 -12z" />
    <glyph glyph-name="Kappa" unicode="&#x39a;" horiz-adv-x="459" 
d="M210 651l-74 -372l1 -1h1l100 117l232 260q8 8 19 8h43q5 0 7 -3.5t-2 -7.5l-238 -268l119 -373q5 -11 -9 -11h-34q-15 0 -16 10l-103 325l-137 -153l-33 -171q-2 -11 -13 -11h-33q-13 0 -10 11l124 640q3 12 14 12h33q11 0 9 -12z" />
    <glyph glyph-name="Lambda" unicode="&#x39b;" horiz-adv-x="460" 
d="M361 9l-9 129q-5 69 -12 149l-9 128q-9 136 -11 174h-4l-84 -181l-184 -397q-5 -11 -17 -11h-36q-12 0 -6 11l307 640q6 11 17 11h40q10 0 13 -11l58 -640q0 -11 -8 -11h-42q-10 0 -13 9z" />
    <glyph glyph-name="Mu" unicode="&#x39c;" horiz-adv-x="622" 
d="M319 186h3l95 163l185 303q9 11 21 11h31q14 0 11 -12l-124 -639q-3 -12 -15 -12h-30q-15 0 -12 12q9 42 55 289q14 70 23.5 123t14 76.5t3.5 23.5l-48 -84l-195 -321q-9 -11 -19 -11h-24q-11 0 -14 9l-76 334q-3 13 -14 71h-2l-99 -510q-3 -12 -14 -12h-31q-14 0 -11 12
l124 640q3 11 13 11h32q12 0 15 -11l76 -342q1 -4 3.5 -16t5 -24.5t4.5 -24.5q11 -53 13 -59z" />
    <glyph glyph-name="Nu" unicode="&#x39d;" horiz-adv-x="528" 
d="M411 113l2 3l104 534q3 13 15 13h30q13 0 10 -13l-124 -639q-3 -11 -14 -11h-30q-11 0 -16 11l-159 436q-24 67 -33 104q-1 -1 -4 -1l-104 -538q-3 -12 -14 -12h-31q-14 0 -11 12l124 640q2 11 14 11h32q11 0 16 -11l133 -368q4 -11 28 -84q27 -75 32 -87z" />
    <glyph glyph-name="Xi" unicode="&#x39e;" horiz-adv-x="433" 
d="M474 609h-348q-12 0 -11 12l6 30q3 12 15 12h348q13 0 10 -12l-6 -30q-2 -12 -14 -12zM10 52h375q13 0 10 -12l-5 -29q-2 -11 -15 -11h-374q-8 0 -10.5 2t-1.5 9l5 29q3 12 16 12zM104 376h308q13 0 10 -11l-5 -28q-3 -12 -15 -12h-308q-13 0 -10 12l5 28q3 11 15 11z
" />
    <glyph glyph-name="Omicron" unicode="&#x39f;" horiz-adv-x="537" 
d="M363 671q94 0 135 -46t41 -137q0 -48 -17 -147q-7 -40 -15 -73q-16 -83 -44 -137q-73 -140 -225 -140q-172 0 -172 187q0 61 20 167q19 101 51 173q68 148 226 153zM355 619q-87 0 -135.5 -69.5t-77.5 -218.5q-17 -94 -17 -145q0 -75 25.5 -109t92.5 -34q90 0 140 69
t80 219q17 85 17 145q0 75 -28 109t-97 34z" />
    <glyph glyph-name="Pi" unicode="&#x3a0;" horiz-adv-x="508" 
d="M551 650l-124 -639q-2 -11 -16 -11h-27q-9 0 -12 2.5t-2 8.5l116 598h-282l-116 -598q-2 -11 -15 -11h-30q-13 0 -11 11l124 639q3 13 14 13h370q14 0 11 -13z" />
    <glyph glyph-name="Rho" unicode="&#x3a1;" horiz-adv-x="427" 
d="M202 610l-55 -282h107q82 0 122 52t40 127q0 103 -117 103h-97zM167 663h147q76 0 117.5 -39t41.5 -113q0 -42 -12.5 -81.5t-37.5 -74.5t-70.5 -56t-104.5 -21h-111l-51 -266q-3 -12 -13 -12h-34q-13 0 -10 12l124 640q3 11 14 11z" />
    <glyph glyph-name="Sigma" unicode="&#x3a3;" horiz-adv-x="376" 
d="M366 40l-6 -28q-3 -12 -14 -12h-344q-15 0 -12 11l5 26q2 11 11 26l198 282l-95 256q-2 6 -2 21l6 31q3 10 15 10h312q12 0 10 -12l-6 -29q-3 -12 -15 -12h-263l95 -246q6 -19 -8 -39l-190 -273h292q13 0 11 -12z" />
    <glyph glyph-name="Tau" unicode="&#x3a4;" horiz-adv-x="401" 
d="M472 610h-153l-117 -599q-2 -11 -12 -11h-34q-12 0 -10 11l116 599h-151q-12 0 -10 11l6 31q3 11 14 11h361q12 0 9 -11l-6 -31q-2 -11 -13 -11z" />
    <glyph glyph-name="Upsilon" unicode="&#x3a5;" horiz-adv-x="423" 
d="M250 352h5q36 64 83 132l111 169q7 9 17 9h41q9 0 5 -10l-241 -358l-55 -282q-3 -12 -12 -12h-33q-14 0 -11 12l55 282l-101 359q-4 9 9 9h39q10 0 11 -9l46 -168q21 -77 31 -133z" />
    <glyph glyph-name="Phi" unicode="&#x3a6;" horiz-adv-x="632" 
d="M376 594l11 57q3 12 14 12h33q13 0 10 -12l-10 -57q99 -6 147.5 -62t48.5 -146q0 -122 -78 -211q-77 -87 -220 -98l-12 -66q-2 -11 -14 -11h-33q-12 0 -10 11l12 66q-102 6 -153.5 58.5t-51.5 139.5q0 57 17.5 109.5t53 98t96 75.5t139.5 36zM285 127l81 417
q-120 -9 -181 -85q-60 -77 -60 -182q0 -141 160 -150zM424 544l-81 -418q109 8 171 81q61 73 61 180q0 147 -151 157z" />
    <glyph glyph-name="Chi" unicode="&#x3a7;" horiz-adv-x="434" 
d="M324 10l-85 277l-195 -277q-6 -10 -16 -10h-44q-12 0 -5 10l237 333l-99 309q-2 4 0 7.5t7 3.5h39q12 0 13 -10l79 -254l176 254q6 9 18 9h44q5 1 6 -2.5t-2 -7.5l-221 -309l109 -333q3 -10 -7 -10h-40q-10 0 -14 10z" />
    <glyph glyph-name="Psi" unicode="&#x3a8;" horiz-adv-x="582" 
d="M338 167l-30 -155q-2 -12 -15 -12h-30q-8 0 -10.5 2.5t-1.5 9.5l30 154q-103 9 -143 73.5t-18 172.5l46 238q3 13 16 13h30q15 0 12 -13l-46 -238q-35 -178 113 -191l84 429q3 13 16 13h30q14 0 11 -13l-84 -429q155 17 191 191l46 238q3 13 16 13h30q14 0 11 -13
l-46 -238q-19 -104 -88 -173q-68 -68 -170 -72z" />
    <glyph glyph-name="Omega" unicode="&#x3a9;" horiz-adv-x="552" 
d="M198 63q12 -6 11 -16l-7 -35q-3 -12 -17 -12h-164q-14 0 -11 12l5 28q3 12 16 12h87l1 3q-48 45 -48 161q0 100 29 205q71 250 276 250q90 0 134 -57.5t44 -160.5q0 -113 -38 -227q-37 -112 -113 -171l2 -3h85q13 0 10 -12l-5 -28q-3 -12 -15 -12h-170q-8 0 -10.5 2.5
t-1.5 8.5l6 35q1 9 17 16q67 31 105 97.5t61 180.5q11 55 11 105q0 175 -127 175q-174 0 -225 -278q-14 -81 -14 -132q0 -116 66 -147z" />
    <glyph glyph-name="Iotadieresis" unicode="&#x3aa;" horiz-adv-x="192" 
d="M222 651l-124 -640q-2 -11 -15 -11h-31q-13 0 -11 11l124 640q3 12 15 12h31q14 0 11 -12zM294 798q26 0 26 -20q0 -48 -39 -48q-25 0 -25 19q0 49 38 49zM153 798q24 0 24 -19q0 -49 -38 -49q-26 0 -26 20q0 48 40 48z" />
    <glyph glyph-name="Upsilondieresis" unicode="&#x3ab;" horiz-adv-x="423" 
d="M250 352h5q36 64 83 132l111 169q7 9 17 9h41q9 0 5 -10l-241 -358l-55 -282q-3 -12 -12 -12h-33q-14 0 -11 12l55 282l-101 359q-4 9 9 9h39q10 0 11 -9l46 -168q21 -77 31 -133zM410 798q26 0 26 -20q0 -48 -39 -48q-25 0 -25 19q0 49 38 49zM269 798q24 0 24 -19
q0 -49 -38 -49q-26 0 -26 20q0 48 40 48z" />
    <glyph glyph-name="alphatonos" unicode="&#x3ac;" horiz-adv-x="431" 
d="M385 465l5 14q2 8 13 8h27q9 0 9 -10v-2l-89 -465q-1 -10 -12 -10h-31q-12 0 -9 11l7 38l-1 1q-94 -58 -167 -58q-53 0 -77.5 29.5t-24.5 90.5q0 46 14 124q27 142 73 199q47 59 140 59q67 0 123 -29zM314 99l60 317q-59 28 -123 28q-58 0 -91.5 -48t-55.5 -162
q-13 -62 -13 -108q0 -45 15.5 -63.5t48.5 -18.5q29 0 79 18q53 21 80 37zM399 679l-101 -128q-6 -6 -12 -3l-18 8q-7 4 -1 11l85 136q6 7 15 3l32 -16q7 -4 0 -11z" />
    <glyph glyph-name="epsilontonos" unicode="&#x3ad;" horiz-adv-x="357" 
d="M258 498q78 0 121 -21q9 -4 6 -13l-7 -17q-4 -12 -18 -9q-78 9 -105 9q-115 0 -115 -104q0 -38 33 -49q29 -7 60 -7h35q12 0 9 -12l-5 -25q-2 -11 -13 -11h-33q-138 0 -138 -122q0 -75 110 -75q44 0 117 10q15 3 15 -8v-16q0 -10 -10 -14q-51 -22 -135 -22
q-71 0 -113 30.5t-42 90.5q0 115 100 151l1 3q-50 18 -50 74q0 46 16.5 78.5t44.5 48.5t56.5 23t59.5 7zM365 679l-101 -128q-6 -6 -12 -3l-18 8q-7 4 -1 11l85 136q6 7 15 3l32 -16q7 -4 0 -11z" />
    <glyph glyph-name="etatonos" unicode="&#x3ae;" horiz-adv-x="413" 
d="M317 496q53 0 76.5 -22t23.5 -68q0 -37 -7 -69l-9 -47q-42 -216 -70 -365q-3 -12 -15 -12h-31q-10 0 -10 8l1 1v3l67 345q14 76 16 118q0 32 -14.5 45t-45.5 13q-50 0 -161 -57l-73 -378q-2 -11 -15 -11h-29q-10 0 -10 7l1 1v3l90 464q2 12 13 12h29q11 0 11 -8v-4
l-7 -38q1 0 2 -1q99 60 167 60zM371 679l-101 -128q-5 -5 -8 -5t-15 6q-15 8 -8 15l85 136q3 5 8 5l2 -1q3 -1 5 -1l31 -16q4 -3 4 -5q0 -3 -3 -6z" />
    <glyph glyph-name="iotatonos" unicode="&#x3af;" horiz-adv-x="179" 
d="M180 475l-90 -464q-2 -11 -12 -11h-31q-12 0 -10 11l90 464q1 12 14 12h31q11 0 8 -12zM280 679l-101 -128q-6 -6 -12 -3l-18 8q-7 4 -1 11l85 136q6 7 15 3l32 -16q7 -4 0 -11z" />
    <glyph glyph-name="upsilondieresistonos" unicode="&#x3b0;" horiz-adv-x="423" 
d="M420 487h29q13 0 10 -12l-58 -298q-36 -184 -195 -184q-94 0 -126 45.5t-13 138.5l58 298q3 12 15 12h28q13 0 10 -12l-58 -300q-11 -65 4.5 -100t80.5 -35q115 0 141 135l59 300q1 12 15 12zM434 612q-4 -36 -38 -36q-17 0 -21.5 8.5t-1.5 27.5q7 33 37 33q32 0 24 -33z
M260 612q-4 -36 -38 -36q-18 0 -22.5 8.5t-1.5 27.5q8 33 38 33q32 0 24 -33zM260 567l85 136q6 7 15 3l33 -16q5 -3 -1 -11l-101 -128q-6 -6 -13 -3l-17 8q-6 3 -1 11z" />
    <glyph glyph-name="alpha" unicode="&#x3b1;" horiz-adv-x="431" 
d="M385 465l5 14q2 8 13 8h27q9 0 9 -10v-2l-89 -465q-1 -10 -12 -10h-31q-12 0 -9 11l7 38l-1 1q-94 -58 -167 -58q-53 0 -77.5 29.5t-24.5 90.5q0 46 14 124q27 142 73 199q47 59 140 59q67 0 123 -29zM314 99l60 317q-59 28 -123 28q-58 0 -91.5 -48t-55.5 -162
q-13 -62 -13 -108q0 -45 15.5 -63.5t48.5 -18.5q29 0 79 18q53 21 80 37z" />
    <glyph glyph-name="beta" unicode="&#x3b2;" horiz-adv-x="415" 
d="M73 16l-3 -2l-34 -178q-2 -11 -16 -11h-30q-10 0 -8 11l129 668q18 97 73 150.5t128 53.5t104 -40.5t16 -117.5q-7 -41 -33 -79t-65 -58l-1 -5q96 -6 71 -176q-19 -127 -70.5 -184.5t-148.5 -57.5q-55 0 -112 26zM348 227q15 77 -4.5 108t-74.5 31q-15 0 -57 -3
q-15 -1 -12 11l5 23q3 10 14 13q72 18 108.5 49t48.5 91q11 53 -10 80t-68 27q-50 0 -84.5 -41.5t-47.5 -110.5l-86 -441q63 -23 117 -23q62 0 97.5 44.5t53.5 141.5z" />
    <glyph glyph-name="gamma" unicode="&#x3b3;" horiz-adv-x="373" 
d="M178 89h5q24 52 68 139l126 249q4 10 16 10h35q12 0 7 -11l-245 -469l-33 -171q-1 -12 -15 -12h-28q-8 0 -9.5 2.5t-0.5 9.5l34 176l-47 404q-2 17 -6.5 23.5t-16.5 6.5q-10 0 -10 6l1 23q0 7 12 11q22 8 33 8q20 0 27 -13.5t11 -52.5l23 -202q13 -130 13 -137z" />
    <glyph glyph-name="delta" unicode="&#x3b4;" horiz-adv-x="422" 
d="M259 433q-163 -58 -163 -292q0 -51 21.5 -75.5t69.5 -24.5q68 0 107 48t54 145q7 41 7 78q0 45 -22 72.5t-74 48.5zM316 653q-105 0 -105 -92q0 -29 26 -49q4 -3 27 -17l32 -16q61 -31 87 -68q26 -35 26 -101q0 -111 -43 -204q-24 -53 -73 -83.5t-116 -30.5
q-136 0 -136 138q0 106 39 196q39 91 128 132q-54 28 -54 89q0 157 169 157q74 0 122 -21q9 -5 6 -14l-7 -18q-5 -8 -18 -7q-75 9 -110 9z" />
    <glyph glyph-name="epsilon" unicode="&#x3b5;" horiz-adv-x="357" 
d="M258 498q78 0 121 -21q9 -4 6 -13l-7 -17q-4 -12 -18 -9q-78 9 -105 9q-115 0 -115 -104q0 -38 33 -49q29 -7 60 -7h35q12 0 9 -12l-5 -25q-2 -11 -13 -11h-33q-138 0 -138 -122q0 -75 110 -75q44 0 117 10q15 3 15 -8v-16q0 -10 -10 -14q-51 -22 -135 -22
q-71 0 -113 30.5t-42 90.5q0 115 100 151l1 3q-50 18 -50 74q0 46 16.5 78.5t44.5 48.5t56.5 23t59.5 7z" />
    <glyph glyph-name="zeta" unicode="&#x3b6;" horiz-adv-x="358" 
d="M340 440l-1 1h-233q-11 0 -9 11l5 24q3 11 13 11h302q9 0 8 -9l-5 -29q-5 -15 -11 -19l-46 -26l-55 -31q-37 -22 -53 -32q-40 -26 -54 -38q-64 -51 -85 -81q-34 -45 -34 -91q0 -47 45.5 -67t137.5 -20h28q15 0 16 -10l5 -20q2 -16 -11 -34q-44 -63 -78 -133
q-7 -15 -18 -10l-24 7q-11 5 -3 19q9 22 36 68q25 42 40 62q-70 0 -127 12q-103 26 -103 115q0 82 74 160q29 30 78 64q46 32 81 52q16 10 81 44z" />
    <glyph glyph-name="eta" unicode="&#x3b7;" horiz-adv-x="416" 
d="M319 496q56 0 80 -25q12 -11 17.5 -26t4 -41t-3 -38.5t-7.5 -51.5l-92 -478q-2 -11 -15 -11h-31q-12 0 -10 11l93 482q16 64 4.5 96t-57.5 32q-50 0 -161 -57l-73 -378q-2 -11 -15 -11h-30q-11 0 -9 11l90 464q3 12 13 12h30q13 0 11 -12l-8 -38q1 0 2 -1q102 60 167 60z
" />
    <glyph glyph-name="theta" unicode="&#x3b8;" horiz-adv-x="439" 
d="M320 708q75 0 109.5 -42t34.5 -125q0 -54 -20 -179q-24 -136 -54 -209q-58 -155 -204 -161q-140 0 -140 160q0 62 27 210q25 127 53 193q61 148 194 153zM313 659q-65 0 -107 -64.5t-70 -198.5h260q14 86 14 136q0 65 -23 96t-74 31zM387 350h-261q-24 -120 -24 -187
q0 -63 21.5 -92.5t69.5 -29.5q76 0 118 74q42 72 76 235z" />
    <glyph glyph-name="iota" unicode="&#x3b9;" horiz-adv-x="179" 
d="M180 475l-90 -464q-2 -11 -12 -11h-31q-12 0 -10 11l90 464q1 12 14 12h31q11 0 8 -12z" />
    <glyph glyph-name="kappa" unicode="&#x3ba;" horiz-adv-x="365" 
d="M409 475l-177 -177l103 -286q5 -12 -8 -12h-36q-14 0 -17 11l-84 243l-87 -88l-30 -155q-2 -11 -14 -11h-31q-11 0 -9 11l90 466q3 11 13 11h31q13 0 10 -11l-45 -231q0 -1 1 -1l88 91l139 142q10 10 20 10h39q14 0 4 -13z" />
    <glyph glyph-name="lambda" unicode="&#x3bb;" horiz-adv-x="381" 
d="M255 398h-5q-21 -45 -76 -148l-131 -239q-5 -12 -16 -12h-34q-15 0 -7 14l256 463l-9 127q-2 22 -4 33t-9 19t-21 10q-4 0 -10 -0.5t-10 -0.5t-8 0.5t-6 1.5t-2 4l1 21q0 7 12 11q18 7 43 7q37 0 49.5 -19.5t16.5 -72.5l43 -555q2 -16 6 -21t18 -5q8 0 10 -1t1 -7l-1 -15
q-2 -8 -8 -11q-12 -6 -31 -6q-24 0 -34.5 13.5t-12.5 47.5l-13 193q-8 147 -8 148z" />
    <glyph glyph-name="nu" unicode="&#x3bd;" horiz-adv-x="385" 
d="M165 187l13 -114h3l14 31q36 70 42 84l142 289q6 10 15 10h38q4 0 6 -1.5t1 -4.5l-1 -2q-1 -1 -1 -3l-240 -467q-5 -9 -14 -9h-35q-10 0 -12 9l-58 467q-2 11 8 11h35q12 0 12 -9z" />
    <glyph glyph-name="xi" unicode="&#x3be;" horiz-adv-x="324" 
d="M312 707q88 0 126 -21q8 -5 4 -13l-6 -17q-4 -10 -15 -9q-49 9 -111 9t-105 -42q-43 -40 -43 -112q0 -44 31 -64.5t81 -20.5h68q8 0 7 -10l-5 -26q-3 -11 -12 -11h-68q-77 0 -129 -64t-52 -159q0 -69 54 -88q46 -15 119 -15h27q10 0 12.5 -1.5t3.5 -8.5l5 -20
q2 -16 -11 -34q-46 -68 -78 -133q-7 -14 -17 -10l-25 7q-11 5 -3 19q13 29 35 67q24 41 41 63q-77 0 -125 14q-95 32 -95 138q0 81 38 152q37 70 112 96l1 3q-73 22 -73 100q0 100 60 155q62 56 148 56z" />
    <glyph glyph-name="omicron" unicode="&#x3bf;" horiz-adv-x="420" 
d="M270 497q144 0 144 -145q0 -42 -12 -100q-16 -86 -41 -143q-24 -56 -66.5 -85t-113.5 -32q-76 0 -109 35t-33 104q0 45 15 121q11 66 37 125q50 115 179 120zM263 447q-66 0 -100.5 -48t-54.5 -154q-13 -62 -13 -104q0 -51 21 -75.5t68 -24.5q69 0 104.5 48t56.5 156
q13 61 13 102q0 100 -95 100z" />
    <glyph glyph-name="pi" unicode="&#x3c0;" horiz-adv-x="422" 
d="M447 476l-90 -465q-2 -11 -15 -11h-30q-12 0 -10 11l83 428h-233l-83 -428q-2 -11 -14 -11h-29q-12 0 -10 11l90 465q2 11 14 11h317q7 0 9 -2t1 -9z" />
    <glyph glyph-name="rho" unicode="&#x3c1;" horiz-adv-x="421" 
d="M190 -9q-58 0 -119 24q-5 0 -12 -34l-18 -88q-9 -54 -9 -55q-3 -14 -16 -14h-27q-11 0 -11 8q0 5 1 6l82 421q24 124 76.5 181t135.5 57q72 0 106 -37t34 -115q0 -41 -9 -93q-22 -136 -72 -198.5t-142 -62.5zM203 40q57 0 91.5 51t54.5 164q9 53 9 87q0 57 -22 81.5
t-66 24.5q-120 0 -157 -193l-37 -191q64 -24 127 -24z" />
    <glyph glyph-name="sigma1" unicode="&#x3c2;" horiz-adv-x="355" 
d="M241 497q82 0 125 -22q8 -5 5 -14l-6 -17q-5 -10 -19 -8q-84 10 -109 10q-108 0 -108 -101q0 -27 21 -43t50.5 -24.5t59.5 -18.5t51 -34t21 -63q0 -168 -192 -170q-91 0 -130 21q-7 4 -4 15l6 16q4 10 18 9q96 -11 121 -11q125 0 125 108q0 30 -21 47.5t-50.5 26t-59 18
t-50.5 32.5t-21 61q0 81 44.5 121.5t122.5 40.5z" />
    <glyph glyph-name="sigma" unicode="&#x3c3;" horiz-adv-x="426" 
d="M183 40q70 0 105 46.5t56 152.5q11 53 11 94q0 71 -41 103q-30 2 -32 2q-75 0 -115 -47t-61 -152q-12 -59 -12 -101q0 -50 21 -74t68 -24zM461 438h-77l-2 -5q28 -34 28 -98q0 -35 -9 -89q-17 -103 -57 -172q-50 -82 -167 -82q-139 0 -139 140q0 13 2 47q11 99 33 153
q26 68 76.5 112.5t124.5 42.5h196q13 0 10 -12l-5 -26q-2 -11 -14 -11z" />
    <glyph glyph-name="tau" unicode="&#x3c4;" horiz-adv-x="306" 
d="M108 91l68 348h-97q-13 0 -11 12l5 24q3 12 15 12h264q13 0 10 -11l-5 -25q-1 -12 -14 -12h-114l-65 -331q-9 -34 -0.5 -50t39.5 -16q15 0 60 5q13 1 13 -9v-16q-1 -10 -10 -14q-35 -16 -90 -16q-49 0 -63.5 23t-4.5 76z" />
    <glyph glyph-name="upsilon" unicode="&#x3c5;" horiz-adv-x="423" 
d="M420 487h29q13 0 10 -12l-58 -298q-36 -184 -195 -184q-94 0 -126 45.5t-13 138.5l58 298q3 12 15 12h28q13 0 10 -12l-58 -300q-11 -65 4.5 -100t80.5 -35q115 0 141 135l59 300q1 12 15 12z" />
    <glyph glyph-name="phi" unicode="&#x3c6;" horiz-adv-x="530" 
d="M347 446l-79 -406q99 11 145 87q48 77 48 185q0 66 -25.5 99.5t-88.5 34.5zM175 -163l31 156q-160 10 -160 175q0 97 40 187q40 91 124 131q11 5 16 -6l8 -16q3 -7 -7 -14q-63 -44 -95 -122t-32 -156q0 -126 115 -132l85 435q5 20 23 20h31q163 0 163 -168
q0 -148 -69 -238q-68 -89 -189 -96l-31 -156q-2 -12 -15 -12h-27q-14 0 -11 12z" />
    <glyph glyph-name="chi" unicode="&#x3c7;" horiz-adv-x="358" 
d="M406 475l-174 -226l92 -237q4 -12 -8 -12h-38q-12 0 -16 10l-69 191l-144 -191q-7 -10 -18 -10h-41q-11 0 -4 12l183 236l-84 227q-2 4 0.5 8t7.5 4h35q6 0 9 -3t5.5 -11t3.5 -10l61 -169l137 183q7 10 15 10h43q12 0 4 -12z" />
    <glyph glyph-name="psi" unicode="&#x3c8;" horiz-adv-x="480" 
d="M250 -8l-30 -156q-2 -12 -14 -12h-28q-12 0 -11 12l31 157q-89 6 -120.5 53t-13.5 136l57 293q1 12 16 12h27q13 0 10 -12l-58 -300q-13 -63 7.5 -95.5t84.5 -36.5l91 470q2 11 16 11h27q7 0 9 -2t1 -9l-92 -470q119 4 145 132l58 300q1 12 16 12h27q13 0 10 -12
l-59 -302q-18 -89 -66 -133t-141 -48z" />
    <glyph glyph-name="omega" unicode="&#x3c9;" horiz-adv-x="623" 
d="M513 448q-10 7 -3 17l14 19q8 10 18 3q70 -43 70 -156q0 -53 -11 -114q-42 -225 -199 -225q-88 0 -108 71h-3q-51 -71 -132 -71q-63 0 -91 34t-28 104q0 104 33 200q39 109 134 157q13 7 16 -3l10 -21q3 -9 -9 -17q-66 -46 -98 -132q-30 -86 -30 -175q0 -96 72 -96
q62 0 88 45q19 32 31 87l27 141q2 12 16 12h28q12 0 10 -12l-27 -141q-6 -35 -6 -53q0 -79 77 -79q100 0 135 182q11 55 11 106q0 77 -45 117z" />
    <glyph glyph-name="iotadieresis" unicode="&#x3ca;" horiz-adv-x="179" 
d="M180 475l-90 -464q-2 -11 -12 -11h-31q-12 0 -10 11l90 464q1 12 14 12h31q11 0 8 -12zM261 645q26 0 26 -21q0 -48 -39 -48q-26 0 -26 20q0 49 39 49zM113 645q25 0 25 -20q0 -49 -38 -49q-26 0 -26 21q0 48 39 48z" />
    <glyph glyph-name="upsilondieresis" unicode="&#x3cb;" horiz-adv-x="423" 
d="M420 487h29q13 0 10 -12l-58 -298q-36 -184 -195 -184q-94 0 -126 45.5t-13 138.5l58 298q3 12 15 12h28q13 0 10 -12l-58 -300q-11 -65 4.5 -100t80.5 -35q115 0 141 135l59 300q1 12 15 12zM395 645q26 0 26 -21q0 -48 -39 -48q-26 0 -26 20q0 49 39 49zM247 645
q25 0 25 -20q0 -49 -38 -49q-26 0 -26 21q0 48 39 48z" />
    <glyph glyph-name="omicrontonos" unicode="&#x3cc;" horiz-adv-x="420" 
d="M270 497q144 0 144 -145q0 -42 -12 -100q-16 -86 -41 -143q-24 -56 -66.5 -85t-113.5 -32q-76 0 -109 35t-33 104q0 45 15 121q11 66 37 125q50 115 179 120zM263 447q-66 0 -100.5 -48t-54.5 -154q-13 -62 -13 -104q0 -51 21 -75.5t68 -24.5q69 0 104.5 48t56.5 156
q13 61 13 102q0 100 -95 100zM397 679l-101 -128q-6 -6 -12 -3l-18 8q-7 4 -1 11l85 136q6 7 15 3l32 -16q7 -4 0 -11z" />
    <glyph glyph-name="upsilontonos" unicode="&#x3cd;" horiz-adv-x="423" 
d="M420 487h29q13 0 10 -12l-58 -298q-36 -184 -195 -184q-94 0 -126 45.5t-13 138.5l58 298q3 12 15 12h28q13 0 10 -12l-58 -300q-11 -65 4.5 -100t80.5 -35q115 0 141 135l59 300q1 12 15 12zM406 679l-101 -128q-6 -6 -12 -3l-18 8q-7 4 -1 11l85 136q6 7 15 3l32 -16
q7 -4 0 -11z" />
    <glyph glyph-name="omegatonos" unicode="&#x3ce;" horiz-adv-x="623" 
d="M513 448q-10 7 -3 17l14 19q8 10 18 3q70 -43 70 -156q0 -53 -11 -114q-42 -225 -199 -225q-88 0 -108 71h-3q-51 -71 -132 -71q-63 0 -91 34t-28 104q0 104 33 200q39 109 134 157q13 7 16 -3l10 -21q3 -9 -9 -17q-66 -46 -98 -132q-30 -86 -30 -175q0 -96 72 -96
q62 0 88 45q19 32 31 87l27 141q2 12 16 12h28q12 0 10 -12l-27 -141q-6 -35 -6 -53q0 -79 77 -79q100 0 135 182q11 55 11 106q0 77 -45 117zM487 679l-101 -128q-6 -6 -12 -3l-18 8q-7 4 -1 11l85 136q6 7 15 3l32 -16q7 -4 0 -11z" />
    <glyph glyph-name="uni0400" unicode="&#x400;" horiz-adv-x="418" 
d="M384 41l-6 -31q-1 -10 -13 -10h-325q-12 0 -9 10l124 641q3 12 13 12h289q12 0 9 -11l-5 -31q-3 -11 -14 -11h-243l-46 -234h228q10 0 9 -10l-6 -29q-1 -12 -13 -12h-227l-54 -273h280q12 0 9 -11zM239 799l28 31q8 11 16 3l93 -90q4 -7 -1 -12l-15 -16q-7 -7 -13 -3
l-107 75q-7 4 -1 12z" />
    <glyph glyph-name="afii10023" unicode="&#x401;" horiz-adv-x="418" 
d="M384 41l-6 -31q-1 -10 -13 -10h-325q-12 0 -9 10l124 641q3 12 13 12h289q12 0 9 -11l-5 -31q-3 -11 -14 -11h-243l-46 -234h228q10 0 9 -10l-6 -29q-1 -12 -13 -12h-227l-54 -273h280q12 0 9 -11zM399 798q26 0 26 -20q0 -48 -39 -48q-25 0 -25 19q0 49 38 49zM258 798
q24 0 24 -19q0 -49 -38 -49q-26 0 -26 20q0 48 40 48z" />
    <glyph glyph-name="afii10051" unicode="&#x402;" horiz-adv-x="596" 
d="M334 -100q-14 -6 -17 2l-7 20q-1 10 9 16q93 52 146.5 144.5t53.5 206.5q0 119 -90 119q-71 0 -166 -57l-66 -339q-1 -12 -16 -12h-28q-8 0 -11 2.5t-2 9.5l116 598h-149q-9 0 -11 2.5t-1 8.5l6 30q3 12 16 12h426q13 0 10 -12l-6 -30q-2 -11 -15 -11h-218l-39 -200
q99 51 172 51q131 0 131 -160q0 -110 -49 -212q-53 -117 -195 -189z" />
    <glyph glyph-name="afii10052" unicode="&#x403;" horiz-adv-x="386" 
d="M459 610h-253l-116 -598q-3 -12 -12 -12h-34q-13 0 -10 12l124 639q3 12 14 12h298q11 0 9 -11l-6 -31q-3 -11 -14 -11zM408 830l19 -30q5 -8 -6 -14l-134 -74q-9 -6 -13 3l-10 15q-4 7 4 12l125 90q11 8 15 -2z" />
    <glyph glyph-name="afii10053" unicode="&#x404;" horiz-adv-x="450" 
d="M367 669q90 0 146 -22q10 -4 6 -16l-7 -19q-4 -9 -16 -8q-81 10 -135 10q-83 0 -129.5 -59t-74.5 -177h237q10 0 9 -10l-6 -30q-3 -11 -13 -11h-237q-15 -75 -15 -125q0 -154 125 -154q63 0 149 9q13 1 13 -9v-18q0 -11 -10 -15q-65 -24 -161 -24q-175 0 -175 205
q0 60 13 134q22 121 61 201q71 138 220 138z" />
    <glyph glyph-name="afii10054" unicode="&#x405;" horiz-adv-x="440" 
d="M318 669q100 0 152 -24q12 -4 7 -15l-7 -18q-5 -11 -18 -10q-72 13 -139 13q-72 0 -112.5 -40t-40.5 -112q0 -42 35 -64q26 -16 78 -33l12 -4q62 -21 95 -45q43 -29 43 -99q0 -115 -67 -172q-69 -56 -169 -55q-35 0 -93 8q-52 7 -75 18q-11 7 -7 17l7 19q4 10 18 7
q79 -14 160 -14q76 0 121 42.5t45 121.5q0 42 -24 63t-86 40q-72 22 -107 46q-44 30 -44 98q0 104 58.5 158t157.5 54z" />
    <glyph glyph-name="afii10055" unicode="&#x406;" horiz-adv-x="192" 
d="M222 651l-124 -640q-2 -11 -15 -11h-31q-13 0 -11 11l124 640q3 12 15 12h31q14 0 11 -12z" />
    <glyph glyph-name="afii10056" unicode="&#x407;" horiz-adv-x="192" 
d="M222 651l-124 -640q-2 -11 -15 -11h-31q-13 0 -11 11l124 640q3 12 15 12h31q14 0 11 -12zM294 798q26 0 26 -20q0 -48 -39 -48q-25 0 -25 19q0 49 38 49zM153 798q24 0 24 -19q0 -49 -38 -49q-26 0 -26 20q0 48 40 48z" />
    <glyph glyph-name="afii10057" unicode="&#x408;" horiz-adv-x="349" 
d="M378 651l-95 -490q-18 -87 -61 -129t-122 -42q-63 0 -111 21q-11 5 -6 16l7 20q5 9 16 8q54 -9 94 -9q59 0 87.5 29.5t40.5 97.5l93 478q3 12 14 12h32q14 0 11 -12z" />
    <glyph glyph-name="afii10058" unicode="&#x409;" horiz-adv-x="737" 
d="M334 12l116 598h-176l-59 -238q-44 -184 -71 -247q-50 -118 -133 -131q-18 -2 -27 -2q-13 0 -11 11l3 24q2 8 15 11q64 17 92 78q28 62 72 239q2 8 5.5 23.5t5.5 21.5l62 250q4 13 16 13h260q13 0 12 -13l-52 -266h119q78 0 115.5 -38.5t37.5 -104.5q0 -116 -64 -179
q-65 -62 -163 -62h-163q-15 0 -12 12zM578 333h-124l-55 -282h112q78 0 123.5 47.5t45.5 136.5q0 98 -102 98z" />
    <glyph glyph-name="afii10059" unicode="&#x40a;" horiz-adv-x="698" 
d="M473 650l-52 -268h120q78 0 115.5 -37.5t37.5 -103.5q0 -116 -64 -179q-65 -62 -163 -62h-163q-6 0 -9.5 2.5t-2.5 8.5l62 319h-203l-62 -318q-1 -12 -15 -12h-30q-15 0 -12 12l124 638q3 13 16 13h30q12 0 11 -13l-52 -268h203l52 268q2 12 16 12h30q12 0 11 -12z
M536 330h-124l-55 -279h112q78 0 123.5 47.5t45.5 136.5q0 95 -102 95z" />
    <glyph glyph-name="afii10060" unicode="&#x40b;" horiz-adv-x="591" 
d="M464 462q86 0 108 -49q22 -48 5 -138l-51 -263q-2 -12 -16 -12h-28q-14 0 -12 12l52 270q26 126 -74 126q-66 0 -181 -61l-65 -335q-2 -12 -16 -12h-29q-8 0 -11 2.5t-2 9.5l116 598h-148q-8 0 -11 2.5t-2 8.5l6 30q3 12 17 12h430q15 0 12 -12l-6 -30q-2 -11 -17 -11
h-223l-40 -204q117 56 186 56z" />
    <glyph glyph-name="afii10061" unicode="&#x40c;" horiz-adv-x="459" 
d="M332 347l-1 -4q63 -20 69 -118l12 -207q1 -10 -2 -14t-13 -4h-24q-16 0 -16 13l-12 204q-3 55 -26.5 76t-74.5 21h-100l-58 -302q-3 -12 -13 -12h-33q-13 0 -10 12l124 638q3 13 14 13h33q12 0 9 -13l-56 -284h91q92 0 137 94l87 187q7 15 21 15h24q20 0 9 -18l-87 -186
q-40 -91 -104 -111zM437 830l19 -30q5 -8 -6 -14l-134 -74q-9 -6 -13 3l-10 15q-4 7 4 12l125 90q11 8 15 -2z" />
    <glyph glyph-name="uni040D" unicode="&#x40d;" horiz-adv-x="528" 
d="M32 11l124 639q3 13 13 13h33q12 0 9 -13l-106 -542h3l403 544q11 11 19 11h33q11 0 9 -11l-123 -640q-3 -12 -15 -12h-31q-12 0 -9 12l106 545h-3l-133 -182l-271 -364q-11 -11 -19 -11h-33q-12 0 -9 11zM291 799l28 31q8 11 16 3l93 -90q4 -7 -1 -12l-15 -16
q-7 -7 -13 -3l-107 75q-7 4 -1 12z" />
    <glyph glyph-name="afii10062" unicode="&#x40e;" horiz-adv-x="437" 
d="M235 229h6l45 91q10 21 49 95l124 233q7 15 20 15h34q14 0 8 -11l-268 -506q-52 -92 -80 -122q-31 -33 -81 -33q-32 0 -52 7q-13 3 -9 16l8 19q4 12 19 11q44 -6 67.5 9.5t53.5 66.5l18 31q-10 66 -39 241q-17 108 -40 261q0 9 12 9h35q11 0 13 -9l35 -241
q19 -137 22 -183zM331 699q-38 0 -66.5 22t-39.5 62q-6 14 4 21l15 11q11 10 16 -3q19 -37 34.5 -51.5t41.5 -14.5q23 0 43.5 15t54.5 52q9 11 17 3l11 -10q7 -5 -1 -19q-26 -42 -61 -65t-69 -23z" />
    <glyph glyph-name="afii10145" unicode="&#x40f;" horiz-adv-x="500" 
d="M406 0h-149l-33 -137q-5 -17 -16 -17h-27q-14 0 -10 16l22 138h-150q-11 0 -9 12l124 639q3 12 13 12h34q11 0 8 -12l-116 -599h273l116 599q3 12 15 12h33q11 0 8 -12l-124 -639q-2 -12 -12 -12z" />
    <glyph glyph-name="afii10017" unicode="&#x410;" horiz-adv-x="458" 
d="M365 651l57 -640q2 -11 -9 -11h-37q-10 0 -12 9l-12 173h-222l-79 -171q-5 -11 -16 -11h-39q-12 0 -6 11l305 640q5 11 17 11h41q10 0 12 -11zM332 439l-10 150h-4l-69 -152l-95 -204h195z" />
    <glyph glyph-name="afii10018" unicode="&#x411;" horiz-adv-x="434" 
d="M451 610h-249q-6 -36 -44 -227h60q27 1 61 1q78 0 115.5 -38.5t37.5 -104.5q0 -116 -65 -179q-65 -62 -163 -62h-165q-13 0 -10 11l124 640q2 11 13 11h295q13 0 10 -11l-6 -30q-3 -11 -14 -11zM275 333h-126l-55 -282h112q78 0 124 47.5t46 136.5q0 98 -101 98z" />
    <glyph glyph-name="afii10019" unicode="&#x412;" horiz-adv-x="463" 
d="M307 610h-105l-47 -240h110q69 0 111 43t42 108q0 89 -111 89zM93 52h129q81 0 122 47t41 115q0 47 -29 76t-82 29h-129zM167 662h154q156 0 156 -137q0 -55 -28.5 -103t-87.5 -73l1 -2q83 -29 83 -135q0 -97 -61 -155q-62 -57 -146 -57h-195q-9 0 -12.5 3t-1.5 9
l124 638q1 12 14 12z" />
    <glyph glyph-name="afii10020" unicode="&#x413;" horiz-adv-x="386" 
d="M459 610h-253l-116 -598q-3 -12 -12 -12h-34q-13 0 -10 12l124 639q3 12 14 12h298q11 0 9 -11l-6 -31q-3 -11 -14 -11z" />
    <glyph glyph-name="afii10021" unicode="&#x414;" horiz-adv-x="548" 
d="M442 0h-403l-32 -130q-4 -19 -15 -19h-25q-13 0 -9 19l24 158q1 16 20 21l31 7q69 53 116 218l98 372q5 17 20 17h304q12 0 9 -12l-116 -598l38 -4q13 -1 10 -20l-38 -159q-4 -19 -15 -19h-27q-12 0 -10 18zM101 52h307l108 558h-223q-11 -36 -33 -126l-36 -140
q-10 -36 -35 -117q-40 -127 -88 -175z" />
    <glyph glyph-name="afii10022" unicode="&#x415;" horiz-adv-x="418" 
d="M384 41l-6 -31q-1 -10 -13 -10h-325q-12 0 -9 10l124 641q3 12 13 12h289q12 0 9 -11l-5 -31q-3 -11 -14 -11h-243l-46 -234h228q10 0 9 -10l-6 -29q-1 -12 -13 -12h-227l-54 -273h280q12 0 9 -11z" />
    <glyph glyph-name="afii10024" unicode="&#x416;" horiz-adv-x="705" 
d="M202 343l1 4q-50 22 -64 117q-5 35 -6 58l-3 64q0 10 -0.5 23t-1 21.5t-0.5 13.5q-1 6 0 10q2 8 15 8h23q16 0 16 -15l16 -187q7 -94 100 -94h68l55 284q3 13 15 13h32q12 0 9 -13l-55 -284h67q94 0 137 94l88 187q8 15 22 15h23q17 0 9 -18l-81 -176q-47 -102 -110 -121
l-1 -4q62 -18 68 -100l13 -225q0 -8 -1 -10q-2 -8 -14 -8h-28q-15 0 -16 13l-11 204q-3 55 -27.5 76t-75.5 21h-72l-59 -302q-3 -12 -13 -12h-32q-14 0 -11 12l59 302h-73q-51 0 -83.5 -21t-56.5 -76l-91 -204q-6 -13 -21 -13h-27q-7 0 -10.5 2t-2.5 6l4 10l101 225
q37 81 106 100z" />
    <glyph glyph-name="afii10025" unicode="&#x417;" horiz-adv-x="430" 
d="M194 377q94 9 140 44.5t46 103.5q0 59 -40 77q-31 15 -78 15q-15 0 -135 -14q-12 -1 -12 10v17q0 12 12 16q71 27 153 27q162 0 162 -136q0 -66 -36.5 -114t-99.5 -66h1l-2 -3q90 -24 90 -127q0 -115 -72 -175t-176 -60q-39 0 -85 7q-51 8 -76 18q-8 3 -4 16l7 17
q6 11 20 9q81 -13 146 -13q82 0 130 47t48 133q0 52 -35 75t-114 25q-8 0 -10 2t-1 9l5 27q3 12 16 13z" />
    <glyph glyph-name="afii10026" unicode="&#x418;" horiz-adv-x="531" 
d="M32 11l124 639q3 13 13 13h33q12 0 9 -13l-106 -542h3l403 544q11 11 19 11h33q11 0 9 -11l-123 -640q-3 -12 -15 -12h-31q-12 0 -9 12l106 545h-3l-133 -182l-271 -364q-11 -11 -19 -11h-33q-12 0 -9 11z" />
    <glyph glyph-name="afii10027" unicode="&#x419;" horiz-adv-x="528" 
d="M32 11l124 639q3 13 13 13h33q12 0 9 -13l-106 -542h3l403 544q11 11 19 11h33q11 0 9 -11l-123 -640q-3 -12 -15 -12h-31q-12 0 -9 12l106 545h-3l-133 -182l-271 -364q-11 -11 -19 -11h-33q-12 0 -9 11zM373 699q-38 0 -66.5 22t-39.5 62q-6 14 4 21l15 11q11 10 16 -3
q19 -37 34.5 -51.5t41.5 -14.5q23 0 43.5 15t54.5 52q9 11 17 3l11 -10q7 -5 -1 -19q-26 -42 -61 -65t-69 -23z" />
    <glyph glyph-name="afii10028" unicode="&#x41a;" horiz-adv-x="459" 
d="M332 347l-1 -4q63 -20 69 -118l12 -207q1 -10 -2 -14t-13 -4h-24q-16 0 -16 13l-12 204q-3 55 -26.5 76t-74.5 21h-100l-58 -302q-3 -12 -13 -12h-33q-13 0 -10 12l124 638q3 13 14 13h33q12 0 9 -13l-56 -284h91q92 0 137 94l87 187q7 15 21 15h24q20 0 9 -18l-87 -186
q-40 -91 -104 -111z" />
    <glyph glyph-name="afii10029" unicode="&#x41b;" horiz-adv-x="497" 
d="M246 663h282q14 0 11 -13l-124 -638q-1 -12 -15 -12h-28q-8 0 -11 2.5t-2 9.5l116 598h-199l-74 -301q-40 -154 -65 -208q-49 -102 -139 -109h-13q-10 0 -12.5 2.5t-0.5 10.5l5 22q1 9 16 12q51 14 78 52q27 41 51 130l108 429q3 13 16 13z" />
    <glyph glyph-name="afii10030" unicode="&#x41c;" horiz-adv-x="622" 
d="M319 186h3l95 163l185 303q9 11 21 11h31q14 0 11 -12l-124 -639q-3 -12 -15 -12h-30q-15 0 -12 12q9 42 55 289q14 70 23.5 123t14 76.5t3.5 23.5l-48 -84l-195 -321q-9 -11 -19 -11h-24q-11 0 -14 9l-76 334q-3 13 -14 71h-2l-99 -510q-3 -12 -14 -12h-31q-14 0 -11 12
l124 640q3 11 13 11h32q12 0 15 -11l76 -342q1 -4 3.5 -16t5 -24.5t4.5 -24.5q11 -53 13 -59z" />
    <glyph glyph-name="afii10031" unicode="&#x41d;" horiz-adv-x="499" 
d="M539 651l-122 -640q-2 -11 -12 -11h-33q-13 0 -11 11l60 314h-273l-62 -314q-2 -11 -12 -11h-34q-11 0 -9 11l125 640q3 12 13 12h34q11 0 8 -12l-53 -274h273l52 274q3 12 14 12h33q12 0 9 -12z" />
    <glyph glyph-name="afii10032" unicode="&#x41e;" horiz-adv-x="537" 
d="M363 671q94 0 135 -46t41 -137q0 -48 -17 -147q-7 -40 -15 -73q-16 -83 -44 -137q-73 -140 -225 -140q-172 0 -172 187q0 61 20 167q19 101 51 173q68 148 226 153zM355 619q-87 0 -135.5 -69.5t-77.5 -218.5q-17 -94 -17 -145q0 -75 25.5 -109t92.5 -34q90 0 140 69
t80 219q17 85 17 145q0 75 -28 109t-97 34z" />
    <glyph glyph-name="afii10033" unicode="&#x41f;" horiz-adv-x="508" 
d="M551 650l-124 -639q-2 -11 -16 -11h-27q-9 0 -12 2.5t-2 8.5l116 598h-282l-116 -598q-2 -11 -15 -11h-30q-13 0 -11 11l124 639q3 13 14 13h370q14 0 11 -13z" />
    <glyph glyph-name="afii10034" unicode="&#x420;" horiz-adv-x="427" 
d="M202 610l-55 -282h107q82 0 122 52t40 127q0 103 -117 103h-97zM167 663h147q76 0 117.5 -39t41.5 -113q0 -42 -12.5 -81.5t-37.5 -74.5t-70.5 -56t-104.5 -21h-111l-51 -266q-3 -12 -13 -12h-34q-13 0 -10 12l124 640q3 11 14 11z" />
    <glyph glyph-name="afii10035" unicode="&#x421;" horiz-adv-x="450" 
d="M367 669q90 0 146 -22q10 -4 6 -16l-7 -19q-4 -9 -16 -8q-81 10 -135 10q-81 0 -131 -60q-21 -26 -39 -66q-27 -63 -47 -164q-12 -57 -12 -122q0 -154 125 -154q63 0 149 9q13 1 13 -9v-18q0 -11 -10 -15q-65 -24 -161 -24q-175 0 -175 205q0 60 13 134q22 121 61 201
q71 138 220 138z" />
    <glyph glyph-name="afii10036" unicode="&#x422;" horiz-adv-x="401" 
d="M472 610h-153l-117 -599q-2 -11 -12 -11h-34q-12 0 -10 11l116 599h-151q-12 0 -10 11l6 31q3 11 14 11h361q12 0 9 -11l-6 -31q-2 -11 -13 -11z" />
    <glyph glyph-name="afii10037" unicode="&#x423;" horiz-adv-x="437" 
d="M235 229h6l45 91q10 21 49 95l124 233q7 15 20 15h34q14 0 8 -11l-268 -506q-52 -92 -80 -122q-31 -33 -81 -33q-32 0 -52 7q-13 3 -9 16l8 19q4 12 19 11q44 -6 67.5 9.5t53.5 66.5l18 31q-10 66 -39 241q-17 108 -40 261q0 9 12 9h35q11 0 13 -9l35 -241
q19 -137 22 -183z" />
    <glyph glyph-name="afii10038" unicode="&#x424;" horiz-adv-x="632" 
d="M376 594l11 57q3 12 14 12h33q13 0 10 -12l-10 -57q99 -6 147.5 -62t48.5 -146q0 -122 -78 -211q-77 -87 -220 -98l-12 -66q-2 -11 -14 -11h-33q-12 0 -10 11l12 66q-102 6 -153.5 58.5t-51.5 139.5q0 57 17.5 109.5t53 98t96 75.5t139.5 36zM285 127l81 417
q-120 -9 -181 -85q-60 -77 -60 -182q0 -141 160 -150zM424 544l-81 -418q109 8 171 81q61 73 61 180q0 147 -151 157z" />
    <glyph glyph-name="afii10039" unicode="&#x425;" horiz-adv-x="436" 
d="M339 10l-85 277l-195 -277q-6 -10 -16 -10h-44q-12 0 -5 10l237 333l-99 309q-5 11 7 11h39q12 0 13 -10l79 -254l176 254q6 9 18 9h44q5 1 6 -2.5t-2 -7.5l-221 -309l109 -333q3 -10 -7 -10h-40q-10 0 -14 10z" />
    <glyph glyph-name="afii10040" unicode="&#x426;" horiz-adv-x="507" 
d="M379 -129l21 129h-357q-11 0 -10 12l124 639q3 12 14 12h34q12 0 9 -12l-116 -599h273l116 599q3 12 14 12h34q11 0 8 -12l-116 -597l30 -3q13 -1 11 -20l-41 -160q-5 -18 -15 -18h-24q-13 0 -9 18z" />
    <glyph glyph-name="afii10041" unicode="&#x427;" horiz-adv-x="466" 
d="M130 464l36 186q3 13 16 13h29q15 0 12 -13l-35 -177q-14 -73 7 -107t79 -34q76 0 154 27l56 292q2 12 16 12h30q15 0 12 -12l-124 -638q-3 -13 -17 -13h-29q-15 0 -12 12l57 294q-78 -29 -164 -29q-160 0 -123 187z" />
    <glyph glyph-name="afii10042" unicode="&#x428;" horiz-adv-x="713" 
d="M753 652l-124 -640q-3 -12 -13 -12h-572q-12 0 -9 12l124 640q2 11 13 11h35q10 0 8 -11l-116 -599h213l116 598q3 12 14 12h34q12 0 9 -12l-116 -598h212l116 599q2 11 15 11h32q11 0 9 -11z" />
    <glyph glyph-name="afii10043" unicode="&#x429;" horiz-adv-x="717" 
d="M486 651l-116 -599h211l116 600q2 11 14 11h33q10 0 8 -11l-116 -598l31 -3q12 -1 11 -20l-41 -160q-5 -18 -15 -18h-25q-12 0 -8 18l21 129h-566q-12 0 -9 12l124 640q2 11 13 11h35q10 0 8 -11l-116 -599h214l116 598q3 12 14 12h34q12 0 9 -12z" />
    <glyph glyph-name="afii10044" unicode="&#x42a;" horiz-adv-x="570" 
d="M400 333h-124l-55 -282h111q79 0 124 47.5t45 136.5q0 98 -101 98zM337 650l-52 -267h119q78 0 115.5 -38t37.5 -104q0 -116 -64 -179q-64 -62 -162 -62h-164q-14 0 -11 11l116 599h-166q-14 0 -11 12l6 29q2 11 14 11h212q13 0 10 -12z" />
    <glyph glyph-name="afii10045" unicode="&#x42b;" horiz-adv-x="607" 
d="M218 650l-52 -267h119q78 0 115.5 -38t37.5 -104q0 -116 -64 -179q-65 -62 -163 -62h-164q-13 0 -10 11l124 639q3 12 14 12h34q12 0 9 -12zM280 333h-124l-55 -282h112q78 0 123.5 47.5t45.5 136.5q0 98 -102 98zM647 651l-124 -640q-2 -11 -15 -11h-31q-13 0 -11 11
l124 640q3 12 15 12h31q14 0 11 -12z" />
    <glyph glyph-name="afii10046" unicode="&#x42c;" horiz-adv-x="441" 
d="M213 650l-52 -267h119q78 0 115.5 -38t37.5 -104q0 -116 -64 -179q-65 -62 -163 -62h-164q-13 0 -10 11l124 639q3 12 14 12h34q12 0 9 -12zM275 333h-124l-55 -282h112q78 0 123.5 47.5t45.5 136.5q0 98 -102 98z" />
    <glyph glyph-name="afii10047" unicode="&#x42d;" horiz-adv-x="452" 
d="M298 671q87 0 125.5 -46.5t38.5 -138.5q0 -59 -15 -148q-24 -147 -83 -240q-68 -107 -206 -107q-100 0 -154 23q-11 5 -6 16l6 17q3 12 19 9q74 -11 139 -11q174 0 223 283h-224q-12 0 -9 12l5 27q2 11 14 11h223q8 63 10 120q1 56 -29.5 88t-91.5 32q-41 0 -135 -11
q-9 -1 -13 1t-3 7v17q1 11 12 16q64 23 154 23z" />
    <glyph glyph-name="afii10048" unicode="&#x42e;" horiz-adv-x="701" 
d="M530 620q-84 0 -131 -69.5t-76 -219.5q-17 -88 -17 -148q0 -72 25 -106t86 -34q92 0 140 71q47 71 76 217q18 103 18 150q0 71 -28.5 105t-92.5 34zM213 650l-53 -272h114q21 96 53 159q64 131 208 135q92 0 131.5 -47t39.5 -138q0 -50 -15 -146q-18 -110 -53 -192
q-21 -50 -50 -82q-29 -34 -76 -55t-102 -21q-164 0 -164 182q0 69 18 152h-114l-61 -313q-1 -12 -14 -12h-31q-14 0 -11 12l124 638q3 13 15 13h31q10 0 10 -13z" />
    <glyph glyph-name="afii10049" unicode="&#x42f;" horiz-adv-x="457" 
d="M180 313q0 1 0.5 2t0.5 2q-68 32 -68 124q0 58 20 102.5t53 69.5t69.5 37.5t74.5 12.5h156q13 0 10 -13l-117 -638q-3 -12 -15 -12h-32q-10 0 -10 12l54 280h-80q-56 0 -91 -18q-34 -16 -61 -78l-80 -183q-6 -13 -21 -13h-32q-17 0 -9 18l90 203q35 77 88 92zM289 343h97
l49 267h-103q-28 0 -54 -8.5t-51 -26.5t-40.5 -54t-15.5 -84q0 -94 118 -94z" />
    <glyph glyph-name="afii10065" unicode="&#x430;" horiz-adv-x="431" 
d="M387 465l3 14q2 8 16 8h24q9 0 9 -10v-2l-89 -465q-1 -10 -12 -10h-31q-12 0 -9 11l7 38l-1 1q-94 -58 -167 -58q-53 0 -77.5 29.5t-24.5 90.5q0 46 14 124q27 142 73 199q47 59 140 59q69 0 125 -29zM314 99l60 317q-59 28 -123 28q-57 0 -90 -47.5t-56 -162.5
q-14 -73 -14 -108q0 -45 15.5 -63.5t48.5 -18.5q29 0 79 18q53 21 80 37z" />
    <glyph glyph-name="afii10066" unicode="&#x431;" horiz-adv-x="420" 
d="M165 464l2 -1q66 28 126 28q78 0 106 -54q12 -23 15 -57q4 -52 -8 -133q-44 -255 -232 -255q-58 0 -86 23t-41 66q-8 23 -6 56q4 52 15 115q24 122 57 217q27 79 69 129q42 48 114 71q59 19 146 38q14 3 15 -9l2 -20q0 -13 -14 -18q-37 -8 -111 -28q-70 -20 -108.5 -59.5
t-60.5 -108.5zM279 441q-64 0 -129 -31q-15 -46 -42 -175q-9 -55 -11.5 -98t19 -70t68.5 -27q131 0 163 195q7 40 8 53q9 62 2 91q-7 31 -24.5 46.5t-53.5 15.5z" />
    <glyph glyph-name="afii10067" unicode="&#x432;" horiz-adv-x="410" 
d="M195 -8q-95 0 -143 17q-32 12 -26 37l51 269q16 87 67.5 134.5t130.5 47.5q60 0 94.5 -28t34.5 -79q0 -35 -21 -66.5t-56 -45.5q34 -12 52 -40.5t18 -59.5q0 -16 -3.5 -36t-16.5 -48t-33.5 -49.5t-59.5 -37t-89 -15.5zM200 41q72 0 106 40q35 41 35 93q0 36 -20.5 56.5
t-63.5 20.5h-46q-10 0 -13 2.5t-2 10.5l3 17q1 6 2 8.5t4 4.5t9 2q59 0 95.5 23t36.5 65q0 30 -20 46.5t-57 16.5q-56 0 -91.5 -38.5t-48.5 -106.5q-16 -89 -28 -151t-15.5 -78t-3.5 -18l-1 -1q61 -13 119 -13z" />
    <glyph glyph-name="afii10068" unicode="&#x433;" horiz-adv-x="342" 
d="M232 498q131 0 131 -101q0 -71 -42.5 -108.5t-137.5 -60.5q-58 -15 -85.5 -44.5t-27.5 -86.5q0 -30 21.5 -42.5t72.5 -12.5q28 0 125 11q16 3 16 -9v-17q0 -9 -11 -15q-52 -20 -138 -20q-143 0 -143 96q0 75 36 120q15 19 40 34q40 23 100 39q63 17 89.5 41.5t26.5 66.5
q0 30 -19.5 44t-63.5 14q-47 0 -118 -11q-16 -1 -16 9l1 17q0 9 11 15q56 21 132 21z" />
    <glyph glyph-name="afii10069" unicode="&#x434;" horiz-adv-x="443" 
d="M249 426q-38 0 -69 -27.5t-48 -70t-26 -88t-9 -87.5q0 -56 22.5 -83.5t77.5 -27.5q141 0 185 339q-55 45 -133 45zM445 501q0 -83 -15 -166q-25 -144 -71 -235q-56 -107 -168 -107q-84 0 -117.5 40t-33.5 125q0 74 23 148q22 73 69.5 121t122.5 49q73 0 134 -39
q3 26 3 56q0 84 -29.5 124t-100.5 40q-18 0 -76 -5q-14 -2 -14 10v17q0 12 13 16q31 12 93 12q85 0 126 -50.5t41 -155.5z" />
    <glyph glyph-name="afii10070" unicode="&#x435;" horiz-adv-x="398" 
d="M409 383q0 -46 -21 -83.5t-56 -59.5q-30 -19 -76 -33q-74 -21 -155 -23q-5 -33 -5 -59q0 -44 21 -62.5t67 -18.5q49 0 142 11q13 1 13 -10v-15q0 -11 -8 -14q-59 -24 -156 -24q-71 0 -104 31t-33 104q0 24 13 108q39 261 231 261q56 0 91.5 -31t35.5 -82zM354 371
q0 38 -23 57.5t-60 19.5q-118 0 -155 -169l-9 -48q66 0 150 25q44 15 70.5 44.5t26.5 70.5z" />
    <glyph glyph-name="afii10072" unicode="&#x436;" horiz-adv-x="725" 
d="M304 13l73 334l-3 2q-95 -189 -136 -255q-32 -52 -73 -77t-104 -25q-51 0 -82 16q-6 4 -3 14l6 16q3 11 21 7q37 -6 65 -6q125 0 167 200q9 47 10 88q1 64 -18 92.5t-72 28.5q-27 0 -80 -6q-11 -2 -11 8l1 17q0 12 8 15q37 15 92 15q135 0 129 -164q-1 -29 -7 -66l3 -1
l110 207q5 11 20 11h15q11 0 10 -13l-70 -321l3 -1q91 172 129 236q36 59 73 85.5t99 26.5q47 0 88 -18q9 -4 6 -14l-6 -17q-3 -9 -18 -7q-43 7 -72 7q-123 0 -163 -201q-11 -53 -12 -100q-3 -107 93 -107q35 0 77 5q15 4 15 -9v-15q0 -11 -9 -15q-37 -14 -91 -14
q-71 0 -104 39t-30 110q2 33 7 76l-3 1l-107 -207q-6 -11 -19 -11h-19q-9 0 -8 13z" />
    <glyph glyph-name="afii10073" unicode="&#x437;" horiz-adv-x="352" 
d="M216 498q61 0 96 -27t35 -79q0 -44 -26.5 -81t-73.5 -49q71 -23 71 -93q0 -85 -54 -131t-145 -46q-34 0 -76 6q-40 6 -56 17q-7 4 -4 14l6 15q4 12 20 9q69 -11 113 -11q64 0 102 31.5t38 90.5q0 37 -29 53.5t-86 18.5q-13 0 -11 14l2 19q2 12 18 13q134 8 134 105
q0 60 -87 60q-32 0 -113 -9q-12 -2 -12 11v13q0 14 13 18q47 18 125 18z" />
    <glyph glyph-name="afii10074" unicode="&#x438;" horiz-adv-x="423" 
d="M135 -8q-63 0 -87 32q-9 12 -11 39q-1 38 11 98l61 315q2 11 13 11h32q11 0 9 -11l-60 -309q-16 -65 -4.5 -95.5t56.5 -30.5q48 0 159 57l73 378q2 11 15 11h29q12 0 10 -11l-90 -465q-2 -11 -14 -11h-29q-13 0 -11 11l7 39q-2 0 -3 1q-95 -59 -166 -59z" />
    <glyph glyph-name="afii10075" unicode="&#x439;" horiz-adv-x="420" 
d="M135 -8q-63 0 -87 32q-9 12 -11 39q-1 38 11 98l61 315q2 11 13 11h32q11 0 9 -11l-60 -309q-16 -65 -4.5 -95.5t56.5 -30.5q48 0 159 57l73 378q2 11 15 11h29q12 0 10 -11l-90 -465q-2 -11 -14 -11h-29q-13 0 -11 11l7 39q-2 0 -3 1q-95 -59 -166 -59zM288 547
q-38 0 -66.5 22t-39.5 62q-6 14 4 21l15 11q11 10 16 -3q19 -37 34.5 -51.5t41.5 -14.5q23 0 43.5 15t54.5 52q9 11 17 3l11 -10q7 -5 -1 -19q-26 -42 -61 -65t-69 -23z" />
    <glyph glyph-name="afii10076" unicode="&#x43a;" horiz-adv-x="371" 
d="M259 255v-2q30 -8 41.5 -31t15.5 -74l13 -132q0 -16 -13 -16h-26q-12 0 -14 12l-12 126q-4 52 -23.5 69t-64.5 17h-66l-41 -213q-2 -11 -12 -11h-33q-11 0 -9 11l90 465q2 11 13 11h33q10 0 8 -11l-39 -203h59q75 0 116 83l58 118q7 13 18 13h25q17 0 8 -16l-58 -117
q-40 -86 -87 -99z" />
    <glyph glyph-name="afii10077" unicode="&#x43b;" horiz-adv-x="433" 
d="M231 487h207q15 0 12 -13l-90 -461q-3 -13 -15 -13h-27q-15 0 -12 13l83 425h-166l-70 -270l-12 -42q-23 -63 -36 -78q-48 -61 -121 -56q-8 0 -10.5 2.5t-1.5 8.5l4 21q3 9 14 11q50 8 73 43q23 36 44 111l69 254q7 25 18.5 34.5t36.5 9.5z" />
    <glyph glyph-name="afii10078" unicode="&#x43c;" horiz-adv-x="499" 
d="M245 145h2q18 31 81 127l133 204q8 11 22 11h28q12 0 11 -13l-90 -461q-3 -13 -14 -13h-26q-16 0 -13 13l67 344h-3l-179 -270q-7 -10 -18 -10h-21q-12 0 -16 10l-70 270h-2l-67 -344q-3 -13 -16 -13h-26q-14 0 -11 13l90 461q1 13 14 13h24q15 0 16 -10l53 -203
q1 -1 13 -51q13 -49 18 -78z" />
    <glyph glyph-name="afii10079" unicode="&#x43d;" horiz-adv-x="423" 
d="M446 474l-90 -461q-3 -13 -17 -13h-23q-18 0 -15 13l43 221h-230l-43 -221q-3 -13 -17 -13h-25q-15 0 -12 13l90 461q3 13 16 13h25q16 0 13 -13l-38 -193h230l38 193q3 13 19 13h23q16 0 13 -13z" />
    <glyph glyph-name="afii10080" unicode="&#x43e;" horiz-adv-x="420" 
d="M270 497q144 0 144 -145q0 -42 -12 -100q-16 -86 -41 -143q-24 -56 -66.5 -85t-113.5 -32q-76 0 -109 35t-33 104q0 45 15 121q11 66 37 125q50 115 179 120zM263 447q-66 0 -100.5 -48t-54.5 -154q-13 -62 -13 -104q0 -51 21 -75.5t68 -24.5q69 0 104.5 48t56.5 156
q13 61 13 102q0 100 -95 100z" />
    <glyph glyph-name="afii10081" unicode="&#x43f;" horiz-adv-x="413" 
d="M319 496q56 0 80 -25q12 -11 17.5 -26t4 -41t-3 -38.5t-7.5 -51.5l-59 -303q-2 -11 -15 -11h-31q-12 0 -10 11l60 307q16 64 4.5 96t-57.5 32q-50 0 -161 -57l-73 -378q-2 -11 -15 -11h-30q-11 0 -9 11l90 464q3 12 13 12h30q13 0 11 -12l-8 -38q1 0 2 -1q102 60 167 60z
" />
    <glyph glyph-name="afii10082" unicode="&#x440;" horiz-adv-x="420" 
d="M79 16v-1q-3 -23 -19 -96q-5 -24 -11 -52.5t-6 -30.5q-3 -12 -15 -12h-30q-14 0 -9 12l124 639q3 12 13 12h31q13 0 10 -12l-7 -37l1 -1q94 58 166 58q53 0 76 -29t23 -92q0 -52 -12 -124q-22 -135 -72 -197t-142 -62q-67 0 -121 25zM151 388l-64 -324q67 -24 125 -24
q59 0 93 49.5t53 163.5q12 69 12 110q0 44 -14 62.5t-47 18.5q-31 0 -79 -19q-49 -20 -79 -37z" />
    <glyph glyph-name="afii10083" unicode="&#x441;" horiz-adv-x="350" 
d="M263 497q76 0 127 -22q8 -3 5 -14l-7 -17q-3 -8 -19 -7q-72 9 -111 9q-62 0 -95.5 -45t-53.5 -155q-12 -74 -12 -105q0 -54 21.5 -76.5t69.5 -22.5q62 0 123 10q14 2 14 -9l-1 -16q0 -10 -10 -14q-53 -22 -141 -22q-71 0 -102.5 34.5t-31.5 104.5q0 48 13 113
q19 115 59 178q48 76 152 76z" />
    <glyph glyph-name="afii10084" unicode="&#x442;" horiz-adv-x="679" 
d="M320 496q82 0 90 -68q107 68 179 68q60 0 80 -38q8 -14 10 -43q1 -38 -12 -109l-57 -295q-2 -11 -14 -11h-32q-11 0 -9 11l63 325q23 110 -47 110q-45 0 -161 -62q-1 -22 -8 -57l-10 -51l-50 -265q-2 -11 -14 -11h-32q-11 0 -9 11l63 325q23 110 -47 110q-43 0 -157 -57
l-73 -378q-2 -11 -14 -11h-32q-9 0 -7 11l90 464q3 12 11 12h32q11 0 10 -12l-8 -38q2 0 3 -1q102 60 162 60z" />
    <glyph glyph-name="afii10085" unicode="&#x443;" horiz-adv-x="388" 
d="M142 476l39 -394h6l84 170l113 225q6 10 16 10h35q10 0 4 -11l-325 -642q-4 -10 -17 -10h-30q-11 0 -6 11l80 160l-55 481q-2 11 8 11h36q12 0 12 -11z" />
    <glyph glyph-name="afii10086" unicode="&#x444;" horiz-adv-x="519" 
d="M299 496l30 154q1 12 15 12h26q11 0 11 -12l-30 -154q85 -4 121.5 -46t36.5 -123q0 -136 -68 -233q-68 -95 -187 -101l-32 -158q-2 -11 -13 -11h-28q-14 0 -11 12l31 157q-158 5 -158 169q0 45 8 89t27 88t47.5 77.5t73 55.5t100.5 24zM342 446l-79 -406q94 7 142 90
q49 82 49 187q0 125 -112 129zM211 40l79 406q-91 -3 -142 -83q-50 -80 -50 -200q2 -61 29 -91t84 -32z" />
    <glyph glyph-name="afii10087" unicode="&#x445;" horiz-adv-x="358" 
d="M405 475l-174 -226l92 -237q5 -12 -8 -12h-38q-12 0 -16 10l-69 191l-144 -191q-7 -10 -18 -10h-41q-11 0 -4 12l183 236l-84 227q-2 4 0.5 8t7.5 4h35q6 0 9 -3t5.5 -11t3.5 -10l61 -169l137 183q7 10 15 10h43q11 0 4 -12z" />
    <glyph glyph-name="afii10088" unicode="&#x446;" horiz-adv-x="432" 
d="M308 99l74 375q1 13 17 13h29q10 0 8 -14l-72 -367q-9 -46 16 -64q19 -15 23 -22t0 -24l-26 -113q-3 -14 -13 -14h-16q-8 0 -10.5 0.5t-5 3.5t-1.5 11l16 114q-30 16 -41 57q-30 -24 -80 -43q-51 -20 -92 -20q-54 0 -77 20.5t-23 62.5q0 29 11 89l62 312q2 11 14 11h31
q13 0 10 -11l-61 -309q-9 -50 -9 -67q0 -31 14.5 -45t47.5 -14q53 0 154 58z" />
    <glyph glyph-name="afii10089" unicode="&#x447;" horiz-adv-x="393" 
d="M63 356l23 120q2 11 15 11h30q12 0 10 -11l-22 -114q-17 -63 -5.5 -95.5t57.5 -32.5q54 0 154 55l36 187q2 11 16 11h28q12 0 10 -11l-90 -465q-2 -11 -14 -11h-28q-8 0 -10.5 2.5t-1.5 8.5l44 227q-88 -55 -162 -55q-55 0 -79 24.5t-21.5 63t10.5 85.5z" />
    <glyph glyph-name="afii10090" unicode="&#x448;" horiz-adv-x="674" 
d="M391 -9q-82 0 -90 68q-107 -68 -179 -68q-59 0 -81 37q-8 17 -9 44q-1 38 12 109l57 295q2 11 14 11h32q11 0 9 -11l-63 -325q-23 -110 47 -110q45 0 161 62q1 22 8 57l10 51l50 265q2 11 14 11h32q11 0 9 -11l-63 -325q-23 -110 47 -110q43 0 157 57l73 378q2 11 14 11
h32q9 0 7 -11l-90 -464q-3 -12 -11 -12h-32q-11 0 -10 12l8 38q-2 0 -3 1q-102 -60 -162 -60z" />
    <glyph glyph-name="afii10091" unicode="&#x449;" horiz-adv-x="683" 
d="M394 -9q-85 0 -93 68q-107 -68 -179 -68q-59 0 -81 37q-8 17 -9 44q-1 38 12 109l57 295q2 11 14 11h32q11 0 9 -11l-63 -325q-23 -110 47 -110q45 0 161 62q1 22 8 57l60 316q2 11 14 11h32q11 0 9 -11l-63 -325q-24 -110 47 -110q43 0 157 57l72 375q1 13 17 13h29
q10 0 8 -14l-72 -367q-9 -46 16 -64q19 -15 23 -22t0 -24l-26 -113q-3 -14 -13 -14h-16q-8 0 -10.5 0.5t-5 3.5t-1.5 11l16 114q-30 16 -41 57q-28 -22 -79 -43q-52 -20 -88 -20z" />
    <glyph glyph-name="afii10092" unicode="&#x44a;" horiz-adv-x="479" 
d="M196 253l-23 -116l-16 -82q60 -11 108 -11q64 0 102 43t38 109q0 46 -19 66.5t-63 20.5q-41 0 -127 -30zM57 488h167q16 0 13 -13l-32 -171q83 30 128 30q130 0 130 -127q0 -90 -52 -152q-51 -63 -154 -63t-141 20q-21 10 -16 34l76 392h-127q-9 0 -12.5 3t-1.5 10l5 24
q3 13 17 13z" />
    <glyph glyph-name="afii10093" unicode="&#x44b;" horiz-adv-x="531" 
d="M180 -8q-94 0 -134 17q-28 10 -23 37l83 430q1 8 4.5 9.5t14.5 1.5h24q15 0 15 -7q1 -2 0 -4l-36 -173q81 31 128 31q130 0 130 -127q0 -90 -52 -152q-52 -63 -154 -63zM121 253l-40 -198q60 -11 107 -11q65 0 102.5 43t37.5 109q0 46 -19 66.5t-63 20.5q-41 0 -125 -30z
M552 475l-90 -464q-2 -11 -12 -11h-31q-12 0 -10 11l90 464q1 12 14 12h31q11 0 8 -12z" />
    <glyph glyph-name="afii10094" unicode="&#x44c;" horiz-adv-x="400" 
d="M180 -8q-94 0 -134 17q-28 10 -23 37l83 430q1 8 4.5 9.5t14.5 1.5h24q15 0 15 -7q1 -2 0 -4l-36 -173q81 31 128 31q130 0 130 -127q0 -90 -52 -152q-52 -63 -154 -63zM121 253l-40 -198q60 -11 107 -11q65 0 102.5 43t37.5 109q0 46 -19 66.5t-63 20.5q-41 0 -125 -30z
" />
    <glyph glyph-name="afii10095" unicode="&#x44d;" horiz-adv-x="352" 
d="M126 -8q-81 0 -124 22q-10 4 -6 15l5 13q4 10 17 9q63 -10 111 -10q59 0 95 45.5t55 144.5h-177q-8 0 -10.5 2.5t-1.5 9.5l5 25q3 12 17 12h176q7 48 7 85.5t-21 60t-64 22.5q-20 0 -116 -11q-12 -1 -12 9l1 16q0 10 11 15q51 21 123 21q133 0 133 -136q0 -45 -11 -111
q-21 -133 -70 -196t-143 -63z" />
    <glyph glyph-name="afii10096" unicode="&#x44e;" horiz-adv-x="549" 
d="M159 475l-37 -193h86q19 85 56 142q48 73 145 73q72 0 103.5 -35.5t31.5 -103.5q0 -38 -11 -106l-11 -59q-17 -77 -42 -114q-59 -87 -162 -87q-131 0 -131 139q0 35 12 103h-87l-43 -223q-2 -11 -12 -11h-31q-12 0 -10 11l90 464q2 12 14 12h31q11 0 8 -12zM402 445
q-69 0 -102 -58q-27 -52 -44 -142q-24 -102 -10 -152t78 -50q67 0 100 47t52 155q13 77 13 111q0 46 -20 67.5t-67 21.5z" />
    <glyph glyph-name="afii10097" unicode="&#x44f;" horiz-adv-x="409" 
d="M137 224v2q-59 18 -59 91q0 86 51 128q52 42 128 42h161q6 0 10.5 -3t3.5 -10l-86 -460q-3 -14 -19 -14h-21q-15 0 -12 14l37 195h-109q-36 0 -60.5 -18.5t-45.5 -64.5l-54 -114q-4 -12 -18 -12h-32q-14 0 -7 16l40 92q41 95 92 116zM219 257h122q7 40 35 180h-123
q-53 0 -87 -30t-34 -86q0 -64 87 -64z" />
    <glyph glyph-name="uni0450" unicode="&#x450;" horiz-adv-x="398" 
d="M409 383q0 -46 -21 -83.5t-56 -59.5q-30 -19 -76 -33q-74 -21 -155 -23q-5 -33 -5 -59q0 -44 21 -62.5t67 -18.5q49 0 142 11q13 1 13 -10v-15q0 -11 -8 -14q-59 -24 -156 -24q-71 0 -104 31t-33 104q0 24 13 108q39 261 231 261q56 0 91.5 -31t35.5 -82zM354 371
q0 38 -23 57.5t-60 19.5q-118 0 -155 -169l-9 -48q66 0 150 25q44 15 70.5 44.5t26.5 70.5zM282 555l-74 119q-5 8 4 13l33 18q11 5 15 -3l57 -127q4 -7 -3 -11l-18 -11q-10 -4 -14 2z" />
    <glyph glyph-name="afii10071" unicode="&#x451;" horiz-adv-x="398" 
d="M409 383q0 -46 -21 -83.5t-56 -59.5q-30 -19 -76 -33q-74 -21 -155 -23q-5 -33 -5 -59q0 -44 21 -62.5t67 -18.5q49 0 142 11q13 1 13 -10v-15q0 -11 -8 -14q-59 -24 -156 -24q-71 0 -104 31t-33 104q0 24 13 108q39 261 231 261q56 0 91.5 -31t35.5 -82zM354 371
q0 38 -23 57.5t-60 19.5q-118 0 -155 -169l-9 -48q66 0 150 25q44 15 70.5 44.5t26.5 70.5zM379 648q26 0 26 -21q0 -48 -39 -48q-26 0 -26 20q0 49 39 49zM231 648q25 0 25 -20q0 -49 -38 -49q-26 0 -26 21q0 48 39 48z" />
    <glyph glyph-name="afii10099" unicode="&#x452;" horiz-adv-x="445" 
d="M153 376h1l-70 -364q-2 -12 -15 -12h-28q-11 0 -10 12l107 553h-50q-12 0 -10 11l4 22q3 12 16 12h49l16 81q3 12 13 12h29q13 0 11 -12l-16 -81h180q11 0 10 -11l-4 -23q-3 -11 -15 -11h-180l-27 -138q84 42 150 42q60 0 91.5 -36.5t31.5 -107.5q0 -67 -24 -141
q-22 -71 -82 -150q-59 -76 -142 -116q-14 -6 -19 2l-8 18q-4 10 5 15q94 55 153 155q60 99 60 209q0 101 -84 101q-53 0 -143 -42z" />
    <glyph glyph-name="afii10100" unicode="&#x453;" horiz-adv-x="342" 
d="M232 498q131 0 131 -101q0 -71 -42.5 -108.5t-137.5 -60.5q-58 -15 -85.5 -44.5t-27.5 -86.5q0 -30 21.5 -42.5t72.5 -12.5q28 0 125 11q16 3 16 -9v-17q0 -9 -11 -15q-52 -20 -138 -20q-143 0 -143 96q0 75 36 120q15 19 40 34q40 23 100 39q63 17 89.5 41.5t26.5 66.5
q0 30 -19.5 44t-63.5 14q-47 0 -118 -11q-16 -1 -16 9l1 17q0 9 11 15q56 21 132 21zM348 678l-100 -127q-6 -7 -13 -3l-15 10q-6 3 0 13l79 134q5 8 14 3l32 -16q9 -5 3 -14z" />
    <glyph glyph-name="afii10101" unicode="&#x454;" horiz-adv-x="356" 
d="M263 497q76 0 127 -22q8 -3 5 -14l-7 -17q-3 -8 -19 -7q-72 9 -111 9q-57 0 -89.5 -38t-52.5 -127h177q15 0 12 -12l-4 -23q-1 -12 -17 -12h-177q-10 -60 -10 -93q0 -54 21.5 -76.5t69.5 -22.5q62 0 123 10q14 2 14 -9l-1 -16q0 -10 -10 -14q-53 -22 -141 -22
q-71 0 -102.5 34.5t-31.5 104.5q0 48 13 113q19 115 59 178q48 76 152 76z" />
    <glyph glyph-name="afii10102" unicode="&#x455;" horiz-adv-x="355" 
d="M241 497q82 0 125 -22q8 -5 5 -14l-6 -17q-5 -10 -19 -8q-84 10 -109 10q-108 0 -108 -101q0 -27 21 -43t50.5 -24.5t59.5 -18.5t51 -34t21 -63q0 -168 -192 -170q-91 0 -130 21q-7 4 -4 15l6 16q4 10 18 9q96 -11 121 -11q125 0 125 108q0 30 -21 47.5t-50.5 26t-59 18
t-50.5 32.5t-21 61q0 81 44.5 121.5t122.5 40.5z" />
    <glyph glyph-name="afii10103" unicode="&#x456;" horiz-adv-x="179" 
d="M213 617q-5 -36 -40 -36q-19 0 -24 8.5t-2 27.5q7 34 40 34q19 0 24.5 -8t1.5 -26zM180 475l-90 -464q-2 -11 -13 -11h-30q-8 0 -10 2t-1 9l90 464q2 12 15 12h31q11 0 8 -12z" />
    <glyph glyph-name="afii10104" unicode="&#x457;" horiz-adv-x="194" 
d="M187 475l-90 -464q-2 -11 -13 -11h-30q-12 0 -10 11l90 464q2 12 14 12h31q11 0 8 -12zM268 645q26 0 26 -21q0 -48 -39 -48q-26 0 -26 20q0 49 39 49zM120 645q25 0 25 -20q0 -49 -38 -49q-26 0 -26 21q0 48 39 48z" />
    <glyph glyph-name="afii10105" unicode="&#x458;" horiz-adv-x="192" 
d="M192 476l-105 -540q-12 -60 -43 -95q-36 -44 -131 -42q-13 0 -11 12l2 17q2 11 17 14q61 10 82 30t30 68l104 536q2 11 14 11h30q13 0 11 -11zM223 617q-5 -36 -39 -36q-19 0 -24 8.5t-2 27.5q7 34 40 34q18 0 23.5 -8t1.5 -26z" />
    <glyph glyph-name="afii10106" unicode="&#x459;" horiz-adv-x="663" 
d="M231 487h177q13 0 12 -13l-33 -171q81 31 129 31q130 0 130 -127q0 -90 -52 -152q-52 -63 -154 -63q-99 0 -139 20q-23 11 -18 34l77 393q-38 0 -69 -1h-68l-70 -270q-17 -64 -34 -96q-18 -38 -50 -57.5t-84 -22.5q-7 0 -10 3t-2 8l3 21q3 9 15 11q39 6 67 34
q11 11 20 33q10 22 15 38q9 31 14 49l69 254q7 25 18.5 34.5t36.5 9.5zM379 253l-23 -116l-16 -82q60 -11 108 -11q64 0 102 43t38 109q0 46 -19 66.5t-63 20.5t-127 -30z" />
    <glyph glyph-name="afii10107" unicode="&#x45a;" horiz-adv-x="628" 
d="M406 -8q-110 0 -145 23q-17 11 -12 31l38 193h-174l-44 -226q-3 -13 -17 -13h-23q-14 0 -13 13l90 463q2 11 18 11h23q16 0 13 -14l-37 -186h173l37 186q3 14 18 14h24q4 0 7 -0.5t5 -3.5t1 -8l-34 -172q81 31 128 31q130 0 130 -127q0 -90 -52 -152q-52 -63 -154 -63z
M346 253l-40 -198q60 -11 108 -11q66 0 103 43t37 109q0 46 -19 66.5t-63 20.5t-126 -30z" />
    <glyph glyph-name="afii10108" unicode="&#x45b;" horiz-adv-x="420" 
d="M321 496q56 0 80 -25q15 -15 18.5 -43t1.5 -46.5t-10 -67.5l-59 -303q-2 -11 -14 -11h-32q-11 0 -9 11l59 307q16 69 4.5 98.5t-56.5 29.5q-51 0 -162 -57l-73 -378q-2 -11 -14 -11h-32q-9 0 -7 11l108 556h-45q-9 0 -8 9l5 24q3 10 13 10h43l16 82q2 11 11 11h32
q12 0 10 -11l-16 -82h176q8 0 7 -10l-5 -24q-3 -9 -11 -9h-176l-25 -130q2 0 3 -1q102 60 167 60z" />
    <glyph glyph-name="afii10109" unicode="&#x45c;" horiz-adv-x="371" 
d="M259 255v-2q30 -8 41.5 -31t15.5 -74l13 -132q0 -16 -13 -16h-26q-12 0 -14 12l-12 126q-4 52 -23.5 69t-64.5 17h-66l-41 -213q-2 -11 -12 -11h-33q-11 0 -9 11l90 465q2 11 13 11h33q10 0 8 -11l-39 -203h59q75 0 116 83l58 118q7 13 18 13h25q17 0 8 -16l-58 -117
q-40 -86 -87 -99zM358 678l-100 -127q-6 -7 -13 -3l-15 10q-6 3 0 13l79 134q5 8 14 3l32 -16q9 -5 3 -14z" />
    <glyph glyph-name="uni045D" unicode="&#x45d;" horiz-adv-x="420" 
d="M135 -8q-63 0 -87 32q-9 12 -11 39q-1 38 11 98l61 315q2 11 13 11h32q11 0 9 -11l-60 -309q-16 -65 -4.5 -95.5t56.5 -30.5q48 0 159 57l73 378q2 11 15 11h29q12 0 10 -11l-90 -465q-2 -11 -14 -11h-29q-13 0 -11 11l7 39q-2 0 -3 1q-95 -59 -166 -59zM280 555l-74 119
q-5 8 4 13l33 18q11 5 15 -3l57 -127q4 -7 -3 -11l-18 -11q-10 -4 -14 2z" />
    <glyph glyph-name="afii10110" unicode="&#x45e;" horiz-adv-x="388" 
d="M142 476l39 -394h6l84 170l113 225q6 10 16 10h35q10 0 4 -11l-325 -642q-4 -10 -17 -10h-30q-11 0 -6 11l80 160l-55 481q-2 11 8 11h36q12 0 12 -11zM271 568q-37 0 -64 22t-38 63q-4 14 5 22l16 11q10 8 15 -3q18 -36 35 -50.5t41 -14.5q23 0 43 14q16 11 56 51
q9 10 16 3l13 -10q5 -5 -1 -17q-23 -41 -60.5 -66t-76.5 -25z" />
    <glyph glyph-name="afii10193" unicode="&#x45f;" horiz-adv-x="420" 
d="M194 -176l15 129q0 7 12 9l34 2q5 0 8 -2t2 -6l-27 -132q-3 -16 -16 -16h-18q-13 0 -10 16zM135 -8q-63 0 -87 32q-9 12 -11 39q-1 38 11 98l61 315q2 11 13 11h32q11 0 9 -11l-60 -309q-16 -65 -4.5 -95.5t56.5 -30.5q48 0 159 57l73 378q2 11 15 11h29q12 0 10 -11
l-90 -465q-2 -11 -14 -11h-29q-13 0 -11 11l7 39q-2 0 -3 1q-95 -59 -166 -59z" />
    <glyph glyph-name="afii10050" unicode="&#x490;" horiz-adv-x="397" 
d="M508 782l-32 -159q-1 -13 -13 -13h-255l-116 -598q-3 -12 -12 -12h-35q-12 0 -9 12l124 639q3 12 13 12h259l35 116q4 16 14 16h19q12 0 8 -13z" />
    <glyph glyph-name="afii10098" unicode="&#x491;" horiz-adv-x="348" 
d="M423 596l-27 -142q-4 -15 -14 -15h-218l-83 -426q-3 -13 -16 -13h-25q-16 0 -13 13l90 461q3 13 16 13h220l33 106q4 13 13 13h18q7 0 6 -10z" />
    <glyph glyph-name="schwacyrillic" unicode="&#x4d9;" horiz-adv-x="392" 
d="M11 105q0 46 21 83.5t55 58.5q31 20 77 34q74 21 155 23q5 33 5 59q0 44 -21 62.5t-67 18.5q-49 0 -142 -11q-13 -1 -13 10v15q0 11 8 14q59 24 156 24q71 0 104 -31t33 -104q0 -24 -13 -108q-39 -261 -231 -261q-56 0 -91.5 31t-35.5 82zM66 117q0 -38 23 -57.5
t60 -19.5q118 0 155 169l9 48q-72 0 -150 -26q-44 -13 -70.5 -43t-26.5 -71z" />
    <glyph glyph-name="Wgrave" unicode="&#x1e80;" horiz-adv-x="687" 
d="M398 425h-4q-35 -91 -73 -178l-105 -237q-4 -10 -14 -10h-43q-10 0 -11 10l-38 642q1 10 10 10h37q11 0 11 -9l22 -395l7 -173h2q21 55 69 168l120 278l-7 121q0 10 9 10h38q11 0 11 -9l21 -410q4 -101 4 -168h3q31 84 73 180l171 398q5 9 16 9h36q11 0 5 -11l-282 -640
q-6 -11 -15 -11h-42q-12 0 -13 10l-12 235q-4 85 -6 180zM347 799l28 31q8 11 16 3l93 -90q4 -7 -1 -12l-15 -16q-7 -7 -13 -3l-107 75q-7 4 -1 12z" />
    <glyph glyph-name="wgrave" unicode="&#x1e81;" horiz-adv-x="578" 
d="M382 223l10 -135h5l178 389q6 10 15 10h35q4 0 6 -1.5t1 -3.5l-2 -6l-221 -467q-5 -9 -14 -9h-34q-13 0 -13 9q-16 164 -25 298h-3l-63 -135l-77 -163q-4 -9 -13 -9h-34q-12 0 -12 9l-42 467q-2 11 9 11h35q12 0 12 -11l19 -237q10 -117 11 -158h2l64 140l81 170l-6 85
q-2 11 8 11h37q9 0 11 -11zM359 555l-74 119q-5 8 4 13l33 18q10 5 15 -3l57 -127q4 -7 -3 -11l-18 -11q-10 -4 -14 2z" />
    <glyph glyph-name="Wacute" unicode="&#x1e82;" horiz-adv-x="687" 
d="M398 425h-4q-35 -91 -73 -178l-105 -237q-4 -10 -14 -10h-43q-10 0 -11 10l-38 642q1 10 10 10h37q11 0 11 -9l22 -395l7 -173h2q21 55 69 168l120 278l-7 121q0 10 9 10h38q11 0 11 -9l21 -410q4 -101 4 -168h3q31 84 73 180l171 398q5 9 16 9h36q11 0 5 -11l-282 -640
q-6 -11 -15 -11h-42q-12 0 -13 10l-12 235q-4 85 -6 180zM547 830l19 -30q5 -8 -6 -14l-134 -74q-9 -6 -13 3l-10 15q-4 7 4 12l125 90q11 8 15 -2z" />
    <glyph glyph-name="wacute" unicode="&#x1e83;" horiz-adv-x="578" 
d="M382 223l10 -135h5l178 389q6 10 15 10h35q4 0 6 -1.5t1 -3.5l-2 -6l-221 -467q-5 -9 -14 -9h-34q-13 0 -13 9q-16 164 -25 298h-3l-63 -135l-77 -163q-4 -9 -13 -9h-34q-12 0 -12 9l-42 467q-2 11 9 11h35q12 0 12 -11l19 -237q10 -117 11 -158h2l64 140l81 170l-6 85
q-2 11 8 11h37q9 0 11 -11zM459 678l-100 -127q-6 -7 -13 -3l-15 10q-6 3 0 13l79 134q5 8 14 3l32 -16q9 -5 3 -14z" />
    <glyph glyph-name="Wdieresis" unicode="&#x1e84;" horiz-adv-x="687" 
d="M398 425h-4q-35 -91 -73 -178l-105 -237q-4 -10 -14 -10h-43q-10 0 -11 10l-38 642q1 10 10 10h37q11 0 11 -9l22 -395l7 -173h2q21 55 69 168l120 278l-7 121q0 10 9 10h38q11 0 11 -9l21 -410q4 -101 4 -168h3q31 84 73 180l171 398q5 9 16 9h36q11 0 5 -11l-282 -640
q-6 -11 -15 -11h-42q-12 0 -13 10l-12 235q-4 85 -6 180zM527 798q26 0 26 -20q0 -48 -39 -48q-25 0 -25 19q0 49 38 49zM386 798q24 0 24 -19q0 -49 -38 -49q-26 0 -26 20q0 48 40 48z" />
    <glyph glyph-name="wdieresis" unicode="&#x1e85;" horiz-adv-x="578" 
d="M382 223l10 -135h5l178 389q6 10 15 10h35q4 0 6 -1.5t1 -3.5l-2 -6l-221 -467q-5 -9 -14 -9h-34q-13 0 -13 9q-16 164 -25 298h-3l-63 -135l-77 -163q-4 -9 -13 -9h-34q-12 0 -12 9l-42 467q-2 11 9 11h35q12 0 12 -11l19 -237q10 -117 11 -158h2l64 140l81 170l-6 85
q-2 11 8 11h37q9 0 11 -11zM454 645q26 0 26 -21q0 -48 -39 -48q-26 0 -26 20q0 49 39 49zM306 645q25 0 25 -20q0 -49 -38 -49q-26 0 -26 21q0 48 39 48z" />
    <glyph glyph-name="Ygrave" unicode="&#x1ef2;" horiz-adv-x="423" 
d="M250 352h5q36 64 83 132l111 169q7 9 17 9h41q9 0 5 -10l-241 -358l-55 -282q-3 -12 -12 -12h-33q-14 0 -11 12l55 282l-101 359q-4 9 9 9h39q10 0 11 -9l46 -168q21 -77 31 -133zM234 799l28 31q8 11 16 3l93 -90q4 -7 -1 -12l-15 -16q-7 -7 -13 -3l-107 75q-7 4 -1 12z
" />
    <glyph glyph-name="ygrave" unicode="&#x1ef3;" horiz-adv-x="388" 
d="M142 476l39 -394h6l84 170l113 225q6 10 16 10h35q10 0 4 -11l-325 -642q-4 -10 -17 -10h-30q-11 0 -6 11l80 160l-55 481q-2 11 8 11h36q12 0 12 -11zM270 555l-74 119q-5 8 4 13l33 18q11 5 15 -3l57 -127q4 -7 -3 -11l-18 -11q-10 -4 -14 2z" />
    <glyph glyph-name="uni2012" unicode="&#x2012;" horiz-adv-x="471" 
d="M459 265l-3 -24q-2 -9 -12 -9h-397q-11 0 -9 9l2 24q2 11 13 11h396q12 0 10 -11z" />
    <glyph glyph-name="endash" unicode="&#x2013;" horiz-adv-x="428" 
d="M428 265l-5 -24q-1 -9 -12 -9h-360q-11 0 -9 9l5 24q2 11 13 11h359q11 0 9 -11z" />
    <glyph glyph-name="emdash" unicode="&#x2014;" horiz-adv-x="685" 
d="M685 265l-4 -24q-3 -9 -12 -9h-614q-11 0 -9 9l5 24q2 11 13 11h613q11 0 8 -11z" />
    <glyph glyph-name="afii00208" unicode="&#x2015;" horiz-adv-x="688" 
d="M678 265l-2 -24q-2 -9 -12 -9h-617q-11 0 -9 9l2 24q2 11 13 11h616q11 0 9 -11z" />
    <glyph glyph-name="quoteleft" unicode="&#x2018;" horiz-adv-x="164" 
d="M199 662q9 6 14 1l8 -9q3 -4 -1 -8q-44 -35 -44 -91q0 -19 9 -39q5 -13 -5 -20l-39 -28q-11 -8 -17 0q-11 14 -11 49q0 34 15 64q14 28 28 43.5t43 37.5z" />
    <glyph glyph-name="quoteright" unicode="&#x2019;" horiz-adv-x="164" 
d="M128 473q-9 -6 -14 -1l-8 9q-4 3 1 8q44 35 44 91q0 20 -9 39q-5 13 5 20l39 28q11 8 17 0q11 -14 11 -49q0 -34 -15 -65q-14 -27 -28 -42.5t-43 -37.5z" />
    <glyph glyph-name="quotesinglbase" unicode="&#x201a;" horiz-adv-x="156" 
d="M8 -126q-10 -7 -14 -2l-7 11q-4 4 5 11q39 39 39 87q0 24 -8 45q-5 9 5 16l38 26q12 9 19 -1q11 -14 11 -40q0 -89 -88 -153z" />
    <glyph glyph-name="quotereversed" unicode="&#x201b;" horiz-adv-x="164" 
d="M226 613q-40 -35 -47 -78q-6 -25 4 -53q3 -4 -3 -8l-14 -10q-8 -6 -12 4q-25 53 -14 110q14 67 51 89q15 8 22 -5l17 -32q4 -10 -4 -17z" />
    <glyph glyph-name="quotedblleft" unicode="&#x201c;" horiz-adv-x="236" 
d="M189 663q9 6 14 1l8 -9q3 -3 -1 -8q-44 -35 -44 -91q0 -20 9 -39q5 -13 -5 -20l-39 -28q-11 -8 -17 0q-11 14 -11 49q0 34 15 64q14 28 28 43.5t43 37.5zM285 663q9 6 14 1l8 -9q3 -3 -1 -8q-44 -35 -44 -91q0 -20 9 -39q5 -13 -5 -20l-39 -28q-11 -8 -17 0
q-11 14 -11 49q0 34 15 64q14 28 28 43.5t43 37.5z" />
    <glyph glyph-name="quotedblright" unicode="&#x201d;" horiz-adv-x="236" 
d="M218 474q-9 -6 -14 -1l-8 9q-4 4 1 8q44 35 44 91q0 19 -9 39q-5 13 5 20l39 28q11 8 17 0q11 -14 11 -49q0 -33 -15 -65q-14 -27 -28 -42.5t-43 -37.5zM122 474q-9 -6 -14 -1l-8 9q-4 4 1 8q44 35 44 91q0 19 -9 39q-5 13 5 20l39 28q11 8 17 0q11 -14 11 -49
q0 -33 -15 -65q-14 -27 -28 -42.5t-43 -37.5z" />
    <glyph glyph-name="quotedblbase" unicode="&#x201e;" horiz-adv-x="247" 
d="M8 -126q-10 -7 -14 -2l-7 11q-4 4 5 11q39 39 39 87q0 24 -8 45q-5 9 5 16l38 26q12 9 19 -1q11 -14 11 -40q0 -89 -88 -153zM101 -126q-10 -7 -14 -2l-7 11q-4 4 5 11q39 39 39 87q0 24 -8 45q-5 9 5 16l38 26q12 9 19 -1q11 -14 11 -40q0 -89 -88 -153z" />
    <glyph glyph-name="uni201F" unicode="&#x201f;" horiz-adv-x="249" 
d="M223 613q-40 -33 -47 -78q-6 -28 4 -53q3 -4 -3 -8l-14 -10q-8 -6 -12 4q-26 52 -14 110q14 67 51 89q14 9 22 -5l16 -32q5 -9 -3 -17zM315 613q-40 -35 -47 -78q-6 -24 5 -53q1 -3 -4 -8l-14 -10q-8 -6 -12 4q-25 53 -14 110q12 65 51 89q15 8 22 -5l17 -32
q4 -10 -4 -17z" />
    <glyph glyph-name="dagger" unicode="&#x2020;" horiz-adv-x="405" 
d="M451 475l-6 -28q-2 -11 -14 -11h-146l-92 -473q-2 -11 -14 -11h-28q-7 0 -10 2.5t-2 8.5l92 473h-146q-7 0 -9 2t-1 9l6 28q1 10 14 10h146l37 194q3 12 17 12h28q12 0 9 -12l-37 -194h146q11 0 10 -10z" />
    <glyph glyph-name="daggerdbl" unicode="&#x2021;" horiz-adv-x="405" 
d="M396 197l-6 -28q-2 -11 -14 -11h-145l-38 -196q-3 -10 -14 -10h-29q-11 0 -11 9l38 197h-147q-12 0 -10 11l6 28q2 11 15 11h146l44 228h-146q-7 0 -9 2t-1 9l6 28q1 10 14 10h146l38 197q1 10 14 10h29q13 0 10 -10h-1q2 -2 1 -3l-37 -194h145q11 0 10 -10l-6 -28
q-2 -11 -14 -11h-145l-44 -228h144q13 0 11 -11z" />
    <glyph glyph-name="bullet" unicode="&#x2022;" horiz-adv-x="233" 
d="M139 177q-31 0 -53.5 22t-22.5 53t22.5 53.5t53.5 22.5q30 0 52.5 -22.5t22.5 -53.5t-22.5 -53t-52.5 -22z" />
    <glyph glyph-name="trianglebullet" unicode="&#x2023;" horiz-adv-x="440" 
d="M102 63v417l347 -203z" />
    <glyph glyph-name="ellipsis" unicode="&#x2026;" horiz-adv-x="470" 
d="M386 70q30 0 30 -24q0 -55 -45 -55q-29 0 -29 24q0 55 44 55zM217 70q28 0 28 -24q0 -55 -43 -55q-30 0 -30 24q0 55 45 55zM49 70q30 0 30 -23q0 -56 -45 -56q-29 0 -29 25q0 54 44 54z" />
    </font>
</defs>
</svg>
