<?xml version="1.0" standalone="no"?>
<!DOCTYPE svg PUBLIC "-//W3C//DTD SVG 1.1//EN" "http://www.w3.org/Graphics/SVG/1.1/DTD/svg11.dtd" >
<svg xmlns="http://www.w3.org/2000/svg" xmlns:xlink="http://www.w3.org/1999/xlink" version="1.1">
<metadata>
Created by FontForge 20161013 at Fri Feb 21 21:38:30 2014
 By ,,,
Copyright (c) 2013 Parachute, www.parachute.gr.  All rights reserved.
</metadata>
<defs>
<font id="PFSquareSansCondPro-Light" horiz-adv-x="472" >
  <font-face 
    font-family="PF Square Sans Cond Pro"
    font-weight="300"
    font-stretch="normal"
    units-per-em="1000"
    panose-1="2 11 5 6 0 0 0 2 0 4"
    ascent="800"
    descent="-200"
    x-height="487"
    cap-height="663"
    bbox="-118 -242.4 947 871.882"
    underline-thickness="40"
    underline-position="-180"
    unicode-range="U+0020-FB05"
  />
<missing-glyph horiz-adv-x="379" 
d="M379 0h-379v700h379v-700zM342 620l-129 -270l129 -270v540zM166 350l-129 269v-538zM62 660l127 -270l128 270h-255zM189 309l-127 -269h255z" />
    <glyph glyph-name="fj" unicode="fj" horiz-adv-x="410" 
d="M224 706q68 0 119 -23q9 -5 8 -14l-1 -8q0 -2 -0.5 -4t-1.5 -3v-2q-2 -9 -15 -8q-64 10 -109 10t-66 -25t-22 -81v-61h211q14 0 14 -12v-539q0 -60 -25 -95q-29 -44 -122 -42q-14 0 -15 12v17q-2 12 14 14q60 11 76 30q17 20 17 68v503h-170v-432q0 -11 -13 -11h-27
q-15 0 -15 11v432h-43q-12 0 -12 11v21q0 7 2.5 9.5t10.5 2.5h42v64q0 155 143 155z" />
    <glyph glyph-name="ffj" unicode="ffj" horiz-adv-x="634" 
d="M449 719q71 0 119 -22q10 -5 9 -15l-3 -17q-3 -10 -17 -8q-64 10 -108 10q-45 0 -66.5 -25t-21.5 -81v-74h210q14 0 14 -12v-539q0 -30 -5.5 -52t-20.5 -43t-46 -32t-77 -10q-13 0 -14 13v16q-2 12 14 14q59 11 76 31q18 19 18 67v502h-169v-431q0 -11 -13 -11h-27
q-14 0 -14 11v431h-171v-431q0 -11 -13 -11h-27q-15 0 -15 11v431h-43q-12 0 -12 12v21q0 7 2.5 9.5t10.5 2.5h42v60q0 155 146 155q72 0 117 -19q38 36 105 36zM227 651q-46 0 -68 -25t-23 -82v-57h171v77q0 49 14 79q-58 8 -94 8z" />
    <glyph glyph-name="ff" unicode="ff" horiz-adv-x="515" 
d="M429 718q53 0 97 -18q14 -8 11 -16l-4 -17q-3 -10 -17 -9q-42 9 -77 9q-42 0 -62 -22.5t-20 -70.5v-87h112q14 0 14 -11v-23q0 -11 -14 -11h-112v-430q0 -12 -13 -12h-27q-15 0 -15 12v430h-166v-430q0 -12 -13 -12h-27q-15 0 -15 12v430h-42q-13 0 -13 11v22q0 12 14 12
h41v60q0 155 146 155q61 0 109 -18q31 34 93 34zM227 650q-46 0 -68 -25t-23 -81v-57h166v89q0 39 11 66q-46 8 -86 8z" />
    <glyph glyph-name="fi" unicode="fi" horiz-adv-x="410" 
d="M224 705q72 0 120 -22q11 -5 8 -14v-1q-1 -2 -1.5 -4t-0.5 -4l-1 -8q-3 -9 -16 -8q-63 10 -109 10q-45 0 -66 -25t-22 -81v-61h212q13 0 13 -12v-464q0 -11 -12 -11h-28q-14 0 -14 11v431h-171v-431q0 -11 -13 -11h-27q-15 0 -15 11v431h-43q-12 0 -12 11v21q0 13 13 13
h42v64q0 154 143 154z" />
    <glyph glyph-name="fl" unicode="fl" horiz-adv-x="403" 
d="M219 706q51 0 98 -14l25 8q15 4 15 -11v-677q0 -12 -12 -12h-28q-14 0 -14 12l-1 635q-46 7 -83 7q-45 0 -65.5 -25t-21.5 -81v-61h111q13 0 13 -13v-21q0 -11 -13 -11h-111v-430q0 -12 -13 -12h-28q-14 0 -14 12v430h-43q-13 0 -13 11v21q0 13 14 13h42v64
q0 155 142 155z" />
    <glyph glyph-name="ffi" unicode="ffi" horiz-adv-x="634" 
d="M136 544v-57h170v77q0 44 13 79q-52 7 -92 7q-46 0 -68.5 -25t-22.5 -81zM449 667q-45 0 -66.5 -25t-21.5 -81v-74h210q13 0 13 -12v-464q0 -11 -12 -11h-28q-14 0 -14 11v431h-169v-431q0 -11 -13 -11h-27q-15 0 -15 11v431h-170v-431q0 -11 -13 -11h-27q-15 0 -15 11
v431h-42q-13 0 -13 11v21q0 13 14 13h41v60q0 155 146 155q72 0 117 -19q38 35 105 35q72 0 120 -22q11 -5 8 -14q0 -4 -1 -9l-2 -8q-3 -9 -16 -8q-63 10 -109 10z" />
    <glyph glyph-name="ffl" unicode="ffl" horiz-adv-x="636" 
d="M304 442h-168v-430q0 -12 -13 -12h-27q-15 0 -15 12v430h-43q-12 0 -12 11v21q0 13 13 13h42v60q0 155 148 155q66 0 114 -18q35 35 103 35q52 0 99 -14q1 0 7.5 2.5t13 4t8.5 1.5q12 0 12 -11v-690q0 -12 -13 -12h-27q-14 0 -14 12v648q-46 7 -86 7q-45 0 -66.5 -25
t-21.5 -81v-74h111q13 0 13 -13v-21q0 -11 -13 -11h-111v-430q0 -8 -2 -10t-10 -2h-28q-14 0 -14 12v430zM136 487h168v77q0 45 12 78q-46 8 -87 8q-93 0 -93 -106v-57z" />
    <glyph glyph-name="ft" unicode="ft" horiz-adv-x="483" 
d="M483 38l3 -16q1 -9 -7 -14q-31 -16 -88 -16q-50 0 -69 23t-19 76v351h-167v-431q0 -11 -11 -11h-31q-13 0 -13 11v431h-42q-13 0 -13 11v22q0 12 13 12h43v86q0 142 129 142q53 0 95 -18q12 -4 10 -16l-3 -16q-2 -11 -18 -8q-43 7 -77 7q-82 0 -82 -93v-84h168v83
q0 10 11 13l28 9q14 6 14 -10v-95h93q12 0 12 -12v-22q0 -11 -12 -11h-93v-334q0 -38 10 -52t41 -14q18 0 60 5q14 1 15 -9z" />
    <glyph glyph-name=".notdef" horiz-adv-x="379" 
d="M379 0h-379v700h379v-700zM342 620l-129 -270l129 -270v540zM166 350l-129 269v-538zM62 660l127 -270l128 270h-255zM189 309l-127 -269h255z" />
    <glyph glyph-name=".null" horiz-adv-x="0" 
 />
    <glyph glyph-name="nonmarkingreturn" horiz-adv-x="333" 
 />
    <glyph glyph-name="space" unicode=" " horiz-adv-x="227" 
 />
    <glyph glyph-name="exclam" unicode="!" horiz-adv-x="183" 
d="M122 650l-12 -483q0 -11 -9 -11h-18q-10 0 -10 11l-3 152q-5 204 -6 331q0 13 12 13h36q10 0 10 -13zM126 30q0 -21 -8 -30.5t-28 -9.5q-21 0 -28.5 9.5t-7.5 30.5q0 38 36 38q21 0 28.5 -9t7.5 -29z" />
    <glyph glyph-name="quotedbl" unicode="&#x22;" horiz-adv-x="220" 
d="M155 483h-12q-10 0 -10 8l-10 163q0 9 11 9h30q9 0 9 -9l-9 -163q0 -8 -9 -8zM77 483h-12q-10 0 -10 8l-10 163q0 9 11 9h30q9 0 9 -9l-9 -163q0 -8 -9 -8z" />
    <glyph glyph-name="numbersign" unicode="#" 
d="M351 415l-29 -135h111q10 0 10 -9v-7q0 -22 -12 -22h-118l-52 -233q-3 -9 -10 -9h-23q-9 0 -9 8v2l51 232h-105l-52 -233q-3 -9 -10 -9h-24q-8 0 -8 7v3l51 232h-107q-9 0 -9 9v6v7t0.5 6t2 5.5t4 3t6.5 1.5h112l30 135h-106q-10 0 -10 7v23q2 8 13 8h111l45 200
q2 9 10 9h23q9 0 9 -8v-2l-45 -199h107l44 200q3 9 10 9h23q10 0 10 -8v-1l-45 -200h109q10 0 10 -9v-6.5v-8t-1 -7t-3.5 -6t-6.5 -1.5h-117zM203 415l-29 -135h105l30 135h-106z" />
    <glyph glyph-name="dollar" unicode="$" 
d="M257 1v-86q0 -7 -7 -7h-26q-9 0 -9 6v87q-44 1 -95 11q-50 11 -67 20q-6 3 -5 13l4 20q2 7 12 6q96 -15 151 -16l1 262q-84 20 -123 53q-39 34 -39 112q0 79 42.5 125.5t118.5 52.5v82q0 7 8 7h27q7 0 7 -7v-82q90 -1 138 -26q7 -3 4 -12l-5 -19q-5 -11 -11 -10
q-88 11 -126 13q0 -241 -1 -242q72 -17 115 -49q49 -37 49 -129q0 -168 -164 -185h1zM363 169q0 65 -24 95t-82 45v-252q50 5 77.5 34t28.5 78zM112 487q0 -51 24 -76t79 -38v233q-101 -12 -103 -119z" />
    <glyph glyph-name="percent" unicode="%" horiz-adv-x="688" 
d="M292 468q0 -67 -11 -110q-19 -96 -123 -102q-68 0 -100 47q-12 17 -20 51q-10 48 -10 114q0 199 130 199q70 0 100 -42q15 -20 22 -47q12 -40 12 -110zM245 461q0 89 -17.5 126.5t-69.5 37.5q-53 0 -69 -52q-14 -42 -14 -112q0 -75 13 -113q18 -48 70 -48q55 0 72 49
q15 40 15 112zM659 206q0 -67 -11 -110q-19 -96 -123 -102q-68 0 -100 47q-12 17 -20 51q-10 48 -10 114q0 199 130 199q70 0 100 -42q15 -20 22 -47q12 -40 12 -110zM612 199q0 89 -17.5 126.5t-69.5 37.5q-53 0 -69 -52q-14 -42 -14 -112q0 -75 13 -113q18 -48 70 -48
q55 0 72 49q15 40 15 112zM486 689l-238 -703q-4 -9 -12 -9h-24q-13 0 -8 11l239 702q3 10 12 10h24q9 0 7 -11z" />
    <glyph glyph-name="ampersand" unicode="&#x26;" horiz-adv-x="586" 
d="M567 -9q11 -8 4 -17l-12 -16q-7 -10 -19 -4q-22 10 -65 46q-38 30 -71 65q-94 -75 -192 -75q-84 0 -134.5 48t-50.5 137q0 125 146 221q-48 77 -48 137q0 61 33.5 100.5t87.5 39.5t86.5 -34.5t32.5 -89.5q0 -89 -120 -171q70 -129 166 -239q88 101 107 249q1 10 13 10h18
q12 0 12 -15q-1 -71 -39 -153q-39 -84 -80 -131q23 -25 63 -59q45 -37 62 -49zM245 625q-30 0 -47 -26t-17 -61q0 -49 40 -116q48 32 70.5 60t22.5 64q0 34 -20 56.5t-49 22.5zM371 102q-96 108 -174 251q-118 -75 -118 -176q0 -68 35.5 -104.5t93.5 -36.5q79 0 163 66z" />
    <glyph glyph-name="quotesingle" unicode="'" horiz-adv-x="164" 
d="M87 483h-12q-10 0 -10 8l-10 163q0 9 11 9h30q9 0 9 -9l-9 -163q0 -8 -9 -8z" />
    <glyph glyph-name="parenleft" unicode="(" horiz-adv-x="240" 
d="M201 -90q3 -8 -3 -12l-12 -7q-11 -5 -15 2q-118 175 -118 423q0 202 117 384q6 8 13 4l13 -8q9 -5 4 -13q-36 -61 -64 -155q-28 -93 -28 -212q0 -247 93 -406z" />
    <glyph glyph-name="parenright" unicode=")" horiz-adv-x="241" 
d="M55 -90q93 159 93 406q0 116 -29 212q-29 97 -63 155q-5 8 4 13l13 8q7 4 13 -4q117 -182 117 -384q0 -248 -118 -423q-4 -7 -15 -2l-12 7q-6 4 -3 12z" />
    <glyph glyph-name="asterisk" unicode="*" horiz-adv-x="275" 
d="M143 662h10q12 0 12 -10l3 -81l62 36q8 5 15 -6l6 -10q4 -6 -2 -9l-64 -48l63 -47q7 -6 3 -13l-6 -11q-6 -9 -16 -3l-61 38q0 -18 -1 -41t-1 -41q0 -9 -12 -9h-12q-11 0 -11 9l-4 82l-64 -36q-10 -5 -14 2l-7 13q-5 6 3 11l63 47l-63 47q-6 5 -2 12l6 10q5 12 16 4
l62 -37l4 82q0 9 12 9z" />
    <glyph glyph-name="plus" unicode="+" 
d="M404 340v-29q0 -8 -11 -8h-132v-161q0 -10 -9 -10h-29q-10 0 -10 10v161h-134q-11 0 -11 9v28q0 9 11 9h134v155q0 10 10 10h30q8 0 8 -10v-155h132q11 0 11 -9z" />
    <glyph glyph-name="comma" unicode="," horiz-adv-x="158" 
d="M126 11q0 -43 -17.5 -80.5t-45.5 -56.5q-9 -8 -13 -1l-10 9q-4 4 3 11q26 26 26 68q0 36 -20 65q-7 9 2 15l35 29q10 7 18 -1q22 -22 22 -58z" />
    <glyph glyph-name="hyphen" unicode="-" horiz-adv-x="310" 
d="M275 299h-237q-10 0 -10 9v29q0 9 10 9h237q10 0 10 -9v-30q0 -8 -10 -8z" />
    <glyph glyph-name="period" unicode="." horiz-adv-x="140" 
d="M105 31q0 -40 -37 -40q-36 0 -36 40q0 38 36 38q21 0 29 -9t8 -29z" />
    <glyph glyph-name="slash" unicode="/" horiz-adv-x="207" 
d="M208 680l-157 -737q-1 -9 -10 -9h-28q-11 0 -8 10l158 739q3 9 12 9h27q9 0 6 -12z" />
    <glyph glyph-name="zero" unicode="0" 
d="M444 341q0 -34 -2 -78q-7 -106 -28 -153q-22 -54 -66 -88t-111 -31q-114 0 -160 87q-29 58 -35 123q-6 64 -6 140v52q2 65 17 123q22 73 58 109q48 46 126 46q106 0 156 -69q22 -28 33 -77q18 -72 18 -184zM387 331q0 139 -24 206q-29 83 -126 83q-91 0 -120 -91
q-24 -75 -24 -198q0 -107 13 -170q27 -117 131 -117q93 0 124 86q26 74 26 201z" />
    <glyph glyph-name="one" unicode="1" 
d="M404 42v-33q0 -9 -11 -9h-291q-11 0 -11 9v33q0 10 11 10h116v539h-102q-11 0 -11 9v16q0 9 11 14l78 27q18 6 36 6h32q12 0 12 -12v-599h119q11 0 11 -10z" />
    <glyph glyph-name="two" unicode="2" 
d="M405 501q0 -65 -18 -105q-15 -36 -61 -92l-215 -252h293q13 0 13 -10v-33q0 -9 -11 -9h-352q-14 0 -14 12v30q0 15 11 28l229 265q67 79 67 152q0 70 -28.5 98.5t-104.5 28.5q-50 0 -148 -14q-11 -2 -13 9l-4 17q-2 11 7 15q22 13 69 20q48 9 88 9q102 0 147 -42t45 -127
z" />
    <glyph glyph-name="three" unicode="3" 
d="M425 232q0 -136 -57 -189q-55 -52 -160 -52q-28 0 -81 8q-49 7 -78 18q-12 5 -8 15l3 19q2 11 15 9q109 -14 151 -14q66 0 107 31q49 37 49 149q0 86 -95 106l-104 20q-14 3 -14 15v27q0 13 9 22l175 193l-1 1h-273q-13 0 -13 11v32q0 10 13 10h328q14 0 14 -12v-31
q0 -20 -12 -33l-169 -187q5 -1 34 -8q18 -3 35 -8q44 -10 59 -20q38 -22 45 -34q28 -38 28 -98z" />
    <glyph glyph-name="four" unicode="4" 
d="M458 228v-34q0 -9 -11 -9h-73v-175q0 -10 -10 -10h-37q-10 0 -10 10v175h-292q-11 0 -11 9v31q0 15 9 25l287 402q9 10 24 10h31q9 0 9 -9v-416h73q11 0 11 -9zM80 237h237v332z" />
    <glyph glyph-name="five" unicode="5" 
d="M423 232q0 -137 -55 -189t-159 -52q-28 0 -81 8q-50 7 -78 18q-12 5 -8 15l3 19q1 11 15 9q109 -14 151 -14q65 0 105 31q48 36 48 149q0 47 -23 72t-71 34l-194 36q-18 4 -17 25l34 257q1 12 17 12h277q12 0 12 -9v-33q0 -10 -13 -10h-244l-26 -193l183 -33
q59 -10 91.5 -48.5t32.5 -103.5z" />
    <glyph glyph-name="six" unicode="6" 
d="M383 179q0 77 -25 114q-24 38 -85 38t-180 -15v-43q0 -96 12 -144q11 -46 41 -65t93 -22q144 0 144 137zM253 615q-91 0 -126 -75q-28 -63 -32 -170q128 16 189 16q157 0 157 -205q0 -96 -54 -143t-151 -47q-55 0 -106 17q-28 9 -60 51q-15 19 -28 80q-4 20 -5 50l-2 55
v62q0 123 20 203q13 53 36 84q54 77 164 77q86 0 143 -24q11 -6 10 -16l-4 -19q-2 -11 -15 -8q-67 12 -136 12z" />
    <glyph glyph-name="seven" unicode="7" 
d="M418 589l-255 -593q-5 -8 -14 -5l-36 12q-11 5 -5 15l257 593h-324q-10 0 -10 9v32q0 11 11 11h373q13 0 13 -12v-28q0 -17 -10 -34z" />
    <glyph glyph-name="eight" unicode="8" 
d="M143 353q-44 16 -71 53.5t-27 82.5q0 90 48.5 136.5t140.5 46.5q90 0 138 -45.5t48 -132.5q0 -44 -27.5 -85t-72.5 -59q121 -40 121 -177q0 -84 -55.5 -133t-153.5 -49q-206 0 -206 180q0 135 117 182zM361 495q0 63 -33.5 94.5t-93.5 31.5q-68 0 -98.5 -31t-30.5 -95
q0 -50 32.5 -78t95.5 -44q128 27 128 122zM381 171q0 77 -48 110q-37 27 -105 49q-62 -17 -96 -42q-46 -31 -46 -109q0 -136 146 -136q57 0 103 32q46 31 46 96z" />
    <glyph glyph-name="nine" unicode="9" 
d="M91 482q0 -76 24 -114q26 -38 86 -38q61 0 180 15v43q0 96 -12 143q-11 46 -40.5 65t-93.5 23q-144 0 -144 -137zM216 46q93 0 128 74q30 61 35 171q-128 -16 -189 -16q-157 0 -157 205q0 96 54 143t151 47q55 0 106 -17q28 -9 60 -51q17 -22 27 -80q3 -12 5 -51
q2 -44 2 -54q1 -14 1 -62q0 -125 -22 -204q-41 -156 -203 -160q-91 0 -148 24q-11 6 -10 16l4 19q2 11 15 8q67 -12 141 -12z" />
    <glyph glyph-name="colon" unicode=":" horiz-adv-x="158" 
d="M116 32q0 -40 -37 -40q-21 0 -28.5 9.5t-7.5 30.5q0 38 36 38q21 0 29 -9t8 -29zM116 403q0 -40 -37 -40q-21 0 -28.5 9.5t-7.5 30.5q0 38 36 38q21 0 29 -9t8 -29z" />
    <glyph glyph-name="semicolon" unicode=";" horiz-adv-x="158" 
d="M120 403q0 -40 -37 -40q-21 0 -28.5 9.5t-7.5 30.5q0 38 36 38q21 0 29 -9t8 -29zM59 -126q-9 -8 -13 -1l-10 9q-4 4 3 11q26 26 26 68q0 36 -20 65q-7 9 2 15l35 29q10 7 18 -1q33 -34 17 -102t-58 -93z" />
    <glyph glyph-name="semicolon" unicode="&#x37e;" horiz-adv-x="158" 
d="M120 403q0 -40 -37 -40q-21 0 -28.5 9.5t-7.5 30.5q0 38 36 38q21 0 29 -9t8 -29zM59 -126q-9 -8 -13 -1l-10 9q-4 4 3 11q26 26 26 68q0 36 -20 65q-7 9 2 15l35 29q10 7 18 -1q33 -34 17 -102t-58 -93z" />
    <glyph glyph-name="less" unicode="&#x3c;" 
d="M404 149v-33q0 -12 -11 -6l-314 188q-11 6 -11 15v24q0 9 10 15l313 195q12 7 12 -6v-32q0 -9 -10 -16l-265 -166v-2l265 -157q11 -8 11 -19z" />
    <glyph glyph-name="equal" unicode="=" 
d="M404 424v-29q0 -8 -11 -8h-314q-11 0 -11 8v29q0 9 11 9h314q11 0 11 -9zM404 260v-29q0 -8 -11 -8h-314q-11 0 -11 8v29q0 9 11 9h314q11 0 11 -9z" />
    <glyph glyph-name="greater" unicode="&#x3e;" 
d="M68 116v33q0 11 12 19l264 157v2l-264 166q-11 6 -11 16v32q0 13 13 6l312 -195q10 -4 10 -15v-24q0 -10 -11 -15l-314 -188q-11 -8 -11 6z" />
    <glyph glyph-name="question" unicode="?" horiz-adv-x="300" 
d="M287 525q0 -29 -12 -55q-3 -6 -5 -10.5t-5 -9.5t-5 -8t-6 -7.5t-5.5 -6.5t-6.5 -6.5t-7 -6.5t-8.5 -8t-8.5 -8q-47 -39 -69 -77.5t-22 -90.5v-63q0 -12 -11 -12h-24q-12 0 -14 11q-1 8 -1 74q0 102 105 192q52 43 52 87q0 52 -26.5 74.5t-82.5 22.5q-50 0 -98 -6
q-11 -2 -13 9l-3 19q-1 10 11 15q45 17 108 17q74 0 115.5 -36.5t41.5 -109.5zM143 31q0 -40 -37 -40q-22 0 -29.5 9t-7.5 31q0 39 37 39q21 0 29 -9t8 -30z" />
    <glyph glyph-name="at" unicode="@" horiz-adv-x="700" 
d="M468 406v-159q0 -63 58 -63q44 0 72.5 46.5t28.5 119.5q0 135 -70 214q-69 80 -187 80q-121 0 -205 -90q-84 -88 -84 -220q0 -139 78 -226q80 -86 202 -86q47 0 97 14q14 3 15 -3l5 -16q3 -9 -8 -14q-42 -19 -114 -19q-139 0 -229 97q-89 98 -89 252q0 150 97 250
q98 101 235 101q140 0 220 -92t80 -243q0 -95 -43 -150q-43 -54 -101 -54q-82 0 -100 64q-68 -44 -125 -44q-85 0 -85 97q0 62 28 91t87 29h90v29q0 45 -14.5 61t-58.5 16q-35 0 -90 -7q-10 -1 -12 6l-3 16q-2 6 3 8q12 7 48 12q36 6 58 6q68 0 92 -26.5t24 -96.5zM421 248
v95h-92q-34 0 -50 -17.5t-16 -60.5q0 -33 11 -46.5t38 -13.5q45 0 109 43z" />
    <glyph glyph-name="A" unicode="A" horiz-adv-x="465" 
d="M267 651l184 -640q0 -1 0.5 -3l0.5 -2q0 -6 -8 -6h-42q-10 0 -14 9l-46 173h-225l-46 -171q-2 -11 -15 -11h-37q-9 0 -9 6q0 4 1 5l185 640q5 11 15 11h41q10 0 15 -11zM232 589h-4l-97 -356h198l-57 206q-36 132 -40 150z" />
    <glyph glyph-name="B" unicode="B" horiz-adv-x="471" 
d="M439 177q0 -80 -49 -129q-50 -48 -123 -48h-195q-16 0 -16 12v638q0 12 12 12h166q88 0 136.5 -44.5t48.5 -120.5q0 -109 -88 -148v-2q58 -18 83 -67t25 -103zM358 491q0 55 -34 87t-99 32h-112v-240h117q57 0 92.5 33.5t35.5 87.5zM378 184q0 58 -36.5 96.5t-100.5 38.5
h-128v-267h129q136 0 136 132z" />
    <glyph glyph-name="C" unicode="C" horiz-adv-x="456" 
d="M279 614q-105 0 -137 -92q-26 -74 -26 -198q0 -115 29 -192q36 -85 133 -85q52 0 143 10q11 1 15 -9l3 -18q3 -11 -7 -15q-62 -24 -158 -24q-129 0 -177 100q-42 88 -42 233t40 239q48 106 181 106q94 0 154 -22q10 -4 9 -16l-3 -19q-1 -10 -15 -8q-84 10 -142 10z" />
    <glyph glyph-name="D" unicode="D" horiz-adv-x="525" 
d="M474 333q0 -149 -49 -236q-54 -97 -207 -97h-142q-15 0 -15 12v638q0 12 14 12h143q151 0 206 -96q50 -85 50 -233zM414 325q0 144 -46 214.5t-145 70.5h-105v-558h97q102 0 150.5 66.5t48.5 206.5z" />
    <glyph glyph-name="E" unicode="E" horiz-adv-x="424" 
d="M397 41v-31q0 -10 -11 -10h-317q-12 0 -12 10v641q0 12 12 12h303q11 0 11 -11v-31q0 -11 -12 -11h-256v-234h230q11 0 11 -10v-29q0 -12 -11 -12h-230v-273h271q11 0 11 -11z" />
    <glyph glyph-name="F" unicode="F" horiz-adv-x="403" 
d="M60 12v639q0 12 12 12h303q11 0 11 -11v-31q0 -11 -12 -11h-257v-240h224q11 0 11 -10v-30q0 -12 -12 -12h-222v-306q0 -12 -11 -12h-35q-12 0 -12 12z" />
    <glyph glyph-name="G" unicode="G" horiz-adv-x="514" 
d="M52 324q0 147 42 239q48 106 182 106q94 0 154 -22q10 -4 9 -16l-3 -19q-1 -10 -15 -8q-84 10 -142 10q-81 0 -122 -60q-17 -26 -27 -66q-16 -65 -16 -164q0 -121 31 -193q37 -86 142 -86q69 0 111 19h-1v226h-80q-16 0 -16 13v31q0 11 15 11h126q16 0 16 -12v-286
q0 -30 -55 -43q-55 -12 -115 -12q-123 0 -179.5 82t-56.5 250z" />
    <glyph glyph-name="H" unicode="H" horiz-adv-x="507" 
d="M448 651v-640q0 -11 -10 -11h-34q-12 0 -12 11v314h-277v-314q0 -11 -10 -11h-35q-11 0 -11 11v640q0 12 11 12h35q10 0 10 -12v-274h277v274q0 12 12 12h34q10 0 10 -12z" />
    <glyph glyph-name="I" unicode="I" horiz-adv-x="195" 
d="M126 651v-640q0 -11 -13 -11h-32q-13 0 -13 11v640q0 12 13 12h32q13 0 13 -12z" />
    <glyph glyph-name="J" unicode="J" horiz-adv-x="354" 
d="M284 651v-490q0 -171 -157 -171q-59 0 -112 21q-12 5 -9 16l5 20q2 9 14 8q54 -8 97 -8q57 0 80.5 30.5t23.5 95.5v478q0 12 13 12h33q12 0 12 -12z" />
    <glyph glyph-name="K" unicode="K" horiz-adv-x="467" 
d="M113 651v-374q0 -1 0.5 -1t0.5 -1q30 47 126 183l138 197q5 8 18 8h42q8 0 8 -6q0 -1 -1 -2t-1 -3l-189 -268l195 -373q0 -2 1 -3l1 -2q0 -6 -9 -6h-42q-19 0 -29 31l-155 301l-104 -149v-172q0 -11 -12 -11h-33q-12 0 -12 11v640q0 12 12 12h33q12 0 12 -12z" />
    <glyph glyph-name="L" unicode="L" horiz-adv-x="409" 
d="M402 41v-31q0 -10 -11 -10h-319q-12 0 -12 11v639q0 13 12 13h34q10 0 10 -13l1 -598h274q11 0 11 -11z" />
    <glyph glyph-name="M" unicode="M" horiz-adv-x="631" 
d="M265 310l50 -124h3l65 163l127 303q6 11 19 11h30q13 0 13 -12v-639q0 -12 -13 -12h-31q-14 0 -14 12q0 512 -3 512l-32 -84l-135 -321q-6 -11 -16 -11h-24q-12 0 -16 9l-143 334q-10 21 -28 71h-2v-510q0 -12 -12 -12h-31q-13 0 -13 12v640q0 11 11 11h34q12 0 17 -11z
" />
    <glyph glyph-name="N" unicode="N" horiz-adv-x="536" 
d="M118 548q-1 -1 -4 -1v-535q0 -12 -12 -12h-31q-13 0 -13 12v640q0 11 12 11h32q10 0 18 -11l206 -365l48 -89q36 -67 48 -85v537q0 13 13 13h31q12 0 12 -13v-639q0 -11 -12 -11h-31q-10 0 -18 11l-245 433q-36 65 -54 104z" />
    <glyph glyph-name="O" unicode="O" horiz-adv-x="545" 
d="M494 341q0 -31 -2 -73q-2 -82 -21 -136q-45 -141 -202 -141q-133 -5 -187 110q-14 29 -22 75q-10 75 -10 165q0 29 2 71q9 99 32 145q59 114 186 114q112 0 165 -67q23 -28 37 -75q22 -71 22 -188zM436 331q0 150 -37 219t-130 69q-86 0 -122.5 -71t-36.5 -217
q0 -129 29 -205q35 -83 130 -83q91 0 129 70.5t38 217.5z" />
    <glyph glyph-name="P" unicode="P" horiz-adv-x="433" 
d="M412 475q0 -37 -9.5 -70t-30 -62.5t-59 -47t-91.5 -17.5h-109v-266q0 -12 -12 -12h-33q-13 0 -13 12v640q0 11 13 11h152q88 0 140 -49.5t52 -138.5zM355 473q0 68 -37.5 102.5t-106.5 34.5h-98v-282h108q60 0 97 37t37 108z" />
    <glyph glyph-name="Q" unicode="Q" horiz-adv-x="546" 
d="M270 -9q-57 0 -100.5 21t-66.5 54q-21 30 -35 82q-12 52 -15 93q-3 40 -3 100q0 330 220 330q112 0 165 -68q23 -28 37 -75q22 -71 22 -187q0 -107 -19 -188q-23 -96 -98 -137l123 -38q13 -3 9 -16l-12 -33q-5 -12 -14 -12l-8 2l-181 74q-22 -2 -24 -2zM270 619
q-85 0 -122.5 -72t-37.5 -216q0 -131 31 -205q35 -83 129 -83q63 0 100 37q37 35 51.5 94.5t14.5 156.5q0 150 -37 219t-129 69z" />
    <glyph glyph-name="R" unicode="R" horiz-adv-x="445" 
d="M238 288h-127v-276q0 -12 -12 -12h-34q-12 0 -12 12v640q0 11 12 11h159q86 0 136.5 -46.5t50.5 -137.5q0 -68 -29 -117t-87 -66l124 -283q7 -13 -6 -13h-42q-14 0 -18 10zM212 610h-101v-272h107q133 0 133 138q0 134 -139 134z" />
    <glyph glyph-name="S" unicode="S" horiz-adv-x="446" 
d="M414 179q0 -95 -53.5 -141.5t-146.5 -46.5q-36 0 -92 8q-50 7 -76 18q-12 5 -9 17l4 19q1 9 16 8q104 -14 159 -14q65 0 102 31.5t37 88.5q0 71 -29 102q-29 30 -98 44q-87 17 -133 47q-54 36 -54 126q0 87 49 135t137 48q96 0 156 -24q12 -5 9 -15l-3 -17
q-3 -12 -18 -10q-108 12 -142 12q-128 0 -128 -126q0 -61 30 -84t100 -36q66 -13 106 -35q77 -42 77 -155z" />
    <glyph glyph-name="T" unicode="T" horiz-adv-x="407" 
d="M387 610h-155q0 -166 -1 -299v-300q0 -11 -10 -11h-34q-12 0 -12 11v599h-153q-12 0 -12 11v31q0 11 12 11h365q11 0 11 -11v-31q0 -11 -11 -11z" />
    <glyph glyph-name="U" unicode="U" horiz-adv-x="521" 
d="M466 649v-420q0 -115 -51.5 -176t-154.5 -61q-205 0 -205 237v420q0 14 15 14h29q14 0 14 -14v-416q0 -95 35.5 -141.5t111.5 -46.5q149 0 149 188v416q0 14 15 14h28q14 0 14 -14z" />
    <glyph glyph-name="V" unicode="V" horiz-adv-x="474" 
d="M236 75h3l54 204l104 373q3 10 14 10h38q7 0 7 -6v-2q-1 -2 -1 -3l-184 -641q-3 -10 -14 -10h-41q-11 0 -14 9l-184 643q-1 1 -1 4q0 6 8 6h38q12 0 13 -10l90 -318q34 -109 70 -259z" />
    <glyph glyph-name="W" unicode="W" horiz-adv-x="697" 
d="M392 245l-42 180h-4q-16 -88 -39 -178l-59 -237q-3 -10 -13 -10h-43q-11 0 -12 10l-165 642q-1 10 8 10h38q10 0 13 -9l99 -395q20 -82 41 -173h2q15 80 37 168l66 278l-30 121q-3 10 7 10h38q10 0 13 -9l101 -410q26 -104 38 -168h3q12 65 38 180l95 398q3 9 14 9h37
q10 0 7 -11l-160 -640q-3 -11 -13 -11h-42q-13 0 -14 10z" />
    <glyph glyph-name="X" unicode="X" horiz-adv-x="443" 
d="M367 10l-141 277l-142 -277q-4 -10 -15 -10h-42q-10 0 -6 10l174 333l-161 309q-8 11 5 11h43q11 0 15 -10l129 -254l129 254q5 9 16 9h41q5 1 6.5 -2.5t-0.5 -7.5l-162 -309l175 -333q4 -10 -6 -10h-43q-9 0 -15 10z" />
    <glyph glyph-name="Y" unicode="Y" horiz-adv-x="429" 
d="M160 485l57 -133h5q15 41 58 132l80 169q4 9 15 9h39q10 0 7 -10l-174 -358v-282q0 -12 -10 -12h-33q-13 0 -13 12v282l-172 359q-5 9 7 9h42q8 0 13 -9z" />
    <glyph glyph-name="Z" unicode="Z" horiz-adv-x="414" 
d="M389 41v-29q0 -12 -12 -12h-340q-12 0 -12 11v26q0 12 6 24l291 549h-267q-13 0 -13 11v31q0 11 13 11h319q12 0 12 -10v-30q0 -11 -6 -22l-288 -549h285q12 0 12 -11z" />
    <glyph glyph-name="bracketleft" unicode="[" horiz-adv-x="208" 
d="M172 -63v-27q0 -10 -11 -10h-113q-12 0 -12 11v773q0 11 12 11h114q10 0 10 -10v-27q0 -10 -11 -10h-71v-702h71q11 0 11 -9z" />
    <glyph glyph-name="backslash" unicode="\" horiz-adv-x="207" 
d="M47 683l158 -739v-3q0 -6 -9 -6h-27q-8 0 -10 8l-158 739l-1 2v3q0 5 8 5h27q9 0 12 -9z" />
    <glyph glyph-name="bracketright" unicode="]" horiz-adv-x="208" 
d="M173 684v-773q0 -10 -12 -10h-113q-11 0 -11 9v27q0 9 11 9h71v702h-71q-11 0 -11 10v27q0 10 10 10h114q12 0 12 -11z" />
    <glyph glyph-name="asciicircum" unicode="^" horiz-adv-x="414" 
d="M396 390l-14 -10q-7 -4 -13 3l-156 234l-158 -232q-7 -7 -14 -2l-14 10q-6 4 -1 12l146 246q8 11 22 11h39q14 0 21 -10l142 -250q4 -8 0 -12z" />
    <glyph glyph-name="underscore" unicode="_" horiz-adv-x="435" 
d="M442 -97v-19q0 -8 -10 -8h-431q-10 0 -10 8v19q0 10 10 10h430q11 0 11 -10z" />
    <glyph glyph-name="grave" unicode="`" horiz-adv-x="422" 
d="M229 550l-77 129q-4 7 3 11l38 19q8 3 11 -5l60 -136l2 -6q0 -3 -5 -5l-19 -10q-1 0 -3 -1t-3 -1q-4 0 -7 5z" />
    <glyph glyph-name="a" unicode="a" horiz-adv-x="440" 
d="M325 105v136h-134q-100 0 -100 -113q0 -48 16.5 -66.5t58.5 -18.5q33 0 81 20q47 21 78 42zM220 498q87 0 122 -35.5t37 -119.5v-263q0 -26 5.5 -32.5t28.5 -8.5q12 0 12 -9v-19q0 -9 -9 -12q-9 -4 -30 -4q-32 0 -45 12.5t-16 45.5q-49 -32 -87.5 -46.5t-87.5 -14.5
q-115 0 -115 132q0 86 38.5 125.5t121.5 39.5h130v43q0 61 -25 87.5t-85 26.5q-48 0 -124 -10q-17 -2 -18 8l-3 17q-2 11 8 14q58 23 142 23z" />
    <glyph glyph-name="b" unicode="b" horiz-adv-x="430" 
d="M219 -9q-91 0 -158 21q-20 8 -20 34v644q0 13 12 13h31q12 0 12 -13v-221l1 -1h1q63 28 129 28q94 0 131 -58t37 -191q0 -132 -41 -194t-135 -62zM338 240q0 112 -24 159t-83 47t-134 -26v-364q59 -12 120 -12q57 0 89 41t32 155z" />
    <glyph glyph-name="c" unicode="c" horiz-adv-x="355" 
d="M201 -9q-81 0 -122 46q-18 23 -28 55q-16 55 -16 151q0 88 16 146q16 52 52 79t100 29q79 0 133 -22q10 -3 8 -14l-3 -17q-1 -10 -18 -8q-76 10 -117 10q-63 0 -88 -44.5t-25 -155.5q0 -116 24 -160q26 -44 89 -44q61 0 121 10q14 2 16 -9l3 -16q2 -9 -8 -14
q-48 -22 -137 -22z" />
    <glyph glyph-name="d" unicode="d" horiz-adv-x="428" 
d="M385 691v-681q0 -10 -11 -10h-32q-12 0 -12 11v12q0 4 -0.5 14.5t-0.5 12.5q-85 -58 -157 -58q-75 0 -106 57t-31 187q0 139 37 199.5t130 60.5q68 0 127 -25q1 0 1 0.5t1 0.5v219q0 12 12 12h31q11 0 11 -12zM330 99v324q-72 24 -131 24q-58 0 -83 -49t-25 -164
q0 -110 21 -150q22 -40 68 -40q30 0 77 18q47 20 73 37z" />
    <glyph glyph-name="e" unicode="e" horiz-adv-x="410" 
d="M209 447q-60 0 -86.5 -42t-29.5 -131h234q0 73 -21 119q-23 54 -97 54zM209 -9q-86 0 -129 50q-17 21 -28 57q-16 59 -16 147q0 76 16 135q35 117 158 117q105 0 141 -69q33 -60 33 -151q0 -26 -8.5 -37.5t-28.5 -11.5h-253q1 -99 27.5 -141.5t91.5 -42.5q44 0 127 11
q14 2 16 -9l3 -16q2 -11 -7 -14q-60 -25 -143 -25z" />
    <glyph glyph-name="f" unicode="f" horiz-adv-x="294" 
d="M211 706q53 0 95 -18q12 -4 10 -16l-3 -17q-2 -11 -18 -8q-43 8 -77 8q-82 0 -82 -93v-75h114q12 0 12 -11v-23q0 -11 -12 -11h-114v-431q0 -11 -11 -11h-31q-13 0 -13 11v431h-42q-13 0 -13 11v22q0 12 13 12h43v77q0 142 129 142z" />
    <glyph glyph-name="g" unicode="g" horiz-adv-x="431" 
d="M391 442l-1 -472q-2 -84 -37 -119.5t-122 -35.5q-84 0 -142 23q-10 3 -8 14l3 17q1 10 18 8q76 -10 124 -10q60 0 85 26.5t25 87.5v39h-1l-23 -8q-59 -22 -107 -20q-94 0 -131.5 59.5t-37.5 190.5q0 133 41 194t135 61q90 0 157 -21q22 -7 22 -34zM335 68v364
q-71 12 -119 12q-55 0 -85 -34q-37 -39 -37 -158q0 -114 24.5 -162t82.5 -48t134 26z" />
    <glyph glyph-name="h" unicode="h" horiz-adv-x="426" 
d="M256 496q66 0 96 -34q12 -12 20 -41q10 -39 10 -107v-303q0 -11 -12 -11h-33q-11 0 -11 11v307q0 73 -16.5 100.5t-61.5 27.5q-52 0 -152 -57v-378q0 -11 -12 -11h-32q-10 0 -10 11v681q0 11 10 11h32q12 0 12 -11v-255q2 0 3 -1q88 60 157 60z" />
    <glyph glyph-name="i" unicode="i" horiz-adv-x="182" 
d="M124 617q0 -19 -7 -27.5t-26 -8.5q-33 0 -33 36q0 34 33 34q19 0 26 -8t7 -26zM118 475v-464q0 -11 -11 -11h-30q-13 0 -13 11v464q0 12 13 12h31q10 0 10 -12z" />
    <glyph glyph-name="j" unicode="j" horiz-adv-x="195" 
d="M130 476v-540q0 -59 -25 -95q-28 -43 -124 -42q-13 0 -14 12l-1 17q0 11 14 14q61 11 77 30q18 20 18 68v536q0 11 12 11h30q13 0 13 -11zM134 617q0 -19 -7 -27.5t-25 -8.5q-33 0 -33 36q0 34 33 34q18 0 25 -8t7 -26z" />
    <glyph glyph-name="k" unicode="k" horiz-adv-x="369" 
d="M348 475l-143 -177l160 -286q6 -12 -6 -12h-37q-14 0 -19 11l-132 243l-71 -88v-155q0 -11 -12 -11h-31q-12 0 -12 11v681q0 11 12 11h31q12 0 12 -11v-446q0 -1 1 -1q28 40 71 91l113 142q9 10 18 10h39q16 0 6 -13z" />
    <glyph glyph-name="l" unicode="l" horiz-adv-x="191" 
d="M118 -7q-31 0 -44.5 16.5t-13.5 51.5v629q0 12 13 12h28q14 0 14 -12v-609q0 -24 6.5 -30t31.5 -5q13 0 15 -8l3 -23q1 -10 -9 -14q-26 -8 -44 -8z" />
    <glyph glyph-name="m" unicode="m" horiz-adv-x="689" 
d="M255 496q81 0 104 -68q95 68 167 68q60 0 89 -38q12 -15 18 -43q9 -42 9 -109v-295q0 -11 -12 -11h-32q-11 0 -11 11v325q-1 58 -16.5 84t-52.5 26q-46 0 -150 -62q3 -24 3 -57v-51v-133q1 -59 1 -132q0 -11 -12 -11h-33q-11 0 -11 11v325q-1 58 -16.5 84t-52.5 26
q-43 0 -147 -57v-378q0 -11 -12 -11h-32q-10 0 -10 11v464q0 12 10 12h32q12 0 12 -12v-38q2 0 3 -1q89 60 152 60z" />
    <glyph glyph-name="n" unicode="n" horiz-adv-x="420" 
d="M254 496q66 0 96 -34q13 -13 21 -41q10 -39 10 -107v-303q0 -11 -13 -11h-32q-12 0 -12 11v153q1 69 1 154q0 71 -16 99.5t-63 28.5q-50 0 -151 -57v-378q0 -11 -13 -11h-30q-12 0 -12 11v464q0 12 12 12h30q13 0 13 -12v-38q1 0 2 -1q89 60 157 60z" />
    <glyph glyph-name="o" unicode="o" horiz-adv-x="427" 
d="M390 252q0 -84 -15 -143q-28 -111 -165 -117q-89 0 -132 55q-17 21 -28 61q-14 59 -14 144q0 245 174 245q89 0 133 -51q19 -22 30 -57q17 -51 17 -137zM210 447q-67 0 -92.5 -48t-25.5 -154q0 -107 25.5 -155.5t92.5 -48.5q70 0 96.5 48t26.5 156t-26.5 155t-96.5 47z
" />
    <glyph glyph-name="p" unicode="p" horiz-adv-x="426" 
d="M48 -163v639q0 11 11 11h32q12 0 12 -11v-12q0 -2 0.5 -12.5t0.5 -14.5q85 58 157 58q75 0 106 -57.5t31 -187.5q0 -138 -37 -198.5t-130 -60.5q-67 0 -127 25v-1l-1 -1v-177q0 -13 -13 -13h-31q-11 0 -11 13zM103 388v-324q72 -24 131 -24t83 48t24 165q0 109 -21 150
t-67 41q-32 0 -77 -19q-46 -20 -73 -37z" />
    <glyph glyph-name="q" unicode="q" horiz-adv-x="431" 
d="M36 240q0 132 42 194.5t136 62.5q93 0 156 -22q20 -6 20 -33v-605q0 -13 -11 -13h-30q-13 0 -13 13v181l-2 2q-63 -28 -128 -28q-94 0 -132 58t-38 190zM94 247q0 -112 24.5 -158.5t83.5 -46.5t133 25v364q-62 13 -119 13q-58 0 -90 -42q-32 -41 -32 -155z" />
    <glyph glyph-name="r" unicode="r" horiz-adv-x="258" 
d="M257 484l4 -30q2 -15 -10 -18q-74 -22 -129 -52v-373q0 -11 -12 -11h-31q-12 0 -12 11v465q0 11 12 11h31q12 0 12 -11v-47l1 -1q64 51 120 65q13 3 14 -9z" />
    <glyph glyph-name="s" unicode="s" horiz-adv-x="365" 
d="M335 135q0 -72 -42.5 -107.5t-117.5 -35.5q-90 0 -135 21q-9 4 -7 15l3 15q2 11 17 9q81 -10 124 -10q100 0 100 85q0 50 -19 69.5t-73 28.5q-79 15 -114 43t-35 90q0 68 38 103.5t111 35.5q81 0 128 -22q9 -4 8 -14l-3 -17q-2 -10 -17 -8q-86 10 -117 10q-50 0 -71 -20
t-21 -65q0 -43 20 -58q20 -14 77 -25q68 -13 101 -37q45 -29 45 -106z" />
    <glyph glyph-name="t" unicode="t" horiz-adv-x="265" 
d="M263 38l3 -16q1 -9 -7 -14q-31 -16 -88 -16q-50 0 -69 23t-19 76v351h-50q-11 0 -11 11v22q0 12 13 12h49v111q0 9 11 14l28 9q14 5 14 -11v-123h93q12 0 12 -12v-22q0 -11 -12 -11h-93v-334q0 -38 10 -52t41 -14q18 0 60 5q14 1 15 -9z" />
    <glyph glyph-name="u" unicode="u" horiz-adv-x="427" 
d="M168 -8q-73 0 -106 49q-8 15 -11 36q-5 39 -5 84v315q0 11 12 11h32q11 0 11 -11v-309q0 -71 16 -98.5t62 -27.5q48 0 148 57v378q0 11 13 11h30q12 0 12 -11v-465q0 -11 -12 -11h-30q-13 0 -13 11v39q-2 0 -3 1q-86 -59 -156 -59z" />
    <glyph glyph-name="v" unicode="v" horiz-adv-x="391" 
d="M166 187l35 -114h3q0 3 34 115l87 289q3 10 13 10h37q8 0 8 -6l-1 -2v-3l-151 -467q-3 -9 -13 -9h-35q-10 0 -13 9l-151 467q-5 11 6 11h38q13 0 14 -9z" />
    <glyph glyph-name="w" unicode="w" horiz-adv-x="587" 
d="M391 160l22 -80l106 397q3 10 13 10h36q8 0 8 -5t-1 -6l-132 -467q-3 -9 -13 -9h-34q-12 0 -14 9q-49 164 -84 298h-3l-37 -135l-46 -163q-3 -9 -12 -9h-34q-11 0 -14 9l-134 467q-3 11 7 11h36q11 0 14 -11l70 -253l38 -142h2q16 67 37 140l48 170l-23 85q-5 11 7 11h37
q10 0 13 -11l70 -253z" />
    <glyph glyph-name="x" unicode="x" horiz-adv-x="364" 
d="M344 475l-131 -226l140 -237l2 -6q0 -6 -9 -6h-40q-11 0 -17 10l-108 191l-107 -191q-4 -10 -17 -10h-40q-8 0 -8 6l1 2q0 2 1 3l139 237l-130 227l-2 6q0 6 8 6h38q11 0 23 -24l94 -169l103 183q4 10 13 10h41q7 0 7 -7q0 -4 -1 -5z" />
    <glyph glyph-name="y" unicode="y" horiz-adv-x="394" 
d="M80 476l117 -394h6l52 170l69 225q3 10 14 10h36q11 0 6 -11l-202 -642q-3 -10 -15 -10h-31q-13 0 -8 11l49 160l-150 481q-5 11 6 11h37q11 0 14 -11z" />
    <glyph glyph-name="z" unicode="z" horiz-adv-x="365" 
d="M23 10v24q0 12 7 22l245 383h-222q-12 0 -12 11v26q0 11 12 11h270q12 0 12 -10v-27q0 -13 -7 -21l-240 -379h237q12 0 12 -11v-27q0 -12 -12 -12h-291q-11 0 -11 10z" />
    <glyph glyph-name="braceleft" unicode="{" horiz-adv-x="216" 
d="M71 -11v186q0 41 -5 64q-6 30 -40 43q-9 3 -9 10v14q0 8 9 10q34 11 39 42q6 28 6 65v179q0 52 15 76.5t55 24.5q29 0 44 -5q8 -3 8 -12v-14q0 -8 -7 -9q-2 -1 -4 -1q-38 -5 -48.5 -15t-10.5 -35v-202q-2 -89 -50 -112q31 -19 40.5 -45t9.5 -75v-199q0 -25 10.5 -35
t48.5 -15q10 -4 11 -10v-14q0 -9 -8 -12q-15 -5 -44 -5q-40 0 -55 24.5t-15 76.5z" />
    <glyph glyph-name="bar" unicode="|" horiz-adv-x="195" 
d="M121 684v-789q0 -11 -12 -11h-22q-14 0 -14 11v789q0 12 13 12h22q13 0 13 -12z" />
    <glyph glyph-name="braceright" unicode="}" horiz-adv-x="216" 
d="M139 175v-186q0 -52 -15 -76.5t-55 -24.5q-29 0 -44 5q-8 3 -8 12v14q0 8 7 9q2 1 4 1q38 5 48.5 15t10.5 35v199q0 49 9.5 75t40.5 45q-48 23 -50 112v202q0 25 -10.5 35t-48.5 15q-10 4 -11 10v14q0 9 8 12q15 5 44 5q40 0 55 -24.5t15 -76.5v-179q0 -36 5 -65
q7 -31 40 -42q9 -2 9 -10v-14q0 -7 -9 -10q-34 -13 -40 -43q-5 -23 -5 -64z" />
    <glyph glyph-name="asciitilde" unicode="~" 
d="M327 243q-30 0 -89 34q-52 30 -74 30q-16 0 -27 -9t-34 -38q-9 -12 -20 -4l-12 8q-10 7 -5 19q35 74 100 74q33 0 92 -34q56 -30 73 -30q12 0 22 7q11 6 37 41q8 11 18 3l13 -9q7 -6 6 -15q-36 -77 -100 -77z" />
    <glyph glyph-name="exclamdown" unicode="&#xa1;" horiz-adv-x="204" 
d="M123 310l12 -483q0 -13 -10 -13h-36q-12 0 -12 13q0 64 4 241l5 242q0 11 10 11h18q9 0 9 -11zM139 447q0 -20 -7.5 -29t-28.5 -9q-36 0 -36 38q0 21 7.5 30.5t28.5 9.5q20 0 28 -9.5t8 -30.5z" />
    <glyph glyph-name="cent" unicode="&#xa2;" 
d="M250 -9h-8l-16 -120q0 -6 -2 -8.5t-8 -1.5l-23 3q-9 2 -7 11l16 121q-75 17 -98 84q-20 59 -20 163q0 88 16 146q16 52 52 79t100 29q14 0 19 -1l17 123q2 11 11 9l22 -2q9 -1 7 -12l-17 -121q43 -8 74 -18q10 -3 8 -14l-3 -17q-1 -10 -18 -8l-68 8l-55 -402h6
q61 0 121 10q14 2 16 -9l3 -16q2 -9 -8 -14q-48 -22 -137 -22zM142 246q0 -95 15 -140t53 -58l54 398h-9q-63 0 -88 -44.5t-25 -155.5z" />
    <glyph glyph-name="sterling" unicode="&#xa3;" 
d="M268 669q78 0 141 -23q13 -4 10 -15l-4 -20q-5 -9 -14 -8q-102 11 -130 11q-49 0 -75 -30.5t-25 -86.5l1 -145h168q13 0 13 -11v-24q0 -7 -2.5 -9.5t-10.5 -2.5h-168v-81q0 -135 -40 -171h269q14 0 14 -12v-31q0 -10 -14 -10h-336q-14 0 -14 11v22q0 12 13 19
q24 14 35 44q16 41 16 119v90h-42q-8 0 -10.5 2.5t-2.5 9.5v24q0 11 12 11h43q0 32 -1 75v74q-1 77 41 122.5t113 45.5z" />
    <glyph glyph-name="currency" unicode="&#xa4;" 
d="M80 267q0 55 33 102l-47 46q-6 6 -2 13l24 24q6 6 12 -1l47 -46q43 32 100 32q59 0 103 -32l47 48q7 8 13 1l22 -24q6 -5 0 -13l-48 -48q33 -43 33 -100q0 -58 -34 -107l49 -49q10 -6 2 -14l-23 -23q-6 -6 -14 2l-48 49q-46 -31 -102 -31q-52 0 -96 29l-51 -50
q-7 -9 -14 -2l-24 23q-5 6 2 13l51 50q-35 47 -35 108zM129 267q0 -54 33 -89t85 -35q53 0 87 36q35 37 35 88q0 55 -34 89.5t-88 34.5q-52 0 -85 -34.5t-33 -89.5z" />
    <glyph glyph-name="yen" unicode="&#xa5;" 
d="M109 653l132 -299h4l134 299q5 9 15 9h35q12 0 8 -10l-159 -340h139q10 0 10 -9v-29q0 -7 -10 -7h-146v-54h146q10 0 10 -10v-28q0 -6 -10 -6h-146v-157q0 -12 -13 -12h-29q-14 0 -14 12v157h-142q-10 0 -10 7v29q0 8 10 8h142v54h-142q-10 0 -10 8v29q0 8 10 8h133
l-157 340q-4 10 8 10h37q10 0 15 -9z" />
    <glyph glyph-name="brokenbar" unicode="&#xa6;" horiz-adv-x="195" 
d="M122 268v-373q0 -11 -12 -11h-21q-14 0 -14 11v373q0 11 13 11h22q12 0 12 -11zM122 680v-355q0 -11 -12 -11h-21q-14 0 -14 11v355q0 12 13 12h22q12 0 12 -12z" />
    <glyph glyph-name="section" unicode="&#xa7;" horiz-adv-x="369" 
d="M343 7q0 -66 -49 -109t-126 -43q-38 0 -79 10q-42 9 -65 24q-6 4 -3 11l6 16q5 9 20 5q76 -17 123 -17q54 0 85.5 28.5t31.5 75.5q0 25 -8.5 41.5t-33.5 33.5q-22 16 -39 25l-58 30q-58 29 -88.5 63t-30.5 80q0 76 58 137q-53 41 -53 106q0 68 47.5 104.5t128.5 36.5
q78 0 125 -32q6 -4 3 -11l-6 -17q-3 -9 -18 -5q-64 16 -112 16q-51 0 -81.5 -25.5t-30.5 -67.5q0 -51 81 -94l41 -23l42 -23q15 -8 35 -24q28 -20 41 -43.5t16 -59.5q-2 -80 -57 -138q54 -46 54 -111zM291 241q0 50 -46 82q-25 19 -45 30l-62 32l-12 6q-42 -45 -42 -98
q0 -49 49 -85q38 -27 100 -53q8 -3 18 -8q40 55 40 94z" />
    <glyph glyph-name="dieresis" unicode="&#xa8;" horiz-adv-x="423" 
d="M331 612q0 -36 -31 -36q-18 0 -24.5 8.5t-6.5 27.5q0 33 31 33t31 -33zM180 612q0 -36 -31 -36q-18 0 -24.5 8.5t-6.5 27.5q0 33 31 33t31 -33z" />
    <glyph glyph-name="copyright" unicode="&#xa9;" horiz-adv-x="751" 
d="M714 326q0 -141 -99 -240q-100 -98 -240 -98q-142 0 -240 98q-98 100 -98 240q0 141 99 239q99 99 239 99q143 0 241 -98t98 -240zM587 112q88 88 88 214q0 125 -88 213q-89 89 -212 89t-212 -89q-87 -89 -87 -213q0 -126 87 -214q88 -88 212 -88t212 88zM380 118
q-79 0 -109 53.5t-30 148.5q0 87 26 143q31 64 116 64q56 0 98 -16q8 -5 7 -12l-3 -14q-1 -9 -15 -7q-60 7 -86 7q-54 0 -74.5 -39.5t-20.5 -123.5t21 -123t73 -39q42 0 92 8q11 0 13 -8l2 -14q3 -8 -6 -12q-39 -16 -104 -16z" />
    <glyph glyph-name="ordfeminine" unicode="&#xaa;" horiz-adv-x="298" 
d="M217 336v81h-88q-31 0 -46 -15t-15 -52q0 -28 10 -39.5t36 -11.5q41 0 103 37zM283 261q-7 -1 -27 -1q-34 1 -38 37q-58 -41 -115 -41q-83 0 -83 91q0 57 27.5 84t85.5 27h84v24q0 38 -15.5 53t-56.5 15q-18 0 -45 -4t-44 -4q-11 0 -11 24q0 12 37 19q35 7 70 7
q65 0 88.5 -26t23.5 -90v-153q0 -21 16 -26.5t16 -9.5v-15q0 -10 -13 -11z" />
    <glyph glyph-name="guillemotleft" unicode="&#xab;" horiz-adv-x="334" 
d="M252 42l-88 125q-8 11 1 22l87 126q9 11 20 11h32q5 0 7 -4t-1 -7l-96 -137l99 -138q2 -3 1 -6t-5 -3h-37q-12 0 -20 11zM131 42l-88 125q-8 11 1 22l86 126q11 11 20 11h33q5 0 6.5 -4t-1.5 -7l-95 -137l51 -73q13 -18 24 -33.5t16.5 -23t6.5 -8.5q2 -3 1 -6t-4 -3h-37
q-12 0 -20 11z" />
    <glyph glyph-name="logicalnot" unicode="&#xac;" 
d="M392 134h-23q-10 0 -10 10v161h-279q-11 0 -11 9v26q0 11 11 11h312q11 0 11 -10v-197q0 -10 -11 -10z" />
    <glyph glyph-name="sfthyphen" unicode="&#xad;" horiz-adv-x="310" 
d="M274 299h-236q-10 0 -10 9v29q0 9 10 9h236q10 0 10 -9v-30q0 -8 -10 -8z" />
    <glyph glyph-name="registered" unicode="&#xae;" horiz-adv-x="485" 
d="M455 507q0 -87 -62 -151q-62 -62 -149 -62q-88 0 -150 62t-62 151q0 88 62 150t150 62q90 0 150 -62q61 -61 61 -150zM244 690q-76 0 -129 -54q-53 -53 -53 -129q0 -75 53 -130q53 -54 129 -54q74 0 127 54q54 54 54 130q0 77 -54 129q-53 54 -127 54zM335 373h-22
q-7 0 -8.5 1.5t-6.5 13.5l-44 94h-51v-100q0 -9 -7 -9h-17q-7 0 -7 8v247q0 8 9 8h76q35 0 56.5 -19.5t21.5 -56.5q0 -58 -48 -74l52 -103q1 -1 1 -3l1 -2q0 -5 -6 -5zM251 606h-48v-95h50q50 0 50 49q0 46 -52 46z" />
    <glyph glyph-name="overscore" unicode="&#xaf;" horiz-adv-x="423" 
d="M342 622v-30q0 -8 -10 -8h-209q-10 0 -10 8v30q0 10 10 10h209q10 0 10 -10z" />
    <glyph glyph-name="degree" unicode="&#xb0;" horiz-adv-x="293" 
d="M154 654q46 0 78 -33q32 -32 32 -76q0 -45 -32 -76t-78 -31q-51 0 -82.5 30.5t-31.5 76.5q0 45 33 76q35 33 81 33zM221 544q0 30 -20 50t-48 20q-29 0 -49.5 -20t-20.5 -50t19 -49t51 -19q30 0 49 19.5t19 48.5z" />
    <glyph glyph-name="plusminus" unicode="&#xb1;" 
d="M402 341v-28q0 -8 -11 -8h-130v-161q0 -10 -10 -10h-29q-10 0 -10 10v161h-133q-10 0 -10 8v28q0 10 10 10h133v155q0 10 10 10h30q9 0 9 -10v-155h130q11 0 11 -10zM402 76v-27q0 -8 -11 -8h-311q-11 0 -11 9v26q0 9 11 9h311q11 0 11 -9z" />
    <glyph glyph-name="twosuperior" unicode="&#xb2;" horiz-adv-x="297" 
d="M259 650q0 -62 -50 -118l-123 -137v-1h168q12 0 12 -12v-18q0 -12 -12 -12h-220q-14 0 -14 12v16q0 10 11 24l141 156q39 44 39 84q0 35 -17 51.5t-60 16.5q-35 0 -95 -7q-8 -1 -10 7l-3 15q-1 9 7 14q28 16 101 16q125 0 125 -107z" />
    <glyph glyph-name="threesuperior" unicode="&#xb3;" horiz-adv-x="297" 
d="M272 493l1 -2q0 -79 -34.5 -111.5t-104.5 -32.5q-59 0 -104 17q-10 4 -7 14l4 12q3 10 16 9q53 -8 92 -8q45 0 67 21.5t22 77.5q0 46 -54 57l-64 11q-14 3 -14 15v17q0 8 8 16l96 102q0 1 -1 2h-155q-13 0 -13 11v20q0 12 13 12h204q16 0 16 -12v-20q0 -12 -11 -23
l-95 -100q46 -10 71 -21t34.5 -29t12.5 -55z" />
    <glyph glyph-name="acute" unicode="&#xb4;" horiz-adv-x="421" 
d="M315 679l-77 -128q-5 -6 -13 -2l-19 8q-8 3 -3 11l60 136q3 9 14 3l35 -17q8 -2 3 -11z" />
    <glyph glyph-name="mu" unicode="&#xb5;" horiz-adv-x="431" 
d="M101 10v-172q0 -13 -14 -13h-28q-8 0 -10.5 2.5t-2.5 10.5v637q0 12 14 12h28q13 0 13 -12v-315q0 -66 16.5 -92.5t61.5 -26.5q49 0 153 62v372q0 12 14 12h27q14 0 14 -12v-463q0 -12 -14 -12h-28q-14 0 -14 12v39h-3q-86 -60 -157 -60q-45 0 -70 19z" />
    <glyph glyph-name="mu" unicode="&#x3bc;" horiz-adv-x="431" 
d="M101 10v-172q0 -13 -14 -13h-28q-8 0 -10.5 2.5t-2.5 10.5v637q0 12 14 12h28q13 0 13 -12v-315q0 -66 16.5 -92.5t61.5 -26.5q49 0 153 62v372q0 12 14 12h27q14 0 14 -12v-463q0 -12 -14 -12h-28q-14 0 -14 12v39h-3q-86 -60 -157 -60q-45 0 -70 19z" />
    <glyph glyph-name="paragraph" unicode="&#xb6;" horiz-adv-x="426" 
d="M193 659h181q14 0 14 -13v-25q0 -14 -14 -14h-28v-684q0 -13 -13 -13h-24q-15 0 -15 13v685h-85v-685q0 -13 -14 -13h-24q-14 0 -14 13v389q-65 0 -101 50q-35 50 -35 114q1 84 48 133.5t124 49.5z" />
    <glyph glyph-name="middot" unicode="&#xb7;" horiz-adv-x="158" 
d="M115 253q0 -41 -36 -41q-20 0 -27.5 10t-7.5 31q0 39 35 39q20 0 28 -9t8 -30z" />
    <glyph glyph-name="cedilla" unicode="&#xb8;" horiz-adv-x="355" 
d="M169 -59l25 73h32l-20 -61q74 -5 74 -66q0 -74 -88 -74q-40 0 -63 12q-5 2 -3 8l4 15q2 7 8 5q36 -6 53 -6q43 0 43 38q0 20 -10.5 27.5t-43.5 10.5q-16 1 -11 18z" />
    <glyph glyph-name="onesuperior" unicode="&#xb9;" horiz-adv-x="253" 
d="M223 382v-19q0 -11 -12 -11h-167q-12 0 -12 11v19q0 12 12 12h57v302h-57q-13 0 -13 11v10q0 10 9 13l56 19q11 4 21 4h18q15 0 15 -13v-346h61q12 0 12 -12z" />
    <glyph glyph-name="ordmasculine" unicode="&#xba;" horiz-adv-x="294" 
d="M271 430q0 -57 -10 -96q-23 -78 -116 -78q-63 0 -94 37q-12 16 -19 41q-10 39 -10 96q0 161 123 161q79 0 104 -52q22 -41 22 -109zM145 547q-43 0 -59.5 -29t-16.5 -94q0 -66 16.5 -95.5t59.5 -29.5q44 0 61.5 29.5t17.5 95.5t-16.5 94.5t-62.5 28.5z" />
    <glyph glyph-name="guillemotright" unicode="&#xbb;" horiz-adv-x="334" 
d="M181 167l-88 -125q-8 -11 -20 -11h-37q-4 0 -5 3t1 6l99 138l-96 137q-3 3 -1 7t7 4h32q11 0 20 -11l87 -126q9 -11 1 -22zM302 167l-88 -125q-8 -11 -20 -11h-37q-3 0 -4 3t1 6l46 65q12 17 24.5 34.5t19 26.5t8.5 12l-95 137q-3 3 -1.5 7t6.5 4h33q9 0 20 -11l86 -126
q9 -11 1 -22z" />
    <glyph glyph-name="onequarter" unicode="&#xbc;" horiz-adv-x="690" 
d="M634 138v-18q0 -11 -12 -11h-38v-96q0 -13 -13 -13h-19q-13 0 -13 12v97h-176q-13 0 -13 11v16q0 10 6 19l179 235q9 11 21 11h14q14 0 14 -12v-238h38q12 0 12 -13zM405 151h134v176zM257 292v-19q0 -11 -12 -11h-167q-12 0 -12 11v19q0 12 12 12h57v302h-57
q-13 0 -13 11v10q0 10 9 13l56 19q11 4 21 4h18q15 0 15 -13v-346h61q12 0 12 -12zM488 689l-238 -703q-4 -9 -12 -9h-24q-13 0 -8 11l239 702q3 10 12 10h24q9 0 7 -11z" />
    <glyph glyph-name="onehalf" unicode="&#xbd;" horiz-adv-x="690" 
d="M635 298q0 -62 -50 -118l-123 -137v-1h168q12 0 12 -12v-18q0 -12 -12 -12h-220q-14 0 -14 12v16q0 10 11 24l141 156q39 44 39 84q0 35 -17 51.5t-60 16.5q-35 0 -95 -7q-8 -1 -10 7l-3 15q-1 9 7 14q28 16 101 16q125 0 125 -107zM240 292v-19q0 -11 -12 -11h-167
q-12 0 -12 11v19q0 12 12 12h57v302h-57q-13 0 -13 11v10q0 10 9 13l56 19q11 4 21 4h18q15 0 15 -13v-346h61q12 0 12 -12zM466 689l-238 -703q-4 -9 -12 -9h-24q-13 0 -8 11l239 702q3 10 12 10h24q9 0 7 -11z" />
    <glyph glyph-name="threequarters" unicode="&#xbe;" horiz-adv-x="690" 
d="M288 403l1 -2q0 -79 -34.5 -111.5t-104.5 -32.5q-59 0 -104 17q-10 4 -7 14l4 12q3 10 16 9q53 -8 92 -8q45 0 67 21.5t22 77.5q0 46 -54 57l-64 11q-14 3 -14 15v17q0 8 8 16l96 102q0 1 -1 2h-155q-13 0 -13 11v20q0 12 13 12h204q16 0 16 -12v-20q0 -12 -11 -23
l-95 -100q46 -10 71 -21t34.5 -29t12.5 -55zM663 138v-18q0 -11 -12 -11h-38v-96q0 -13 -13 -13h-19q-13 0 -13 12v97h-176q-13 0 -13 11v16q0 10 6 19l179 235q9 11 21 11h14q14 0 14 -12v-238h38q12 0 12 -13zM434 151h134v176zM504 689l-238 -703q-4 -9 -12 -9h-24
q-13 0 -8 11l239 702q3 10 12 10h24q9 0 7 -11z" />
    <glyph glyph-name="questiondown" unicode="&#xbf;" horiz-adv-x="300" 
d="M12 -47q0 29 12 55q8 17 16.5 29t16 19.5t25.5 22.5q47 39 68.5 77t22.5 91q0 54 -1 63q0 12 11 12h25q11 0 13 -11q2 -16 2 -74q0 -102 -105 -192q-52 -43 -52 -87q0 -52 26.5 -74.5t82.5 -22.5q50 0 97 6q11 2 13 -9l3 -19q1 -10 -10 -15q-46 -17 -109 -17
q-73 0 -115 36.5t-42 109.5zM157 447q0 40 36 40q22 0 29.5 -9t7.5 -31q0 -39 -37 -39q-20 0 -28 9t-8 30z" />
    <glyph glyph-name="Agrave" unicode="&#xc0;" horiz-adv-x="465" 
d="M267 651l184 -640q0 -1 0.5 -3l0.5 -2q0 -6 -8 -6h-42q-10 0 -14 9l-46 173h-225l-46 -171q-2 -11 -15 -11h-37q-9 0 -9 6q0 4 1 5l185 640q5 11 15 11h41q10 0 15 -11zM232 589h-4l-97 -356h198l-57 206q-36 132 -40 150zM100 799l22 31q7 10 16 3l111 -90q7 -4 2 -12
l-12 -16q-5 -8 -13 -3l-122 75q-9 4 -4 12z" />
    <glyph glyph-name="Aacute" unicode="&#xc1;" horiz-adv-x="465" 
d="M267 651l184 -640q0 -1 0.5 -3l0.5 -2q0 -6 -8 -6h-42q-10 0 -14 9l-46 173h-225l-46 -171q-2 -11 -15 -11h-37q-9 0 -9 6q0 4 1 5l185 640q5 11 15 11h41q10 0 15 -11zM232 589h-4l-97 -356h198l-57 206q-36 132 -40 150zM335 830l22 -31q5 -8 -4 -12l-122 -75
q-8 -5 -13 3l-12 16q-5 8 2 12l111 90q9 7 16 -3z" />
    <glyph glyph-name="Acircumflex" unicode="&#xc2;" horiz-adv-x="465" 
d="M267 651l184 -640q0 -1 0.5 -3l0.5 -2q0 -6 -8 -6h-42q-10 0 -14 9l-46 173h-225l-46 -171q-2 -11 -15 -11h-37q-9 0 -9 6q0 4 1 5l185 640q5 11 15 11h41q10 0 15 -11zM232 589h-4l-97 -356h198l-57 206q-36 132 -40 150zM214 833h28q17 0 25 -8l85 -88q5 -8 1 -12
l-14 -15q-6 -4 -13 0l-99 78l-99 -81q-8 -6 -12 1l-13 14q-4 6 0 13l86 91q7 7 25 7z" />
    <glyph glyph-name="Atilde" unicode="&#xc3;" horiz-adv-x="465" 
d="M267 651l184 -640q0 -1 0.5 -3l0.5 -2q0 -6 -8 -6h-42q-10 0 -14 9l-46 173h-225l-46 -171q-2 -11 -15 -11h-37q-9 0 -9 6q0 4 1 5l185 640q5 11 15 11h41q10 0 15 -11zM232 589h-4l-97 -356h198l-57 206q-36 132 -40 150zM294 718q-25 0 -68 26q-38 23 -54 23
q-22 0 -41 -37q-6 -11 -17 -6l-14 6q-8 4 -4 17q27 66 77 66q23 0 70 -27q37 -22 52 -22q21 0 38 35q8 11 18 7l13 -6q10 -3 5 -14q-23 -68 -75 -68z" />
    <glyph glyph-name="Adieresis" unicode="&#xc4;" horiz-adv-x="465" 
d="M267 651l184 -640q0 -1 0.5 -3l0.5 -2q0 -6 -8 -6h-42q-10 0 -14 9l-46 173h-225l-46 -171q-2 -11 -15 -11h-37q-9 0 -9 6q0 4 1 5l185 640q5 11 15 11h41q10 0 15 -11zM232 589h-4l-97 -356h198l-57 206q-36 132 -40 150zM272 765q0 33 30 33q24 4 29.5 -19.5
t-4.5 -39.5q-6 -9 -25 -9q-18 0 -24 8t-6 27zM188 765q0 -35 -30 -35q-18 0 -24.5 8.5t-6.5 26.5q0 33 31 33q17 0 23.5 -7.5t6.5 -25.5z" />
    <glyph glyph-name="Aring" unicode="&#xc5;" horiz-adv-x="465" 
d="M267 651l184 -640q0 -1 0.5 -3l0.5 -2q0 -6 -8 -6h-42q-10 0 -14 9l-46 173h-225l-46 -171q-2 -11 -15 -11h-37q-9 0 -9 6q0 4 1 5l185 640q5 11 15 11h41q10 0 15 -11zM232 589h-4l-97 -356h198l-57 206q-36 132 -40 150zM283 780q0 21 -14.5 36.5t-35.5 15.5
t-35.5 -15.5t-14.5 -36.5q0 -24 13.5 -38.5t36.5 -14.5q21 0 35.5 15.5t14.5 37.5zM233 866q38 2 63.5 -25t24.5 -61t-25 -61q-24 -25 -63 -25t-64.5 24t-25.5 62q0 37 26 61.5t64 24.5z" />
    <glyph glyph-name="AE" unicode="&#xc6;" horiz-adv-x="711" 
d="M688 41v-31q0 -10 -12 -10h-307q-12 0 -12 10v172h-199l-84 -171q-5 -11 -17 -11h-40q-11 0 -6 12l314 640q6 11 16 11h321q12 0 12 -11v-31q0 -11 -13 -11h-247v-234h222q11 0 11 -10v-29q0 -12 -11 -12h-222v-273h263q11 0 11 -11zM357 233v359h-4l-171 -359h175z" />
    <glyph glyph-name="Ccedilla" unicode="&#xc7;" horiz-adv-x="456" 
d="M279 614q-105 0 -137 -92q-26 -74 -26 -198q0 -115 29 -192q36 -85 133 -85q52 0 143 10q11 1 15 -9l3 -18q3 -11 -7 -15q-54 -21 -159 -24l-13 -39q74 -5 74 -65q0 -36 -23 -55.5t-65 -19.5q-28 0 -61 11q-6 3 -5 10l3 14q2 7 11 5q30 -6 51 -6q43 0 43 39
q0 19 -11 26.5t-43 10.5q-17 2 -11 19l17 52q-109 13 -150 110q-35 90 -35 221q0 145 40 239q48 106 181 106q94 0 154 -22q10 -4 9 -16l-3 -19q-1 -10 -15 -8q-84 10 -142 10z" />
    <glyph glyph-name="Egrave" unicode="&#xc8;" horiz-adv-x="424" 
d="M397 41v-31q0 -10 -11 -10h-317q-12 0 -12 10v641q0 12 12 12h303q11 0 11 -11v-31q0 -11 -12 -11h-256v-234h230q11 0 11 -10v-29q0 -12 -11 -12h-230v-273h271q11 0 11 -11zM100 799l22 31q7 10 16 3l111 -90q7 -4 2 -12l-12 -16q-5 -8 -13 -3l-122 75q-9 4 -4 12z" />
    <glyph glyph-name="Eacute" unicode="&#xc9;" horiz-adv-x="424" 
d="M397 41v-31q0 -10 -11 -10h-317q-12 0 -12 10v641q0 12 12 12h303q11 0 11 -11v-31q0 -11 -12 -11h-256v-234h230q11 0 11 -10v-29q0 -12 -11 -12h-230v-273h271q11 0 11 -11zM304 830l22 -31q5 -8 -4 -12l-122 -75q-8 -5 -13 3l-12 16q-5 8 2 12l111 90q9 7 16 -3z" />
    <glyph glyph-name="Ecircumflex" unicode="&#xca;" horiz-adv-x="424" 
d="M397 41v-31q0 -10 -11 -10h-317q-12 0 -12 10v641q0 12 12 12h303q11 0 11 -11v-31q0 -11 -12 -11h-256v-234h230q11 0 11 -10v-29q0 -12 -11 -12h-230v-273h271q11 0 11 -11zM208 833h28q17 0 25 -8l85 -88q5 -8 1 -12l-14 -15q-6 -4 -13 0l-99 78l-99 -81q-8 -6 -12 1
l-13 14q-4 6 0 13l86 91q7 7 25 7z" />
    <glyph glyph-name="Edieresis" unicode="&#xcb;" horiz-adv-x="424" 
d="M397 41v-31q0 -10 -11 -10h-317q-12 0 -12 10v641q0 12 12 12h303q11 0 11 -11v-31q0 -11 -12 -11h-256v-234h230q11 0 11 -10v-29q0 -12 -11 -12h-230v-273h271q11 0 11 -11zM267 765q0 33 30 33q24 4 29.5 -19.5t-4.5 -39.5q-6 -9 -25 -9q-18 0 -24 8t-6 27zM183 765
q0 -35 -30 -35q-18 0 -24.5 8.5t-6.5 26.5q0 33 31 33q17 0 23.5 -7.5t6.5 -25.5z" />
    <glyph glyph-name="Igrave" unicode="&#xcc;" horiz-adv-x="195" 
d="M-13 799l22 31q7 10 16 3l111 -90q7 -4 2 -12l-12 -16q-5 -8 -13 -3l-122 75q-9 4 -4 12zM131 651v-640q0 -11 -13 -11h-32q-13 0 -13 11v640q0 12 13 12h32q13 0 13 -12z" />
    <glyph glyph-name="Iacute" unicode="&#xcd;" horiz-adv-x="195" 
d="M202 830l22 -31q5 -8 -4 -12l-122 -75q-8 -5 -13 3l-12 16q-5 8 2 12l111 90q9 7 16 -3zM128 651v-640q0 -11 -13 -11h-32q-13 0 -13 11v640q0 12 13 12h32q13 0 13 -12z" />
    <glyph glyph-name="Icircumflex" unicode="&#xce;" horiz-adv-x="195" 
d="M94 833h28q17 0 25 -8l85 -88q5 -8 1 -12l-14 -15q-6 -4 -13 0l-99 78l-99 -81q-8 -6 -12 1l-13 14q-4 6 0 13l86 91q7 7 25 7zM131 651v-640q0 -11 -13 -11h-32q-13 0 -13 11v640q0 12 13 12h32q13 0 13 -12z" />
    <glyph glyph-name="Idieresis" unicode="&#xcf;" horiz-adv-x="195" 
d="M147 765q0 33 30 33q24 4 29.5 -19.5t-4.5 -39.5q-6 -9 -25 -9q-18 0 -24 8t-6 27zM63 765q0 -35 -30 -35q-18 0 -24.5 8.5t-6.5 26.5q0 33 31 33q17 0 23.5 -7.5t6.5 -25.5zM126 651v-640q0 -11 -13 -11h-32q-13 0 -13 11v640q0 12 13 12h32q13 0 13 -12z" />
    <glyph glyph-name="Eth" unicode="&#xd0;" horiz-adv-x="525" 
d="M474 333q0 -149 -49 -236q-54 -97 -207 -97h-142q-15 0 -15 12v307h-42q-10 0 -10 9v30q0 9 10 9h42v283q0 12 14 12h143q151 0 206 -96q50 -85 50 -233zM238 358v-31q0 -8 -10 -8h-110v-267h97q102 0 150.5 66.5t48.5 206.5q0 144 -46 214.5t-145 70.5h-105v-243h110
q10 0 10 -9z" />
    <glyph glyph-name="Ntilde" unicode="&#xd1;" horiz-adv-x="536" 
d="M118 548q-1 -1 -4 -1v-535q0 -12 -12 -12h-31q-13 0 -13 12v640q0 11 12 11h32q10 0 18 -11l206 -365l48 -89q36 -67 48 -85v537q0 13 13 13h31q12 0 12 -13v-639q0 -11 -12 -11h-31q-10 0 -18 11l-245 433q-36 65 -54 104zM335 714q-25 0 -68 26q-38 23 -54 23
q-22 0 -41 -37q-6 -11 -17 -6l-14 6q-8 4 -4 17q27 66 77 66q24 0 70 -27q37 -22 52 -22q20 0 38 35q8 11 18 7l13 -6q10 -3 5 -14q-23 -68 -75 -68z" />
    <glyph glyph-name="Ograve" unicode="&#xd2;" horiz-adv-x="545" 
d="M494 341q0 -31 -2 -73q-2 -82 -21 -136q-45 -141 -202 -141q-133 -5 -187 110q-14 29 -22 75q-10 75 -10 165q0 29 2 71q9 99 32 145q59 114 186 114q112 0 165 -67q23 -28 37 -75q22 -71 22 -188zM436 331q0 150 -37 219t-130 69q-86 0 -122.5 -71t-36.5 -217
q0 -129 29 -205q35 -83 130 -83q91 0 129 70.5t38 217.5zM163 799l22 31q7 10 16 3l111 -90q7 -4 2 -12l-12 -16q-5 -8 -13 -3l-122 75q-9 4 -4 12z" />
    <glyph glyph-name="Oacute" unicode="&#xd3;" horiz-adv-x="545" 
d="M494 341q0 -31 -2 -73q-2 -82 -21 -136q-45 -141 -202 -141q-133 -5 -187 110q-14 29 -22 75q-10 75 -10 165q0 29 2 71q9 99 32 145q59 114 186 114q112 0 165 -67q23 -28 37 -75q22 -71 22 -188zM436 331q0 150 -37 219t-130 69q-86 0 -122.5 -71t-36.5 -217
q0 -129 29 -205q35 -83 130 -83q91 0 129 70.5t38 217.5zM362 830l22 -31q5 -8 -4 -12l-122 -75q-8 -5 -13 3l-12 16q-5 8 2 12l111 90q9 7 16 -3z" />
    <glyph glyph-name="Ocircumflex" unicode="&#xd4;" horiz-adv-x="545" 
d="M494 341q0 -31 -2 -73q-2 -82 -21 -136q-45 -141 -202 -141q-133 -5 -187 110q-14 29 -22 75q-10 75 -10 165q0 29 2 71q9 99 32 145q59 114 186 114q112 0 165 -67q23 -28 37 -75q22 -71 22 -188zM436 331q0 150 -37 219t-130 69q-86 0 -122.5 -71t-36.5 -217
q0 -129 29 -205q35 -83 130 -83q91 0 129 70.5t38 217.5zM259 833h28q17 0 25 -8l85 -88q5 -8 1 -12l-14 -15q-6 -4 -13 0l-99 78l-99 -81q-8 -6 -12 1l-13 14q-4 6 0 13l86 91q7 7 25 7z" />
    <glyph glyph-name="Otilde" unicode="&#xd5;" horiz-adv-x="545" 
d="M494 341q0 -31 -2 -73q-2 -82 -21 -136q-45 -141 -202 -141q-133 -5 -187 110q-14 29 -22 75q-10 75 -10 165q0 29 2 71q9 99 32 145q59 114 186 114q112 0 165 -67q23 -28 37 -75q22 -71 22 -188zM436 331q0 150 -37 219t-130 69q-86 0 -122.5 -71t-36.5 -217
q0 -129 29 -205q35 -83 130 -83q91 0 129 70.5t38 217.5zM334 728q-25 0 -68 26q-38 23 -54 23q-22 0 -41 -37q-6 -11 -17 -6l-14 6q-8 4 -4 17q27 66 77 66q24 0 70 -27q37 -22 52 -22q21 0 38 35q8 11 18 7l13 -6q10 -3 5 -14q-23 -68 -75 -68z" />
    <glyph glyph-name="Odieresis" unicode="&#xd6;" horiz-adv-x="545" 
d="M494 341q0 -31 -2 -73q-2 -82 -21 -136q-45 -141 -202 -141q-133 -5 -187 110q-14 29 -22 75q-10 75 -10 165q0 29 2 71q9 99 32 145q59 114 186 114q112 0 165 -67q23 -28 37 -75q22 -71 22 -188zM436 331q0 150 -37 219t-130 69q-86 0 -122.5 -71t-36.5 -217
q0 -129 29 -205q35 -83 130 -83q91 0 129 70.5t38 217.5zM312 765q0 33 30 33q24 4 29.5 -19.5t-4.5 -39.5q-6 -9 -25 -9q-18 0 -24 8t-6 27zM228 765q0 -35 -30 -35q-18 0 -24.5 8.5t-6.5 26.5q0 33 31 33q17 0 23.5 -7.5t6.5 -25.5z" />
    <glyph glyph-name="multiply" unicode="&#xd7;" 
d="M355 163l-111 127l-115 -132q-7 -8 -13 -1l-22 21q-7 7 0 14l119 135l-115 133q-7 6 -1 12l21 19q6 7 13 0l112 -129l112 128q7 7 14 0l22 -20q6 -6 -1 -12l-115 -132l115 -131q7 -7 0 -14l-22 -20q-6 -5 -13 2z" />
    <glyph glyph-name="Oslash" unicode="&#xd8;" horiz-adv-x="545" 
d="M494 341q0 -31 -2 -73q-2 -82 -21 -136q-45 -141 -202 -141q-93 0 -146 50l-27 -49q-6 -8 -13 -4l-21 11q-8 5 -2 13l36 64q-46 73 -46 265q0 29 2 71q9 99 32 145q59 114 186 114q87 0 137 -41l22 39q6 10 14 5l19 -11q7 -4 2 -12l-28 -50q58 -74 58 -260zM436 331
q0 145 -33 211l-248 -445q37 -54 114 -54q91 0 129 70.5t38 217.5zM110 331q0 -124 23 -190l245 437q-38 41 -109 41q-86 0 -122.5 -71t-36.5 -217z" />
    <glyph glyph-name="Ugrave" unicode="&#xd9;" horiz-adv-x="521" 
d="M466 649v-420q0 -115 -51.5 -176t-154.5 -61q-205 0 -205 237v420q0 14 15 14h29q14 0 14 -14v-416q0 -95 35.5 -141.5t111.5 -46.5q149 0 149 188v416q0 14 15 14h28q14 0 14 -14zM156 799l22 31q7 10 16 3l111 -90q7 -4 2 -12l-12 -16q-5 -8 -13 -3l-122 75q-9 4 -4 12
z" />
    <glyph glyph-name="Uacute" unicode="&#xda;" horiz-adv-x="521" 
d="M466 649v-420q0 -115 -51.5 -176t-154.5 -61q-205 0 -205 237v420q0 14 15 14h29q14 0 14 -14v-416q0 -95 35.5 -141.5t111.5 -46.5q149 0 149 188v416q0 14 15 14h28q14 0 14 -14zM349 830l22 -31q5 -8 -4 -12l-122 -75q-8 -5 -13 3l-12 16q-5 8 2 12l111 90q9 7 16 -3z
" />
    <glyph glyph-name="Ucircumflex" unicode="&#xdb;" horiz-adv-x="521" 
d="M466 649v-420q0 -115 -51.5 -176t-154.5 -61q-205 0 -205 237v420q0 14 15 14h29q14 0 14 -14v-416q0 -95 35.5 -141.5t111.5 -46.5q149 0 149 188v416q0 14 15 14h28q14 0 14 -14zM249 833h28q17 0 25 -8l85 -88q5 -8 1 -12l-14 -15q-6 -4 -13 0l-99 78l-99 -81
q-8 -6 -12 1l-13 14q-4 6 0 13l86 91q7 7 25 7z" />
    <glyph glyph-name="Udieresis" unicode="&#xdc;" horiz-adv-x="521" 
d="M466 649v-420q0 -115 -51.5 -176t-154.5 -61q-205 0 -205 237v420q0 14 15 14h29q14 0 14 -14v-416q0 -95 35.5 -141.5t111.5 -46.5q149 0 149 188v416q0 14 15 14h28q14 0 14 -14zM304 765q0 33 30 33q24 4 29.5 -19.5t-4.5 -39.5q-6 -9 -25 -9q-18 0 -24 8t-6 27z
M220 765q0 -35 -30 -35q-18 0 -24.5 8.5t-6.5 26.5q0 33 31 33q17 0 23.5 -7.5t6.5 -25.5z" />
    <glyph glyph-name="Yacute" unicode="&#xdd;" horiz-adv-x="429" 
d="M160 485l57 -133h5q15 41 58 132l80 169q4 9 15 9h39q10 0 7 -10l-174 -358v-282q0 -12 -10 -12h-33q-13 0 -13 12v282l-172 359q-5 9 7 9h42q8 0 13 -9zM313 830l22 -31q5 -8 -4 -12l-122 -75q-8 -5 -13 3l-12 16q-5 8 2 12l111 90q9 7 16 -3z" />
    <glyph glyph-name="Thorn" unicode="&#xde;" horiz-adv-x="433" 
d="M412 340q0 -37 -9.5 -70t-30 -62.5t-59 -47t-91.5 -17.5h-109v-131q0 -12 -12 -12h-33q-13 0 -13 12v639q0 12 12 12h33q13 0 13 -12v-123h107q89 0 140.5 -48.5t51.5 -139.5zM355 339q0 68 -37.5 102.5t-106.5 34.5h-98v-282h108q60 0 97 37t37 108z" />
    <glyph glyph-name="germandbls" unicode="&#xdf;" horiz-adv-x="427" 
d="M293 413v-4q43 -11 65 -42q23 -29 31 -66t8 -98q0 -100 -40.5 -155.5t-121.5 -55.5q-31 0 -53 6q-14 4 -12 15q0 1 1.5 10t1.5 10q3 12 21 10q14 -2 32 -2q59 0 86 40.5t27 123.5q0 89 -28.5 128t-95.5 40q-13 0 -13 9v23q0 10 14 13q41 9 63.5 44.5t22.5 83.5
q0 54 -26 82.5t-73 28.5q-102 0 -102 -137v-515q0 -12 -14 -12h-28q-13 0 -13 12v509q-1 96 42 145.5t114 49.5q74 0 116 -42.5t42 -120.5q0 -32 -17 -74q-17 -40 -50 -59z" />
    <glyph glyph-name="agrave" unicode="&#xe0;" horiz-adv-x="440" 
d="M325 105v136h-134q-100 0 -100 -113q0 -48 16.5 -66.5t58.5 -18.5q33 0 81 20q47 21 78 42zM220 498q87 0 122 -35.5t37 -119.5v-263q0 -26 5.5 -32.5t28.5 -8.5q12 0 12 -9v-19q0 -9 -9 -12q-9 -4 -30 -4q-32 0 -45 12.5t-16 45.5q-49 -32 -87.5 -46.5t-87.5 -14.5
q-115 0 -115 132q0 86 38.5 125.5t121.5 39.5h130v43q0 61 -25 87.5t-85 26.5q-48 0 -124 -10q-17 -2 -18 8l-3 17q-2 11 8 14q58 23 142 23zM234 550l-77 129q-4 7 3 11l38 19q8 3 11 -5l60 -136l2 -6q0 -3 -5 -5l-19 -10q-1 0 -3 -1t-3 -1q-4 0 -7 5z" />
    <glyph glyph-name="aacute" unicode="&#xe1;" horiz-adv-x="440" 
d="M325 105v136h-134q-100 0 -100 -113q0 -48 16.5 -66.5t58.5 -18.5q33 0 81 20q47 21 78 42zM220 498q87 0 122 -35.5t37 -119.5v-263q0 -26 5.5 -32.5t28.5 -8.5q12 0 12 -9v-19q0 -9 -9 -12q-9 -4 -30 -4q-32 0 -45 12.5t-16 45.5q-49 -32 -87.5 -46.5t-87.5 -14.5
q-115 0 -115 132q0 86 38.5 125.5t121.5 39.5h130v43q0 61 -25 87.5t-85 26.5q-48 0 -124 -10q-17 -2 -18 8l-3 17q-2 11 8 14q58 23 142 23zM311 679l-77 -128q-5 -6 -13 -2l-19 8q-8 3 -3 11l60 136q3 9 14 3l35 -17q8 -2 3 -11z" />
    <glyph glyph-name="acircumflex" unicode="&#xe2;" horiz-adv-x="440" 
d="M325 105v136h-134q-100 0 -100 -113q0 -48 16.5 -66.5t58.5 -18.5q33 0 81 20q47 21 78 42zM220 498q87 0 122 -35.5t37 -119.5v-263q0 -26 5.5 -32.5t28.5 -8.5q12 0 12 -9v-19q0 -9 -9 -12q-9 -4 -30 -4q-32 0 -45 12.5t-16 45.5q-49 -32 -87.5 -46.5t-87.5 -14.5
q-115 0 -115 132q0 86 38.5 125.5t121.5 39.5h130v43q0 61 -25 87.5t-85 26.5q-48 0 -124 -10q-17 -2 -18 8l-3 17q-2 11 8 14q58 23 142 23zM208 694h37q17 0 22 -8l80 -115q5 -8 1 -12l-15 -13q-7 -6 -13 0l-93 102l-94 -102q-6 -6 -13 0l-15 13q-4 4 1 12l80 115
q5 8 22 8z" />
    <glyph glyph-name="atilde" unicode="&#xe3;" horiz-adv-x="440" 
d="M325 105v136h-134q-100 0 -100 -113q0 -48 16.5 -66.5t58.5 -18.5q33 0 81 20q47 21 78 42zM220 498q87 0 122 -35.5t37 -119.5v-263q0 -26 5.5 -32.5t28.5 -8.5q12 0 12 -9v-19q0 -9 -9 -12q-9 -4 -30 -4q-32 0 -45 12.5t-16 45.5q-49 -32 -87.5 -46.5t-87.5 -14.5
q-115 0 -115 132q0 86 38.5 125.5t121.5 39.5h130v43q0 61 -25 87.5t-85 26.5q-48 0 -124 -10q-17 -2 -18 8l-3 17q-2 11 8 14q58 23 142 23zM284 569q-25 0 -68 26q-38 23 -54 23q-22 0 -41 -37q-6 -11 -17 -6l-14 6q-9 4 -4 17q27 66 77 66q24 0 70 -27q37 -22 52 -22
q21 0 38 35q8 11 18 7l13 -6q10 -3 5 -14q-23 -68 -75 -68z" />
    <glyph glyph-name="adieresis" unicode="&#xe4;" horiz-adv-x="440" 
d="M325 105v136h-134q-100 0 -100 -113q0 -48 16.5 -66.5t58.5 -18.5q33 0 81 20q47 21 78 42zM220 498q87 0 122 -35.5t37 -119.5v-263q0 -26 5.5 -32.5t28.5 -8.5q12 0 12 -9v-19q0 -9 -9 -12q-9 -4 -30 -4q-32 0 -45 12.5t-16 45.5q-49 -32 -87.5 -46.5t-87.5 -14.5
q-115 0 -115 132q0 86 38.5 125.5t121.5 39.5h130v43q0 61 -25 87.5t-85 26.5q-48 0 -124 -10q-17 -2 -18 8l-3 17q-2 11 8 14q58 23 142 23zM327 612q0 -36 -31 -36q-18 0 -24.5 8.5t-6.5 27.5q0 33 31 33t31 -33zM176 612q0 -36 -31 -36q-18 0 -24.5 8.5t-6.5 27.5
q0 33 31 33t31 -33z" />
    <glyph glyph-name="aring" unicode="&#xe5;" horiz-adv-x="440" 
d="M325 105v136h-134q-100 0 -100 -113q0 -48 16.5 -66.5t58.5 -18.5q33 0 81 20q47 21 78 42zM220 498q87 0 122 -35.5t37 -119.5v-263q0 -26 5.5 -32.5t28.5 -8.5q12 0 12 -9v-19q0 -9 -9 -12q-9 -4 -30 -4q-32 0 -45 12.5t-16 45.5q-49 -32 -87.5 -46.5t-87.5 -14.5
q-115 0 -115 132q0 86 38.5 125.5t121.5 39.5h130v43q0 61 -25 87.5t-85 26.5q-48 0 -124 -10q-17 -2 -18 8l-3 17q-2 11 8 14q58 23 142 23zM276 621q0 21 -14.5 36.5t-35.5 15.5t-35.5 -15.5t-14.5 -36.5q0 -24 13.5 -38.5t36.5 -14.5q21 0 35.5 15.5t14.5 37.5zM226 707
q38 2 63.5 -25t24.5 -61t-25 -61q-24 -25 -63 -25t-64.5 24t-25.5 62q0 37 26 61.5t64 24.5z" />
    <glyph glyph-name="ae" unicode="&#xe6;" horiz-adv-x="694" 
d="M324 229h-139q-50 0 -73 -22t-23 -79q0 -48 16 -66.5t58 -18.5q58 0 173 70q-12 45 -12 116zM496 447q-59 0 -85.5 -42t-28.5 -128h233q0 71 -21 117q-24 53 -98 53zM495 -9q-105 0 -144 78q-95 -77 -203 -77q-61 0 -88.5 32t-27.5 100q0 82 37.5 118t120.5 36h134v57
q0 61 -24.5 86t-86.5 25q-48 0 -124 -10q-17 -2 -18 8l-3 17q-2 11 8 14q58 23 142 23q116 0 143 -71q43 70 136 70q105 0 142 -67q33 -59 33 -149q0 -51 -36 -51h-255q1 -99 27 -142.5t91 -43.5q44 0 127 11q14 2 16 -9l3 -16q2 -11 -7 -14q-60 -25 -143 -25z" />
    <glyph glyph-name="ccedilla" unicode="&#xe7;" horiz-adv-x="355" 
d="M338 13q-41 -17 -121 -22l-12 -38q74 -5 74 -66q0 -74 -88 -74q-41 0 -63 12q-5 2 -3 8l4 15q2 7 8 5q36 -6 53 -6q43 0 43 38q0 20 -10.5 27.5t-43.5 10.5q-16 1 -11 18l17 51q-74 4 -110 50q-16 20 -25 54q-15 56 -15 147q0 88 16 146q16 52 52 79t100 29q79 0 133 -22
q10 -3 8 -14l-3 -17q-1 -10 -18 -8q-76 10 -117 10q-63 0 -88 -44.5t-25 -155.5q0 -116 24 -160q26 -44 89 -44q61 0 121 10q14 2 16 -9l3 -16q2 -9 -8 -14z" />
    <glyph glyph-name="egrave" unicode="&#xe8;" horiz-adv-x="410" 
d="M209 447q-60 0 -86.5 -42t-29.5 -131h234q0 73 -21 119q-23 54 -97 54zM209 -9q-86 0 -129 50q-17 21 -28 57q-16 59 -16 147q0 76 16 135q35 117 158 117q105 0 141 -69q33 -60 33 -151q0 -26 -8.5 -37.5t-28.5 -11.5h-253q1 -99 27.5 -141.5t91.5 -42.5q44 0 127 11
q14 2 16 -9l3 -16q2 -11 -7 -14q-60 -25 -143 -25zM203 550l-77 129q-4 7 3 11l38 19q8 3 11 -5l60 -136l2 -6q0 -3 -5 -5l-19 -10l-6 -2q-4 0 -7 5z" />
    <glyph glyph-name="eacute" unicode="&#xe9;" horiz-adv-x="410" 
d="M209 447q-60 0 -86.5 -42t-29.5 -131h234q0 73 -21 119q-23 54 -97 54zM209 -9q-86 0 -129 50q-17 21 -28 57q-16 59 -16 147q0 76 16 135q35 117 158 117q105 0 141 -69q33 -60 33 -151q0 -26 -8.5 -37.5t-28.5 -11.5h-253q1 -99 27.5 -141.5t91.5 -42.5q44 0 127 11
q14 2 16 -9l3 -16q2 -11 -7 -14q-60 -25 -143 -25zM293 679l-77 -128q-5 -6 -13 -2l-19 8q-8 3 -3 11l60 136q3 9 14 3l35 -17q8 -2 3 -11z" />
    <glyph glyph-name="ecircumflex" unicode="&#xea;" horiz-adv-x="410" 
d="M209 447q-60 0 -86.5 -42t-29.5 -131h234q0 73 -21 119q-23 54 -97 54zM209 -9q-86 0 -129 50q-17 21 -28 57q-16 59 -16 147q0 76 16 135q35 117 158 117q105 0 141 -69q33 -60 33 -151q0 -26 -8.5 -37.5t-28.5 -11.5h-253q1 -99 27.5 -141.5t91.5 -42.5q44 0 127 11
q14 2 16 -9l3 -16q2 -11 -7 -14q-60 -25 -143 -25zM193 694h37q17 0 22 -8l80 -115q5 -8 1 -12l-15 -13q-7 -6 -13 0l-93 102l-94 -102q-6 -6 -13 0l-15 13q-4 4 1 12l80 115q5 8 22 8z" />
    <glyph glyph-name="edieresis" unicode="&#xeb;" horiz-adv-x="410" 
d="M209 447q-60 0 -86.5 -42t-29.5 -131h234q0 73 -21 119q-23 54 -97 54zM209 -9q-86 0 -129 50q-17 21 -28 57q-16 59 -16 147q0 76 16 135q35 117 158 117q105 0 141 -69q33 -60 33 -151q0 -26 -8.5 -37.5t-28.5 -11.5h-253q1 -99 27.5 -141.5t91.5 -42.5q44 0 127 11
q14 2 16 -9l3 -16q2 -11 -7 -14q-60 -25 -143 -25zM314 612q0 -36 -31 -36q-18 0 -24.5 8.5t-6.5 27.5q0 33 31 33t31 -33zM163 612q0 -36 -31 -36q-18 0 -24.5 8.5t-6.5 27.5q0 33 31 33t31 -33z" />
    <glyph glyph-name="igrave" unicode="&#xec;" horiz-adv-x="197" 
d="M91 550l-77 129q-4 7 3 11l38 19q8 3 11 -5l60 -136l2 -6q0 -3 -5 -5l-19 -10q-1 0 -3 -1t-3 -1q-4 0 -7 5zM129 475v-464q0 -11 -11 -11h-30q-13 0 -13 11v464q0 12 13 12h31q10 0 10 -12z" />
    <glyph glyph-name="iacute" unicode="&#xed;" horiz-adv-x="197" 
d="M187 679l-77 -128q-5 -6 -13 -2l-19 8q-8 3 -3 11l60 136q3 9 14 3l35 -17q8 -2 3 -11zM126 475v-464q0 -11 -11 -11h-30q-13 0 -13 11v464q0 12 13 12h31q10 0 10 -12z" />
    <glyph glyph-name="icircumflex" unicode="&#xee;" horiz-adv-x="197" 
d="M85 694h37q17 0 22 -8l80 -115q5 -8 1 -12l-15 -13q-7 -6 -13 0l-93 102l-94 -102q-6 -6 -13 0l-15 13q-4 4 1 12l80 115q5 8 22 8zM129 475v-464q0 -11 -11 -11h-30q-13 0 -13 11v464q0 12 13 12h31q10 0 10 -12z" />
    <glyph glyph-name="idieresis" unicode="&#xef;" horiz-adv-x="197" 
d="M205 612q0 -36 -31 -36q-18 0 -24.5 8.5t-6.5 27.5q0 33 31 33t31 -33zM54 612q0 -36 -31 -36q-18 0 -24.5 8.5t-6.5 27.5q0 33 31 33t31 -33zM125 475v-464q0 -11 -11 -11h-30q-13 0 -13 11v464q0 12 13 12h31q10 0 10 -12z" />
    <glyph glyph-name="eth" unicode="&#xf0;" horiz-adv-x="426" 
d="M324 401q-53 41 -116 41q-72 0 -96 -62q-20 -53 -20 -142q0 -35 2.5 -61.5t10 -53.5t20 -44t34 -28t51.5 -11q78 0 102 67q22 57 22 157q0 81 -10 137zM357 641l-64 -29q98 -122 98 -338q0 -118 -30 -192q-36 -89 -150 -89q-89 0 -131 54q-18 23 -29 58q-15 54 -15 130
q0 80 15 137q33 116 158 120q58 0 102 -31l4 2q-26 77 -69 128l-86 -39q-7 -4 -12 4l-8 19q-5 11 5 15l71 32q-38 34 -101 72q-7 4 -3 13l8 16q4 9 11 9q4 0 10 -3q72 -35 124 -84l77 34q7 4 12 -4l8 -19q5 -11 -5 -15z" />
    <glyph glyph-name="ntilde" unicode="&#xf1;" horiz-adv-x="420" 
d="M254 496q66 0 96 -34q13 -13 21 -41q10 -39 10 -107v-303q0 -11 -13 -11h-32q-12 0 -12 11v153q1 69 1 154q0 71 -16 99.5t-63 28.5q-50 0 -151 -57v-378q0 -11 -13 -11h-30q-12 0 -12 11v464q0 12 12 12h30q13 0 13 -12v-38q1 0 2 -1q89 60 157 60zM265 568
q-25 0 -68 26q-38 23 -54 23q-22 0 -41 -37q-6 -11 -17 -6l-14 6q-8 4 -4 17q27 66 77 66q24 0 70 -27q37 -22 52 -22q20 0 38 35q8 11 18 7l13 -6q10 -3 5 -14q-23 -68 -75 -68z" />
    <glyph glyph-name="ograve" unicode="&#xf2;" horiz-adv-x="427" 
d="M390 252q0 -84 -15 -143q-28 -111 -165 -117q-89 0 -132 55q-17 21 -28 61q-14 59 -14 144q0 245 174 245q89 0 133 -51q19 -22 30 -57q17 -51 17 -137zM210 447q-67 0 -92.5 -48t-25.5 -154q0 -107 25.5 -155.5t92.5 -48.5q70 0 96.5 48t26.5 156t-26.5 155t-96.5 47z
M208 550l-77 129q-4 7 3 11l38 19q8 3 11 -5l60 -136l2 -6q0 -3 -5 -5l-19 -10q-1 0 -3 -1t-3 -1q-4 0 -7 5z" />
    <glyph glyph-name="oacute" unicode="&#xf3;" horiz-adv-x="427" 
d="M390 252q0 -84 -15 -143q-28 -111 -165 -117q-89 0 -132 55q-17 21 -28 61q-14 59 -14 144q0 245 174 245q89 0 133 -51q19 -22 30 -57q17 -51 17 -137zM210 447q-67 0 -92.5 -48t-25.5 -154q0 -107 25.5 -155.5t92.5 -48.5q70 0 96.5 48t26.5 156t-26.5 155t-96.5 47z
M299 679l-77 -128q-5 -6 -13 -2l-19 8q-8 3 -3 11l60 136q3 9 14 3l35 -17q8 -2 3 -11z" />
    <glyph glyph-name="ocircumflex" unicode="&#xf4;" horiz-adv-x="427" 
d="M390 252q0 -84 -15 -143q-28 -111 -165 -117q-89 0 -132 55q-17 21 -28 61q-14 59 -14 144q0 245 174 245q89 0 133 -51q19 -22 30 -57q17 -51 17 -137zM210 447q-67 0 -92.5 -48t-25.5 -154q0 -107 25.5 -155.5t92.5 -48.5q70 0 96.5 48t26.5 156t-26.5 155t-96.5 47z
M195 694h37q17 0 22 -8l80 -115q5 -8 1 -12l-15 -13q-7 -6 -13 0l-93 102l-94 -102q-6 -6 -13 0l-15 13q-4 4 1 12l80 115q5 8 22 8z" />
    <glyph glyph-name="otilde" unicode="&#xf5;" horiz-adv-x="427" 
d="M390 252q0 -84 -15 -143q-28 -111 -165 -117q-89 0 -132 55q-17 21 -28 61q-14 59 -14 144q0 245 174 245q89 0 133 -51q19 -22 30 -57q17 -51 17 -137zM210 447q-67 0 -92.5 -48t-25.5 -154q0 -107 25.5 -155.5t92.5 -48.5q70 0 96.5 48t26.5 156t-26.5 155t-96.5 47z
M278 568q-25 0 -68 26q-38 23 -54 23q-22 0 -41 -37q-6 -11 -17 -6l-14 6q-8 4 -4 17q27 66 77 66q23 0 70 -27q37 -22 52 -22q21 0 38 35q8 11 18 7l13 -6q10 -3 5 -14q-23 -68 -75 -68z" />
    <glyph glyph-name="odieresis" unicode="&#xf6;" horiz-adv-x="427" 
d="M390 252q0 -84 -15 -143q-28 -111 -165 -117q-89 0 -132 55q-17 21 -28 61q-14 59 -14 144q0 245 174 245q89 0 133 -51q19 -22 30 -57q17 -51 17 -137zM210 447q-67 0 -92.5 -48t-25.5 -154q0 -107 25.5 -155.5t92.5 -48.5q70 0 96.5 48t26.5 156t-26.5 155t-96.5 47z
M319 612q0 -36 -31 -36q-18 0 -24.5 8.5t-6.5 27.5q0 33 31 33t31 -33zM168 612q0 -36 -31 -36q-18 0 -24.5 8.5t-6.5 27.5q0 33 31 33t31 -33z" />
    <glyph glyph-name="divide" unicode="&#xf7;" 
d="M273 482q0 -21 -8 -31t-28 -10q-21 0 -28 9.5t-7 31.5q0 37 35 37q36 0 36 -37zM273 171q0 -41 -36 -41q-21 0 -28 9.5t-7 31.5q0 38 35 38q20 0 28 -9t8 -29zM391 303h-311q-12 0 -12 9v29q0 10 12 10h311q12 0 12 -10v-29q0 -9 -12 -9z" />
    <glyph glyph-name="oslash" unicode="&#xf8;" horiz-adv-x="427" 
d="M390 252q0 -84 -15 -143q-28 -111 -165 -117q-61 0 -101 26l-17 -28q-6 -9 -13 -5l-19 11q-6 5 -2 13l22 37q-44 56 -44 206q0 245 174 245q74 0 117 -36l20 33q6 9 13 5l18 -10q7 -4 2 -13l-27 -45q37 -56 37 -179zM112 100l186 312q-30 35 -88 35q-68 0 -94 -51
q-24 -50 -24 -151q0 -100 20 -145zM333 245q0 83 -14 127l-183 -307q27 -24 74 -24q70 0 96.5 48t26.5 156z" />
    <glyph glyph-name="ugrave" unicode="&#xf9;" horiz-adv-x="427" 
d="M168 -8q-73 0 -106 49q-8 15 -11 36q-5 39 -5 84v315q0 11 12 11h32q11 0 11 -11v-309q0 -71 16 -98.5t62 -27.5q48 0 148 57v378q0 11 13 11h30q12 0 12 -11v-465q0 -11 -12 -11h-30q-13 0 -13 11v39q-2 0 -3 1q-86 -59 -156 -59zM209 550l-77 129q-4 7 3 11l38 19
q8 3 11 -5l60 -136l2 -6q0 -3 -5 -5l-19 -10q-1 0 -3 -1t-3 -1q-4 0 -7 5z" />
    <glyph glyph-name="uacute" unicode="&#xfa;" horiz-adv-x="427" 
d="M168 -8q-73 0 -106 49q-8 15 -11 36q-5 39 -5 84v315q0 11 12 11h32q11 0 11 -11v-309q0 -71 16 -98.5t62 -27.5q48 0 148 57v378q0 11 13 11h30q12 0 12 -11v-465q0 -11 -12 -11h-30q-13 0 -13 11v39q-2 0 -3 1q-86 -59 -156 -59zM306 679l-77 -128q-5 -6 -13 -2l-19 8
q-8 3 -3 11l60 136q3 9 14 3l35 -17q8 -2 3 -11z" />
    <glyph glyph-name="ucircumflex" unicode="&#xfb;" horiz-adv-x="427" 
d="M168 -8q-73 0 -106 49q-8 15 -11 36q-5 39 -5 84v315q0 11 12 11h32q11 0 11 -11v-309q0 -71 16 -98.5t62 -27.5q48 0 148 57v378q0 11 13 11h30q12 0 12 -11v-465q0 -11 -12 -11h-30q-13 0 -13 11v39q-2 0 -3 1q-86 -59 -156 -59zM200 694h37q17 0 22 -8l80 -115
q5 -8 1 -12l-15 -13q-7 -6 -13 0l-93 102l-94 -102q-6 -6 -13 0l-15 13q-4 4 1 12l80 115q5 8 22 8z" />
    <glyph glyph-name="udieresis" unicode="&#xfc;" horiz-adv-x="427" 
d="M168 -8q-73 0 -106 49q-8 15 -11 36q-5 39 -5 84v315q0 11 12 11h32q11 0 11 -11v-309q0 -71 16 -98.5t62 -27.5q48 0 148 57v378q0 11 13 11h30q12 0 12 -11v-465q0 -11 -12 -11h-30q-13 0 -13 11v39q-2 0 -3 1q-86 -59 -156 -59zM327 612q0 -36 -31 -36
q-18 0 -24.5 8.5t-6.5 27.5q0 33 31 33t31 -33zM176 612q0 -36 -31 -36q-18 0 -24.5 8.5t-6.5 27.5q0 33 31 33t31 -33z" />
    <glyph glyph-name="yacute" unicode="&#xfd;" horiz-adv-x="394" 
d="M80 476l117 -394h6l52 170l69 225q3 10 14 10h36q11 0 6 -11l-202 -642q-3 -10 -15 -10h-31q-13 0 -8 11l49 160l-150 481q-5 11 6 11h37q11 0 14 -11zM285 679l-77 -128q-5 -6 -13 -2l-19 8q-8 3 -3 11l60 136q3 9 14 3l35 -17q8 -2 3 -11z" />
    <glyph glyph-name="thorn" unicode="&#xfe;" horiz-adv-x="426" 
d="M48 -163v855q0 11 11 11h32q12 0 12 -11v-254q1 0 1 -1q85 58 157 58q75 0 106 -57.5t31 -187.5q0 -138 -37 -198.5t-130 -60.5q-67 0 -127 25v-1l-1 -1v-177q0 -13 -13 -13h-31q-11 0 -11 13zM103 388v-324q72 -24 131 -24t83 48t24 165q0 109 -21 150t-67 41
q-32 0 -77 -19q-46 -20 -73 -37z" />
    <glyph glyph-name="ydieresis" unicode="&#xff;" horiz-adv-x="394" 
d="M80 476l117 -394h6l52 170l69 225q3 10 14 10h36q11 0 6 -11l-202 -642q-3 -10 -15 -10h-31q-13 0 -8 11l49 160l-150 481q-5 11 6 11h37q11 0 14 -11zM310 612q0 -36 -31 -36q-18 0 -24.5 8.5t-6.5 27.5q0 33 31 33t31 -33zM159 612q0 -36 -31 -36q-18 0 -24.5 8.5
t-6.5 27.5q0 33 31 33t31 -33z" />
    <glyph glyph-name="Amacron" unicode="&#x100;" horiz-adv-x="465" 
d="M267 651l184 -640q0 -1 0.5 -3l0.5 -2q0 -6 -8 -6h-42q-10 0 -14 9l-46 173h-225l-46 -171q-2 -11 -15 -11h-37q-9 0 -9 6q0 4 1 5l185 640q5 11 15 11h41q10 0 15 -11zM232 589h-4l-97 -356h198l-57 206q-36 132 -40 150zM343 773v-30q0 -9 -11 -9h-207q-11 0 -11 9v30
q0 10 11 10h207q11 0 11 -10z" />
    <glyph glyph-name="amacron" unicode="&#x101;" horiz-adv-x="440" 
d="M325 105v136h-134q-100 0 -100 -113q0 -48 16.5 -66.5t58.5 -18.5q33 0 81 20q47 21 78 42zM220 498q87 0 122 -35.5t37 -119.5v-263q0 -26 5.5 -32.5t28.5 -8.5q12 0 12 -9v-19q0 -9 -9 -12q-9 -4 -30 -4q-32 0 -45 12.5t-16 45.5q-49 -32 -87.5 -46.5t-87.5 -14.5
q-115 0 -115 132q0 86 38.5 125.5t121.5 39.5h130v43q0 61 -25 87.5t-85 26.5q-48 0 -124 -10q-17 -2 -18 8l-3 17q-2 11 8 14q58 23 142 23zM334 622v-30q0 -8 -10 -8h-209q-10 0 -10 8v30q0 10 10 10h209q10 0 10 -10z" />
    <glyph glyph-name="Abreve" unicode="&#x102;" horiz-adv-x="465" 
d="M267 651l184 -640q0 -1 0.5 -3l0.5 -2q0 -6 -8 -6h-42q-10 0 -14 9l-46 173h-225l-46 -171q-2 -11 -15 -11h-37q-9 0 -9 6q0 4 1 5l185 640q5 11 15 11h41q10 0 15 -11zM232 589h-4l-97 -356h198l-57 206q-36 132 -40 150zM227 714q-38 0 -69.5 22t-49.5 62q-8 17 0 23
l14 12q8 6 17 -5q29 -37 47 -50.5t42 -13.5q23 0 39 13t47 52q8 11 17 3l15 -10q5 -5 2 -14q-16 -42 -49 -68t-72 -26z" />
    <glyph glyph-name="abreve" unicode="&#x103;" horiz-adv-x="440" 
d="M325 105v136h-134q-100 0 -100 -113q0 -48 16.5 -66.5t58.5 -18.5q33 0 81 20q47 21 78 42zM220 498q87 0 122 -35.5t37 -119.5v-263q0 -26 5.5 -32.5t28.5 -8.5q12 0 12 -9v-19q0 -9 -9 -12q-9 -4 -30 -4q-32 0 -45 12.5t-16 45.5q-49 -32 -87.5 -46.5t-87.5 -14.5
q-115 0 -115 132q0 86 38.5 125.5t121.5 39.5h130v43q0 61 -25 87.5t-85 26.5q-48 0 -124 -10q-17 -2 -18 8l-3 17q-2 11 8 14q58 23 142 23zM223 557q-81 0 -121 81q-8 15 0 21l13 11q11 9 18 -3q25 -37 44.5 -51.5t45.5 -14.5q17 0 31 10q20 13 55 57q8 8 16 2l14 -9
q9 -6 3 -17q-21 -41 -53 -64t-66 -23z" />
    <glyph glyph-name="Aogonek" unicode="&#x104;" horiz-adv-x="465" 
d="M385 -101q1 -45 46 -45q17 0 44 7q11 1 12 -3l6 -19q1 -7 -6 -10q-25 -13 -60 -15q-42 -1 -65.5 21t-23.5 59q0 58 51 111q0 2 -1 4l-46 173h-225l-46 -171q-2 -11 -15 -11h-37q-9 0 -9 6q0 4 1 5l185 640q5 11 15 11h41q10 0 15 -11l184 -640q0 -1 0.5 -3l0.5 -2
q0 -6 -8 -6h-18q-41 -53 -41 -101zM232 589h-4l-97 -356h198l-57 206q-36 132 -40 150z" />
    <glyph glyph-name="aogonek" unicode="&#x105;" 
d="M338 -101q2 -45 46 -45q17 0 44 7q10 1 12 -3l6 -19q1 -7 -6 -10q-26 -13 -60 -15q-42 -1 -65.5 21t-23.5 59q0 60 52 112q-15 12 -18 47q-49 -32 -87.5 -46.5t-87.5 -14.5q-115 0 -115 132q0 86 38.5 125.5t121.5 39.5h130v43q0 61 -25 87.5t-85 26.5q-48 0 -124 -10
q-17 -2 -18 8l-3 17q-2 11 8 14q58 23 142 23q87 0 122 -35.5t37 -119.5v-263q0 -26 5.5 -32.5t28.5 -8.5q12 0 12 -9v-19q0 -9 -9 -12q-9 -4 -30 -4q-2 0 -6 0.5t-5 0.5q-37 -52 -37 -97zM325 105v136h-134q-100 0 -100 -113q0 -48 16.5 -66.5t58.5 -18.5q33 0 81 20
q47 21 78 42z" />
    <glyph glyph-name="Cacute" unicode="&#x106;" horiz-adv-x="456" 
d="M279 614q-105 0 -137 -92q-26 -74 -26 -198q0 -115 29 -192q36 -85 133 -85q52 0 143 10q11 1 15 -9l3 -18q3 -11 -7 -15q-62 -24 -158 -24q-129 0 -177 100q-42 88 -42 233t40 239q48 106 181 106q94 0 154 -22q10 -4 9 -16l-3 -19q-1 -10 -15 -8q-84 10 -142 10z
M354 830l22 -31q5 -8 -4 -12l-122 -75q-8 -5 -13 3l-12 16q-5 8 2 12l111 90q9 7 16 -3z" />
    <glyph glyph-name="cacute" unicode="&#x107;" horiz-adv-x="355" 
d="M201 -9q-81 0 -122 46q-18 23 -28 55q-16 55 -16 151q0 88 16 146q16 52 52 79t100 29q79 0 133 -22q10 -3 8 -14l-3 -17q-1 -10 -18 -8q-76 10 -117 10q-63 0 -88 -44.5t-25 -155.5q0 -116 24 -160q26 -44 89 -44q61 0 121 10q14 2 16 -9l3 -16q2 -9 -8 -14
q-48 -22 -137 -22zM285 679l-77 -128q-5 -6 -13 -2l-19 8q-8 3 -3 11l60 136q3 9 14 3l35 -17q8 -2 3 -11z" />
    <glyph glyph-name="Ccircumflex" unicode="&#x108;" horiz-adv-x="456" 
d="M279 614q-105 0 -137 -92q-26 -74 -26 -198q0 -115 29 -192q36 -85 133 -85q52 0 143 10q11 1 15 -9l3 -18q3 -11 -7 -15q-62 -24 -158 -24q-129 0 -177 100q-42 88 -42 233t40 239q48 106 181 106q94 0 154 -22q10 -4 9 -16l-3 -19q-1 -10 -15 -8q-84 10 -142 10z
M264 833h28q17 0 25 -8l85 -88q5 -8 1 -12l-14 -15q-6 -4 -13 0l-99 78l-99 -81q-8 -6 -12 1l-13 14q-4 6 0 13l86 91q7 7 25 7z" />
    <glyph glyph-name="ccircumflex" unicode="&#x109;" horiz-adv-x="355" 
d="M201 -9q-81 0 -122 46q-18 23 -28 55q-16 55 -16 151q0 88 16 146q16 52 52 79t100 29q79 0 133 -22q10 -3 8 -14l-3 -17q-1 -10 -18 -8q-76 10 -117 10q-63 0 -88 -44.5t-25 -155.5q0 -116 24 -160q26 -44 89 -44q61 0 121 10q14 2 16 -9l3 -16q2 -9 -8 -14
q-48 -22 -137 -22zM185 694h37q17 0 22 -8l80 -115q5 -8 1 -12l-15 -13q-7 -6 -13 0l-93 102l-94 -102q-6 -6 -13 0l-15 13q-4 4 1 12l80 115q5 8 22 8z" />
    <glyph glyph-name="Cdotaccent" unicode="&#x10a;" horiz-adv-x="456" 
d="M279 614q-105 0 -137 -92q-26 -74 -26 -198q0 -115 29 -192q36 -85 133 -85q52 0 143 10q11 1 15 -9l3 -18q3 -11 -7 -15q-62 -24 -158 -24q-129 0 -177 100q-42 88 -42 233t40 239q48 106 181 106q94 0 154 -22q10 -4 9 -16l-3 -19q-1 -10 -15 -8q-84 10 -142 10z
M311 767q0 -36 -31 -36q-32 0 -32 36q0 33 32 33q31 0 31 -33z" />
    <glyph glyph-name="cdotaccent" unicode="&#x10b;" horiz-adv-x="355" 
d="M201 -9q-81 0 -122 46q-18 23 -28 55q-16 55 -16 151q0 88 16 146q16 52 52 79t100 29q79 0 133 -22q10 -3 8 -14l-3 -17q-1 -10 -18 -8q-76 10 -117 10q-63 0 -88 -44.5t-25 -155.5q0 -116 24 -160q26 -44 89 -44q61 0 121 10q14 2 16 -9l3 -16q2 -9 -8 -14
q-48 -22 -137 -22zM238 612q0 -36 -31 -36q-32 0 -32 36q0 33 32 33q31 0 31 -33z" />
    <glyph glyph-name="Ccaron" unicode="&#x10c;" horiz-adv-x="456" 
d="M279 614q-105 0 -137 -92q-26 -74 -26 -198q0 -115 29 -192q36 -85 133 -85q52 0 143 10q11 1 15 -9l3 -18q3 -11 -7 -15q-62 -24 -158 -24q-129 0 -177 100q-42 88 -42 233t40 239q48 106 181 106q94 0 154 -22q10 -4 9 -16l-3 -19q-1 -10 -15 -8q-84 10 -142 10z
M288 710h-28q-18 0 -25 7l-86 91q-4 7 0 13l13 14q4 7 12 1l99 -81l99 78q7 4 13 0l14 -15q4 -4 -1 -12l-85 -88q-8 -8 -25 -8z" />
    <glyph glyph-name="ccaron" unicode="&#x10d;" horiz-adv-x="355" 
d="M201 -9q-81 0 -122 46q-18 23 -28 55q-16 55 -16 151q0 88 16 146q16 52 52 79t100 29q79 0 133 -22q10 -3 8 -14l-3 -17q-1 -10 -18 -8q-76 10 -117 10q-63 0 -88 -44.5t-25 -155.5q0 -116 24 -160q26 -44 89 -44q61 0 121 10q14 2 16 -9l3 -16q2 -9 -8 -14
q-48 -22 -137 -22zM220 541h-37q-17 0 -22 8l-80 115q-5 8 -1 12l15 13q7 6 13 0l94 -102l93 102q6 6 13 0l15 -13q4 -4 -1 -12l-80 -115q-5 -8 -22 -8z" />
    <glyph glyph-name="Dcaron" unicode="&#x10e;" horiz-adv-x="525" 
d="M474 333q0 -149 -49 -236q-54 -97 -207 -97h-142q-15 0 -15 12v638q0 12 14 12h143q151 0 206 -96q50 -85 50 -233zM414 325q0 144 -46 214.5t-145 70.5h-105v-558h97q102 0 150.5 66.5t48.5 206.5zM240 710h-28q-18 0 -25 7l-86 91q-4 7 0 13l13 14q4 7 12 1l99 -81
l99 78q7 4 13 0l14 -15q4 -4 -1 -12l-85 -88q-8 -8 -25 -8z" />
    <glyph glyph-name="dcaron" unicode="&#x10f;" horiz-adv-x="507" 
d="M385 691v-681q0 -10 -11 -10h-32q-12 0 -12 11v12q0 4 -0.5 14.5t-0.5 12.5q-85 -58 -157 -58q-75 0 -106 57t-31 187q0 139 37 199.5t130 60.5q68 0 127 -25q1 0 1 0.5t1 0.5v219q0 12 12 12h31q11 0 11 -12zM330 99v324q-72 24 -131 24q-58 0 -83 -49t-25 -164
q0 -110 21 -150q22 -40 68 -40q30 0 77 18q47 20 73 37zM501 666q0 -68 -59 -121q-9 -9 -14 -3l-10 11q-4 4 1 10q26 32 26 66q0 26 -19 57q-7 10 3 16l31 25q10 7 19 -1q22 -22 22 -60z" />
    <glyph glyph-name="Dcroat" unicode="&#x110;" horiz-adv-x="525" 
d="M474 333q0 -149 -49 -236q-54 -97 -207 -97h-142q-15 0 -15 12v307h-42q-10 0 -10 9v30q0 9 10 9h42v283q0 12 14 12h143q151 0 206 -96q50 -85 50 -233zM238 358v-31q0 -8 -10 -8h-110v-267h97q102 0 150.5 66.5t48.5 206.5q0 144 -46 214.5t-145 70.5h-105v-243h110
q10 0 10 -9z" />
    <glyph glyph-name="dslash" unicode="&#x111;" horiz-adv-x="428" 
d="M331 569h-149q-10 0 -10 8v27q0 9 10 9h149v78q0 12 12 12h31q11 0 11 -12v-78h46q10 0 10 -9v-27q0 -8 -10 -8h-46v-559q0 -10 -11 -10h-32q-12 0 -12 11v12q0 4 -0.5 14.5t-0.5 12.5q-85 -58 -157 -58q-75 0 -106 57t-31 187q0 139 37 199.5t130 60.5q68 0 127 -25
q1 0 1 0.5t1 0.5v97zM330 99v324q-72 24 -131 24q-58 0 -83 -49t-25 -164q0 -110 21 -150q22 -40 68 -40q30 0 77 18q47 20 73 37z" />
    <glyph glyph-name="Emacron" unicode="&#x112;" horiz-adv-x="424" 
d="M397 41v-31q0 -10 -11 -10h-317q-12 0 -12 10v641q0 12 12 12h303q11 0 11 -11v-31q0 -11 -12 -11h-256v-234h230q11 0 11 -10v-29q0 -12 -11 -12h-230v-273h271q11 0 11 -11zM342 773v-30q0 -9 -11 -9h-207q-11 0 -11 9v30q0 10 11 10h207q11 0 11 -10z" />
    <glyph glyph-name="emacron" unicode="&#x113;" horiz-adv-x="410" 
d="M209 447q-60 0 -86.5 -42t-29.5 -131h234q0 73 -21 119q-23 54 -97 54zM209 -9q-86 0 -129 50q-17 21 -28 57q-16 59 -16 147q0 76 16 135q35 117 158 117q105 0 141 -69q33 -60 33 -151q0 -26 -8.5 -37.5t-28.5 -11.5h-253q1 -99 27.5 -141.5t91.5 -42.5q44 0 127 11
q14 2 16 -9l3 -16q2 -11 -7 -14q-60 -25 -143 -25zM325 622v-30q0 -8 -10 -8h-209q-10 0 -10 8v30q0 10 10 10h209q10 0 10 -10z" />
    <glyph glyph-name="Ebreve" unicode="&#x114;" horiz-adv-x="424" 
d="M397 41v-31q0 -10 -11 -10h-317q-12 0 -12 10v641q0 12 12 12h303q11 0 11 -11v-31q0 -11 -12 -11h-256v-234h230q11 0 11 -10v-29q0 -12 -11 -12h-230v-273h271q11 0 11 -11zM220 713q-38 0 -69.5 22t-49.5 62q-8 17 0 23l14 12q8 6 17 -5q29 -37 47 -50.5t42 -13.5
q23 0 39 13t47 52q8 11 17 3l15 -10q5 -5 2 -14q-16 -42 -49 -68t-72 -26z" />
    <glyph glyph-name="ebreve" unicode="&#x115;" horiz-adv-x="410" 
d="M209 447q-60 0 -86.5 -42t-29.5 -131h234q0 73 -21 119q-23 54 -97 54zM209 -9q-86 0 -129 50q-17 21 -28 57q-16 59 -16 147q0 76 16 135q35 117 158 117q105 0 141 -69q33 -60 33 -151q0 -26 -8.5 -37.5t-28.5 -11.5h-253q1 -99 27.5 -141.5t91.5 -42.5q44 0 127 11
q14 2 16 -9l3 -16q2 -11 -7 -14q-60 -25 -143 -25zM217 557q-81 0 -121 81q-8 15 0 21l13 11q11 9 18 -3q25 -37 44.5 -51.5t45.5 -14.5q17 0 31 10q20 13 55 57q8 8 16 2l14 -9q9 -6 3 -17q-21 -41 -53 -64t-66 -23z" />
    <glyph glyph-name="Edotaccent" unicode="&#x116;" horiz-adv-x="424" 
d="M397 41v-31q0 -10 -11 -10h-317q-12 0 -12 10v641q0 12 12 12h303q11 0 11 -11v-31q0 -11 -12 -11h-256v-234h230q11 0 11 -10v-29q0 -12 -11 -12h-230v-273h271q11 0 11 -11zM257 757q0 -36 -31 -36q-32 0 -32 36q0 33 32 33q31 0 31 -33z" />
    <glyph glyph-name="edotaccent" unicode="&#x117;" horiz-adv-x="410" 
d="M209 447q-60 0 -86.5 -42t-29.5 -131h234q0 73 -21 119q-23 54 -97 54zM209 -9q-86 0 -129 50q-17 21 -28 57q-16 59 -16 147q0 76 16 135q35 117 158 117q105 0 141 -69q33 -60 33 -151q0 -26 -8.5 -37.5t-28.5 -11.5h-253q1 -99 27.5 -141.5t91.5 -42.5q44 0 127 11
q14 2 16 -9l3 -16q2 -11 -7 -14q-60 -25 -143 -25zM244 612q0 -36 -31 -36q-32 0 -32 36q0 33 32 33q31 0 31 -33z" />
    <glyph glyph-name="Eogonek" unicode="&#x118;" horiz-adv-x="424" 
d="M329 -101q1 -45 46 -45q17 0 44 7q11 1 12 -3l6 -19q1 -7 -6 -10q-25 -13 -60 -15q-42 -1 -65.5 21t-23.5 59q0 57 46 106h-259q-12 0 -12 10v641q0 12 12 12h303q11 0 11 -11v-31q0 -11 -12 -11h-256v-234h230q11 0 11 -10v-29q0 -12 -11 -12h-230v-273h271q11 0 11 -11
v-31q0 -10 -11 -10h-16q-41 -53 -41 -101z" />
    <glyph glyph-name="eogonek" unicode="&#x119;" horiz-adv-x="410" 
d="M285 -94q1 -45 46 -45q17 0 44 7q11 2 12 -3l6 -19q1 -7 -6 -10q-25 -14 -60 -15q-42 -1 -65.5 21t-23.5 59q0 50 37 96q-36 -6 -66 -6q-86 0 -129 50q-17 21 -28 57q-16 59 -16 147q0 76 16 135q35 117 158 117q105 0 141 -69q33 -60 33 -151q0 -26 -8.5 -37.5
t-28.5 -11.5h-253q1 -99 27.5 -141.5t91.5 -42.5q44 0 127 11q14 2 16 -9l3 -16q2 -11 -7 -14l-26 -9q-41 -53 -41 -101zM209 447q-60 0 -86.5 -42t-29.5 -131h234q0 73 -21 119q-23 54 -97 54z" />
    <glyph glyph-name="Ecaron" unicode="&#x11a;" horiz-adv-x="424" 
d="M397 41v-31q0 -10 -11 -10h-317q-12 0 -12 10v641q0 12 12 12h303q11 0 11 -11v-31q0 -11 -12 -11h-256v-234h230q11 0 11 -10v-29q0 -12 -11 -12h-230v-273h271q11 0 11 -11zM233 710h-28q-18 0 -25 7l-86 91q-4 7 0 13l13 14q4 7 12 1l99 -81l99 78q7 4 13 0l14 -15
q4 -4 -1 -12l-85 -88q-8 -8 -25 -8z" />
    <glyph glyph-name="ecaron" unicode="&#x11b;" horiz-adv-x="410" 
d="M209 447q-60 0 -86.5 -42t-29.5 -131h234q0 73 -21 119q-23 54 -97 54zM209 -9q-86 0 -129 50q-17 21 -28 57q-16 59 -16 147q0 76 16 135q35 117 158 117q105 0 141 -69q33 -60 33 -151q0 -26 -8.5 -37.5t-28.5 -11.5h-253q1 -99 27.5 -141.5t91.5 -42.5q44 0 127 11
q14 2 16 -9l3 -16q2 -11 -7 -14q-60 -25 -143 -25zM235 541h-37q-17 0 -22 8l-80 115q-5 8 -1 12l15 13q7 6 13 0l94 -102l93 102q6 6 13 0l15 -13q4 -4 -1 -12l-80 -115q-5 -8 -22 -8z" />
    <glyph glyph-name="Gcircumflex" unicode="&#x11c;" horiz-adv-x="514" 
d="M52 324q0 147 42 239q48 106 182 106q94 0 154 -22q10 -4 9 -16l-3 -19q-1 -10 -15 -8q-84 10 -142 10q-81 0 -122 -60q-17 -26 -27 -66q-16 -65 -16 -164q0 -121 31 -193q37 -86 142 -86q69 0 111 19h-1v226h-80q-16 0 -16 13v31q0 11 15 11h126q16 0 16 -12v-286
q0 -30 -55 -43q-55 -12 -115 -12q-123 0 -179.5 82t-56.5 250zM272 833h28q17 0 25 -8l85 -88q5 -8 1 -12l-14 -15q-6 -4 -13 0l-99 78l-99 -81q-8 -6 -12 1l-13 14q-4 6 0 13l86 91q7 7 25 7z" />
    <glyph glyph-name="gcircumflex" unicode="&#x11d;" horiz-adv-x="431" 
d="M391 442l-1 -472q-2 -84 -37 -119.5t-122 -35.5q-84 0 -142 23q-10 3 -8 14l3 17q1 10 18 8q76 -10 124 -10q60 0 85 26.5t25 87.5v39h-1l-23 -8q-59 -22 -107 -20q-94 0 -131.5 59.5t-37.5 190.5q0 133 41 194t135 61q90 0 157 -21q22 -7 22 -34zM335 68v364
q-71 12 -119 12q-55 0 -85 -34q-37 -39 -37 -158q0 -114 24.5 -162t82.5 -48t134 26zM215 694h37q17 0 22 -8l80 -115q5 -8 1 -12l-15 -13q-7 -6 -13 0l-93 102l-94 -102q-6 -6 -13 0l-15 13q-4 4 1 12l80 115q5 8 22 8z" />
    <glyph glyph-name="Gbreve" unicode="&#x11e;" horiz-adv-x="514" 
d="M52 324q0 147 42 239q48 106 182 106q94 0 154 -22q10 -4 9 -16l-3 -19q-1 -10 -15 -8q-84 10 -142 10q-81 0 -122 -60q-17 -26 -27 -66q-16 -65 -16 -164q0 -121 31 -193q37 -86 142 -86q69 0 111 19h-1v226h-80q-16 0 -16 13v31q0 11 15 11h126q16 0 16 -12v-286
q0 -30 -55 -43q-55 -12 -115 -12q-123 0 -179.5 82t-56.5 250zM284 713q-38 0 -69.5 22t-49.5 62q-8 17 0 23l14 12q8 6 17 -5q29 -37 47 -50.5t42 -13.5q23 0 39 13t47 52q8 11 17 3l15 -10q5 -5 2 -14q-16 -42 -49 -68t-72 -26z" />
    <glyph glyph-name="gbreve" unicode="&#x11f;" horiz-adv-x="431" 
d="M391 442l-1 -472q-2 -84 -37 -119.5t-122 -35.5q-84 0 -142 23q-10 3 -8 14l3 17q1 10 18 8q76 -10 124 -10q60 0 85 26.5t25 87.5v39h-1l-23 -8q-59 -22 -107 -20q-94 0 -131.5 59.5t-37.5 190.5q0 133 41 194t135 61q90 0 157 -21q22 -7 22 -34zM335 68v364
q-71 12 -119 12q-55 0 -85 -34q-37 -39 -37 -158q0 -114 24.5 -162t82.5 -48t134 26zM237 557q-81 0 -121 81q-8 15 0 21l13 11q11 9 18 -3q25 -37 44.5 -51.5t45.5 -14.5q17 0 31 10q20 13 55 57q8 8 16 2l14 -9q9 -6 3 -17q-21 -41 -53 -64t-66 -23z" />
    <glyph glyph-name="Gdotaccent" unicode="&#x120;" horiz-adv-x="514" 
d="M52 324q0 147 42 239q48 106 182 106q94 0 154 -22q10 -4 9 -16l-3 -19q-1 -10 -15 -8q-84 10 -142 10q-81 0 -122 -60q-17 -26 -27 -66q-16 -65 -16 -164q0 -121 31 -193q37 -86 142 -86q69 0 111 19h-1v226h-80q-16 0 -16 13v31q0 11 15 11h126q16 0 16 -12v-286
q0 -30 -55 -43q-55 -12 -115 -12q-123 0 -179.5 82t-56.5 250zM317 757q0 -36 -31 -36q-32 0 -32 36q0 33 32 33q31 0 31 -33z" />
    <glyph glyph-name="gdotaccent" unicode="&#x121;" horiz-adv-x="431" 
d="M391 442l-1 -472q-2 -84 -37 -119.5t-122 -35.5q-84 0 -142 23q-10 3 -8 14l3 17q1 10 18 8q76 -10 124 -10q60 0 85 26.5t25 87.5v39h-1l-23 -8q-59 -22 -107 -20q-94 0 -131.5 59.5t-37.5 190.5q0 133 41 194t135 61q90 0 157 -21q22 -7 22 -34zM335 68v364
q-71 12 -119 12q-55 0 -85 -34q-37 -39 -37 -158q0 -114 24.5 -162t82.5 -48t134 26zM269 612q0 -36 -31 -36q-32 0 -32 36q0 33 32 33q31 0 31 -33z" />
    <glyph glyph-name="Gcommaaccent" unicode="&#x122;" horiz-adv-x="514" 
d="M52 324q0 147 42 239q48 106 182 106q94 0 154 -22q10 -4 9 -16l-3 -19q-1 -10 -15 -8q-84 10 -142 10q-81 0 -122 -60q-17 -26 -27 -66q-16 -65 -16 -164q0 -121 31 -193q37 -86 142 -86q69 0 111 19h-1v226h-80q-16 0 -16 13v31q0 11 15 11h126q16 0 16 -12v-286
q0 -30 -55 -43q-55 -12 -115 -12q-123 0 -179.5 82t-56.5 250zM302 -109q0 -68 -59 -121q-9 -9 -14 -3l-10 11q-4 4 1 10q26 32 26 66q0 26 -19 57q-7 10 3 16l31 25q11 8 19 -1q22 -22 22 -60z" />
    <glyph glyph-name="gcommaaccent" unicode="&#x123;" horiz-adv-x="431" 
d="M391 442l-1 -472q-2 -84 -37 -119.5t-122 -35.5q-84 0 -142 23q-10 3 -8 14l3 17q1 10 18 8q76 -10 124 -10q60 0 85 26.5t25 87.5v39h-1l-23 -8q-59 -22 -107 -20q-94 0 -131.5 59.5t-37.5 190.5q0 133 41 194t135 61q90 0 157 -21q22 -7 22 -34zM335 68v364
q-71 12 -119 12q-55 0 -85 -34q-37 -39 -37 -158q0 -114 24.5 -162t82.5 -48t134 26zM201 612q0 78 63 124q8 8 13 2l10 -10q4 -6 -1 -11q-28 -31 -28 -66q0 -24 20 -56q5 -10 -2 -17l-34 -24q-9 -8 -18 1q-23 23 -23 57z" />
    <glyph glyph-name="Hcircumflex" unicode="&#x124;" horiz-adv-x="507" 
d="M448 651v-640q0 -11 -10 -11h-34q-12 0 -12 11v314h-277v-314q0 -11 -10 -11h-35q-11 0 -11 11v640q0 12 11 12h35q10 0 10 -12v-274h277v274q0 12 12 12h34q10 0 10 -12zM240 833h28q17 0 25 -8l85 -88q5 -8 1 -12l-14 -15q-6 -4 -13 0l-99 78l-99 -81q-8 -6 -12 1
l-13 14q-4 6 0 13l86 91q7 7 25 7z" />
    <glyph glyph-name="hcircumflex" unicode="&#x125;" horiz-adv-x="426" 
d="M261 496q66 0 96 -34q12 -12 20 -41q10 -39 10 -107v-303q0 -11 -12 -11h-33q-11 0 -11 11v307q0 73 -16.5 100.5t-61.5 27.5q-51 0 -152 -57v-378q0 -11 -12 -11h-32q-10 0 -10 11v681q0 11 10 11h32q12 0 12 -11v-255q2 0 3 -1q88 60 157 60zM61 840h28q17 0 25 -8
l85 -88q5 -8 1 -12l-14 -15q-6 -4 -13 0l-99 78l-99 -81q-8 -6 -12 1l-13 14q-4 6 0 13l86 91q7 7 25 7z" />
    <glyph glyph-name="Hbar" unicode="&#x126;" horiz-adv-x="507" 
d="M448 489v-478q0 -11 -10 -11h-34q-12 0 -12 11v314h-277v-314q0 -11 -10 -11h-35q-11 0 -11 11v478h-33q-10 0 -10 9v24q0 10 10 10h33v119q0 12 11 12h35q10 0 10 -12v-119h277v119q0 12 12 12h34q10 0 10 -12v-119h35q10 0 10 -10v-24q0 -9 -10 -9h-35zM115 489v-112
h277v112h-277z" />
    <glyph glyph-name="hbar" unicode="&#x127;" horiz-adv-x="426" 
d="M256 496q66 0 96 -34q12 -12 20 -41q10 -39 10 -107v-303q0 -11 -12 -11h-33q-11 0 -11 11v307q0 72 -15.5 100t-62.5 28q-52 0 -152 -57v-378q0 -11 -12 -11h-32q-10 0 -10 11v554h-42q-12 0 -12 11v22q0 12 12 12h42v82q0 11 10 11h32q12 0 12 -11v-82h177q12 0 12 -11
v-23q0 -11 -12 -11h-177v-128q2 0 3 -1q88 60 157 60z" />
    <glyph glyph-name="Itilde" unicode="&#x128;" horiz-adv-x="195" 
d="M131 651v-640q0 -11 -13 -11h-32q-13 0 -13 11v640q0 12 13 12h32q13 0 13 -12zM164 722q-25 0 -68 26q-38 23 -54 23q-22 0 -41 -37q-6 -11 -17 -6l-14 6q-9 4 -4 17q27 66 77 66q24 0 70 -27q37 -22 52 -22q20 0 38 35q8 11 18 7l13 -6q10 -3 5 -14q-23 -68 -75 -68z
" />
    <glyph glyph-name="itilde" unicode="&#x129;" horiz-adv-x="197" 
d="M165 566q-25 0 -68 26q-38 23 -54 23q-22 0 -41 -37q-6 -11 -17 -6l-14 6q-8 4 -4 17q27 66 77 66q24 0 70 -27q37 -22 52 -22q21 0 38 35q8 11 18 7l13 -6q10 -3 5 -14q-23 -68 -75 -68zM130 475v-464q0 -11 -11 -11h-30q-13 0 -13 11v464q0 12 13 12h31q10 0 10 -12z
" />
    <glyph glyph-name="Imacron" unicode="&#x12a;" horiz-adv-x="195" 
d="M212 773v-30q0 -9 -11 -9h-207q-11 0 -11 9v30q0 10 11 10h207q11 0 11 -10zM126 651v-640q0 -11 -13 -11h-32q-13 0 -13 11v640q0 12 13 12h32q13 0 13 -12z" />
    <glyph glyph-name="imacron" unicode="&#x12b;" horiz-adv-x="197" 
d="M125 475v-464q0 -11 -11 -11h-30q-13 0 -13 11v464q0 12 13 12h31q10 0 10 -12zM211 622v-30q0 -8 -10 -8h-209q-10 0 -10 8v30q0 10 10 10h209q10 0 10 -10z" />
    <glyph glyph-name="Ibreve" unicode="&#x12c;" horiz-adv-x="195" 
d="M102 713q-38 0 -69.5 22t-49.5 62q-8 17 0 23l14 12q8 6 17 -5q29 -37 47 -50.5t42 -13.5q23 0 39 13t47 52q8 11 17 3l15 -10q5 -5 2 -14q-16 -42 -49 -68t-72 -26zM133 651v-640q0 -11 -13 -11h-32q-13 0 -13 11v640q0 12 13 12h32q13 0 13 -12z" />
    <glyph glyph-name="ibreve" unicode="&#x12d;" horiz-adv-x="197" 
d="M107 563q-81 0 -121 81q-8 15 0 21l13 11q11 10 18 -3q25 -37 44.5 -51.5t45.5 -14.5q17 0 31 10q20 13 55 57q8 8 16 2l14 -9q9 -6 3 -17q-21 -41 -53 -64t-66 -23zM132 475v-464q0 -11 -11 -11h-30q-13 0 -13 11v464q0 12 13 12h31q10 0 10 -12z" />
    <glyph glyph-name="Iogonek" unicode="&#x12e;" horiz-adv-x="195" 
d="M126 651v-640q0 -11 -13 -11h-9q-40 -52 -40 -100q2 -45 46 -45q17 0 44 7q10 2 12 -3l6 -19q1 -7 -6 -10q-26 -14 -60 -15q-42 -1 -65.5 21t-23.5 59q0 59 51 111v645q0 12 13 12h32q13 0 13 -12z" />
    <glyph glyph-name="iogonek" unicode="&#x12f;" horiz-adv-x="182" 
d="M58 -101q2 -45 46 -45q17 0 44 7q10 1 12 -3l6 -19q1 -7 -6 -10q-26 -13 -60 -15q-42 -1 -65.5 21t-23.5 59q0 60 53 113v4v464q0 12 13 12h31q10 0 10 -12v-464q0 -11 -11 -11h-8q-41 -53 -41 -101zM124 617q0 -19 -7 -27.5t-26 -8.5q-33 0 -33 36q0 34 33 34
q19 0 26 -8t7 -26z" />
    <glyph glyph-name="Idot" unicode="&#x130;" horiz-adv-x="195" 
d="M126 651v-640q0 -11 -13 -11h-32q-13 0 -13 11v640q0 12 13 12h32q13 0 13 -12zM128 767q0 -36 -31 -36q-32 0 -32 36q0 33 32 33q31 0 31 -33z" />
    <glyph glyph-name="dotlessi" unicode="&#x131;" horiz-adv-x="197" 
d="M125 475v-464q0 -11 -11 -11h-30q-13 0 -13 11v464q0 12 13 12h31q10 0 10 -12z" />
    <glyph glyph-name="IJ" unicode="&#x132;" horiz-adv-x="517" 
d="M452 651v-490q0 -171 -157 -171q-59 0 -112 21q-12 5 -9 16l5 20q2 9 14 8q54 -8 97 -8q57 0 80.5 30.5t23.5 95.5v478q0 12 13 12h33q12 0 12 -12zM126 651v-640q0 -11 -13 -11h-32q-13 0 -13 11v640q0 12 13 12h32q13 0 13 -12z" />
    <glyph glyph-name="ij" unicode="&#x133;" horiz-adv-x="371" 
d="M307 476v-540q0 -59 -25 -95q-28 -43 -124 -42q-12 0 -14 12l-1 17q0 11 14 14q61 11 77 30q18 19 18 68v536q0 11 12 11h30q13 0 13 -11zM311 617q0 -19 -7 -27.5t-25 -8.5q-33 0 -33 36q0 34 33 34q18 0 25 -8t7 -26zM124 617q0 -19 -7 -27.5t-26 -8.5q-33 0 -33 36
q0 34 33 34q19 0 26 -8t7 -26zM118 475v-464q0 -11 -11 -11h-30q-13 0 -13 11v464q0 12 13 12h31q10 0 10 -12z" />
    <glyph glyph-name="Jcircumflex" unicode="&#x134;" horiz-adv-x="354" 
d="M242 835h28q17 0 25 -8l85 -88q5 -8 1 -12l-14 -15q-6 -4 -13 0l-99 78l-99 -81q-8 -6 -12 1l-13 14q-4 6 0 13l86 91q7 7 25 7zM284 652v-490q0 -171 -157 -171q-59 0 -112 21q-12 5 -9 16l5 20q2 9 14 8q54 -8 97 -8q57 0 80.5 30.5t23.5 95.5v478q0 12 13 12h33
q12 0 12 -12z" />
    <glyph glyph-name="jcircumflex" unicode="&#x135;" horiz-adv-x="195" 
d="M130 476v-540q0 -59 -25 -95q-28 -43 -124 -42q-13 0 -14 12l-1 17q0 11 14 13q61 11 77 30q18 19 18 69v536q0 11 12 11h30q13 0 13 -11zM83 694h37q17 0 22 -8l80 -115q5 -8 1 -12l-15 -13q-7 -6 -13 0l-93 102l-94 -102q-6 -6 -13 0l-15 13q-4 4 1 12l80 115q5 8 22 8
z" />
    <glyph glyph-name="Kcommaaccent" unicode="&#x136;" horiz-adv-x="467" 
d="M113 651v-374q0 -1 0.5 -1t0.5 -1q30 47 126 183l138 197q5 8 18 8h42q8 0 8 -6q0 -1 -1 -2t-1 -3l-189 -268l195 -373q0 -2 1 -3l1 -2q0 -6 -9 -6h-42q-19 0 -29 31l-155 301l-104 -149v-172q0 -11 -12 -11h-33q-12 0 -12 11v640q0 12 12 12h33q12 0 12 -12zM265 -108
q0 -68 -59 -121q-9 -9 -14 -3l-10 11q-4 4 1 10q26 32 26 66q0 26 -19 57q-7 10 3 16l31 25q10 7 19 -1q22 -22 22 -60z" />
    <glyph glyph-name="kcommaaccent" unicode="&#x137;" horiz-adv-x="369" 
d="M348 475l-143 -177l160 -286q6 -12 -6 -12h-37q-14 0 -19 11l-132 243l-71 -88v-155q0 -11 -12 -11h-31q-12 0 -12 11v681q0 11 12 11h31q12 0 12 -11v-446q0 -1 1 -1q28 40 71 91l113 142q9 10 18 10h39q16 0 6 -13zM223 -108q0 -68 -59 -121q-9 -9 -14 -3l-10 11
q-4 4 1 10q26 32 26 66q0 26 -19 57q-7 10 3 16l31 25q10 7 19 -1q22 -22 22 -60z" />
    <glyph glyph-name="kgreenlandic" unicode="&#x138;" horiz-adv-x="397" 
d="M348 475l-143 -177l160 -286q6 -12 -6 -12h-37q-14 0 -19 11l-132 243l-71 -88v-155q0 -11 -12 -11h-31q-12 0 -12 11v465q0 11 12 11h31q12 0 12 -11v-230q0 -1 1 -1q28 40 71 91l113 142q9 10 18 10h39q16 0 6 -13z" />
    <glyph glyph-name="Lacute" unicode="&#x139;" horiz-adv-x="409" 
d="M407 41v-31q0 -10 -11 -10h-319q-12 0 -12 11v639q0 13 12 13h34q10 0 10 -13l1 -598h274q11 0 11 -11zM194 830l22 -31q5 -8 -4 -12l-122 -75q-8 -5 -13 3l-12 16q-5 8 2 12l111 90q9 7 16 -3z" />
    <glyph glyph-name="lacute" unicode="&#x13a;" horiz-adv-x="191" 
d="M123 -7q-31 0 -44.5 16.5t-13.5 51.5v629q0 12 13 12h28q14 0 14 -12v-609q0 -24 6.5 -30t31.5 -5q13 0 15 -8l3 -23q1 -10 -9 -14q-26 -8 -44 -8zM193 866l22 -31q5 -8 -4 -12l-122 -75q-8 -5 -13 3l-12 16q-5 8 2 12l111 90q9 7 16 -3z" />
    <glyph glyph-name="Lcommaaccent" unicode="&#x13b;" horiz-adv-x="409" 
d="M402 41v-31q0 -10 -11 -10h-319q-12 0 -12 11v639q0 13 12 13h34q10 0 10 -13l1 -598h274q11 0 11 -11zM264 -110q0 -68 -59 -121q-9 -9 -14 -3l-10 11q-4 4 1 10q26 32 26 66q0 26 -19 57q-7 10 3 16l31 25q10 7 19 -1q22 -22 22 -60z" />
    <glyph glyph-name="lcommaaccent" unicode="&#x13c;" horiz-adv-x="191" 
d="M122 -7q-31 0 -44.5 16.5t-13.5 51.5v629q0 12 13 12h28q14 0 14 -12v-609q0 -24 6.5 -30t31.5 -5q13 0 15 -8l3 -23q1 -10 -9 -14q-26 -8 -44 -8zM143 -109q0 -68 -59 -121q-9 -9 -14 -3l-10 11q-4 4 1 10q26 32 26 66q0 26 -19 57q-7 10 3 16l31 25q10 8 19 -1
q22 -22 22 -60z" />
    <glyph glyph-name="Lcaron" unicode="&#x13d;" horiz-adv-x="409" 
d="M402 41v-31q0 -10 -11 -10h-319q-12 0 -12 11v639q0 13 12 13h34q10 0 10 -13l1 -598h274q11 0 11 -11zM323 597q0 -68 -59 -121q-9 -9 -14 -3l-10 11q-4 4 1 10q26 32 26 66q0 26 -19 57q-7 10 3 16l31 25q10 8 19 -1q22 -22 22 -60z" />
    <glyph glyph-name="lcaron" unicode="&#x13e;" horiz-adv-x="253" 
d="M118 -7q-31 0 -44.5 16.5t-13.5 51.5v629q0 12 13 12h28q14 0 14 -12v-609q0 -24 6.5 -30t31.5 -5q13 0 15 -8l3 -23q1 -10 -9 -14q-26 -8 -44 -8zM255 646q0 -68 -59 -121q-9 -9 -14 -3l-10 11q-4 4 1 10q26 32 26 66q0 26 -19 57q-7 10 3 16l31 25q10 7 19 -1
q22 -22 22 -60z" />
    <glyph glyph-name="Ldot" unicode="&#x13f;" horiz-adv-x="409" 
d="M402 41v-31q0 -10 -11 -10h-319q-12 0 -12 11v639q0 13 12 13h34q10 0 10 -13l1 -598h274q11 0 11 -11zM294 336q0 -36 -31 -36q-32 0 -32 36q0 33 32 33q31 0 31 -33z" />
    <glyph glyph-name="ldot" unicode="&#x140;" horiz-adv-x="243" 
d="M118 -7q-31 0 -44.5 16.5t-13.5 51.5v629q0 12 13 12h28q14 0 14 -12v-609q0 -24 6.5 -30t31.5 -5q13 0 15 -8l3 -23q1 -10 -9 -14q-26 -8 -44 -8zM226 353q0 -36 -31 -36q-32 0 -32 36q0 33 32 33q31 0 31 -33z" />
    <glyph glyph-name="Lslash" unicode="&#x141;" horiz-adv-x="409" 
d="M408 41v-31q0 -10 -11 -10h-319q-12 0 -12 11v225l-38 -21q-10 -7 -15 2l-11 20q-6 10 4 14l60 34v365q0 13 12 13h34q10 0 10 -13v-333l97 54q11 7 15 -3l12 -20q4 -9 -5 -14l-119 -67l1 -215h274q11 0 11 -11z" />
    <glyph glyph-name="lslash" unicode="&#x142;" horiz-adv-x="191" 
d="M124 -7q-31 0 -44.5 16.5t-13.5 51.5v215l-40 -22q-10 -4 -14 2l-11 20q-6 10 3 15l62 34v365q0 12 13 12h28q14 0 14 -12v-335l55 30q10 7 15 -3l12 -20q4 -9 -5 -14l-77 -42v-225q0 -24 6.5 -30t31.5 -5q13 0 15 -8l3 -23q1 -10 -9 -14q-26 -8 -44 -8z" />
    <glyph glyph-name="Nacute" unicode="&#x143;" horiz-adv-x="536" 
d="M118 548q-1 -1 -4 -1v-535q0 -12 -12 -12h-31q-13 0 -13 12v640q0 11 12 11h32q10 0 18 -11l206 -365l48 -89q36 -67 48 -85v537q0 13 13 13h31q12 0 12 -13v-639q0 -11 -12 -11h-31q-10 0 -18 11l-245 433q-36 65 -54 104zM364 830l22 -31q5 -8 -4 -12l-122 -75
q-8 -5 -13 3l-12 16q-5 8 2 12l111 90q9 7 16 -3z" />
    <glyph glyph-name="nacute" unicode="&#x144;" horiz-adv-x="420" 
d="M254 496q66 0 96 -34q13 -13 21 -41q10 -39 10 -107v-303q0 -11 -13 -11h-32q-12 0 -12 11v153q1 69 1 154q0 71 -16 99.5t-63 28.5q-50 0 -151 -57v-378q0 -11 -13 -11h-30q-12 0 -12 11v464q0 12 12 12h30q13 0 13 -12v-38q1 0 2 -1q89 60 157 60zM281 679l-77 -128
q-5 -6 -13 -2l-19 8q-8 3 -3 11l60 136q3 9 14 3l35 -17q8 -2 3 -11z" />
    <glyph glyph-name="Ncommaaccent" unicode="&#x145;" horiz-adv-x="536" 
d="M118 548q-1 -1 -4 -1v-535q0 -12 -12 -12h-31q-13 0 -13 12v640q0 11 12 11h32q10 0 18 -11l206 -365l48 -89q36 -67 48 -85v537q0 13 13 13h31q12 0 12 -13v-639q0 -11 -12 -11h-31q-10 0 -18 11l-245 433q-36 65 -54 104zM301 -109q0 -68 -59 -121q-9 -9 -14 -3l-10 11
q-4 4 1 10q26 32 26 66q0 26 -19 57q-7 10 3 16l31 25q10 8 19 -1q22 -22 22 -60z" />
    <glyph glyph-name="ncommaaccent" unicode="&#x146;" horiz-adv-x="420" 
d="M254 496q66 0 96 -34q13 -13 21 -41q10 -39 10 -107v-303q0 -11 -13 -11h-32q-12 0 -12 11v153q1 69 1 154q0 71 -16 99.5t-63 28.5q-50 0 -151 -57v-378q0 -11 -13 -11h-30q-12 0 -12 11v464q0 12 12 12h30q13 0 13 -12v-38q1 0 2 -1q89 60 157 60zM243 -108
q0 -68 -59 -121q-9 -9 -14 -3l-10 11q-4 4 1 10q26 32 26 66q0 26 -19 57q-7 10 3 16l31 25q10 7 19 -1q22 -22 22 -60z" />
    <glyph glyph-name="Ncaron" unicode="&#x147;" horiz-adv-x="536" 
d="M118 548q-1 -1 -4 -1v-535q0 -12 -12 -12h-31q-13 0 -13 12v640q0 11 12 11h32q10 0 18 -11l206 -365l48 -89q36 -67 48 -85v537q0 13 13 13h31q12 0 12 -13v-639q0 -11 -12 -11h-31q-10 0 -18 11l-245 433q-36 65 -54 104zM293 710h-28q-18 0 -25 7l-86 91q-4 7 0 13
l13 14q4 7 12 1l99 -81l99 78q7 4 13 0l14 -15q4 -4 -1 -12l-85 -88q-8 -8 -25 -8z" />
    <glyph glyph-name="ncaron" unicode="&#x148;" horiz-adv-x="420" 
d="M254 496q66 0 96 -34q13 -13 21 -41q10 -39 10 -107v-303q0 -11 -13 -11h-32q-12 0 -12 11v153q1 69 1 154q0 71 -16 99.5t-63 28.5q-50 0 -151 -57v-378q0 -11 -13 -11h-30q-12 0 -12 11v464q0 12 12 12h30q13 0 13 -12v-38q1 0 2 -1q89 60 157 60zM225 541h-37
q-17 0 -22 8l-80 115q-5 8 -1 12l15 13q7 6 13 0l94 -102l93 102q6 6 13 0l15 -13q4 -4 -1 -12l-80 -115q-5 -8 -22 -8z" />
    <glyph glyph-name="napostrophe" unicode="&#x149;" horiz-adv-x="462" 
d="M300 496q66 0 96 -34q13 -13 21 -41q10 -39 10 -107v-303q0 -11 -13 -11h-32q-12 0 -12 11v153q1 69 1 154q0 71 -16 99.5t-63 28.5q-50 0 -151 -57v-378q0 -11 -13 -11h-30q-12 0 -12 11v464q0 12 12 12h30q13 0 13 -12v-38q1 0 2 -1q89 60 157 60zM74 623
q0 -68 -59 -121q-9 -9 -14 -3l-10 11q-4 4 1 10q26 32 26 66q0 26 -19 57q-7 10 3 16l31 25q10 8 19 -1q22 -22 22 -60z" />
    <glyph glyph-name="Eng" unicode="&#x14a;" horiz-adv-x="536" 
d="M193 407q-49 85 -75 141l-4 -1v-535q0 -12 -12 -12h-31q-13 0 -13 12v640q0 11 12 11h32q10 0 18 -11l233 -413q25 -44 67 -126h2v537q0 13 13 13h31q12 0 12 -13v-711q0 -103 -98 -105q-27 0 -48 7q-9 5 -8 13l4 25q2 10 13 8q49 -5 64.5 7t15.5 52v58q-5 5 -228 403z
" />
    <glyph glyph-name="eng" unicode="&#x14b;" horiz-adv-x="422" 
d="M381 314v-375q0 -103 -98 -105q-27 0 -48 7q-9 5 -8 13l4 25q2 10 13 8q49 -5 65 7t16 52v395q-2 58 -19 81.5t-59 23.5q-51 0 -152 -57v-378q0 -11 -13 -11h-30q-11 0 -11 11v464q0 12 11 12h30q13 0 13 -12v-38q2 0 3 -1q89 60 157 60q67 0 97 -34q13 -13 19 -41
q10 -39 10 -107z" />
    <glyph glyph-name="Omacron" unicode="&#x14c;" horiz-adv-x="545" 
d="M494 341q0 -31 -2 -73q-2 -82 -21 -136q-45 -141 -202 -141q-133 -5 -187 110q-14 29 -22 75q-10 75 -10 165q0 29 2 71q9 99 32 145q59 114 186 114q112 0 165 -67q23 -28 37 -75q22 -71 22 -188zM436 331q0 150 -37 219t-130 69q-86 0 -122.5 -71t-36.5 -217
q0 -129 29 -205q35 -83 130 -83q91 0 129 70.5t38 217.5zM385 773v-30q0 -9 -11 -9h-207q-11 0 -11 9v30q0 10 11 10h207q11 0 11 -10z" />
    <glyph glyph-name="omacron" unicode="&#x14d;" horiz-adv-x="427" 
d="M390 252q0 -84 -15 -143q-28 -111 -165 -117q-89 0 -132 55q-17 21 -28 61q-14 59 -14 144q0 245 174 245q89 0 133 -51q19 -22 30 -57q17 -51 17 -137zM210 447q-67 0 -92.5 -48t-25.5 -154q0 -107 25.5 -155.5t92.5 -48.5q70 0 96.5 48t26.5 156t-26.5 155t-96.5 47z
M326 622v-30q0 -8 -10 -8h-209q-10 0 -10 8v30q0 10 10 10h209q10 0 10 -10z" />
    <glyph glyph-name="Obreve" unicode="&#x14e;" horiz-adv-x="545" 
d="M494 341q0 -31 -2 -73q-2 -82 -21 -136q-45 -141 -202 -141q-133 -5 -187 110q-14 29 -22 75q-10 75 -10 165q0 29 2 71q9 99 32 145q59 114 186 114q112 0 165 -67q23 -28 37 -75q22 -71 22 -188zM436 331q0 150 -37 219t-130 69q-86 0 -122.5 -71t-36.5 -217
q0 -129 29 -205q35 -83 130 -83q91 0 129 70.5t38 217.5zM271 713q-38 0 -69.5 22t-49.5 62q-8 17 0 23l14 12q8 6 17 -5q29 -37 47 -50.5t42 -13.5q23 0 39 13t47 52q8 11 17 3l15 -10q5 -5 2 -14q-16 -42 -49 -68t-72 -26z" />
    <glyph glyph-name="obreve" unicode="&#x14f;" horiz-adv-x="427" 
d="M390 252q0 -84 -15 -143q-28 -111 -165 -117q-89 0 -132 55q-17 21 -28 61q-14 59 -14 144q0 245 174 245q89 0 133 -51q19 -22 30 -57q17 -51 17 -137zM210 447q-67 0 -92.5 -48t-25.5 -154q0 -107 25.5 -155.5t92.5 -48.5q70 0 96.5 48t26.5 156t-26.5 155t-96.5 47z
M212 557q-80 0 -121 81q-7 15 0 21l13 11q10 9 18 -3q25 -37 44.5 -51.5t45.5 -14.5q17 0 31 10q20 13 55 57q8 8 16 2l14 -9q9 -6 3 -17q-21 -41 -53 -64t-66 -23z" />
    <glyph glyph-name="Ohungarumlaut" unicode="&#x150;" horiz-adv-x="545" 
d="M494 341q0 -31 -2 -73q-2 -82 -21 -136q-45 -141 -202 -141q-133 -5 -187 110q-14 29 -22 75q-10 75 -10 165q0 29 2 71q9 99 32 145q59 114 186 114q112 0 165 -67q23 -28 37 -75q22 -71 22 -188zM436 331q0 150 -37 219t-130 69q-86 0 -122.5 -71t-36.5 -217
q0 -129 29 -205q35 -83 130 -83q91 0 129 70.5t38 217.5zM305 830l22 -31q5 -8 -4 -12l-122 -75q-8 -5 -13 3l-12 16q-5 8 2 12l111 90q9 7 16 -3zM435 830l22 -31q5 -8 -4 -12l-122 -75q-8 -5 -13 3l-12 16q-5 8 2 12l111 90q9 7 16 -3z" />
    <glyph glyph-name="ohungarumlaut" unicode="&#x151;" horiz-adv-x="427" 
d="M390 252q0 -84 -15 -143q-28 -111 -165 -117q-89 0 -132 55q-17 21 -28 61q-14 59 -14 144q0 245 174 245q89 0 133 -51q19 -22 30 -57q17 -51 17 -137zM210 447q-67 0 -92.5 -48t-25.5 -154q0 -107 25.5 -155.5t92.5 -48.5q70 0 96.5 48t26.5 156t-26.5 155t-96.5 47z
M249 679l-77 -128q-5 -6 -13 -3l-19 8q-8 3 -3 11l60 136q3 9 14 3l35 -16q7 -4 3 -11zM344 679l-77 -128q-5 -6 -12 -3l-20 8q-6 3 -3 11l60 136q4 7 14 3l36 -16q9 -4 2 -11z" />
    <glyph glyph-name="OE" unicode="&#x152;" horiz-adv-x="673" 
d="M261 43q28 0 52 8l1 560q-27 8 -53 8q-87 0 -124 -71t-37 -217q0 -131 31 -205q35 -83 130 -83zM642 0h-312q-32 -9 -69 -9q-122 0 -173 87q-29 53 -38 122q-8 59 -8 141q0 330 219 330q30 0 68 -8h300q11 0 11 -11v-31q0 -11 -12 -11h-257v-237h230q12 0 12 -10v-30
q0 -11 -12 -11h-230v-270h271q12 0 12 -11v-31q0 -10 -12 -10z" />
    <glyph glyph-name="oe" unicode="&#x153;" horiz-adv-x="708" 
d="M364 77h-6q-39 -85 -147 -85q-89 0 -132 55q-17 21 -28 61q-14 59 -14 144q0 245 174 245q110 0 151 -92l5 -1q37 93 143 93q105 0 141 -70q32 -59 32 -150q1 -49 -36 -49h-254q2 -100 28 -142t91 -42q47 0 127 11q15 2 17 -9l3 -16q2 -11 -8 -14q-60 -25 -142 -25
q-109 0 -145 86zM334 244q-1 109 -27.5 156t-95.5 47q-67 0 -92.5 -48t-25.5 -154q0 -107 25.5 -155.5t92.5 -48.5q69 0 95.5 47t27.5 156zM509 447q-60 0 -87 -42.5t-29 -130.5h233q1 85 -25.5 129t-91.5 44z" />
    <glyph glyph-name="Racute" unicode="&#x154;" horiz-adv-x="445" 
d="M238 288h-127v-276q0 -12 -12 -12h-34q-12 0 -12 12v640q0 11 12 11h159q86 0 136.5 -46.5t50.5 -137.5q0 -68 -29 -117t-87 -66l124 -283q7 -13 -6 -13h-42q-14 0 -18 10zM212 610h-101v-272h107q133 0 133 138q0 134 -139 134zM284 830l22 -31q5 -8 -4 -12l-122 -75
q-8 -5 -13 3l-12 16q-5 8 2 12l111 90q9 7 16 -3z" />
    <glyph glyph-name="racute" unicode="&#x155;" horiz-adv-x="258" 
d="M257 484l4 -30q2 -15 -10 -18q-74 -22 -129 -52v-373q0 -11 -12 -11h-31q-12 0 -12 11v465q0 11 12 11h31q12 0 12 -11v-47l1 -1q64 51 120 65q13 3 14 -9zM189 679l-77 -128q-5 -6 -13 -2l-19 8q-8 3 -3 11l60 136q3 9 14 3l35 -17q8 -2 3 -11z" />
    <glyph glyph-name="Rcommaaccent" unicode="&#x156;" horiz-adv-x="445" 
d="M238 288h-127v-276q0 -12 -12 -12h-34q-12 0 -12 12v640q0 11 12 11h159q86 0 136.5 -46.5t50.5 -137.5q0 -68 -29 -117t-87 -66l124 -283q7 -13 -6 -13h-42q-14 0 -18 10zM212 610h-101v-272h107q133 0 133 138q0 134 -139 134zM253 -106q0 -68 -59 -121q-9 -9 -14 -3
l-10 11q-4 4 1 10q26 32 26 66q0 26 -19 57q-7 10 3 16l31 25q10 7 19 -1q22 -22 22 -60z" />
    <glyph glyph-name="rcommaaccent" unicode="&#x157;" horiz-adv-x="258" 
d="M261 484l4 -30q2 -15 -10 -18q-74 -22 -129 -52v-373q0 -11 -12 -11h-31q-12 0 -12 11v465q0 11 12 11h31q12 0 12 -11v-47l1 -1q64 51 120 65q13 3 14 -9zM132 -116q0 -68 -59 -121q-9 -9 -14 -3l-10 11q-4 4 1 10q26 32 26 66q0 26 -19 57q-7 10 3 16l31 25q10 7 19 -1
q22 -22 22 -60z" />
    <glyph glyph-name="Rcaron" unicode="&#x158;" horiz-adv-x="445" 
d="M238 288h-127v-276q0 -12 -12 -12h-34q-12 0 -12 12v640q0 11 12 11h159q86 0 136.5 -46.5t50.5 -137.5q0 -68 -29 -117t-87 -66l124 -283q7 -13 -6 -13h-42q-14 0 -18 10zM212 610h-101v-272h107q133 0 133 138q0 134 -139 134zM220 710h-28q-18 0 -25 7l-86 91
q-4 7 0 13l13 14q4 7 12 1l99 -81l99 78q7 4 13 0l14 -15q4 -4 -1 -12l-85 -88q-8 -8 -25 -8z" />
    <glyph glyph-name="rcaron" unicode="&#x159;" horiz-adv-x="258" 
d="M261 484l4 -30q2 -15 -10 -18q-74 -22 -129 -52v-373q0 -11 -12 -11h-31q-12 0 -12 11v465q0 11 12 11h31q12 0 12 -11v-47l1 -1q64 51 120 65q13 3 14 -9zM117 541h-37q-17 0 -22 8l-80 115q-5 8 -1 12l15 13q7 6 13 0l94 -102l93 102q6 6 13 0l15 -13q4 -4 -1 -12
l-80 -115q-5 -8 -22 -8z" />
    <glyph glyph-name="Sacute" unicode="&#x15a;" horiz-adv-x="446" 
d="M414 179q0 -95 -53.5 -141.5t-146.5 -46.5q-36 0 -92 8q-50 7 -76 18q-12 5 -9 17l4 19q1 9 16 8q104 -14 159 -14q65 0 102 31.5t37 88.5q0 71 -29 102q-29 30 -98 44q-87 17 -133 47q-54 36 -54 126q0 87 49 135t137 48q96 0 156 -24q12 -5 9 -15l-3 -17
q-3 -12 -18 -10q-108 12 -142 12q-128 0 -128 -126q0 -61 30 -84t100 -36q66 -13 106 -35q77 -42 77 -155zM302 830l22 -31q5 -8 -4 -12l-122 -75q-8 -5 -13 3l-12 16q-5 8 2 12l111 90q9 7 16 -3z" />
    <glyph glyph-name="sacute" unicode="&#x15b;" horiz-adv-x="365" 
d="M335 135q0 -72 -42.5 -107.5t-117.5 -35.5q-90 0 -135 21q-9 4 -7 15l3 15q2 11 17 9q81 -10 124 -10q100 0 100 85q0 50 -19 69.5t-73 28.5q-79 15 -114 43t-35 90q0 68 38 103.5t111 35.5q81 0 128 -22q9 -4 8 -14l-3 -17q-2 -10 -17 -8q-86 10 -117 10q-50 0 -71 -20
t-21 -65q0 -43 20 -58q20 -14 77 -25q68 -13 101 -37q45 -29 45 -106zM258 679l-77 -128q-5 -6 -13 -2l-19 8q-8 3 -3 11l60 136q3 9 14 3l35 -17q8 -2 3 -11z" />
    <glyph glyph-name="Scircumflex" unicode="&#x15c;" horiz-adv-x="446" 
d="M414 179q0 -95 -53.5 -141.5t-146.5 -46.5q-36 0 -92 8q-50 7 -76 18q-12 5 -9 17l4 19q1 9 16 8q104 -14 159 -14q65 0 102 31.5t37 88.5q0 71 -29 102q-29 30 -98 44q-87 17 -133 47q-54 36 -54 126q0 87 49 135t137 48q96 0 156 -24q12 -5 9 -15l-3 -17
q-3 -12 -18 -10q-108 12 -142 12q-128 0 -128 -126q0 -61 30 -84t100 -36q66 -13 106 -35q77 -42 77 -155zM213 833h28q17 0 25 -8l85 -88q5 -8 1 -12l-14 -15q-6 -4 -13 0l-99 78l-99 -81q-8 -6 -12 1l-13 14q-4 6 0 13l86 91q7 7 25 7z" />
    <glyph glyph-name="scircumflex" unicode="&#x15d;" horiz-adv-x="365" 
d="M335 135q0 -72 -42.5 -107.5t-117.5 -35.5q-90 0 -135 21q-9 4 -7 15l3 15q2 11 17 9q81 -10 124 -10q100 0 100 85q0 50 -19 69.5t-73 28.5q-79 15 -114 43t-35 90q0 68 38 103.5t111 35.5q81 0 128 -22q9 -4 8 -14l-3 -17q-2 -10 -17 -8q-86 10 -117 10q-50 0 -71 -20
t-21 -65q0 -43 20 -58q20 -14 77 -25q68 -13 101 -37q45 -29 45 -106zM160 694h37q17 0 22 -8l80 -115q5 -8 1 -12l-15 -13q-7 -6 -13 0l-93 102l-94 -102q-6 -6 -13 0l-15 13q-4 4 1 12l80 115q5 8 22 8z" />
    <glyph glyph-name="Scedilla" unicode="&#x15e;" horiz-adv-x="446" 
d="M414 179q0 -92 -49 -138t-137 -49l-12 -39q74 -5 74 -66q0 -74 -88 -74q-40 0 -63 12q-5 2 -3 8l4 15q2 7 8 5q36 -6 53 -6q43 0 43 38q0 20 -10.5 27.5t-43.5 10.5q-16 1 -11 18l17 50q-103 5 -150 26q-12 5 -9 17l4 19q1 9 16 8q104 -14 159 -14q65 0 102 31.5t37 88.5
q0 71 -29 102q-29 30 -98 44q-87 17 -133 47q-54 36 -54 126q0 87 49 135t137 48q96 0 156 -24q12 -5 9 -15l-3 -17q-3 -12 -18 -10q-108 12 -142 12q-128 0 -128 -126q0 -61 30 -84t100 -36q66 -13 106 -35q77 -42 77 -155z" />
    <glyph glyph-name="scedilla" unicode="&#x15f;" horiz-adv-x="365" 
d="M335 135q0 -136 -147 -143l-13 -39q74 -5 74 -66q0 -74 -88 -74q-41 0 -63 12q-5 2 -3 8l4 15q2 7 8 5q36 -6 53 -6q43 0 43 38q0 20 -10.5 27.5t-43.5 10.5q-16 1 -11 18l17 52q-76 1 -115 20q-9 4 -7 15l3 15q2 11 17 9q81 -10 124 -10q100 0 100 85q0 50 -19 69.5
t-73 28.5q-79 15 -114 43t-35 90q0 68 38 103.5t111 35.5q81 0 128 -22q9 -4 8 -14l-3 -17q-2 -10 -17 -8q-86 10 -117 10q-50 0 -71 -20t-21 -65q0 -43 20 -58q20 -14 77 -25q68 -13 101 -37q45 -29 45 -106z" />
    <glyph glyph-name="Scaron" unicode="&#x160;" horiz-adv-x="446" 
d="M414 179q0 -95 -53.5 -141.5t-146.5 -46.5q-36 0 -92 8q-50 7 -76 18q-12 5 -9 17l4 19q1 9 16 8q104 -14 159 -14q65 0 102 31.5t37 88.5q0 71 -29 102q-29 30 -98 44q-87 17 -133 47q-54 36 -54 126q0 87 49 135t137 48q96 0 156 -24q12 -5 9 -15l-3 -17
q-3 -12 -18 -10q-108 12 -142 12q-128 0 -128 -126q0 -61 30 -84t100 -36q66 -13 106 -35q77 -42 77 -155zM236 710h-28q-18 0 -25 7l-86 91q-4 7 0 13l13 14q4 7 12 1l99 -81l99 78q7 4 13 0l14 -15q4 -4 -1 -12l-85 -88q-8 -8 -25 -8z" />
    <glyph glyph-name="scaron" unicode="&#x161;" horiz-adv-x="365" 
d="M335 135q0 -72 -42.5 -107.5t-117.5 -35.5q-90 0 -135 21q-9 4 -7 15l3 15q2 11 17 9q81 -10 124 -10q100 0 100 85q0 50 -19 69.5t-73 28.5q-79 15 -114 43t-35 90q0 68 38 103.5t111 35.5q81 0 128 -22q9 -4 8 -14l-3 -17q-2 -10 -17 -8q-86 10 -117 10q-50 0 -71 -20
t-21 -65q0 -43 20 -58q20 -14 77 -25q68 -13 101 -37q45 -29 45 -106zM202 541h-37q-17 0 -22 8l-80 115q-5 8 -1 12l15 13q7 6 13 0l94 -102l93 102q6 6 13 0l15 -13q4 -4 -1 -12l-80 -115q-5 -8 -22 -8z" />
    <glyph glyph-name="Tcommaaccent" unicode="&#x162;" horiz-adv-x="407" 
d="M387 610h-155q0 -166 -1 -299v-300q0 -11 -10 -11h-34q-12 0 -12 11v599h-153q-12 0 -12 11v31q0 11 12 11h365q11 0 11 -11v-31q0 -11 -11 -11zM239 -116q0 -68 -59 -121q-9 -9 -14 -3l-10 11q-4 4 1 10q26 32 26 66q0 26 -19 57q-7 10 3 16l31 25q10 7 19 -1
q22 -22 22 -60z" />
    <glyph glyph-name="tcommaaccent" unicode="&#x163;" horiz-adv-x="265" 
d="M263 38l3 -16q1 -9 -7 -14q-31 -16 -88 -16q-50 0 -69 23t-19 76v351h-50q-11 0 -11 11v22q0 12 13 12h49v111q0 9 11 14l28 9q14 5 14 -11v-123h93q12 0 12 -12v-22q0 -11 -12 -11h-93v-334q0 -38 10 -52t41 -14q18 0 60 5q14 1 15 -9zM163 -116q0 -68 -59 -121
q-9 -9 -14 -3l-10 11q-4 4 1 10q26 32 26 66q0 26 -19 57q-7 10 3 16l31 25q10 7 19 -1q22 -22 22 -60z" />
    <glyph glyph-name="Tcaron" unicode="&#x164;" horiz-adv-x="407" 
d="M387 610h-155q0 -166 -1 -299v-300q0 -11 -10 -11h-34q-12 0 -12 11v599h-153q-12 0 -12 11v31q0 11 12 11h365q11 0 11 -11v-31q0 -11 -11 -11zM219 710h-28q-18 0 -25 7l-86 91q-4 7 0 13l13 14q4 7 12 1l99 -81l99 78q7 4 13 0l14 -15q4 -4 -1 -12l-85 -88
q-8 -8 -25 -8z" />
    <glyph glyph-name="tcaron" unicode="&#x165;" horiz-adv-x="293" 
d="M263 38l3 -16q1 -9 -7 -14q-31 -16 -88 -16q-50 0 -69 23t-19 76v351h-50q-11 0 -11 11v22q0 12 13 12h49v111q0 9 11 14l28 9q14 5 14 -11v-123h93q12 0 12 -12v-22q0 -11 -12 -11h-93v-334q0 -38 10 -52t41 -14q18 0 60 5q14 1 15 -9zM281 668q0 -68 -59 -121
q-9 -9 -14 -3l-10 11q-4 4 1 10q26 32 26 66q0 26 -19 57q-7 10 3 16l31 25q10 7 19 -1q22 -22 22 -60z" />
    <glyph glyph-name="Tbar" unicode="&#x166;" horiz-adv-x="407" 
d="M387 610h-155v-216h112q10 0 10 -10v-24q0 -9 -9 -9h-114v-340q0 -11 -10 -11h-34q-12 0 -12 11v340h-107q-10 0 -10 9v24q0 10 10 10h107v216h-153q-12 0 -12 11v31q0 11 12 11h365q11 0 11 -11v-31q0 -11 -11 -11z" />
    <glyph glyph-name="tbar" unicode="&#x167;" horiz-adv-x="265" 
d="M263 38l3 -16q1 -9 -7 -14q-31 -16 -88 -16q-50 0 -69 23t-19 76v183h-47q-9 0 -9 9v24q0 10 10 10h46v125h-50q-11 0 -11 11v22q0 12 13 12h49v111q0 9 11 14l28 9q14 5 14 -11v-123h93q12 0 12 -12v-22q0 -11 -12 -11h-93v-125h88q10 0 10 -10v-24q0 -9 -10 -9h-88
v-166q0 -38 10 -52t41 -14q18 0 60 5q14 1 15 -9z" />
    <glyph glyph-name="Utilde" unicode="&#x168;" horiz-adv-x="521" 
d="M466 649v-420q0 -115 -51.5 -176t-154.5 -61q-205 0 -205 237v420q0 14 15 14h29q14 0 14 -14v-416q0 -95 35.5 -141.5t111.5 -46.5q149 0 149 188v416q0 14 15 14h28q14 0 14 -14zM329 715q-25 0 -68 26q-38 23 -54 23q-22 0 -41 -37q-6 -11 -17 -6l-14 6q-9 4 -4 17
q27 66 77 66q24 0 70 -27q37 -22 52 -22q20 0 38 35q8 11 18 7l13 -6q10 -3 5 -14q-23 -68 -75 -68z" />
    <glyph glyph-name="utilde" unicode="&#x169;" horiz-adv-x="427" 
d="M168 -8q-73 0 -106 49q-8 15 -11 36q-5 39 -5 84v315q0 11 12 11h32q11 0 11 -11v-309q0 -71 16 -98.5t62 -27.5q48 0 148 57v378q0 11 13 11h30q12 0 12 -11v-465q0 -11 -12 -11h-30q-13 0 -13 11v39q-2 0 -3 1q-86 -59 -156 -59zM281 565q-25 0 -68 26q-38 23 -54 23
q-22 0 -41 -37q-6 -11 -17 -6l-14 6q-9 4 -4 17q27 66 77 66q24 0 70 -27q37 -22 52 -22q20 0 38 35q8 11 18 7l13 -6q10 -3 5 -14q-23 -68 -75 -68z" />
    <glyph glyph-name="Umacron" unicode="&#x16a;" horiz-adv-x="521" 
d="M466 649v-420q0 -115 -51.5 -176t-154.5 -61q-205 0 -205 237v420q0 14 15 14h29q14 0 14 -14v-416q0 -95 35.5 -141.5t111.5 -46.5q149 0 149 188v416q0 14 15 14h28q14 0 14 -14zM383 773v-30q0 -9 -11 -9h-207q-11 0 -11 9v30q0 10 11 10h207q11 0 11 -10z" />
    <glyph glyph-name="umacron" unicode="&#x16b;" horiz-adv-x="427" 
d="M168 -8q-73 0 -106 49q-8 15 -11 36q-5 39 -5 84v315q0 11 12 11h32q11 0 11 -11v-309q0 -71 16 -98.5t62 -27.5q48 0 148 57v378q0 11 13 11h30q12 0 12 -11v-465q0 -11 -12 -11h-30q-13 0 -13 11v39q-2 0 -3 1q-86 -59 -156 -59zM333 622v-30q0 -8 -10 -8h-209
q-10 0 -10 8v30q0 10 10 10h209q10 0 10 -10z" />
    <glyph glyph-name="Ubreve" unicode="&#x16c;" horiz-adv-x="521" 
d="M466 649v-420q0 -115 -51.5 -176t-154.5 -61q-205 0 -205 237v420q0 14 15 14h29q14 0 14 -14v-416q0 -95 35.5 -141.5t111.5 -46.5q149 0 149 188v416q0 14 15 14h28q14 0 14 -14zM267 709q-81 0 -121 81q-8 15 0 21l13 11q11 10 18 -3q25 -37 44.5 -51.5t45.5 -14.5
q17 0 31 10q20 13 55 57q8 8 16 2l14 -9q9 -6 3 -17q-21 -41 -53 -64t-66 -23z" />
    <glyph glyph-name="ubreve" unicode="&#x16d;" horiz-adv-x="427" 
d="M168 -8q-73 0 -106 49q-8 15 -11 36q-5 39 -5 84v315q0 11 12 11h32q11 0 11 -11v-309q0 -71 16 -98.5t62 -27.5q48 0 148 57v378q0 11 13 11h30q12 0 12 -11v-465q0 -11 -12 -11h-30q-13 0 -13 11v39q-2 0 -3 1q-86 -59 -156 -59zM220 557q-80 0 -121 81q-7 15 0 21
l13 11q10 9 18 -3q25 -37 44.5 -51.5t45.5 -14.5q17 0 31 10q20 13 55 57q8 8 16 2l14 -9q9 -6 3 -17q-21 -41 -53 -64t-66 -23z" />
    <glyph glyph-name="Uring" unicode="&#x16e;" horiz-adv-x="521" 
d="M316 782q0 21 -14.5 36.5t-35.5 15.5t-35.5 -15.5t-14.5 -36.5q0 -24 13.5 -38.5t36.5 -14.5q21 0 35.5 15.5t14.5 37.5zM266 868q38 2 63.5 -25t24.5 -61t-25 -61q-24 -25 -63 -25t-64.5 24t-25.5 62q0 37 26 61.5t64 24.5zM466 649v-420q0 -115 -51.5 -176t-154.5 -61
q-205 0 -205 237v420q0 14 15 14h29q14 0 14 -14v-416q0 -95 35.5 -141.5t111.5 -46.5q149 0 149 188v416q0 14 15 14h28q14 0 14 -14z" />
    <glyph glyph-name="uring" unicode="&#x16f;" horiz-adv-x="427" 
d="M168 -8q-73 0 -106 49q-8 15 -11 36q-5 39 -5 84v315q0 11 12 11h32q11 0 11 -11v-309q0 -71 16 -98.5t62 -27.5q48 0 148 57v378q0 11 13 11h30q12 0 12 -11v-465q0 -11 -12 -11h-30q-13 0 -13 11v39q-2 0 -3 1q-86 -59 -156 -59zM270 620q0 21 -14.5 36.5t-35.5 15.5
t-35.5 -15.5t-14.5 -36.5q0 -24 13.5 -38.5t36.5 -14.5q21 0 35.5 15.5t14.5 37.5zM220 706q38 2 63.5 -25t24.5 -61t-25 -61q-24 -25 -63 -25t-64.5 24t-25.5 62q0 37 26 61.5t64 24.5z" />
    <glyph glyph-name="Uhungarumlaut" unicode="&#x170;" horiz-adv-x="521" 
d="M466 649v-420q0 -115 -51.5 -176t-154.5 -61q-205 0 -205 237v420q0 14 15 14h29q14 0 14 -14v-416q0 -95 35.5 -141.5t111.5 -46.5q149 0 149 188v416q0 14 15 14h28q14 0 14 -14zM293 830l22 -31q5 -8 -4 -12l-122 -75q-8 -5 -13 3l-12 16q-5 8 2 12l111 90q9 7 16 -3z
M423 830l22 -31q5 -8 -4 -12l-122 -75q-8 -5 -13 3l-12 16q-5 8 2 12l111 90q9 7 16 -3z" />
    <glyph glyph-name="uhungarumlaut" unicode="&#x171;" horiz-adv-x="427" 
d="M168 -8q-73 0 -106 49q-8 15 -11 36q-5 39 -5 84v315q0 11 12 11h32q11 0 11 -11v-309q0 -71 16 -98.5t62 -27.5q48 0 148 57v378q0 11 13 11h30q12 0 12 -11v-465q0 -11 -12 -11h-30q-13 0 -13 11v39q-2 0 -3 1q-86 -59 -156 -59zM261 679l-77 -128q-5 -6 -13 -3l-19 8
q-8 3 -3 11l60 136q3 9 14 3l35 -16q7 -4 3 -11zM356 679l-77 -128q-5 -6 -12 -3l-20 8q-6 3 -3 11l60 136q4 7 14 3l36 -16q9 -4 2 -11z" />
    <glyph glyph-name="Uogonek" unicode="&#x172;" horiz-adv-x="521" 
d="M466 649v-420q0 -219 -180 -236q-35 -50 -35 -94q1 -45 46 -45q17 0 44 7q11 1 12 -3l6 -19q1 -7 -6 -10q-25 -13 -60 -15q-42 -1 -65.5 21t-23.5 59q0 50 39 99q-188 9 -188 236v420q0 14 15 14h29q14 0 14 -14v-416q0 -95 35.5 -141.5t111.5 -46.5q149 0 149 188v416
q0 14 15 14h28q14 0 14 -14z" />
    <glyph glyph-name="uogonek" unicode="&#x173;" horiz-adv-x="427" 
d="M321 -101q1 -45 46 -45q17 0 44 7q11 1 12 -3l6 -19q1 -7 -6 -10q-25 -13 -60 -15q-42 -1 -65.5 21t-23.5 59q0 60 53 113v4v39q-2 0 -3 1q-86 -59 -156 -59q-73 0 -106 49q-8 15 -11 36q-5 39 -5 84v315q0 11 12 11h32q11 0 11 -11v-309q0 -71 16 -98.5t62 -27.5
q48 0 148 57v378q0 11 13 11h30q12 0 12 -11v-465q0 -11 -12 -11h-8q-41 -53 -41 -101z" />
    <glyph glyph-name="Wcircumflex" unicode="&#x174;" horiz-adv-x="697" 
d="M392 245l-42 180h-4q-16 -88 -39 -178l-59 -237q-3 -10 -13 -10h-43q-11 0 -12 10l-165 642q-1 10 8 10h38q10 0 13 -9l99 -395q20 -82 41 -173h2q15 80 37 168l66 278l-30 121q-3 10 7 10h38q10 0 13 -9l101 -410q26 -104 38 -168h3q12 65 38 180l95 398q3 9 14 9h37
q10 0 7 -11l-160 -640q-3 -11 -13 -11h-42q-13 0 -14 10zM329 833h28q17 0 25 -8l85 -88q5 -8 1 -12l-14 -15q-6 -4 -13 0l-99 78l-99 -81q-8 -6 -12 1l-13 14q-4 6 0 13l86 91q7 7 25 7z" />
    <glyph glyph-name="wcircumflex" unicode="&#x175;" horiz-adv-x="587" 
d="M391 160l22 -80l106 397q3 10 13 10h36q8 0 8 -5t-1 -6l-132 -467q-3 -9 -13 -9h-34q-12 0 -14 9q-49 164 -84 298h-3l-37 -135l-46 -163q-3 -9 -12 -9h-34q-11 0 -14 9l-134 467q-3 11 7 11h36q11 0 14 -11l70 -253l38 -142h2q16 67 37 140l48 170l-23 85q-5 11 7 11h37
q10 0 13 -11l70 -253zM277 694h37q17 0 22 -8l80 -115q5 -8 1 -12l-15 -13q-7 -6 -13 0l-93 102l-94 -102q-6 -6 -13 0l-15 13q-4 4 1 12l80 115q5 8 22 8z" />
    <glyph glyph-name="Ycircumflex" unicode="&#x176;" horiz-adv-x="429" 
d="M160 485l57 -133h5q15 41 58 132l80 169q4 9 15 9h39q10 0 7 -10l-174 -358v-282q0 -12 -10 -12h-33q-13 0 -13 12v282l-172 359q-5 9 7 9h42q8 0 13 -9zM204 833h28q17 0 25 -8l85 -88q5 -8 1 -12l-14 -15q-6 -4 -13 0l-99 78l-99 -81q-8 -6 -12 1l-13 14q-4 6 0 13
l86 91q7 7 25 7z" />
    <glyph glyph-name="ycircumflex" unicode="&#x177;" horiz-adv-x="394" 
d="M80 476l117 -394h6l52 170l69 225q3 10 14 10h36q11 0 6 -11l-202 -642q-3 -10 -15 -10h-31q-13 0 -8 11l49 160l-150 481q-5 11 6 11h37q11 0 14 -11zM185 694h37q17 0 22 -8l80 -115q5 -8 1 -12l-15 -13q-7 -6 -13 0l-93 102l-94 -102q-6 -6 -13 0l-15 13q-4 4 1 12
l80 115q5 8 22 8z" />
    <glyph glyph-name="Ydieresis" unicode="&#x178;" horiz-adv-x="429" 
d="M160 485l57 -133h5q15 41 58 132l80 169q4 9 15 9h39q10 0 7 -10l-174 -358v-282q0 -12 -10 -12h-33q-13 0 -13 12v282l-172 359q-5 9 7 9h42q8 0 13 -9zM263 765q0 33 30 33q24 4 29.5 -19.5t-4.5 -39.5q-6 -9 -25 -9q-18 0 -24 8t-6 27zM179 765q0 -35 -30 -35
q-18 0 -24.5 8.5t-6.5 26.5q0 33 31 33q17 0 23.5 -7.5t6.5 -25.5z" />
    <glyph glyph-name="Zacute" unicode="&#x179;" horiz-adv-x="414" 
d="M389 41v-29q0 -12 -12 -12h-340q-12 0 -12 11v26q0 12 6 24l291 549h-267q-13 0 -13 11v31q0 11 13 11h319q12 0 12 -10v-30q0 -11 -6 -22l-288 -549h285q12 0 12 -11zM287 830l22 -31q5 -8 -4 -12l-122 -75q-8 -5 -13 3l-12 16q-5 8 2 12l111 90q9 7 16 -3z" />
    <glyph glyph-name="zacute" unicode="&#x17a;" horiz-adv-x="365" 
d="M23 10v24q0 12 7 22l245 383h-222q-12 0 -12 11v26q0 11 12 11h270q12 0 12 -10v-27q0 -13 -7 -21l-240 -379h237q12 0 12 -11v-27q0 -12 -12 -12h-291q-11 0 -11 10zM265 679l-77 -128q-5 -6 -13 -2l-19 8q-8 3 -3 11l60 136q3 9 14 3l35 -17q8 -2 3 -11z" />
    <glyph glyph-name="Zdotaccent" unicode="&#x17b;" horiz-adv-x="414" 
d="M389 41v-29q0 -12 -12 -12h-340q-12 0 -12 11v26q0 12 6 24l291 549h-267q-13 0 -13 11v31q0 11 13 11h319q12 0 12 -10v-30q0 -11 -6 -22l-288 -549h285q12 0 12 -11zM243 760q0 -36 -31 -36q-32 0 -32 36q0 33 32 33q31 0 31 -33z" />
    <glyph glyph-name="zdotaccent" unicode="&#x17c;" horiz-adv-x="365" 
d="M23 10v24q0 12 7 22l245 383h-222q-12 0 -12 11v26q0 11 12 11h270q12 0 12 -10v-27q0 -13 -7 -21l-240 -379h237q12 0 12 -11v-27q0 -12 -12 -12h-291q-11 0 -11 10zM222 612q0 -36 -31 -36q-32 0 -32 36q0 33 32 33q31 0 31 -33z" />
    <glyph glyph-name="Zcaron" unicode="&#x17d;" horiz-adv-x="414" 
d="M389 41v-29q0 -12 -12 -12h-340q-12 0 -12 11v26q0 12 6 24l291 549h-267q-13 0 -13 11v31q0 11 13 11h319q12 0 12 -10v-30q0 -11 -6 -22l-288 -549h285q12 0 12 -11zM233 708h-28q-18 0 -25 7l-86 91q-4 7 0 13l13 14q4 7 12 1l99 -81l99 78q7 4 13 0l14 -15
q4 -4 -1 -12l-85 -88q-8 -8 -25 -8z" />
    <glyph glyph-name="zcaron" unicode="&#x17e;" horiz-adv-x="365" 
d="M23 10v24q0 12 7 22l245 383h-222q-12 0 -12 11v26q0 11 12 11h270q12 0 12 -10v-27q0 -13 -7 -21l-240 -379h237q12 0 12 -11v-27q0 -12 -12 -12h-291q-11 0 -11 10zM211 541h-37q-17 0 -22 8l-80 115q-5 8 -1 12l15 13q7 6 13 0l94 -102l93 102q6 6 13 0l15 -13
q4 -4 -1 -12l-80 -115q-5 -8 -22 -8z" />
    <glyph glyph-name="florin" unicode="&#x192;" 
d="M111 -63q-43 0 -72 18q-7 4 -5 12l6 19q3 8 18 5q30 -6 49 -6q32 0 47.5 25t24.5 85l38 248h-68q-14 0 -14 12v22q0 13 14 13h74l26 154q23 129 116 129q47 0 75 -18q7 -4 5 -12l-6 -19q-3 -8 -18 -5q-30 6 -49 6q-32 0 -49 -28t-27 -93l-18 -114h80q13 0 13 -11v-24
q0 -12 -14 -12h-85l-42 -276q-25 -130 -119 -130z" />
    <glyph glyph-name="Ohorn" unicode="&#x1a0;" horiz-adv-x="545" 
d="M494 341q0 -31 -2 -73q-2 -82 -21 -136q-45 -141 -202 -141q-133 -5 -187 110q-14 29 -22 75q-10 75 -10 165q0 29 2 71q9 99 32 145q59 114 186 114q102 0 158 -59h6q34 0 50 21.5t16 69.5v47q0 12 13 12h22q13 0 13 -12v-49q0 -120 -91 -133q37 -73 37 -227zM436 331
q0 150 -37 219t-130 69q-86 0 -122.5 -71t-36.5 -217q0 -129 29 -205q35 -83 130 -83q91 0 129 70.5t38 217.5z" />
    <glyph glyph-name="ohorn" unicode="&#x1a1;" horiz-adv-x="444" 
d="M390 252q0 -84 -15 -143q-28 -111 -165 -117q-89 0 -132 55q-17 21 -28 61q-14 59 -14 144q0 245 174 245q92 0 137 -57q34 0 49.5 21t15.5 70v47q0 12 14 12h22q8 0 10 -2t2 -10v-49q0 -119 -89 -133q19 -48 19 -144zM210 447q-67 0 -92.5 -48t-25.5 -154
q0 -107 25.5 -155.5t92.5 -48.5q70 0 96.5 48t26.5 156t-26.5 155t-96.5 47z" />
    <glyph glyph-name="Uhorn" unicode="&#x1af;" horiz-adv-x="558" 
d="M466 649v-37h2q36 0 51 20t15 71v47q0 12 13 12h22q13 0 13 -12v-49q0 -134 -112 -134h-4v-338q0 -115 -51.5 -176t-154.5 -61q-205 0 -205 237v420q0 14 15 14h29q14 0 14 -14v-416q0 -95 35.5 -141.5t111.5 -46.5q149 0 149 188v416q0 14 15 14h28q14 0 14 -14z" />
    <glyph glyph-name="uhorn" unicode="&#x1b0;" horiz-adv-x="483" 
d="M168 -8q-73 0 -106 49q-8 15 -11 36q-5 39 -5 84v315q0 11 12 11h32q11 0 11 -11v-309q0 -71 16 -98.5t62 -27.5q48 0 148 57v378q0 11 13 11h30q12 0 12 -11v-36h2q34 0 50 21.5t16 69.5v47q0 8 2.5 10t10.5 2h22q7 0 9.5 -2t2.5 -10v-49q0 -134 -111 -134h-4v-384
q0 -11 -12 -11h-30q-13 0 -13 11v39q-2 0 -3 1q-86 -59 -156 -59z" />
    <glyph glyph-name="AEacute" unicode="&#x1fc;" horiz-adv-x="711" 
d="M688 41v-31q0 -10 -12 -10h-307q-12 0 -12 10v172h-199l-84 -171q-5 -11 -17 -11h-40q-11 0 -6 12l314 640q6 11 16 11h321q12 0 12 -11v-31q0 -11 -13 -11h-247v-234h222q11 0 11 -10v-29q0 -12 -11 -12h-222v-273h263q11 0 11 -11zM357 233v359h-4l-171 -359h175z
M568 830l22 -31q5 -8 -4 -12l-122 -75q-8 -5 -13 3l-12 16q-5 8 2 12l111 90q9 7 16 -3z" />
    <glyph glyph-name="aeacute" unicode="&#x1fd;" horiz-adv-x="694" 
d="M324 229h-139q-50 0 -73 -22t-23 -79q0 -48 16 -66.5t58 -18.5q58 0 173 70q-12 45 -12 116zM496 447q-59 0 -85.5 -42t-28.5 -128h233q0 71 -21 117q-24 53 -98 53zM495 -9q-105 0 -144 78q-95 -77 -203 -77q-61 0 -88.5 32t-27.5 100q0 82 37.5 118t120.5 36h134v57
q0 61 -24.5 86t-86.5 25q-48 0 -124 -10q-17 -2 -18 8l-3 17q-2 11 8 14q58 23 142 23q116 0 143 -71q43 70 136 70q105 0 142 -67q33 -59 33 -149q0 -51 -36 -51h-255q1 -99 27 -142.5t91 -43.5q44 0 127 11q14 2 16 -9l3 -16q2 -11 -7 -14q-60 -25 -143 -25zM453 679
l-77 -128q-5 -6 -13 -2l-19 8q-8 3 -3 11l60 136q3 9 14 3l35 -17q8 -2 3 -11z" />
    <glyph glyph-name="Oslashacute" unicode="&#x1fe;" horiz-adv-x="545" 
d="M494 341q0 -31 -2 -73q-2 -82 -21 -136q-45 -141 -202 -141q-93 0 -146 50l-27 -49q-6 -8 -13 -4l-21 11q-8 5 -2 13l36 64q-46 73 -46 265q0 29 2 71q9 99 32 145q59 114 186 114q87 0 137 -41l22 39q6 10 14 5l19 -11q7 -4 2 -12l-28 -50q58 -74 58 -260zM436 331
q0 145 -33 211l-248 -445q37 -54 114 -54q91 0 129 70.5t38 217.5zM110 331q0 -124 23 -190l245 437q-38 41 -109 41q-86 0 -122.5 -71t-36.5 -217zM365 830l22 -31q5 -8 -4 -12l-122 -75q-8 -5 -13 3l-12 16q-5 8 2 12l111 90q9 7 16 -3z" />
    <glyph glyph-name="oslashacute" unicode="&#x1ff;" horiz-adv-x="427" 
d="M390 252q0 -84 -15 -143q-28 -111 -165 -117q-61 0 -101 26l-17 -28q-6 -9 -13 -5l-19 11q-6 5 -2 13l22 37q-44 56 -44 206q0 245 174 245q74 0 117 -36l20 33q6 9 13 5l18 -10q7 -4 2 -13l-27 -45q37 -56 37 -179zM112 100l186 312q-30 35 -88 35q-68 0 -94 -51
q-24 -50 -24 -151q0 -100 20 -145zM333 245q0 83 -14 127l-183 -307q27 -24 74 -24q70 0 96.5 48t26.5 156zM303 679l-77 -128q-5 -6 -13 -2l-19 8q-8 3 -3 11l60 136q3 9 14 3l35 -17q8 -2 3 -11z" />
    <glyph glyph-name="Scommaaccent" unicode="&#x218;" horiz-adv-x="446" 
d="M414 179q0 -95 -53.5 -141.5t-146.5 -46.5q-36 0 -92 8q-50 7 -76 18q-12 5 -9 17l4 19q1 9 16 8q104 -14 159 -14q65 0 102 31.5t37 88.5q0 71 -29 102q-29 30 -98 44q-87 17 -133 47q-54 36 -54 126q0 87 49 135t137 48q96 0 156 -24q12 -5 9 -15l-3 -17
q-3 -12 -18 -10q-108 12 -142 12q-128 0 -128 -126q0 -61 30 -84t100 -36q66 -13 106 -35q77 -42 77 -155zM263 -116q0 -68 -59 -121q-9 -9 -14 -3l-10 11q-4 4 1 10q26 32 26 66q0 26 -19 57q-7 10 3 16l31 25q10 7 19 -1q22 -22 22 -60z" />
    <glyph glyph-name="scommaaccent" unicode="&#x219;" horiz-adv-x="365" 
d="M335 135q0 -72 -42.5 -107.5t-117.5 -35.5q-90 0 -135 21q-9 4 -7 15l3 15q2 11 17 9q81 -10 124 -10q100 0 100 85q0 50 -19 69.5t-73 28.5q-79 15 -114 43t-35 90q0 68 38 103.5t111 35.5q81 0 128 -22q9 -4 8 -14l-3 -17q-2 -10 -17 -8q-86 10 -117 10q-50 0 -71 -20
t-21 -65q0 -43 20 -58q20 -14 77 -25q68 -13 101 -37q45 -29 45 -106zM220 -116q0 -68 -59 -121q-9 -9 -14 -3l-10 11q-4 4 1 10q26 32 26 66q0 26 -19 57q-7 10 3 16l31 25q11 7 19 -1q22 -22 22 -60z" />
    <glyph glyph-name="uni021A" unicode="&#x21a;" horiz-adv-x="407" 
d="M387 610h-155q0 -166 -1 -299v-300q0 -11 -10 -11h-34q-12 0 -12 11v599h-153q-12 0 -12 11v31q0 11 12 11h365q11 0 11 -11v-31q0 -11 -11 -11zM241 -110q0 -68 -59 -121q-9 -9 -14 -3l-10 11q-4 4 1 10q26 32 26 66q0 26 -19 57q-7 10 3 16l31 25q10 7 19 -1
q22 -22 22 -60z" />
    <glyph glyph-name="uni021B" unicode="&#x21b;" horiz-adv-x="265" 
d="M263 38l3 -16q1 -9 -7 -14q-31 -16 -88 -16q-50 0 -69 23t-19 76v351h-50q-11 0 -11 11v22q0 12 13 12h49v111q0 9 11 14l28 9q14 5 14 -11v-123h93q12 0 12 -12v-22q0 -11 -12 -11h-93v-334q0 -38 10 -52t41 -14q18 0 60 5q14 1 15 -9zM163 -110q0 -68 -59 -121
q-9 -9 -14 -3l-10 11q-4 4 1 10q26 32 26 66q0 26 -19 57q-7 10 3 16l31 25q10 7 19 -1q22 -22 22 -60z" />
    <glyph glyph-name="schwa" unicode="&#x259;" horiz-adv-x="414" 
d="M211 41q58 0 85.5 43t30.5 130h-234q0 -72 20 -119q25 -54 98 -54zM211 497q87 0 129 -51q17 -20 28 -57q16 -58 16 -146q0 -252 -174 -252q-108 0 -144 69q-30 59 -30 151q0 26 8.5 37.5t28.5 11.5h253q-1 99 -27.5 141.5t-91.5 42.5q-42 0 -125 -11q-14 -2 -16 9l-3 16
q-3 11 7 14q60 25 141 25z" />
    <glyph glyph-name="primemod" unicode="&#x2b9;" horiz-adv-x="206" 
d="M187 660l-116 -242q-5 -6 -13 -3l-20 8q-7 3 -2 14l96 245q3 10 16 6l36 -14q8 -3 3 -14z" />
    <glyph glyph-name="circumflex" unicode="&#x2c6;" horiz-adv-x="426" 
d="M197 694h37q17 0 22 -8l80 -115q5 -8 1 -12l-15 -13q-7 -6 -13 0l-93 102l-94 -102q-6 -6 -13 0l-15 13q-4 4 1 12l80 115q5 8 22 8z" />
    <glyph glyph-name="caron" unicode="&#x2c7;" horiz-adv-x="395" 
d="M234 541h-37q-17 0 -22 8l-80 115q-5 8 -1 12l15 13q7 6 13 0l94 -102l93 102q6 6 13 0l15 -13q4 -4 -1 -12l-80 -115q-5 -8 -22 -8z" />
    <glyph glyph-name="breve" unicode="&#x2d8;" horiz-adv-x="429" 
d="M227 557q-81 0 -121 81q-8 15 0 21l13 11q11 9 18 -3q25 -37 44.5 -51.5t45.5 -14.5q17 0 31 10q20 13 55 57q8 8 16 2l14 -9q9 -6 3 -17q-21 -41 -53 -64t-66 -23z" />
    <glyph glyph-name="dotaccent" unicode="&#x2d9;" horiz-adv-x="352" 
d="M218 612q0 -36 -31 -36q-32 0 -32 36q0 33 32 33q31 0 31 -33z" />
    <glyph glyph-name="ring" unicode="&#x2da;" horiz-adv-x="433" 
d="M285 620q0 21 -14.5 36.5t-35.5 15.5t-35.5 -15.5t-14.5 -36.5q0 -24 13.5 -38.5t36.5 -14.5q21 0 35.5 15.5t14.5 37.5zM235 706q38 2 63.5 -25t24.5 -61t-25 -61q-24 -25 -63 -25t-64.5 24t-25.5 62q0 37 26 61.5t64 24.5z" />
    <glyph glyph-name="ogonek" unicode="&#x2db;" horiz-adv-x="342" 
d="M161 -101q1 -45 46 -45q17 0 44 7q11 1 12 -3l6 -19q1 -7 -6 -10q-25 -13 -60 -15q-42 -1 -65.5 21t-23.5 59q0 61 55 115l39 -1q-47 -59 -47 -109z" />
    <glyph glyph-name="tilde" unicode="&#x2dc;" horiz-adv-x="420" 
d="M277 566q-25 0 -68 26q-38 23 -54 23q-22 0 -41 -37q-6 -11 -17 -6l-14 6q-8 4 -4 17q27 66 77 66q24 0 70 -27q37 -22 52 -22q21 0 38 35q8 11 18 7l13 -6q10 -3 5 -14q-23 -68 -75 -68z" />
    <glyph glyph-name="hungarumlaut" unicode="&#x2dd;" horiz-adv-x="426" 
d="M260 679l-77 -128q-5 -6 -13 -3l-19 8q-8 3 -3 11l60 136q3 9 14 3l35 -16q7 -4 3 -11zM355 679l-77 -128q-4 -6 -12 -3l-20 8q-6 3 -3 11l60 136q4 7 14 3l36 -16q9 -4 2 -11z" />
    <glyph glyph-name="tonos" unicode="&#x384;" horiz-adv-x="421" 
d="M200 567l60 136q4 7 14 3l36 -16q7 -3 2 -11l-77 -128q-5 -6 -12 -3l-20 8q-6 3 -3 11z" />
    <glyph glyph-name="dieresistonos" unicode="&#x385;" horiz-adv-x="353" 
d="M295 612q0 -36 -31 -36q-18 0 -24.5 8.5t-6.5 27.5q0 33 31 33t31 -33zM119 612q0 -36 -31 -36q-18 0 -24.5 8.5t-6.5 27.5q0 33 31 33t31 -33zM127 567l60 136q4 7 14 3l36 -16q7 -3 2 -11l-77 -128q-4 -6 -12 -3l-20 8q-6 3 -3 11z" />
    <glyph glyph-name="Alphatonos" unicode="&#x386;" horiz-adv-x="465" 
d="M270 651l184 -640q0 -1 0.5 -3l0.5 -2q0 -6 -8 -6h-42q-9 0 -14 9l-46 173h-225l-46 -171q-2 -11 -15 -11h-37q-9 0 -9 6q0 4 1 5l185 640q5 11 15 11h41q10 0 15 -11zM235 589h-4l-97 -356h198l-57 206q-36 132 -40 150zM-17 522l60 136q4 7 14 3l36 -16q7 -3 2 -11
l-77 -128q-4 -6 -12 -3l-20 8q-6 3 -3 11z" />
    <glyph glyph-name="anoteleia" unicode="&#x387;" horiz-adv-x="158" 
d="M115 402q0 -21 -8 -31t-28 -10t-27.5 10t-7.5 31q0 38 35 38q20 0 28 -9t8 -29z" />
    <glyph glyph-name="Epsilontonos" unicode="&#x388;" horiz-adv-x="424" 
d="M400 41v-31q0 -10 -11 -10h-317q-12 0 -12 10v641q0 12 12 12h303q11 0 11 -11v-31q0 -11 -12 -11h-256v-234h230q11 0 11 -10v-29q0 -12 -11 -12h-230v-273h271q11 0 11 -11zM-105 522l60 136q4 7 14 3l36 -16q7 -3 2 -11l-77 -128q-4 -6 -12 -3l-20 8q-6 3 -3 11z" />
    <glyph glyph-name="Etatonos" unicode="&#x389;" horiz-adv-x="507" 
d="M451 651v-640q0 -11 -10 -11h-34q-12 0 -12 11v314h-277v-314q0 -11 -10 -11h-35q-11 0 -11 11v640q0 12 11 12h35q10 0 10 -12v-274h277v274q0 12 12 12h34q10 0 10 -12zM-104 523l60 136q4 7 14 3l36 -16q7 -3 2 -11l-77 -128q-5 -6 -12 -3l-20 8q-6 3 -3 11z" />
    <glyph glyph-name="Iotatonos" unicode="&#x38a;" horiz-adv-x="195" 
d="M-90 522l60 136q4 7 14 3l36 -16q7 -3 2 -11l-77 -128q-5 -6 -12 -3l-20 8q-6 3 -3 11zM129 651v-640q0 -11 -13 -11h-32q-13 0 -13 11v640q0 12 13 12h32q13 0 13 -12z" />
    <glyph glyph-name="Omicrontonos" unicode="&#x38c;" horiz-adv-x="545" 
d="M497 341q0 -31 -2 -73q-2 -82 -21 -136q-45 -141 -202 -141q-133 -5 -187 110q-14 29 -22 75q-10 75 -10 165q0 29 2 71q9 99 32 145q59 114 186 114q112 0 165 -67q23 -28 37 -75q22 -71 22 -188zM439 331q0 150 -37 219t-130 69q-86 0 -122.5 -71t-36.5 -217
q0 -129 29 -205q35 -83 130 -83q91 0 129 70.5t38 217.5zM-68 523l60 136q4 7 14 3l36 -16q7 -3 2 -11l-77 -128q-5 -6 -12 -3l-20 8q-6 3 -3 11z" />
    <glyph glyph-name="Upsilontonos" unicode="&#x38e;" horiz-adv-x="429" 
d="M158 485l57 -133h5q16 41 58 132l80 169q4 9 15 9h39q10 0 7 -10l-174 -358v-282q0 -12 -10 -12h-33q-13 0 -13 12v282l-172 359q-5 9 7 9h42q8 0 13 -9zM-117 523l60 136q4 7 14 3l36 -16q7 -3 2 -11l-77 -128q-4 -6 -12 -3l-20 8q-6 3 -3 11z" />
    <glyph glyph-name="Omegatonos" unicode="&#x38f;" horiz-adv-x="560" 
d="M427 55l2 -3h83q13 0 13 -12v-28q0 -12 -13 -12h-169q-14 0 -14 11v35q0 10 13 16q63 31 88.5 97.5t25.5 180.5q0 280 -172 280q-173 0 -173 -278q0 -232 107 -279q14 -6 14 -16v-35q0 -12 -15 -12h-169q-8 0 -10.5 2.5t-2.5 9.5v28q0 12 13 12h86l1 3q-84 68 -84 289
q0 131 48 224q53 103 184 103q231 0 231 -327q0 -210 -87 -289zM-67 523l60 136q4 7 14 3l36 -16q7 -3 2 -11l-77 -128q-4 -6 -12 -3l-20 8q-6 3 -3 11z" />
    <glyph glyph-name="iotadieresistonos" unicode="&#x390;" horiz-adv-x="182" 
d="M214 612q0 -36 -31 -36q-18 0 -24.5 8.5t-6.5 27.5q0 33 31 33t31 -33zM38 612q0 -36 -31 -36q-18 0 -24.5 8.5t-6.5 27.5q0 33 31 33t31 -33zM46 567l60 136q4 7 14 3l36 -16q7 -3 2 -11l-77 -128q-5 -6 -12 -3l-20 8q-6 3 -3 11zM118 475v-464q0 -11 -11 -11h-30
q-13 0 -13 11v464q0 12 13 12h31q10 0 10 -12z" />
    <glyph glyph-name="Alpha" unicode="&#x391;" horiz-adv-x="465" 
d="M267 651l184 -640q0 -1 0.5 -3l0.5 -2q0 -6 -8 -6h-42q-10 0 -14 9l-46 173h-225l-46 -171q-2 -11 -15 -11h-37q-9 0 -9 6q0 4 1 5l185 640q5 11 15 11h41q10 0 15 -11zM232 589h-4l-97 -356h198l-57 206q-36 132 -40 150z" />
    <glyph glyph-name="Beta" unicode="&#x392;" horiz-adv-x="471" 
d="M439 177q0 -80 -49 -129q-50 -48 -123 -48h-195q-16 0 -16 12v638q0 12 12 12h166q88 0 136.5 -44.5t48.5 -120.5q0 -109 -88 -148v-2q58 -18 83 -67t25 -103zM358 491q0 55 -34 87t-99 32h-112v-240h117q57 0 92.5 33.5t35.5 87.5zM378 184q0 58 -36.5 96.5t-100.5 38.5
h-128v-267h129q136 0 136 132z" />
    <glyph glyph-name="Gamma" unicode="&#x393;" horiz-adv-x="392" 
d="M374 610h-257v-598q0 -12 -11 -12h-34q-12 0 -12 12v639q0 12 12 12h303q11 0 11 -11v-31q0 -11 -12 -11z" />
    <glyph glyph-name="increment" unicode="&#x394;" horiz-adv-x="467" 
d="M271 650l187 -638q3 -12 -10 -12h-423q-13 0 -10 12l185 639q5 11 18 11h35q13 0 18 -12zM237 580h-6q-4 -20 -48 -184l-99 -344h301l-106 369l-11 39q-28 105 -31 120z" />
    <glyph glyph-name="increment" unicode="&#x2206;" horiz-adv-x="467" 
d="M271 650l187 -638q3 -12 -10 -12h-423q-13 0 -10 12l185 639q5 11 18 11h35q13 0 18 -12zM237 580h-6q-4 -20 -48 -184l-99 -344h301l-106 369l-11 39q-28 105 -31 120z" />
    <glyph glyph-name="Epsilon" unicode="&#x395;" horiz-adv-x="424" 
d="M397 41v-31q0 -10 -11 -10h-317q-12 0 -12 10v641q0 12 12 12h303q11 0 11 -11v-31q0 -11 -12 -11h-256v-234h230q11 0 11 -10v-29q0 -12 -11 -12h-230v-273h271q11 0 11 -11z" />
    <glyph glyph-name="Zeta" unicode="&#x396;" horiz-adv-x="414" 
d="M389 41v-29q0 -12 -12 -12h-340q-12 0 -12 11v26q0 12 6 24l291 549h-267q-13 0 -13 11v31q0 11 13 11h319q12 0 12 -10v-30q0 -11 -6 -22l-288 -549h285q12 0 12 -11z" />
    <glyph glyph-name="Eta" unicode="&#x397;" horiz-adv-x="507" 
d="M448 651v-640q0 -11 -10 -11h-34q-12 0 -12 11v314h-277v-314q0 -11 -10 -11h-35q-11 0 -11 11v640q0 12 11 12h35q10 0 10 -12v-274h277v274q0 12 12 12h34q10 0 10 -12z" />
    <glyph glyph-name="Theta" unicode="&#x398;" horiz-adv-x="557" 
d="M506 341q0 -47 -3 -83q-7 -105 -34 -154q-57 -113 -194 -113q-126 0 -177 87q-30 52 -40 123q-8 59 -8 140q0 330 225 330q115 0 169 -68q26 -29 39 -75q23 -70 23 -187zM447 331q0 150 -38.5 219t-133.5 69q-88 0 -126 -72t-38 -216q0 -133 30 -205q35 -83 134 -83
q92 0 132 71.5t40 216.5zM401 363v-30q0 -11 -14 -11h-214q-8 0 -10.5 2t-2.5 9v30q0 10 13 10h214q14 0 14 -10z" />
    <glyph glyph-name="Iota" unicode="&#x399;" horiz-adv-x="195" 
d="M126 651v-640q0 -11 -13 -11h-32q-13 0 -13 11v640q0 12 13 12h32q13 0 13 -12z" />
    <glyph glyph-name="Kappa" unicode="&#x39a;" horiz-adv-x="467" 
d="M113 651v-374q0 -1 0.5 -1t0.5 -1q30 47 126 183l138 197q5 8 18 8h42q8 0 8 -6q0 -1 -1 -2t-1 -3l-189 -268l195 -373q0 -2 1 -3l1 -2q0 -6 -9 -6h-42q-19 0 -29 31l-155 301l-104 -149v-172q0 -11 -12 -11h-33q-12 0 -12 11v640q0 12 12 12h33q12 0 12 -12z" />
    <glyph glyph-name="Lambda" unicode="&#x39b;" horiz-adv-x="465" 
d="M392 9l-66 243q-62 225 -90 337h-4l-157 -578q-2 -11 -15 -11h-37q-13 0 -8 11l185 640q5 11 15 11h41q10 0 15 -11l184 -640q2 -11 -7 -11h-42q-10 0 -14 9z" />
    <glyph glyph-name="Mu" unicode="&#x39c;" horiz-adv-x="631" 
d="M265 310l50 -124h3l65 163l127 303q6 11 19 11h30q13 0 13 -12v-639q0 -12 -13 -12h-31q-14 0 -14 12q0 512 -3 512l-32 -84l-135 -321q-6 -11 -16 -11h-24q-12 0 -16 9l-143 334q-10 21 -28 71h-2v-510q0 -12 -12 -12h-31q-13 0 -13 12v640q0 11 11 11h34q12 0 17 -11z
" />
    <glyph glyph-name="Nu" unicode="&#x39d;" horiz-adv-x="536" 
d="M118 548q-1 -1 -4 -1v-535q0 -12 -12 -12h-31q-13 0 -13 12v640q0 11 12 11h32q10 0 18 -11l206 -365l48 -89q36 -67 48 -85v537q0 13 13 13h31q12 0 12 -13v-639q0 -11 -12 -11h-31q-10 0 -18 11l-245 433q-36 65 -54 104z" />
    <glyph glyph-name="Xi" unicode="&#x39e;" horiz-adv-x="437" 
d="M397 609h-360q-8 0 -10.5 2.5t-2.5 9.5v30q0 5 0.5 7t3.5 3.5t9 1.5h360q12 0 12 -12v-30q0 -12 -12 -12zM29 52h375q13 0 13 -12v-29q0 -11 -13 -11h-374q-14 0 -14 11v29q0 12 13 12zM61 376h311q13 0 13 -11v-28q0 -7 -2 -9.5t-11 -2.5h-311q-8 0 -10.5 2.5t-2.5 9.5
v28q0 11 13 11z" />
    <glyph glyph-name="Omicron" unicode="&#x39f;" horiz-adv-x="545" 
d="M494 341q0 -31 -2 -73q-2 -82 -21 -136q-45 -141 -202 -141q-133 -5 -187 110q-14 29 -22 75q-10 75 -10 165q0 29 2 71q9 99 32 145q59 114 186 114q112 0 165 -67q23 -28 37 -75q22 -71 22 -188zM436 331q0 150 -37 219t-130 69q-86 0 -122.5 -71t-36.5 -217
q0 -129 29 -205q35 -83 130 -83q91 0 129 70.5t38 217.5z" />
    <glyph glyph-name="Pi" unicode="&#x3a0;" horiz-adv-x="516" 
d="M459 650v-639q0 -11 -13 -11h-28q-16 0 -16 11v598h-286v-598q0 -11 -13 -11h-30q-14 0 -14 11v639q0 13 13 13h375q12 0 12 -13z" />
    <glyph glyph-name="Rho" unicode="&#x3a1;" horiz-adv-x="433" 
d="M412 475q0 -37 -9.5 -70t-30 -62.5t-59 -47t-91.5 -17.5h-109v-266q0 -12 -12 -12h-33q-13 0 -13 12v640q0 11 13 11h152q88 0 140 -49.5t52 -138.5zM355 473q0 68 -37.5 102.5t-106.5 34.5h-98v-282h108q60 0 97 37t37 108z" />
    <glyph glyph-name="Sigma" unicode="&#x3a3;" horiz-adv-x="382" 
d="M376 40v-28q0 -12 -12 -12h-334q-15 0 -15 11v26q0 13 7 26l145 282l-147 256q-6 7 -6 21v31q0 10 13 10h327q13 0 13 -12v-29q0 -7 -2.5 -9.5t-11.5 -2.5h-276l144 -246q11 -18 0 -39l-139 -273h281q13 0 13 -12z" />
    <glyph glyph-name="Tau" unicode="&#x3a4;" horiz-adv-x="407" 
d="M387 610h-155q0 -166 -1 -299v-300q0 -11 -10 -11h-34q-12 0 -12 11v599h-153q-12 0 -12 11v31q0 11 12 11h365q11 0 11 -11v-31q0 -11 -11 -11z" />
    <glyph glyph-name="Upsilon" unicode="&#x3a5;" horiz-adv-x="429" 
d="M160 485l57 -133h5q15 41 58 132l80 169q4 9 15 9h39q10 0 7 -10l-174 -358v-282q0 -12 -10 -12h-33q-13 0 -13 12v282l-172 359q-5 9 7 9h42q8 0 13 -9z" />
    <glyph glyph-name="Phi" unicode="&#x3a6;" horiz-adv-x="641" 
d="M354 77v-66q0 -11 -12 -11h-33q-13 0 -13 11v66q-134 8 -194 79q-59 75 -58 182q1 98 63 172q63 74 189 84v57q0 12 13 12h33q12 0 12 -12v-57q131 -10 189.5 -82.5t58.5 -173.5q0 -106 -62 -180q-62 -72 -186 -81zM99 336q0 -192 197 -209v417q-197 -16 -197 -208z
M545 335q0 83 -44 142q-43 60 -146 67v-418q94 7 142 61t48 148z" />
    <glyph glyph-name="Chi" unicode="&#x3a7;" horiz-adv-x="443" 
d="M367 10l-141 277l-142 -277q-4 -10 -15 -10h-42q-10 0 -6 10l174 333l-161 309q-8 11 5 11h43q11 0 15 -10l129 -254l129 254q5 9 16 9h41q5 1 6.5 -2.5t-0.5 -7.5l-162 -309l175 -333q4 -10 -6 -10h-43q-9 0 -15 10z" />
    <glyph glyph-name="Psi" unicode="&#x3a8;" horiz-adv-x="588" 
d="M318 167v-155q0 -12 -13 -12h-30q-14 0 -14 12v154q-106 9 -158.5 73t-52.5 173v238q0 13 14 13h30q14 0 14 -13v-238q0 -177 153 -191v429q0 13 14 13h30q13 0 13 -13v-429q155 17 155 191v238q0 13 14 13h30q13 0 13 -13v-238q0 -104 -57 -171t-155 -74z" />
    <glyph glyph-name="Omega" unicode="&#x3a9;" horiz-adv-x="560" 
d="M424 55l2 -3h83q13 0 13 -12v-28q0 -12 -13 -12h-169q-14 0 -14 11v35q0 10 13 16q63 31 88.5 97.5t25.5 180.5q0 280 -172 280q-173 0 -173 -278q0 -232 107 -279q14 -6 14 -16v-35q0 -12 -15 -12h-169q-8 0 -10.5 2.5t-2.5 9.5v28q0 12 13 12h86l1 3q-84 68 -84 289
q0 131 48 224q53 103 184 103q231 0 231 -327q0 -210 -87 -289z" />
    <glyph glyph-name="Iotadieresis" unicode="&#x3aa;" horiz-adv-x="195" 
d="M141 765q0 33 30 33q24 4 29.5 -19.5t-4.5 -39.5q-6 -9 -25 -9q-18 0 -24 8t-6 27zM57 765q0 -35 -30 -35q-18 0 -24.5 8.5t-6.5 26.5q0 33 31 33q17 0 23.5 -7.5t6.5 -25.5zM126 651v-640q0 -11 -13 -11h-32q-13 0 -13 11v640q0 12 13 12h32q13 0 13 -12z" />
    <glyph glyph-name="Upsilondieresis" unicode="&#x3ab;" horiz-adv-x="429" 
d="M160 485l57 -133h5q15 41 58 132l80 169q4 9 15 9h39q10 0 7 -10l-174 -358v-282q0 -12 -10 -12h-33q-13 0 -13 12v282l-172 359q-5 9 7 9h42q8 0 13 -9zM261 765q0 33 30 33q24 4 29.5 -19.5t-4.5 -39.5q-6 -9 -25 -9q-18 0 -24 8t-6 27zM177 765q0 -35 -30 -35
q-18 0 -24.5 8.5t-6.5 26.5q0 33 31 33q17 0 23.5 -7.5t6.5 -25.5z" />
    <glyph glyph-name="alphatonos" unicode="&#x3ac;" horiz-adv-x="439" 
d="M331 52h-2q-89 -59 -158 -59q-74 0 -105 57.5t-31 186.5q0 136 39 197.5t131 61.5q64 0 126 -35v14q0 7 2.5 9.5t10.5 2.5h28q13 0 13 -12v-395q0 -27 5 -33t29 -8q12 -1 12 -9v-19q0 -16 -44 -16q-29 0 -42 13t-14 44zM330 105v307q-73 35 -125 35q-62 0 -87.5 -48.5
t-25.5 -163.5q0 -110 20 -152q19 -40 67 -40q29 0 76 21q44 20 75 41zM193 567l60 136q4 7 14 3l36 -16q7 -3 2 -11l-77 -128q-4 -6 -12 -3l-20 8q-6 3 -3 11z" />
    <glyph glyph-name="epsilontonos" unicode="&#x3ad;" horiz-adv-x="363" 
d="M107 264v3q-63 21 -63 95q0 71 47 103q48 33 114 33q79 0 129 -21q10 -4 7 -13l-3 -17q-1 -12 -17 -9q-79 9 -112 9q-106 0 -106 -84q0 -52 39 -66q31 -10 69 -10h38q12 0 12 -12v-25q0 -11 -12 -11h-36q-45 0 -77 -14q-41 -17 -41 -83q0 -56 29.5 -78t88.5 -22
q48 0 118 10q15 3 17 -8l3 -16q2 -9 -8 -14q-47 -22 -134 -22q-79 0 -126 36.5t-47 110.5q0 93 71 125zM162 567l60 136q4 7 14 3l36 -16q7 -3 2 -11l-77 -128q-5 -6 -12 -3l-20 8q-6 3 -3 11z" />
    <glyph glyph-name="etatonos" unicode="&#x3ae;" horiz-adv-x="420" 
d="M254 496q66 0 96 -34q13 -13 21 -41q10 -39 10 -107v-303q0 -11 -13 -11h-32q-12 0 -12 11v153q1 69 1 154q0 71 -16 99.5t-63 28.5q-50 0 -151 -57v-378q0 -11 -13 -11h-30q-12 0 -12 11v464q0 12 12 12h30q13 0 13 -12v-38q1 0 2 -1q89 60 157 60zM161 567l60 136
q4 7 14 3l36 -16q7 -3 2 -11l-77 -128q-4 -6 -12 -3l-20 8q-6 3 -3 11z" />
    <glyph glyph-name="iotatonos" unicode="&#x3af;" horiz-adv-x="182" 
d="M67 567l60 136q4 7 14 3l36 -16q7 -3 2 -11l-77 -128q-4 -6 -12 -3l-20 8q-6 3 -3 11zM118 475v-464q0 -11 -11 -11h-30q-13 0 -13 11v464q0 12 13 12h31q10 0 10 -12z" />
    <glyph glyph-name="upsilondieresistonos" unicode="&#x3b0;" horiz-adv-x="429" 
d="M338 612q0 -36 -31 -36q-18 0 -24.5 8.5t-6.5 27.5q0 33 31 33t31 -33zM162 612q0 -36 -31 -36q-18 0 -24.5 8.5t-6.5 27.5q0 33 31 33t31 -33zM170 567l60 136q4 7 14 3l36 -16q7 -3 2 -11l-77 -128q-5 -6 -12 -3l-20 8q-6 3 -3 11zM342 487h30q12 0 12 -12v-298
q0 -87 -42.5 -135.5t-129.5 -48.5q-89 0 -128 45.5t-39 138.5v298q0 12 13 12h29q12 0 12 -12v-300q0 -68 25 -101.5t88 -33.5q116 0 116 135v300q0 12 14 12z" />
    <glyph glyph-name="alpha" unicode="&#x3b1;" horiz-adv-x="439" 
d="M331 52h-2q-89 -59 -158 -59q-74 0 -105 57.5t-31 186.5q0 136 39 197.5t131 61.5q64 0 126 -35v14q0 7 2.5 9.5t10.5 2.5h28q13 0 13 -12v-395q0 -27 5 -33t29 -8q12 -1 12 -9v-19q0 -16 -44 -16q-29 0 -42 13t-14 44zM330 105v307q-73 35 -125 35q-62 0 -87.5 -48.5
t-25.5 -163.5q0 -110 20 -152q19 -40 67 -40q29 0 76 21q44 20 75 41z" />
    <glyph glyph-name="beta" unicode="&#x3b2;" horiz-adv-x="422" 
d="M99 16l-2 -2v-178q0 -7 -2.5 -9t-10.5 -2h-30q-12 0 -12 11v668q0 97 44.5 150.5t118.5 53.5q73 0 113 -40.5t40 -117.5q0 -41 -19 -79t-54 -58v-5q106 -13 106 -176q0 -128 -39.5 -185t-134.5 -57q-55 0 -118 26zM335 227q0 77 -25.5 108t-81.5 31q-14 0 -56 -3
q-14 -2 -14 9v25q0 10 12 13q67 17 99 48.5t32 91.5q0 53 -26.5 80t-73.5 27q-51 0 -77.5 -41t-26.5 -111v-441q67 -23 123 -23q62 0 88.5 43.5t26.5 142.5z" />
    <glyph glyph-name="gamma" unicode="&#x3b3;" horiz-adv-x="379" 
d="M198 89h5q16 58 41 139l79 249q3 10 15 10h33q12 0 9 -11l-156 -469v-171q0 -12 -13 -12h-28q-8 0 -10.5 2t-2.5 10v176l-128 404q-5 18 -11 24t-18 6q-9 0 -11 6l-4 23q-1 6 10 11q21 8 34 8q20 0 30.5 -14t22.5 -52l63 -202q24 -76 40 -137z" />
    <glyph glyph-name="delta" unicode="&#x3b4;" horiz-adv-x="428" 
d="M222 653q-50 0 -69.5 -18t-19.5 -64q0 -22 24 -50q9 -9 35 -22q36 -16 43 -20q87 -40 121 -88q35 -49 35 -149q0 -87 -16 -138q-31 -107 -164 -112q-87 0 -131 53q-17 22 -28 58q-15 55 -15 139q0 74 29.5 131.5t84.5 84.5q-74 35 -74 111q0 135 142 135q75 0 127 -21
q11 -5 9 -14l-3 -18q-2 -8 -18 -7q-77 9 -112 9zM334 234q0 84 -19 118q-21 48 -108 81q-58 -22 -86 -69t-28 -130q0 -102 26.5 -147.5t92.5 -45.5q68 0 95 45t27 148z" />
    <glyph glyph-name="epsilon" unicode="&#x3b5;" horiz-adv-x="363" 
d="M107 264v3q-63 21 -63 95q0 71 47 103q48 33 114 33q79 0 129 -21q10 -4 7 -13l-3 -17q-1 -12 -17 -9q-79 9 -112 9q-106 0 -106 -84q0 -52 39 -66q31 -10 69 -10h38q12 0 12 -12v-25q0 -11 -12 -11h-36q-45 0 -77 -14q-41 -17 -41 -83q0 -56 29.5 -78t88.5 -22
q48 0 118 10q15 3 17 -8l3 -16q2 -9 -8 -14q-47 -22 -134 -22q-79 0 -126 36.5t-47 110.5q0 93 71 125z" />
    <glyph glyph-name="zeta" unicode="&#x3b6;" horiz-adv-x="365" 
d="M294 -7q-82 0 -143 15q-120 33 -120 139q0 99 93 178q46 40 80 62q38 26 87 53l-1 1h-238q-11 0 -11 11v24q0 11 11 11h308q10 0 10 -9v-29q0 -15 -7 -19q-1 0 -6 -3t-17 -10.5t-23 -14.5q-47 -30 -54 -35l-49 -34q-34 -24 -52 -42l-37 -42q-38 -43 -38 -97q0 -58 51 -83
t155 -25h28q16 0 19 -10l9 -20q5 -16 -5 -34q-33 -68 -53 -133q-4 -14 -16 -10l-26 7q-10 4 -7 19q5 19 23 68q15 39 29 62z" />
    <glyph glyph-name="eta" unicode="&#x3b7;" horiz-adv-x="420" 
d="M254 496q66 0 96 -34q13 -13 21 -41q10 -39 10 -107v-303q0 -11 -13 -11h-32q-12 0 -12 11v153q1 69 1 154q0 71 -16 99.5t-63 28.5q-50 0 -151 -57v-378q0 -11 -13 -11h-30q-12 0 -12 11v464q0 12 12 12h30q13 0 13 -12v-38q1 0 2 -1q89 60 157 60z" />
    <glyph glyph-name="theta" unicode="&#x3b8;" horiz-adv-x="445" 
d="M411 362q0 -42 -2 -92q-7 -111 -27 -163q-23 -55 -61 -85t-102 -30q-107 0 -147 84q-26 60 -32 126q-3 27 -5 76q-1 23 -1 84q0 32 2 80q8 101 29 151q47 115 154 115q121 0 158 -100q34 -84 34 -246zM219 659q-65 0 -95 -64t-33 -199h264q-4 142 -33.5 202.5
t-102.5 60.5zM355 350h-265q-1 -161 26 -236q27 -73 103 -73q75 0 105 71.5t31 237.5z" />
    <glyph glyph-name="iota" unicode="&#x3b9;" horiz-adv-x="182" 
d="M118 475v-464q0 -11 -11 -11h-30q-13 0 -13 11v464q0 12 13 12h31q10 0 10 -12z" />
    <glyph glyph-name="kappa" unicode="&#x3ba;" horiz-adv-x="371" 
d="M348 475l-143 -177l160 -286q6 -12 -6 -12h-37q-14 0 -19 11l-132 243l-71 -88v-155q0 -11 -12 -11h-31q-12 0 -12 11v465q0 11 12 11h31q12 0 12 -11v-230q0 -1 1 -1q28 40 71 91l113 142q9 10 18 10h39q16 0 6 -13z" />
    <glyph glyph-name="lambda" unicode="&#x3bb;" horiz-adv-x="387" 
d="M242 250l-38 148h-5q-6 -22 -48 -148l-85 -239q-4 -12 -15 -12h-31q-13 0 -10 14l168 463l-34 127q-9 33 -19 47.5t-28 14.5q-12 0 -24 -2q-10 -1 -12 7l-3 20q-1 7 10 12q18 7 41 7q37 0 54 -19.5t32 -72.5l152 -555q6 -17 11 -21.5t19 -4.5q11 0 13 -6l2 -17
q2 -7 -9 -12q-12 -5 -30 -5q-26 0 -38.5 13t-21.5 48z" />
    <glyph glyph-name="nu" unicode="&#x3bd;" horiz-adv-x="391" 
d="M166 187l35 -114h3q0 3 34 115l87 289q3 10 13 10h37q8 0 8 -6l-1 -2v-3l-151 -467q-3 -9 -13 -9h-35q-10 0 -13 9l-151 467q-5 11 6 11h38q13 0 14 -9z" />
    <glyph glyph-name="xi" unicode="&#x3be;" horiz-adv-x="331" 
d="M133 390v3q-96 30 -96 135q0 86 45.5 132.5t126.5 46.5q91 0 133 -21q8 -3 7 -13l-3 -17q-1 -10 -13 -9l-53 5q-39 4 -63 4q-58 0 -90.5 -33.5t-31.5 -94.5q0 -61 40 -86t93 -25h69q9 0 9 -10v-26q0 -11 -9 -11h-69q-74 -1 -109 -44.5t-35 -136.5q0 -75 40 -110
q17 -15 46 -23q43 -12 114 -12h27q16 0 19 -10l9 -20q5 -16 -5 -34q-33 -68 -53 -133q-4 -14 -16 -10l-26 7q-10 4 -7 19q5 19 23 68q15 39 29 62q-88 -1 -145 16q-112 33 -112 179q0 163 106 202z" />
    <glyph glyph-name="omicron" unicode="&#x3bf;" horiz-adv-x="427" 
d="M390 252q0 -84 -15 -143q-28 -111 -165 -117q-89 0 -132 55q-17 21 -28 61q-14 59 -14 144q0 245 174 245q89 0 133 -51q19 -22 30 -57q17 -51 17 -137zM210 447q-67 0 -92.5 -48t-25.5 -154q0 -107 25.5 -155.5t92.5 -48.5q70 0 96.5 48t26.5 156t-26.5 155t-96.5 47z
" />
    <glyph glyph-name="pi" unicode="&#x3c0;" horiz-adv-x="429" 
d="M389 476v-465q0 -11 -13 -11h-31q-12 0 -12 11v428h-236v-428q0 -11 -13 -11h-30q-12 0 -12 11v465q0 11 13 11h322q12 0 12 -11z" />
    <glyph glyph-name="rho" unicode="&#x3c1;" horiz-adv-x="428" 
d="M100 15l-4 -2v-176q0 -13 -14 -13h-27q-14 0 -14 13v422q0 238 177 238q92 0 133 -59t41 -186q0 -138 -37 -199.5t-129 -61.5q-62 0 -126 24zM335 255q0 110 -31 151q-30 42 -88 42q-120 0 -120 -193v-191q69 -24 133 -24q59 0 82.5 48.5t23.5 166.5z" />
    <glyph glyph-name="sigma1" unicode="&#x3c2;" horiz-adv-x="365" 
d="M335 135q0 -72 -42.5 -107.5t-117.5 -35.5q-90 0 -135 21q-9 4 -7 15l3 15q2 11 17 9q81 -10 124 -10q100 0 100 85q0 50 -19 69.5t-73 28.5q-79 15 -114 43t-35 90q0 68 38 103.5t111 35.5q81 0 128 -22q9 -4 8 -14l-3 -17q-2 -10 -17 -8q-86 10 -117 10q-50 0 -71 -20
t-21 -65q0 -43 20 -58q20 -14 77 -25q68 -13 101 -37q45 -29 45 -106z" />
    <glyph glyph-name="sigma" unicode="&#x3c3;" horiz-adv-x="433" 
d="M412 438h-75l-1 -5q53 -50 53 -187q0 -82 -15 -139q-28 -110 -165 -115q-88 0 -133 54q-17 23 -27 59q-14 55 -14 141q0 241 178 241h199q13 0 13 -12v-26q0 -11 -13 -11zM209 40q70 0 97 46.5t27 152.5q0 78 -16 124.5t-53 72.5q-96 11 -134 -35.5t-38 -161.5
q0 -106 25 -152.5t92 -46.5z" />
    <glyph glyph-name="tau" unicode="&#x3c4;" horiz-adv-x="309" 
d="M120 91v348h-98q-13 0 -13 12v24q0 12 13 12h267q8 0 10 -2.5t2 -8.5v-25q0 -12 -12 -12h-115v-331q0 -38 10 -52t41 -14q18 0 60 5q13 1 15 -9l3 -16q1 -9 -7 -14q-31 -16 -88 -16q-50 0 -69 23t-19 76z" />
    <glyph glyph-name="upsilon" unicode="&#x3c5;" horiz-adv-x="429" 
d="M342 487h30q12 0 12 -12v-298q0 -87 -42.5 -135.5t-129.5 -48.5q-89 0 -128 45.5t-39 138.5v298q0 12 13 12h29q12 0 12 -12v-300q0 -68 25 -101.5t88 -33.5q116 0 116 135v300q0 12 14 12z" />
    <glyph glyph-name="phi" unicode="&#x3c6;" horiz-adv-x="538" 
d="M500 242q0 -115 -51.5 -179t-153.5 -70v-158q0 -11 -13 -11h-27q-14 0 -14 11v157q-125 8 -169 89q-36 69 -36 171q0 80 28 142.5t84 91.5q10 6 18 -6l12 -18q4 -6 -5 -12q-81 -58 -81 -206q0 -95 38 -147.5t111 -56.5v218q1 126 1 217q0 20 19 20h35q204 0 204 -253z
M446 238q0 61 -11 103.5t-46 73t-94 31.5v-406q151 15 151 198z" />
    <glyph glyph-name="chi" unicode="&#x3c7;" horiz-adv-x="364" 
d="M344 475l-131 -226l140 -237l2 -6q0 -6 -9 -6h-40q-11 0 -17 10l-108 191l-107 -191q-4 -10 -17 -10h-40q-8 0 -8 6l1 2q0 2 1 3l139 237l-130 227l-2 6q0 6 8 6h38q11 0 23 -24l94 -169l103 183q4 10 13 10h41q7 0 7 -7q0 -4 -1 -5z" />
    <glyph glyph-name="psi" unicode="&#x3c8;" horiz-adv-x="488" 
d="M270 -8v-156q0 -12 -13 -12h-27q-14 0 -14 12v157q-93 7 -133.5 50t-40.5 130l1 302q0 12 14 12h27q13 0 13 -12l-1 -300q0 -62 28 -95t92 -37v470q0 11 14 11h27q13 0 13 -11v-470q120 5 120 132v300q0 12 14 12h27q13 0 13 -12v-302q0 -84 -42.5 -128.5t-131.5 -52.5z
" />
    <glyph glyph-name="omega" unicode="&#x3c9;" horiz-adv-x="632" 
d="M540 240q0 77 -17 126.5t-60 81.5q-11 8 -6 17l11 19q6 10 18 3q62 -33 86.5 -94t24.5 -156q0 -56 -7.5 -98.5t-24.5 -76.5t-48.5 -52t-76.5 -18q-89 0 -124 71h-3q-35 -71 -120 -71t-121.5 60t-36.5 184q0 192 110 251q12 6 17 -3l12 -19q5 -9 -6 -17
q-42 -34 -58.5 -81.5t-17.5 -123.5q0 -103 24 -151.5t77 -48.5q63 0 80 44q15 36 15 88v141q0 12 14 12h28q12 0 12 -12v-141q0 -49 16 -88q20 -44 83 -44q52 0 75.5 48t23.5 149z" />
    <glyph glyph-name="iotadieresis" unicode="&#x3ca;" horiz-adv-x="182" 
d="M198 612q0 -36 -31 -36q-18 0 -24.5 8.5t-6.5 27.5q0 33 31 33t31 -33zM47 612q0 -36 -31 -36q-18 0 -24.5 8.5t-6.5 27.5q0 33 31 33t31 -33zM118 475v-464q0 -11 -11 -11h-30q-13 0 -13 11v464q0 12 13 12h31q10 0 10 -12z" />
    <glyph glyph-name="upsilondieresis" unicode="&#x3cb;" horiz-adv-x="429" 
d="M342 487h30q12 0 12 -12v-298q0 -87 -42.5 -135.5t-129.5 -48.5q-89 0 -128 45.5t-39 138.5v298q0 12 13 12h29q12 0 12 -12v-300q0 -68 25 -101.5t88 -33.5q116 0 116 135v300q0 12 14 12zM321 612q0 -36 -31 -36q-18 0 -24.5 8.5t-6.5 27.5q0 33 31 33t31 -33zM170 612
q0 -36 -31 -36q-18 0 -24.5 8.5t-6.5 27.5q0 33 31 33t31 -33z" />
    <glyph glyph-name="omicrontonos" unicode="&#x3cc;" horiz-adv-x="427" 
d="M390 252q0 -84 -15 -143q-28 -111 -165 -117q-89 0 -132 55q-17 21 -28 61q-14 59 -14 144q0 245 174 245q89 0 133 -51q19 -22 30 -57q17 -51 17 -137zM210 447q-67 0 -92.5 -48t-25.5 -154q0 -107 25.5 -155.5t92.5 -48.5q70 0 96.5 48t26.5 156t-26.5 155t-96.5 47z
M188 567l60 136q4 7 14 3l36 -16q7 -3 2 -11l-77 -128q-5 -6 -12 -3l-20 8q-6 3 -3 11z" />
    <glyph glyph-name="upsilontonos" unicode="&#x3cd;" horiz-adv-x="429" 
d="M342 487h30q12 0 12 -12v-298q0 -87 -42.5 -135.5t-129.5 -48.5q-89 0 -128 45.5t-39 138.5v298q0 12 13 12h29q12 0 12 -12v-300q0 -68 25 -101.5t88 -33.5q116 0 116 135v300q0 12 14 12zM184 567l60 136q4 7 14 3l36 -16q7 -3 2 -11l-77 -128q-5 -6 -12 -3l-20 8
q-6 3 -3 11z" />
    <glyph glyph-name="omegatonos" unicode="&#x3ce;" horiz-adv-x="632" 
d="M540 240q0 77 -17 126.5t-60 81.5q-11 8 -6 17l11 19q6 10 18 3q62 -33 86.5 -94t24.5 -156q0 -56 -7.5 -98.5t-24.5 -76.5t-48.5 -52t-76.5 -18q-89 0 -124 71h-3q-35 -71 -120 -71t-121.5 60t-36.5 184q0 192 110 251q12 6 17 -3l12 -19q5 -9 -6 -17
q-42 -34 -58.5 -81.5t-17.5 -123.5q0 -103 24 -151.5t77 -48.5q63 0 80 44q15 36 15 88v141q0 12 14 12h28q12 0 12 -12v-141q0 -49 16 -88q20 -44 83 -44q52 0 75.5 48t23.5 149zM289 567l60 136q4 7 14 3l36 -16q7 -3 2 -11l-77 -128q-4 -6 -12 -3l-20 8q-6 3 -3 11z" />
    <glyph glyph-name="uni0400" unicode="&#x400;" horiz-adv-x="424" 
d="M397 41v-31q0 -10 -11 -10h-317q-12 0 -12 10v641q0 12 12 12h303q11 0 11 -11v-31q0 -11 -12 -11h-256v-234h230q11 0 11 -10v-29q0 -12 -11 -12h-230v-273h271q11 0 11 -11zM126 799l22 31q7 10 16 3l111 -90q7 -4 2 -12l-12 -16q-5 -8 -13 -3l-122 75q-9 4 -4 12z" />
    <glyph glyph-name="afii10023" unicode="&#x401;" horiz-adv-x="424" 
d="M397 41v-31q0 -10 -11 -10h-317q-12 0 -12 10v641q0 12 12 12h303q11 0 11 -11v-31q0 -11 -12 -11h-256v-234h230q11 0 11 -10v-29q0 -12 -11 -12h-230v-273h271q11 0 11 -11zM257 765q0 33 30 33q24 4 29.5 -19.5t-4.5 -39.5q-6 -9 -25 -9q-18 0 -24 8t-6 27zM173 765
q0 -35 -30 -35q-18 0 -24.5 8.5t-6.5 26.5q0 33 31 33q17 0 23.5 -7.5t6.5 -25.5z" />
    <glyph glyph-name="afii10051" unicode="&#x402;" horiz-adv-x="602" 
d="M447 610h-220v-200q90 51 164 51q83 0 127.5 -61t44.5 -164q0 -66 -14 -127q-13 -56 -55 -117q-41 -59 -107 -92q-13 -4 -17 2l-11 20q-4 9 6 16q139 87 139 301q0 83 -32.5 126t-88.5 43q-71 0 -157 -57v-339q0 -12 -14 -12h-28q-15 0 -15 12v598h-151q-14 0 -14 11v30
q0 12 14 12h430q13 0 13 -12v-30q0 -11 -14 -11z" />
    <glyph glyph-name="afii10052" unicode="&#x403;" horiz-adv-x="392" 
d="M374 610h-257v-598q0 -12 -11 -12h-34q-12 0 -12 12v639q0 12 12 12h303q11 0 11 -11v-31q0 -11 -12 -11zM282 830l22 -31q5 -8 -4 -12l-122 -75q-8 -5 -13 3l-12 16q-5 8 2 12l111 90q9 7 16 -3z" />
    <glyph glyph-name="afii10053" unicode="&#x404;" horiz-adv-x="456" 
d="M279 614q-94 0 -129 -74q-29 -60 -34 -166h241q11 0 11 -11v-29q0 -12 -11 -12h-241q0 -120 30 -192q36 -83 132 -83q52 0 143 10q11 1 15 -9l3 -18q3 -11 -7 -15q-62 -24 -158 -24q-129 0 -177 100q-42 88 -42 233t40 239q48 106 181 106q94 0 154 -22q10 -4 9 -16
l-3 -19q-1 -10 -15 -8q-84 10 -142 10z" />
    <glyph glyph-name="afii10054" unicode="&#x405;" horiz-adv-x="446" 
d="M414 179q0 -95 -53.5 -141.5t-146.5 -46.5q-36 0 -92 8q-50 7 -76 18q-12 5 -9 17l4 19q1 9 16 8q104 -14 159 -14q65 0 102 31.5t37 88.5q0 71 -29 102q-29 30 -98 44q-87 17 -133 47q-54 36 -54 126q0 87 49 135t137 48q96 0 156 -24q12 -5 9 -15l-3 -17
q-3 -12 -18 -10q-108 12 -142 12q-128 0 -128 -126q0 -61 30 -84t100 -36q66 -13 106 -35q77 -42 77 -155z" />
    <glyph glyph-name="afii10055" unicode="&#x406;" horiz-adv-x="195" 
d="M126 651v-640q0 -11 -13 -11h-32q-13 0 -13 11v640q0 12 13 12h32q13 0 13 -12z" />
    <glyph glyph-name="afii10056" unicode="&#x407;" horiz-adv-x="195" 
d="M140 765q0 33 30 33q24 4 29.5 -19.5t-4.5 -39.5q-6 -9 -25 -9q-18 0 -24 8t-6 27zM56 765q0 -35 -30 -35q-18 0 -24.5 8.5t-6.5 26.5q0 33 31 33q17 0 23.5 -7.5t6.5 -25.5zM126 651v-640q0 -11 -13 -11h-32q-13 0 -13 11v640q0 12 13 12h32q13 0 13 -12z" />
    <glyph glyph-name="afii10057" unicode="&#x408;" horiz-adv-x="354" 
d="M284 651v-490q0 -171 -157 -171q-59 0 -112 21q-12 5 -9 16l5 20q2 9 14 8q54 -8 97 -8q57 0 80.5 30.5t23.5 95.5v478q0 12 13 12h33q12 0 12 -12z" />
    <glyph glyph-name="afii10058" unicode="&#x409;" horiz-adv-x="748" 
d="M147 663h264q15 0 15 -13q0 -74 -1 -133v-133h142q98 0 135 -64q34 -57 34 -132q0 -89 -48 -138.5t-128 -49.5h-179q-15 0 -15 13v597h-178l-16 -301l-3 -58l-4 -52q-3 -37 -7 -51l-9 -43q-7 -32 -33 -69q-29 -44 -101 -44q-9 0 -12 2.5t-3 10.5v22q0 6 2.5 8t11.5 4
q50 14 69 53q22 42 26 129l24 429q0 13 14 13zM425 333v-282h128q58 0 91.5 35.5t33.5 102.5q0 144 -116 144h-137z" />
    <glyph glyph-name="afii10059" unicode="&#x40a;" horiz-adv-x="709" 
d="M691 188q0 -89 -48 -138.5t-128 -49.5h-179q-15 0 -15 12v318h-205v-318q0 -12 -13 -12h-31q-14 0 -14 12v638q0 13 14 13h31q13 0 13 -13v-268h205v268q0 12 15 12h29q14 0 14 -12v-268h142q91 0 130.5 -56.5t39.5 -137.5zM633 189q0 70 -32 105.5t-84 35.5h-138v-279
h129q58 0 91.5 35.5t33.5 102.5z" />
    <glyph glyph-name="afii10060" unicode="&#x40b;" horiz-adv-x="597" 
d="M408 462q83 0 117 -46.5t34 -140.5v-263q0 -12 -15 -12h-28q-14 0 -14 12v270q0 126 -100 126q-65 0 -171 -61v-335q0 -12 -14 -12h-29q-15 0 -15 12v598h-150q-15 0 -15 11v30q0 12 15 12h435q14 0 14 -12v-30q0 -11 -15 -11h-226v-204q104 56 177 56z" />
    <glyph glyph-name="afii10061" unicode="&#x40c;" horiz-adv-x="467" 
d="M296 347v-4q69 -19 94 -118l53 -207q6 -18 -12 -18h-28q-15 0 -19 13l-52 204q-14 56 -42.5 76.5t-79.5 20.5h-97v-302q0 -12 -12 -12h-33q-12 0 -12 12v638q0 13 12 13h33q12 0 12 -13v-284h92q94 0 119 94l53 187q5 15 18 15h24q19 0 13 -18l-51 -186q-26 -92 -85 -111
zM312 830l22 -31q5 -8 -4 -12l-122 -75q-8 -5 -13 3l-12 16q-5 8 2 12l111 90q9 7 16 -3z" />
    <glyph glyph-name="uni040D" unicode="&#x40d;" horiz-adv-x="536" 
d="M58 11v639q0 13 11 13h33q11 0 11 -13v-542h3l300 544q9 11 17 11h34q11 0 11 -11v-320q1 -143 1 -320q0 -12 -13 -12h-32q-11 0 -11 12v545h-3l-98 -182l-203 -364q-8 -11 -17 -11h-33q-11 0 -11 11zM167 799l22 31q7 10 16 3l111 -90q7 -4 2 -12l-12 -16q-5 -8 -13 -3
l-122 75q-9 4 -4 12z" />
    <glyph glyph-name="afii10062" unicode="&#x40e;" horiz-adv-x="443" 
d="M224 229h6q29 95 59 186l79 233q4 15 19 15h31q14 0 11 -11l-173 -506q-31 -87 -57 -122q-25 -33 -76 -33q-27 0 -54 7q-13 4 -12 16l3 20q1 8 16 7q47 -6 69 11q21 17 41 68l12 31l-179 502q-2 4 0.5 6.5t9.5 2.5h38q11 0 16 -9l82 -241q30 -87 59 -183zM234 702
q-80 0 -121 81q-7 15 0 21l13 11q10 9 18 -3q25 -37 44.5 -51.5t45.5 -14.5q17 0 31 10q20 13 55 57q8 8 16 2l14 -9q9 -6 3 -17q-21 -41 -53 -64t-66 -23z" />
    <glyph glyph-name="afii10145" unicode="&#x40f;" horiz-adv-x="507" 
d="M440 0h-151l-6 -135q-1 -19 -12 -19h-28q-13 0 -13 18l-6 136h-152q-11 0 -11 12v639q0 12 11 12h35q10 0 10 -12v-599h277v599q0 12 13 12h33q11 0 11 -12v-639q0 -12 -11 -12z" />
    <glyph glyph-name="afii10017" unicode="&#x410;" horiz-adv-x="465" 
d="M267 651l184 -640q0 -1 0.5 -3l0.5 -2q0 -6 -8 -6h-42q-10 0 -14 9l-46 173h-225l-46 -171q-2 -11 -15 -11h-37q-9 0 -9 6q0 4 1 5l185 640q5 11 15 11h41q10 0 15 -11zM232 589h-4l-97 -356h198l-57 206q-36 132 -40 150z" />
    <glyph glyph-name="afii10018" unicode="&#x411;" horiz-adv-x="440" 
d="M66 662h300q12 0 12 -11v-30q0 -11 -13 -11h-252v-227h126q51 0 87.5 -17t56 -46.5t28.5 -62t9 -69.5q0 -89 -50.5 -138.5t-134.5 -49.5h-166q-14 0 -14 12v639q0 11 11 11zM113 333v-281h114q64 0 99.5 35t35.5 102q0 72 -33.5 108t-90.5 36h-125z" />
    <glyph glyph-name="afii10019" unicode="&#x412;" horiz-adv-x="471" 
d="M439 177q0 -80 -49 -129q-50 -48 -123 -48h-195q-16 0 -16 12v638q0 12 12 12h166q88 0 136.5 -44.5t48.5 -120.5q0 -109 -88 -148v-2q58 -18 83 -67t25 -103zM358 491q0 55 -34 87t-99 32h-112v-240h117q57 0 92.5 33.5t35.5 87.5zM378 184q0 58 -36.5 96.5t-100.5 38.5
h-128v-267h129q136 0 136 132z" />
    <glyph glyph-name="afii10020" unicode="&#x413;" horiz-adv-x="392" 
d="M374 610h-257v-598q0 -12 -11 -12h-34q-12 0 -12 12v639q0 12 12 12h303q11 0 11 -11v-31q0 -11 -12 -11z" />
    <glyph glyph-name="afii10021" unicode="&#x414;" horiz-adv-x="554" 
d="M474 0h-407l-6 -130q0 -19 -13 -19h-26q-12 0 -12 19l-6 158q-1 16 16 21l31 7q60 55 73 218l26 372q2 17 18 17h307q11 0 11 -12v-598l39 -4q14 -2 14 -20l-7 -159q-1 -19 -12 -19h-27q-11 0 -13 18zM119 52h310v558h-225q-4 -51 -8 -126q-5 -91 -9 -140
q-6 -61 -13 -117q-16 -126 -55 -175z" />
    <glyph glyph-name="afii10022" unicode="&#x415;" horiz-adv-x="424" 
d="M397 41v-31q0 -10 -11 -10h-317q-12 0 -12 10v641q0 12 12 12h303q11 0 11 -11v-31q0 -11 -12 -11h-256v-234h230q11 0 11 -10v-29q0 -12 -11 -12h-230v-273h271q11 0 11 -11z" />
    <glyph glyph-name="afii10024" unicode="&#x416;" horiz-adv-x="712" 
d="M167 343v4q-48 16 -76 86q-19 53 -22 63q-11 39 -20 78l-17 70q0 2 -1 5q-1 2 -1 3v2q0 8 14 8h24q14 0 19 -15l52 -187q25 -94 120 -94h68v284q0 13 13 13h33q11 0 11 -13v-284h68q95 0 120 94l52 187q4 15 19 15h24q17 0 12 -18l-47 -176q-25 -100 -88 -121v-4
q67 -18 88 -100l58 -225q1 -3 1 -10q0 -8 -13 -8h-28q-15 0 -19 13l-51 204q-14 56 -42.5 76.5t-80.5 20.5h-73v-302q0 -12 -11 -12h-33q-13 0 -13 12v302h-73q-52 0 -80.5 -20.5t-42.5 -76.5l-51 -204q-4 -13 -19 -13h-28q-14 0 -14 8l2 10l58 225q21 82 88 100z" />
    <glyph glyph-name="afii10025" unicode="&#x417;" horiz-adv-x="414" 
d="M179 -8q-38 0 -87 7q-52 7 -81 18q-8 3 -7 16l4 17q3 10 18 9q85 -13 151 -13q148 0 148 139q0 75 -41 107t-134 34q-8 0 -10.5 2t-2.5 9v27q0 13 13 13q161 5 161 122q0 77 -42 99q-32 19 -83 19q-16 0 -134 -14q-12 -1 -15 10l-3 17q-2 11 9 16q67 27 150 27
q95 0 138.5 -41.5t43.5 -127.5q0 -51 -29.5 -91.5t-77.5 -55.5h1q-1 -1 -1 -3q56 -15 88 -57.5t32 -109.5q0 -96 -56 -145.5t-153 -49.5z" />
    <glyph glyph-name="afii10026" unicode="&#x418;" horiz-adv-x="536" 
d="M58 11v639q0 13 11 13h33q11 0 11 -13v-542h3l300 544q9 11 17 11h34q11 0 11 -11v-320q1 -143 1 -320q0 -12 -13 -12h-32q-11 0 -11 12v545h-3l-98 -182l-203 -364q-8 -11 -17 -11h-33q-11 0 -11 11z" />
    <glyph glyph-name="afii10027" unicode="&#x419;" horiz-adv-x="536" 
d="M58 11v639q0 13 11 13h33q11 0 11 -13v-542h3l300 544q9 11 17 11h34q11 0 11 -11v-320q1 -143 1 -320q0 -12 -13 -12h-32q-11 0 -11 12v545h-3l-98 -182l-203 -364q-8 -11 -17 -11h-33q-11 0 -11 11zM271 702q-81 0 -121 81q-8 15 0 21l13 11q11 9 18 -3
q25 -37 44.5 -51.5t45.5 -14.5q17 0 31 10q20 13 55 57q8 8 16 2l14 -9q9 -6 3 -17q-21 -41 -53 -64t-66 -23z" />
    <glyph glyph-name="afii10028" unicode="&#x41a;" horiz-adv-x="467" 
d="M296 347v-4q69 -19 94 -118l53 -207q6 -18 -12 -18h-28q-15 0 -19 13l-52 204q-14 56 -42.5 76.5t-79.5 20.5h-97v-302q0 -12 -12 -12h-33q-12 0 -12 12v638q0 13 12 13h33q12 0 12 -13v-284h92q94 0 119 94l53 187q5 15 18 15h24q19 0 13 -18l-51 -186q-26 -92 -85 -111
z" />
    <glyph glyph-name="afii10029" unicode="&#x41b;" horiz-adv-x="504" 
d="M147 663h287q13 0 13 -13v-638q0 -12 -13 -12h-30q-15 0 -15 12v598h-201l-16 -301q-11 -157 -24 -206q-27 -95 -105 -109q-18 -2 -28 -2q-9 0 -12 2.5t-3 10.5v22q0 6 2.5 8t11.5 4q49 14 68 52q20 41 27 130l24 429q0 13 14 13z" />
    <glyph glyph-name="afii10030" unicode="&#x41c;" horiz-adv-x="631" 
d="M265 310l50 -124h3l65 163l127 303q6 11 19 11h30q13 0 13 -12v-639q0 -12 -13 -12h-31q-14 0 -14 12q0 512 -3 512l-32 -84l-135 -321q-6 -11 -16 -11h-24q-12 0 -16 9l-143 334q-10 21 -28 71h-2v-510q0 -12 -12 -12h-31q-13 0 -13 12v640q0 11 11 11h34q12 0 17 -11z
" />
    <glyph glyph-name="afii10031" unicode="&#x41d;" horiz-adv-x="507" 
d="M448 651v-640q0 -11 -10 -11h-34q-12 0 -12 11v314h-277v-314q0 -11 -10 -11h-35q-11 0 -11 11v640q0 12 11 12h35q10 0 10 -12v-274h277v274q0 12 12 12h34q10 0 10 -12z" />
    <glyph glyph-name="afii10032" unicode="&#x41e;" horiz-adv-x="545" 
d="M494 341q0 -31 -2 -73q-2 -82 -21 -136q-45 -141 -202 -141q-133 -5 -187 110q-14 29 -22 75q-10 75 -10 165q0 29 2 71q9 99 32 145q59 114 186 114q112 0 165 -67q23 -28 37 -75q22 -71 22 -188zM436 331q0 150 -37 219t-130 69q-86 0 -122.5 -71t-36.5 -217
q0 -129 29 -205q35 -83 130 -83q91 0 129 70.5t38 217.5z" />
    <glyph glyph-name="afii10033" unicode="&#x41f;" horiz-adv-x="516" 
d="M459 650v-639q0 -11 -13 -11h-28q-16 0 -16 11v598h-286v-598q0 -11 -13 -11h-30q-14 0 -14 11v639q0 13 13 13h375q12 0 12 -13z" />
    <glyph glyph-name="afii10034" unicode="&#x420;" horiz-adv-x="433" 
d="M412 475q0 -37 -9.5 -70t-30 -62.5t-59 -47t-91.5 -17.5h-109v-266q0 -12 -12 -12h-33q-13 0 -13 12v640q0 11 13 11h152q88 0 140 -49.5t52 -138.5zM355 473q0 68 -37.5 102.5t-106.5 34.5h-98v-282h108q60 0 97 37t37 108z" />
    <glyph glyph-name="afii10035" unicode="&#x421;" horiz-adv-x="456" 
d="M279 614q-105 0 -137 -92q-26 -74 -26 -198q0 -115 29 -192q36 -85 133 -85q52 0 143 10q11 1 15 -9l3 -18q3 -11 -7 -15q-62 -24 -158 -24q-129 0 -177 100q-42 88 -42 233t40 239q48 106 181 106q94 0 154 -22q10 -4 9 -16l-3 -19q-1 -10 -15 -8q-84 10 -142 10z" />
    <glyph glyph-name="afii10036" unicode="&#x422;" horiz-adv-x="407" 
d="M387 610h-155q0 -166 -1 -299v-300q0 -11 -10 -11h-34q-12 0 -12 11v599h-153q-12 0 -12 11v31q0 11 12 11h365q11 0 11 -11v-31q0 -11 -11 -11z" />
    <glyph glyph-name="afii10037" unicode="&#x423;" horiz-adv-x="443" 
d="M224 229h6q29 95 59 186l79 233q4 15 19 15h31q14 0 11 -11l-173 -506q-31 -87 -57 -122q-25 -33 -76 -33q-27 0 -54 7q-13 4 -12 16l3 20q1 8 16 7q47 -6 69 11q21 17 41 68l12 31l-179 502q-2 4 0.5 6.5t9.5 2.5h38q11 0 16 -9l82 -241q30 -87 59 -183z" />
    <glyph glyph-name="afii10038" unicode="&#x424;" horiz-adv-x="641" 
d="M354 77v-66q0 -11 -12 -11h-33q-13 0 -13 11v66q-134 8 -194 79q-59 75 -58 182q1 98 63 172q63 74 189 84v57q0 12 13 12h33q12 0 12 -12v-57q131 -10 189.5 -82.5t58.5 -173.5q0 -106 -62 -180q-62 -72 -186 -81zM99 336q0 -192 197 -209v417q-197 -16 -197 -208z
M545 335q0 83 -44 142q-43 60 -146 67v-418q94 7 142 61t48 148z" />
    <glyph glyph-name="afii10039" unicode="&#x425;" horiz-adv-x="443" 
d="M367 10l-141 277l-142 -277q-4 -10 -15 -10h-42q-10 0 -6 10l174 333l-161 309q-8 11 5 11h43q11 0 15 -10l129 -254l129 254q5 9 16 9h41q5 1 6.5 -2.5t-0.5 -7.5l-162 -309l175 -333q4 -10 -6 -10h-43q-9 0 -15 10z" />
    <glyph glyph-name="afii10040" unicode="&#x426;" horiz-adv-x="512" 
d="M437 -129l-5 129h-360q-12 0 -12 12v639q0 12 12 12h34q11 0 11 -12v-599h276v599q0 12 12 12h34q10 0 10 -12v-597l32 -3q14 -2 14 -20l-9 -160q-2 -18 -12 -18h-25q-12 0 -12 18z" />
    <glyph glyph-name="afii10041" unicode="&#x427;" horiz-adv-x="471" 
d="M33 464v186q0 13 14 13h30q14 0 14 -13v-177q0 -73 28 -107t86 -34q77 0 151 27q0 227 -1 292q0 12 14 12h30q14 0 14 -12v-638q0 -13 -15 -13h-29q-14 0 -14 12v294q-75 -29 -160 -29q-162 0 -162 187z" />
    <glyph glyph-name="afii10042" unicode="&#x428;" horiz-adv-x="720" 
d="M661 652v-640q0 -12 -11 -12h-578q-11 0 -11 12v640q0 11 11 11h35q10 0 10 -11v-599h215v598q0 12 12 12h35q11 0 11 -12v-598h214v599q0 11 13 11h33q11 0 11 -11z" />
    <glyph glyph-name="afii10043" unicode="&#x429;" horiz-adv-x="724" 
d="M391 651v-599h213v600q0 11 12 11h34q10 0 10 -11v-598l32 -3q14 -2 14 -20l-9 -160q-1 -18 -12 -18h-25q-12 0 -12 18l-5 129h-571q-11 0 -11 12v640q0 11 11 11h35q10 0 10 -11v-599h216v598q0 12 12 12h35q11 0 11 -12z" />
    <glyph glyph-name="afii10044" unicode="&#x42a;" horiz-adv-x="579" 
d="M554 188q0 -89 -50.5 -138.5t-134.5 -49.5h-172q-13 0 -13 12v598h-169q-13 0 -13 12v29q0 11 12 11h215q13 0 13 -12v-267h133q98 0 138.5 -56t40.5 -139zM496 189q0 71 -34 107.5t-90 36.5h-130v-282h119q64 0 99.5 35t35.5 103z" />
    <glyph glyph-name="afii10045" unicode="&#x42b;" horiz-adv-x="617" 
d="M431 188q0 -89 -51.5 -138.5t-137.5 -49.5h-166q-13 0 -13 11v639q0 12 13 12h33q12 0 12 -12v-267h127q183 0 183 -195zM374 189q0 72 -34.5 108t-93.5 36h-125v-282h113q140 0 140 138zM557 651v-640q0 -11 -12 -11h-34q-12 0 -12 11v640q0 12 12 12h34q12 0 12 -12z
" />
    <glyph glyph-name="afii10046" unicode="&#x42c;" horiz-adv-x="448" 
d="M426 188q0 -89 -51.5 -138.5t-137.5 -49.5h-166q-13 0 -13 11v639q0 12 13 12h33q12 0 12 -12v-267h127q183 0 183 -195zM369 189q0 72 -34.5 108t-93.5 36h-125v-282h113q140 0 140 138z" />
    <glyph glyph-name="afii10047" unicode="&#x42d;" horiz-adv-x="456" 
d="M200 -9q-95 0 -156 23q-11 5 -9 16l4 19q3 11 18 9q79 -11 140 -11q92 0 130 74q38 76 41 204h-227q-8 0 -10 2.5t-2 9.5v27q0 11 12 11h227q-4 108 -31 167q-31 72 -129 72q-35 0 -129 -11q-17 -2 -19 9l-3 18q-2 11 9 16q59 24 146 24q106 0 158 -65q23 -29 36 -73
q23 -73 23 -194q0 -347 -229 -347z" />
    <glyph glyph-name="afii10048" unicode="&#x42e;" horiz-adv-x="712" 
d="M662 341q0 -59 -3 -100q-3 -44 -16 -92q-12 -53 -34 -83q-23 -33 -66 -54t-99 -21q-108 0 -159 71q-20 29 -34 78q-11 47 -16 89q-2 30 -4 96h-115v-313q0 -12 -13 -12h-30q-14 0 -14 12v638q0 13 14 13h30q13 0 13 -13v-272h116q9 294 212 294q108 0 162 -68
q22 -28 36 -76q20 -72 20 -187zM605 331q0 149 -34 218q-33 71 -127 71q-90 0 -124 -82q-29 -73 -29 -207q0 -130 28 -205q32 -83 125 -83q87 0 124 70.5t37 217.5z" />
    <glyph glyph-name="afii10049" unicode="&#x42f;" horiz-adv-x="464" 
d="M142 309v4q-44 14 -67.5 57.5t-23.5 99.5q0 93 53 143t131 50h160q13 0 13 -11v-640q0 -12 -13 -12h-32q-13 0 -13 12v280h-106q-90 0 -116 -96l-46 -183q-4 -13 -19 -13h-26q-19 0 -13 18l47 186q23 83 71 105zM111 472q0 -129 135 -129h104v267h-104q-60 0 -97.5 -35
t-37.5 -103z" />
    <glyph glyph-name="afii10065" unicode="&#x430;" horiz-adv-x="440" 
d="M325 105v136h-134q-100 0 -100 -113q0 -48 16.5 -66.5t58.5 -18.5q33 0 81 20q47 21 78 42zM220 498q87 0 122 -35.5t37 -119.5v-263q0 -26 5.5 -32.5t28.5 -8.5q12 0 12 -9v-19q0 -9 -9 -12q-9 -4 -30 -4q-32 0 -45 12.5t-16 45.5q-49 -32 -87.5 -46.5t-87.5 -14.5
q-115 0 -115 132q0 86 38.5 125.5t121.5 39.5h130v43q0 61 -25 87.5t-85 26.5q-48 0 -124 -10q-17 -2 -18 8l-3 17q-2 11 8 14q58 23 142 23z" />
    <glyph glyph-name="afii10066" unicode="&#x431;" horiz-adv-x="427" 
d="M105 464l3 -1q60 28 121 28q82 0 122 -54q17 -23 26 -58q16 -54 14 -132q0 -80 -17 -136q-31 -113 -168 -119q-95 0 -135 65q-24 42 -31 90q-5 46 -5 97q0 143 17 225q30 160 148 200q55 18 139 37q14 3 17 -8l5 -20q2 -14 -11 -18q-56 -13 -107 -28q-67 -20 -98.5 -59.5
t-39.5 -108.5zM225 441q-65 0 -124 -31q-8 -61 -8 -175q0 -88 19 -137q24 -58 96 -58q78 0 103 61q23 54 23 134q0 89 -16 142q-19 64 -93 64z" />
    <glyph glyph-name="afii10067" unicode="&#x432;" horiz-adv-x="411" 
d="M301 258l-1 -1v-2q39 -12 58.5 -46t19.5 -74q0 -61 -39 -98t-102 -37h-177q-19 0 -19 16v458q0 13 15 13h167q70 0 105 -33t35 -93q0 -30 -16.5 -59t-45.5 -44zM226 229h-130v-180h124q52 0 77 24.5t25 63.5q0 42 -23.5 67t-72.5 25zM216 439h-120v-163h119q42 0 67.5 23
t25.5 59q0 81 -92 81z" />
    <glyph glyph-name="afii10068" unicode="&#x433;" horiz-adv-x="347" 
d="M340 474v-22q0 -14 -14 -14h-225v-425q0 -13 -14 -13h-26q-15 0 -15 13v461q0 13 15 13h265q14 0 14 -13z" />
    <glyph glyph-name="afii10069" unicode="&#x434;" horiz-adv-x="480" 
d="M107 49h251v389h-174l-23 -201q-10 -79 -22 -121q-11 -38 -32 -67zM400 -113l-5 113h-334l-7 -111q0 -4 -0.5 -7t-1.5 -4.5t-3 -2.5t-3.5 -1h-4.5h-20q-5 0 -7 0.5t-4.5 4t-2.5 11.5l-8 145q0 11 12 13l31 3q30 23 41 56t22 101l28 243q3 21 12 28.5t35 7.5h215
q17 0 17 -17v-421l31 -3q12 -2 12 -13l-8 -145q0 -8 -2.5 -11.5t-4.5 -4t-7 -0.5h-20q-5 0 -7 0.5t-4 4t-2 10.5z" />
    <glyph glyph-name="afii10070" unicode="&#x435;" horiz-adv-x="410" 
d="M209 447q-60 0 -86.5 -42t-29.5 -131h234q0 73 -21 119q-23 54 -97 54zM209 -9q-86 0 -129 50q-17 21 -28 57q-16 59 -16 147q0 76 16 135q35 117 158 117q105 0 141 -69q33 -60 33 -151q0 -26 -8.5 -37.5t-28.5 -11.5h-253q1 -99 27.5 -141.5t91.5 -42.5q44 0 127 11
q14 2 16 -9l3 -16q2 -11 -7 -14q-60 -25 -143 -25z" />
    <glyph glyph-name="afii10072" unicode="&#x436;" horiz-adv-x="582" 
d="M134 253v2q-44 12 -69 99l-35 117q-2 8 -2 9q0 7 13 7h26q11 0 15 -13l36 -118q14 -47 39 -65t62 -18h44v203q0 11 11 11h34q10 0 10 -11v-203h44q37 0 62 18t39 65l36 118q4 13 15 13h26q12 0 12 -7t-1 -9l-35 -117q-26 -87 -69 -99v-2q29 -8 45.5 -28.5t29.5 -63.5
l42 -145q2 -8 2 -9q0 -7 -12 -7h-29q-13 0 -16 12l-37 126q-16 53 -39 70q-22 16 -67 16h-48v-213q0 -11 -10 -11h-34q-11 0 -11 11v213h-48q-46 0 -69 -17t-37 -69l-37 -126q-3 -12 -16 -12h-29q-12 0 -12 7q0 1 2 9l42 145q12 43 28.5 63.5t46.5 28.5z" />
    <glyph glyph-name="afii10073" unicode="&#x437;" horiz-adv-x="354" 
d="M146 -8q-87 0 -135 22q-8 5 -7 14l3 17q2 11 16 9q77 -12 117 -12q123 0 123 99q0 52 -31.5 73.5t-97.5 21.5q-13 0 -13 11v25q0 10 13 10q120 0 120 82q0 83 -97 83q-37 0 -113 -10q-13 -1 -14 8l-3 18q-1 10 7 13q54 22 127 22q152 0 152 -129q0 -36 -21 -66t-57 -41
q87 -34 87 -116q0 -77 -46.5 -115.5t-129.5 -38.5z" />
    <glyph glyph-name="afii10074" unicode="&#x438;" horiz-adv-x="431" 
d="M334 13v374l-3 1q-31 -54 -62 -101l-177 -278q-4 -9 -18 -9h-19q-13 0 -13 13v460q0 14 14 14h27q13 0 13 -14v-362l4 -1q20 35 79 128l152 237q9 12 20 12h23q14 0 14 -13v-461q0 -13 -15 -13h-25q-14 0 -14 13z" />
    <glyph glyph-name="afii10075" unicode="&#x439;" horiz-adv-x="431" 
d="M334 13v374l-3 1q-31 -54 -62 -101l-177 -278q-4 -9 -18 -9h-19q-13 0 -13 13v460q0 14 14 14h27q13 0 13 -14v-362l4 -1q20 35 79 128l152 237q9 12 20 12h23q14 0 14 -13v-461q0 -13 -15 -13h-25q-14 0 -14 13zM221 550q-81 0 -121 81q-8 15 0 21l13 11q11 9 18 -3
q25 -37 44.5 -51.5t45.5 -14.5q17 0 31 10q20 13 55 57q8 8 16 2l14 -9q9 -6 3 -17q-21 -41 -53 -64t-66 -23z" />
    <glyph glyph-name="afii10076" unicode="&#x43a;" horiz-adv-x="377" 
d="M242 255v-2q32 -8 47.5 -30t31.5 -75l38 -132q4 -16 -10 -16h-29q-13 0 -16 12l-37 126q-14 52 -37 69t-69 17h-64v-213q0 -11 -11 -11h-34q-10 0 -10 11v465q0 11 10 11h34q11 0 11 -11v-203h60q37 0 62 18t39 65l36 118q4 13 15 13h26q17 0 11 -16l-35 -117
q-25 -87 -69 -99z" />
    <glyph glyph-name="afii10077" unicode="&#x43b;" horiz-adv-x="440" 
d="M168 487h211q14 0 14 -13v-461q0 -13 -13 -13h-27q-15 0 -15 13v425h-168l-18 -270q-1 -29 -5 -51q-1 -14 -11 -45q-11 -39 -38.5 -57.5t-82.5 -22.5q-14 0 -14 11v21q0 6 2.5 7.5t9.5 3.5q40 7 60 34q23 37 28 120l19 254q2 25 12.5 34.5t35.5 9.5z" />
    <glyph glyph-name="afii10078" unicode="&#x43c;" horiz-adv-x="504" 
d="M251 145h2q11 31 57 127l94 204q6 11 20 11h24q14 0 14 -13v-461q0 -13 -13 -13h-26q-15 0 -15 13v344h-3l-127 -270q-4 -10 -16 -10h-22q-12 0 -18 10l-124 270h-2v-344q0 -13 -14 -13h-26q-14 0 -14 13v461q0 13 13 13h28q14 0 18 -10l93 -203q52 -116 57 -129z" />
    <glyph glyph-name="afii10079" unicode="&#x43d;" horiz-adv-x="427" 
d="M385 474v-461q0 -13 -15 -13h-24q-17 0 -17 13v221h-232v-221q0 -13 -15 -13h-25q-15 0 -15 13v461q0 13 15 13h25q15 0 15 -13v-193h232v193q0 13 17 13h24q15 0 15 -13z" />
    <glyph glyph-name="afii10080" unicode="&#x43e;" horiz-adv-x="427" 
d="M390 252q0 -84 -15 -143q-28 -111 -165 -117q-89 0 -132 55q-17 21 -28 61q-14 59 -14 144q0 245 174 245q89 0 133 -51q19 -22 30 -57q17 -51 17 -137zM210 447q-67 0 -92.5 -48t-25.5 -154q0 -107 25.5 -155.5t92.5 -48.5q70 0 96.5 48t26.5 156t-26.5 155t-96.5 47z
" />
    <glyph glyph-name="afii10081" unicode="&#x43f;" horiz-adv-x="429" 
d="M389 476v-465q0 -11 -13 -11h-31q-12 0 -12 11v428h-236v-428q0 -11 -13 -11h-30q-12 0 -12 11v465q0 11 13 11h322q12 0 12 -11z" />
    <glyph glyph-name="afii10082" unicode="&#x440;" horiz-adv-x="426" 
d="M48 -163v639q0 11 11 11h32q12 0 12 -11v-12q0 -2 0.5 -12.5t0.5 -14.5q85 58 157 58q75 0 106 -57.5t31 -187.5q0 -138 -37 -198.5t-130 -60.5q-67 0 -127 25v-1l-1 -1v-177q0 -13 -13 -13h-31q-11 0 -11 13zM103 388v-324q72 -24 131 -24t83 48t24 165q0 109 -21 150
t-67 41q-32 0 -77 -19q-46 -20 -73 -37z" />
    <glyph glyph-name="afii10083" unicode="&#x441;" horiz-adv-x="355" 
d="M201 -9q-81 0 -122 46q-18 23 -28 55q-16 55 -16 151q0 88 16 146q16 52 52 79t100 29q79 0 133 -22q10 -3 8 -14l-3 -17q-1 -10 -18 -8q-76 10 -117 10q-63 0 -88 -44.5t-25 -155.5q0 -116 24 -160q26 -44 89 -44q61 0 121 10q14 2 16 -9l3 -16q2 -9 -8 -14
q-48 -22 -137 -22z" />
    <glyph glyph-name="afii10084" unicode="&#x442;" horiz-adv-x="356" 
d="M335 438h-130v-425q0 -13 -14 -13h-24q-16 0 -16 13v425h-128q-16 0 -16 14v22q0 13 15 13h314q13 0 13 -13v-22q0 -14 -14 -14z" />
    <glyph glyph-name="afii10085" unicode="&#x443;" horiz-adv-x="394" 
d="M80 476l117 -394h6l52 170l69 225q3 10 14 10h36q11 0 6 -11l-202 -642q-3 -10 -15 -10h-31q-13 0 -8 11l49 160l-150 481q-5 11 6 11h37q11 0 14 -11z" />
    <glyph glyph-name="afii10086" unicode="&#x444;" horiz-adv-x="527" 
d="M35 246q0 242 201 250v154q0 12 14 12h27q13 0 13 -12v-154q201 -9 201 -247q0 -117 -50 -184t-151 -72v-159q0 -11 -11 -11h-29q-14 0 -14 12v158q-102 4 -151.5 70t-49.5 183zM91 242q0 -97 35.5 -146.5t110.5 -55.5v406q-146 -5 -146 -204zM435 242q0 200 -145 204
v-406q145 10 145 202z" />
    <glyph glyph-name="afii10087" unicode="&#x445;" horiz-adv-x="364" 
d="M344 475l-131 -226l140 -237l2 -6q0 -6 -9 -6h-40q-11 0 -17 10l-108 191l-107 -191q-4 -10 -17 -10h-40q-8 0 -8 6l1 2q0 2 1 3l139 237l-130 227l-2 6q0 6 8 6h38q11 0 23 -24l94 -169l103 183q4 10 13 10h41q7 0 7 -7q0 -4 -1 -5z" />
    <glyph glyph-name="afii10088" unicode="&#x446;" horiz-adv-x="436" 
d="M364 -109l-4 109h-304q-14 0 -14 13v461q0 13 14 13h26q14 0 14 -13v-425h228v425q0 13 16 13h25q14 0 14 -13v-422l28 -2q12 -2 12 -13l-8 -145q0 -8 -2.5 -11.5t-4.5 -4t-7 -0.5h-20q-5 0 -7 0.5t-4 4t-2 10.5z" />
    <glyph glyph-name="afii10089" unicode="&#x447;" horiz-adv-x="399" 
d="M22 356v120q0 11 14 11h30q12 0 12 -11v-114q0 -72 16 -100t62 -28q57 0 145 55v187q0 11 14 11h29q12 0 12 -11v-465q0 -11 -12 -11h-29q-14 0 -14 11v227q-79 -55 -153 -55q-65 0 -95 34q-13 13 -21 39q-10 37 -10 100z" />
    <glyph glyph-name="afii10090" unicode="&#x448;" horiz-adv-x="605" 
d="M524 487h26q12 0 12 -13v-460q0 -14 -12 -14h-494q-14 0 -14 14v460q0 13 14 13h27q14 0 14 -13v-425h178v425q0 13 15 13h25q15 0 15 -13v-425h178v425q0 13 16 13z" />
    <glyph glyph-name="afii10091" unicode="&#x449;" horiz-adv-x="619" 
d="M330 474v-425h177v425q0 13 16 13h26q13 0 13 -13v-423l23 -2q10 -1 14 -3.5t3 -10.5l-7 -142q-1 -19 -12 -19h-23q-12 0 -12 18l-4 108h-488q-14 0 -14 14v460q0 13 14 13h27q14 0 14 -13v-425h178v425q0 13 15 13h25q15 0 15 -13z" />
    <glyph glyph-name="afii10092" unicode="&#x44a;" horiz-adv-x="496" 
d="M200 474v-185h129q74 0 110 -39.5t36 -106.5q0 -143 -176 -143h-137q-17 0 -17 13v425h-129q-16 0 -16 13v23q0 13 15 13h169q16 0 16 -13zM200 238v-189h117q49 0 76.5 24t27.5 70q0 95 -93 95h-128z" />
    <glyph glyph-name="afii10093" unicode="&#x44b;" horiz-adv-x="524" 
d="M96 238v-189h123q47 0 73 24t26 70q0 48 -24.5 71.5t-63.5 23.5h-134zM96 474v-185h135q72 0 106.5 -39.5t34.5 -106.5t-41.5 -105t-108.5 -38h-163q-17 0 -17 13v461q0 13 17 13h22q15 0 15 -13zM483 473v-460q0 -13 -14 -13h-27q-14 0 -14 13v460q0 14 14 14h28
q13 0 13 -14z" />
    <glyph glyph-name="afii10094" unicode="&#x44c;" horiz-adv-x="391" 
d="M318 143q0 48 -24.5 71.5t-63.5 23.5h-134v-189h123q47 0 73 24t26 70zM372 143q0 -67 -41.5 -105t-108.5 -38h-163q-17 0 -17 13v461q0 13 17 13h22q15 0 15 -13v-185h135q72 0 106.5 -39.5t34.5 -106.5z" />
    <glyph glyph-name="afii10095" unicode="&#x44d;" horiz-adv-x="363" 
d="M156 -7q-84 0 -132 22q-8 5 -7 14l3 16q2 11 16 9q74 -11 120 -11q59 0 85 43t28 145h-175q-16 0 -16 12v24q0 13 16 13h175q-2 89 -27.5 128.5t-82.5 39.5q-18 0 -111 -11q-13 -1 -14 8l-3 18q-1 10 7 13q54 22 124 22q83 0 122 -48q17 -20 28 -56q15 -52 15 -146
q0 -117 -32 -182q-35 -73 -139 -73z" />
    <glyph glyph-name="afii10096" unicode="&#x44e;" horiz-adv-x="557" 
d="M520 252q0 -38 -1 -51q0 -58 -14 -100q-18 -56 -49 -78q-42 -31 -107 -31q-81 0 -122 50q-15 21 -26 56q-16 58 -16 136h-89v-221q0 -13 -15 -13h-24q-15 0 -15 13v460q0 14 15 14h24q15 0 15 -14v-191h89q8 215 164 215q113 0 145 -81q26 -64 26 -164zM464 245
q0 80 -11 124q-20 76 -104 76q-53 0 -81 -37q-12 -18 -17 -44q-10 -45 -10 -119q0 -78 10 -124q18 -78 98 -78q73 0 95 56q20 49 20 146z" />
    <glyph glyph-name="afii10097" unicode="&#x44f;" horiz-adv-x="416" 
d="M120 222l-1 2q-75 21 -75 122q0 68 41.5 105t111.5 37h163q17 0 17 -14v-460q0 -14 -17 -14h-21q-15 0 -15 14v195h-114q-37 0 -59 -18.5t-34 -64.5l-32 -114q-3 -12 -17 -12h-28q-15 0 -11 16l35 120q19 66 56 86zM98 345q0 -88 102 -88h124v180h-121q-49 0 -77 -23
t-28 -69z" />
    <glyph glyph-name="uni0450" unicode="&#x450;" horiz-adv-x="410" 
d="M209 447q-60 0 -86.5 -42t-29.5 -131h234q0 73 -21 119q-23 54 -97 54zM209 -9q-86 0 -129 50q-17 21 -28 57q-16 59 -16 147q0 76 16 135q35 117 158 117q105 0 141 -69q33 -60 33 -151q0 -26 -8.5 -37.5t-28.5 -11.5h-253q1 -99 27.5 -141.5t91.5 -42.5q44 0 127 11
q14 2 16 -9l3 -16q2 -11 -7 -14q-60 -25 -143 -25zM210 550l-77 129q-4 7 3 11l38 19q8 3 11 -5l60 -136l2 -6q0 -3 -5 -5l-19 -10q-1 0 -3 -1t-3 -1q-4 0 -7 5z" />
    <glyph glyph-name="afii10071" unicode="&#x451;" horiz-adv-x="410" 
d="M209 447q-60 0 -86.5 -42t-29.5 -131h234q0 73 -21 119q-23 54 -97 54zM209 -9q-86 0 -129 50q-17 21 -28 57q-16 59 -16 147q0 76 16 135q35 117 158 117q105 0 141 -69q33 -60 33 -151q0 -26 -8.5 -37.5t-28.5 -11.5h-253q1 -99 27.5 -141.5t91.5 -42.5q44 0 127 11
q14 2 16 -9l3 -16q2 -11 -7 -14q-60 -25 -143 -25zM320 615q0 -36 -31 -36q-18 0 -24.5 8.5t-6.5 27.5q0 33 31 33t31 -33zM169 615q0 -36 -31 -36q-18 0 -24.5 8.5t-6.5 27.5q0 33 31 33t31 -33z" />
    <glyph glyph-name="afii10099" unicode="&#x452;" horiz-adv-x="452" 
d="M111 376h1v-364q0 -12 -13 -12h-29q-13 0 -13 12v553h-49q-13 0 -13 11v22q0 12 13 12h49v81q0 12 12 12h29q14 0 14 -12v-81h182q13 0 13 -11v-23q0 -11 -13 -11h-182v-138q75 42 144 42q76 0 118 -57.5t42 -163.5q0 -99 -44 -190t-135 -140q-15 -8 -21 6l-7 15
q-4 10 7 16q142 94 142 298q0 82 -29.5 123.5t-81.5 41.5q-53 0 -136 -42z" />
    <glyph glyph-name="afii10100" unicode="&#x453;" horiz-adv-x="347" 
d="M340 474v-22q0 -14 -14 -14h-225v-425q0 -13 -14 -13h-26q-15 0 -15 13v461q0 13 15 13h265q14 0 14 -13zM253 679l-77 -128q-5 -6 -13 -2l-19 8q-8 3 -3 11l60 136q3 9 14 3l35 -17q8 -2 3 -11z" />
    <glyph glyph-name="afii10101" unicode="&#x454;" horiz-adv-x="361" 
d="M201 -9q-81 0 -122 46q-18 23 -28 55q-16 55 -16 151q0 88 16 146q16 52 52 79t100 29q78 0 132 -22q10 -3 7 -14l-3 -17q-1 -10 -18 -8q-76 10 -115 10q-59 0 -84 -38t-29 -131h181q15 0 15 -12v-23q0 -8 -3 -10t-12 -2h-181q2 -107 26 -148q24 -40 87 -40q61 0 121 10
q14 2 16 -9l3 -16q2 -9 -8 -14q-48 -22 -137 -22z" />
    <glyph glyph-name="afii10102" unicode="&#x455;" horiz-adv-x="365" 
d="M335 135q0 -72 -42.5 -107.5t-117.5 -35.5q-90 0 -135 21q-9 4 -7 15l3 15q2 11 17 9q81 -10 124 -10q100 0 100 85q0 50 -19 69.5t-73 28.5q-79 15 -114 43t-35 90q0 68 38 103.5t111 35.5q81 0 128 -22q9 -4 8 -14l-3 -17q-2 -10 -17 -8q-86 10 -117 10q-50 0 -71 -20
t-21 -65q0 -43 20 -58q20 -14 77 -25q68 -13 101 -37q45 -29 45 -106z" />
    <glyph glyph-name="afii10103" unicode="&#x456;" horiz-adv-x="182" 
d="M124 617q0 -19 -7 -27.5t-26 -8.5q-33 0 -33 36q0 34 33 34q19 0 26 -8t7 -26zM118 475v-464q0 -11 -11 -11h-30q-13 0 -13 11v464q0 12 13 12h31q10 0 10 -12z" />
    <glyph glyph-name="afii10104" unicode="&#x457;" horiz-adv-x="197" 
d="M205 612q0 -36 -31 -36q-18 0 -24.5 8.5t-6.5 27.5q0 33 31 33t31 -33zM54 612q0 -36 -31 -36q-18 0 -24.5 8.5t-6.5 27.5q0 33 31 33t31 -33zM125 475v-464q0 -11 -11 -11h-30q-13 0 -13 11v464q0 12 13 12h31q10 0 10 -12z" />
    <glyph glyph-name="afii10105" unicode="&#x458;" horiz-adv-x="195" 
d="M130 476v-540q0 -59 -25 -95q-28 -43 -124 -42q-13 0 -14 12l-1 17q0 11 14 14q61 11 77 30q18 20 18 68v536q0 11 12 11h30q13 0 13 -11zM134 617q0 -19 -7 -27.5t-25 -8.5q-33 0 -33 36q0 34 33 34q18 0 25 -8t7 -26z" />
    <glyph glyph-name="afii10106" unicode="&#x459;" horiz-adv-x="661" 
d="M168 487h180q15 0 15 -13v-185h131q74 0 110 -39.5t36 -106.5t-42 -105t-113 -38h-159q-17 0 -17 13v426q-39 0 -70 -1h-69l-18 -270q-1 -28 -5 -50q-1 -15 -11 -46q-11 -39 -39 -57.5t-82 -22.5q-14 0 -14 11v21q0 6 2.5 7.5t9.5 3.5q40 7 61 35q10 11 14 32q8 28 13 87
l19 254q1 24 12 34t36 10zM363 238v-189h119q49 0 76.5 24t27.5 70q0 95 -93 95h-130z" />
    <glyph glyph-name="afii10107" unicode="&#x45a;" horiz-adv-x="621" 
d="M603 143q0 -67 -42 -105t-113 -38h-158q-17 0 -17 13v226h-176v-226q0 -13 -14 -13h-26q-15 0 -15 13v461q0 13 15 13h26q14 0 14 -13v-187h176v187q0 13 17 13h22q15 0 15 -13v-185h130q74 0 110 -39.5t36 -106.5zM550 143q0 95 -94 95h-129v-189h118q49 0 77 24.5
t28 69.5z" />
    <glyph glyph-name="afii10108" unicode="&#x45b;" horiz-adv-x="426" 
d="M256 489q68 0 98 -38q13 -14 19 -46q6 -25 8 -52q1 -14 1 -63v-279q0 -11 -12 -11h-33q-11 0 -11 11v300q0 72 -15.5 100t-62.5 28q-58 0 -152 -57v-371q0 -11 -12 -11h-32q-10 0 -10 11v553h-33q-12 0 -12 12v21q0 13 12 13h33v82q0 11 10 11h32q12 0 12 -11v-82h182
q8 0 10.5 -2.5t2.5 -9.5v-22q0 -5 -0.5 -7t-3.5 -3.5t-9 -1.5h-182v-133q1 -1 3 -1q92 59 157 59z" />
    <glyph glyph-name="afii10109" unicode="&#x45c;" horiz-adv-x="377" 
d="M242 255v-2q32 -8 47.5 -30t31.5 -75l38 -132q4 -16 -10 -16h-29q-13 0 -16 12l-37 126q-14 52 -37 69t-69 17h-64v-213q0 -11 -11 -11h-34q-10 0 -10 11v465q0 11 10 11h34q11 0 11 -11v-203h60q37 0 62 18t39 65l36 118q4 13 15 13h26q17 0 11 -16l-35 -117
q-25 -87 -69 -99zM266 679l-77 -128q-5 -6 -13 -2l-19 8q-8 3 -3 11l60 136q3 9 14 3l35 -17q8 -2 3 -11z" />
    <glyph glyph-name="uni045D" unicode="&#x45d;" horiz-adv-x="431" 
d="M334 13v374l-3 1q-31 -54 -62 -101l-177 -278q-4 -9 -18 -9h-19q-13 0 -13 13v460q0 14 14 14h27q13 0 13 -14v-362l4 -1q20 35 79 128l152 237q9 12 20 12h23q14 0 14 -13v-461q0 -13 -15 -13h-25q-14 0 -14 13zM211 550l-77 129q-4 7 3 11l38 19q8 3 11 -5l60 -136
l2 -6q0 -3 -5 -5l-19 -10q-1 0 -3 -1t-3 -1q-4 0 -7 5z" />
    <glyph glyph-name="afii10110" unicode="&#x45e;" horiz-adv-x="394" 
d="M80 476l117 -394h6l52 170l69 225q3 10 14 10h36q11 0 6 -11l-202 -642q-3 -10 -15 -10h-31q-13 0 -8 11l49 160l-150 481q-5 11 6 11h37q11 0 14 -11zM212 568q-38 0 -69.5 22t-49.5 62q-8 17 0 23l14 12q8 6 17 -5q29 -37 47 -50.5t42 -13.5q23 0 39 13t47 52
q8 11 17 3l15 -10q5 -5 2 -14q-16 -42 -49 -68t-72 -26z" />
    <glyph glyph-name="afii10193" unicode="&#x45f;" horiz-adv-x="426" 
d="M97 49h231v425q0 13 15 13h27q14 0 14 -13v-461q0 -13 -14 -13h-128l-6 -115q-2 -18 -10 -18h-25q-7 0 -9 3t-3 15l-6 115h-126q-15 0 -15 13v461q0 13 15 13h26q14 0 14 -13v-425z" />
    <glyph glyph-name="afii10050" unicode="&#x490;" horiz-adv-x="403" 
d="M389 775v-152q0 -13 -11 -13h-259v-598q0 -12 -10 -12h-35q-12 0 -12 12v639q0 12 11 12h263l11 113q1 19 12 19h20q10 0 10 -20z" />
    <glyph glyph-name="afii10098" unicode="&#x491;" horiz-adv-x="353" 
d="M340 591v-137q0 -15 -11 -15h-221v-426q0 -13 -14 -13h-26q-15 0 -15 13v461q0 13 15 13h222l13 104q1 15 10 15h19q8 0 8 -15z" />
    <glyph glyph-name="schwacyrillic" unicode="&#x4d9;" horiz-adv-x="414" 
d="M211 41q58 0 85.5 43t30.5 130h-234q0 -72 20 -119q25 -54 98 -54zM211 497q87 0 129 -51q17 -20 28 -57q16 -58 16 -146q0 -252 -174 -252q-108 0 -144 69q-30 59 -30 151q0 26 8.5 37.5t28.5 11.5h253q-1 99 -27.5 141.5t-91.5 42.5q-42 0 -125 -11q-14 -2 -16 9l-3 16
q-3 11 7 14q60 25 141 25z" />
    <glyph glyph-name="Wgrave" unicode="&#x1e80;" horiz-adv-x="697" 
d="M392 245l-42 180h-4q-16 -88 -39 -178l-59 -237q-3 -10 -13 -10h-43q-11 0 -12 10l-165 642q-1 10 8 10h38q10 0 13 -9l99 -395q20 -82 41 -173h2q15 80 37 168l66 278l-30 121q-3 10 7 10h38q10 0 13 -9l101 -410q26 -104 38 -168h3q12 65 38 180l95 398q3 9 14 9h37
q10 0 7 -11l-160 -640q-3 -11 -13 -11h-42q-13 0 -14 10zM230 799l22 31q7 10 16 3l111 -90q7 -4 2 -12l-12 -16q-5 -8 -13 -3l-122 75q-9 4 -4 12z" />
    <glyph glyph-name="wgrave" unicode="&#x1e81;" horiz-adv-x="587" 
d="M391 160l22 -80l106 397q3 10 13 10h36q8 0 8 -5t-1 -6l-132 -467q-3 -9 -13 -9h-34q-12 0 -14 9q-49 164 -84 298h-3l-37 -135l-46 -163q-3 -9 -12 -9h-34q-11 0 -14 9l-134 467q-3 11 7 11h36q11 0 14 -11l70 -253l38 -142h2q16 67 37 140l48 170l-23 85q-5 11 7 11h37
q10 0 13 -11l70 -253zM289 550l-77 129q-4 7 3 11l38 19q8 3 11 -5l60 -136l2 -6q0 -3 -5 -5l-19 -10q-1 0 -3 -1t-3 -1q-4 0 -7 5z" />
    <glyph glyph-name="Wacute" unicode="&#x1e82;" horiz-adv-x="697" 
d="M392 245l-42 180h-4q-16 -88 -39 -178l-59 -237q-3 -10 -13 -10h-43q-11 0 -12 10l-165 642q-1 10 8 10h38q10 0 13 -9l99 -395q20 -82 41 -173h2q15 80 37 168l66 278l-30 121q-3 10 7 10h38q10 0 13 -9l101 -410q26 -104 38 -168h3q12 65 38 180l95 398q3 9 14 9h37
q10 0 7 -11l-160 -640q-3 -11 -13 -11h-42q-13 0 -14 10zM427 830l22 -31q5 -8 -4 -12l-122 -75q-8 -5 -13 3l-12 16q-5 8 2 12l111 90q9 7 16 -3z" />
    <glyph glyph-name="wacute" unicode="&#x1e83;" horiz-adv-x="587" 
d="M391 160l22 -80l106 397q3 10 13 10h36q8 0 8 -5t-1 -6l-132 -467q-3 -9 -13 -9h-34q-12 0 -14 9q-49 164 -84 298h-3l-37 -135l-46 -163q-3 -9 -12 -9h-34q-11 0 -14 9l-134 467q-3 11 7 11h36q11 0 14 -11l70 -253l38 -142h2q16 67 37 140l48 170l-23 85q-5 11 7 11h37
q10 0 13 -11l70 -253zM370 679l-77 -128q-5 -6 -13 -2l-19 8q-8 3 -3 11l60 136q3 9 14 3l35 -17q8 -2 3 -11z" />
    <glyph glyph-name="Wdieresis" unicode="&#x1e84;" horiz-adv-x="697" 
d="M392 245l-42 180h-4q-16 -88 -39 -178l-59 -237q-3 -10 -13 -10h-43q-11 0 -12 10l-165 642q-1 10 8 10h38q10 0 13 -9l99 -395q20 -82 41 -173h2q15 80 37 168l66 278l-30 121q-3 10 7 10h38q10 0 13 -9l101 -410q26 -104 38 -168h3q12 65 38 180l95 398q3 9 14 9h37
q10 0 7 -11l-160 -640q-3 -11 -13 -11h-42q-13 0 -14 10zM390 765q0 33 30 33q24 4 29.5 -19.5t-4.5 -39.5q-6 -9 -25 -9q-18 0 -24 8t-6 27zM306 765q0 -35 -30 -35q-18 0 -24.5 8.5t-6.5 26.5q0 33 31 33q17 0 23.5 -7.5t6.5 -25.5z" />
    <glyph glyph-name="wdieresis" unicode="&#x1e85;" horiz-adv-x="587" 
d="M391 160l22 -80l106 397q3 10 13 10h36q8 0 8 -5t-1 -6l-132 -467q-3 -9 -13 -9h-34q-12 0 -14 9q-49 164 -84 298h-3l-37 -135l-46 -163q-3 -9 -12 -9h-34q-11 0 -14 9l-134 467q-3 11 7 11h36q11 0 14 -11l70 -253l38 -142h2q16 67 37 140l48 170l-23 85q-5 11 7 11h37
q10 0 13 -11l70 -253zM251 612q0 -36 -31 -36q-18 0 -24.5 8.5t-6.5 27.5q0 33 31 33t31 -33zM402 612q0 -36 -31 -36q-18 0 -24.5 8.5t-6.5 27.5q0 33 31 33t31 -33z" />
    <glyph glyph-name="Ygrave" unicode="&#x1ef2;" horiz-adv-x="429" 
d="M160 485l57 -133h5q15 41 58 132l80 169q4 9 15 9h39q10 0 7 -10l-174 -358v-282q0 -12 -10 -12h-33q-13 0 -13 12v282l-172 359q-5 9 7 9h42q8 0 13 -9zM115 799l22 31q7 10 16 3l111 -90q7 -4 2 -12l-12 -16q-5 -8 -13 -3l-122 75q-9 4 -4 12z" />
    <glyph glyph-name="ygrave" unicode="&#x1ef3;" horiz-adv-x="394" 
d="M80 476l117 -394h6l52 170l69 225q3 10 14 10h36q11 0 6 -11l-202 -642q-3 -10 -15 -10h-31q-13 0 -8 11l49 160l-150 481q-5 11 6 11h37q11 0 14 -11zM196 550l-77 129q-4 7 3 11l38 19q8 3 11 -5l60 -136l2 -6q0 -3 -5 -5l-19 -10q-1 0 -3 -1t-3 -1q-4 0 -7 5z" />
    <glyph glyph-name="uni2012" unicode="&#x2012;" horiz-adv-x="476" 
d="M451 265v-24q0 -9 -11 -9h-401q-11 0 -11 9v24q0 11 11 11h401q11 0 11 -11z" />
    <glyph glyph-name="endash" unicode="&#x2013;" horiz-adv-x="435" 
d="M412 265v-24q0 -9 -10 -9h-366q-11 0 -11 9v24q0 11 12 11h364q11 0 11 -11z" />
    <glyph glyph-name="emdash" unicode="&#x2014;" horiz-adv-x="695" 
d="M673 265v-24q0 -9 -11 -9h-623q-11 0 -11 9v24q0 11 11 11h623q11 0 11 -11z" />
    <glyph glyph-name="afii00208" unicode="&#x2015;" horiz-adv-x="695" 
d="M673 265v-24q0 -9 -11 -9h-623q-11 0 -11 9v24q0 11 11 11h623q11 0 11 -11z" />
    <glyph glyph-name="quoteleft" unicode="&#x2018;" horiz-adv-x="167" 
d="M42 530q0 88 63 135q7 7 13 1l9 -9q5 -3 -1 -11q-27 -32 -27 -68t20 -64q7 -10 -2 -16l-35 -29q-12 -8 -19 2q-21 21 -21 59z" />
    <glyph glyph-name="quoteright" unicode="&#x2019;" horiz-adv-x="167" 
d="M130 606q0 -41 -17.5 -77t-45.5 -57q-8 -6 -13 -1l-10 9q-4 4 2 11q26 28 26 68q0 38 -20 64q-4 10 3 16l35 29q11 8 18 -2q22 -22 22 -60z" />
    <glyph glyph-name="quotesinglbase" unicode="&#x201a;" horiz-adv-x="158" 
d="M125 11q0 -41 -17 -78.5t-44 -58.5q-9 -7 -14 -2l-10 11q-4 4 2 10q26 32 26 69q0 36 -19 64q-7 10 3 16l33 27q11 7 19 -1q21 -22 21 -57z" />
    <glyph glyph-name="quotereversed" unicode="&#x201b;" horiz-adv-x="167" 
d="M128 613q-32 -32 -32 -78q0 -27 15 -53q3 -5 -2 -8l-12 -10q-7 -7 -13 4q-36 52 -36 110q0 66 35 89q11 9 22 -5l24 -32q6 -10 -1 -17z" />
    <glyph glyph-name="quotedblleft" unicode="&#x201c;" horiz-adv-x="240" 
d="M32 530q0 87 63 135q8 6 13 1l10 -9q4 -5 -2 -11q-26 -28 -26 -68q0 -38 20 -64q4 -10 -3 -16l-35 -29q-11 -8 -18 2q-22 22 -22 59zM128 530q0 88 63 135q7 7 13 1l9 -9q5 -3 -1 -11q-27 -28 -27 -68q0 -36 20 -64q7 -10 -2 -16l-35 -29q-12 -8 -19 2q-21 21 -21 59z
" />
    <glyph glyph-name="quotedblright" unicode="&#x201d;" horiz-adv-x="240" 
d="M220 607q0 -87 -63 -135q-8 -6 -13 -1l-10 9q-4 4 2 11q26 31 26 68q0 38 -20 64q-4 9 3 16l35 29q11 8 18 -2q22 -22 22 -59zM124 607q0 -89 -63 -135q-7 -7 -13 -1l-9 9q-5 3 1 11q27 29 27 68q0 36 -20 64q-6 8 2 16l35 29q12 8 19 -2q21 -21 21 -59z" />
    <glyph glyph-name="quotedblbase" unicode="&#x201e;" horiz-adv-x="250" 
d="M122 12q0 -41 -17 -78.5t-44 -58.5q-9 -7 -14 -2l-10 11q-4 4 2 10q26 32 26 69q0 32 -20 64q-4 10 3 16l33 27q11 8 19 -1q22 -22 22 -57zM216 11q0 -41 -17 -78.5t-44 -58.5q-9 -7 -14 -2l-10 11q-4 4 2 10q26 32 26 69q0 36 -19 64q-7 10 3 16l33 27q10 7 19 -1
q21 -22 21 -57z" />
    <glyph glyph-name="uni201F" unicode="&#x201f;" horiz-adv-x="252" 
d="M124 613q-33 -33 -33 -78q0 -30 16 -53q3 -4 -3 -8l-11 -10q-7 -6 -13 4q-37 52 -37 110q0 66 35 89q13 7 23 -5l23 -32q7 -10 0 -17zM218 613q-33 -33 -33 -78q0 -30 16 -53q3 -4 -3 -8l-11 -10q-7 -6 -13 4q-37 52 -37 110q0 66 35 89q13 7 23 -5l23 -32q7 -10 0 -17z
" />
    <glyph glyph-name="dagger" unicode="&#x2020;" horiz-adv-x="409" 
d="M392 475v-28q0 -11 -12 -11h-148v-473q0 -11 -12 -11h-28q-14 0 -14 11v473h-148q-12 0 -12 11v28q0 10 12 10h148v194q0 12 14 12h28q12 0 12 -12v-194h148q12 0 12 -10z" />
    <glyph glyph-name="daggerdbl" unicode="&#x2021;" horiz-adv-x="409" 
d="M391 197v-28q0 -11 -12 -11h-147v-196q-1 -10 -12 -10h-29q-11 0 -13 9v197h-149q-12 0 -12 11v28q0 11 13 11h148v228h-148q-12 0 -12 11v28q0 10 12 10h148v197q0 10 12 10h29q12 0 12 -10h-1q2 -2 2 -3v-194h147q12 0 12 -10v-28q0 -11 -12 -11h-147v-228h146
q13 0 13 -11z" />
    <glyph glyph-name="bullet" unicode="&#x2022;" horiz-adv-x="235" 
d="M194 254q0 -32 -22.5 -54.5t-53.5 -22.5q-32 0 -54.5 22.5t-22.5 54.5q0 31 23 54t54 23t53.5 -23t22.5 -54z" />
    <glyph glyph-name="trianglebullet" unicode="&#x2023;" horiz-adv-x="440" 
d="M67 63v417l347 -203z" />
    <glyph glyph-name="ellipsis" unicode="&#x2026;" horiz-adv-x="478" 
d="M446 31q0 -40 -37 -40q-21 0 -28 9t-7 31q0 39 35 39q21 0 29 -9t8 -30zM272 31q0 -40 -35 -40q-21 0 -28.5 9.5t-7.5 30.5q0 39 36 39q20 0 27.5 -9t7.5 -30zM103 31q0 -40 -35 -40q-21 0 -28.5 9.5t-7.5 30.5q0 39 36 39q20 0 27.5 -9t7.5 -30z" />
    <glyph glyph-name="perthousand" unicode="&#x2030;" horiz-adv-x="969" 
d="M287 468q0 -67 -11 -110q-19 -96 -123 -102q-68 0 -100 47q-12 17 -20 51q-10 48 -10 114q0 199 130 199q70 0 100 -42q15 -20 22 -47q12 -40 12 -110zM240 461q0 89 -17.5 126.5t-69.5 37.5q-53 0 -69 -52q-14 -42 -14 -112q0 -75 13 -113q18 -48 70 -48q55 0 72 49
q15 40 15 112zM649 206q0 -67 -11 -110q-19 -96 -123 -102q-68 0 -100 47q-12 17 -20 51q-10 48 -10 114q0 199 130 199q70 0 100 -42q15 -20 22 -47q12 -40 12 -110zM602 199q0 89 -17.5 126.5t-69.5 37.5q-53 0 -69 -52q-14 -42 -14 -112q0 -75 13 -113q18 -48 70 -48
q55 0 72 49q15 40 15 112zM947 206q0 -67 -11 -110q-19 -96 -123 -102q-68 0 -100 47q-12 17 -20 51q-10 48 -10 114q0 199 130 199q70 0 100 -42q15 -20 22 -47q12 -40 12 -110zM900 199q0 89 -17.5 126.5t-69.5 37.5q-53 0 -69 -52q-14 -42 -14 -112q0 -75 13 -113
q18 -48 70 -48q55 0 72 49q15 40 15 112zM481 689l-238 -703q-5 -9 -12 -9h-24q-13 0 -8 11l239 702q3 10 12 10h24q9 0 7 -11z" />
    <glyph glyph-name="minute" unicode="&#x2032;" horiz-adv-x="163" 
d="M138 641l-72 -214q-5 -8 -14 -5l-18 4q-7 1 -6 14l54 219q2 12 16 9l34 -13q11 -3 6 -14z" />
    <glyph glyph-name="second" unicode="&#x2033;" horiz-adv-x="263" 
d="M138 641l-72 -214q-5 -8 -14 -5l-18 4q-7 1 -6 14l54 219q2 12 16 9l34 -13q11 -3 6 -14zM237 641l-72 -214q-3 -8 -14 -5l-17 4q-8 3 -6 14l53 219q3 12 17 9l33 -13q11 -3 6 -14z" />
    <glyph glyph-name="uni2034" unicode="&#x2034;" horiz-adv-x="355" 
d="M138 641l-72 -214q-5 -8 -14 -5l-18 4q-7 1 -6 14l54 219q2 12 16 9l34 -13q11 -3 6 -14zM235 641l-72 -214q-3 -8 -14 -5l-17 4q-8 3 -6 14l53 219q3 12 17 9l33 -13q11 -3 6 -14zM330 641l-72 -214q-3 -8 -14 -5l-18 4q-8 3 -5 14l53 219q2 12 16 9l33 -13q12 -3 7 -14
z" />
    <glyph glyph-name="guilsinglleft" unicode="&#x2039;" horiz-adv-x="265" 
d="M156 42l-88 125q-8 11 1 22l86 126q11 11 20 11h33q5 0 6.5 -4t-1.5 -7l-95 -137l51 -73q13 -18 24 -33.5t16.5 -23t6.5 -8.5q2 -3 1 -6t-4 -3h-37q-12 0 -20 11z" />
    <glyph glyph-name="guilsinglright" unicode="&#x203a;" horiz-adv-x="265" 
d="M206 167l-88 -125q-8 -11 -20 -11h-37q-4 0 -5 3t1 6l99 138l-96 137q-3 3 -1 7t7 4h32q11 0 20 -11l87 -126q9 -11 1 -22z" />
    <glyph glyph-name="fraction" unicode="&#x2044;" horiz-adv-x="90" 
d="M188 689l-238 -703q-4 -9 -12 -9h-24q-13 0 -8 11l239 702q3 10 12 10h24q9 0 7 -11z" />
    <glyph glyph-name="fraction" unicode="&#x2215;" horiz-adv-x="90" 
d="M188 689l-238 -703q-4 -9 -12 -9h-24q-13 0 -8 11l239 702q3 10 12 10h24q9 0 7 -11z" />
    <glyph glyph-name="zerosuperior" unicode="&#x2070;" horiz-adv-x="297" 
d="M283 558q0 -67 -11 -110q-19 -96 -123 -102q-68 0 -100 47q-12 17 -20 51q-10 48 -10 114q0 199 130 199q70 0 100 -42q15 -20 22 -47q12 -40 12 -110zM236 551q0 89 -17.5 126.5t-69.5 37.5q-53 0 -69 -52q-14 -42 -14 -112q0 -75 13 -113q18 -48 70 -48q55 0 72 49
q15 40 15 112z" />
    <glyph glyph-name="foursuperior" unicode="&#x2074;" horiz-adv-x="297" 
d="M290 490v-18q0 -11 -12 -11h-38v-96q0 -13 -13 -13h-19q-13 0 -13 12v97h-176q-13 0 -13 11v16q0 10 6 19l179 235q9 11 21 11h14q14 0 14 -12v-238h38q12 0 12 -13zM61 503h134v176z" />
    <glyph glyph-name="fivesuperior" unicode="&#x2075;" horiz-adv-x="297" 
d="M135 349q-59 0 -102 17q-10 4 -7 14l4 12q3 10 16 9q53 -8 90 -8q45 0 67 21.5t22 77.5q0 50 -55 57l-122 22q-16 3 -12 21l21 151q3 12 17 12h173q12 0 12 -12v-19q0 -12 -12 -12h-148l-15 -102l108 -19q36 -6 59 -32t23 -66q0 -79 -34.5 -111.5t-104.5 -32.5z" />
    <glyph glyph-name="sixsuperior" unicode="&#x2076;" horiz-adv-x="297" 
d="M234 464q0 43 -14 62.5t-48 19.5q-38 0 -106 -9v-19q0 -50 6 -82q11 -50 79 -50q37 0 60 19t23 59zM162 713q-48 0 -69 -31.5t-25 -99.5q67 8 111 8q104 0 104 -126q0 -59 -35.5 -88.5t-98.5 -29.5q-68 0 -101 33q-12 12 -20 42q-9 42 -9 116t13 122q24 98 129 98
q76 0 99 -17q4 -3 3 -13l-3 -13q-2 -10 -10 -8q-48 7 -88 7z" />
    <glyph glyph-name="sevensuperior" unicode="&#x2077;" horiz-adv-x="268" 
d="M80 350l-19 7q-7 3 -7 11l1 2q1 3 1 5l153 336h-193q-12 0 -12 11v19q0 12 12 12h231q16 0 16 -14v-16q0 -6 -5 -19l-158 -347q-4 -9 -12 -9q-4 0 -8 2z" />
    <glyph glyph-name="eightsuperior" unicode="&#x2078;" horiz-adv-x="297" 
d="M13 457q0 69 63 107q-24 11 -38 32.5t-14 46.5q0 114 123 114q58 0 90 -28.5t32 -82.5q0 -24 -13.5 -46.5t-37.5 -36.5q64 -30 64 -103q0 -51 -37 -82.5t-99 -31.5q-133 0 -133 111zM233 457q0 60 -88 90q-34 -10 -56 -25q-28 -18 -28 -60q0 -74 85 -74q38 0 62.5 17.5
t24.5 51.5zM220 647q0 68 -73 68t-73 -68q0 -47 72 -64q74 17 74 64z" />
    <glyph glyph-name="ninesuperior" unicode="&#x2079;" horiz-adv-x="297" 
d="M17 639q0 59 35 88.5t98 29.5q70 0 100 -34q14 -14 20 -42q6 -23 8 -51q2 -30 2 -64q0 -92 -23 -149q-27 -71 -120 -71q-76 0 -99 17q-4 3 -3 13l3 13q2 10 10 8q48 -7 88 -7q50 0 71 31t25 100q-69 -8 -111 -8q-104 0 -104 126zM66 639q0 -43 14 -62.5t48 -19.5
q33 0 105 8v19q0 69 -11 96q-14 35 -74 35q-82 0 -82 -76z" />
    <glyph glyph-name="plussuperior" unicode="&#x207a;" horiz-adv-x="286" 
d="M248 561v-15q0 -13 -13 -13h-71v-83q0 -13 -13 -13h-16q-14 0 -14 13v83h-71q-13 0 -13 13v15q0 8 3 10.5t11 2.5h70v80q0 13 14 13h15q14 0 14 -13v-80h70q14 0 14 -13z" />
    <glyph glyph-name="hyphensuperior" unicode="&#x207b;" horiz-adv-x="190" 
d="M179 561v-16q0 -12 -13 -12h-141q-12 0 -12 12v16q0 13 12 13h141q13 0 13 -13z" />
    <glyph glyph-name="equalsuperior" unicode="&#x207c;" horiz-adv-x="280" 
d="M248 516v-16q0 -8 -2.5 -10t-9.5 -2h-187q-7 0 -9.5 2t-2.5 10v16q0 13 12 13h187q12 0 12 -13zM248 608v-16q0 -13 -12 -13h-187q-12 0 -12 13v16q0 12 12 12h187q12 0 12 -12z" />
    <glyph glyph-name="parenleftsuperior" unicode="&#x207d;" horiz-adv-x="151" 
d="M132 309q5 -10 -2 -14l-10 -7q-11 -8 -18 4q-69 105 -69 251q0 120 68 230q8 15 19 4l10 -8q7 -8 2 -13q-53 -95 -53 -213q0 -123 53 -234z" />
    <glyph glyph-name="parenrightsuperior" unicode="&#x207e;" horiz-adv-x="151" 
d="M31 309q53 104 53 234q0 115 -52 213q-5 6 2 13l10 8q11 9 18 -4q69 -109 69 -230q0 -143 -69 -251q-8 -12 -19 -4l-10 7q-7 4 -2 14z" />
    <glyph glyph-name="nsuperior" unicode="&#x207f;" horiz-adv-x="292" 
d="M266 468v-195q0 -11 -14 -11h-21q-13 0 -13 11v197q0 44 -9.5 61t-37.5 17q-37 0 -99 -36v-239q0 -11 -14 -11h-20q-12 0 -12 11v300q0 11 13 11h19q9 0 11.5 -1.5t2.5 -9.5v-21q62 39 105 39q62 0 77 -37q12 -29 12 -86z" />
    <glyph glyph-name="zeroinferior" unicode="&#x2080;" horiz-adv-x="297" 
d="M283 116q0 -67 -11 -110q-20 -96 -123 -102q-68 0 -100 47q-12 17 -20 51q-10 48 -10 114q0 199 130 199q70 0 100 -42q15 -20 22 -47q12 -40 12 -110zM236 109q0 89 -17.5 126.5t-69.5 37.5q-53 0 -69 -52q-14 -42 -14 -112q0 -75 13 -113q18 -48 70 -48q55 0 72 49
q15 40 15 112z" />
    <glyph glyph-name="oneinferior" unicode="&#x2081;" horiz-adv-x="253" 
d="M223 -61v-18q0 -11 -12 -11h-167q-12 0 -12 11v18q0 12 12 12h57v303h-57q-13 0 -13 10v10q0 10 9 13l56 19q7 4 21 4h18q15 0 15 -12v-347h61q12 0 12 -12z" />
    <glyph glyph-name="twoinferior" unicode="&#x2082;" horiz-adv-x="297" 
d="M259 208q0 -62 -50 -118l-123 -137v-1h168q12 0 12 -12v-18q0 -12 -12 -12h-220q-14 0 -14 12v16q0 10 11 24l141 156q39 44 39 84q0 35 -17 51.5t-60 16.5q-35 0 -95 -7q-8 -1 -10 7l-3 15q-1 9 7 14q28 16 101 16q125 0 125 -107z" />
    <glyph glyph-name="threeinferior" unicode="&#x2083;" horiz-adv-x="297" 
d="M270 49l1 -2q0 -79 -34.5 -111.5t-104.5 -32.5q-59 0 -104 17q-10 4 -7 14l4 12q3 10 16 9q53 -8 92 -8q45 0 67 21.5t22 77.5q0 46 -54 57l-64 11q-14 3 -14 15v17q0 8 8 16l96 102q0 1 -1 2h-155q-13 0 -13 11v20q0 12 13 12h204q16 0 16 -12v-20q0 -12 -11 -23
l-95 -100q46 -10 71 -21t34.5 -29t12.5 -55z" />
    <glyph glyph-name="fourinferior" unicode="&#x2084;" horiz-adv-x="297" 
d="M290 48v-18q0 -11 -12 -11h-38v-96q0 -13 -13 -13h-19q-13 0 -13 12v97h-176q-13 0 -13 11v16q0 10 6 19l179 235q9 11 21 11h14q14 0 14 -12v-238h38q12 0 12 -13zM61 61h134v176z" />
    <glyph glyph-name="fiveinferior" unicode="&#x2085;" horiz-adv-x="297" 
d="M135 -93q-59 0 -102 17q-10 4 -7 14l4 12q3 10 16 9q53 -8 90 -8q45 0 67 21.5t22 77.5q0 50 -55 57l-122 22q-16 3 -12 21l21 151q3 12 17 12h173q12 0 12 -12v-19q0 -12 -12 -12h-148l-15 -102l108 -19q36 -6 59 -32t23 -66q0 -79 -34.5 -111.5t-104.5 -32.5z" />
    <glyph glyph-name="sixinferior" unicode="&#x2086;" horiz-adv-x="297" 
d="M234 23q0 43 -14 62.5t-48 19.5q-38 0 -106 -9v-19q0 -51 6 -81q6 -27 23.5 -37.5t55.5 -13.5q37 0 60 19t23 59zM162 272q-48 0 -69 -31.5t-25 -99.5q67 8 111 8q104 0 104 -126q0 -59 -35.5 -88.5t-98.5 -29.5q-68 0 -101 33q-12 12 -20 42q-9 42 -9 116t13 122
q24 98 129 98q76 0 99 -17q4 -3 3 -13l-3 -13q-2 -10 -10 -8q-48 7 -88 7z" />
    <glyph glyph-name="seveninferior" unicode="&#x2087;" horiz-adv-x="268" 
d="M80 -92l-19 7q-7 3 -7 11l1 2q1 3 1 5l153 336h-193q-12 0 -12 11v19q0 12 12 12h231q16 0 16 -14v-16q0 -6 -5 -19l-158 -347q-4 -9 -12 -9q-4 0 -8 2z" />
    </font>
</defs>
</svg>
