<?xml version="1.0" standalone="no"?>
<!DOCTYPE svg PUBLIC "-//W3C//DTD SVG 1.1//EN" "http://www.w3.org/Graphics/SVG/1.1/DTD/svg11.dtd" >
<svg xmlns="http://www.w3.org/2000/svg" xmlns:xlink="http://www.w3.org/1999/xlink" version="1.1">
<metadata>
Created by FontForge 20161013 at Fri Feb 21 21:38:34 2014
 By ,,,
Copyright (c) 2013 Parachute, www.parachute.gr.  All rights reserved.
</metadata>
<defs>
<font id="PFSquareSansCondPro-ExtraBlack" horiz-adv-x="552" >
  <font-face 
    font-family="PF Square Sans Cond Pro"
    font-weight="1000"
    font-stretch="normal"
    units-per-em="1000"
    panose-1="2 11 9 6 4 0 0 2 0 4"
    ascent="800"
    descent="-200"
    x-height="497"
    cap-height="665"
    bbox="-228 -342.111 1372 967.881"
    underline-thickness="90"
    underline-position="-305"
    unicode-range="U+0020-FB05"
  />
<missing-glyph horiz-adv-x="418" 
d="M419 0h-418v700h418v-700zM210 245l-72 -150h145zM136 605l74 -148l73 148h-147zM157 351l-55 117v-235zM319 466l-56 -117l56 -114v231z" />
    <glyph glyph-name="fj" unicode="fj" horiz-adv-x="537" 
d="M266 733q94 0 148 -26q29 -15 24 -44l-14 -81q-2 -12 -9.5 -15t-24.5 0q-48 6 -81 6q-60 0 -60 -54v-22h228q30 0 30 -24v-429q0 -159 -78 -214q-69 -50 -191 -46q-34 0 -35 25l-8 102q-1 13 3.5 18.5t22.5 10.5q64 15 83 31t19 68v313h-75v-328q0 -24 -30 -24h-122
q-31 0 -31 24q0 178 1 328h-30q-16 0 -21 5t-5 20v96q0 13 5.5 18.5t20.5 5.5h30v54q0 182 200 182z" />
    <glyph glyph-name="ffj" unicode="ffj" horiz-adv-x="791" 
d="M520 743q94 0 148 -26q29 -15 24 -44l-14 -81q-2 -12 -9.5 -15t-24.5 0q-50 6 -81 6q-60 0 -60 -54v-32h228q30 0 30 -24v-429q0 -159 -78 -214q-70 -50 -190 -46q-35 0 -36 25l-8 102q-1 13 3.5 18.5t22.5 10.5q64 15 83 31t19 68v313h-75v-328v-5.5t-1 -6t-3.5 -7
t-7.5 -3.5t-13 -2h-131q-16 0 -21.5 5.5t-5.5 18.5q0 178 1 328h-72v-328q0 -6 -1 -10t-7 -9t-18 -5h-130q-16 0 -21.5 5.5t-5.5 18.5q0 178 1 328h-31q-15 0 -20 5t-5 20v96q0 13 5 18.5t20 5.5h31v19t0.5 16.5t0.5 7.5q0 88 48 135t143 47q70 0 117 -18q48 39 145 39z
M249 508v-11h71v63q-16 2 -34 2q-37 0 -37 -54z" />
    <glyph glyph-name="ff" unicode="ff" horiz-adv-x="658" 
d="M521 743q87 0 137 -26q30 -15 25 -44l-14 -81q-2 -14 -10 -16.5t-28 1.5q-43 6 -81 6q-37 0 -37 -54v-32h85q12 0 17.5 -3t6 -6.5t0.5 -13.5v-97q0 -11 -0.5 -14.5t-6 -7t-17.5 -3.5h-87v-328v-3q0 -6 -1 -9.5t-6.5 -7.5t-16.5 -4h-132q-16 0 -21 6t-5 18v328h-75v-328
v-3q0 -6 -1 -9.5t-6.5 -7.5t-16.5 -4h-132q-16 0 -21.5 5.5t-5.5 18.5l1 328h-30q-16 0 -21 5t-5 20v96q0 13 5.5 18.5t20.5 5.5h30v43q0 87 48.5 134.5t143.5 47.5q73 0 122 -20q44 41 135 41zM292 563q-37 0 -37 -55v-11h74v63q-14 3 -37 3z" />
    <glyph glyph-name="fi" unicode="fi" horiz-adv-x="537" 
d="M266 733q94 0 148 -26q29 -15 24 -44q0 -4 -1.5 -10t-3 -15t-2.5 -16t-3.5 -21t-3.5 -19q-2 -12 -10.5 -15t-26.5 0q-71 6 -78 6q-60 0 -60 -54v-22h227q30 0 30 -24v-449v-5.5t-1 -6t-3.5 -7t-7.5 -3.5t-13 -2h-133q-16 0 -21 6t-5 18v328h-74v-328v-5.5t-1 -6t-3.5 -7
t-7.5 -3.5t-13 -2h-132q-16 0 -21 5.5t-5 18.5v328h-28q-27 0 -27 25v96q0 13 6 18.5t21 5.5h29v54q0 182 200 182z" />
    <glyph glyph-name="fl" unicode="fl" horiz-adv-x="562" 
d="M294 352h-48v-328v-5.5t-1 -6t-3.5 -7t-7.5 -3.5t-13 -2h-132q-16 0 -21 5.5t-5 18.5v328h-29q-15 0 -19.5 5t-4.5 20v96q0 13 5 18.5t19 5.5h30v54q0 182 200 182q44 0 93 -7q53 -6 78 -18l3 1q3 1 9.5 3t13.5 4l37 11q33 7 33 -17v-686v-5.5t-1 -6t-3.5 -7t-7.5 -3.5
t-13 -2h-133q-16 0 -21 6t-5 18v548h-5q-3 1 -35 1q-60 0 -60 -54v-22h47q15 0 19 -4.5t4 -19.5v-96q0 -11 -1 -15t-6 -7t-16 -3z" />
    <glyph glyph-name="ffi" unicode="ffi" horiz-adv-x="792" 
d="M515 743q102 0 152 -26q30 -15 25 -44l-14 -81q-2 -14 -10 -16.5t-28 1.5q-43 6 -98 6q-37 0 -37 -54v-32h232q12 -2 18 -6t6.5 -7t-0.5 -11v-449v-3q0 -6 -1 -9.5t-6.5 -7.5t-16.5 -4h-133q-16 0 -21 6t-5 18l-1 328h-74v-328v-3q0 -6 -1 -9.5t-6.5 -7.5t-16.5 -4h-130
q-16 0 -21 6t-5 18v328h-75v-328v-3q0 -6 -1 -9.5t-6.5 -7.5t-16.5 -4h-132q-16 0 -21.5 5.5t-5.5 18.5l1 328h-30q-16 0 -21 5t-5 20v96q0 13 5.5 18.5t20.5 5.5h30v43q0 87 48.5 134.5t143.5 47.5q73 0 122 -20q44 41 135 41zM286 563q-37 0 -37 -55v-11h74v63
q-13 3 -37 3z" />
    <glyph glyph-name="ffl" unicode="ffl" horiz-adv-x="816" 
d="M550 352h-48v-328q0 -24 -30 -24h-121q-31 0 -31 24v328h-72v-328q0 -24 -30 -24h-122q-31 0 -31 24q0 178 1 328h-25q-31 0 -31 25v96q0 24 31 24h25v43q0 87 48.5 134.5t143.5 47.5q60 0 117 -26q48 39 145 39q44 0 93 -7q54 -6 78 -19l62 21q16 5 24.5 1t8.5 -14v-693
q0 -24 -30 -24h-122q-31 0 -31 24l-1 550q-29 3 -46 2q-53 -5 -53 -55v-24h47q15 0 19 -4.5t4 -19.5v-96q0 -11 -1 -15t-6 -7t-16 -3zM286 562q-37 0 -37 -54v-11h71v63q-16 2 -34 2z" />
    <glyph glyph-name="ft" unicode="ft" horiz-adv-x="664" 
d="M332 352h-77v-328q0 -5 -0.5 -7.5t-2.5 -7t-8 -7t-16 -2.5h-130q-17 0 -22.5 5.5t-5.5 18.5l1 328h-32q-15 0 -19.5 5t-4.5 20v96q0 13 5.5 18.5t20.5 5.5h30v63q0 88 42 135t125 47q39 0 97 -13q13 -3 19.5 -10t6.5 -13.5t-1.5 -16.5t-1.5 -12l-14 -81q-1 -5 -2.5 -8
t-3 -5t-5 -2t-6 -0.5t-9.5 0t-13 0.5q-28 1 -38 -9t-11 -44v-31h78v45q0 24 28 37l113 60q39 12 39 -21v-121h81q6 0 10 -0.5t7 -2t4.5 -2.5t2 -4t0.5 -4.5v-6v-5.5v-93v-3q0 -10 -1 -14t-6.5 -7t-18.5 -3h-81v-118q0 -45 9 -61t34 -16q14 0 57 4q23 2 28.5 -0.5t7.5 -17.5
l11 -88q3 -25 -26 -37q-60 -26 -150 -26q-79 0 -115 39.5t-36 119.5v201z" />
    <glyph glyph-name=".notdef" horiz-adv-x="418" 
d="M419 0h-418v700h418v-700zM210 245l-72 -150h145zM136 605l74 -148l73 148h-147zM157 351l-55 117v-235zM319 466l-56 -117l56 -114v231z" />
    <glyph glyph-name=".null" horiz-adv-x="0" 
 />
    <glyph glyph-name="nonmarkingreturn" horiz-adv-x="333" 
 />
    <glyph glyph-name="space" unicode=" " horiz-adv-x="265" 
 />
    <glyph glyph-name="exclam" unicode="!" horiz-adv-x="282" 
d="M228 641l-12 -413q-1 -22 -28 -22h-91q-27 0 -27 22l-13 413q-1 13 5 17.5t22 4.5h116q16 0 22 -4.5t6 -17.5zM230 75q0 -41 -20 -63t-69 -22q-50 0 -69.5 21.5t-19.5 63.5q0 85 89 85q49 0 69 -21t20 -64z" />
    <glyph glyph-name="quotedbl" unicode="&#x22;" horiz-adv-x="369" 
d="M335 644l-10 -226q-2 -17 -19 -17h-82q-17 0 -17 17l-10 226q-1 8 4.5 13.5t14.5 5.5h101q18 0 18 -19zM173 644l-11 -226q0 -17 -18 -17h-83q-16 0 -16 17l-11 226q0 19 20 19h101q18 0 18 -19z" />
    <glyph glyph-name="numbersign" unicode="#" 
d="M232 22l38 172h-46l-38 -172q0 -1 -1 -3q-3 -8 -4.5 -11t-5.5 -5.5t-11 -2.5h-93q-27 0 -21 22l38 172h-48q-22 0 -22 22v77q0 21 29 21h68l12 56h-52q-24 0 -24 22v76q0 21 29 21h74l34 152q3 14 7 18t15 4h98q23 0 16 -22l-34 -152h46l34 152q4 15 7.5 18.5t14.5 3.5
h98q23 0 16 -22l-34 -152h53q13 0 17.5 -4.5t4.5 -16.5v-76q0 -22 -23 -22h-79l-12 -56h60q13 0 17 -4t4 -17v-77q0 -22 -24 -22h-84l-38 -172q0 -1 -1 -3q-3 -8 -4.5 -11t-5.5 -5.5t-11 -2.5h-93q-27 0 -21 22zM309 370h-46l-12 -56h46z" />
    <glyph glyph-name="dollar" unicode="$" 
d="M524 193q-6 -177 -210 -196v-99q0 -4 -0.5 -6.5t-2 -5.5t-5.5 -4.5t-11 -1.5h-24q-13 0 -16 3t-3 15v98q-106 6 -178 38q-21 11 -25.5 20t-1.5 26l16 71q5 20 11 23t25 -3q84 -17 153 -21v105q-80 27 -136 69q-66 49 -64 139q2 89 56 139.5t147 54.5v93q0 10 4 14t16 4
h24q12 0 15.5 -4.5t3.5 -13.5v-95q94 -8 153 -34q20 -9 25 -19t2 -26l-19 -71q-3 -17 -9.5 -21t-19.5 -1q-88 13 -132 18v-96q83 -25 138 -64q70 -48 68 -148zM364 190q0 30 -50 47v-88q50 6 50 41zM212 463q-1 -14 9.5 -23.5t33.5 -18.5v81q-43 -4 -43 -39z" />
    <glyph glyph-name="percent" unicode="%" horiz-adv-x="975" 
d="M764 -6q-183 0 -183 232q0 54 16 101q34 115 167 119q187 0 187 -220q0 -61 -17 -114q-38 -118 -170 -118zM764 321q-30 0 -30 -101t30 -101q34 0 34 101q0 55 -7 78t-27 23zM201 229q-183 0 -183 232q0 54 16 101q34 115 167 119q187 0 187 -220q0 -61 -17 -114
q-38 -118 -170 -118zM201 556q-30 0 -30 -101t30 -101q34 0 34 101q0 55 -7 78t-27 23zM670 685l-240 -696q-4 -12 -21 -12h-99q-10 0 -15 4t-3 11l236 685q6 15 10.5 19t16.5 4h99q8 0 13 -4.5t3 -10.5z" />
    <glyph glyph-name="ampersand" unicode="&#x26;" horiz-adv-x="672" 
d="M642 22l-40 -71q-10 -16 -18.5 -18t-36.5 9q-42 22 -122 89q-71 -43 -188 -43q-99 0 -156.5 50.5t-57.5 146.5q0 124 121 215q-32 53 -32 104q0 77 46 125t128 48q78 0 125 -47t47 -115q0 -49 -31 -95q-30 -45 -78 -68q34 -54 79 -101q46 84 56 166q2 17 7 20t32 3h74
q29 0 36.5 -7t6.5 -35q-1 -62 -30 -139q-27 -73 -65 -125q35 -33 90 -72q23 -17 7 -40zM250 126q34 0 66 18q-72 84 -95 122q-25 -29 -25 -67q0 -33 15 -53t39 -20zM309 527q0 34 -22 34q-20 0 -20 -50q0 -23 12 -50q30 27 30 66z" />
    <glyph glyph-name="quotesingle" unicode="'" horiz-adv-x="208" 
d="M174 644l-11 -226q0 -17 -18 -17h-83q-16 0 -16 17l-11 226q0 19 20 19h101q18 0 18 -19z" />
    <glyph glyph-name="parenleft" unicode="(" horiz-adv-x="316" 
d="M213 302q0 -175 72 -322q9 -21 7.5 -29.5t-16.5 -17.5l-66 -44q-18 -15 -29 -12.5t-25 23.5q-126 201 -126 402q0 100 33.5 205.5t91.5 196.5q14 21 25.5 23.5t29.5 -12.5l66 -44q15 -9 16.5 -17.5t-7.5 -29.5q-72 -142 -72 -322z" />
    <glyph glyph-name="parenright" unicode=")" horiz-adv-x="316" 
d="M107 302q0 180 -72 322q-9 21 -7.5 29.5t16.5 17.5l66 44q18 15 29.5 12.5t25.5 -23.5q58 -91 91.5 -196.5t33.5 -205.5q0 -201 -126 -402q-14 -21 -25 -23.5t-29 12.5l-66 44q-15 9 -16.5 17.5t7.5 29.5q72 147 72 322z" />
    <glyph glyph-name="asterisk" unicode="*" horiz-adv-x="414" 
d="M390 385l-18 -35q-9 -14 -17.5 -16t-23.5 6l-61 28l-6 -62q-2 -20 -6.5 -24t-22.5 -4h-52q-17 0 -21 4.5t-6 23.5l-7 62l-56 -25q-26 -14 -37 5l-27 44q-10 16 13 36l48 43l-48 33q-15 12 -17 18.5t6 25.5l18 40q9 16 18.5 17.5t24.5 -8.5l59 -24l4 65q2 18 7.5 23
t24.5 5h44q33 0 34 -30l4 -65l64 30q14 8 20 7.5t14 -16.5l22 -38q14 -23 -1 -33l-61 -48l56 -46q15 -12 15.5 -19.5t-8.5 -22.5z" />
    <glyph glyph-name="plus" unicode="+" horiz-adv-x="536" 
d="M349 527v-136h114q14 0 18.5 -5t4.5 -18v-87q0 -15 -4.5 -20t-18.5 -5h-114v-145q0 -14 -5 -18.5t-18 -4.5h-112q-15 0 -20 4.5t-5 18.5v145h-115q-24 0 -24 25v86q0 24 24 24h115v136q0 24 25 24h111q24 0 24 -24z" />
    <glyph glyph-name="comma" unicode="," horiz-adv-x="224" 
d="M203 34q0 -64 -33 -126q-32 -60 -77 -91q-18 -11 -27.5 -9.5t-21.5 14.5l-31 37q-12 16 -11.5 22t15.5 27q27 34 27 76q0 34 -17 57q-18 23 -18 30q0 9 21 29l67 60q13 11 25 12t20 -5t18 -19q19 -22 31 -54.5t12 -59.5z" />
    <glyph glyph-name="hyphen" unicode="-" horiz-adv-x="374" 
d="M41 391h301q14 0 18.5 -5t4.5 -18v-98q0 -15 -4.5 -20t-18.5 -5h-301q-24 0 -24 25v97q0 24 24 24z" />
    <glyph glyph-name="period" unicode="." horiz-adv-x="219" 
d="M202 79q0 -43 -21 -66t-71 -23q-51 0 -72 23t-21 66q0 88 93 88q50 0 71 -21.5t21 -66.5z" />
    <glyph glyph-name="slash" unicode="/" horiz-adv-x="313" 
d="M313 665l-147 -708q-4 -19 -30 -19h-107q-15 0 -21.5 6.5t-4.5 18.5l148 712q6 18 30 18h105q27 0 27 -28z" />
    <glyph glyph-name="zero" unicode="0" 
d="M272 -9q-156 -5 -220 123q-18 34 -25 76q-12 80 -12 151q0 84 21 155q15 53 40 88q28 39 79.5 64t116.5 25q133 0 196 -75q27 -29 44 -80q25 -75 25 -177q0 -350 -265 -350zM272 510q-61 0 -61 -178q0 -179 61 -179q38 0 53.5 43t15.5 136q0 95 -15 136.5t-54 41.5z" />
    <glyph glyph-name="one" unicode="1" 
d="M464 0h-356q-28 0 -28 25v107q0 24 28 24h79v333h-62q-22 0 -30 4t-8 18v60q0 26 27 41l74 40q23 13 71 13h83q36 0 36 -25v-484h86q18 0 23 -4.5t5 -18.5v-108q0 -15 -5 -20t-23 -5z" />
    <glyph glyph-name="two" unicode="2" 
d="M301 164l4 -7h169q18 0 24 -5.5t6 -18.5v-108q0 -15 -6 -20t-24 -5h-410q-33 0 -33 25v82q0 25 18 45l211 226q36 38 36 84t-51 46q-33 0 -151 -11q-26 -3 -37 1.5t-12 24.5l-8 68q-4 32 37 52q37 15 88 22q59 8 90 8q243 0 243 -199q0 -60 -22 -103q-21 -43 -71 -101
q-5 -7 -101 -106z" />
    <glyph glyph-name="three" unicode="3" 
d="M515 250q0 -145 -68 -202q-67 -57 -198 -57q-30 0 -86 8q-52 7 -85 21q-49 22 -43 55q1 18 11 67q3 21 12.5 26t38.5 1q79 -13 138 -13q48 0 66.5 15t18.5 64q0 35 -26 41l-120 26q-24 5 -32 13.5t-8 28.5v41q0 29 15 44l89 76l-2 4h-159q-28 0 -28 24v107q0 25 28 25
h384q18 0 23.5 -5t5.5 -20v-80q0 -28 -22 -49l-84 -82v-4l34 -10q97 -28 97 -165z" />
    <glyph glyph-name="four" unicode="4" 
d="M283 287v128l-4 1l-82 -125l1 -4h85zM516 135l-47 1v-112v-2q0 -7 -1 -10.5t-7 -7.5t-18 -4h-134q-29 0 -29 24v112q-62 0 -113 -1h-113q-40 0 -40 29v94q0 18 12 34l237 351q14 20 50 20h127q29 0 29 -24v-347h47q15 0 19.5 -5t4.5 -18v-109q0 -14 -5 -19.5t-19 -5.5z
" />
    <glyph glyph-name="five" unicode="5" 
d="M320 236q0 35 -26 40l-192 39q-31 6 -41 21.5t-6 44.5l34 238q3 25 16.5 35.5t42.5 10.5h309q17 0 23 -5.5t6 -19.5v-107q0 -13 -6 -18.5t-23 -5.5h-198l-9 -59l127 -27q139 -30 139 -173t-68 -202q-68 -57 -199 -57q-30 0 -86 8q-52 7 -85 21q-49 22 -43 55q1 18 11 67
q3 21 12.5 26t38.5 1q79 -13 138 -13q48 0 66.5 15.5t18.5 64.5z" />
    <glyph glyph-name="six" unicode="6" 
d="M531 207q0 -58 -22.5 -101.5t-60.5 -67.5t-81.5 -35.5t-92.5 -11.5q-126 0 -186 60q-27 27 -40 71q-22 69 -22 190q0 43 3 79q11 104 40 158q69 123 220 123q110 0 173 -28q26 -11 33 -21t5 -29l-12 -67q-4 -20 -13.5 -26t-31.5 -4q-88 11 -145 11q-36 0 -52 -17.5
t-21 -60.5q55 5 102 5q100 0 152 -57.5t52 -170.5zM339 206q0 74 -37 74q-36 0 -83 -6q-2 -73 10 -99t49 -26q61 0 61 57z" />
    <glyph glyph-name="seven" unicode="7" 
d="M497 512l-229 -516q-9 -19 -17.5 -21.5t-35.5 6.5l-102 40q-33 13 -15 41l192 447h-227q-17 0 -23.5 5.5t-6.5 18.5v107q0 25 30 25h418q20 0 26 -5t6 -20l-1 -73q0 -21 -15 -55z" />
    <glyph glyph-name="eight" unicode="8" 
d="M272 -9q-120 0 -186 51.5t-66 156.5q0 94 83 153h1q-33 18 -51 50.5t-18 67.5q0 98 64 151t175 53q110 0 173.5 -50.5t63.5 -149.5q0 -30 -19 -65q-18 -35 -51 -55q41 -24 63.5 -65.5t22.5 -87.5q0 -98 -71 -154t-184 -56zM334 216q0 57 -64 73q-25 -6 -41.5 -25.5
t-16.5 -47.5t16 -45t44 -17q29 0 45.5 18t16.5 44zM274 515q-21 0 -32.5 -13.5t-11.5 -35.5q0 -38 46 -50q20 4 30.5 18.5t10.5 31.5q0 23 -12 36t-31 13z" />
    <glyph glyph-name="nine" unicode="9" 
d="M24 456q0 58 22.5 101.5t60.5 67.5t81.5 35.5t92.5 11.5q126 0 186 -60q27 -27 40 -71q22 -69 22 -190q0 -47 -4 -80q-8 -101 -40 -158q-65 -122 -219 -122q-115 0 -178 28q-26 11 -33 21t-5 29l12 67q4 20 13.5 26t31.5 4q88 -11 150 -11q36 0 52 17.5t21 60.5
q-55 -5 -102 -5q-100 0 -152 57.5t-52 170.5zM216 457q0 -74 37 -74t83 6q2 73 -10 99t-49 26q-61 0 -61 -57z" />
    <glyph glyph-name="colon" unicode=":" horiz-adv-x="219" 
d="M202 79q0 -43 -21 -66t-71 -23q-51 0 -72 23t-21 66q0 88 93 88q50 0 71 -21.5t21 -66.5zM202 372q0 -43 -21 -66t-71 -23q-51 0 -72 23t-21 66q0 88 93 88q50 0 71 -21.5t21 -66.5z" />
    <glyph glyph-name="semicolon" unicode=";" horiz-adv-x="219" 
d="M203 34q0 -64 -33 -126q-32 -60 -77 -91q-18 -11 -27.5 -9.5t-21.5 14.5l-31 37q-12 16 -11.5 22t15.5 27q27 34 27 76q0 34 -17 57q-18 23 -18 30q0 9 21 29l67 60q13 11 25 12t20 -5t18 -19q19 -22 31 -54.5t12 -59.5zM203 372q0 -43 -21 -66t-71 -23q-51 0 -72 23
t-21 66q0 88 93 88q50 0 71 -21.5t21 -66.5z" />
    <glyph glyph-name="semicolon" unicode="&#x37e;" horiz-adv-x="219" 
d="M203 34q0 -64 -33 -126q-32 -60 -77 -91q-18 -11 -27.5 -9.5t-21.5 14.5l-31 37q-12 16 -11.5 22t15.5 27q27 34 27 76q0 34 -17 57q-18 23 -18 30q0 9 21 29l67 60q13 11 25 12t20 -5t18 -19q19 -22 31 -54.5t12 -59.5zM203 372q0 -43 -21 -66t-71 -23q-51 0 -72 23
t-21 66q0 88 93 88q50 0 71 -21.5t21 -66.5z" />
    <glyph glyph-name="less" unicode="&#x3c;" horiz-adv-x="536" 
d="M252 330v-5l207 -118q20 -11 20 -25v-123q0 -12 -10 -14.5t-21 4.5l-368 208q-20 11 -20 26v88q0 15 18 25l370 211q30 12 30 -12v-118q0 -16 -19 -26z" />
    <glyph glyph-name="equal" unicode="=" horiz-adv-x="536" 
d="M73 488h391q14 0 18.5 -5t4.5 -18v-88q0 -15 -4.5 -20t-18.5 -5h-391q-24 0 -24 25v87q0 24 24 24zM73 293h391q14 0 18.5 -5t4.5 -18v-88q0 -15 -4.5 -20t-18.5 -5h-391q-24 0 -24 25v87q0 24 24 24z" />
    <glyph glyph-name="greater" unicode="&#x3e;" horiz-adv-x="536" 
d="M80 207l207 118v5l-207 121q-19 10 -19 26v118q0 24 30 12l370 -211q18 -11 18 -25v-88q0 -15 -20 -26l-368 -208q-11 -7 -21 -4.5t-10 14.5v123q0 14 20 25z" />
    <glyph glyph-name="question" unicode="?" horiz-adv-x="413" 
d="M388 505q0 -33 -15 -63q-10 -19 -20 -33t-17.5 -20.5t-27.5 -24.5q-32 -28 -45 -53.5t-13 -64.5v-29q0 -25 -25 -25h-111q-16 0 -22.5 4.5t-8.5 18.5q-1 12 -1 42q0 71 20 109q21 39 72 88q19 16 19 39q0 30 -46 30q-42 0 -78 -6q-26 -4 -32.5 -1t-7.5 20l-6 72
q-1 18 2.5 23.5t21.5 14.5q54 26 130 26q102 0 156.5 -43t54.5 -124zM254 75q0 -85 -89 -85q-50 0 -69.5 21.5t-19.5 63.5q0 85 89 85q49 0 69 -21t20 -64z" />
    <glyph glyph-name="at" unicode="@" horiz-adv-x="824" 
d="M424 741q88 0 157 -28.5t110 -77.5t62 -109t21 -128q0 -126 -54 -189t-134 -63q-40 0 -72 16.5t-45 43.5q-15 -19 -46 -31.5t-59 -12.5q-65 0 -92.5 29.5t-27.5 98.5q0 139 158 139h39v6q0 29 -40 29q-12 0 -78 -9q-22 -4 -30 -0.5t-10 20.5l-6 38q-5 29 33 42
q54 20 107 20q93 0 121 -37q30 -36 30 -120v-127q0 -31 25 -31q22 0 37.5 33t15.5 91q0 108 -56 176t-160 68q-119 0 -188 -74q-68 -74 -68 -192q0 -116 59 -190q58 -73 172 -73q47 0 99 12q32 6 39 3.5t12 -21.5l13 -48q7 -25 -26 -42q-50 -25 -139 -25q-178 0 -267 104
q-88 103 -88 278q0 166 105 273q105 108 271 108zM370 291q0 -26 19 -26q28 0 51 23v49h-32q-38 0 -38 -46z" />
    <glyph glyph-name="A" unicode="A" horiz-adv-x="600" 
d="M367 137h-129l-25 -104q-5 -19 -14 -26t-30 -7h-125q-38 0 -28 34l162 597q5 16 7.5 20.5t12.5 9t32 5.5h145q22 0 32.5 -8t16.5 -28l169 -595q9 -35 -21 -35h-137q-24 0 -32 7.5t-13 31.5zM306 470h-4l-13 -83l-17 -104h60l-15 104q-10 76 -11 83z" />
    <glyph glyph-name="B" unicode="B" horiz-adv-x="576" 
d="M541 204q0 -96 -56 -150q-55 -54 -142 -54h-270q-17 0 -23 5.5t-6 18.5v617q0 13 6 18.5t23 5.5h253q200 0 200 -181q0 -94 -81 -129l-1 -5q30 -11 50.5 -30.5t30 -41.5t13 -39.5t3.5 -34.5zM340 213q0 54 -43 54h-56v-106h56q43 0 43 52zM326 461q0 43 -30 43h-55v-83
h55q30 0 30 40z" />
    <glyph glyph-name="C" unicode="C" horiz-adv-x="539" 
d="M35 332q0 108 31 187q62 154 248 154q106 0 173 -34q41 -23 36 -54l-13 -71q-4 -18 -14 -22.5t-37 -1.5q-90 9 -126 9q-90 0 -90 -163q0 -94 18 -135q19 -39 71 -39t130 9q27 2 36 -2.5t14 -21.5l15 -65q8 -32 -35 -56q-70 -36 -177 -36q-280 0 -280 342z" />
    <glyph glyph-name="D" unicode="D" horiz-adv-x="592" 
d="M278 0h-205q-17 0 -23 5.5t-6 18.5v617q0 13 6 18.5t23 5.5h205q279 0 279 -331q0 -334 -279 -334zM354 327q0 90 -20.5 133.5t-69.5 43.5h-25v-343h19q96 0 96 166z" />
    <glyph glyph-name="E" unicode="E" horiz-adv-x="506" 
d="M44 24v617q0 13 5.5 18.5t22.5 5.5h371q27 0 27 -24v-115v-2q0 -8 -0.5 -11t-6 -6t-17.5 -3h-206v-80h182q25 0 25 -20v-115v-4q0 -7 -1 -10.5t-7 -7t-17 -3.5h-182v-103h219q24 0 24 -22v-115q0 -8 -0.5 -12t-7 -8t-19.5 -4h-384q-17 0 -22.5 5.5t-5.5 18.5z" />
    <glyph glyph-name="F" unicode="F" horiz-adv-x="475" 
d="M43 24l-1 617q0 13 6.5 18.5t24.5 5.5h367q28 0 28 -24v-113q0 -8 -1 -12t-7.5 -8t-19.5 -4h-201v-80h171q25 0 25 -24v-113q0 -8 -1 -12t-7.5 -8t-19.5 -4h-168v-239q0 -24 -33 -24h-129q-34 0 -34 24z" />
    <glyph glyph-name="G" unicode="G" horiz-adv-x="578" 
d="M243 336q0 -95 17 -135.5t65 -40.5q25 0 29 3v87h-34q-26 0 -26 22v99q0 12 5 18t21 6h192q31 0 31 -24q0 -167 -1 -283q-1 -45 -36 -62q-80 -36 -201 -36q-126 0 -193 70q-29 32 -47 78q-30 79 -30 194q0 108 31 187q62 154 248 154q110 0 177 -34q43 -25 36 -54
l-18 -73q-4 -18 -15 -23t-36 1q-70 10 -121 10q-94 0 -94 -164z" />
    <glyph glyph-name="H" unicode="H" horiz-adv-x="584" 
d="M240 423h104v218q0 8 1.5 12.5t8.5 8t20 3.5h137q14 0 21 -5t7.5 -8t0.5 -11v-617v-1q0 -7 -1 -10.5t-8 -8t-20 -4.5h-137q-18 0 -24 5.5t-6 18.5v237h-104v-237v-1q0 -7 -1 -10.5t-8 -8t-20 -4.5h-138q-17 0 -23 5.5t-6 18.5v617q0 13 6 18.5t23 5.5h138q14 0 21 -5
t7.5 -8t0.5 -11v-218z" />
    <glyph glyph-name="I" unicode="I" horiz-adv-x="284" 
d="M44 24v617q0 13 6 18.5t23 5.5h138q14 0 21 -5t7.5 -8t0.5 -11v-617v-1q0 -7 -1 -10.5t-8 -8t-20 -4.5h-138q-17 0 -23 5.5t-6 18.5z" />
    <glyph glyph-name="J" unicode="J" horiz-adv-x="433" 
d="M189 227l-1 414q0 24 30 24h138q14 0 21 -5t7.5 -8t0.5 -11q0 -341 -1 -456q-2 -93 -56.5 -143.5t-158.5 -50.5q-73 0 -127 20q-33 12 -40.5 21t-3.5 32l16 82q5 20 11.5 23t30.5 -1q41 -7 81 -7q31 0 41.5 15.5t10.5 50.5z" />
    <glyph glyph-name="K" unicode="K" horiz-adv-x="565" 
d="M233 641v-169h6q20 43 42 77l57 93q14 23 59 23h140q44 0 20 -33l-177 -247l187 -348q16 -37 -19 -37h-143q-43 0 -59 31l-89 185l-26 -37l1 -155v-1q0 -7 -1 -10.5t-8 -8t-20 -4.5h-135q-31 0 -31 24v617q0 24 31 24h136q14 0 21 -5t7.5 -8t0.5 -11z" />
    <glyph glyph-name="L" unicode="L" horiz-adv-x="488" 
d="M240 641v-480h214q24 0 24 -17v-122q0 -12 -6 -17t-23 -5h-376q-17 0 -23 5.5t-6 18.5v617q0 13 6 18.5t23 5.5h138q17 0 23 -5.5t6 -18.5z" />
    <glyph glyph-name="M" unicode="M" horiz-adv-x="695" 
d="M460 24l-1 198l-4 1l-18 -47l-12 -32q-10 -31 -43 -31h-64q-33 0 -45 30l-13 33l-21 53l-4 -2v-203q0 -24 -33 -24h-125q-33 0 -33 24v617q0 24 31 24h103q29 0 39 -5t17 -22l50 -120l36 -87l25 -62h7q12 31 64 149l51 119q7 16 18 22t37 6h100q14 0 21 -5t8 -9t1 -10
v-617q0 -6 -1 -10t-8 -9t-21 -5h-131q-31 0 -31 24z" />
    <glyph glyph-name="N" unicode="N" horiz-adv-x="599" 
d="M361 376l3 1v264v1q0 23 29 23h132q18 0 24 -5.5t6 -18.5v-614q0 -9 -1 -13.5t-7.5 -9t-19.5 -4.5h-98q-36 0 -52 28l-85 147q-7 11 -54 101l-3 -1v-251v-1q0 -7 -1 -10.5t-8 -8t-20 -4.5h-133q-17 0 -23 5.5t-6 18.5v617q0 13 6 18.5t23 5.5h97q19 0 28 -4q9 -3 11.5 -5
t7.5 -11q1 -3 2 -4l95 -172q40 -71 47 -93z" />
    <glyph glyph-name="O" unicode="O" horiz-adv-x="619" 
d="M307 -9q-163 -4 -229 119q-19 30 -28 75q-15 74 -15 156q0 46 4 79q14 103 67 170q29 37 82 60t119 23q132 0 200 -71q57 -58 72 -166q13 -93 1 -189q-14 -114 -68 -176q-69 -80 -205 -80zM382 330q0 97 -16 136t-57 39q-37 0 -52 -40t-15 -135q0 -93 15 -132t52 -39
q39 0 56 40t17 131z" />
    <glyph glyph-name="P" unicode="P" horiz-adv-x="513" 
d="M295 233h-55v-209v-1q0 -7 -1 -10.5t-8 -8t-20 -4.5h-138q-17 0 -23 5.5t-6 18.5v617q0 13 6 18.5t23 5.5h222q95 0 156 -55q62 -56 62 -158q0 -82 -41 -144q-22 -35 -68.5 -55t-108.5 -20zM312 447q0 57 -43 57h-29v-115h29q43 0 43 58z" />
    <glyph glyph-name="Q" unicode="Q" horiz-adv-x="622" 
d="M585 341q0 -175 -69 -263l72 -27q20 -7 25 -16t-2 -24l-38 -107q-13 -39 -60 -15l-199 102h-7q-163 -4 -229 119q-19 30 -28 75q-15 74 -15 156q0 93 26 165q17 50 45 84q29 37 82 60t119 23q132 0 200 -71q31 -32 48 -77q30 -76 30 -184zM382 330q0 97 -16 136t-57 39
q-37 0 -52 -40t-15 -135q0 -93 15 -132t52 -39q39 0 56 40t17 131z" />
    <glyph glyph-name="R" unicode="R" 
d="M436 277l101 -248q5 -13 -2 -21t-23 -8h-137q-44 0 -53 26l-68 215h-14v-217v-1q0 -7 -1 -10.5t-8 -8t-20 -4.5h-138q-17 0 -23 5.5t-6 18.5v617q0 13 6 18.5t23 5.5h235q86 0 149 -54q64 -52 64 -155q0 -122 -85 -179zM319 452q0 52 -38 52h-41v-107h39q40 0 40 55z" />
    <glyph glyph-name="S" unicode="S" horiz-adv-x="528" 
d="M243 -9q-111 0 -184 32q-21 9 -30 17t-9 16t1 19l13 72q4 24 15 28.5t41 -2.5q96 -14 155 -14q27 0 38.5 10t11.5 33q-4 21 -13.5 29t-38.5 17q-91 27 -145 63q-72 48 -72 151q0 99 63 154.5t171 55.5t174 -30q29 -13 35 -23.5t3 -28.5l-15 -73q-4 -21 -15 -26.5t-36 0.5
q-68 13 -127 13q-47 0 -47 -38q0 -20 8.5 -27.5t37.5 -16.5q21 -5 45 -13l43 -15q31 -11 42 -20q48 -29 65 -61q25 -48 25 -107t-21.5 -102.5t-59 -67t-80.5 -34.5t-94 -11z" />
    <glyph glyph-name="T" unicode="T" horiz-adv-x="487" 
d="M479 639v-111q0 -24 -32 -24h-105v-480v-1q0 -23 -29 -23h-137q-18 0 -24 5.5t-6 18.5v480h-105q-20 0 -26 5.5t-6 18.5v111q0 9 1.5 13.5t8.5 8.5t22 4h406q15 0 23.5 -7.5t8.5 -18.5z" />
    <glyph glyph-name="U" unicode="U" horiz-adv-x="590" 
d="M294 158q57 0 57 91l-1 392q0 8 1.5 12.5t8.5 8t20 3.5h136q14 0 21 -5t7.5 -8t0.5 -11v-390q0 -75 -18 -125q-25 -69 -86.5 -102.5t-146.5 -33.5q-132 0 -192 74q-58 73 -58 187v390q0 24 30 24h137q14 0 21 -5t7.5 -8t0.5 -11v-392q0 -91 54 -91z" />
    <glyph glyph-name="V" unicode="V" horiz-adv-x="606" 
d="M305 248h6l10 60q17 94 22 115l46 204q4 21 14 30t34 9h138q20 0 26.5 -9.5t-1.5 -19.5l-181 -601q-6 -19 -17 -27.5t-35 -8.5h-125q-19 0 -31 6q-3 2 -5 3.5t-3.5 2.5t-3 2.5t-2 2.5t-1.5 3.5t-1 4t-1 5t-2 5.5l-179 601q-4 16 2.5 23t28.5 7h127q25 0 35.5 -7t15.5 -26
l49 -212q4 -16 16 -83q11 -58 18 -90z" />
    <glyph glyph-name="W" unicode="W" horiz-adv-x="805" 
d="M438 93l-21 93h-5l-23 -88l-16 -62q-7 -36 -53 -36h-106q-46 0 -54 35l-144 598q-8 33 20 33h142q21 0 31 -7.5t14 -25.5l36 -185q5 -22 13 -79q10 -66 11 -72h6l19 91l18 81l-44 168q-3 12 0.5 20.5t14.5 8.5h130q22 0 32.5 -7.5t14.5 -25.5l35 -161q13 -58 29 -168h6
q9 92 25 176l28 153q4 19 14 26t32 7h136q28 0 22 -30l-136 -601q-8 -35 -54 -35h-110q-40 0 -49 36z" />
    <glyph glyph-name="X" unicode="X" horiz-adv-x="539" 
d="M530 635l-152 -290l155 -313q8 -9 1.5 -20.5t-26.5 -11.5h-136q-37 0 -47 25l-53 152l-50 -149q-6 -16 -16.5 -22t-32.5 -6h-139q-19 0 -25 10t2 24l154 311l-144 287q-7 13 0 23t25 10h134q24 0 31.5 -4t14.5 -21l46 -136l45 134q6 15 15 21t29 6h144q20 0 26.5 -10.5
t-1.5 -19.5z" />
    <glyph glyph-name="Y" unicode="Y" horiz-adv-x="612" 
d="M307 399h8q19 61 41 117l44 114q9 22 18.5 29t34.5 7h132q15 0 22 -7.5t2 -17.5l-206 -421h1v-196v-1q0 -7 -1 -10.5t-8 -8t-20 -4.5h-138q-17 0 -23 5.5t-6 18.5v196h1l-194 416q-6 13 0.5 21.5t23.5 8.5h130q24 0 33.5 -5.5t17.5 -23.5l47 -121q24 -65 40 -117z" />
    <glyph glyph-name="Z" unicode="Z" horiz-adv-x="504" 
d="M460 496l-223 -335h211q19 0 24.5 -5t5.5 -17v-115q0 -9 -1.5 -13t-8 -7.5t-20.5 -3.5h-392q-30 0 -30 24v101q0 23 15 45l222 334h-190q-14 0 -20.5 3.5t-7.5 7t-1 11.5v115q0 9 1 13t7.5 7.5t20.5 3.5h374q30 0 30 -24v-87q0 -29 -17 -58z" />
    <glyph glyph-name="bracketleft" unicode="[" horiz-adv-x="272" 
d="M230 548h-36v-495h37q24 0 24 -24v-100q0 -22 -24 -22h-186q-24 0 -24 24v740q0 24 24 24h185q10 0 17 -6.5t7 -17.5v-101q0 -22 -24 -22z" />
    <glyph glyph-name="backslash" unicode="\" horiz-adv-x="308" 
d="M146 -43l-146 708q-1 28 26 28h106q26 0 30 -18l147 -712q2 -12 -4.5 -18.5t-21.5 -6.5h-107q-26 0 -30 19z" />
    <glyph glyph-name="bracketright" unicode="]" horiz-adv-x="272" 
d="M45 53h37v495h-36q-24 0 -24 22v101q0 11 7 17.5t17 6.5h185q24 0 24 -24v-740q0 -24 -24 -24h-186q-24 0 -24 22v100q0 24 24 24z" />
    <glyph glyph-name="asciicircum" unicode="^" horiz-adv-x="536" 
d="M434 315l-155 196l-156 -196q-13 -14 -21.5 -14.5t-22.5 12.5l-40 36q-15 15 -3 34l158 261q9 13 17.5 17t31.5 4l87 -2q23 0 31 -3t14 -15l2 -1h-1l147 -261q12 -19 -3 -34l-42 -36q-14 -13 -23.5 -12.5t-20.5 14.5z" />
    <glyph glyph-name="underscore" unicode="_" horiz-adv-x="435" 
d="M-3 -31h443q14 0 18.5 -5t4.5 -18v-68q0 -15 -4.5 -20t-18.5 -5h-443q-24 0 -24 25v67q0 24 24 24z" />
    <glyph glyph-name="grave" unicode="`" horiz-adv-x="482" 
d="M147 737l77 67q21 18 35 -3l114 -174q11 -18 -3 -29l-54 -46q-14 -12 -31 5l-139 143q-20 20 1 37z" />
    <glyph glyph-name="a" unicode="a" horiz-adv-x="522" 
d="M279 149v46h-46q-24 0 -24 -41q0 -27 15 -27q27 0 55 22zM305 45l-3 1q-28 -27 -69 -40.5t-76 -13.5q-86 0 -113 50q-23 43 -23 101q-1 87 46 126.5t135 39.5h80v8q0 23 -11 32t-43 9t-109 -9q-28 -5 -38 -1.5t-14 21.5l-12 64q-5 28 41 47q66 26 157 26q134 0 174 -51
q37 -46 37 -144v-128q0 -32 4 -40t19 -10q18 -2 24 -6t6 -14v-82q0 -19 -37 -29q-30 -8 -67 -8q-85 0 -108 51z" />
    <glyph glyph-name="b" unicode="b" horiz-adv-x="496" 
d="M213 683v-182l1 -2q32 7 58 7q97 0 144 -47q58 -60 56 -204q0 -50 -5 -87.5t-19.5 -72t-38.5 -56.5t-63.5 -35t-94.5 -13q-124 0 -190 33q-34 18 -34 54v605q0 24 32 24h123q31 0 31 -24zM282 247q0 58 -9.5 79t-33.5 21q-13 0 -27 -6v-186q4 -3 22 -3q25 0 36.5 20.5
t11.5 74.5z" />
    <glyph glyph-name="c" unicode="c" horiz-adv-x="437" 
d="M408 140l11 -70q2 -13 1 -22t-9.5 -17t-27.5 -17q-58 -23 -138 -23q-107 0 -162 53q-24 26 -37 60q-22 62 -22 146q0 256 221 256q90 0 144 -26q33 -16 28 -45l-12 -77q-3 -18 -10 -21t-34 -1q-70 7 -88 7q-62 0 -62 -90q0 -56 13 -78t46 -22q31 0 97 8q25 4 31 1.5
t10 -22.5z" />
    <glyph glyph-name="d" unicode="d" horiz-adv-x="498" 
d="M283 502l2 3v178q0 24 32 24h121q31 0 31 -24v-658q0 -25 -27 -25h-133q-24 0 -24 23v9h-3q-50 -40 -101 -40q-97 0 -129 75q-28 65 -28 174q0 124 32 191q37 77 157 77q38 0 70 -7zM285 178v165q-17 6 -32 6q-24 0 -33 -20t-9 -79q0 -51 6.5 -69.5t22.5 -18.5
q22 0 45 16z" />
    <glyph glyph-name="e" unicode="e" horiz-adv-x="481" 
d="M398 207h-186q4 -36 21 -49t53 -13q35 0 92 9q29 5 36.5 1t10.5 -27l9 -59q2 -14 1 -23t-9 -16.5t-28 -16.5q-56 -22 -144 -22q-69 0 -116.5 19.5t-71 56.5t-33 78.5t-9.5 97.5q0 263 220 263q104 0 159 -51q24 -23 37 -54q22 -50 22 -126q0 -36 -14.5 -52t-49.5 -16z
M215 310h57q2 57 -28 57q-29 0 -29 -57z" />
    <glyph glyph-name="f" unicode="f" horiz-adv-x="400" 
d="M338 352h-83v-328q0 -5 -0.5 -7.5t-2.5 -7t-8 -7t-16 -2.5h-130q-17 0 -22.5 5.5t-5.5 18.5l1 328h-30q-15 0 -20.5 5t-5.5 20v96q0 24 28 24h28v43q0 87 49 134.5t144 47.5q84 0 138 -26q29 -15 24 -44l-14 -81q-2 -14 -10 -16.5t-29 1.5q-48 6 -81 6q-36 0 -36 -54v-11
h82q17 0 22 -4.5t5 -18.5v-97q0 -15 -5 -20t-22 -5z" />
    <glyph glyph-name="g" unicode="g" horiz-adv-x="496" 
d="M254 507q114 0 180 -32q34 -18 34 -54v-395q0 -94 -21 -144q-18 -51 -67 -74.5t-145 -26.5q-84 0 -141 24q-26 11 -34.5 21.5t-6.5 26.5l13 71q5 20 13.5 24t32.5 -3q63 -11 114 -11q34 0 46 14t12 50v13q-32 -7 -60 -7q-117 0 -162 70q-38 64 -38 174q0 116 44 183
q51 76 186 76zM214 257q0 -55 9.5 -74t33.5 -19q13 0 27 6v173q-5 3 -23 3q-25 0 -36 -18.5t-11 -70.5z" />
    <glyph glyph-name="h" unicode="h" horiz-adv-x="505" 
d="M215 683v-201l2 -2q54 26 104 26q81 0 120 -46q16 -19 25 -49q13 -43 13 -108v-279q0 -6 -1 -10t-7.5 -9t-19.5 -5h-129q-29 0 -29 24v264q0 29 -8.5 39.5t-24.5 10.5q-26 0 -46 -16v-298q0 -6 -1 -10t-7.5 -9t-19.5 -5h-129q-17 0 -23 5.5t-6 18.5v659q0 13 6 18.5
t23 5.5h130q13 0 19.5 -5t7.5 -9t1 -10z" />
    <glyph glyph-name="i" unicode="i" horiz-adv-x="263" 
d="M226 627q0 -89 -95 -89q-53 0 -73.5 23t-20.5 66q0 88 94 88q52 0 73.5 -21.5t21.5 -66.5zM222 473v-449q0 -24 -31 -24h-122q-32 0 -32 24v449q0 24 32 24h122q31 0 31 -24z" />
    <glyph glyph-name="j" unicode="j" horiz-adv-x="275" 
d="M237 473v-429q0 -159 -78 -214q-70 -50 -191 -46q-35 0 -36 25l-8 102q-2 14 2.5 19t23.5 10q60 14 79 29q14 11 18.5 25.5t4.5 44.5v434q0 24 32 24h122q31 0 31 -24zM240 627q0 -89 -94 -89q-54 0 -74.5 22.5t-20.5 66.5q0 88 95 88q52 0 73 -21.5t21 -66.5z" />
    <glyph glyph-name="k" unicode="k" horiz-adv-x="495" 
d="M213 683v-297l3 -1l26 42l29 44q9 15 21.5 20.5t38.5 5.5h132q15 0 18.5 -8.5t-5.5 -22.5l-126 -166l141 -268q17 -32 -20 -32h-129q-17 0 -28 4.5t-15 9t-9 14.5l-60 117l-17 -24v-97q0 -5 -0.5 -7.5t-2.5 -7t-8 -7t-16 -2.5h-129q-17 0 -23 5.5t-6 18.5v659
q0 13 6 18.5t23 5.5h129q13 0 19.5 -5t7 -8.5t0.5 -10.5z" />
    <glyph glyph-name="l" unicode="l" horiz-adv-x="286" 
d="M222 683v-507q0 -18 4.5 -23t19.5 -6q24 -2 28 -4.5t5 -15.5l4 -93q2 -14 -21 -25q-30 -14 -85 -14q-72 0 -106 35t-34 115v538q0 13 5.5 18.5t22.5 5.5h130q13 0 19.5 -5t7 -8.5t0.5 -10.5z" />
    <glyph glyph-name="m" unicode="m" horiz-adv-x="746" 
d="M214 473v-16l4 -1q50 50 111 50q83 0 113 -64q64 64 137 64q87 0 123 -69q9 -17 12 -44q6 -44 6 -91v-275v-3q0 -8 -0.5 -11.5t-6 -8t-17.5 -4.5h-135q-27 0 -27 24v265q0 45 -28 45q-19 0 -41 -13v-297v-3q0 -21 -25 -21h-131q-16 0 -21 6t-5 18v268q0 42 -30 42
q-17 0 -39 -14v-293v-3v-3v-3.5t-0.5 -3.5t-1.5 -3.5t-2 -3.5t-3 -2.5t-4.5 -2.5t-6 -1.5t-7.5 -0.5h-134q-17 0 -22 5.5t-5 18.5v449q0 13 5 18.5t22 5.5h132q13 0 19.5 -5t7 -8.5t0.5 -10.5z" />
    <glyph glyph-name="n" unicode="n" horiz-adv-x="507" 
d="M214 473v-14l4 -1q52 47 116 47q76 0 111 -46q16 -19 23 -49q11 -40 11 -108v-278q0 -5 -0.5 -7.5t-2.5 -7t-8 -7t-16 -2.5h-131q-28 0 -28 24v266q0 44 -33 44q-19 0 -46 -13v-297q0 -5 -0.5 -7.5t-2.5 -7t-8 -7t-16 -2.5h-130q-17 0 -23 5.5t-6 18.5v449q0 13 6 18.5
t23 5.5h134q23 0 23 -24z" />
    <glyph glyph-name="o" unicode="o" horiz-adv-x="497" 
d="M473 255q0 -83 -20 -138q-39 -121 -208 -125q-113 0 -167 61q-20 23 -35 64q-19 58 -19 138q0 72 21 125q42 123 200 126q228 0 228 -251zM285 249q0 56 -7.5 77t-30.5 21q-36 0 -36 -98q0 -54 7.5 -76.5t26.5 -22.5q23 0 31.5 23t8.5 76z" />
    <glyph glyph-name="p" unicode="p" horiz-adv-x="499" 
d="M217 -5l-3 -1v-175q0 -20 -15 -23q-3 -1 -11 -1h-133q-17 0 -22 5.5t-5 18.5v654q0 13 5 18.5t22 5.5h133q13 0 19 -5t6.5 -8t0.5 -11v-13l4 -2q47 47 99 47q97 0 130 -79q29 -70 29 -178q0 -128 -41 -195q-41 -65 -151 -65q-38 0 -67 7zM287 245q0 48 -7 67.5t-23 19.5
q-22 0 -44 -17v-161q13 -6 31 -6q25 0 34 19.5t9 77.5z" />
    <glyph glyph-name="q" unicode="q" horiz-adv-x="496" 
d="M282 -181v175l-4 3q-28 -6 -54 -6q-118 0 -162 72q-38 65 -38 179q0 120 44 187q50 78 186 78q114 0 180 -32q34 -18 34 -54v-602q0 -5 -0.5 -7.5t-2.5 -7t-8 -7t-16 -2.5h-131q-28 0 -28 24zM214 251q0 -58 9.5 -79t33.5 -21q13 0 27 6v186q-5 3 -22 3
q-25 0 -36.5 -20.5t-11.5 -74.5z" />
    <glyph glyph-name="r" unicode="r" horiz-adv-x="391" 
d="M223 473v-37l4 -2q23 28 54.5 47t56.5 22q24 3 34 -2.5t12 -25.5l13 -124q2 -15 -5.5 -21.5t-32.5 -12.5q-88 -20 -136 -42v-251q0 -5 -0.5 -7.5t-2.5 -7t-8.5 -7t-16.5 -2.5h-128q-17 0 -23 5.5t-6 18.5v449q0 13 6 18.5t23 5.5h128q13 0 20 -5t7.5 -8.5t0.5 -10.5z" />
    <glyph glyph-name="s" unicode="s" horiz-adv-x="445" 
d="M431 164q0 -92 -61 -132q-62 -41 -156 -41q-81 0 -143 22q-32 12 -41 24t-4 36l12 59q4 18 12 22t33 -2q67 -14 123 -14q37 0 37 21q0 12 -4.5 15.5t-19.5 5.5q-83 12 -133 38q-56 33 -56 120q0 80 54.5 124t145.5 44q84 0 140 -22q31 -12 40.5 -21.5t6.5 -29.5l-13 -63
q-4 -18 -9.5 -21t-31.5 0q-80 12 -126 13q-15 0 -19 -4.5t-4 -12.5q0 -15 29 -18q80 -11 129 -40q59 -34 59 -123z" />
    <glyph glyph-name="t" unicode="t" horiz-adv-x="391" 
d="M380 143l11 -88q3 -25 -26 -37q-60 -26 -150 -26q-79 0 -115 39.5t-36 119.5v201h-27q-16 0 -21.5 5.5t-5.5 19.5v96q0 13 6 18.5t21 5.5h29v94q0 21 28 28l113 34q39 12 39 -21v-135h79q20 0 23 -8q3 -4 3 -17v-93v-3q0 -10 -1 -14t-6.5 -7t-18.5 -3h-81v-118
q0 -45 9 -61t34 -16q14 0 57 4q23 2 28.5 -0.5t7.5 -17.5z" />
    <glyph glyph-name="u" unicode="u" horiz-adv-x="499" 
d="M286 24v22l-5 1q-51 -55 -118 -55q-54 0 -80 18q-13 9 -18 13t-12 13t-11 20q-13 38 -15 64q-1 16 -1 35v37v281q0 5 0.5 7.5t2.5 7t8.5 7t16.5 2.5h128q17 0 23 -5.5t6 -18.5v-246q0 -35 7.5 -47.5t25.5 -12.5q12 0 42 14v294q0 22 31 22h126q17 0 22.5 -5.5t5.5 -18.5
v-449q0 -13 -5 -18.5t-22 -5.5h-132q-19 3 -23 8t-3 16z" />
    <glyph glyph-name="v" unicode="v" horiz-adv-x="509" 
d="M248 268l12 -62h6q10 74 24 125l35 142q2 7 3.5 10t5.5 7t12 5.5t21 1.5h114q23 0 29 -6.5t1 -22.5l-141 -428q-13 -40 -56 -40h-101q-27 0 -39.5 9t-19.5 31l-138 427q-9 30 26 30h122q16 0 21.5 -1t11 -6.5t8.5 -18.5l32 -146z" />
    <glyph glyph-name="w" unicode="w" horiz-adv-x="689" 
d="M362 161h-5q-13 -66 -17 -79l-13 -48q-5 -19 -14.5 -26.5t-27.5 -7.5h-99q-23 0 -33.5 8t-16.5 30l-121 429q-7 30 26 30h122q21 0 28 -5t11 -23l25 -119l22 -114h6l17 81l12 50l-32 100q-9 30 26 30h108q21 0 28 -5t11 -23l22 -105q9 -39 22 -120h6l9 60l9 59l19 110
q3 14 10 19t29 5h115q23 0 28.5 -6t1.5 -23l-113 -428q-10 -40 -47 -40h-98q-22 0 -32 7.5t-15 27.5l-13 47q-3 12 -16 79z" />
    <glyph glyph-name="x" unicode="x" horiz-adv-x="500" 
d="M496 467l-127 -214h1l130 -222q7 -11 1 -21t-23 -10h-135q-34 0 -43 19l-47 120l-45 -118q-9 -21 -41 -21h-139q-38 0 -20 31h-1l131 222l-120 214q-8 10 -2 20t23 10h135q21 0 27.5 -3.5t11.5 -15.5l41 -113l40 112q6 20 38 20h141q41 0 23 -30z" />
    <glyph glyph-name="y" unicode="y" horiz-adv-x="494" 
d="M252 235h4q10 55 24 108l32 130q3 10 4.5 14t10 7t25.5 3h116q37 0 24 -30l-211 -644q-5 -17 -13 -22t-31 -5h-107q-20 0 -26 6.5t-1 22.5l63 194l-148 449q-9 29 26 29h121q19 0 27.5 -5.5t12.5 -20.5l27 -132q14 -67 20 -104z" />
    <glyph glyph-name="z" unicode="z" horiz-adv-x="425" 
d="M387 349l-159 -204h156q16 0 21.5 -5.5t5.5 -19.5v-96q0 -13 -6 -18.5t-21 -5.5h-344q-18 0 -23.5 5t-5.5 18v79q0 21 17 44l163 205h-140q-17 0 -22.5 5t-5.5 20v97q0 24 28 24h323q31 0 31 -23v-80q0 -21 -18 -45z" />
    <glyph glyph-name="braceleft" unicode="{" horiz-adv-x="331" 
d="M174 299v-6q36 -16 48.5 -41t12.5 -67v-118q0 -26 9.5 -36.5t37.5 -12.5q25 -1 25 -21v-81q0 -17 -23 -22q-35 -5 -90 -5q-62 0 -94 36t-32 91v155q0 39 -4 51.5t-24 24.5q-22 7 -22 22v59q0 20 21 27q18 8 23.5 23.5t5.5 54.5v140q0 55 35.5 92t95.5 37q47 0 85 -5
q14 -2 18.5 -7t4.5 -15v-85q0 -20 -26 -20q-27 0 -36.5 -11.5t-9.5 -39.5v-105q0 -30 -16.5 -63.5t-44.5 -51.5z" />
    <glyph glyph-name="bar" unicode="|" horiz-adv-x="283" 
d="M61 -85v758q0 24 29 24h103q29 0 29 -24v-758q0 -24 -29 -24h-103q-29 0 -29 24z" />
    <glyph glyph-name="braceright" unicode="}" horiz-adv-x="331" 
d="M151 293v6q-28 18 -44.5 51.5t-16.5 63.5v105q0 28 -9.5 39.5t-36.5 11.5q-26 0 -26 20v85q0 10 4.5 15t18.5 7q38 5 85 5q60 0 95.5 -37t35.5 -92v-140q0 -39 5.5 -54.5t23.5 -23.5q21 -7 21 -27v-59q0 -15 -22 -22q-18 -7 -23 -21t-5 -55v-155q0 -55 -32 -91t-94 -36
q-55 0 -90 5q-23 5 -23 22v81q0 20 25 21q28 2 37.5 12.5t9.5 36.5v118q-1 38 11 63t50 45z" />
    <glyph glyph-name="asciitilde" unicode="~" horiz-adv-x="536" 
d="M360 215q-28 0 -88 23q-60 24 -78 24q-20 0 -50 -42q-9 -13 -14.5 -14t-24.5 8l-45 27q-16 10 -10 28q23 62 61.5 92.5t85.5 30.5q31 0 106 -26q57 -20 69 -20q22 0 44 37q8 12 15 13.5t22 -7.5l47 -32q16 -13 12 -25q-50 -117 -152 -117z" />
    <glyph glyph-name="exclamdown" unicode="&#xa1;" horiz-adv-x="282" 
d="M216 267l12 -413q0 -13 -6 -17.5t-22 -4.5h-116q-16 0 -22 4.5t-5 17.5l13 413q0 22 27 22h91q27 0 28 -22zM230 420q0 -43 -20 -64t-69 -21q-89 0 -89 85q0 42 19.5 63.5t69.5 21.5q49 0 69 -22t20 -63z" />
    <glyph glyph-name="cent" unicode="&#xa2;" 
d="M303 -162l-37 4q-15 2 -12 17l18 134q-116 11 -155 87q-32 68 -32 164q0 256 223 256q4 0 17 -0.5t16 -0.5l18 133q2 16 16 14l32 -3q15 -2 12 -20l-18 -133q26 -5 54 -17q27 -14 23 -38l-13 -73q-4 -18 -10 -22t-23 -2q-12 2 -50 5l-26 -198q40 1 82 8q14 2 20 -2t8 -17
l13 -70q6 -18 0 -29.5t-28 -20.5q-50 -18 -116 -22l-18 -139q-1 -8 -4 -12t-10 -3zM265 247q-2 -77 29 -94l26 192q-52 -7 -55 -98z" />
    <glyph glyph-name="sterling" unicode="&#xa3;" 
d="M385 275h-91q-1 -81 -25 -125h201q18 0 23 -4t5 -17v-107q0 -13 -5.5 -17.5t-21.5 -4.5h-393q-32 0 -32 23v82q0 30 25 52q34 31 39 118h-36q-18 0 -23.5 4t-5.5 17v89q0 12 5.5 16t23.5 4h32q-1 11 -1 54q0 95 35 148q41 62 166 62q100 0 174 -30q29 -13 25 -31l-14 -93
q-1 -9 -5.5 -12.5t-12 -3.5t-19.5 1q-75 9 -102 9q-62 0 -62 -104h95q18 0 23.5 -4t5.5 -16v-89q0 -13 -5.5 -17t-23.5 -4z" />
    <glyph glyph-name="currency" unicode="&#xa4;" 
d="M273 218q35 0 55 20t20 53q0 35 -20 54.5t-55 19.5q-34 0 -53 -19.5t-19 -54.5t19 -54t53 -19zM87 287q0 50 19 87l-43 44q-11 12 -11 18t12 16l41 39q15 13 21 12.5t19 -12.5l37 -38q37 18 88 20q56 0 93 -21l47 44q14 12 19.5 12t14.5 -10l47 -46q10 -9 9.5 -14.5
t-11.5 -16.5l-49 -50q17 -36 17 -80q0 -49 -20 -91l49 -50q11 -11 12 -16.5t-9 -17.5l-39 -39q-12 -15 -19.5 -15.5t-16.5 9.5l-55 51q-46 -21 -89 -20q-43 0 -80 17l-46 -41q-12 -12 -18 -13t-17 8l-45 47q-16 13 4 31l41 40q-22 48 -22 96z" />
    <glyph glyph-name="yen" unicode="&#xa5;" 
d="M217 639l63 -215h8l62 212q6 19 14 24t32 5h122q36 0 24 -29l-138 -318h75q13 0 17.5 -4t4.5 -16v-40q0 -13 -4.5 -17.5t-17.5 -4.5h-105v-42h105q13 0 17.5 -4t4.5 -16v-40q0 -13 -4 -17.5t-18 -4.5h-104v-88q0 -24 -31 -24h-128q-32 0 -32 24v88h-107q-12 0 -16 4.5
t-4 17.5v39q0 12 4.5 16.5t15.5 4.5h107v42h-107q-12 0 -16 4.5t-4 17.5v39q0 21 20 21h80l-133 317q-5 12 2.5 21t23.5 9h117q24 0 34.5 -5t15.5 -21z" />
    <glyph glyph-name="brokenbar" unicode="&#xa6;" horiz-adv-x="283" 
d="M61 -85v347q0 24 29 24h103q29 0 29 -24v-347q0 -24 -29 -24h-103q-29 0 -29 24zM61 377v296q0 24 29 24h103q29 0 29 -24v-296q0 -24 -29 -24h-103q-29 0 -29 24z" />
    <glyph glyph-name="section" unicode="&#xa7;" horiz-adv-x="409" 
d="M393 275q0 -76 -57 -140h-1q58 -59 58 -133q0 -88 -58 -131q-59 -44 -133 -44q-98 0 -153 34q-26 17 -21 35l19 67q6 21 15.5 25t29.5 -3q55 -13 93 -13q46 0 46 28q0 12 -12 24q-18 18 -69 45q-32 17 -48 27q-12 8 -39 31q-43 40 -43 104q0 75 56 140h1q-59 57 -59 133
q0 88 58 131q59 44 135 44q96 0 151 -32q26 -16 22 -37l-18 -67q-7 -20 -16.5 -24.5t-29.5 2.5q-71 13 -93 13q-46 0 -46 -28q0 -19 25 -38.5t55 -29.5q23 -12 48 -28q20 -13 40 -30q44 -38 44 -105zM232 253q0 23 -39 44q-13 -30 -13 -46q0 -20 41 -43q11 17 11 45z" />
    <glyph glyph-name="dieresis" unicode="&#xa8;" horiz-adv-x="482" 
d="M148 547q-49 0 -67 20t-18 63q0 41 19 60.5t66 19.5q48 0 67.5 -19t19.5 -61t-19 -62.5t-68 -20.5zM265 630q0 40 19.5 60t65.5 20q50 0 68.5 -18.5t18.5 -61.5q0 -42 -19 -62.5t-68 -20.5q-48 0 -66.5 20.5t-18.5 62.5z" />
    <glyph glyph-name="copyright" unicode="&#xa9;" horiz-adv-x="757" 
d="M376 531q59 0 97 -20q12 -5 16.5 -11t1.5 -20l-8 -41q-3 -16 -21 -13q-28 5 -68 5q-60 0 -60 -95q0 -56 12.5 -78t47.5 -22q16 0 70 6q10 1 13.5 -1.5t6.5 -13.5l10 -37q5 -23 -17 -33q-45 -20 -101 -20q-155 0 -155 197t155 197zM45 337q0 138 98 236q97 97 238 97
q143 0 240 -97q98 -96 98 -236q0 -137 -99 -235q-99 -96 -239 -96q-141 0 -238 96q-98 98 -98 235zM381 579q-100 0 -171 -71t-71 -171q0 -99 71 -170t171 -71q101 0 172 71t71 170q0 100 -71 171t-172 71z" />
    <glyph glyph-name="ordfeminine" unicode="&#xaa;" horiz-adv-x="360" 
d="M282 231q-57 0 -75 34q-40 -35 -96 -35t-78 26.5t-23 77.5q-1 57 31 80t99 23h47v6q0 23 -42 23q-14 0 -67 -5q-32 -6 -36 14l-7 39q-4 30 33 43q48 18 107 18q92 0 122 -32q30 -31 30 -103v-81q0 -22 11 -24q15 -2 19 -6.5t4 -15.5v-51q0 -17 -29 -26q-18 -5 -50 -5z
M184 332v34h-17q-18 0 -18 -26q0 -17 14 -17q11 0 21 9z" />
    <glyph glyph-name="guillemotleft" unicode="&#xab;" horiz-adv-x="550" 
d="M46 230l96 137q15 20 36 20h127q11 0 15.5 -5t1.5 -11l-116 -164l110 -161q3 -6 -0.5 -13t-11.5 -7h-128q-18 0 -34 21l-96 140q-16 22 0 43zM262 230l96 137q15 20 36 20h127q11 0 15.5 -5t1.5 -11l-116 -164l110 -161q3 -6 -0.5 -13t-11.5 -7h-128q-18 0 -34 21
l-96 140q-16 22 0 43z" />
    <glyph glyph-name="logicalnot" unicode="&#xac;" horiz-adv-x="536" 
d="M79 398h379q17 0 23 -5t6 -18v-264q0 -14 -6.5 -18.5t-22.5 -4.5h-100q-17 0 -23.5 4.5t-6.5 18.5v152h-249q-30 0 -30 25v86q0 24 30 24z" />
    <glyph glyph-name="sfthyphen" unicode="&#xad;" horiz-adv-x="374" 
d="M46 391h288q17 0 23 -5t6 -18v-98q0 -15 -5.5 -20t-23.5 -5h-288q-30 0 -30 25v97q0 24 30 24z" />
    <glyph glyph-name="registered" unicode="&#xae;" horiz-adv-x="474" 
d="M296 504l32 -81q6 -10 -6 -10h-50q-9 0 -15 10l-22 67h-5v-67q0 -10 -7 -10h-48q-7 0 -7 10v197q0 10 8 10h79q29 0 49 -18.5t20 -51.5q0 -40 -28 -56zM261 560q0 13 -16 13h-15v-28h15q16 0 16 15zM239 304q-89 0 -154 62q-64 63 -64 153q0 91 64 152q65 63 154 63
q92 0 155 -63q64 -61 64 -152q0 -90 -64 -153q-64 -62 -155 -62zM355 635q-48 48 -116 48t-117 -49q-48 -48 -48 -115t48 -116q50 -48 117 -48q68 0 116 48q49 48 49 116t-49 116z" />
    <glyph glyph-name="overscore" unicode="&#xaf;" horiz-adv-x="482" 
d="M384 560h-286q-30 0 -30 25v86q0 24 30 24h286q17 0 23 -5t6 -18v-87q0 -15 -5.5 -20t-23.5 -5z" />
    <glyph glyph-name="degree" unicode="&#xb0;" horiz-adv-x="369" 
d="M186 367q-75 0 -120.5 43.5t-45.5 110.5q0 63 48 108q49 46 118 46t115 -46q47 -45 47 -108q0 -64 -47 -109t-115 -45zM184 574q-23 0 -39.5 -16t-16.5 -38q0 -23 16 -38.5t40 -15.5q23 0 39 16t16 38t-16.5 38t-38.5 16z" />
    <glyph glyph-name="plusminus" unicode="&#xb1;" horiz-adv-x="536" 
d="M347 571v-119h111q17 0 23 -5t6 -18v-87q0 -15 -5.5 -20t-23.5 -5h-111v-132q0 -14 -6.5 -18.5t-22.5 -4.5h-100q-17 0 -23.5 4.5t-6.5 18.5v132h-109q-30 0 -30 25v86q0 24 30 24h109v119q0 24 30 24h99q30 0 30 -24zM458 2h-379q-30 0 -30 25v79q0 24 30 24h379
q17 0 23 -5t6 -18v-80q0 -15 -5.5 -20t-23.5 -5z" />
    <glyph glyph-name="twosuperior" unicode="&#xb2;" horiz-adv-x="380" 
d="M283 498l-49 -48l1 -3h97q23 0 23 -17v-88q0 -17 -23 -17h-291q-24 0 -24 17v62q0 21 16 37l141 142q20 22 20 42q0 19 -23 19q-13 0 -109 -8q-21 -2 -26.5 1t-7.5 20l-7 48q-6 29 32 46q51 20 122 20q174 0 174 -137q0 -70 -66 -136z" />
    <glyph glyph-name="threesuperior" unicode="&#xb3;" horiz-adv-x="380" 
d="M108 612l44 30v3h-101q-12 0 -16 3.5t-4 12.5v88q0 17 20 17h279q14 0 19 -4t5 -13v-60q0 -27 -19 -40l-50 -36v-5q80 -33 80 -114q0 -94 -47 -134.5t-142 -40.5q-66 0 -118 20q-43 19 -37 48l11 50q4 15 10 18t25 1q66 -10 99 -10q28 0 37.5 6.5t9.5 30.5q0 11 -10 15
q-6 1 -37 8l-38 9q-21 5 -28.5 12.5t-7.5 25.5v28q0 21 16 31z" />
    <glyph glyph-name="acute" unicode="&#xb4;" horiz-adv-x="482" 
d="M313 810l83 -60q23 -14 5 -36l-125 -152q-17 -20 -31 -8l-58 37q-15 11 -5 28l97 184q11 23 34 7z" />
    <glyph glyph-name="mu" unicode="&#xb5;" horiz-adv-x="499" 
d="M286 24v13l-3 2q-16 -15 -31 -23q-16 -10 -41 -14v-183q0 -5 -0.5 -7.5t-2.5 -7t-8 -7t-16 -2.5h-132q-16 0 -21 5.5t-5 18.5v654q0 9 1 13t7 7.5t18 3.5h132q13 0 19.5 -5t7 -8.5t0.5 -10.5v-256q0 -30 7.5 -40t25.5 -10q12 0 42 14v292q0 24 29 24h128q17 0 22.5 -5.5
t5.5 -18.5v-449q0 -13 -5.5 -18.5t-22.5 -5.5h-130q-13 0 -19.5 5t-7 8.5t-0.5 10.5z" />
    <glyph glyph-name="mu" unicode="&#x3bc;" horiz-adv-x="499" 
d="M286 24v13l-3 2q-16 -15 -31 -23q-16 -10 -41 -14v-183q0 -5 -0.5 -7.5t-2.5 -7t-8 -7t-16 -2.5h-132q-16 0 -21 5.5t-5 18.5v654q0 9 1 13t7 7.5t18 3.5h132q13 0 19.5 -5t7 -8.5t0.5 -10.5v-256q0 -30 7.5 -40t25.5 -10q12 0 42 14v292q0 24 29 24h128q17 0 22.5 -5.5
t5.5 -18.5v-449q0 -13 -5.5 -18.5t-22.5 -5.5h-130q-13 0 -19.5 5t-7 8.5t-0.5 10.5z" />
    <glyph glyph-name="paragraph" unicode="&#xb6;" horiz-adv-x="530" 
d="M198 665h288q33 0 33 -26v-96q0 -26 -33 -26h-15v-603q0 -27 -32 -27h-73q-31 0 -31 27v604h-51v-604q0 -27 -33 -27h-71q-33 0 -33 27v358h8q-67 6 -104 58t-37 125q0 99 50.5 154.5t133.5 55.5z" />
    <glyph glyph-name="middot" unicode="&#xb7;" horiz-adv-x="219" 
d="M202 276q0 -43 -21 -66t-71 -23q-51 0 -72 23t-21 66q0 88 93 88q50 0 71 -21.5t21 -66.5z" />
    <glyph glyph-name="cedilla" unicode="&#xb8;" horiz-adv-x="370" 
d="M225 -138q0 20 -18 26q-5 1 -47 6q-22 1 -15 26l27 88q3 11 14 11h62q11 0 9 -8l-20 -60q53 -3 74.5 -25.5t21.5 -62.5q0 -52 -36.5 -84t-105.5 -32q-53 0 -83 12q-14 7 -13 19l6 39q1 14 21 10q21 -4 59 -4q44 0 44 39z" />
    <glyph glyph-name="onesuperior" unicode="&#xb9;" horiz-adv-x="380" 
d="M324 325h-254q-13 0 -17.5 3.5t-4.5 13.5v88q0 16 22 16h50v186h-54q-13 0 -13 17v51q0 11 3.5 16t16.5 12l28 15l25 14q18 9 43 9h78q13 0 17.5 -3.5t4.5 -13.5v-303h55q12 0 16.5 -3t4.5 -13v-88q0 -9 -3.5 -13t-17.5 -4z" />
    <glyph glyph-name="ordmasculine" unicode="&#xba;" horiz-adv-x="343" 
d="M331 405q0 -65 -24 -113q-32 -62 -137 -62q-103 0 -135 62q-23 48 -23 113q0 28 5.5 52t20 52.5t48.5 45.5t84 17q161 0 161 -167zM171 456q-16 0 -16 -55t15 -55q18 0 18 55t-17 55z" />
    <glyph glyph-name="guillemotright" unicode="&#xbb;" horiz-adv-x="548" 
d="M421 367l96 -137q16 -21 0 -43l-96 -140q-17 -21 -34 -21h-128q-8 0 -11.5 7t-0.5 13l110 161l-116 164q-3 6 1.5 11t15.5 5h127q21 0 36 -20zM205 367l96 -137q16 -21 0 -43l-96 -140q-17 -21 -34 -21h-128q-8 0 -11.5 7t-0.5 13l110 161l-116 164q-3 6 1.5 11t15.5 5
h127q21 0 36 -20z" />
    <glyph glyph-name="onequarter" unicode="&#xbc;" horiz-adv-x="955" 
d="M313 235h-254q-13 0 -17.5 3.5t-4.5 13.5v88q0 16 22 16h50v186h-54q-13 0 -13 17v51q0 11 3.5 16t16.5 12l28 15l25 14q18 9 43 9h78q13 0 17.5 -3.5t4.5 -13.5v-303h55q12 0 16.5 -3t4.5 -13v-88q0 -9 -3.5 -13t-17.5 -4zM661 685l-240 -696q-5 -12 -21 -12h-99
q-10 0 -15 4t-3 11l236 685q6 15 10.5 19t16.5 4h99q8 0 13 -4.5t3 -10.5zM898 85h-29v-68v-3q0 -11 -8 -13q-3 -1 -12 -1h-107q-14 0 -17.5 3t-3.5 14v68h-154q-14 0 -19 3t-5 14v50q0 28 15 52l143 215q9 14 16.5 17.5t23.5 3.5h104q24 0 24 -17v-221h29q12 0 15.5 -3
t3.5 -13v-84q0 -6 -0.5 -9t-5 -5.5t-13.5 -2.5zM723 275l-52 -76h52v76z" />
    <glyph glyph-name="onehalf" unicode="&#xbd;" horiz-adv-x="955" 
d="M302 235h-254q-13 0 -17.5 3.5t-4.5 13.5v88q0 16 22 16h50v186h-54q-13 0 -13 17v51q0 11 3.5 16t16.5 12l28 15l25 14q18 9 43 9h78q13 0 17.5 -3.5t4.5 -13.5v-303h55q12 0 16.5 -3t4.5 -13v-88q0 -9 -3.5 -13t-17.5 -4zM651 685l-240 -696q-5 -12 -21 -12h-99
q-10 0 -15 4t-3 11l236 685q6 15 10.5 19t16.5 4h99q8 0 13 -4.5t3 -10.5zM857 173l-49 -48l1 -3h97q23 0 23 -17v-88q0 -17 -23 -17h-291q-24 0 -24 17v62q0 21 16 37l141 142q20 22 20 42q0 19 -23 19q-13 0 -109 -8q-21 -2 -26.5 1t-7.5 20l-7 48q-6 29 32 46
q51 20 122 20q174 0 174 -137q0 -70 -66 -136z" />
    <glyph glyph-name="threequarters" unicode="&#xbe;" horiz-adv-x="955" 
d="M114 522l44 30v3h-101q-12 0 -16 3.5t-4 12.5v88q0 17 20 17h279q14 0 19 -4t5 -13v-60q0 -27 -19 -40l-50 -36v-5q80 -33 80 -114q0 -94 -47 -134.5t-142 -40.5q-66 0 -118 20q-43 19 -37 48l11 50q4 15 10 18t25 1q66 -10 99 -10q28 0 37.5 6.5t9.5 30.5q0 11 -10 15
l-38 9q-31 7 -37 8q-21 5 -28.5 12.5t-7.5 25.5v28q0 21 16 31zM672 685l-240 -696q-4 -12 -21 -12h-99q-10 0 -15 4t-3 11l236 685q6 15 10.5 19t16.5 4h99q8 0 13 -4.5t3 -10.5zM921 85h-29v-68v-3q0 -11 -8 -13q-3 -1 -12 -1h-107q-14 0 -17.5 3t-3.5 14v68h-154
q-14 0 -19 3t-5 14v50q0 28 15 52l143 215q9 14 16.5 17.5t23.5 3.5h104q24 0 24 -17v-221h29q12 0 15.5 -3t3.5 -13v-84q0 -6 -0.5 -9t-5 -5.5t-13.5 -2.5zM746 275l-52 -76h52v76z" />
    <glyph glyph-name="questiondown" unicode="&#xbf;" horiz-adv-x="413" 
d="M23 -11q0 32 14 63q14 27 27 41.5t40 36.5q32 28 45 53.5t13 64.5v29q0 25 25 25h111q29 0 30 -23q2 -22 2 -42q0 -71 -20 -109t-73 -88q-18 -16 -18 -39q0 -17 10 -23.5t35 -6.5q42 0 79 6q26 4 32 1t8 -20l5 -72q2 -15 -2 -22.5t-21 -15.5q-54 -26 -130 -26
q-102 0 -157 43t-55 124zM158 419q0 41 20 63t69 22q50 0 69.5 -21.5t19.5 -63.5q0 -85 -89 -85q-49 0 -69 21t-20 64z" />
    <glyph glyph-name="Agrave" unicode="&#xc0;" horiz-adv-x="600" 
d="M367 137h-129l-25 -104q-5 -19 -14 -26t-30 -7h-125q-38 0 -28 34l162 597q5 16 7.5 20.5t12.5 9t32 5.5h145q22 0 32.5 -8t16.5 -28l169 -595q9 -35 -21 -35h-137q-24 0 -32 7.5t-13 31.5zM116 832l60 85q14 25 34 8l166 -133q14 -12 7 -28l-43 -58q-10 -16 -32 -5
l-182 96q-23 13 -10 35zM306 470h-4l-13 -83l-17 -104h60l-15 104q-10 76 -11 83z" />
    <glyph glyph-name="Aacute" unicode="&#xc1;" horiz-adv-x="600" 
d="M367 137h-129l-25 -104q-5 -19 -14 -26t-30 -7h-125q-38 0 -28 34l162 597q5 16 7.5 20.5t12.5 9t32 5.5h145q22 0 32.5 -8t16.5 -28l169 -595q9 -35 -21 -35h-137q-24 0 -32 7.5t-13 31.5zM425 913l58 -86q13 -22 -10 -35l-178 -91q-22 -11 -32 5l-43 59q-7 16 7 28
l164 128q20 17 34 -8zM306 470h-4l-13 -83l-17 -104h60l-15 104q-10 76 -11 83z" />
    <glyph glyph-name="Acircumflex" unicode="&#xc2;" horiz-adv-x="600" 
d="M367 137h-129l-25 -104q-5 -19 -14 -26t-30 -7h-125q-38 0 -28 34l162 597q5 16 7.5 20.5t12.5 9t32 5.5h145q22 0 32.5 -8t16.5 -28l169 -595q9 -35 -21 -35h-137q-24 0 -32 7.5t-13 31.5zM421 700l-126 86l-112 -83q-16 -13 -23 -13.5t-20 11.5l-34 39q-8 10 -8.5 15
t8.5 17l114 120l10 10t8 6t12.5 4.5t16.5 0.5h62q15 0 23 -2t10 -4l12 -12l117 -122q13 -13 -1 -32l-35 -40q-11 -9 -16.5 -9t-17.5 8zM306 470h-4l-13 -83l-17 -104h60l-15 104q-10 76 -11 83z" />
    <glyph glyph-name="Atilde" unicode="&#xc3;" horiz-adv-x="600" 
d="M367 137h-129l-25 -104q-5 -19 -14 -26t-30 -7h-125q-38 0 -28 34l162 597q5 16 7.5 20.5t12.5 9t32 5.5h145q22 0 32.5 -8t16.5 -28l169 -595q9 -35 -21 -35h-137q-24 0 -32 7.5t-13 31.5zM183 743q-8 -13 -13 -14t-23 9l-45 28q-11 12 -7 22q48 121 134 121
q35 0 86 -27q52 -26 63 -26q20 0 46 35q9 13 15 14t18 -8l46 -33q17 -11 9 -26q-45 -113 -132 -113q-24 0 -81 26q-55 26 -67 26q-25 0 -49 -34zM306 470h-4l-13 -83l-17 -104h60l-15 104q-10 76 -11 83z" />
    <glyph glyph-name="Adieresis" unicode="&#xc4;" horiz-adv-x="600" 
d="M367 137h-129l-25 -104q-5 -19 -14 -26t-30 -7h-125q-38 0 -28 34l162 597q5 16 7.5 20.5t12.5 9t32 5.5h145q22 0 32.5 -8t16.5 -28l169 -595q9 -35 -21 -35h-137q-24 0 -32 7.5t-13 31.5zM394 715q-49 0 -67.5 20.5t-18.5 62.5q0 40 20 60t66 20q49 0 67.5 -18.5
t18.5 -61.5q0 -42 -18.5 -62.5t-67.5 -20.5zM181 715q-49 0 -67 20.5t-18 62.5q0 40 19.5 60t65.5 20q49 0 68 -19t19 -61t-19 -62.5t-68 -20.5zM306 470h-4l-13 -83l-17 -104h60l-15 104q-10 76 -11 83z" />
    <glyph glyph-name="Aring" unicode="&#xc5;" horiz-adv-x="600" 
d="M367 137h-129l-25 -104q-5 -19 -14 -26t-30 -7h-125q-38 0 -28 34l162 597q5 16 7.5 20.5t12.5 9t32 5.5h145q22 0 32.5 -8t16.5 -28l169 -595q9 -35 -21 -35h-137q-24 0 -32 7.5t-13 31.5zM303 942q55 0 92 -39q39 -38 39 -89q0 -54 -39 -91q-37 -37 -92 -37
q-53 0 -94 36q-40 37 -40 92t40 91q40 37 94 37zM259 814q0 -21 12.5 -33.5t31.5 -12.5q29 0 40.5 28.5t-9.5 49.5q-20 20 -47.5 9t-27.5 -41zM306 470h-4l-13 -83l-17 -104h60l-15 104q-10 76 -11 83z" />
    <glyph glyph-name="AE" unicode="&#xc6;" horiz-adv-x="837" 
d="M388 24v113h-128l-43 -111q-11 -26 -52 -26h-128q-32 0 -20 30l235 606q7 18 18 23.5t42 5.5h477q27 0 27 -24v-115q0 -12 -5 -17t-22 -5h-205v-80h182q25 0 25 -20v-115v-4q0 -7 -1 -10.5t-7 -7t-17 -3.5h-182v-103h215q27 0 27 -22v-115q0 -8 -0.5 -12t-7 -8t-19.5 -4
h-383q-17 0 -22.5 5.5t-5.5 18.5zM386 283v219h-5l-71 -219h76z" />
    <glyph glyph-name="Ccedilla" unicode="&#xc7;" horiz-adv-x="539" 
d="M35 332q0 108 31 187q62 154 248 154q106 0 173 -34q41 -23 36 -54l-13 -71q-4 -18 -14 -22.5t-37 -1.5q-90 9 -126 9q-90 0 -90 -163q0 -94 18 -135q19 -39 71 -39t130 9q27 2 36 -2.5t14 -21.5l15 -65q8 -32 -35 -56q-66 -33 -161 -36l-13 -39q53 -3 74.5 -25.5
t21.5 -62.5q0 -52 -36.5 -84t-105.5 -32q-53 0 -83 12q-14 7 -13 19l6 39q1 14 21 10q21 -4 59 -4q44 0 44 39q0 20 -18 26q-5 1 -47 6q-22 1 -15 26l23 76q-214 37 -214 336z" />
    <glyph glyph-name="Egrave" unicode="&#xc8;" horiz-adv-x="506" 
d="M44 24v617q0 13 5.5 18.5t22.5 5.5h371q27 0 27 -24v-115v-2q0 -8 -0.5 -11t-6 -6t-17.5 -3h-206v-80h182q25 0 25 -20v-115v-4q0 -7 -1 -10.5t-7 -7t-17 -3.5h-182v-103h219q24 0 24 -22v-115q0 -8 -0.5 -12t-7 -8t-19.5 -4h-384q-17 0 -22.5 5.5t-5.5 18.5zM91 832
l60 85q14 25 34 8l166 -133q14 -12 7 -28l-43 -58q-10 -16 -32 -5l-182 96q-23 13 -10 35z" />
    <glyph glyph-name="Eacute" unicode="&#xc9;" horiz-adv-x="506" 
d="M44 24v617q0 13 5.5 18.5t22.5 5.5h371q27 0 27 -24v-115v-2q0 -8 -0.5 -11t-6 -6t-17.5 -3h-206v-80h182q25 0 25 -20v-115v-4q0 -7 -1 -10.5t-7 -7t-17 -3.5h-182v-103h219q24 0 24 -22v-115q0 -8 -0.5 -12t-7 -8t-19.5 -4h-384q-17 0 -22.5 5.5t-5.5 18.5zM342 913
l58 -86q13 -22 -10 -35l-178 -91q-22 -11 -32 5l-43 59q-7 16 7 28l164 128q20 17 34 -8z" />
    <glyph glyph-name="Ecircumflex" unicode="&#xca;" horiz-adv-x="506" 
d="M44 24v617q0 13 5.5 18.5t22.5 5.5h371q27 0 27 -24v-115v-2q0 -8 -0.5 -11t-6 -6t-17.5 -3h-206v-80h182q25 0 25 -20v-115v-4q0 -7 -1 -10.5t-7 -7t-17 -3.5h-182v-103h219q24 0 24 -22v-115q0 -8 -0.5 -12t-7 -8t-19.5 -4h-384q-17 0 -22.5 5.5t-5.5 18.5zM384 700
l-126 86l-112 -83q-16 -13 -23 -13.5t-20 11.5l-34 39q-8 10 -8.5 15t8.5 17l114 120l10 10t8 6t12.5 4.5t16.5 0.5h62q15 0 23 -2t10 -4l12 -12l117 -122q13 -13 -1 -32l-35 -40q-11 -9 -16.5 -9t-17.5 8z" />
    <glyph glyph-name="Edieresis" unicode="&#xcb;" horiz-adv-x="506" 
d="M44 24v617q0 13 5.5 18.5t22.5 5.5h371q27 0 27 -24v-115v-2q0 -8 -0.5 -11t-6 -6t-17.5 -3h-206v-80h182q25 0 25 -20v-115v-4q0 -7 -1 -10.5t-7 -7t-17 -3.5h-182v-103h219q24 0 24 -22v-115q0 -8 -0.5 -12t-7 -8t-19.5 -4h-384q-17 0 -22.5 5.5t-5.5 18.5zM150 715
q-49 0 -67 20.5t-18 62.5q0 40 19.5 60t65.5 20q49 0 68 -19t19 -61t-19 -62.5t-68 -20.5zM363 715q-49 0 -67.5 20.5t-18.5 62.5q0 40 20 60t66 20q49 0 67.5 -18.5t18.5 -61.5q0 -42 -18.5 -62.5t-67.5 -20.5z" />
    <glyph glyph-name="Igrave" unicode="&#xcc;" horiz-adv-x="284" 
d="M57 24v617q0 13 6 18.5t23 5.5h138q14 0 21 -5t7.5 -8t0.5 -11v-617v-1q0 -7 -1 -10.5t-8 -8t-20 -4.5h-138q-17 0 -23 5.5t-6 18.5zM-31 832l60 85q14 25 34 8l166 -133q14 -12 7 -28l-43 -58q-10 -16 -32 -5l-182 96q-23 13 -10 35z" />
    <glyph glyph-name="Iacute" unicode="&#xcd;" horiz-adv-x="284" 
d="M52 24v617q0 13 6 18.5t23 5.5h138q14 0 21 -5t7.5 -8t0.5 -11v-617v-1q0 -7 -1 -10.5t-8 -8t-20 -4.5h-138q-17 0 -23 5.5t-6 18.5zM254 913l58 -86q13 -22 -10 -35l-178 -91q-22 -11 -32 5l-43 59q-7 16 7 28l164 128q20 17 34 -8z" />
    <glyph glyph-name="Icircumflex" unicode="&#xce;" horiz-adv-x="284" 
d="M269 700l-126 86l-112 -83q-16 -13 -23 -13.5t-20 11.5l-34 39q-8 10 -8.5 15t8.5 17l114 120l10 10t8 6t12.5 4.5t16.5 0.5h62q15 0 23 -2t10 -4l12 -12l117 -122q13 -13 -1 -32l-35 -40q-11 -9 -16.5 -9t-17.5 8zM45 24v617q0 13 6 18.5t23 5.5h138q14 0 21 -5t7.5 -8
t0.5 -11v-617v-1q0 -7 -1 -10.5t-8 -8t-20 -4.5h-138q-17 0 -23 5.5t-6 18.5z" />
    <glyph glyph-name="Idieresis" unicode="&#xcf;" horiz-adv-x="284" 
d="M37 715q-49 0 -67 20.5t-18 62.5q0 40 19.5 60t65.5 20q49 0 68 -19t19 -61t-19 -62.5t-68 -20.5zM250 715q-49 0 -67.5 20.5t-18.5 62.5q0 40 20 60t66 20q49 0 67.5 -18.5t18.5 -61.5q0 -42 -18.5 -62.5t-67.5 -20.5zM44 24v617q0 13 6 18.5t23 5.5h138q14 0 21 -5
t7.5 -8t0.5 -11v-617v-1q0 -7 -1 -10.5t-8 -8t-20 -4.5h-138q-17 0 -23 5.5t-6 18.5z" />
    <glyph glyph-name="Eth" unicode="&#xd0;" horiz-adv-x="592" 
d="M278 0h-205q-17 0 -23 5.5t-6 18.5v257h-12q-15 0 -20 4.5t-5 15.5v69q0 23 25 23h12v248q0 13 6 18.5t23 5.5h205q279 0 279 -331q0 -334 -279 -334zM354 327q0 90 -20.5 133.5t-69.5 43.5h-25v-111h50q14 0 18.5 -5t4.5 -17v-65q0 -9 -1 -13t-6 -8t-16 -4h-50v-120h19
q96 0 96 166z" />
    <glyph glyph-name="Ntilde" unicode="&#xd1;" horiz-adv-x="599" 
d="M361 376l3 1v264v1q0 23 29 23h132q18 0 24 -5.5t6 -18.5v-614q0 -9 -1 -13.5t-7.5 -9t-19.5 -4.5h-98q-36 0 -52 28l-85 147q-7 11 -54 101l-3 -1v-251v-1q0 -7 -1 -10.5t-8 -8t-20 -4.5h-133q-17 0 -23 5.5t-6 18.5v617q0 13 6 18.5t23 5.5h97q19 0 28 -4q9 -3 11.5 -5
t7.5 -11q1 -3 2 -4l95 -172q40 -71 47 -93zM182 731q-8 -13 -13 -14t-23 9l-45 28q-11 11 -7 22q48 121 134 121q35 0 86 -27q52 -26 63 -26q20 0 46 35q9 13 15 14t18 -8l46 -33q17 -11 9 -26q-45 -113 -132 -113q-24 0 -81 26q-55 26 -67 26q-25 0 -49 -34z" />
    <glyph glyph-name="Ograve" unicode="&#xd2;" horiz-adv-x="619" 
d="M307 -9q-163 -4 -229 119q-19 30 -28 75q-15 74 -15 156q0 46 4 79q14 103 67 170q29 37 82 60t119 23q132 0 200 -71q57 -58 72 -166q13 -93 1 -189q-14 -114 -68 -176q-69 -80 -205 -80zM382 330q0 97 -16 136t-57 39q-37 0 -52 -40t-15 -135q0 -93 15 -132t52 -39
q39 0 56 40t17 131zM129 832l60 85q14 25 34 8l166 -133q14 -12 7 -28l-43 -58q-10 -16 -32 -5l-182 96q-23 13 -10 35z" />
    <glyph glyph-name="Oacute" unicode="&#xd3;" horiz-adv-x="619" 
d="M307 -9q-163 -4 -229 119q-19 30 -28 75q-15 74 -15 156q0 46 4 79q14 103 67 170q29 37 82 60t119 23q132 0 200 -71q57 -58 72 -166q13 -93 1 -189q-14 -114 -68 -176q-69 -80 -205 -80zM382 330q0 97 -16 136t-57 39q-37 0 -52 -40t-15 -135q0 -93 15 -132t52 -39
q39 0 56 40t17 131zM439 913l58 -86q13 -22 -10 -35l-178 -91q-22 -11 -32 5l-43 59q-7 16 7 28l164 128q20 17 34 -8z" />
    <glyph glyph-name="Ocircumflex" unicode="&#xd4;" horiz-adv-x="619" 
d="M307 -9q-163 -4 -229 119q-19 30 -28 75q-15 74 -15 156q0 46 4 79q14 103 67 170q29 37 82 60t119 23q132 0 200 -71q57 -58 72 -166q13 -93 1 -189q-14 -114 -68 -176q-69 -80 -205 -80zM382 330q0 97 -16 136t-57 39q-37 0 -52 -40t-15 -135q0 -93 15 -132t52 -39
q39 0 56 40t17 131zM431 700l-126 86l-112 -83q-16 -13 -23 -13.5t-20 11.5l-34 39q-8 10 -8.5 15t8.5 17l114 120l10 10t8 6t12.5 4.5t16.5 0.5h62q15 0 23 -2t10 -4l12 -12l117 -122q13 -13 -1 -32l-35 -40q-11 -9 -16.5 -9t-17.5 8z" />
    <glyph glyph-name="Otilde" unicode="&#xd5;" horiz-adv-x="619" 
d="M307 -9q-163 -4 -229 119q-19 30 -28 75q-15 74 -15 156q0 46 4 79q14 103 67 170q29 37 82 60t119 23q132 0 200 -71q57 -58 72 -166q13 -93 1 -189q-14 -114 -68 -176q-69 -80 -205 -80zM382 330q0 97 -16 136t-57 39q-37 0 -52 -40t-15 -135q0 -93 15 -132t52 -39
q39 0 56 40t17 131zM187 732q-8 -13 -13 -14t-23 9l-45 28q-12 11 -7 22q48 121 134 121q35 0 86 -27q52 -26 63 -26q20 0 46 35q9 13 15 14t18 -8l46 -33q17 -11 9 -26q-45 -113 -132 -113q-24 0 -81 26q-55 26 -67 26q-25 0 -49 -34z" />
    <glyph glyph-name="Odieresis" unicode="&#xd6;" horiz-adv-x="619" 
d="M307 -9q-163 -4 -229 119q-19 30 -28 75q-15 74 -15 156q0 46 4 79q14 103 67 170q29 37 82 60t119 23q132 0 200 -71q57 -58 72 -166q13 -93 1 -189q-14 -114 -68 -176q-69 -80 -205 -80zM382 330q0 97 -16 136t-57 39q-37 0 -52 -40t-15 -135q0 -93 15 -132t52 -39
q39 0 56 40t17 131zM203 715q-49 0 -67 20.5t-18 62.5q0 40 19.5 60t65.5 20q49 0 68 -19t19 -61t-19 -62.5t-68 -20.5zM416 715q-49 0 -67.5 20.5t-18.5 62.5q0 40 20 60t66 20q49 0 67.5 -18.5t18.5 -61.5q0 -42 -18.5 -62.5t-67.5 -20.5z" />
    <glyph glyph-name="multiply" unicode="&#xd7;" horiz-adv-x="536" 
d="M201 533l84 -96l83 93q21 24 46 -1l68 -70q16 -18 0 -34l-97 -104l94 -108q15 -19 -1 -35h1l-68 -65q-23 -26 -44 0l-82 93q-13 -16 -45 -48l-42 -45q-16 -14 -23.5 -13.5t-20.5 13.5q-5 6 -32 33q-31 33 -34 37h1q-15 18 -2 34l96 104l-94 110q-14 17 0 32l67 69
q22 25 45 1z" />
    <glyph glyph-name="Oslash" unicode="&#xd8;" horiz-adv-x="619" 
d="M585 341q0 -107 -27 -186q-16 -47 -46 -84q-69 -80 -205 -80q-98 0 -161 42l-18 -28q-8 -12 -14.5 -13.5t-17.5 6.5l-15 10q-13 9 -3 25l26 38q-69 83 -69 270q0 93 26 165q17 50 45 84q29 37 82 60t119 23q103 0 168 -45l18 27q8 12 14 13.5t17 -5.5l12 -8
q11 -8 11.5 -12.5t-6.5 -15.5l-24 -36q68 -83 68 -250zM382 330q0 13 -2 55l-124 -186q16 -40 53 -40q39 0 56 40t17 131zM242 330q0 -40 1 -50l123 185q-16 40 -57 40q-37 0 -52 -40t-15 -135z" />
    <glyph glyph-name="Ugrave" unicode="&#xd9;" horiz-adv-x="590" 
d="M294 158q57 0 57 91l-1 392q0 8 1.5 12.5t8.5 8t20 3.5h136q14 0 21 -5t7.5 -8t0.5 -11v-390q0 -75 -18 -125q-25 -69 -86.5 -102.5t-146.5 -33.5q-132 0 -192 74q-58 73 -58 187v390q0 24 30 24h137q14 0 21 -5t7.5 -8t0.5 -11v-392q0 -91 54 -91zM102 832l60 85
q14 25 34 8l166 -133q14 -12 7 -28l-43 -58q-10 -16 -32 -5l-182 96q-23 13 -10 35z" />
    <glyph glyph-name="Uacute" unicode="&#xda;" horiz-adv-x="590" 
d="M294 158q57 0 57 91l-1 392q0 8 1.5 12.5t8.5 8t20 3.5h136q14 0 21 -5t7.5 -8t0.5 -11v-390q0 -75 -18 -125q-25 -69 -86.5 -102.5t-146.5 -33.5q-132 0 -192 74q-58 73 -58 187v390q0 24 30 24h137q14 0 21 -5t7.5 -8t0.5 -11v-392q0 -91 54 -91zM429 913l58 -86
q13 -22 -10 -35l-178 -91q-22 -11 -32 5l-43 59q-7 16 7 28l164 128q20 17 34 -8z" />
    <glyph glyph-name="Ucircumflex" unicode="&#xdb;" horiz-adv-x="590" 
d="M294 158q57 0 57 91l-1 392q0 8 1.5 12.5t8.5 8t20 3.5h136q14 0 21 -5t7.5 -8t0.5 -11v-390q0 -75 -18 -125q-25 -69 -86.5 -102.5t-146.5 -33.5q-132 0 -192 74q-58 73 -58 187v390q0 24 30 24h137q14 0 21 -5t7.5 -8t0.5 -11v-392q0 -91 54 -91zM421 700l-126 86
l-112 -83q-16 -13 -23 -13.5t-20 11.5l-34 39q-8 10 -8.5 15t8.5 17l114 120l10 10t8 6t12.5 4.5t16.5 0.5h62q15 0 23 -2t10 -4l12 -12l117 -122q13 -13 -1 -32l-35 -40q-11 -9 -16.5 -9t-17.5 8z" />
    <glyph glyph-name="Udieresis" unicode="&#xdc;" horiz-adv-x="590" 
d="M294 158q57 0 57 91l-1 392q0 8 1.5 12.5t8.5 8t20 3.5h136q14 0 21 -5t7.5 -8t0.5 -11v-390q0 -75 -18 -125q-25 -69 -86.5 -102.5t-146.5 -33.5q-132 0 -192 74q-58 73 -58 187v390q0 24 30 24h137q14 0 21 -5t7.5 -8t0.5 -11v-392q0 -91 54 -91zM188 715
q-49 0 -67 20.5t-18 62.5q0 40 19.5 60t65.5 20q49 0 68 -19t19 -61t-19 -62.5t-68 -20.5zM401 715q-49 0 -67.5 20.5t-18.5 62.5q0 40 20 60t66 20q49 0 67.5 -18.5t18.5 -61.5q0 -42 -18.5 -62.5t-67.5 -20.5z" />
    <glyph glyph-name="Yacute" unicode="&#xdd;" horiz-adv-x="612" 
d="M307 399h8q19 61 41 117l44 114q9 22 18.5 29t34.5 7h132q15 0 22 -7.5t2 -17.5l-206 -421h1v-196v-1q0 -7 -1 -10.5t-8 -8t-20 -4.5h-138q-17 0 -23 5.5t-6 18.5v196h1l-194 416q-6 13 0.5 21.5t23.5 8.5h130q24 0 33.5 -5.5t17.5 -23.5l47 -121q24 -65 40 -117z
M438 913l58 -86q13 -22 -10 -35l-178 -91q-22 -11 -32 5l-43 59q-7 16 7 28l164 128q20 17 34 -8z" />
    <glyph glyph-name="Thorn" unicode="&#xde;" horiz-adv-x="522" 
d="M295 128h-55v-104v-2q0 -7 -1 -10.5t-7 -7.5t-19 -4h-141q-17 0 -22.5 5.5t-5.5 18.5v617q0 13 5.5 18.5t22.5 5.5h141q14 -2 20.5 -5.5t6.5 -8v-10.5v-81h55q95 0 156 -55q62 -56 62 -158q0 -82 -41 -144q-22 -35 -68.5 -55t-108.5 -20zM312 342q0 57 -43 57h-29v-115
h29q43 0 43 58z" />
    <glyph glyph-name="germandbls" unicode="&#xdf;" horiz-adv-x="516" 
d="M402 403v-5q89 -47 89 -176q0 -239 -178 -239q-22 0 -36 2q-37 3 -36 33l4 92q2 13 5 14l6 3l2 1q6 0 9 3q19 9 27.5 31.5t8.5 71.5q0 25 -2 43q-1 15 -11 27t-28 16q-26 5 -26 18v63q0 18 22 27t22 78q0 56 -33 56q-13 0 -22 -12.5t-9 -33.5v-492q0 -24 -31 -24h-123
q-32 0 -32 24v463q0 110 62 169q63 60 149 60q92 0 150 -49q60 -49 60 -139q0 -85 -49 -125z" />
    <glyph glyph-name="agrave" unicode="&#xe0;" horiz-adv-x="522" 
d="M279 149v46h-46q-24 0 -24 -41q0 -27 15 -27q27 0 55 22zM305 45l-3 1q-28 -27 -69 -40.5t-76 -13.5q-86 0 -113 50q-23 43 -23 101q-1 87 46 126.5t135 39.5h80v8q0 23 -11 32t-43 9t-109 -9q-28 -5 -38 -1.5t-14 21.5l-12 64q-5 28 41 47q66 26 157 26q134 0 174 -51
q37 -46 37 -144v-128q0 -32 4 -40t19 -10q18 -2 24 -6t6 -14v-82q0 -19 -37 -29q-30 -8 -67 -8q-85 0 -108 51zM129 737l77 67q21 18 35 -3l114 -174q11 -18 -3 -29l-54 -46q-14 -12 -31 5l-139 143q-20 20 1 37z" />
    <glyph glyph-name="aacute" unicode="&#xe1;" horiz-adv-x="522" 
d="M279 149v46h-46q-24 0 -24 -41q0 -27 15 -27q27 0 55 22zM305 45l-3 1q-28 -27 -69 -40.5t-76 -13.5q-86 0 -113 50q-23 43 -23 101q-1 87 46 126.5t135 39.5h80v8q0 23 -11 32t-43 9t-109 -9q-28 -5 -38 -1.5t-14 21.5l-12 64q-5 28 41 47q66 26 157 26q134 0 174 -51
q37 -46 37 -144v-128q0 -32 4 -40t19 -10q18 -2 24 -6t6 -14v-82q0 -19 -37 -29q-30 -8 -67 -8q-85 0 -108 51zM324 810l83 -60q23 -14 5 -36l-125 -152q-17 -20 -31 -8l-58 37q-15 11 -5 28l97 184q11 23 34 7z" />
    <glyph glyph-name="acircumflex" unicode="&#xe2;" horiz-adv-x="522" 
d="M279 149v46h-46q-24 0 -24 -41q0 -27 15 -27q27 0 55 22zM305 45l-3 1q-28 -27 -69 -40.5t-76 -13.5q-86 0 -113 50q-23 43 -23 101q-1 87 46 126.5t135 39.5h80v8q0 23 -11 32t-43 9t-109 -9q-28 -5 -38 -1.5t-14 21.5l-12 64q-5 28 41 47q66 26 157 26q134 0 174 -51
q37 -46 37 -144v-128q0 -32 4 -40t19 -10q18 -2 24 -6t6 -14v-82q0 -19 -37 -29q-30 -8 -67 -8q-85 0 -108 51zM380 545l-117 94l-113 -94q-25 -22 -42 -2l-36 41q-8 10 -8.5 15t7.5 17l117 140q7 9 10 12t12 6t24 3h63q16 0 24.5 -2t10.5 -4t10 -12l118 -144
q9 -12 8.5 -17.5t-9.5 -14.5l-37 -40q-15 -12 -21 -11t-21 13z" />
    <glyph glyph-name="atilde" unicode="&#xe3;" horiz-adv-x="522" 
d="M279 149v46h-46q-24 0 -24 -41q0 -27 15 -27q27 0 55 22zM305 45l-3 1q-28 -27 -69 -40.5t-76 -13.5q-86 0 -113 50q-23 43 -23 101q-1 87 46 126.5t135 39.5h80v8q0 23 -11 32t-43 9t-109 -9q-28 -5 -38 -1.5t-14 21.5l-12 64q-5 28 41 47q66 26 157 26q134 0 174 -51
q37 -46 37 -144v-128q0 -32 4 -40t19 -10q18 -2 24 -6t6 -14v-82q0 -19 -37 -29q-30 -8 -67 -8q-85 0 -108 51zM136 582q-8 -13 -13 -14t-23 9l-45 28q-11 11 -7 22q48 121 134 121q35 0 86 -27q52 -26 63 -26q20 0 46 35q9 13 15 14t18 -8l46 -33q17 -11 9 -26
q-45 -113 -132 -113q-24 0 -81 26q-55 26 -67 26q-25 0 -49 -34z" />
    <glyph glyph-name="adieresis" unicode="&#xe4;" horiz-adv-x="522" 
d="M279 149v46h-46q-24 0 -24 -41q0 -27 15 -27q27 0 55 22zM305 45l-3 1q-28 -27 -69 -40.5t-76 -13.5q-86 0 -113 50q-23 43 -23 101q-1 87 46 126.5t135 39.5h80v8q0 23 -11 32t-43 9t-109 -9q-28 -5 -38 -1.5t-14 21.5l-12 64q-5 28 41 47q66 26 157 26q134 0 174 -51
q37 -46 37 -144v-128q0 -32 4 -40t19 -10q18 -2 24 -6t6 -14v-82q0 -19 -37 -29q-30 -8 -67 -8q-85 0 -108 51zM159 547q-49 0 -67 20t-18 63q0 41 19 60.5t66 19.5q48 0 67.5 -19t19.5 -61t-19 -62.5t-68 -20.5zM276 630q0 40 19.5 60t65.5 20q50 0 68.5 -18.5t18.5 -61.5
q0 -42 -19 -62.5t-68 -20.5q-48 0 -66.5 20.5t-18.5 62.5z" />
    <glyph glyph-name="aring" unicode="&#xe5;" horiz-adv-x="522" 
d="M279 149v46h-46q-24 0 -24 -41q0 -27 15 -27q27 0 55 22zM305 45l-3 1q-28 -27 -69 -40.5t-76 -13.5q-86 0 -113 50q-23 43 -23 101q-1 87 46 126.5t135 39.5h80v8q0 23 -11 32t-43 9t-109 -9q-28 -5 -38 -1.5t-14 21.5l-12 64q-5 28 41 47q66 26 157 26q134 0 174 -51
q37 -46 37 -144v-128q0 -32 4 -40t19 -10q18 -2 24 -6t6 -14v-82q0 -19 -37 -29q-30 -8 -67 -8q-85 0 -108 51zM269 805q55 0 92 -39q39 -38 39 -89q0 -53 -39 -91q-37 -37 -92 -37q-53 0 -94 36q-40 37 -40 92t40 91q40 37 94 37zM225 677q0 -21 12.5 -33.5t31.5 -12.5
q29 0 40.5 28.5t-9.5 49.5q-20 20 -47.5 9t-27.5 -41z" />
    <glyph glyph-name="ae" unicode="&#xe6;" horiz-adv-x="747" 
d="M662 202h-186q3 -26 14 -39t23 -15t37 -3q35 0 92 9q28 4 35.5 0t11.5 -26l9 -59q2 -14 1 -23t-9 -16.5t-28 -16.5q-56 -22 -144 -22q-118 0 -174 60q-71 -59 -172 -59q-92 0 -122 50q-22 43 -22 101q-1 87 46 126.5t135 39.5h80v8q0 23 -11 32t-43 9q-35 0 -109 -9
q-28 -5 -38 -1.5t-14 21.5l-12 64q-5 28 41 47q66 26 157 26q96 0 137 -47q38 47 121 47q207 0 207 -231q0 -73 -63 -73zM295 149q-1 7 -7 53h-38q-35 0 -35 -45q0 -27 24 -27q30 0 56 19zM479 310h57q2 57 -28 57q-29 0 -29 -57z" />
    <glyph glyph-name="ccedilla" unicode="&#xe7;" horiz-adv-x="437" 
d="M238 -138q0 20 -18 26q-5 1 -47 6q-22 1 -15 26l23 77q-97 18 -130 95q-27 66 -27 158q0 256 221 256q90 0 144 -26q33 -16 28 -45l-12 -77q-3 -18 -10 -21t-34 -1q-70 7 -88 7q-62 0 -62 -90q0 -56 13 -78t46 -22q31 0 97 8q25 4 31 1.5t10 -22.5l11 -70q2 -13 1 -22
t-9.5 -17t-27.5 -17q-45 -17 -120 -22l-13 -41q53 -3 74.5 -25.5t21.5 -62.5q0 -52 -36.5 -84t-105.5 -32q-53 0 -83 12q-14 7 -13 19l6 39q1 14 21 10q21 -4 59 -4q44 0 44 39z" />
    <glyph glyph-name="egrave" unicode="&#xe8;" horiz-adv-x="481" 
d="M398 207h-186q4 -36 21 -49t53 -13q35 0 92 9q29 5 36.5 1t10.5 -27l9 -59q2 -14 1 -23t-9 -16.5t-28 -16.5q-56 -22 -144 -22q-69 0 -116.5 19.5t-71 56.5t-33 78.5t-9.5 97.5q0 263 220 263q104 0 159 -51q24 -23 37 -54q22 -50 22 -126q0 -36 -14.5 -52t-49.5 -16z
M215 310h57q2 57 -28 57q-29 0 -29 -57zM109 737l77 67q21 18 35 -3l114 -174q11 -18 -3 -29l-54 -46q-14 -12 -31 5l-139 143q-20 20 1 37z" />
    <glyph glyph-name="eacute" unicode="&#xe9;" horiz-adv-x="481" 
d="M398 207h-186q4 -36 21 -49t53 -13q35 0 92 9q29 5 36.5 1t10.5 -27l9 -59q2 -14 1 -23t-9 -16.5t-28 -16.5q-56 -22 -144 -22q-69 0 -116.5 19.5t-71 56.5t-33 78.5t-9.5 97.5q0 263 220 263q104 0 159 -51q24 -23 37 -54q22 -50 22 -126q0 -36 -14.5 -52t-49.5 -16z
M215 310h57q2 57 -28 57q-29 0 -29 -57zM308 810l83 -60q23 -14 5 -36l-125 -152q-17 -20 -31 -8l-58 37q-15 11 -5 28l97 184q11 23 34 7z" />
    <glyph glyph-name="ecircumflex" unicode="&#xea;" horiz-adv-x="481" 
d="M398 207h-186q4 -36 21 -49t53 -13q35 0 92 9q29 5 36.5 1t10.5 -27l9 -59q2 -14 1 -23t-9 -16.5t-28 -16.5q-56 -22 -144 -22q-69 0 -116.5 19.5t-71 56.5t-33 78.5t-9.5 97.5q0 263 220 263q104 0 159 -51q24 -23 37 -54q22 -50 22 -126q0 -36 -14.5 -52t-49.5 -16z
M215 310h57q2 57 -28 57q-29 0 -29 -57zM361 545l-117 94l-113 -94q-25 -22 -42 -2l-36 41q-8 10 -8.5 15t7.5 17l117 140q7 9 10 12t12 6t24 3h63q16 0 24.5 -2t10.5 -4t10 -12l118 -144q9 -12 8.5 -17.5t-9.5 -14.5l-37 -40q-15 -12 -21 -11t-21 13z" />
    <glyph glyph-name="edieresis" unicode="&#xeb;" horiz-adv-x="481" 
d="M398 207h-186q4 -36 21 -49t53 -13q35 0 92 9q29 5 36.5 1t10.5 -27l9 -59q2 -14 1 -23t-9 -16.5t-28 -16.5q-56 -22 -144 -22q-69 0 -116.5 19.5t-71 56.5t-33 78.5t-9.5 97.5q0 263 220 263q104 0 159 -51q24 -23 37 -54q22 -50 22 -126q0 -36 -14.5 -52t-49.5 -16z
M215 310h57q2 57 -28 57q-29 0 -29 -57zM144 547q-49 0 -67 20t-18 63q0 41 19 60.5t66 19.5q48 0 67.5 -19t19.5 -61t-19 -62.5t-68 -20.5zM261 630q0 40 19.5 60t65.5 20q50 0 68.5 -18.5t18.5 -61.5q0 -42 -19 -62.5t-68 -20.5q-48 0 -66.5 20.5t-18.5 62.5z" />
    <glyph glyph-name="igrave" unicode="&#xec;" horiz-adv-x="288" 
d="M258 473v-449q0 -24 -23 -24h-141q-24 0 -24 24v449q0 24 24 24h141q23 0 23 -24zM0 737l77 67q21 18 35 -3l114 -174q11 -18 -3 -29l-54 -46q-14 -12 -31 5l-139 143q-20 20 1 37z" />
    <glyph glyph-name="iacute" unicode="&#xed;" horiz-adv-x="288" 
d="M238 473v-449q0 -24 -23 -24h-141q-24 0 -24 24v449q0 24 24 24h141q23 0 23 -24zM197 810l83 -60q23 -14 5 -36l-125 -152q-17 -20 -31 -8l-58 37q-15 11 -5 28l97 184q11 23 34 7z" />
    <glyph glyph-name="icircumflex" unicode="&#xee;" horiz-adv-x="288" 
d="M265 545l-117 94l-113 -94q-25 -22 -42 -2l-36 41q-8 10 -8.5 15t7.5 17l117 140q7 9 10 12t12 6t24 3h63q16 0 24.5 -2t10.5 -4t10 -12l118 -144q9 -12 8.5 -17.5t-9.5 -14.5l-37 -40q-15 -12 -21 -11t-21 13zM239 473v-449q0 -24 -23 -24h-141q-24 0 -24 24v449
q0 24 24 24h141q23 0 23 -24z" />
    <glyph glyph-name="idieresis" unicode="&#xef;" horiz-adv-x="288" 
d="M45 547q-49 0 -67 20t-18 63q0 41 19 60.5t66 19.5q49 0 68 -19t19 -61t-19 -62.5t-68 -20.5zM162 630q0 40 19.5 60t65.5 20q50 0 68.5 -18.5t18.5 -61.5q0 -42 -19 -62.5t-68 -20.5q-48 0 -66.5 20.5t-18.5 62.5zM238 473v-449q0 -24 -23 -24h-141q-24 0 -24 24v449
q0 24 24 24h141q23 0 23 -24z" />
    <glyph glyph-name="eth" unicode="&#xf0;" horiz-adv-x="503" 
d="M246 345q-36 0 -36 -98q0 -53 9.5 -75t31.5 -22q42 0 42 118q0 36 -6 66q-20 11 -41 11zM272 489l2 5q-13 37 -33 61l-56 -30q-21 -13 -28 4l-13 26q-4 10 11 18l44 25q-19 19 -40 35q-25 20 -31 28t0 19l26 43q10 18 16.5 20.5t33.5 -3.5q69 -27 112 -67l59 34
q13 7 17.5 6t11.5 -16l10 -19q6 -13 -8 -21l-46 -27q114 -120 116 -317q0 -30 -2 -72q-7 -91 -33 -140q-24 -50 -73 -81t-124 -29q-52 0 -91.5 15t-63.5 39.5t-39 58.5t-20.5 67t-5.5 71q0 71 19 124q20 57 69 92.5t119 35.5q13 0 41 -5z" />
    <glyph glyph-name="ntilde" unicode="&#xf1;" horiz-adv-x="507" 
d="M218 473v-14l4 -1q52 47 116 47q76 0 111 -46q16 -19 23 -49q11 -40 11 -108v-278q0 -5 -0.5 -7.5t-2.5 -7t-8 -7t-16 -2.5h-131q-28 0 -28 24v266q0 44 -33 44q-19 0 -46 -13v-297q0 -5 -0.5 -7.5t-2.5 -7t-8 -7t-16 -2.5h-130q-17 0 -23 5.5t-6 18.5v449q0 13 6 18.5
t23 5.5h134q23 0 23 -24zM119 582q-8 -13 -13 -14t-23 9l-45 28q-11 11 -7 22q48 121 134 121q35 0 86 -27q52 -26 63 -26q20 0 46 35q9 13 15 14t18 -8l46 -33q17 -11 9 -26q-45 -113 -132 -113q-24 0 -81 26q-55 26 -67 26q-25 0 -49 -34z" />
    <glyph glyph-name="ograve" unicode="&#xf2;" horiz-adv-x="497" 
d="M473 255q0 -83 -20 -138q-39 -121 -208 -125q-113 0 -167 61q-20 23 -35 64q-19 58 -19 138q0 72 21 125q42 123 200 126q228 0 228 -251zM285 249q0 56 -7.5 77t-30.5 21q-36 0 -36 -98q0 -54 7.5 -76.5t26.5 -22.5q23 0 31.5 23t8.5 76zM102 737l77 67q21 18 35 -3
l114 -174q11 -18 -3 -29l-54 -46q-14 -12 -31 5l-139 143q-20 20 1 37z" />
    <glyph glyph-name="oacute" unicode="&#xf3;" horiz-adv-x="497" 
d="M473 255q0 -83 -20 -138q-39 -121 -208 -125q-113 0 -167 61q-20 23 -35 64q-19 58 -19 138q0 72 21 125q42 123 200 126q228 0 228 -251zM285 249q0 56 -7.5 77t-30.5 21q-36 0 -36 -98q0 -54 7.5 -76.5t26.5 -22.5q23 0 31.5 23t8.5 76zM320 810l83 -60q23 -14 5 -36
l-125 -152q-17 -20 -31 -8l-58 37q-15 11 -5 28l97 184q11 23 34 7z" />
    <glyph glyph-name="ocircumflex" unicode="&#xf4;" horiz-adv-x="497" 
d="M473 255q0 -83 -20 -138q-39 -121 -208 -125q-113 0 -167 61q-20 23 -35 64q-19 58 -19 138q0 72 21 125q42 123 200 126q228 0 228 -251zM285 249q0 56 -7.5 77t-30.5 21q-36 0 -36 -98q0 -54 7.5 -76.5t26.5 -22.5q23 0 31.5 23t8.5 76zM366 545l-117 94l-113 -94
q-25 -22 -42 -2l-36 41q-8 10 -8.5 15t7.5 17l117 140q7 9 10 12t12 6t24 3h63q16 0 24.5 -2t10.5 -4t10 -12l118 -144q9 -12 8.5 -17.5t-9.5 -14.5l-37 -40q-15 -12 -21 -11t-21 13z" />
    <glyph glyph-name="otilde" unicode="&#xf5;" horiz-adv-x="497" 
d="M473 255q0 -83 -20 -138q-39 -121 -208 -125q-113 0 -167 61q-20 23 -35 64q-19 58 -19 138q0 72 21 125q42 123 200 126q228 0 228 -251zM285 249q0 56 -7.5 77t-30.5 21q-36 0 -36 -98q0 -54 7.5 -76.5t26.5 -22.5q23 0 31.5 23t8.5 76zM126 582q-8 -13 -13 -14t-23 9
l-45 28q-12 11 -7 22q48 121 134 121q35 0 86 -27q52 -26 63 -26q20 0 46 35q9 13 15 14t18 -8l46 -33q17 -11 9 -26q-45 -113 -132 -113q-24 0 -81 26q-55 26 -67 26q-25 0 -49 -34z" />
    <glyph glyph-name="odieresis" unicode="&#xf6;" horiz-adv-x="497" 
d="M473 255q0 -83 -20 -138q-39 -121 -208 -125q-113 0 -167 61q-20 23 -35 64q-19 58 -19 138q0 72 21 125q42 123 200 126q228 0 228 -251zM285 249q0 56 -7.5 77t-30.5 21q-36 0 -36 -98q0 -54 7.5 -76.5t26.5 -22.5q23 0 31.5 23t8.5 76zM150 547q-49 0 -67 20t-18 63
q0 41 19 60.5t66 19.5q48 0 67.5 -19t19.5 -61t-19 -62.5t-68 -20.5zM267 630q0 40 19.5 60t65.5 20q50 0 68.5 -18.5t18.5 -61.5q0 -42 -19 -62.5t-68 -20.5q-48 0 -66.5 20.5t-18.5 62.5z" />
    <glyph glyph-name="divide" unicode="&#xf7;" horiz-adv-x="536" 
d="M458 256h-379q-30 0 -30 25v86q0 24 30 24h379q17 0 23 -5t6 -18v-87q0 -15 -5.5 -20t-23.5 -5zM266 423q-52 0 -71.5 21.5t-19.5 66.5q0 43 20.5 64t70.5 21q51 0 71 -20t20 -65t-20 -66.5t-71 -21.5zM266 45q-52 0 -71.5 21.5t-19.5 66.5q0 43 20.5 64t70.5 21
q51 0 71 -20t20 -65t-20 -66.5t-71 -21.5z" />
    <glyph glyph-name="oslash" unicode="&#xf8;" horiz-adv-x="497" 
d="M473 255q0 -83 -20 -138q-39 -121 -208 -125q-75 0 -122 26l-10 -15q-7 -11 -12.5 -11.5t-16.5 8.5l-5 3q-8 6 -9 10.5t4 12.5l13 19q-63 61 -63 210q0 72 21 125q42 123 200 126q79 0 130 -30l13 20q10 15 24 4l7 -5q10 -7 10.5 -11t-7.5 -15l-12 -19q63 -62 63 -195z
M211 249v-18l65 97q-9 19 -29 19q-36 0 -36 -98zM285 249v13l-64 -96q7 -16 24 -16q23 0 31.5 23t8.5 76z" />
    <glyph glyph-name="ugrave" unicode="&#xf9;" horiz-adv-x="499" 
d="M286 24v22l-5 1q-51 -55 -118 -55q-54 0 -80 18q-13 9 -18 13t-12 13t-11 20q-13 38 -15 64q-1 16 -1 35v37v281q0 5 0.5 7.5t2.5 7t8.5 7t16.5 2.5h128q17 0 23 -5.5t6 -18.5v-246q0 -35 7.5 -47.5t25.5 -12.5q12 0 42 14v294q0 22 31 22h126q17 0 22.5 -5.5t5.5 -18.5
v-449q0 -13 -5 -18.5t-22 -5.5h-132q-19 3 -23 8t-3 16zM91 737l77 67q21 18 35 -3l114 -174q11 -18 -3 -29l-54 -46q-14 -12 -31 5l-139 143q-20 20 1 37z" />
    <glyph glyph-name="uacute" unicode="&#xfa;" horiz-adv-x="499" 
d="M286 24v22l-5 1q-51 -55 -118 -55q-54 0 -80 18q-13 9 -18 13t-12 13t-11 20q-13 38 -15 64q-1 16 -1 35v37v281q0 5 0.5 7.5t2.5 7t8.5 7t16.5 2.5h128q17 0 23 -5.5t6 -18.5v-246q0 -35 7.5 -47.5t25.5 -12.5q12 0 42 14v294q0 22 31 22h126q17 0 22.5 -5.5t5.5 -18.5
v-449q0 -13 -5 -18.5t-22 -5.5h-132q-19 3 -23 8t-3 16zM305 810l83 -60q23 -14 5 -36l-125 -152q-17 -20 -31 -8l-58 37q-15 11 -5 28l97 184q11 23 34 7z" />
    <glyph glyph-name="ucircumflex" unicode="&#xfb;" horiz-adv-x="499" 
d="M286 24v22l-5 1q-51 -55 -118 -55q-54 0 -80 18q-13 9 -18 13t-12 13t-11 20q-13 38 -15 64q-1 16 -1 35v37v281q0 5 0.5 7.5t2.5 7t8.5 7t16.5 2.5h128q17 0 23 -5.5t6 -18.5v-246q0 -35 7.5 -47.5t25.5 -12.5q12 0 42 14v294q0 22 31 22h126q17 0 22.5 -5.5t5.5 -18.5
v-449q0 -13 -5 -18.5t-22 -5.5h-132q-19 3 -23 8t-3 16zM364 545l-117 94l-113 -94q-25 -22 -42 -2l-36 41q-8 10 -8.5 15t7.5 17l117 140q7 9 10 12t12 6t24 3h63q16 0 24.5 -2t10.5 -4t10 -12l118 -144q9 -12 8.5 -17.5t-9.5 -14.5l-37 -40q-15 -12 -21 -11t-21 13z" />
    <glyph glyph-name="udieresis" unicode="&#xfc;" horiz-adv-x="499" 
d="M286 24v22l-5 1q-51 -55 -118 -55q-54 0 -80 18q-13 9 -18 13t-12 13t-11 20q-13 38 -15 64q-1 16 -1 35v37v281q0 5 0.5 7.5t2.5 7t8.5 7t16.5 2.5h128q17 0 23 -5.5t6 -18.5v-246q0 -35 7.5 -47.5t25.5 -12.5q12 0 42 14v294q0 22 31 22h126q17 0 22.5 -5.5t5.5 -18.5
v-449q0 -13 -5 -18.5t-22 -5.5h-132q-19 3 -23 8t-3 16zM151 547q-49 0 -67 20t-18 63q0 41 19 60.5t66 19.5q49 0 68 -19t19 -61t-19 -62.5t-68 -20.5zM268 630q0 40 19.5 60t65.5 20q50 0 68.5 -18.5t18.5 -61.5q0 -42 -19 -62.5t-68 -20.5q-48 0 -66.5 20.5t-18.5 62.5z
" />
    <glyph glyph-name="yacute" unicode="&#xfd;" horiz-adv-x="494" 
d="M252 235h4q10 55 24 108l32 130q3 10 4.5 14t10 7t25.5 3h116q37 0 24 -30l-211 -644q-5 -17 -13 -22t-31 -5h-107q-20 0 -26 6.5t-1 22.5l63 194l-148 449q-9 29 26 29h121q19 0 27.5 -5.5t12.5 -20.5l27 -132q14 -67 20 -104zM324 810l83 -60q23 -14 5 -36l-125 -152
q-17 -20 -31 -8l-58 37q-15 11 -5 28l97 184q11 23 34 7z" />
    <glyph glyph-name="thorn" unicode="&#xfe;" horiz-adv-x="499" 
d="M217 -5l-3 -1v-175q0 -20 -15 -23q-3 -1 -11 -1h-133q-17 0 -22 5.5t-5 18.5v863q0 13 5 18.5t22 5.5h133q13 0 19 -5t6.5 -8t0.5 -11v-222l4 -2q47 47 99 47q97 0 130 -79q29 -70 29 -178q0 -128 -41 -195q-41 -65 -151 -65q-38 0 -67 7zM287 245q0 48 -7 67.5t-23 19.5
q-22 0 -44 -17v-161q13 -6 31 -6q25 0 34 19.5t9 77.5z" />
    <glyph glyph-name="ydieresis" unicode="&#xff;" horiz-adv-x="494" 
d="M252 235h4q10 55 24 108l32 130q3 10 4.5 14t10 7t25.5 3h116q37 0 24 -30l-211 -644q-5 -17 -13 -22t-31 -5h-107q-20 0 -26 6.5t-1 22.5l63 194l-148 449q-9 29 26 29h121q19 0 27.5 -5.5t12.5 -20.5l27 -132q14 -67 20 -104zM161 547q-49 0 -67 20t-18 63
q0 41 19 60.5t66 19.5q49 0 68 -19t19 -61t-19 -62.5t-68 -20.5zM278 630q0 40 19.5 60t65.5 20q50 0 68.5 -18.5t18.5 -61.5q0 -42 -19 -62.5t-68 -20.5q-48 0 -66.5 20.5t-18.5 62.5z" />
    <glyph glyph-name="Amacron" unicode="&#x100;" horiz-adv-x="600" 
d="M367 137h-129l-25 -104q-5 -19 -14 -26t-30 -7h-125q-38 0 -28 34l162 597q5 16 7.5 20.5t12.5 9t32 5.5h145q22 0 32.5 -8t16.5 -28l169 -595q9 -35 -21 -35h-137q-24 0 -32 7.5t-13 31.5zM448 727h-286q-30 0 -30 25v86q0 24 30 24h286q17 0 23 -5t6 -18v-87
q0 -15 -5.5 -20t-23.5 -5zM306 470h-4l-13 -83l-17 -104h60l-15 104q-10 76 -11 83z" />
    <glyph glyph-name="amacron" unicode="&#x101;" horiz-adv-x="522" 
d="M279 149v46h-46q-24 0 -24 -41q0 -27 15 -27q27 0 55 22zM305 45l-3 1q-28 -27 -69 -40.5t-76 -13.5q-86 0 -113 50q-23 43 -23 101q-1 87 46 126.5t135 39.5h80v8q0 23 -11 32t-43 9t-109 -9q-28 -5 -38 -1.5t-14 21.5l-12 64q-5 28 41 47q66 26 157 26q134 0 174 -51
q37 -46 37 -144v-128q0 -32 4 -40t19 -10q18 -2 24 -6t6 -14v-82q0 -19 -37 -29q-30 -8 -67 -8q-85 0 -108 51zM397 560h-286q-30 0 -30 25v86q0 24 30 24h286q17 0 23 -5t6 -18v-87q0 -15 -5.5 -20t-23.5 -5z" />
    <glyph glyph-name="Abreve" unicode="&#x102;" horiz-adv-x="600" 
d="M367 137h-129l-25 -104q-5 -19 -14 -26t-30 -7h-125q-38 0 -28 34l162 597q5 16 7.5 20.5t12.5 9t32 5.5h145q22 0 32.5 -8t16.5 -28l169 -595q9 -35 -21 -35h-137q-24 0 -32 7.5t-13 31.5zM302 696q-58 0 -114 32q-55 31 -79 87q-16 34 2 49l38 37q22 12 28 11t19 -18
q33 -42 55.5 -58t50.5 -16q52 0 100 70q12 17 21.5 18.5t28.5 -10.5l36 -27q11 -7 13.5 -15.5t0 -14.5t-10.5 -22q-31 -58 -80 -90.5t-109 -32.5zM306 470h-4l-13 -83l-17 -104h60l-15 104q-10 76 -11 83z" />
    <glyph glyph-name="abreve" unicode="&#x103;" horiz-adv-x="522" 
d="M279 149v46h-46q-24 0 -24 -41q0 -27 15 -27q27 0 55 22zM305 45l-3 1q-28 -27 -69 -40.5t-76 -13.5q-86 0 -113 50q-23 43 -23 101q-1 87 46 126.5t135 39.5h80v8q0 23 -11 32t-43 9t-109 -9q-28 -5 -38 -1.5t-14 21.5l-12 64q-5 28 41 47q66 26 157 26q134 0 174 -51
q37 -46 37 -144v-128q0 -32 4 -40t19 -10q18 -2 24 -6t6 -14v-82q0 -19 -37 -29q-30 -8 -67 -8q-85 0 -108 51zM258 546q-60 0 -115 33q-55 34 -79 93q-16 34 2 51l38 34q20 14 27 12t20 -19q34 -45 56.5 -61.5t50.5 -16.5q52 0 100 73q13 19 22.5 20.5t28.5 -11.5l36 -23
q11 -7 13.5 -16t0 -16.5t-10.5 -22.5q-29 -62 -79 -96t-111 -34z" />
    <glyph glyph-name="Aogonek" unicode="&#x104;" horiz-adv-x="600" 
d="M474 -88q0 -32 37 -32q15 0 44 8q25 10 31 -8l12 -44q4 -14 -16 -27q-43 -23 -98 -23q-129 0 -129 114q0 54 44 112q-5 8 -9 27l-23 98h-129l-25 -104q-5 -19 -14 -26t-30 -7h-125q-38 0 -28 34l162 597q5 16 7.5 20.5t12.5 9t32 5.5h145q22 0 32.5 -8t16.5 -28l169 -595
q9 -35 -21 -35h-75q-23 -46 -23 -88zM306 470h-4l-13 -83l-17 -104h60l-15 104q-10 76 -11 83z" />
    <glyph glyph-name="aogonek" unicode="&#x105;" horiz-adv-x="522" 
d="M399 -88q0 -32 37 -32q15 0 44 8q25 10 31 -8l12 -44q4 -14 -16 -27q-43 -23 -98 -23q-129 0 -129 114q0 58 46 116q-13 10 -21 29l-3 1q-28 -27 -69 -40.5t-76 -13.5q-86 0 -113 50q-23 43 -23 101q-1 87 46 126.5t135 39.5h80v8q0 23 -11 32t-43 9t-109 -9
q-28 -5 -38 -1.5t-14 21.5l-12 64q-5 28 41 47q66 26 157 26q134 0 174 -51q37 -46 37 -144v-128q0 -32 4 -40t19 -10q18 -2 24 -6t6 -14v-82q0 -19 -37 -29q-26 -7 -61 -8q-20 -43 -20 -82zM279 149v46h-46q-24 0 -24 -41q0 -27 15 -27q27 0 55 22z" />
    <glyph glyph-name="Cacute" unicode="&#x106;" horiz-adv-x="539" 
d="M35 332q0 108 31 187q62 154 248 154q106 0 173 -34q41 -23 36 -54l-13 -71q-4 -18 -14 -22.5t-37 -1.5q-90 9 -126 9q-90 0 -90 -163q0 -94 18 -135q19 -39 71 -39t130 9q27 2 36 -2.5t14 -21.5l15 -65q8 -32 -35 -56q-70 -36 -177 -36q-280 0 -280 342zM426 913l58 -86
q13 -22 -10 -35l-178 -91q-22 -11 -32 5l-43 59q-7 16 7 28l164 128q20 17 34 -8z" />
    <glyph glyph-name="cacute" unicode="&#x107;" horiz-adv-x="437" 
d="M408 140l11 -70q2 -13 1 -22t-9.5 -17t-27.5 -17q-58 -23 -138 -23q-107 0 -162 53q-24 26 -37 60q-22 62 -22 146q0 256 221 256q90 0 144 -26q33 -16 28 -45l-12 -77q-3 -18 -10 -21t-34 -1q-70 7 -88 7q-62 0 -62 -90q0 -56 13 -78t46 -22q31 0 97 8q25 4 31 1.5
t10 -22.5zM292 810l83 -60q23 -14 5 -36l-125 -152q-17 -20 -31 -8l-58 37q-15 11 -5 28l97 184q11 23 34 7z" />
    <glyph glyph-name="Ccircumflex" unicode="&#x108;" horiz-adv-x="539" 
d="M35 332q0 108 31 187q62 154 248 154q106 0 173 -34q41 -23 36 -54l-13 -71q-4 -18 -14 -22.5t-37 -1.5q-90 9 -126 9q-90 0 -90 -163q0 -94 18 -135q19 -39 71 -39t130 9q27 2 36 -2.5t14 -21.5l15 -65q8 -32 -35 -56q-70 -36 -177 -36q-280 0 -280 342zM432 700
l-126 86l-112 -83q-16 -13 -23 -13.5t-20 11.5l-34 39q-8 10 -8.5 15t8.5 17l114 120l10 10t8 6t12.5 4.5t16.5 0.5h62q15 0 23 -2t10 -4l12 -12l117 -122q13 -13 -1 -32l-35 -40q-11 -9 -16.5 -9t-17.5 8z" />
    <glyph glyph-name="ccircumflex" unicode="&#x109;" horiz-adv-x="437" 
d="M408 140l11 -70q2 -13 1 -22t-9.5 -17t-27.5 -17q-58 -23 -138 -23q-107 0 -162 53q-24 26 -37 60q-22 62 -22 146q0 256 221 256q90 0 144 -26q33 -16 28 -45l-12 -77q-3 -18 -10 -21t-34 -1q-70 7 -88 7q-62 0 -62 -90q0 -56 13 -78t46 -22q31 0 97 8q25 4 31 1.5
t10 -22.5zM353 545l-117 94l-113 -94q-25 -22 -42 -2l-36 41q-8 10 -8.5 15t7.5 17l117 140q7 9 10 12t12 6t24 3h63q16 0 24.5 -2t10.5 -4t10 -12l118 -144q9 -12 8.5 -17.5t-9.5 -14.5l-37 -40q-15 -12 -21 -11t-21 13z" />
    <glyph glyph-name="Cdotaccent" unicode="&#x10a;" horiz-adv-x="539" 
d="M35 332q0 108 31 187q62 154 248 154q106 0 173 -34q41 -23 36 -54l-13 -71q-4 -18 -14 -22.5t-37 -1.5q-90 9 -126 9q-90 0 -90 -163q0 -94 18 -135q19 -39 71 -39t130 9q27 2 36 -2.5t14 -21.5l15 -65q8 -32 -35 -56q-70 -36 -177 -36q-280 0 -280 342zM404 808
q0 -89 -93 -89q-51 0 -72 23t-21 66q0 88 93 88q51 0 72 -21.5t21 -66.5z" />
    <glyph glyph-name="cdotaccent" unicode="&#x10b;" horiz-adv-x="437" 
d="M408 140l11 -70q2 -13 1 -22t-9.5 -17t-27.5 -17q-58 -23 -138 -23q-107 0 -162 53q-24 26 -37 60q-22 62 -22 146q0 256 221 256q90 0 144 -26q33 -16 28 -45l-12 -77q-3 -18 -10 -21t-34 -1q-70 7 -88 7q-62 0 -62 -90q0 -56 13 -78t46 -22q31 0 97 8q25 4 31 1.5
t10 -22.5zM330 648q0 -89 -93 -89q-51 0 -72 23t-21 66q0 88 93 88q51 0 72 -21.5t21 -66.5z" />
    <glyph glyph-name="Ccaron" unicode="&#x10c;" horiz-adv-x="539" 
d="M35 332q0 108 31 187q62 154 248 154q106 0 173 -34q41 -23 36 -54l-13 -71q-4 -18 -14 -22.5t-37 -1.5q-90 9 -126 9q-90 0 -90 -163q0 -94 18 -135q19 -39 71 -39t130 9q27 2 36 -2.5t14 -21.5l15 -65q8 -32 -35 -56q-70 -36 -177 -36q-280 0 -280 342zM187 912
l112 -83l126 86q12 9 17.5 9t16.5 -10l35 -40q14 -19 1 -32l-117 -122l-8.5 -8.5t-8 -5.5t-11 -3t-17.5 -1h-62q-18 0 -26.5 4t-20.5 17l-114 120q-9 12 -8.5 17t8.5 15l34 39q13 12 20 11.5t23 -13.5z" />
    <glyph glyph-name="ccaron" unicode="&#x10d;" horiz-adv-x="437" 
d="M409 140l11 -70q2 -13 1 -22t-9.5 -17t-27.5 -17q-58 -23 -138 -23q-107 0 -162 53q-24 26 -37 60q-22 62 -22 146q0 256 221 256q90 0 144 -26q33 -16 28 -45l-12 -77q-3 -18 -10 -21t-34 -1q-70 7 -88 7q-62 0 -62 -90q0 -56 13 -78t46 -22q31 0 97 8q25 4 31 1.5
t10 -22.5zM115 770l112 -94l118 94q22 19 42 2l37 -40q8 -10 8.5 -15t-7.5 -17l-119 -144q-6 -7 -9.5 -10t-12.5 -5.5t-23 -2.5h-63q-14 0 -22.5 2.5t-11 4.5t-9.5 10l-119 144q-12 16 1 32l35 41q13 12 20.5 11t22.5 -13z" />
    <glyph glyph-name="Dcaron" unicode="&#x10e;" horiz-adv-x="592" 
d="M278 0h-205q-17 0 -23 5.5t-6 18.5v617q0 13 6 18.5t23 5.5h205q279 0 279 -331q0 -334 -279 -334zM354 327q0 90 -20.5 133.5t-69.5 43.5h-25v-343h19q96 0 96 166zM141 912l112 -83l126 86q12 9 17.5 9t16.5 -10l35 -40q14 -19 1 -32l-117 -122l-3 -3q-9 -10 -16 -12.5
t-26 -2.5h-62q-18 0 -26.5 4t-20.5 17l-114 120q-9 12 -8.5 17t8.5 15l34 39q13 12 20 11.5t23 -13.5z" />
    <glyph glyph-name="dcaron" unicode="&#x10f;" horiz-adv-x="698" 
d="M283 502l2 3v178q0 24 32 24h121q31 0 31 -24v-658q0 -25 -27 -25h-133q-24 0 -24 23v9h-3q-50 -40 -101 -40q-97 0 -129 75q-28 65 -28 174q0 124 32 191q37 77 157 77q38 0 70 -7zM285 178v165q-17 6 -32 6q-24 0 -33 -20t-9 -79q0 -51 6.5 -69.5t22.5 -18.5
q22 0 45 16zM695 634q0 -56 -31 -105q-30 -49 -72 -75q-27 -16 -46 4l-31 31q-12 15 -11.5 19.5t15.5 22.5q27 30 27 66q0 28 -17 48q-18 18 -18 26q0 9 21 24l61 52q33 24 65 -12q37 -36 37 -101z" />
    <glyph glyph-name="Dcroat" unicode="&#x110;" horiz-adv-x="592" 
d="M278 0h-205q-17 0 -23 5.5t-6 18.5v257h-12q-15 0 -20 4.5t-5 15.5v69q0 23 25 23h12v248q0 13 6 18.5t23 5.5h205q279 0 279 -331q0 -334 -279 -334zM354 327q0 90 -20.5 133.5t-69.5 43.5h-25v-111h50q14 0 18.5 -5t4.5 -17v-65q0 -9 -1 -13t-6 -8t-16 -4h-50v-120h19
q96 0 96 166z" />
    <glyph glyph-name="dslash" unicode="&#x111;" horiz-adv-x="516" 
d="M283 487l2 3v51h-87q-11 0 -14.5 3.5t-3.5 14.5v49q0 12 3 14.5t15 2.5h87v58q0 24 32 24h121q31 0 31 -24v-58h31q10 0 13 -3.5t3 -14.5v-49q0 -10 -3 -13.5t-12 -3.5h-32v-516q0 -25 -27 -25h-133q-24 0 -24 23v9h-3q-50 -40 -108 -40q-91 0 -123 71q-27 63 -27 170
q0 124 32 187q36 74 157 74q38 0 70 -7zM285 178v150q-17 6 -32 6q-24 0 -33 -15t-9 -74q0 -50 6.5 -66.5t22.5 -16.5q22 0 45 16z" />
    <glyph glyph-name="Emacron" unicode="&#x112;" horiz-adv-x="506" 
d="M44 24v617q0 13 5.5 18.5t22.5 5.5h371q27 0 27 -24v-115v-2q0 -8 -0.5 -11t-6 -6t-17.5 -3h-206v-80h182q25 0 25 -20v-115v-4q0 -7 -1 -10.5t-7 -7t-17 -3.5h-182v-103h219q24 0 24 -22v-115q0 -8 -0.5 -12t-7 -8t-19.5 -4h-384q-17 0 -22.5 5.5t-5.5 18.5zM411 727
h-286q-30 0 -30 25v86q0 24 30 24h286q17 0 23 -5t6 -18v-87q0 -15 -5.5 -20t-23.5 -5z" />
    <glyph glyph-name="emacron" unicode="&#x113;" horiz-adv-x="481" 
d="M398 207h-186q4 -36 21 -49t53 -13q35 0 92 9q29 5 36.5 1t10.5 -27l9 -59q2 -14 1 -23t-9 -16.5t-28 -16.5q-56 -22 -144 -22q-69 0 -116.5 19.5t-71 56.5t-33 78.5t-9.5 97.5q0 263 220 263q104 0 159 -51q24 -23 37 -54q22 -50 22 -126q0 -36 -14.5 -52t-49.5 -16z
M215 310h57q2 57 -28 57q-29 0 -29 -57zM384 560h-286q-30 0 -30 25v86q0 24 30 24h286q17 0 23 -5t6 -18v-87q0 -15 -5.5 -20t-23.5 -5z" />
    <glyph glyph-name="Ebreve" unicode="&#x114;" horiz-adv-x="506" 
d="M44 24v617q0 13 5.5 18.5t22.5 5.5h371q27 0 27 -24v-115v-2q0 -8 -0.5 -11t-6 -6t-17.5 -3h-206v-80h182q25 0 25 -20v-115v-4q0 -7 -1 -10.5t-7 -7t-17 -3.5h-182v-103h219q24 0 24 -22v-115q0 -8 -0.5 -12t-7 -8t-19.5 -4h-384q-17 0 -22.5 5.5t-5.5 18.5zM254 696
q-58 0 -114 32q-55 31 -79 87q-16 34 2 49l38 37q22 12 28 11t19 -18q33 -42 55.5 -58t50.5 -16q52 0 100 70q12 17 21.5 18.5t28.5 -10.5l36 -27q11 -7 13.5 -15.5t0 -14.5t-10.5 -22q-31 -58 -80 -90.5t-109 -32.5z" />
    <glyph glyph-name="ebreve" unicode="&#x115;" horiz-adv-x="481" 
d="M398 207h-186q4 -36 21 -49t53 -13q35 0 92 9q29 5 36.5 1t10.5 -27l9 -59q2 -14 1 -23t-9 -16.5t-28 -16.5q-56 -22 -144 -22q-69 0 -116.5 19.5t-71 56.5t-33 78.5t-9.5 97.5q0 263 220 263q104 0 159 -51q24 -23 37 -54q22 -50 22 -126q0 -36 -14.5 -52t-49.5 -16z
M215 310h57q2 57 -28 57q-29 0 -29 -57zM240 546q-59 0 -115 33q-55 34 -79 93q-16 34 2 51l38 34q20 14 27 12t20 -19q34 -45 56.5 -61.5t50.5 -16.5q52 0 100 73q13 19 22.5 20.5t28.5 -11.5l36 -23q11 -7 13.5 -16t0 -16.5t-10.5 -22.5q-29 -62 -79 -96t-111 -34z" />
    <glyph glyph-name="Edotaccent" unicode="&#x116;" horiz-adv-x="506" 
d="M44 24v617q0 13 5.5 18.5t22.5 5.5h371q27 0 27 -24v-115v-2q0 -8 -0.5 -11t-6 -6t-17.5 -3h-206v-80h182q25 0 25 -20v-115v-4q0 -7 -1 -10.5t-7 -7t-17 -3.5h-182v-103h219q24 0 24 -22v-115q0 -8 -0.5 -12t-7 -8t-19.5 -4h-384q-17 0 -22.5 5.5t-5.5 18.5zM356 798
q0 -89 -93 -89q-51 0 -72 23t-21 66q0 88 93 88q51 0 72 -21.5t21 -66.5z" />
    <glyph glyph-name="edotaccent" unicode="&#x117;" horiz-adv-x="481" 
d="M398 207h-186q4 -36 21 -49t53 -13q35 0 92 9q29 5 36.5 1t10.5 -27l9 -59q2 -14 1 -23t-9 -16.5t-28 -16.5q-56 -22 -144 -22q-69 0 -116.5 19.5t-71 56.5t-33 78.5t-9.5 97.5q0 263 220 263q104 0 159 -51q24 -23 37 -54q22 -50 22 -126q0 -36 -14.5 -52t-49.5 -16z
M215 310h57q2 57 -28 57q-29 0 -29 -57zM347 648q0 -89 -93 -89q-51 0 -72 23t-21 66q0 88 93 88q51 0 72 -21.5t21 -66.5z" />
    <glyph glyph-name="Eogonek" unicode="&#x118;" horiz-adv-x="506" 
d="M376 -88q0 -32 37 -32q15 0 44 8q25 10 31 -8l12 -44q4 -14 -16 -27q-43 -23 -98 -23q-129 0 -129 114q0 48 35 100h-220q-17 0 -22.5 5.5t-5.5 18.5v617q0 13 5.5 18.5t22.5 5.5h371q27 0 27 -24v-115v-2q0 -8 -0.5 -11t-6 -6t-17.5 -3h-206v-80h182q25 0 25 -20v-115
v-4q0 -7 -1 -10.5t-7 -7t-17 -3.5h-182v-103h219q24 0 24 -22v-115q0 -8 -0.5 -12t-7 -8t-19.5 -4h-57q-23 -46 -23 -88z" />
    <glyph glyph-name="eogonek" unicode="&#x119;" horiz-adv-x="481" 
d="M354 -88q0 -32 37 -32q15 0 44 8q25 10 31 -8l12 -44q4 -14 -16 -27q-43 -23 -98 -23q-129 0 -129 114q0 45 29 91h-10q-69 0 -116.5 19.5t-71 56.5t-33 78.5t-9.5 97.5q0 263 220 263q104 0 159 -51q24 -23 37 -54q22 -50 22 -126q0 -36 -14.5 -52t-49.5 -16h-186
q4 -36 21 -49t53 -13q35 0 92 9q29 5 36.5 1t10.5 -27l9 -59q2 -14 1 -23t-9 -16.5t-28 -16.5l-17 -6q-27 -50 -27 -95zM215 310h57q2 57 -28 57q-29 0 -29 -57z" />
    <glyph glyph-name="Ecaron" unicode="&#x11a;" horiz-adv-x="506" 
d="M44 24v617q0 13 5.5 18.5t22.5 5.5h371q27 0 27 -24v-115v-2q0 -8 -0.5 -11t-6 -6t-17.5 -3h-206v-80h182q25 0 25 -20v-115v-4q0 -7 -1 -10.5t-7 -7t-17 -3.5h-182v-103h219q24 0 24 -22v-115q0 -8 -0.5 -12t-7 -8t-19.5 -4h-384q-17 0 -22.5 5.5t-5.5 18.5zM151 912
l112 -83l126 86q12 9 17.5 9t16.5 -10l35 -40q14 -19 1 -32l-117 -122l-3 -3q-9 -10 -16 -12.5t-26 -2.5h-62q-18 0 -26.5 4t-20.5 17l-114 120q-9 12 -8.5 17t8.5 15l34 39q13 12 20 11.5t23 -13.5z" />
    <glyph glyph-name="ecaron" unicode="&#x11b;" horiz-adv-x="481" 
d="M398 207h-186q4 -36 21 -49t53 -13q35 0 92 9q29 5 36.5 1t10.5 -27l9 -59q2 -14 1 -23t-9 -16.5t-28 -16.5q-56 -22 -144 -22q-69 0 -116.5 19.5t-71 56.5t-33 78.5t-9.5 97.5q0 263 220 263q104 0 159 -51q24 -23 37 -54q22 -50 22 -126q0 -36 -14.5 -52t-49.5 -16z
M215 310h57q2 57 -28 57q-29 0 -29 -57zM135 770l112 -94l118 94q22 19 42 2l37 -40q8 -10 8.5 -15t-7.5 -17l-119 -144q-6 -7 -9.5 -10t-12.5 -5.5t-23 -2.5h-63q-14 0 -22.5 2.5t-11 4.5t-9.5 10l-119 144q-12 16 1 32l35 41q13 12 20.5 11t22.5 -13z" />
    <glyph glyph-name="Gcircumflex" unicode="&#x11c;" horiz-adv-x="578" 
d="M243 336q0 -95 17 -135.5t65 -40.5q25 0 29 3v87h-34q-26 0 -26 22v99q0 12 5 18t21 6h192q31 0 31 -24q0 -167 -1 -283q-1 -45 -36 -62q-80 -36 -201 -36q-126 0 -193 70q-29 32 -47 78q-30 79 -30 194q0 108 31 187q62 154 248 154q110 0 177 -34q43 -25 36 -54
l-18 -73q-4 -18 -15 -23t-36 1q-70 10 -121 10q-94 0 -94 -164zM439 700l-126 86l-112 -83q-16 -13 -23 -13.5t-20 11.5l-34 39q-8 10 -8.5 15t8.5 17l114 120l10 10t8 6t12.5 4.5t16.5 0.5h62q15 0 23 -2t10 -4l12 -12l117 -122q13 -13 -1 -32l-35 -40q-11 -9 -16.5 -9
t-17.5 8z" />
    <glyph glyph-name="gcircumflex" unicode="&#x11d;" horiz-adv-x="496" 
d="M254 507q114 0 180 -32q34 -18 34 -54v-395q0 -94 -21 -144q-18 -51 -67 -74.5t-145 -26.5q-84 0 -141 24q-26 11 -34.5 21.5t-6.5 26.5l13 71q5 20 13.5 24t32.5 -3q63 -11 114 -11q34 0 46 14t12 50v13q-32 -7 -60 -7q-117 0 -162 70q-38 64 -38 174q0 116 44 183
q51 76 186 76zM214 257q0 -55 9.5 -74t33.5 -19q13 0 27 6v173q-5 3 -23 3q-25 0 -36 -18.5t-11 -70.5zM388 545l-117 94l-113 -94q-25 -22 -42 -2l-36 41q-8 10 -8.5 15t7.5 17l117 140q7 9 10 12t12 6t24 3h63q16 0 24.5 -2t10.5 -4t10 -12l118 -144q9 -12 8.5 -17.5
t-9.5 -14.5l-37 -40q-15 -12 -21 -11t-21 13z" />
    <glyph glyph-name="Gbreve" unicode="&#x11e;" horiz-adv-x="578" 
d="M243 336q0 -95 17 -135.5t65 -40.5q25 0 29 3v87h-34q-26 0 -26 22v99q0 12 5 18t21 6h192q31 0 31 -24q0 -167 -1 -283q-1 -45 -36 -62q-80 -36 -201 -36q-126 0 -193 70q-29 32 -47 78q-30 79 -30 194q0 108 31 187q62 154 248 154q110 0 177 -34q43 -25 36 -54
l-18 -73q-4 -18 -15 -23t-36 1q-70 10 -121 10q-94 0 -94 -164zM309 696q-58 0 -114 32q-55 31 -79 87q-16 34 2 49l38 37q22 12 28 11t19 -18q33 -42 55.5 -58t50.5 -16q52 0 100 70q12 17 21.5 18.5t28.5 -10.5l36 -27q11 -7 13.5 -15.5t0 -14.5t-10.5 -22
q-31 -58 -80 -90.5t-109 -32.5z" />
    <glyph glyph-name="gbreve" unicode="&#x11f;" horiz-adv-x="496" 
d="M254 507q114 0 180 -32q34 -18 34 -54v-395q0 -94 -21 -144q-18 -51 -67 -74.5t-145 -26.5q-84 0 -141 24q-26 11 -34.5 21.5t-6.5 26.5l13 71q5 20 13.5 24t32.5 -3q63 -11 114 -11q34 0 46 14t12 50v13q-32 -7 -60 -7q-117 0 -162 70q-38 64 -38 174q0 116 44 183
q51 76 186 76zM214 257q0 -55 9.5 -74t33.5 -19q13 0 27 6v173q-5 3 -23 3q-25 0 -36 -18.5t-11 -70.5zM251 546q-59 0 -115 33q-55 34 -79 93q-16 34 2 51l38 34q20 14 27 12t20 -19q34 -45 56.5 -61.5t50.5 -16.5q52 0 100 73q13 19 22.5 20.5t28.5 -11.5l36 -23
q11 -7 13.5 -16t0 -16.5t-10.5 -22.5q-29 -62 -79 -96t-111 -34z" />
    <glyph glyph-name="Gdotaccent" unicode="&#x120;" horiz-adv-x="578" 
d="M243 336q0 -95 17 -135.5t65 -40.5q25 0 29 3v87h-34q-26 0 -26 22v99q0 12 5 18t21 6h192q31 0 31 -24q0 -167 -1 -283q-1 -45 -36 -62q-80 -36 -201 -36q-126 0 -193 70q-29 32 -47 78q-30 79 -30 194q0 108 31 187q62 154 248 154q110 0 177 -34q43 -25 36 -54
l-18 -73q-4 -18 -15 -23t-36 1q-70 10 -121 10q-94 0 -94 -164zM428 798q0 -89 -93 -89q-51 0 -72 23t-21 66q0 88 93 88q51 0 72 -21.5t21 -66.5z" />
    <glyph glyph-name="gdotaccent" unicode="&#x121;" horiz-adv-x="496" 
d="M254 507q114 0 180 -32q34 -18 34 -54v-395q0 -94 -21 -144q-18 -51 -67 -74.5t-145 -26.5q-84 0 -141 24q-26 11 -34.5 21.5t-6.5 26.5l13 71q5 20 13.5 24t32.5 -3q63 -11 114 -11q34 0 46 14t12 50v13q-32 -7 -60 -7q-117 0 -162 70q-38 64 -38 174q0 116 44 183
q51 76 186 76zM214 257q0 -55 9.5 -74t33.5 -19q13 0 27 6v173q-5 3 -23 3q-25 0 -36 -18.5t-11 -70.5zM362 648q0 -89 -93 -89q-51 0 -72 23t-21 66q0 88 93 88q51 0 72 -21.5t21 -66.5z" />
    <glyph glyph-name="Gcommaaccent" unicode="&#x122;" horiz-adv-x="578" 
d="M243 336q0 -95 17 -135.5t65 -40.5q25 0 29 3v87h-34q-26 0 -26 22v99q0 12 5 18t21 6h192q31 0 31 -24q0 -167 -1 -283q-1 -45 -36 -62q-80 -36 -201 -36q-126 0 -193 70q-29 32 -47 78q-30 79 -30 194q0 108 31 187q62 154 248 154q110 0 177 -34q43 -25 36 -54
l-18 -73q-4 -18 -15 -23t-36 1q-70 10 -121 10q-94 0 -94 -164zM404 -148q0 -55 -31 -104q-31 -51 -72 -76q-27 -16 -46 4l-31 31q-12 15 -11.5 19.5t15.5 22.5q27 30 27 66q0 28 -17 48q-18 18 -18 26q0 9 21 24l61 52q33 24 65 -12q37 -36 37 -101z" />
    <glyph glyph-name="gcommaaccent" unicode="&#x123;" horiz-adv-x="496" 
d="M180 690q0 57 32 109q30 51 76 79q29 17 48 -5l32 -32q12 -15 11.5 -20.5t-15.5 -23.5q-28 -28 -28 -68q0 -31 18 -50t18 -27t-21 -25l-64 -54q-36 -26 -68 12q-39 39 -39 105zM254 531q114 0 180 -32q34 -18 34 -54v-395q0 -94 -21 -144q-18 -51 -67 -74.5t-145 -26.5
q-84 0 -141 24q-26 11 -34.5 21.5t-6.5 26.5l13 71q5 20 13.5 24t32.5 -3q63 -11 114 -11q34 0 46 14t12 50v13q-32 -7 -60 -7q-117 0 -162 70q-38 64 -38 174q0 116 44 183q51 76 186 76zM214 281q0 -55 9.5 -74t33.5 -19q13 0 27 6v173q-5 3 -23 3q-25 0 -36 -18.5
t-11 -70.5z" />
    <glyph glyph-name="Hcircumflex" unicode="&#x124;" horiz-adv-x="584" 
d="M240 423h104v218q0 8 1.5 12.5t8.5 8t20 3.5h137q14 0 21 -5t7.5 -8t0.5 -11v-617v-1q0 -7 -1 -10.5t-8 -8t-20 -4.5h-137q-18 0 -24 5.5t-6 18.5v237h-104v-237v-1q0 -7 -1 -10.5t-8 -8t-20 -4.5h-138q-17 0 -23 5.5t-6 18.5v617q0 13 6 18.5t23 5.5h138q14 0 21 -5
t7.5 -8t0.5 -11v-218zM423 700l-126 86l-112 -83q-16 -13 -23 -13.5t-20 11.5l-34 39q-8 10 -8.5 15t8.5 17l114 120l10 10t8 6t12.5 4.5t16.5 0.5h62q15 0 23 -2t10 -4l12 -12l117 -122q13 -13 -1 -32l-35 -40q-11 -9 -16.5 -9t-17.5 8z" />
    <glyph glyph-name="hcircumflex" unicode="&#x125;" horiz-adv-x="505" 
d="M216 683v-201l2 -2q54 26 104 26q81 0 120 -46q16 -19 25 -49q13 -43 13 -108v-279q0 -6 -1 -10t-7.5 -9t-19.5 -5h-129q-29 0 -29 24v264q0 29 -8.5 39.5t-24.5 10.5q-26 0 -46 -16v-298q0 -6 -1 -10t-7.5 -9t-19.5 -5h-129q-17 0 -23 5.5t-6 18.5v659q0 13 6 18.5
t23 5.5h130q13 0 19.5 -5t7.5 -9t1 -10zM257 726l-126 86l-112 -83q-16 -13 -23 -13.5t-20 11.5l-34 39q-8 10 -8.5 15t8.5 17l114 120l10 10t8 6t12.5 4.5t16.5 0.5h62q15 0 23 -2t10 -4l12 -12l117 -122q13 -13 -1 -32l-35 -40q-11 -9 -16.5 -9t-17.5 8z" />
    <glyph glyph-name="Hbar" unicode="&#x126;" horiz-adv-x="584" 
d="M559 502h-19v-478v-1q0 -7 -1 -10.5t-8 -8t-20 -4.5h-137q-18 0 -24 5.5t-6 18.5v237h-104v-237v-1q0 -7 -1 -10.5t-8 -8t-20 -4.5h-138q-17 0 -23 5.5t-6 18.5v478h-18q-11 0 -14.5 3.5t-3.5 14.5v49q0 12 3 14.5t15 2.5h18v55q0 13 6 18.5t23 5.5h138q14 0 21 -5
t7.5 -8t0.5 -11v-55h104v55q0 8 1.5 12.5t8.5 8t20 3.5h137q14 0 21 -5t7.5 -8t0.5 -11v-55h18q10 0 13 -3.5t3 -14.5v-49q0 -10 -3 -13.5t-12 -3.5zM240 423h104v79h-104v-79z" />
    <glyph glyph-name="hbar" unicode="&#x127;" horiz-adv-x="505" 
d="M215 541v-75l2 -2q54 26 104 26q81 0 120 -46q16 -19 25 -49q13 -43 13 -108v-263q0 -6 -1 -10t-7.5 -9t-19.5 -5h-129q-29 0 -29 24v248q0 29 -8.5 39.5t-24.5 10.5q-26 0 -46 -16v-282q0 -6 -1 -10t-7.5 -9t-19.5 -5h-129q-17 0 -23 5.5t-6 18.5v517h-19
q-11 0 -14.5 3.5t-3.5 14.5v49q0 12 3 14.5t15 2.5h19v58q0 13 6 18.5t23 5.5h130q13 0 19.5 -5t7.5 -9t1 -10v-58h128q10 0 13 -3.5t3 -14.5v-49q0 -10 -3 -13.5t-12 -3.5h-129z" />
    <glyph glyph-name="Itilde" unicode="&#x128;" horiz-adv-x="284" 
d="M26 727q-8 -13 -13 -14t-23 9l-45 28q-12 12 -7 22q48 121 134 121q35 0 86 -27q52 -26 63 -26q20 0 46 35q9 13 15 14t18 -8l46 -33q17 -11 9 -26q-45 -113 -132 -113q-24 0 -81 26q-55 26 -67 26q-25 0 -49 -34zM48 24v617q0 13 6 18.5t23 5.5h138q14 0 21 -5t7.5 -8
t0.5 -11v-617v-1q0 -7 -1 -10.5t-8 -8t-20 -4.5h-138q-17 0 -23 5.5t-6 18.5z" />
    <glyph glyph-name="itilde" unicode="&#x129;" horiz-adv-x="288" 
d="M26 582q-8 -13 -13 -14t-23 9l-45 28q-12 11 -7 22q48 121 134 121q35 0 86 -27q52 -26 63 -26q20 0 46 35q9 13 15 14t18 -8l46 -33q17 -11 9 -26q-45 -113 -132 -113q-24 0 -81 26q-55 26 -67 26q-25 0 -49 -34zM242 473v-449q0 -24 -23 -24h-141q-24 0 -24 24v449
q0 24 24 24h141q23 0 23 -24z" />
    <glyph glyph-name="Imacron" unicode="&#x12a;" horiz-adv-x="284" 
d="M44 24v617q0 13 6 18.5t23 5.5h138q14 0 21 -5t7.5 -8t0.5 -11v-617v-1q0 -7 -1 -10.5t-8 -8t-20 -4.5h-138q-17 0 -23 5.5t-6 18.5zM289 727h-286q-30 0 -30 25v86q0 24 30 24h286q17 0 23 -5t6 -18v-87q0 -15 -5.5 -20t-23.5 -5z" />
    <glyph glyph-name="imacron" unicode="&#x12b;" horiz-adv-x="288" 
d="M238 473v-449q0 -24 -23 -24h-141q-24 0 -24 24v449q0 24 24 24h141q23 0 23 -24zM287 560h-286q-30 0 -30 25v86q0 24 30 24h286q17 0 23 -5t6 -18v-87q0 -15 -5.5 -20t-23.5 -5z" />
    <glyph glyph-name="Ibreve" unicode="&#x12c;" horiz-adv-x="284" 
d="M163 703q-58 0 -114 32q-55 31 -79 87q-16 34 2 49l38 37q22 12 28 11t19 -18q33 -42 55.5 -58t50.5 -16q52 0 100 70q12 17 21.5 18.5t28.5 -10.5l36 -27q11 -7 13.5 -15.5t0 -14.5t-10.5 -22q-31 -58 -80 -90.5t-109 -32.5zM60 24v617q0 13 6 18.5t23 5.5h138
q14 0 21 -5t7.5 -8t0.5 -11v-617v-1q0 -7 -1 -10.5t-8 -8t-20 -4.5h-138q-17 0 -23 5.5t-6 18.5z" />
    <glyph glyph-name="ibreve" unicode="&#x12d;" horiz-adv-x="288" 
d="M164 552q-60 0 -115 33q-55 34 -79 93q-16 34 2 51l38 34q20 14 27 12t20 -19q34 -45 56.5 -61.5t50.5 -16.5q52 0 100 73q13 19 22.5 20.5t28.5 -11.5l36 -23q11 -7 13.5 -16t0 -16.5t-10.5 -22.5q-29 -62 -79 -96t-111 -34zM254 473v-449q0 -24 -23 -24h-141
q-24 0 -24 24v449q0 24 24 24h141q23 0 23 -24z" />
    <glyph glyph-name="Iogonek" unicode="&#x12e;" horiz-adv-x="284" 
d="M44 15v626q0 13 6 18.5t23 5.5h138q14 0 21 -5t7.5 -8t0.5 -11v-617v-1q0 -7 -1 -10.5t-8 -8t-20 -4.5h-74q-28 -47 -28 -98q0 -32 37 -32q15 0 44 8q25 10 31 -8l12 -44q4 -14 -16 -27q-43 -23 -98 -23q-129 0 -129 114q0 62 54 125z" />
    <glyph glyph-name="iogonek" unicode="&#x12f;" horiz-adv-x="263" 
d="M102 -103q0 -32 37 -32q15 0 44 8q25 10 31 -8l12 -44q4 -14 -16 -27q-43 -23 -98 -23q-129 0 -129 114q0 62 56 127q-2 6 -2 12v449q0 24 32 24h122q31 0 31 -24v-449q0 -24 -31 -24h-58q-31 -52 -31 -103zM226 627q0 -89 -95 -89q-53 0 -73.5 23t-20.5 66q0 88 94 88
q52 0 73.5 -21.5t21.5 -66.5z" />
    <glyph glyph-name="Idot" unicode="&#x130;" horiz-adv-x="284" 
d="M44 24v617q0 13 6 18.5t23 5.5h138q14 0 21 -5t7.5 -8t0.5 -11v-617v-1q0 -7 -1 -10.5t-8 -8t-20 -4.5h-138q-17 0 -23 5.5t-6 18.5zM244 818q0 -89 -93 -89q-51 0 -72 23t-21 66q0 88 93 88q51 0 72 -21.5t21 -66.5z" />
    <glyph glyph-name="dotlessi" unicode="&#x131;" horiz-adv-x="288" 
d="M238 473v-449q0 -24 -23 -24h-141q-24 0 -24 24v449q0 24 24 24h141q23 0 23 -24z" />
    <glyph glyph-name="IJ" unicode="&#x132;" horiz-adv-x="712" 
d="M471 227l-1 414q0 24 30 24h138q14 0 21 -5t7.5 -8t0.5 -11q0 -341 -1 -456q-2 -93 -56.5 -143.5t-158.5 -50.5q-73 0 -127 20q-33 12 -40.5 21t-3.5 32l16 82q5 20 11.5 23t30.5 -1q41 -7 81 -7q31 0 41.5 15.5t10.5 50.5zM44 24v617q0 13 6 18.5t23 5.5h138q14 0 21 -5
t7.5 -8t0.5 -11v-617v-1q0 -7 -1 -10.5t-8 -8t-20 -4.5h-138q-17 0 -23 5.5t-6 18.5z" />
    <glyph glyph-name="ij" unicode="&#x133;" horiz-adv-x="528" 
d="M492 473v-429q0 -159 -78 -214q-70 -50 -191 -46q-35 0 -36 25l-8 102q-2 14 2.5 19t23.5 10q60 14 79 29q14 11 18.5 25.5t4.5 44.5v434q0 24 32 24h122q31 0 31 -24zM495 627q0 -89 -94 -89q-54 0 -74.5 22.5t-20.5 66.5q0 88 95 88q52 0 73 -21.5t21 -66.5zM226 627
q0 -89 -95 -89q-53 0 -73.5 23t-20.5 66q0 88 94 88q52 0 73.5 -21.5t21.5 -66.5zM222 473v-449q0 -24 -31 -24h-122q-32 0 -32 24v449q0 24 32 24h122q31 0 31 -24z" />
    <glyph glyph-name="Jcircumflex" unicode="&#x134;" horiz-adv-x="433" 
d="M189 228l-1 414q0 24 30 24h138q14 0 21 -5t7.5 -8t0.5 -11q0 -341 -1 -456q-2 -93 -56.5 -143.5t-158.5 -50.5q-73 0 -127 20q-33 12 -40.5 21t-3.5 32l16 82q5 20 11.5 23t30.5 -1q41 -7 81 -7q31 0 41.5 15.5t10.5 50.5zM412 702l-126 86l-112 -83q-16 -13 -23 -13.5
t-20 11.5l-34 39q-8 10 -8.5 15t8.5 17l114 120l10 10t8 6t12.5 4.5t16.5 0.5h62q15 0 23 -2t10 -4l12 -12l117 -122q13 -13 -1 -32l-35 -40q-11 -9 -16.5 -9t-17.5 8z" />
    <glyph glyph-name="jcircumflex" unicode="&#x135;" horiz-adv-x="275" 
d="M237 473v-429q0 -159 -78 -214q-70 -50 -191 -46q-35 0 -36 25l-8 102q-2 14 2.5 19t23.5 10q60 14 79 29q14 11 18.5 25.5t4.5 44.5v434q0 24 32 24h122q31 0 31 -24zM262 569l-117 94l-113 -94q-25 -22 -42 -2l-36 41q-8 10 -8.5 15t7.5 17l117 140q7 9 10 12t12 6
t24 3h63q16 0 24.5 -2t10.5 -4t10 -12l118 -144q9 -12 8.5 -17.5t-9.5 -14.5l-37 -40q-15 -12 -21 -11t-21 13z" />
    <glyph glyph-name="Kcommaaccent" unicode="&#x136;" horiz-adv-x="565" 
d="M233 641v-169h6q20 43 42 77l57 93q14 23 59 23h140q44 0 20 -33l-177 -247l187 -348q16 -37 -19 -37h-143q-43 0 -59 31l-89 185l-26 -37l1 -155v-1q0 -7 -1 -10.5t-8 -8t-20 -4.5h-135q-31 0 -31 24v617q0 24 31 24h136q14 0 21 -5t7.5 -8t0.5 -11zM360 -148
q0 -55 -31 -104q-31 -51 -72 -76q-27 -16 -46 4l-31 31q-12 15 -11.5 19.5t15.5 22.5q27 30 27 66q0 28 -17 48q-18 18 -18 26q0 9 21 24l61 52q33 24 65 -12q37 -36 37 -101z" />
    <glyph glyph-name="kcommaaccent" unicode="&#x137;" horiz-adv-x="495" 
d="M213 683v-297l3 -1l26 42l29 44q9 15 21.5 20.5t38.5 5.5h132q15 0 18.5 -8.5t-5.5 -22.5l-126 -166l141 -268q17 -32 -20 -32h-129q-17 0 -28 4.5t-15 9t-9 14.5l-60 117l-17 -24v-97q0 -5 -0.5 -7.5t-2.5 -7t-8 -7t-16 -2.5h-129q-17 0 -23 5.5t-6 18.5v659
q0 13 6 18.5t23 5.5h129q13 0 19.5 -5t7 -8.5t0.5 -10.5zM331 -148q0 -55 -31 -104q-31 -51 -72 -76q-27 -16 -46 4l-31 31q-12 15 -11.5 19.5t15.5 22.5q27 30 27 66q0 28 -17 48q-18 18 -18 26q0 9 21 24l61 52q33 24 65 -12q37 -36 37 -101z" />
    <glyph glyph-name="kgreenlandic" unicode="&#x138;" horiz-adv-x="495" 
d="M213 474v-88l3 -1l26 42l29 44q9 15 21.5 20.5t38.5 5.5h132q15 0 18.5 -8.5t-5.5 -22.5l-126 -166l141 -268q17 -32 -20 -32h-129q-17 0 -28 4.5t-15 9t-9 14.5l-60 117l-17 -24v-97q0 -5 -0.5 -7.5t-2.5 -7t-8 -7t-16 -2.5h-129q-17 0 -23 5.5t-6 18.5v450q0 13 6 18.5
t23 5.5h129q13 0 19.5 -5t7 -8.5t0.5 -10.5z" />
    <glyph glyph-name="Lacute" unicode="&#x139;" horiz-adv-x="488" 
d="M248 641v-480h214q24 0 24 -17v-122q0 -12 -6 -17t-23 -5h-376q-17 0 -23 5.5t-6 18.5v617q0 13 6 18.5t23 5.5h138q17 0 23 -5.5t6 -18.5zM247 913l58 -86q13 -22 -10 -35l-178 -91q-22 -11 -32 5l-43 59q-7 16 7 28l164 128q20 17 34 -8z" />
    <glyph glyph-name="lacute" unicode="&#x13a;" horiz-adv-x="286" 
d="M230 683v-507q0 -18 4.5 -23t19.5 -6q24 -2 28 -4.5t5 -15.5l4 -93q2 -14 -21 -25q-30 -14 -85 -14q-72 0 -106 35t-34 115v538q0 13 5.5 18.5t22.5 5.5h130q13 0 19.5 -5t7 -8.5t0.5 -10.5zM249 953l58 -86q13 -22 -10 -35l-178 -91q-22 -11 -32 5l-43 59q-7 16 7 28
l164 128q20 17 34 -8z" />
    <glyph glyph-name="Lcommaaccent" unicode="&#x13b;" horiz-adv-x="488" 
d="M323 -148q0 -55 -31 -104q-31 -51 -72 -76q-27 -16 -46 4l-31 31q-12 15 -11.5 19.5t15.5 22.5q27 30 27 66q0 28 -17 48q-18 18 -18 26q0 9 21 24l61 52q33 24 65 -12q37 -36 37 -101zM240 641v-480h214q24 0 24 -17v-122q0 -12 -6 -17t-23 -5h-376q-17 0 -23 5.5
t-6 18.5v617q0 13 6 18.5t23 5.5h138q17 0 23 -5.5t6 -18.5z" />
    <glyph glyph-name="lcommaaccent" unicode="&#x13c;" horiz-adv-x="286" 
d="M223 683v-507q0 -18 4.5 -23t19.5 -6q24 -2 28 -4.5t5 -15.5l4 -93q2 -14 -21 -25q-30 -14 -85 -14q-72 0 -106 35t-34 115v538q0 13 5.5 18.5t22.5 5.5h130q13 0 19.5 -5t7 -8.5t0.5 -10.5zM223 -148q0 -55 -31 -104q-31 -51 -72 -76q-27 -16 -46 4l-31 31
q-12 15 -11.5 19.5t15.5 22.5q27 30 27 66q0 28 -17 48q-18 18 -18 26q0 9 21 24l61 52q33 24 65 -12q37 -36 37 -101z" />
    <glyph glyph-name="Lcaron" unicode="&#x13d;" horiz-adv-x="488" 
d="M486 565q0 -56 -31 -105q-30 -50 -72 -75q-27 -16 -46 4l-31 31q-12 15 -11.5 19.5t15.5 22.5q27 30 27 66q0 28 -17 48q-18 18 -18 26q0 9 21 24l61 52q33 24 65 -12q37 -36 37 -101zM240 641v-480h214q24 0 24 -17v-122q0 -12 -6 -17t-23 -5h-376q-17 0 -23 5.5
t-6 18.5v617q0 13 6 18.5t23 5.5h138q17 0 23 -5.5t6 -18.5z" />
    <glyph glyph-name="lcaron" unicode="&#x13e;" horiz-adv-x="443" 
d="M222 683v-507q0 -18 4.5 -23t19.5 -6q24 -2 28 -4.5t5 -15.5l4 -93q2 -14 -21 -25q-30 -14 -85 -14q-72 0 -106 35t-34 115v538q0 13 5.5 18.5t22.5 5.5h130q13 0 19.5 -5t7 -8.5t0.5 -10.5zM440 614q0 -56 -31 -105q-30 -49 -72 -75q-27 -16 -46 4l-31 31
q-12 15 -11.5 19.5t15.5 22.5q27 30 27 66q0 28 -17 48q-18 18 -18 26q0 9 21 24l61 52q33 24 65 -12q37 -36 37 -101z" />
    <glyph glyph-name="Ldot" unicode="&#x13f;" horiz-adv-x="488" 
d="M240 641v-480h214q24 0 24 -17v-122q0 -12 -6 -17t-23 -5h-376q-17 0 -23 5.5t-6 18.5v617q0 13 6 18.5t23 5.5h138q17 0 23 -5.5t6 -18.5zM489 392q0 -89 -93 -89q-51 0 -72 23t-21 66q0 88 93 88q51 0 72 -21.5t21 -66.5z" />
    <glyph glyph-name="ldot" unicode="&#x140;" horiz-adv-x="427" 
d="M431 419q0 -89 -93 -89q-51 0 -72 23t-21 66q0 88 93 88q51 0 72 -21.5t21 -66.5zM219 683v-507q0 -18 4.5 -23t19.5 -6q23 -2 27 -4.5t6 -15.5l4 -93q2 -14 -21 -25q-30 -14 -85 -14q-72 0 -106 35t-34 115v538q0 13 5.5 18.5t22.5 5.5h130q13 0 19.5 -5t7 -8.5
t0.5 -10.5z" />
    <glyph glyph-name="Lslash" unicode="&#x141;" horiz-adv-x="488" 
d="M252 641v-218l30 18q20 12 31 -9l26 -45q13 -22 -8 -33l-79 -47v-146h214q24 0 24 -17v-122q0 -12 -6 -17t-23 -5h-376q-17 0 -23 5.5t-6 18.5v168l-12 -7q-20 -12 -34 9l-25 45q-12 21 9 33l62 36v333q0 13 6 18.5t23 5.5h138q17 0 23 -5.5t6 -18.5z" />
    <glyph glyph-name="lslash" unicode="&#x142;" horiz-adv-x="286" 
d="M234 683v-264l19 11q20 12 31 -9l26 -45q13 -22 -8 -33l-68 -40v-127q0 -18 4.5 -23t19.5 -6q24 -2 28 -4.5t5 -15.5l4 -93q2 -14 -21 -25q-30 -14 -85 -14q-72 0 -106 35t-34 115v49l-15 -9q-20 -12 -34 9l-25 45q-12 21 9 33l65 38v373q0 13 5.5 18.5t22.5 5.5h130
q13 0 19.5 -5t7 -8.5t0.5 -10.5z" />
    <glyph glyph-name="Nacute" unicode="&#x143;" horiz-adv-x="599" 
d="M361 376l3 1v264v1q0 23 29 23h132q18 0 24 -5.5t6 -18.5v-614q0 -9 -1 -13.5t-7.5 -9t-19.5 -4.5h-98q-36 0 -52 28l-85 147q-7 11 -54 101l-3 -1v-251v-1q0 -7 -1 -10.5t-8 -8t-20 -4.5h-133q-17 0 -23 5.5t-6 18.5v617q0 13 6 18.5t23 5.5h97q19 0 28 -4q9 -3 11.5 -5
t7.5 -11q1 -3 2 -4l95 -172q40 -71 47 -93zM411 913l58 -86q13 -22 -10 -35l-178 -91q-22 -11 -32 5l-43 59q-7 16 7 28l164 128q20 17 34 -8z" />
    <glyph glyph-name="nacute" unicode="&#x144;" horiz-adv-x="507" 
d="M214 473v-14l4 -1q52 47 116 47q76 0 111 -46q16 -19 23 -49q11 -40 11 -108v-278q0 -5 -0.5 -7.5t-2.5 -7t-8 -7t-16 -2.5h-131q-28 0 -28 24v266q0 44 -33 44q-19 0 -46 -13v-297q0 -5 -0.5 -7.5t-2.5 -7t-8 -7t-16 -2.5h-130q-17 0 -23 5.5t-6 18.5v449q0 13 6 18.5
t23 5.5h134q23 0 23 -24zM287 810l83 -60q23 -14 5 -36l-125 -152q-17 -20 -31 -8l-58 37q-15 11 -5 28l97 184q11 23 34 7z" />
    <glyph glyph-name="Ncommaaccent" unicode="&#x145;" horiz-adv-x="599" 
d="M361 376l3 1v264v1q0 23 29 23h132q18 0 24 -5.5t6 -18.5v-614q0 -9 -1 -13.5t-7.5 -9t-19.5 -4.5h-98q-36 0 -52 28l-85 147q-7 11 -54 101l-3 -1v-251v-1q0 -7 -1 -10.5t-8 -8t-20 -4.5h-133q-17 0 -23 5.5t-6 18.5v617q0 13 6 18.5t23 5.5h97q19 0 28 -4q9 -3 11.5 -5
t7.5 -11q1 -3 2 -4l95 -172q40 -71 47 -93zM376 -148q0 -55 -31 -104q-31 -51 -72 -76q-27 -16 -46 4l-31 31q-12 15 -11.5 19.5t15.5 22.5q27 30 27 66q0 28 -17 48q-18 18 -18 26q0 9 21 24l61 52q33 24 65 -12q37 -36 37 -101z" />
    <glyph glyph-name="ncommaaccent" unicode="&#x146;" horiz-adv-x="507" 
d="M214 473v-14l4 -1q52 47 116 47q76 0 111 -46q16 -19 23 -49q11 -40 11 -108v-278q0 -5 -0.5 -7.5t-2.5 -7t-8 -7t-16 -2.5h-131q-28 0 -28 24v266q0 44 -33 44q-19 0 -46 -13v-297q0 -5 -0.5 -7.5t-2.5 -7t-8 -7t-16 -2.5h-130q-17 0 -23 5.5t-6 18.5v449q0 13 6 18.5
t23 5.5h134q23 0 23 -24zM332 -148q0 -55 -31 -104q-31 -51 -72 -76q-27 -16 -46 4l-31 31q-12 15 -11.5 19.5t15.5 22.5q27 30 27 66q0 28 -17 48q-18 18 -18 26q0 9 21 24l61 52q33 24 65 -12q37 -36 37 -101z" />
    <glyph glyph-name="Ncaron" unicode="&#x147;" horiz-adv-x="599" 
d="M361 376l3 1v264v1q0 23 29 23h132q18 0 24 -5.5t6 -18.5v-614q0 -9 -1 -13.5t-7.5 -9t-19.5 -4.5h-98q-36 0 -52 28l-85 147q-7 11 -54 101l-3 -1v-251v-1q0 -7 -1 -10.5t-8 -8t-20 -4.5h-133q-17 0 -23 5.5t-6 18.5v617q0 13 6 18.5t23 5.5h97q19 0 28 -4q9 -3 11.5 -5
t7.5 -11q1 -3 2 -4l95 -172q40 -71 47 -93zM194 912l112 -83l126 86q12 9 17.5 9t16.5 -10l35 -40q14 -19 1 -32l-117 -122l-3 -3q-9 -10 -16 -12.5t-26 -2.5h-62q-18 0 -26.5 4t-20.5 17l-114 120q-9 12 -8.5 17t8.5 15l34 39q13 12 20 11.5t23 -13.5z" />
    <glyph glyph-name="ncaron" unicode="&#x148;" horiz-adv-x="507" 
d="M214 473v-14l4 -1q52 47 116 47q76 0 111 -46q16 -19 23 -49q11 -40 11 -108v-278q0 -5 -0.5 -7.5t-2.5 -7t-8 -7t-16 -2.5h-131q-28 0 -28 24v266q0 44 -33 44q-19 0 -46 -13v-297q0 -5 -0.5 -7.5t-2.5 -7t-8 -7t-16 -2.5h-130q-17 0 -23 5.5t-6 18.5v449q0 13 6 18.5
t23 5.5h134q23 0 23 -24zM133 770l112 -94l118 94q22 19 42 2l37 -40q8 -10 8.5 -15t-7.5 -17l-119 -144q-6 -7 -9.5 -10t-12.5 -5.5t-23 -2.5h-63q-14 0 -22.5 2.5t-11 4.5t-9.5 10l-119 144q-12 16 1 32l35 41q13 12 20.5 11t22.5 -13z" />
    <glyph glyph-name="napostrophe" unicode="&#x149;" horiz-adv-x="634" 
d="M342 473v-14l4 -1q52 47 116 47q76 0 111 -46q16 -19 23 -49q11 -40 11 -108v-278q0 -5 -0.5 -7.5t-2.5 -7t-8 -7t-16 -2.5h-131q-28 0 -28 24v266q0 44 -33 44q-19 0 -46 -13v-297q0 -5 -0.5 -7.5t-2.5 -7t-8 -7t-16 -2.5h-130q-17 0 -23 5.5t-6 18.5v449q0 13 6 18.5
t23 5.5h134q23 0 23 -24zM194 667q0 -56 -31 -105q-30 -50 -72 -75q-27 -16 -46 4l-31 31q-12 15 -11.5 19.5t15.5 22.5q27 30 27 66q0 28 -17 48q-18 18 -18 26q0 9 21 24l61 52q33 24 65 -12q37 -36 37 -101z" />
    <glyph glyph-name="Eng" unicode="&#x14a;" horiz-adv-x="599" 
d="M361 376l3 1v264v1q0 23 29 23h132q18 0 24 -5.5t6 -18.5v-694q0 -86 -46.5 -134.5t-139.5 -48.5q-36 0 -65 8q-25 7 -23 32l3 44q2 38 2 43q1 8 2 12t9 9.5t23 6.5q33 3 41.5 14.5t8.5 51.5v55l-78 135q-7 11 -54 101l-3 -1v-251v-1q0 -7 -1 -10.5t-8 -8t-20 -4.5h-133
q-17 0 -23 5.5t-6 18.5v617q0 13 6 18.5t23 5.5h97q19 0 28 -4q9 -3 11.5 -5t7.5 -11q1 -3 2 -4l95 -172q40 -71 47 -93z" />
    <glyph glyph-name="eng" unicode="&#x14b;" horiz-adv-x="505" 
d="M214 473v-14l4 -1q52 47 116 47q76 0 111 -46q16 -19 23 -49q11 -40 11 -108q0 -308 -1 -355q0 -86 -46.5 -134.5t-139.5 -48.5q-36 0 -65 8q-25 7 -23 32q0 6 2 44l3 43q1 8 2 12t9 9.5t23 6.5q33 3 41.5 14.5t8.5 51.5v305q0 44 -33 44q-19 0 -46 -13v-297
q0 -5 -0.5 -7.5t-2.5 -7t-8 -7t-16 -2.5h-130q-17 0 -23 5.5t-6 18.5v449q0 13 6 18.5t23 5.5h134q23 0 23 -24z" />
    <glyph glyph-name="Omacron" unicode="&#x14c;" horiz-adv-x="619" 
d="M307 -9q-163 -4 -229 119q-19 30 -28 75q-15 74 -15 156q0 46 4 79q14 103 67 170q29 37 82 60t119 23q132 0 200 -71q57 -58 72 -166q13 -93 1 -189q-14 -114 -68 -176q-69 -80 -205 -80zM382 330q0 97 -16 136t-57 39q-37 0 -52 -40t-15 -135q0 -93 15 -132t52 -39
q39 0 56 40t17 131zM455 727h-286q-30 0 -30 25v86q0 24 30 24h286q17 0 23 -5t6 -18v-87q0 -15 -5.5 -20t-23.5 -5z" />
    <glyph glyph-name="omacron" unicode="&#x14d;" horiz-adv-x="497" 
d="M473 255q0 -83 -20 -138q-39 -121 -208 -125q-113 0 -167 61q-20 23 -35 64q-19 58 -19 138q0 72 21 125q42 123 200 126q228 0 228 -251zM285 249q0 56 -7.5 77t-30.5 21q-36 0 -36 -98q0 -54 7.5 -76.5t26.5 -22.5q23 0 31.5 23t8.5 76zM393 560h-286q-30 0 -30 25v86
q0 24 30 24h286q17 0 23 -5t6 -18v-87q0 -15 -5.5 -20t-23.5 -5z" />
    <glyph glyph-name="Obreve" unicode="&#x14e;" horiz-adv-x="619" 
d="M307 -9q-163 -4 -229 119q-19 30 -28 75q-15 74 -15 156q0 46 4 79q14 103 67 170q29 37 82 60t119 23q132 0 200 -71q57 -58 72 -166q13 -93 1 -189q-14 -114 -68 -176q-69 -80 -205 -80zM382 330q0 97 -16 136t-57 39q-37 0 -52 -40t-15 -135q0 -93 15 -132t52 -39
q39 0 56 40t17 131zM310 703q-58 0 -114 32q-55 31 -79 87q-16 34 2 49l38 37q22 12 28 11t19 -18q33 -42 55.5 -58t50.5 -16q52 0 100 70q12 17 21.5 18.5t28.5 -10.5l36 -27q11 -7 13.5 -15.5t0 -14.5t-10.5 -22q-31 -58 -80 -90.5t-109 -32.5z" />
    <glyph glyph-name="obreve" unicode="&#x14f;" horiz-adv-x="497" 
d="M473 255q0 -83 -20 -138q-39 -121 -208 -125q-113 0 -167 61q-20 23 -35 64q-19 58 -19 138q0 72 21 125q42 123 200 126q228 0 228 -251zM285 249q0 56 -7.5 77t-30.5 21q-36 0 -36 -98q0 -54 7.5 -76.5t26.5 -22.5q23 0 31.5 23t8.5 76zM242 546q-60 0 -115 33
q-55 34 -79 93q-16 34 2 51l38 34q20 14 27 12t20 -19q34 -45 56.5 -61.5t50.5 -16.5q52 0 100 73q13 19 22.5 20.5t28.5 -11.5l36 -23q11 -7 13.5 -16t0 -16.5t-10.5 -22.5q-29 -62 -79 -96t-111 -34z" />
    <glyph glyph-name="Ohungarumlaut" unicode="&#x150;" horiz-adv-x="619" 
d="M307 -9q-163 -4 -229 119q-19 30 -28 75q-15 74 -15 156q0 46 4 79q14 103 67 170q29 37 82 60t119 23q132 0 200 -71q57 -58 72 -166q13 -93 1 -189q-14 -114 -68 -176q-69 -80 -205 -80zM382 330q0 97 -16 136t-57 39q-37 0 -52 -40t-15 -135q0 -93 15 -132t52 -39
q39 0 56 40t17 131zM525 922l59 -83q15 -22 -6 -35l-169 -108q-22 -14 -32 2l-42 57q-10 13 4 28l151 144q19 17 35 -5zM277 922l59 -83q15 -22 -6 -35l-169 -108q-22 -14 -32 2l-42 57q-10 13 4 28l151 144q19 17 35 -5z" />
    <glyph glyph-name="ohungarumlaut" unicode="&#x151;" horiz-adv-x="497" 
d="M473 255q0 -83 -20 -138q-39 -121 -208 -125q-113 0 -167 61q-20 23 -35 64q-19 58 -19 138q0 72 21 125q42 123 200 126q228 0 228 -251zM285 249q0 56 -7.5 77t-30.5 21q-36 0 -36 -98q0 -54 7.5 -76.5t26.5 -22.5q23 0 31.5 23t8.5 76zM216 810l83 -60q23 -14 5 -36
l-125 -156q-17 -20 -31 -8l-58 41q-15 11 -5 28l97 184q11 23 34 7zM407 810l83 -60q23 -14 5 -36l-125 -156q-17 -20 -31 -8l-58 41q-15 11 -5 28l97 184q11 23 34 7z" />
    <glyph glyph-name="OE" unicode="&#x152;" horiz-adv-x="757" 
d="M387 665h315q27 0 27 -24v-115q0 -12 -5 -17t-22 -5h-205v-80h182q25 0 25 -20v-115v-4q0 -7 -1 -10.5t-7 -7t-17 -3.5h-182v-103h215q27 0 27 -22v-115q0 -8 -0.5 -12t-7 -8t-19.5 -4h-323q-35 -9 -82 -9q-163 -4 -229 119q-19 30 -28 75q-15 74 -15 156q0 93 26 165
q17 50 45 84q29 37 82 60t119 23q34 0 80 -8zM242 330q0 -92 14 -131t49 -40v345q-31 3 -47 -40t-16 -134z" />
    <glyph glyph-name="oe" unicode="&#x153;" horiz-adv-x="745" 
d="M662 207h-186q4 -36 21 -49t53 -13q35 0 92 9q29 4 35.5 0.5t11.5 -26.5l8 -59q5 -21 -1.5 -32t-33.5 -24q-56 -22 -137 -22q-96 0 -146 53q-45 -52 -134 -52q-113 0 -167 61q-20 23 -35 64q-19 58 -19 138q0 72 21 125q42 123 200 126q90 0 135 -51q44 51 128 51
q217 0 217 -231q0 -36 -15 -52t-48 -16zM285 249q0 56 -7.5 77t-30.5 21q-36 0 -36 -98q0 -54 7.5 -76.5t26.5 -22.5q23 0 31.5 23t8.5 76zM479 310h57q2 57 -28 57q-29 0 -29 -57z" />
    <glyph glyph-name="Racute" unicode="&#x154;" 
d="M436 277l101 -248q5 -13 -2 -21t-23 -8h-137q-44 0 -53 26l-68 215h-14v-217v-1q0 -7 -1 -10.5t-8 -8t-20 -4.5h-138q-17 0 -23 5.5t-6 18.5v617q0 13 6 18.5t23 5.5h235q86 0 149 -54q64 -52 64 -155q0 -122 -85 -179zM319 452q0 52 -38 52h-41v-107h39q40 0 40 55z
M373 913l58 -86q13 -22 -10 -35l-178 -91q-22 -11 -32 5l-43 59q-7 16 7 28l164 128q20 17 34 -8z" />
    <glyph glyph-name="racute" unicode="&#x155;" horiz-adv-x="391" 
d="M223 473v-37l4 -2q23 28 54.5 47t56.5 22q24 3 34 -2.5t12 -25.5l13 -124q2 -15 -5.5 -21.5t-32.5 -12.5q-88 -20 -136 -42v-251q0 -5 -0.5 -7.5t-2.5 -7t-8.5 -7t-16.5 -2.5h-128q-17 0 -23 5.5t-6 18.5v449q0 13 6 18.5t23 5.5h128q13 0 20 -5t7.5 -8.5t0.5 -10.5z
M218 810l83 -60q23 -14 5 -36l-125 -152q-17 -20 -31 -8l-58 37q-15 11 -5 28l97 184q11 23 34 7z" />
    <glyph glyph-name="Rcommaaccent" unicode="&#x156;" 
d="M436 277l101 -248q5 -13 -2 -21t-23 -8h-137q-44 0 -53 26l-68 215h-14v-217v-1q0 -7 -1 -10.5t-8 -8t-20 -4.5h-138q-17 0 -23 5.5t-6 18.5v617q0 13 6 18.5t23 5.5h235q86 0 149 -54q64 -52 64 -155q0 -122 -85 -179zM319 452q0 52 -38 52h-41v-107h39q40 0 40 55z
M358 -148q0 -55 -31 -104q-31 -51 -72 -76q-27 -16 -46 4l-31 31q-12 15 -11.5 19.5t15.5 22.5q27 30 27 66q0 28 -17 48q-18 18 -18 26q0 9 21 24l61 52q33 24 65 -12q37 -36 37 -101z" />
    <glyph glyph-name="rcommaaccent" unicode="&#x157;" horiz-adv-x="391" 
d="M224 473v-37l4 -2q23 28 54.5 47t56.5 22q24 3 34 -2.5t12 -25.5l13 -124q2 -15 -5.5 -21.5t-32.5 -12.5q-88 -20 -136 -42v-251q0 -5 -0.5 -7.5t-2.5 -7t-8.5 -7t-16.5 -2.5h-128q-17 0 -23 5.5t-6 18.5v449q0 13 6 18.5t23 5.5h128q13 0 20 -5t7.5 -8.5t0.5 -10.5z
M218 -148q0 -55 -31 -104q-31 -51 -72 -76q-27 -16 -46 4l-31 31q-12 15 -11.5 19.5t15.5 22.5q27 30 27 66q0 28 -17 48q-18 18 -18 26q0 9 21 24l61 52q33 24 65 -12q37 -36 37 -101z" />
    <glyph glyph-name="Rcaron" unicode="&#x158;" 
d="M436 277l101 -248q5 -13 -2 -21t-23 -8h-137q-44 0 -53 26l-68 215h-14v-217v-1q0 -7 -1 -10.5t-8 -8t-20 -4.5h-138q-17 0 -23 5.5t-6 18.5v617q0 13 6 18.5t23 5.5h235q86 0 149 -54q64 -52 64 -155q0 -122 -85 -179zM319 452q0 52 -38 52h-41v-107h39q40 0 40 55z
M154 912l112 -83l126 86q12 9 17.5 9t16.5 -10l35 -40q14 -19 1 -32l-117 -122l-8.5 -8.5t-8 -5.5t-11 -3t-17.5 -1h-62q-18 0 -26.5 4t-20.5 17l-114 120q-9 12 -8.5 17t8.5 15l34 39q13 12 20 11.5t23 -13.5z" />
    <glyph glyph-name="rcaron" unicode="&#x159;" horiz-adv-x="391" 
d="M235 473v-37l4 -2q23 28 54.5 47t56.5 22q24 3 34 -2.5t12 -25.5l13 -124q2 -15 -5.5 -21.5t-32.5 -12.5q-88 -20 -136 -42v-251q0 -5 -0.5 -7.5t-2.5 -7t-8.5 -7t-16.5 -2.5h-128q-17 0 -23 5.5t-6 18.5v449q0 13 6 18.5t23 5.5h128q13 0 20 -5t7.5 -8.5t0.5 -10.5z
M36 770l112 -94l118 94q22 19 42 2l37 -40q8 -10 8.5 -15t-7.5 -17l-119 -144q-6 -7 -9.5 -10t-12.5 -5.5t-23 -2.5h-63q-14 0 -22.5 2.5t-11 4.5t-9.5 10l-119 144q-12 16 1 32l35 41q13 12 20.5 11t22.5 -13z" />
    <glyph glyph-name="Sacute" unicode="&#x15a;" horiz-adv-x="528" 
d="M243 -9q-111 0 -184 32q-21 9 -30 17t-9 16t1 19l13 72q4 24 15 28.5t41 -2.5q96 -14 155 -14q27 0 38.5 10t11.5 33q-4 21 -13.5 29t-38.5 17q-91 27 -145 63q-72 48 -72 151q0 99 63 154.5t171 55.5t174 -30q29 -13 35 -23.5t3 -28.5l-15 -73q-4 -21 -15 -26.5t-36 0.5
q-68 13 -127 13q-47 0 -47 -38q0 -20 8.5 -27.5t37.5 -16.5q21 -5 45 -13l43 -15q31 -11 42 -20q48 -29 65 -61q25 -48 25 -107t-21.5 -102.5t-59 -67t-80.5 -34.5t-94 -11zM343 913l58 -86q13 -22 -10 -35l-178 -91q-22 -11 -32 5l-43 59q-7 16 7 28l164 128q20 17 34 -8z
" />
    <glyph glyph-name="sacute" unicode="&#x15b;" horiz-adv-x="445" 
d="M431 164q0 -92 -61 -132q-62 -41 -156 -41q-81 0 -143 22q-32 12 -41 24t-4 36l12 59q4 18 12 22t33 -2q67 -14 123 -14q37 0 37 21q0 12 -4.5 15.5t-19.5 5.5q-83 12 -133 38q-56 33 -56 120q0 80 54.5 124t145.5 44q84 0 140 -22q31 -12 40.5 -21.5t6.5 -29.5l-13 -63
q-4 -18 -9.5 -21t-31.5 0q-80 12 -126 13q-15 0 -19 -4.5t-4 -12.5q0 -15 29 -18q80 -11 129 -40q59 -34 59 -123zM278 810l83 -60q23 -14 5 -36l-125 -152q-17 -20 -31 -8l-58 37q-15 11 -5 28l97 184q11 23 34 7z" />
    <glyph glyph-name="Scircumflex" unicode="&#x15c;" horiz-adv-x="528" 
d="M243 -9q-111 0 -184 32q-21 9 -30 17t-9 16t1 19l13 72q4 24 15 28.5t41 -2.5q96 -14 155 -14q27 0 38.5 10t11.5 33q-4 21 -13.5 29t-38.5 17q-91 27 -145 63q-72 48 -72 151q0 99 63 154.5t171 55.5t174 -30q29 -13 35 -23.5t3 -28.5l-15 -73q-4 -21 -15 -26.5t-36 0.5
q-68 13 -127 13q-47 0 -47 -38q0 -20 8.5 -27.5t37.5 -16.5q21 -5 45 -13l43 -15q31 -11 42 -20q48 -29 65 -61q25 -48 25 -107t-21.5 -102.5t-59 -67t-80.5 -34.5t-94 -11zM385 700l-126 86l-112 -83q-16 -13 -23 -13.5t-20 11.5l-34 39q-8 10 -8.5 15t8.5 17l114 120
l10 10t8 6t12.5 4.5t16.5 0.5h62q15 0 23 -2t10 -4l12 -12l117 -122q13 -13 -1 -32l-35 -40q-11 -9 -16.5 -9t-17.5 8z" />
    <glyph glyph-name="scircumflex" unicode="&#x15d;" horiz-adv-x="445" 
d="M426 164q0 -92 -61 -132q-62 -41 -156 -41q-81 0 -143 22q-32 12 -41 24t-4 36l12 59q4 18 12 22t33 -2q67 -14 123 -14q37 0 37 21q0 12 -4.5 15.5t-19.5 5.5q-83 12 -133 38q-56 33 -56 120q0 80 54.5 124t145.5 44q84 0 140 -22q31 -12 40.5 -21.5t6.5 -29.5l-13 -63
q-4 -18 -9.5 -21t-31.5 0q-80 12 -126 13q-15 0 -19 -4.5t-4 -12.5q0 -15 29 -18q80 -11 129 -40q59 -34 59 -123zM326 545l-117 94l-113 -94q-25 -22 -42 -2l-36 41q-8 10 -8.5 15t7.5 17l117 140q7 9 10 12t12 6t24 3h63q16 0 24.5 -2t10.5 -4t10 -12l118 -144
q9 -12 8.5 -17.5t-9.5 -14.5l-37 -40q-15 -12 -21 -11t-21 13z" />
    <glyph glyph-name="Scedilla" unicode="&#x15e;" horiz-adv-x="528" 
d="M271 -138q0 20 -18 26q-5 1 -47 6q-22 1 -15 26l22 72q-93 4 -154 31q-21 9 -30 17t-9 16t1 19l13 72q4 24 15 28.5t41 -2.5q96 -14 155 -14q27 0 38.5 10t11.5 33q-4 21 -13.5 29t-38.5 17q-91 27 -145 63q-72 48 -72 151q0 99 63 154.5t171 55.5t174 -30
q29 -13 35 -23.5t3 -28.5l-15 -73q-4 -21 -15 -26.5t-36 0.5q-68 13 -127 13q-47 0 -47 -38q0 -20 8.5 -27.5t37.5 -16.5q21 -5 45 -13l43 -15q31 -11 42 -20q48 -29 65 -61q25 -48 25 -107q0 -95 -53.5 -147.5t-147.5 -64.5l-14 -43q53 -3 74.5 -25.5t21.5 -62.5
q0 -52 -36.5 -84t-105.5 -32q-53 0 -83 12q-14 7 -13 19l6 39q1 14 21 10q21 -4 59 -4q44 0 44 39z" />
    <glyph glyph-name="scedilla" unicode="&#x15f;" horiz-adv-x="445" 
d="M239 -138q0 20 -18 26q-5 1 -47 6q-22 1 -15 26l22 73q-68 4 -110 20q-32 12 -41 24t-4 36l12 59q4 18 12 22t33 -2q67 -14 123 -14q37 0 37 21q0 12 -4.5 15.5t-19.5 5.5q-83 12 -133 38q-56 33 -56 120q0 80 54.5 124t145.5 44q84 0 140 -22q31 -12 40.5 -21.5
t6.5 -29.5l-13 -63q-4 -18 -9.5 -21t-31.5 0q-80 12 -126 13q-15 0 -19 -4.5t-4 -12.5q0 -15 29 -18q80 -11 129 -40q59 -34 59 -123q0 -148 -166 -170l-14 -43q53 -3 74.5 -25.5t21.5 -62.5q0 -52 -36.5 -84t-105.5 -32q-53 0 -83 12q-14 7 -13 19l6 39q1 14 21 10
q21 -4 59 -4q44 0 44 39z" />
    <glyph glyph-name="Scaron" unicode="&#x160;" horiz-adv-x="528" 
d="M243 -9q-111 0 -184 32q-21 9 -30 17t-9 16t1 19l13 72q4 24 15 28.5t41 -2.5q96 -14 155 -14q27 0 38.5 10t11.5 33q-4 21 -13.5 29t-38.5 17q-91 27 -145 63q-72 48 -72 151q0 99 63 154.5t171 55.5t174 -30q29 -13 35 -23.5t3 -28.5l-15 -73q-4 -21 -15 -26.5t-36 0.5
q-68 13 -127 13q-47 0 -47 -38q0 -20 8.5 -27.5t37.5 -16.5q21 -5 45 -13l43 -15q31 -11 42 -20q48 -29 65 -61q25 -48 25 -107t-21.5 -102.5t-59 -67t-80.5 -34.5t-94 -11zM142 912l112 -83l126 86q12 9 17.5 9t16.5 -10l35 -40q14 -19 1 -32l-117 -122l-3 -3
q-9 -10 -16 -12.5t-26 -2.5h-62q-18 0 -26.5 4t-20.5 17l-114 120q-9 12 -8.5 17t8.5 15l34 39q13 12 20 11.5t23 -13.5z" />
    <glyph glyph-name="scaron" unicode="&#x161;" horiz-adv-x="445" 
d="M432 164q0 -92 -61 -132q-62 -41 -156 -41q-81 0 -143 22q-32 12 -41 24t-4 36l12 59q4 18 12 22t33 -2q67 -14 123 -14q37 0 37 21q0 12 -4.5 15.5t-19.5 5.5q-83 12 -133 38q-56 33 -56 120q0 80 54.5 124t145.5 44q84 0 140 -22q31 -12 40.5 -21.5t6.5 -29.5l-13 -63
q-4 -18 -9.5 -21t-31.5 0q-80 12 -126 13q-15 0 -19 -4.5t-4 -12.5q0 -15 29 -18q80 -11 129 -40q59 -34 59 -123zM112 770l112 -94l118 94q22 19 42 2l37 -40q8 -10 8.5 -15t-7.5 -17l-119 -144q-6 -7 -9.5 -10t-12.5 -5.5t-23 -2.5h-63q-14 0 -22.5 2.5t-11 4.5t-9.5 10
l-119 144q-12 16 1 32l35 41q13 12 20.5 11t22.5 -13z" />
    <glyph glyph-name="Tcommaaccent" unicode="&#x162;" horiz-adv-x="487" 
d="M479 639v-111q0 -24 -32 -24h-105v-480v-1q0 -23 -29 -23h-137q-18 0 -24 5.5t-6 18.5v480h-105q-20 0 -26 5.5t-6 18.5v111q0 9 1.5 13.5t8.5 8.5t22 4h406q15 0 23.5 -7.5t8.5 -18.5zM334 -148q0 -55 -31 -104q-31 -51 -72 -76q-27 -16 -46 4l-31 31q-12 15 -11.5 19.5
t15.5 22.5q27 30 27 66q0 28 -17 48q-18 18 -18 26q0 9 21 24l61 52q33 24 65 -12q37 -36 37 -101z" />
    <glyph glyph-name="tcommaaccent" unicode="&#x163;" horiz-adv-x="391" 
d="M380 143l11 -88q3 -25 -26 -37q-60 -26 -150 -26q-79 0 -115 39.5t-36 119.5v201h-27q-16 0 -21.5 5.5t-5.5 19.5v96q0 13 6 18.5t21 5.5h29v94q0 21 28 28l113 34q39 12 39 -21v-135h79q20 0 23 -8q3 -4 3 -17v-93v-3q0 -10 -1 -14t-6.5 -7t-18.5 -3h-81v-118
q0 -45 9 -61t34 -16q14 0 57 4q23 2 28.5 -0.5t7.5 -17.5zM267 -155q0 -55 -31 -104q-31 -51 -72 -76q-27 -16 -46 4l-31 31q-12 15 -11.5 19.5t15.5 22.5q27 30 27 66q0 28 -17 48q-18 18 -18 26q0 9 21 24l61 52q33 24 65 -12q37 -36 37 -101z" />
    <glyph glyph-name="Tcaron" unicode="&#x164;" horiz-adv-x="487" 
d="M479 639v-111q0 -24 -32 -24h-105v-480v-1q0 -23 -29 -23h-137q-18 0 -24 5.5t-6 18.5v480h-105q-20 0 -26 5.5t-6 18.5v111q0 9 1.5 13.5t8.5 8.5t22 4h406q15 0 23.5 -7.5t8.5 -18.5zM128 912l112 -83l126 86q12 9 17.5 9t16.5 -10l35 -40q14 -19 1 -32l-117 -122
l-8.5 -8.5t-8 -5.5t-11 -3t-17.5 -1h-62q-18 0 -26.5 4t-20.5 17l-114 120q-9 12 -8.5 17t8.5 15l34 39q13 12 20 11.5t23 -13.5z" />
    <glyph glyph-name="tcaron" unicode="&#x165;" horiz-adv-x="504" 
d="M380 143l11 -88q3 -25 -26 -37q-60 -26 -150 -26q-79 0 -115 39.5t-36 119.5v201h-27q-16 0 -21.5 5.5t-5.5 19.5v96q0 13 6 18.5t21 5.5h29v94q0 21 28 28l113 34q39 12 39 -21v-135h79q20 0 23 -8q3 -4 3 -17v-93v-3q0 -10 -1 -14t-6.5 -7t-18.5 -3h-81v-118
q0 -45 9 -61t34 -16q14 0 57 4q23 2 28.5 -0.5t7.5 -17.5zM505 710q0 -56 -31 -105q-30 -49 -72 -75q-27 -16 -46 4l-31 31q-12 15 -11.5 19.5t15.5 22.5q27 30 27 66q0 28 -17 48q-18 18 -18 26q0 9 21 24l61 52q33 24 65 -12q37 -36 37 -101z" />
    <glyph glyph-name="Tbar" unicode="&#x166;" horiz-adv-x="487" 
d="M479 639v-111q0 -24 -32 -24h-105v-115h77q10 0 13 -3.5t3 -14.5v-49q0 -10 -3 -13.5t-12 -3.5h-78v-281v-1q0 -23 -29 -23h-137q-18 0 -24 5.5t-6 18.5v281h-71q-11 0 -14.5 3.5t-3.5 14.5v49q0 12 3 14.5t15 2.5h71v115h-105q-20 0 -26 5.5t-6 18.5v111q0 9 1.5 13.5
t8.5 8.5t22 4h406q15 0 23.5 -7.5t8.5 -18.5z" />
    <glyph glyph-name="tbar" unicode="&#x167;" horiz-adv-x="391" 
d="M380 143l11 -88q3 -25 -26 -37q-60 -26 -150 -26q-79 0 -115 39.5t-36 119.5v68h-29q-11 0 -14.5 3.5t-3.5 14.5v49q0 12 3 14.5t15 2.5h29v49h-27q-16 0 -21.5 5.5t-5.5 19.5v96q0 13 6 18.5t21 5.5h29v94q0 21 28 28l113 34q39 12 39 -21v-135h79q20 0 23 -8
q3 -4 3 -17v-93v-3q0 -10 -1 -14t-6.5 -7t-18.5 -3h-81v-49h78q10 0 13 -3.5t3 -14.5v-49q0 -10 -3 -13.5t-12 -3.5h-79q1 -36 10 -49t33 -13q14 0 57 4q23 2 28.5 -0.5t7.5 -17.5z" />
    <glyph glyph-name="Utilde" unicode="&#x168;" horiz-adv-x="590" 
d="M294 158q57 0 57 91l-1 392q0 8 1.5 12.5t8.5 8t20 3.5h136q14 0 21 -5t7.5 -8t0.5 -11v-390q0 -75 -18 -125q-25 -69 -86.5 -102.5t-146.5 -33.5q-132 0 -192 74q-58 73 -58 187v390q0 24 30 24h137q14 0 21 -5t7.5 -8t0.5 -11v-392q0 -91 54 -91zM181 732
q-8 -13 -13 -14t-23 9l-45 28q-11 11 -7 22q48 121 134 121q35 0 86 -27q52 -26 63 -26q20 0 46 35q9 13 15 14t18 -8l46 -33q17 -11 9 -26q-45 -113 -132 -113q-24 0 -81 26q-55 26 -67 26q-25 0 -49 -34z" />
    <glyph glyph-name="utilde" unicode="&#x169;" horiz-adv-x="499" 
d="M286 24v22l-5 1q-51 -55 -118 -55q-54 0 -80 18q-13 9 -18 13t-12 13t-11 20q-13 38 -15 64q-1 16 -1 35v37v281q0 5 0.5 7.5t2.5 7t8.5 7t16.5 2.5h128q17 0 23 -5.5t6 -18.5v-246q0 -35 7.5 -47.5t25.5 -12.5q12 0 42 14v294q0 22 31 22h126q17 0 22.5 -5.5t5.5 -18.5
v-449q0 -13 -5 -18.5t-22 -5.5h-132q-19 3 -23 8t-3 16zM126 582q-8 -13 -13 -14t-23 9l-45 28q-12 11 -7 22q48 121 134 121q35 0 86 -27q52 -26 63 -26q20 0 46 35q9 13 15 14t18 -8l46 -33q17 -11 9 -26q-45 -113 -132 -113q-24 0 -81 26q-55 26 -67 26q-25 0 -49 -34z
" />
    <glyph glyph-name="Umacron" unicode="&#x16a;" horiz-adv-x="590" 
d="M294 158q57 0 57 91l-1 392q0 8 1.5 12.5t8.5 8t20 3.5h136q14 0 21 -5t7.5 -8t0.5 -11v-390q0 -75 -18 -125q-25 -69 -86.5 -102.5t-146.5 -33.5q-132 0 -192 74q-58 73 -58 187v390q0 24 30 24h137q14 0 21 -5t7.5 -8t0.5 -11v-392q0 -91 54 -91zM443 727h-286
q-30 0 -30 25v86q0 24 30 24h286q17 0 23 -5t6 -18v-87q0 -15 -5.5 -20t-23.5 -5z" />
    <glyph glyph-name="umacron" unicode="&#x16b;" horiz-adv-x="499" 
d="M286 24v22l-5 1q-51 -55 -118 -55q-54 0 -80 18q-13 9 -18 13t-12 13t-11 20q-13 38 -15 64q-1 16 -1 35v37v281q0 5 0.5 7.5t2.5 7t8.5 7t16.5 2.5h128q17 0 23 -5.5t6 -18.5v-246q0 -35 7.5 -47.5t25.5 -12.5q12 0 42 14v294q0 22 31 22h126q17 0 22.5 -5.5t5.5 -18.5
v-449q0 -13 -5 -18.5t-22 -5.5h-132q-19 3 -23 8t-3 16zM390 560h-286q-30 0 -30 25v86q0 24 30 24h286q17 0 23 -5t6 -18v-87q0 -15 -5.5 -20t-23.5 -5z" />
    <glyph glyph-name="Ubreve" unicode="&#x16c;" horiz-adv-x="590" 
d="M294 158q57 0 57 91l-1 392q0 8 1.5 12.5t8.5 8t20 3.5h136q14 0 21 -5t7.5 -8t0.5 -11v-390q0 -75 -18 -125q-25 -69 -86.5 -102.5t-146.5 -33.5q-132 0 -192 74q-58 73 -58 187v390q0 24 30 24h137q14 0 21 -5t7.5 -8t0.5 -11v-392q0 -91 54 -91zM294 696
q-59 0 -115 33q-55 34 -79 93q-16 34 2 51l38 34q20 14 27 12t20 -19q34 -45 56.5 -61.5t50.5 -16.5q52 0 100 73q13 19 22.5 20.5t28.5 -11.5l36 -23q11 -7 13.5 -16t0 -16.5t-10.5 -22.5q-29 -62 -79 -96t-111 -34z" />
    <glyph glyph-name="ubreve" unicode="&#x16d;" horiz-adv-x="499" 
d="M286 24v22l-5 1q-51 -55 -118 -55q-54 0 -80 18q-13 9 -18 13t-12 13t-11 20q-13 38 -15 64q-1 16 -1 35v37v281q0 5 0.5 7.5t2.5 7t8.5 7t16.5 2.5h128q17 0 23 -5.5t6 -18.5v-246q0 -35 7.5 -47.5t25.5 -12.5q12 0 42 14v294q0 22 31 22h126q17 0 22.5 -5.5t5.5 -18.5
v-449q0 -13 -5 -18.5t-22 -5.5h-132q-19 3 -23 8t-3 16zM241 546q-59 0 -115 33q-55 34 -79 93q-16 34 2 51l38 34q20 14 27 12t20 -19q34 -45 56.5 -61.5t50.5 -16.5q52 0 100 73q13 19 22.5 20.5t28.5 -11.5l36 -23q11 -7 13.5 -16t0 -16.5t-10.5 -22.5q-29 -62 -79 -96
t-111 -34z" />
    <glyph glyph-name="Uring" unicode="&#x16e;" horiz-adv-x="590" 
d="M294 158q57 0 57 91l-1 392q0 8 1.5 12.5t8.5 8t20 3.5h136q14 0 21 -5t7.5 -8t0.5 -11v-390q0 -75 -18 -125q-25 -69 -86.5 -102.5t-146.5 -33.5q-132 0 -192 74q-58 73 -58 187v390q0 24 30 24h137q14 0 21 -5t7.5 -8t0.5 -11v-392q0 -91 54 -91zM295 941q55 0 92 -39
q39 -38 39 -89q0 -53 -39 -91q-37 -37 -92 -37q-54 0 -94 36q-40 37 -40 92t40 91q40 37 94 37zM251 813q0 -21 12.5 -33.5t31.5 -12.5q29 0 40.5 28.5t-9.5 49.5q-20 20 -47.5 9t-27.5 -41z" />
    <glyph glyph-name="uring" unicode="&#x16f;" horiz-adv-x="499" 
d="M286 24v22l-5 1q-51 -55 -118 -55q-54 0 -80 18q-13 9 -18 13t-12 13t-11 20q-13 38 -15 64q-1 16 -1 35v37v281q0 5 0.5 7.5t2.5 7t8.5 7t16.5 2.5h128q17 0 23 -5.5t6 -18.5v-246q0 -35 7.5 -47.5t25.5 -12.5q12 0 42 14v294q0 22 31 22h126q17 0 22.5 -5.5t5.5 -18.5
v-449q0 -13 -5 -18.5t-22 -5.5h-132q-19 3 -23 8t-3 16zM258 805q54 0 92 -39q39 -38 39 -89q0 -53 -39 -91q-37 -37 -92 -37q-54 0 -94 36q-40 37 -40 92t40 91q40 37 94 37zM214 677q0 -21 12.5 -33.5t31.5 -12.5q29 0 40.5 28.5t-9.5 49.5q-20 20 -47.5 9t-27.5 -41z" />
    <glyph glyph-name="Uhungarumlaut" unicode="&#x170;" horiz-adv-x="590" 
d="M294 158q57 0 57 91l-1 392q0 8 1.5 12.5t8.5 8t20 3.5h136q14 0 21 -5t7.5 -8t0.5 -11v-390q0 -75 -18 -125q-25 -69 -86.5 -102.5t-146.5 -33.5q-132 0 -192 74q-58 73 -58 187v390q0 24 30 24h137q14 0 21 -5t7.5 -8t0.5 -11v-392q0 -91 54 -91zM516 929l59 -83
q15 -22 -6 -35l-169 -108q-22 -14 -32 2l-42 57q-10 14 4 28l151 144q19 17 35 -5zM268 929l59 -83q15 -22 -6 -35l-169 -108q-22 -14 -32 2l-42 57q-10 14 4 28l151 144q19 17 35 -5z" />
    <glyph glyph-name="uhungarumlaut" unicode="&#x171;" horiz-adv-x="499" 
d="M286 24v22l-5 1q-51 -55 -118 -55q-54 0 -80 18q-13 9 -18 13t-12 13t-11 20q-13 38 -15 64q-1 16 -1 35v37v281q0 5 0.5 7.5t2.5 7t8.5 7t16.5 2.5h128q17 0 23 -5.5t6 -18.5v-246q0 -35 7.5 -47.5t25.5 -12.5q12 0 42 14v294q0 22 31 22h126q17 0 22.5 -5.5t5.5 -18.5
v-449q0 -13 -5 -18.5t-22 -5.5h-132q-19 3 -23 8t-3 16zM202 810l83 -60q23 -14 5 -36l-125 -156q-17 -20 -31 -8l-58 41q-15 11 -5 28l97 184q11 23 34 7zM393 810l83 -60q23 -14 5 -36l-125 -156q-17 -20 -31 -8l-58 41q-15 11 -5 28l97 184q11 23 34 7z" />
    <glyph glyph-name="Uogonek" unicode="&#x172;" horiz-adv-x="590" 
d="M294 158q57 0 57 91l-1 392q0 8 1.5 12.5t8.5 8t20 3.5h136q14 0 21 -5t7.5 -8t0.5 -11v-390q0 -75 -18 -125q-40 -111 -177 -131q-30 -53 -30 -102q0 -32 37 -32q15 0 44 8q25 10 31 -8l12 -44q4 -14 -16 -27q-43 -23 -98 -23q-129 0 -129 114q0 54 43 112
q-95 12 -142 71q-58 73 -58 187v390q0 24 30 24h137q14 0 21 -5t7.5 -8t0.5 -11v-392q0 -91 54 -91z" />
    <glyph glyph-name="uogonek" unicode="&#x173;" horiz-adv-x="499" 
d="M361 -98q0 -32 37 -32q15 0 44 8q25 10 31 -8l12 -44q4 -14 -16 -27q-43 -23 -98 -23q-129 0 -129 114q0 56 47 117q-3 5 -3 17v22l-5 1q-51 -55 -118 -55q-54 0 -80 18q-13 9 -18 13t-12 13t-11 20q-13 38 -15 64q-1 16 -1 35v37v281q0 5 0.5 7.5t2.5 7t8.5 7t16.5 2.5
h128q17 0 23 -5.5t6 -18.5v-246q0 -35 7.5 -47.5t25.5 -12.5q12 0 42 14v294q0 22 31 22h126q17 0 22.5 -5.5t5.5 -18.5v-449q0 -13 -5 -18.5t-22 -5.5h-55q-28 -47 -28 -98z" />
    <glyph glyph-name="Wcircumflex" unicode="&#x174;" horiz-adv-x="805" 
d="M438 93l-21 93h-5l-23 -88l-16 -62q-7 -36 -53 -36h-106q-46 0 -54 35l-144 598q-8 33 20 33h142q21 0 31 -7.5t14 -25.5l36 -185q5 -22 13 -79q10 -66 11 -72h6l19 91l18 81l-44 168q-3 12 0.5 20.5t14.5 8.5h130q22 0 32.5 -7.5t14.5 -25.5l35 -161q13 -58 29 -168h6
q9 92 25 176l28 153q4 19 14 26t32 7h136q28 0 22 -30l-136 -601q-8 -35 -54 -35h-110q-40 0 -49 36zM538 700l-126 86l-112 -83q-16 -13 -23 -13.5t-20 11.5l-34 39q-8 10 -8.5 15t8.5 17l114 120l10 10t8 6t12.5 4.5t16.5 0.5h62q15 0 23 -2t10 -4l12 -12l117 -122
q13 -13 -1 -32l-35 -40q-11 -9 -16.5 -9t-17.5 8z" />
    <glyph glyph-name="wcircumflex" unicode="&#x175;" horiz-adv-x="689" 
d="M362 161h-5q-13 -66 -17 -79l-13 -48q-5 -19 -14.5 -26.5t-27.5 -7.5h-99q-23 0 -33.5 8t-16.5 30l-121 429q-7 30 26 30h122q21 0 28 -5t11 -23l25 -119l22 -114h6l17 81l12 50l-32 100q-9 30 26 30h108q21 0 28 -5t11 -23l22 -105q9 -39 22 -120h6l9 60l9 59l19 110
q3 14 10 19t29 5h115q23 0 28.5 -6t1.5 -23l-113 -428q-10 -40 -47 -40h-98q-22 0 -32 7.5t-15 27.5l-13 47q-3 12 -16 79zM476 545l-117 94l-113 -94q-25 -22 -42 -2l-36 41q-8 10 -8.5 15t7.5 17l117 140q7 9 10 12t12 6t24 3h63q16 0 24.5 -2t10.5 -4t10 -12l118 -144
q9 -12 8.5 -17.5t-9.5 -14.5l-37 -40q-15 -12 -21 -11t-21 13z" />
    <glyph glyph-name="Ycircumflex" unicode="&#x176;" horiz-adv-x="612" 
d="M307 399h8q19 61 41 117l44 114q9 22 18.5 29t34.5 7h132q15 0 22 -7.5t2 -17.5l-206 -421h1v-196v-1q0 -7 -1 -10.5t-8 -8t-20 -4.5h-138q-17 0 -23 5.5t-6 18.5v196h1l-194 416q-6 13 0.5 21.5t23.5 8.5h130q24 0 33.5 -5.5t17.5 -23.5l47 -121q24 -65 40 -117z
M432 700l-126 86l-112 -83q-16 -13 -23 -13.5t-20 11.5l-34 39q-8 10 -8.5 15t8.5 17l114 120l10 10t8 6t12.5 4.5t16.5 0.5h62q15 0 23 -2t10 -4l12 -12l117 -122q13 -13 -1 -32l-35 -40q-11 -9 -16.5 -9t-17.5 8z" />
    <glyph glyph-name="ycircumflex" unicode="&#x177;" horiz-adv-x="494" 
d="M252 235h4q10 55 24 108l32 130q3 10 4.5 14t10 7t25.5 3h116q37 0 24 -30l-211 -644q-5 -17 -13 -22t-31 -5h-107q-20 0 -26 6.5t-1 22.5l63 194l-148 449q-9 29 26 29h121q19 0 27.5 -5.5t12.5 -20.5l27 -132q14 -67 20 -104zM376 545l-117 94l-113 -94q-25 -22 -42 -2
l-36 41q-8 10 -8.5 15t7.5 17l117 140q7 9 10 12t12 6t24 3h63q16 0 24.5 -2t10.5 -4t10 -12l118 -144q9 -12 8.5 -17.5t-9.5 -14.5l-37 -40q-15 -12 -21 -11t-21 13z" />
    <glyph glyph-name="Ydieresis" unicode="&#x178;" horiz-adv-x="612" 
d="M307 399h8q19 61 41 117l44 114q9 22 18.5 29t34.5 7h132q15 0 22 -7.5t2 -17.5l-206 -421h1v-196v-1q0 -7 -1 -10.5t-8 -8t-20 -4.5h-138q-17 0 -23 5.5t-6 18.5v196h1l-194 416q-6 13 0.5 21.5t23.5 8.5h130q24 0 33.5 -5.5t17.5 -23.5l47 -121q24 -65 40 -117z
M196 715q-49 0 -67 20.5t-18 62.5q0 40 19.5 60t65.5 20q49 0 68 -19t19 -61t-19 -62.5t-68 -20.5zM409 715q-49 0 -67.5 20.5t-18.5 62.5q0 40 20 60t66 20q49 0 67.5 -18.5t18.5 -61.5q0 -42 -18.5 -62.5t-67.5 -20.5z" />
    <glyph glyph-name="Zacute" unicode="&#x179;" horiz-adv-x="504" 
d="M460 496l-223 -335h211q19 0 24.5 -5t5.5 -17v-115q0 -9 -1.5 -13t-8 -7.5t-20.5 -3.5h-392q-30 0 -30 24v101q0 23 15 45l222 334h-190q-14 0 -20.5 3.5t-7.5 7t-1 11.5v115q0 9 1 13t7.5 7.5t20.5 3.5h374q30 0 30 -24v-87q0 -29 -17 -58zM345 913l58 -86
q13 -22 -10 -35l-178 -91q-22 -11 -32 5l-43 59q-7 16 7 28l164 128q20 17 34 -8z" />
    <glyph glyph-name="zacute" unicode="&#x17a;" horiz-adv-x="425" 
d="M387 349l-159 -204h156q16 0 21.5 -5.5t5.5 -19.5v-96q0 -13 -6 -18.5t-21 -5.5h-344q-18 0 -23.5 5t-5.5 18v79q0 21 17 44l163 205h-140q-17 0 -22.5 5t-5.5 20v97q0 24 28 24h323q31 0 31 -23v-80q0 -21 -18 -45zM278 810l83 -60q23 -14 5 -36l-125 -152
q-17 -20 -31 -8l-58 37q-15 11 -5 28l97 184q11 23 34 7z" />
    <glyph glyph-name="Zdotaccent" unicode="&#x17b;" horiz-adv-x="504" 
d="M460 496l-223 -335h211q19 0 24.5 -5t5.5 -17v-115q0 -9 -1.5 -13t-8 -7.5t-20.5 -3.5h-392q-30 0 -30 24v101q0 23 15 45l222 334h-190q-14 0 -20.5 3.5t-7.5 7t-1 11.5v115q0 9 1 13t7.5 7.5t20.5 3.5h374q30 0 30 -24v-87q0 -29 -17 -58zM365 814q0 -89 -93 -89
q-51 0 -72 23t-21 66q0 88 93 88q51 0 72 -21.5t21 -66.5z" />
    <glyph glyph-name="zdotaccent" unicode="&#x17c;" horiz-adv-x="425" 
d="M387 349l-159 -204h156q16 0 21.5 -5.5t5.5 -19.5v-96q0 -13 -6 -18.5t-21 -5.5h-344q-18 0 -23.5 5t-5.5 18v79q0 21 17 44l163 205h-140q-17 0 -22.5 5t-5.5 20v97q0 24 28 24h323q31 0 31 -23v-80q0 -21 -18 -45zM320 648q0 -89 -93 -89q-51 0 -72 23t-21 66
q0 88 93 88q51 0 72 -21.5t21 -66.5z" />
    <glyph glyph-name="Zcaron" unicode="&#x17d;" horiz-adv-x="504" 
d="M460 496l-223 -335h211q19 0 24.5 -5t5.5 -17v-115q0 -9 -1.5 -13t-8 -7.5t-20.5 -3.5h-392q-30 0 -30 24v101q0 23 15 45l222 334h-190q-14 0 -20.5 3.5t-7.5 7t-1 11.5v115q0 9 1 13t7.5 7.5t20.5 3.5h374q30 0 30 -24v-87q0 -29 -17 -58zM154 912l112 -83l126 86
q12 9 17.5 9t16.5 -10l35 -40q14 -19 1 -32l-117 -122l-8.5 -8.5t-8 -5.5t-11 -3t-17.5 -1h-62q-18 0 -26.5 4t-20.5 17l-114 120q-9 12 -8.5 17t8.5 15l34 39q13 12 20 11.5t23 -13.5z" />
    <glyph glyph-name="zcaron" unicode="&#x17e;" horiz-adv-x="425" 
d="M391 349l-159 -204h156q16 0 21.5 -5.5t5.5 -19.5v-96q0 -13 -6 -18.5t-21 -5.5h-344q-18 0 -23.5 5t-5.5 18v79q0 21 17 44l163 205h-140q-17 0 -22.5 5t-5.5 20v97q0 24 28 24h323q31 0 31 -23v-80q0 -21 -18 -45zM102 770l112 -94l118 94q22 19 42 2l37 -40
q8 -10 8.5 -15t-7.5 -17l-119 -144q-6 -7 -9.5 -10t-12.5 -5.5t-23 -2.5h-63q-14 0 -22.5 2.5t-11 4.5t-9.5 10l-119 144q-12 16 1 32l35 41q13 12 20.5 11t22.5 -13z" />
    <glyph glyph-name="florin" unicode="&#x192;" 
d="M22 -62l15 78q3 18 8.5 21t27.5 1q27 -4 48 -4q20 0 29 20.5t18 76.5l23 167h-40q-21 0 -27 4t-6 17l1 83q0 15 5 19t26 4h55l13 92q25 169 177 169q57 0 124 -22q16 -7 14 -21l-19 -88q-3 -14 -11.5 -17t-29.5 2q-32 5 -33 5q-23 0 -33 -15.5t-16 -53.5l-7 -51h54
q21 0 27.5 -3.5t6.5 -16.5v-86q0 -15 -5.5 -18t-27.5 -3h-68l-37 -260q-11 -63 -53 -105q-44 -44 -120 -44q-73 0 -118 18q-22 10 -21 31z" />
    <glyph glyph-name="Ohorn" unicode="&#x1a0;" horiz-adv-x="619" 
d="M585 341q0 -107 -27 -186q-16 -47 -46 -84q-69 -80 -205 -80q-163 -4 -229 119q-19 30 -28 75q-15 74 -15 156q0 93 26 165q17 50 45 84q29 37 82 60t119 23q105 0 170 -46q16 4 21.5 24t5.5 69v43q0 14 24 14h91q23 0 23 -14v-95q0 -125 -82 -155q25 -69 25 -172z
M382 330q0 97 -16 136t-57 39q-37 0 -52 -40t-15 -135q0 -93 15 -132t52 -39q39 0 56 40t17 131z" />
    <glyph glyph-name="ohorn" unicode="&#x1a1;" horiz-adv-x="497" 
d="M473 255q0 -83 -20 -138q-39 -121 -208 -125q-113 0 -167 61q-20 23 -35 64q-19 58 -19 138q0 72 21 125q42 123 200 126q80 0 132 -31q20 10 20 90v43q0 14 24 14h91q23 0 23 -14v-95q0 -119 -75 -152q13 -45 13 -106zM285 249q0 56 -7.5 77t-30.5 21q-36 0 -36 -98
q0 -54 7.5 -76.5t26.5 -22.5q23 0 31.5 23t8.5 76z" />
    <glyph glyph-name="Uhorn" unicode="&#x1af;" horiz-adv-x="702" 
d="M294 158q57 0 57 91l-1 392q0 8 1.5 12.5t8.5 8t20 3.5h136q14 0 21 -5t7.5 -8t0.5 -11v-12q21 1 27.5 16.5t6.5 62.5v57q0 14 24 14h91q23 0 23 -14v-97q0 -78 -34 -121t-102 -43h-36v-253q0 -75 -18 -125q-25 -69 -86.5 -102.5t-146.5 -33.5q-132 0 -192 74
q-58 73 -58 187v390q0 24 30 24h137q14 0 21 -5t7.5 -8t0.5 -11v-392q0 -91 54 -91z" />
    <glyph glyph-name="uhorn" unicode="&#x1b0;" horiz-adv-x="624" 
d="M286 24v22l-5 1q-51 -55 -118 -55q-54 0 -80 18q-13 9 -18 13t-12 13t-11 20q-13 38 -15 64q-1 16 -1 35v37v281q0 5 0.5 7.5t2.5 7t8.5 7t16.5 2.5h128q17 0 23 -5.5t6 -18.5v-246q0 -35 7.5 -47.5t25.5 -12.5q12 0 42 14v294q0 22 31 22h126q17 0 22.5 -5.5t5.5 -18.5
v-1q16 4 21.5 24t5.5 69v43q0 14 24 14h92q23 0 23 -14v-95q0 -77 -34.5 -120.5t-101.5 -43.5h-30v-325q0 -13 -5 -18.5t-22 -5.5h-132q-19 3 -23 8t-3 16z" />
    <glyph glyph-name="AEacute" unicode="&#x1fc;" horiz-adv-x="837" 
d="M388 24v113h-128l-43 -111q-11 -26 -52 -26h-128q-32 0 -20 30l235 606q7 18 18 23.5t42 5.5h477q27 0 27 -24v-115q0 -12 -5 -17t-22 -5h-205v-80h182q25 0 25 -20v-115v-4q0 -7 -1 -10.5t-7 -7t-17 -3.5h-182v-103h215q27 0 27 -22v-115q0 -8 -0.5 -12t-7 -8t-19.5 -4
h-383q-17 0 -22.5 5.5t-5.5 18.5zM386 283v219h-5l-71 -219h76zM634 913l58 -86q13 -22 -10 -35l-178 -91q-22 -11 -32 5l-43 59q-7 16 7 28l164 128q20 17 34 -8z" />
    <glyph glyph-name="aeacute" unicode="&#x1fd;" horiz-adv-x="747" 
d="M662 202h-186q3 -26 14 -39t23 -15t37 -3q35 0 92 9q28 4 35.5 0t11.5 -26l9 -59q2 -14 1 -23t-9 -16.5t-28 -16.5q-56 -22 -144 -22q-118 0 -174 60q-71 -59 -172 -59q-92 0 -122 50q-22 43 -22 101q-1 87 46 126.5t135 39.5h80v8q0 23 -11 32t-43 9q-35 0 -109 -9
q-28 -5 -38 -1.5t-14 21.5l-12 64q-5 28 41 47q66 26 157 26q96 0 137 -47q38 47 121 47q207 0 207 -231q0 -73 -63 -73zM295 149q-1 7 -7 53h-38q-35 0 -35 -45q0 -27 24 -27q30 0 56 19zM479 310h57q2 57 -28 57q-29 0 -29 -57zM451 810l83 -60q23 -14 5 -36l-125 -152
q-17 -20 -31 -8l-58 37q-15 11 -5 28l97 184q11 23 34 7z" />
    <glyph glyph-name="Oslashacute" unicode="&#x1fe;" horiz-adv-x="619" 
d="M585 341q0 -107 -27 -186q-16 -47 -46 -84q-69 -80 -205 -80q-98 0 -161 42l-18 -28q-8 -12 -14.5 -13.5t-17.5 6.5l-15 10q-13 9 -3 25l26 38q-69 83 -69 270q0 93 26 165q17 50 45 84q29 37 82 60t119 23q103 0 168 -45l18 27q8 12 14 13.5t17 -5.5l12 -8
q11 -8 11.5 -12.5t-6.5 -15.5l-24 -36q68 -83 68 -250zM447 913l58 -86q13 -22 -10 -35l-178 -91q-22 -11 -32 5l-43 59q-7 16 7 28l164 128q20 17 34 -8zM382 330q0 13 -2 55l-124 -186q16 -40 53 -40q39 0 56 40t17 131zM242 330q0 -40 1 -50l123 185q-16 40 -57 40
q-37 0 -52 -40t-15 -135z" />
    <glyph glyph-name="oslashacute" unicode="&#x1ff;" horiz-adv-x="497" 
d="M473 255q0 -83 -20 -138q-39 -121 -208 -125q-75 0 -122 26l-10 -15q-7 -11 -12.5 -11.5t-16.5 8.5l-5 3q-8 6 -9 10.5t4 12.5l13 19q-63 61 -63 210q0 72 21 125q42 123 200 126q79 0 130 -30l13 20q10 15 24 4l7 -5q10 -7 10.5 -11t-7.5 -15l-12 -19q63 -62 63 -195z
M321 810l83 -60q23 -14 5 -36l-125 -152q-17 -20 -31 -8l-58 37q-15 11 -5 28l97 184q11 23 34 7zM211 249v-18l65 97q-9 19 -29 19q-36 0 -36 -98zM285 249v13l-64 -96q7 -16 24 -16q23 0 31.5 23t8.5 76z" />
    <glyph glyph-name="Scommaaccent" unicode="&#x218;" horiz-adv-x="528" 
d="M243 -9q-111 0 -184 32q-21 9 -30 17t-9 16t1 19l13 72q4 24 15 28.5t41 -2.5q96 -14 155 -14q27 0 38.5 10t11.5 33q-4 21 -13.5 29t-38.5 17q-91 27 -145 63q-72 48 -72 151q0 99 63 154.5t171 55.5t174 -30q29 -13 35 -23.5t3 -28.5l-15 -73q-4 -21 -15 -26.5t-36 0.5
q-68 13 -127 13q-47 0 -47 -38q0 -20 8.5 -27.5t37.5 -16.5q21 -5 45 -13l43 -15q31 -11 42 -20q48 -29 65 -61q25 -48 25 -107t-21.5 -102.5t-59 -67t-80.5 -34.5t-94 -11zM351 -148q0 -55 -31 -104q-31 -51 -72 -76q-27 -16 -46 4l-31 31q-12 15 -11.5 19.5t15.5 22.5
q27 30 27 66q0 28 -17 48q-18 18 -18 26q0 9 21 24l61 52q33 24 65 -12q37 -36 37 -101z" />
    <glyph glyph-name="scommaaccent" unicode="&#x219;" horiz-adv-x="445" 
d="M431 164q0 -92 -61 -132q-62 -41 -156 -41q-81 0 -143 22q-32 12 -41 24t-4 36l12 59q4 18 12 22t33 -2q67 -14 123 -14q37 0 37 21q0 12 -4.5 15.5t-19.5 5.5q-83 12 -133 38q-56 33 -56 120q0 80 54.5 124t145.5 44q84 0 140 -22q31 -12 40.5 -21.5t6.5 -29.5l-13 -63
q-4 -18 -9.5 -21t-31.5 0q-80 12 -126 13q-15 0 -19 -4.5t-4 -12.5q0 -15 29 -18q80 -11 129 -40q59 -34 59 -123zM312 -148q0 -55 -31 -104q-31 -51 -72 -76q-27 -16 -46 4l-31 31q-12 15 -11.5 19.5t15.5 22.5q27 30 27 66q0 28 -17 48q-18 18 -18 26q0 9 21 24l61 52
q33 24 65 -12q37 -36 37 -101z" />
    <glyph glyph-name="uni021A" unicode="&#x21a;" horiz-adv-x="487" 
d="M479 639v-111q0 -24 -32 -24h-105v-480v-1q0 -23 -29 -23h-137q-18 0 -24 5.5t-6 18.5v480h-105q-20 0 -26 5.5t-6 18.5v111q0 9 1.5 13.5t8.5 8.5t22 4h406q15 0 23.5 -7.5t8.5 -18.5zM332 -148q0 -55 -31 -104q-31 -51 -72 -76q-27 -16 -46 4l-31 31q-12 15 -11.5 19.5
t15.5 22.5q27 30 27 66q0 28 -17 48q-18 18 -18 26q0 9 21 24l61 52q33 24 65 -12q37 -36 37 -101z" />
    <glyph glyph-name="uni021B" unicode="&#x21b;" horiz-adv-x="391" 
d="M380 143l11 -88q3 -25 -26 -37q-60 -26 -150 -26q-79 0 -115 39.5t-36 119.5v201h-27q-16 0 -21.5 5.5t-5.5 19.5v96q0 13 6 18.5t21 5.5h29v94q0 21 28 28l113 34q39 12 39 -21v-135h79q20 0 23 -8q3 -4 3 -17v-93v-3q0 -10 -1 -14t-6.5 -7t-18.5 -3h-81v-118
q0 -45 9 -61t34 -16q14 0 57 4q23 2 28.5 -0.5t7.5 -17.5zM278 -154q0 -55 -31 -104q-31 -51 -72 -76q-27 -16 -46 4l-31 31q-12 15 -11.5 19.5t15.5 22.5q27 30 27 66q0 28 -17 48q-18 18 -18 26q0 9 21 24l61 52q33 24 65 -12q37 -36 37 -101z" />
    <glyph glyph-name="schwa" unicode="&#x259;" horiz-adv-x="481" 
d="M83 290h186q-4 36 -21 49t-53 13q-35 0 -92 -9q-29 -5 -36.5 -1t-10.5 27l-9 59q-2 14 -1 23t9 16.5t28 16.5q56 22 144 22q69 0 116.5 -19.5t71 -56.5t33 -78.5t9.5 -97.5q0 -263 -223 -263q-105 0 -158 48q-59 58 -57 183q0 36 14.5 52t49.5 16zM266 187h-57
q-1 -57 28 -57t29 57z" />
    <glyph glyph-name="primemod" unicode="&#x2b9;" horiz-adv-x="286" 
d="M287 656l-141 -283q-4 -7 -6 -9.5t-10 -6t-18 4.5l-78 35q-17 10 -10 31l113 288q13 32 45 15l93 -42q23 -12 12 -33z" />
    <glyph glyph-name="circumflex" unicode="&#x2c6;" horiz-adv-x="490" 
d="M354 545l-117 94l-113 -94q-25 -22 -42 -2l-36 41q-8 10 -8.5 15t7.5 17l117 140q7 9 10 12t12 6t24 3h63q16 0 24.5 -2t10.5 -4t10 -12l118 -144q9 -12 8.5 -17.5t-9.5 -14.5l-37 -40q-15 -12 -21 -11t-21 13z" />
    <glyph glyph-name="caron" unicode="&#x2c7;" horiz-adv-x="485" 
d="M140 770l112 -94l118 94q22 19 42 2l37 -40q8 -10 8.5 -15t-7.5 -17l-119 -144q-6 -7 -9.5 -10t-12.5 -5.5t-23 -2.5h-63q-14 0 -22.5 2.5t-11 4.5t-9.5 10l-119 144q-12 16 1 32l35 41q13 12 20.5 11t22.5 -13z" />
    <glyph glyph-name="breve" unicode="&#x2d8;" horiz-adv-x="482" 
d="M259 546q-59 0 -115 33q-55 34 -79 93q-16 34 2 51l38 34q20 14 27 12t20 -19q34 -45 56.5 -61.5t50.5 -16.5q52 0 100 73q13 19 22.5 20.5t28.5 -11.5l36 -23q11 -7 13.5 -16t0 -16.5t-10.5 -22.5q-29 -62 -79 -96t-111 -34z" />
    <glyph glyph-name="dotaccent" unicode="&#x2d9;" horiz-adv-x="485" 
d="M334 648q0 -89 -93 -89q-51 0 -72 23t-21 66q0 88 93 88q51 0 72 -21.5t21 -66.5z" />
    <glyph glyph-name="ring" unicode="&#x2da;" horiz-adv-x="522" 
d="M260 805q55 0 92 -39q39 -38 39 -89q0 -53 -39 -91q-37 -37 -92 -37q-54 0 -94 36q-40 37 -40 92t40 91q40 37 94 37zM216 677q0 -21 12.5 -33.5t31.5 -12.5q29 0 40.5 28.5t-9.5 49.5q-20 20 -47.5 9t-27.5 -41z" />
    <glyph glyph-name="ogonek" unicode="&#x2db;" horiz-adv-x="335" 
d="M178 -88q0 -32 37 -32q15 0 44 8q25 10 31 -8l12 -44q4 -14 -16 -27q-43 -23 -98 -23q-129 0 -129 114q0 70 72 145h99q-52 -70 -52 -133z" />
    <glyph glyph-name="tilde" unicode="&#x2dc;" horiz-adv-x="490" 
d="M136 582q-8 -13 -13 -14t-23 9l-45 28q-11 11 -7 22q48 121 134 121q35 0 86 -27q52 -26 63 -26q20 0 46 35q9 13 15 14t18 -8l46 -33q17 -11 9 -26q-45 -113 -132 -113q-24 0 -81 26q-55 26 -67 26q-25 0 -49 -34z" />
    <glyph glyph-name="hungarumlaut" unicode="&#x2dd;" horiz-adv-x="555" 
d="M244 810l83 -60q23 -14 5 -36l-125 -156q-17 -20 -31 -8l-58 41q-15 11 -5 28l97 184q11 23 34 7zM435 810l83 -60q23 -14 5 -36l-125 -156q-17 -20 -31 -8l-58 41q-15 11 -5 28l97 184q11 23 34 7z" />
    <glyph glyph-name="tonos" unicode="&#x384;" horiz-adv-x="482" 
d="M313 810l83 -60q23 -14 5 -36l-125 -156q-17 -20 -31 -8l-58 41q-15 11 -5 28l97 184q11 23 34 7z" />
    <glyph glyph-name="dieresistonos" unicode="&#x385;" horiz-adv-x="537" 
d="M438 693q44 0 61 -17t17 -55q0 -36 -16 -55t-62 -19t-62 19q-15 20 -15 55q0 37 17.5 54.5t59.5 17.5zM273 810l95 -28q27 -8 15 -33l-85 -202q-9 -22 -27 -16l-66 18q-19 6 -13 25l50 220q5 27 31 16zM102 693q44 0 61 -17t17 -55q0 -36 -16 -55t-62 -19t-62 19
q-15 20 -15 55q0 37 17.5 54.5t59.5 17.5z" />
    <glyph glyph-name="Alphatonos" unicode="&#x386;" horiz-adv-x="600" 
d="M372 137h-129l-25 -104q-5 -19 -14 -26t-30 -7h-125q-38 0 -28 34l162 597q5 16 7.5 20.5t12.5 9t32 5.5h145q22 0 32.5 -8t16.5 -28l169 -595q9 -35 -21 -35h-137q-24 0 -32 7.5t-13 31.5zM31 700l83 -60q23 -14 5 -36l-125 -156q-17 -20 -31 -8l-58 41q-15 11 -5 28
l97 184q11 23 34 7zM311 470h-4l-13 -83l-17 -104h60l-15 104q-10 76 -11 83z" />
    <glyph glyph-name="anoteleia" unicode="&#x387;" horiz-adv-x="219" 
d="M202 382q0 -43 -21 -66t-71 -23q-51 0 -72 23t-21 66q0 88 93 88q50 0 71 -21.5t21 -66.5z" />
    <glyph glyph-name="Epsilontonos" unicode="&#x388;" horiz-adv-x="506" 
d="M54 24v617q0 13 5.5 18.5t22.5 5.5h371q27 0 27 -24v-115v-2q0 -8 -0.5 -11t-6 -6t-17.5 -3h-206v-80h182q25 0 25 -20v-115v-4q0 -7 -1 -10.5t-7 -7t-17 -3.5h-182v-103h219q24 0 24 -22v-115q0 -8 -0.5 -12t-7 -8t-19.5 -4h-384q-17 0 -22.5 5.5t-5.5 18.5zM-70 700
l83 -60q23 -14 5 -36l-125 -156q-17 -20 -31 -8l-58 41q-15 11 -5 28l97 184q11 23 34 7z" />
    <glyph glyph-name="Etatonos" unicode="&#x389;" horiz-adv-x="584" 
d="M250 423h104v218q0 8 1.5 12.5t8.5 8t20 3.5h137q14 0 21 -5t7.5 -8t0.5 -11v-617v-1q0 -7 -1 -10.5t-8 -8t-20 -4.5h-137q-18 0 -24 5.5t-6 18.5v237h-104v-237v-1q0 -7 -1 -10.5t-8 -8t-20 -4.5h-138q-17 0 -23 5.5t-6 18.5v617q0 13 6 18.5t23 5.5h138q14 0 21 -5
t7.5 -8t0.5 -11v-218zM-75 700l83 -60q23 -14 5 -36l-125 -156q-17 -20 -31 -8l-58 41q-15 11 -5 28l97 184q11 23 34 7z" />
    <glyph glyph-name="Iotatonos" unicode="&#x38a;" horiz-adv-x="284" 
d="M54 24v617q0 13 6 18.5t23 5.5h138q14 0 21 -5t7.5 -8t0.5 -11v-617v-1q0 -7 -1 -10.5t-8 -8t-20 -4.5h-138q-17 0 -23 5.5t-6 18.5zM-74 700l83 -60q23 -14 5 -36l-125 -156q-17 -20 -31 -8l-58 41q-15 11 -5 28l97 184q11 23 34 7z" />
    <glyph glyph-name="Omicrontonos" unicode="&#x38c;" horiz-adv-x="619" 
d="M317 -9q-163 -4 -229 119q-19 30 -28 75q-15 74 -15 156q0 46 4 79q14 103 67 170q29 37 82 60t119 23q132 0 200 -71q57 -58 72 -166q13 -93 1 -189q-14 -114 -68 -176q-69 -80 -205 -80zM392 330q0 97 -16 136t-57 39q-37 0 -52 -40t-15 -135q0 -93 15 -132t52 -39
q39 0 56 40t17 131zM-20 700l83 -60q23 -14 5 -36l-125 -156q-17 -20 -31 -8l-58 41q-15 11 -5 28l97 184q11 23 34 7z" />
    <glyph glyph-name="Upsilontonos" unicode="&#x38e;" horiz-adv-x="612" 
d="M311 399h8q19 61 41 117l44 114q9 22 18.5 29t34.5 7h132q15 0 22 -7.5t2 -17.5l-206 -421h1v-196v-1q0 -7 -1 -10.5t-8 -8t-20 -4.5h-138q-17 0 -23 5.5t-6 18.5v196h1l-194 416q-6 13 0.5 21.5t23.5 8.5h130q24 0 33.5 -5.5t17.5 -23.5l47 -121q25 -65 40 -117z
M-93 700l83 -60q23 -14 5 -36l-125 -156q-17 -20 -31 -8l-58 41q-15 11 -5 28l97 184q11 23 34 7z" />
    <glyph glyph-name="Omegatonos" unicode="&#x38f;" horiz-adv-x="647" 
d="M256 349q-2 -101 33 -151q3 -4 8.5 -11t8 -10.5t4.5 -11t2 -17.5v-123q0 -10 -8 -17.5t-24 -7.5h-217q-14 0 -19.5 5.5t-5.5 18.5v115q0 22 23 22h44l2 2q-27 29 -42 87q-14 62 -14 101q0 83 28 157q18 45 47 81q31 37 85.5 60.5t122.5 23.5q67 0 121.5 -20t85.5 -52
q30 -30 50 -75q31 -71 31 -167q0 -42 -12 -97q-12 -57 -43 -98l2 -3h35q25 0 25 -22v-109q0 -30 -25 -30h-228q-25 0 -25 25v118q0 27 24 52q45 51 45 149q0 83 -18.5 122t-64.5 39q-79 0 -81 -156zM-12 700l83 -60q23 -14 5 -36l-125 -156q-17 -20 -31 -8l-58 41
q-15 11 -5 28l97 184q11 23 34 7z" />
    <glyph glyph-name="iotadieresistonos" unicode="&#x390;" horiz-adv-x="263" 
d="M308 693q44 0 61 -17t17 -55q0 -36 -16 -55t-62 -19t-62 19q-15 20 -15 55q0 37 17.5 54.5t59.5 17.5zM143 810l95 -28q27 -8 15 -33l-85 -202q-9 -22 -27 -16l-66 18q-19 6 -13 25l50 220q5 27 31 16zM-28 693q44 0 61 -17t17 -55q0 -36 -16 -55t-62 -19t-61 19
q-16 19 -16 55q0 37 17.5 54.5t59.5 17.5zM222 473v-449q0 -24 -31 -24h-122q-32 0 -32 24v449q0 24 32 24h122q31 0 31 -24z" />
    <glyph glyph-name="Alpha" unicode="&#x391;" horiz-adv-x="600" 
d="M367 137h-129l-25 -104q-5 -19 -14 -26t-30 -7h-125q-38 0 -28 34l162 597q5 16 7.5 20.5t12.5 9t32 5.5h145q22 0 32.5 -8t16.5 -28l169 -595q9 -35 -21 -35h-137q-24 0 -32 7.5t-13 31.5zM306 470h-4l-13 -83l-17 -104h60l-15 104q-10 76 -11 83z" />
    <glyph glyph-name="Beta" unicode="&#x392;" horiz-adv-x="576" 
d="M541 204q0 -96 -56 -150q-55 -54 -142 -54h-270q-17 0 -23 5.5t-6 18.5v617q0 13 6 18.5t23 5.5h253q200 0 200 -181q0 -94 -81 -129l-1 -5q30 -11 50.5 -30.5t30 -41.5t13 -39.5t3.5 -34.5zM340 213q0 54 -43 54h-56v-106h56q43 0 43 52zM326 461q0 43 -30 43h-55v-83
h55q30 0 30 40z" />
    <glyph glyph-name="Gamma" unicode="&#x393;" horiz-adv-x="475" 
d="M440 504h-201v-480q0 -24 -33 -24h-129q-34 0 -34 24l-1 617q0 13 6.5 18.5t24.5 5.5h367q28 0 28 -24v-113q0 -8 -1 -12t-7.5 -8t-19.5 -4z" />
    <glyph glyph-name="increment" unicode="&#x394;" horiz-adv-x="595" 
d="M571 0h-531q-32 0 -25 30l165 601q5 14 7.5 19.5t13 10.5t30.5 5h140q19 0 30 -6q9 -5 11 -8.5t8 -21.5l174 -602q3 -12 -3 -20t-20 -8zM321 366l-18 107h-4l-17 -108l-43 -205h120z" />
    <glyph glyph-name="increment" unicode="&#x2206;" horiz-adv-x="595" 
d="M571 0h-531q-32 0 -25 30l165 601q5 14 7.5 19.5t13 10.5t30.5 5h140q19 0 30 -6q9 -5 11 -8.5t8 -21.5l174 -602q3 -12 -3 -20t-20 -8zM321 366l-18 107h-4l-17 -108l-43 -205h120z" />
    <glyph glyph-name="Epsilon" unicode="&#x395;" horiz-adv-x="506" 
d="M44 24v617q0 13 5.5 18.5t22.5 5.5h371q27 0 27 -24v-115v-2q0 -8 -0.5 -11t-6 -6t-17.5 -3h-206v-80h182q25 0 25 -20v-115v-4q0 -7 -1 -10.5t-7 -7t-17 -3.5h-182v-103h219q24 0 24 -22v-115q0 -8 -0.5 -12t-7 -8t-19.5 -4h-384q-17 0 -22.5 5.5t-5.5 18.5z" />
    <glyph glyph-name="Zeta" unicode="&#x396;" horiz-adv-x="504" 
d="M460 496l-223 -335h211q19 0 24.5 -5t5.5 -17v-115q0 -9 -1.5 -13t-8 -7.5t-20.5 -3.5h-392q-30 0 -30 24v101q0 23 15 45l222 334h-190q-14 0 -20.5 3.5t-7.5 7t-1 11.5v115q0 9 1 13t7.5 7.5t20.5 3.5h374q30 0 30 -24v-87q0 -29 -17 -58z" />
    <glyph glyph-name="Eta" unicode="&#x397;" horiz-adv-x="584" 
d="M240 423h104v218q0 8 1.5 12.5t8.5 8t20 3.5h137q14 0 21 -5t7.5 -8t0.5 -11v-617v-1q0 -7 -1 -10.5t-8 -8t-20 -4.5h-137q-18 0 -24 5.5t-6 18.5v237h-104v-237v-1q0 -7 -1 -10.5t-8 -8t-20 -4.5h-138q-17 0 -23 5.5t-6 18.5v617q0 13 6 18.5t23 5.5h138q14 0 21 -5
t7.5 -8t0.5 -11v-218z" />
    <glyph glyph-name="Theta" unicode="&#x398;" horiz-adv-x="637" 
d="M35 340q0 90 27 165q18 49 46 83q31 37 85.5 60t123.5 23q198 0 258 -148q31 -74 31 -183q0 -108 -28 -186q-19 -52 -49 -84.5t-83 -55.5q-57 -23 -129 -23q-73 0 -128 23q-53 23 -82 55.5t-47 84.5q-25 74 -25 186zM402 329q0 99 -18 137t-66 38q-41 0 -58.5 -40
t-17.5 -135q0 -93 17 -131.5t59 -38.5q46 0 65 39.5t19 130.5zM360 277h-73q-24 0 -24 23v84q0 22 24 22h72q20 0 20 -23v-84q0 -22 -19 -22z" />
    <glyph glyph-name="Iota" unicode="&#x399;" horiz-adv-x="284" 
d="M44 24v617q0 13 6 18.5t23 5.5h138q14 0 21 -5t7.5 -8t0.5 -11v-617v-1q0 -7 -1 -10.5t-8 -8t-20 -4.5h-138q-17 0 -23 5.5t-6 18.5z" />
    <glyph glyph-name="Kappa" unicode="&#x39a;" horiz-adv-x="565" 
d="M233 641v-169h6q20 43 42 77l57 93q14 23 59 23h140q44 0 20 -33l-177 -247l187 -348q16 -37 -19 -37h-143q-43 0 -59 31l-89 185l-26 -37l1 -155v-1q0 -7 -1 -10.5t-8 -8t-20 -4.5h-135q-31 0 -31 24v617q0 24 31 24h136q14 0 21 -5t7.5 -8t0.5 -11z" />
    <glyph glyph-name="Lambda" unicode="&#x39b;" horiz-adv-x="600" 
d="M390 39l-73 348q-7 34 -11 83h-4q-8 -61 -18 -109l-71 -328q-4 -19 -13.5 -26t-30.5 -7h-125q-38 0 -28 34l162 597q5 16 7.5 20.5t12.5 9t32 5.5h145q22 0 32.5 -8t16.5 -28l169 -595q9 -35 -21 -35h-137q-24 0 -32.5 8t-12.5 31z" />
    <glyph glyph-name="Mu" unicode="&#x39c;" horiz-adv-x="695" 
d="M460 24l-1 198l-4 1l-18 -47l-12 -32q-10 -31 -43 -31h-64q-33 0 -45 30l-13 33l-21 53l-4 -2v-203q0 -24 -33 -24h-125q-33 0 -33 24v617q0 24 31 24h103q29 0 39 -5t17 -22l50 -120l36 -87l25 -62h7q12 31 64 149l51 119q7 16 18 22t37 6h100q14 0 21 -5t8 -9t1 -10
v-617q0 -6 -1 -10t-8 -9t-21 -5h-131q-31 0 -31 24z" />
    <glyph glyph-name="Nu" unicode="&#x39d;" horiz-adv-x="599" 
d="M361 376l3 1v264v1q0 23 29 23h132q18 0 24 -5.5t6 -18.5v-614q0 -9 -1 -13.5t-7.5 -9t-19.5 -4.5h-98q-36 0 -52 28l-85 147q-7 11 -54 101l-3 -1v-251v-1q0 -7 -1 -10.5t-8 -8t-20 -4.5h-133q-17 0 -23 5.5t-6 18.5v617q0 13 6 18.5t23 5.5h97q19 0 28 -4q9 -3 11.5 -5
t7.5 -11q1 -3 2 -4l95 -172q40 -71 47 -93z" />
    <glyph glyph-name="Xi" unicode="&#x39e;" horiz-adv-x="532" 
d="M50 161h431q24 0 24 -24v-115q0 -12 -5.5 -17t-22.5 -5h-422q-18 0 -23.5 5t-5.5 17v115q0 24 24 24zM91 424h347q23 0 23 -24v-115q0 -12 -6 -17t-23 -5h-339q-5 0 -9 0.5t-6.5 1t-4.5 2.5t-3 2.5t-1.5 3.5t-0.5 3.5v4v4.5v115q0 24 23 24zM473 504h-413q-5 0 -9 0.5
t-6.5 1t-4.5 2.5t-3 2.5t-1.5 3.5t-0.5 3.5v4v4.5v115q0 24 29 24h403q27 0 27 -24v-115q0 -8 -0.5 -11.5t-5.5 -7t-15 -3.5z" />
    <glyph glyph-name="Omicron" unicode="&#x39f;" horiz-adv-x="619" 
d="M307 -9q-163 -4 -229 119q-19 30 -28 75q-15 74 -15 156q0 46 4 79q14 103 67 170q29 37 82 60t119 23q132 0 200 -71q57 -58 72 -166q13 -93 1 -189q-14 -114 -68 -176q-69 -80 -205 -80zM382 330q0 97 -16 136t-57 39q-37 0 -52 -40t-15 -135q0 -93 15 -132t52 -39
q39 0 56 40t17 131z" />
    <glyph glyph-name="Pi" unicode="&#x3a0;" horiz-adv-x="592" 
d="M72 665h452q14 0 20.5 -5t7 -8t0.5 -11v-617v-1q0 -7 -1 -10.5t-7.5 -8t-19.5 -4.5h-139q-18 0 -23.5 5.5t-5.5 18.5v479h-116v-479v-1q0 -7 -1 -10.5t-7.5 -8t-19.5 -4.5h-140q-17 0 -22.5 5.5t-5.5 18.5v617q0 13 5.5 18.5t22.5 5.5z" />
    <glyph glyph-name="Rho" unicode="&#x3a1;" horiz-adv-x="513" 
d="M295 233h-55v-209v-1q0 -7 -1 -10.5t-8 -8t-20 -4.5h-138q-17 0 -23 5.5t-6 18.5v617q0 13 6 18.5t23 5.5h222q95 0 156 -55q62 -56 62 -158q0 -82 -41 -144q-22 -35 -68.5 -55t-108.5 -20zM312 447q0 57 -43 57h-29v-115h29q43 0 43 58z" />
    <glyph glyph-name="Sigma" unicode="&#x3a3;" horiz-adv-x="491" 
d="M61 663h372q19 0 24 -5t5 -19v-115q0 -8 -1 -11.5t-7.5 -7t-20.5 -3.5h-192l91 -139q14 -23 1 -44l-91 -158h207q14 0 20.5 -3.5t7.5 -7t1 -11.5v-115q0 -9 -1 -13t-7.5 -7.5t-20.5 -3.5h-385q-14 0 -24 7t-10 17v101q0 23 16 45l96 171l-99 153q-17 26 -17 58v82
q0 13 9 21t26 8z" />
    <glyph glyph-name="Tau" unicode="&#x3a4;" horiz-adv-x="487" 
d="M479 639v-111q0 -24 -32 -24h-105v-480v-1q0 -23 -29 -23h-137q-18 0 -24 5.5t-6 18.5v480h-105q-20 0 -26 5.5t-6 18.5v111q0 9 1.5 13.5t8.5 8.5t22 4h406q15 0 23.5 -7.5t8.5 -18.5z" />
    <glyph glyph-name="Upsilon" unicode="&#x3a5;" horiz-adv-x="612" 
d="M307 399h8q19 61 41 117l44 114q9 22 18.5 29t34.5 7h132q15 0 22 -7.5t2 -17.5l-206 -421h1v-196v-1q0 -7 -1 -10.5t-8 -8t-20 -4.5h-138q-17 0 -23 5.5t-6 18.5v196h1l-194 416q-6 13 0.5 21.5t23.5 8.5h130q24 0 33.5 -5.5t17.5 -23.5l47 -121q24 -65 40 -117z" />
    <glyph glyph-name="Phi" unicode="&#x3a6;" horiz-adv-x="777" 
d="M295 599v42q0 9 1 13t8 7.5t20 3.5h139q22 0 26 -10q2 -5 2 -14v-43q68 -8 119.5 -33t79.5 -61.5t41.5 -75.5t13.5 -81q0 -81 -53 -154q-60 -82 -202 -98v-71q0 -18 -12 -22q-10 -2 -16 -2h-137q-18 0 -23.5 5.5t-5.5 18.5v69q-265 22 -265 252q0 76 54 152
q28 41 83.5 68t126.5 34zM231 346q0 -41 18 -68.5t47 -36.5v208q-65 -20 -65 -103zM490 450v-206q27 6 43.5 33.5t16.5 68.5t-16.5 68.5t-43.5 35.5z" />
    <glyph glyph-name="Chi" unicode="&#x3a7;" horiz-adv-x="539" 
d="M530 635l-152 -290l155 -313q8 -9 1.5 -20.5t-26.5 -11.5h-136q-37 0 -47 25l-53 152l-50 -149q-6 -16 -16.5 -22t-32.5 -6h-139q-19 0 -25 10t2 24l154 311l-144 287q-7 13 0 23t25 10h134q24 0 31.5 -4t14.5 -21l46 -136l45 134q6 15 15 21t29 6h144q20 0 26.5 -10.5
t-1.5 -19.5z" />
    <glyph glyph-name="Psi" unicode="&#x3a8;" horiz-adv-x="738" 
d="M271 326v315q0 13 6 18.5t23 5.5h140q14 0 20.5 -5t7 -8t0.5 -11v-313q44 17 44 90v223q0 13 5.5 18.5t22.5 5.5h134q14 0 20.5 -5t7 -8t0.5 -11v-214q0 -118 -62 -189t-172 -77v-137q0 -24 -33 -24h-130q-34 0 -34 24v137q-119 6 -177 75.5t-58 190.5l-1 214q0 9 1 13
t8 7.5t20 3.5h135q14 0 20.5 -5t7 -8t0.5 -11v-223q0 -80 44 -92z" />
    <glyph glyph-name="Omega" unicode="&#x3a9;" horiz-adv-x="647" 
d="M246 349q-2 -101 33 -151q3 -4 8.5 -11t8 -10.5t4.5 -11t2 -17.5v-123q0 -10 -8 -17.5t-24 -7.5h-217q-14 0 -19.5 5.5t-5.5 18.5v115q0 22 23 22h44l2 2q-27 29 -42 87q-14 62 -14 101q0 83 28 157q18 45 47 81q31 37 85.5 60.5t122.5 23.5q67 0 121.5 -20t85.5 -52
q30 -30 50 -75q31 -71 31 -167q0 -42 -12 -97q-12 -57 -43 -98l2 -3h35q25 0 25 -22v-109q0 -30 -25 -30h-228q-25 0 -25 25v118q0 27 24 52q45 51 45 149q0 83 -18.5 122t-64.5 39q-79 0 -81 -156z" />
    <glyph glyph-name="Iotadieresis" unicode="&#x3aa;" horiz-adv-x="284" 
d="M40 715q-49 0 -67 20.5t-18 62.5q0 40 19.5 60t65.5 20q49 0 68 -19t19 -61t-19 -62.5t-68 -20.5zM253 715q-49 0 -67.5 20.5t-18.5 62.5q0 40 20 60t66 20q49 0 67.5 -18.5t18.5 -61.5q0 -42 -18.5 -62.5t-67.5 -20.5zM44 24v617q0 13 6 18.5t23 5.5h138q14 0 21 -5
t7.5 -8t0.5 -11v-617v-1q0 -7 -1 -10.5t-8 -8t-20 -4.5h-138q-17 0 -23 5.5t-6 18.5z" />
    <glyph glyph-name="Upsilondieresis" unicode="&#x3ab;" horiz-adv-x="612" 
d="M307 399h8q19 61 41 117l44 114q9 22 18.5 29t34.5 7h132q15 0 22 -7.5t2 -17.5l-206 -421h1v-196v-1q0 -7 -1 -10.5t-8 -8t-20 -4.5h-138q-17 0 -23 5.5t-6 18.5v196h1l-194 416q-6 13 0.5 21.5t23.5 8.5h130q24 0 33.5 -5.5t17.5 -23.5l47 -121q24 -65 40 -117z
M205 715q-49 0 -67 20.5t-18 62.5q0 40 19.5 60t65.5 20q49 0 68 -19t19 -61t-19 -62.5t-68 -20.5zM418 715q-49 0 -67.5 20.5t-18.5 62.5q0 40 20 60t66 20q49 0 67.5 -18.5t18.5 -61.5q0 -42 -18.5 -62.5t-67.5 -20.5z" />
    <glyph glyph-name="alphatonos" unicode="&#x3ac;" horiz-adv-x="529" 
d="M211 242q0 -49 7 -68.5t23 -19.5q23 0 45 15v157q-18 9 -33 9q-42 0 -42 -93zM305 42l-6 2q-53 -52 -123 -52q-91 0 -124 76q-28 68 -28 175q0 73 16 127q17 59 59 97t102 38q59 0 91 -42v12q0 13 5 17.5t18 4.5h129q26 0 26 -24v-300q0 -23 3 -30.5t12 -9.5q15 -3 20 -7
t5 -13v-82q0 -19 -37 -29q-30 -8 -68 -8q-41 0 -64.5 10t-35.5 38zM314 810l83 -60q23 -14 5 -36l-125 -156q-17 -20 -31 -8l-58 41q-15 11 -5 28l97 184q11 23 34 7z" />
    <glyph glyph-name="epsilontonos" unicode="&#x3ad;" horiz-adv-x="438" 
d="M80 253v3q-49 33 -49 88q0 95 73 133q59 31 133 31q96 0 153 -28q34 -18 29 -45l-14 -65q-6 -34 -49 -21q-51 10 -98 10q-36 0 -36 -25t45 -25h41q14 0 17.5 -4.5t3.5 -18.5v-67q0 -15 -4 -20t-17 -5h-56q-36 0 -36 -27q0 -26 28 -26q67 0 128 10q25 4 31.5 0.5
t10.5 -21.5l11 -60q2 -13 1 -22t-9.5 -17t-27.5 -17q-58 -23 -144 -23q-221 0 -221 162q0 64 56 100zM271 810l83 -60q23 -14 5 -36l-125 -156q-17 -20 -31 -8l-58 41q-15 11 -5 28l97 184q11 23 34 7z" />
    <glyph glyph-name="etatonos" unicode="&#x3ae;" horiz-adv-x="505" 
d="M214 473v-14l4 -1q52 47 116 47q76 0 111 -46q16 -19 23 -49q11 -40 11 -108v-278q0 -5 -0.5 -7.5t-2.5 -7t-8 -7t-16 -2.5h-131q-28 0 -28 24v266q0 44 -33 44q-19 0 -46 -13v-297q0 -5 -0.5 -7.5t-2.5 -7t-8 -7t-16 -2.5h-130q-17 0 -23 5.5t-6 18.5v449q0 13 6 18.5
t23 5.5h134q23 0 23 -24zM293 810l83 -60q23 -14 5 -36l-125 -156q-17 -20 -31 -8l-58 41q-15 11 -5 28l97 184q11 23 34 7z" />
    <glyph glyph-name="iotatonos" unicode="&#x3af;" horiz-adv-x="263" 
d="M222 473v-449q0 -24 -31 -24h-122q-32 0 -32 24v449q0 24 32 24h122q31 0 31 -24zM196 810l83 -60q23 -14 5 -36l-125 -156q-17 -20 -31 -8l-58 41q-15 11 -5 28l97 184q11 23 34 7z" />
    <glyph glyph-name="upsilondieresistonos" unicode="&#x3b0;" horiz-adv-x="502" 
d="M419 693q44 0 61 -17t17 -55q0 -36 -16 -55t-62 -19t-62 19q-15 20 -15 55q0 37 18 54.5t59 17.5zM254 810l95 -28q27 -8 15 -33l-85 -202q-9 -22 -27 -16l-66 18q-19 6 -13 25l50 220q5 27 31 16zM83 693q44 0 61 -17t17 -55q0 -36 -16 -55t-62 -19t-62 19
q-15 20 -15 55q0 37 18 54.5t59 17.5zM214 473v-264q0 -60 38 -60q36 0 36 60v264q0 20 15 23q3 1 11 1h133q27 0 27 -24v-274q0 -89 -60 -148q-58 -58 -166 -58t-164 54.5t-56 151.5v274v2q5 20 26 22h133q27 0 27 -24z" />
    <glyph glyph-name="alpha" unicode="&#x3b1;" horiz-adv-x="529" 
d="M211 242q0 -49 7 -68.5t23 -19.5q23 0 45 15v157q-18 9 -33 9q-42 0 -42 -93zM305 42l-6 2q-53 -52 -123 -52q-91 0 -124 76q-28 68 -28 175q0 73 16 127q17 59 59 97t102 38q59 0 91 -42v12q0 13 5 17.5t18 4.5h129q26 0 26 -24v-300q0 -23 3 -30.5t12 -9.5q15 -3 20 -7
t5 -13v-82q0 -19 -37 -29q-30 -8 -68 -8q-41 0 -64.5 10t-35.5 38z" />
    <glyph glyph-name="beta" unicode="&#x3b2;" horiz-adv-x="499" 
d="M220 -5l-6 -5v-171q0 -20 -15 -23q-3 -1 -11 -1h-133q-17 0 -22 5.5t-5 18.5v657q0 114 58 175q59 63 151 63q93 0 150 -49t57 -130q0 -32 -17 -65t-49 -52v-5q98 -42 98 -168q0 -132 -43.5 -194.5t-144.5 -62.5q-33 0 -68 7zM237 563q-28 0 -28 -48v-363q12 -4 38 -4
q23 0 31.5 20t8.5 79q0 47 -7 65q-7 19 -29 23q-25 4 -25 17v78q0 14 16 23q13 8 17.5 20.5t4.5 42.5q0 47 -27 47z" />
    <glyph glyph-name="gamma" unicode="&#x3b3;" horiz-adv-x="510" 
d="M261 206h6q8 45 25 122l35 145q2 7 3.5 10t5 7t11 5.5t19.5 1.5h127q31 0 19 -29l-155 -467v-182q0 -20 -15 -23q-3 -1 -11 -1h-133q-17 0 -22 5.5t-5 18.5v172l-108 339q-8 23 -24 26q-20 3 -22 17l-15 93q-3 17 17 26q36 18 85 18q50 0 73.5 -17.5t33.5 -60.5l35 -149
q12 -52 15 -77z" />
    <glyph glyph-name="delta" unicode="&#x3b4;" horiz-adv-x="498" 
d="M256 718q79 0 139 -22q26 -10 38 -19q14 -10 10 -32l-12 -58q-4 -21 -16 -25t-48 2q-39 7 -104 10q-15 0 -19 -4.5t-4 -12.5q0 -10 13 -20.5t58 -37.5l48 -29q58 -35 86.5 -88t28.5 -135q0 -255 -226 -255q-111 0 -168 59q-23 26 -36 62q-20 60 -20 134q0 52 22 108
t70 85h-1q-33 26 -46.5 51t-13.5 59q0 79 55 123.5t146 44.5zM245 149q41 0 41 92q0 27 -2 47q-6 50 -32 56q-18 -8 -28 -36.5t-10 -66.5q0 -54 6 -73t25 -19z" />
    <glyph glyph-name="epsilon" unicode="&#x3b5;" horiz-adv-x="438" 
d="M80 253v3q-49 33 -49 88q0 95 73 133q59 31 133 31q96 0 153 -28q34 -18 29 -45l-14 -65q-6 -34 -49 -21q-51 10 -98 10q-36 0 -36 -25t45 -25h41q14 0 17.5 -4.5t3.5 -18.5v-67q0 -15 -4 -20t-17 -5h-56q-36 0 -36 -27q0 -26 28 -26q67 0 128 10q25 4 31.5 0.5
t10.5 -21.5l11 -60q2 -13 1 -22t-9.5 -17t-27.5 -17q-58 -23 -144 -23q-221 0 -221 162q0 64 56 100z" />
    <glyph glyph-name="zeta" unicode="&#x3b6;" horiz-adv-x="451" 
d="M250 -16q-230 12 -230 174q0 53 35 102.5t92 86.5l-1 4h-90q-21 0 -21 25v97q0 24 21 24h364q20 0 20 -23v-70q0 -36 -18 -46q-212 -125 -212 -187q0 -23 28.5 -30.5t91.5 -7.5h36q18 0 25.5 -4.5t14.5 -20.5l22 -56q10 -20 -4 -49q-49 -100 -67 -153q-9 -26 -14.5 -30.5
t-25.5 0.5l-86 21q-25 10 -16 46q14 52 35 97z" />
    <glyph glyph-name="eta" unicode="&#x3b7;" horiz-adv-x="507" 
d="M214 473v-14l4 -1q52 47 116 47q76 0 111 -46q16 -19 23 -49q11 -40 11 -108v-278q0 -5 -0.5 -7.5t-2.5 -7t-8 -7t-16 -2.5h-131q-28 0 -28 24v266q0 44 -33 44q-19 0 -46 -13v-297q0 -5 -0.5 -7.5t-2.5 -7t-8 -7t-16 -2.5h-130q-17 0 -23 5.5t-6 18.5v449q0 13 6 18.5
t23 5.5h134q23 0 23 -24z" />
    <glyph glyph-name="theta" unicode="&#x3b8;" horiz-adv-x="519" 
d="M495 360q0 -30 -2 -70q-2 -79 -22 -141q-47 -157 -214 -157q-131 0 -186 91q-31 54 -40 130q-7 56 -7 147q0 105 20 178q12 48 37 86q26 38 71.5 61.5t104.5 23.5q118 0 175 -71q26 -30 39 -79q24 -77 24 -199zM306 300h-92q-4 -154 44 -154q26 0 37 36t11 118zM258 556
q-18 0 -30 -34t-12 -92h87q7 126 -45 126z" />
    <glyph glyph-name="iota" unicode="&#x3b9;" horiz-adv-x="263" 
d="M222 473v-449q0 -24 -31 -24h-122q-32 0 -32 24v449q0 24 32 24h122q31 0 31 -24z" />
    <glyph glyph-name="kappa" unicode="&#x3ba;" horiz-adv-x="495" 
d="M213 474v-88l3 -1l26 42l29 44q9 15 21.5 20.5t38.5 5.5h132q15 0 18.5 -8.5t-5.5 -22.5l-126 -166l141 -268q17 -32 -20 -32h-129q-17 0 -28 4.5t-15 9t-9 14.5l-60 117l-17 -24v-97q0 -5 -0.5 -7.5t-2.5 -7t-8 -7t-16 -2.5h-129q-17 0 -23 5.5t-6 18.5v450q0 13 6 18.5
t23 5.5h129q13 0 19.5 -5t7 -8.5t0.5 -10.5z" />
    <glyph glyph-name="lambda" unicode="&#x3bb;" horiz-adv-x="476" 
d="M237 241h-4q-1 -29 -20 -100l-34 -123q-6 -18 -31 -18h-120q-17 0 -21.5 5.5t0.5 19.5l152 441h-1l-13 55q-9 34 -23 39q-9 3 -26 3q-16 0 -21.5 3t-6.5 12l-13 81q-2 15 1.5 21.5t16.5 11.5q57 20 110 20q46 2 76.5 -18t47.5 -74l123 -454q4 -17 8.5 -23t15.5 -7
q19 -3 22 -9q2 -6 2 -11l6 -77q2 -21 -18 -30q-39 -16 -97 -16q-90 0 -107 95l-13 69q-6 30 -12 84z" />
    <glyph glyph-name="nu" unicode="&#x3bd;" horiz-adv-x="509" 
d="M248 268l12 -62h6q10 74 24 125l35 142q2 7 3.5 10t5.5 7t12 5.5t21 1.5h114q23 0 29 -6.5t1 -22.5l-141 -428q-13 -40 -56 -40h-101q-27 0 -39.5 9t-19.5 31l-138 427q-9 30 26 30h122q16 0 21.5 -1t11 -6.5t8.5 -18.5l32 -146z" />
    <glyph glyph-name="xi" unicode="&#x3be;" horiz-adv-x="437" 
d="M108 372l1 6q-34 17 -53.5 51.5t-19.5 71.5q0 100 60 155t163 55q99 0 156 -28q30 -13 24 -45l-13 -65q-3 -18 -9 -21t-30 0q-65 9 -115 9q-53 0 -53 -61q2 -56 69 -56h80q23 0 23 -23v-79q0 -15 -4.5 -20t-18.5 -5h-68q-43 0 -66.5 -26t-23.5 -71q0 -58 42 -75
q34 -11 83 -11h38q20 0 27.5 -4.5t14.5 -20.5l25 -56q10 -21 -5 -50q-56 -106 -72 -157q-8 -25 -15 -30t-27 0l-87 23q-30 8 -20 45q10 43 39 100q-114 6 -171 59t-54 166q2 41 21 90q21 48 59 73z" />
    <glyph glyph-name="omicron" unicode="&#x3bf;" horiz-adv-x="497" 
d="M473 255q0 -83 -20 -138q-39 -121 -208 -125q-113 0 -167 61q-20 23 -35 64q-19 58 -19 138q0 72 21 125q42 123 200 126q228 0 228 -251zM285 249q0 56 -7.5 77t-30.5 21q-36 0 -36 -98q0 -54 7.5 -76.5t26.5 -22.5q23 0 31.5 23t8.5 76z" />
    <glyph glyph-name="pi" unicode="&#x3c0;" horiz-adv-x="518" 
d="M491 474v-450q0 -6 -1 -10t-7.5 -9t-19.5 -5h-129q-29 0 -29 24l1 325h-92v-325q0 -6 -1 -10t-7.5 -9t-19.5 -5h-129q-17 0 -23 5.5t-6 18.5v449q0 24 29 24h406q17 0 22.5 -5t5.5 -18z" />
    <glyph glyph-name="rho" unicode="&#x3c1;" horiz-adv-x="499" 
d="M28 -181v423q0 127 57 196.5t166 69.5q134 0 182 -81q43 -69 43 -179q0 -128 -41 -195q-41 -65 -151 -65q-30 0 -70 8v-177q0 -20 -15 -23q-3 -1 -11 -1h-133q-17 0 -22 5.5t-5 18.5zM287 250q0 94 -36 94q-38 0 -38 -66v-126q13 -4 31 -4q24 0 33.5 21.5t9.5 80.5z" />
    <glyph glyph-name="sigma1" unicode="&#x3c2;" horiz-adv-x="445" 
d="M431 164q0 -92 -61 -132q-62 -41 -156 -41q-81 0 -143 22q-32 12 -41 24t-4 36l12 59q4 18 12 22t33 -2q67 -14 123 -14q37 0 37 21q0 12 -4.5 15.5t-19.5 5.5q-83 12 -133 38q-56 33 -56 120q0 80 54.5 124t145.5 44q84 0 140 -22q31 -12 40.5 -21.5t6.5 -29.5l-13 -63
q-4 -18 -9.5 -21t-31.5 0q-80 12 -126 13q-15 0 -19 -4.5t-4 -12.5q0 -15 29 -18q80 -11 129 -40q59 -34 59 -123z" />
    <glyph glyph-name="sigma" unicode="&#x3c3;" horiz-adv-x="520" 
d="M483 352h-45l-1 -5h-1q30 -45 30 -111q0 -68 -21 -121q-38 -119 -204 -123q-125 0 -173 70q-29 42 -38 94q-6 48 -6 97q0 83 39 154q22 42 71 66t118 24h231q18 0 22.5 -4.5t4.5 -18.5v-97q0 -16 -4.5 -20.5t-22.5 -4.5zM281 247q0 87 -27 104q-25 -2 -36 -26t-11 -78
q0 -56 8 -78t27 -22q21 0 30 22t9 78z" />
    <glyph glyph-name="tau" unicode="&#x3c4;" horiz-adv-x="431" 
d="M41 497h343q17 0 21.5 -4.5t4.5 -18.5v-97q0 -11 -1 -15t-6.5 -7t-18.5 -3h-96v-118q0 -47 8.5 -62t33.5 -15q14 0 57 4q22 2 29 -2.5t9 -24.5l8 -72q3 -34 -25 -44q-60 -26 -150 -26q-79 0 -115 39.5t-36 119.5v201h-66q-17 0 -22.5 6t-5.5 19v96q0 24 28 24z" />
    <glyph glyph-name="upsilon" unicode="&#x3c5;" horiz-adv-x="502" 
d="M213 473v-264q0 -60 38 -60q36 0 36 60v264q0 20 15 23q3 1 11 1h133q27 0 27 -24v-274q0 -89 -60 -148q-58 -58 -166 -58t-164 54.5t-56 151.5v274v2q5 20 26 22h133q27 0 27 -24z" />
    <glyph glyph-name="phi" unicode="&#x3c6;" horiz-adv-x="701" 
d="M443 351v-210q24 6 39.5 36.5t15.5 65.5q0 41 -14.5 72t-40.5 36zM25 250q0 160 120 237q27 16 46 -10l50 -66q13 -16 3 -26q-41 -41 -41 -125q0 -49 17 -81.5t47 -39.5v297q0 73 75 73h84q67 0 117.5 -22.5t78 -60t41 -81.5t13.5 -93q0 -110 -60.5 -180t-173.5 -82v-142
q0 -24 -31 -24h-122q-32 0 -32 24v141q-118 10 -173 70q-23 26 -38 62q-21 53 -21 129z" />
    <glyph glyph-name="chi" unicode="&#x3c7;" horiz-adv-x="500" 
d="M496 467l-127 -214h1l130 -222q7 -11 1 -21t-23 -10h-135q-34 0 -43 19l-47 120l-45 -118q-9 -21 -41 -21h-139q-38 0 -20 31h-1l131 222l-120 214q-8 10 -2 20t23 10h135q21 0 27.5 -3.5t11.5 -15.5l41 -113l40 112q6 20 38 20h141q41 0 23 -30z" />
    <glyph glyph-name="psi" unicode="&#x3c8;" horiz-adv-x="685" 
d="M432 532v-382q22 4 35 22t13 42v259q0 20 15 23q3 1 11 1h128q16 0 21 -5.5t5 -18.5v-262q0 -89 -61 -151t-165 -67v-145v-2q0 -7 -1 -10.5t-7 -7.5t-18 -4h-132q-17 0 -22 5.5t-5 18.5l-1 145q-100 7 -162 69q-60 62 -60 149v262v3q0 6 1 9.5t7 7.5t18 4h127
q17 0 22 -5.5t5 -18.5v-259q0 -22 12.5 -40t32.5 -24v382q0 13 5 18.5t22 5.5h128q19 -3 23 -8t3 -16z" />
    <glyph glyph-name="omega" unicode="&#x3c9;" horiz-adv-x="699" 
d="M351 54l-5 -1q-37 -61 -122 -61q-200 0 -200 254q0 202 163 263q29 10 43 7t23 -23l31 -73q9 -21 -17 -38q-33 -23 -45 -53t-12 -90q0 -40 5.5 -62t12 -26.5t16.5 -4.5q30 0 30 49v98q0 9 0.5 12.5t6 7.5t17.5 4h106q23 0 23 -24v-98q0 -49 28 -49q34 0 34 93
q0 59 -12.5 89.5t-47.5 53.5q-26 18 -17 38l35 73q10 20 23 23t41 -7q165 -65 165 -263q0 -254 -201 -254q-39 0 -73.5 15.5t-50.5 46.5z" />
    <glyph glyph-name="iotadieresis" unicode="&#x3ca;" horiz-adv-x="263" 
d="M30 547q-49 0 -67 20t-18 63q0 41 19 60.5t66 19.5q48 0 67.5 -19t19.5 -61t-19 -62.5t-68 -20.5zM147 630q0 40 19.5 60t65.5 20q50 0 68.5 -18.5t18.5 -61.5q0 -42 -19 -62.5t-68 -20.5q-48 0 -66.5 20.5t-18.5 62.5zM222 473v-449q0 -24 -31 -24h-122q-32 0 -32 24
v449q0 24 32 24h122q31 0 31 -24z" />
    <glyph glyph-name="upsilondieresis" unicode="&#x3cb;" horiz-adv-x="502" 
d="M213 473v-264q0 -60 38 -60q36 0 36 60v264q0 20 15 23q3 1 11 1h133q27 0 27 -24v-274q0 -89 -60 -148q-58 -58 -166 -58t-164 54.5t-56 151.5v274v2q5 20 26 22h133q27 0 27 -24zM147 547q-49 0 -67 20t-18 63q0 41 19 60.5t66 19.5q49 0 68 -19t19 -61t-19 -62.5
t-68 -20.5zM264 630q0 40 19.5 60t65.5 20q50 0 68.5 -18.5t18.5 -61.5q0 -42 -19 -62.5t-68 -20.5q-48 0 -66.5 20.5t-18.5 62.5z" />
    <glyph glyph-name="omicrontonos" unicode="&#x3cc;" horiz-adv-x="497" 
d="M473 255q0 -83 -20 -138q-39 -121 -208 -125q-113 0 -167 61q-20 23 -35 64q-19 58 -19 138q0 72 21 125q42 123 200 126q228 0 228 -251zM285 249q0 56 -7.5 77t-30.5 21q-36 0 -36 -98q0 -54 7.5 -76.5t26.5 -22.5q23 0 31.5 23t8.5 76zM320 810l83 -60q23 -14 5 -36
l-125 -156q-17 -20 -31 -8l-58 41q-15 11 -5 28l97 184q11 23 34 7z" />
    <glyph glyph-name="upsilontonos" unicode="&#x3cd;" horiz-adv-x="502" 
d="M213 473v-264q0 -60 38 -60q36 0 36 60v264q0 20 15 23q3 1 11 1h133q27 0 27 -24v-274q0 -89 -60 -148q-58 -58 -166 -58t-164 54.5t-56 151.5v274v2q5 20 26 22h133q27 0 27 -24zM312 810l83 -60q23 -14 5 -36l-125 -156q-17 -20 -31 -8l-58 41q-15 11 -5 28l97 184
q11 23 34 7z" />
    <glyph glyph-name="omegatonos" unicode="&#x3ce;" horiz-adv-x="699" 
d="M351 54l-5 -1q-37 -61 -122 -61q-200 0 -200 254q0 202 163 263q29 10 43 7t23 -23l31 -73q9 -21 -17 -38q-33 -23 -45 -53t-12 -90q0 -40 5.5 -62t12 -26.5t16.5 -4.5q30 0 30 49v98q0 9 0.5 12.5t6 7.5t17.5 4h106q23 0 23 -24v-98q0 -49 28 -49q34 0 34 93
q0 59 -12.5 89.5t-47.5 53.5q-26 18 -17 38l35 73q10 20 23 23t41 -7q165 -65 165 -263q0 -254 -201 -254q-39 0 -73.5 15.5t-50.5 46.5zM419 810l83 -60q23 -14 5 -36l-125 -156q-17 -20 -31 -8l-58 41q-15 11 -5 28l97 184q11 23 34 7z" />
    <glyph glyph-name="uni0400" unicode="&#x400;" horiz-adv-x="506" 
d="M44 24v617q0 13 5.5 18.5t22.5 5.5h371q27 0 27 -24v-115v-2q0 -8 -0.5 -11t-6 -6t-17.5 -3h-206v-80h182q25 0 25 -20v-115v-4q0 -7 -1 -10.5t-7 -7t-17 -3.5h-182v-103h219q24 0 24 -22v-115q0 -8 -0.5 -12t-7 -8t-19.5 -4h-384q-17 0 -22.5 5.5t-5.5 18.5zM99 832
l60 85q14 25 34 8l166 -133q14 -12 7 -28l-43 -58q-10 -16 -32 -5l-182 96q-23 13 -10 35z" />
    <glyph glyph-name="afii10023" unicode="&#x401;" horiz-adv-x="506" 
d="M44 24v617q0 13 5.5 18.5t22.5 5.5h371q27 0 27 -24v-115v-2q0 -8 -0.5 -11t-6 -6t-17.5 -3h-206v-80h182q25 0 25 -20v-115v-4q0 -7 -1 -10.5t-7 -7t-17 -3.5h-182v-103h219q24 0 24 -22v-115q0 -8 -0.5 -12t-7 -8t-19.5 -4h-384q-17 0 -22.5 5.5t-5.5 18.5zM145 715
q-49 0 -67 20.5t-18 62.5q0 40 19.5 60t65.5 20q49 0 68 -19t19 -61t-19 -62.5t-68 -20.5zM358 715q-49 0 -67.5 20.5t-18.5 62.5q0 40 20 60t66 20q49 0 67.5 -18.5t18.5 -61.5q0 -42 -18.5 -62.5t-67.5 -20.5z" />
    <glyph glyph-name="afii10051" unicode="&#x402;" horiz-adv-x="671" 
d="M498 504h-166v-91q53 12 94 12q65 0 113 -21t73.5 -57t37.5 -76.5t12 -86.5q0 -124 -48 -205q-47 -81 -151 -152q-28 -15 -38 -12.5t-23 26.5l-41 67q-9 15 -7.5 23t15.5 20q101 95 101 229q0 92 -71 92q-28 0 -67 -16v-232q0 -18 -12 -22q-10 -2 -16 -2h-139
q-18 0 -23.5 5.5t-5.5 18.5v480h-111q-15 0 -21.5 4t-7 7.5t-0.5 12.5v113q0 16 6 19t23 5h473q29 0 29 -24v-115q0 -7 -1 -11t-8 -7.5t-20 -3.5z" />
    <glyph glyph-name="afii10052" unicode="&#x403;" horiz-adv-x="475" 
d="M440 504h-201v-480q0 -24 -33 -24h-129q-34 0 -34 24l-1 617q0 13 6.5 18.5t24.5 5.5h367q28 0 28 -24v-113q0 -8 -1 -12t-7.5 -8t-19.5 -4zM334 913l58 -86q13 -22 -10 -35l-178 -91q-22 -11 -32 5l-43 59q-7 16 7 28l164 128q20 17 34 -8z" />
    <glyph glyph-name="afii10053" unicode="&#x404;" horiz-adv-x="539" 
d="M35 332q0 108 31 187q62 154 248 154q106 0 173 -34q41 -23 36 -54l-13 -71q-4 -18 -14 -22.5t-37 -1.5q-90 9 -126 9q-67 0 -84 -87h173q25 0 25 -20v-105v-4q0 -7 -1 -10.5t-7 -7t-17 -3.5h-176q6 -54 25.5 -77t60.5 -23q52 0 130 9q27 2 36 -2.5t14 -21.5l15 -65
q8 -32 -35 -56q-70 -36 -177 -36q-280 0 -280 342z" />
    <glyph glyph-name="afii10054" unicode="&#x405;" horiz-adv-x="528" 
d="M243 -9q-111 0 -184 32q-21 9 -30 17t-9 16t1 19l13 72q4 24 15 28.5t41 -2.5q96 -14 155 -14q27 0 38.5 10t11.5 33q-4 21 -13.5 29t-38.5 17q-91 27 -145 63q-72 48 -72 151q0 99 63 154.5t171 55.5t174 -30q29 -13 35 -23.5t3 -28.5l-15 -73q-4 -21 -15 -26.5t-36 0.5
q-68 13 -127 13q-47 0 -47 -38q0 -20 8.5 -27.5t37.5 -16.5q21 -5 45 -13l43 -15q31 -11 42 -20q48 -29 65 -61q25 -48 25 -107t-21.5 -102.5t-59 -67t-80.5 -34.5t-94 -11z" />
    <glyph glyph-name="afii10055" unicode="&#x406;" horiz-adv-x="284" 
d="M44 24v617q0 13 6 18.5t23 5.5h138q14 0 21 -5t7.5 -8t0.5 -11v-617v-1q0 -7 -1 -10.5t-8 -8t-20 -4.5h-138q-17 0 -23 5.5t-6 18.5z" />
    <glyph glyph-name="afii10056" unicode="&#x407;" horiz-adv-x="284" 
d="M38 715q-49 0 -67 20.5t-18 62.5q0 40 19.5 60t65.5 20q49 0 68 -19t19 -61t-19 -62.5t-68 -20.5zM251 715q-49 0 -67.5 20.5t-18.5 62.5q0 40 20 60t66 20q49 0 67.5 -18.5t18.5 -61.5q0 -42 -18.5 -62.5t-67.5 -20.5zM44 24v617q0 13 6 18.5t23 5.5h138q14 0 21 -5
t7.5 -8t0.5 -11v-617v-1q0 -7 -1 -10.5t-8 -8t-20 -4.5h-138q-17 0 -23 5.5t-6 18.5z" />
    <glyph glyph-name="afii10057" unicode="&#x408;" horiz-adv-x="433" 
d="M189 227l-1 414q0 24 30 24h138q14 0 21 -5t7.5 -8t0.5 -11q0 -341 -1 -456q-2 -93 -56.5 -143.5t-158.5 -50.5q-73 0 -127 20q-33 12 -40.5 21t-3.5 32l16 82q5 20 11.5 23t30.5 -1q41 -7 81 -7q31 0 41.5 15.5t10.5 50.5z" />
    <glyph glyph-name="afii10058" unicode="&#x409;" horiz-adv-x="838" 
d="M341 24v481h-50l-11 -183q-5 -79 -10 -115q-4 -40 -20 -91q-13 -46 -37 -73q-55 -59 -159 -60q-26 -1 -36 7t-11 26l-3 81q-1 12 3.5 16t27.5 13q34 14 44 39q12 28 16 106l25 370q2 24 32 24h358q28 0 28 -24v-216h61q129 0 182 -74q45 -62 45 -141q0 -103 -65 -157
q-65 -53 -162 -53h-229q-18 0 -23.5 5.5t-5.5 18.5zM627 211q0 60 -42 60h-47v-113h47q19 0 30.5 14.5t11.5 38.5z" />
    <glyph glyph-name="afii10059" unicode="&#x40a;" horiz-adv-x="816" 
d="M318 423v218q0 13 5.5 18.5t22.5 5.5h141q14 0 20.5 -5t7 -8t0.5 -11v-216h60q129 0 182 -74q46 -61 46 -141q0 -103 -66 -157q-65 -53 -162 -53h-229q-17 0 -22.5 5.5t-5.5 18.5v237h-78v-237v-1q0 -7 -1 -10.5t-7.5 -8t-19.5 -4.5h-140q-17 0 -22.5 5.5t-5.5 18.5v617
q0 13 5.5 18.5t22.5 5.5h140q14 0 20.5 -5t7 -8t0.5 -11v-218h78zM604 211q0 60 -42 60h-48v-113h48q19 0 30.5 15t11.5 38z" />
    <glyph glyph-name="afii10060" unicode="&#x40b;" horiz-adv-x="690" 
d="M655 247v-220v-6t-1.5 -6.5t-4 -7.5t-8 -4.5t-14.5 -2.5h-139q-18 0 -23.5 6.5t-5.5 20.5v209q0 57 -39 57q-31 0 -80 -20v-246v-3q0 -7 -0.5 -10.5t-7.5 -8.5t-20 -5h-139q-18 0 -23.5 6.5t-5.5 20.5v477h-111q-11 0 -17.5 1.5t-8.5 6.5t-2.5 7t-0.5 10v109q0 20 9 24
q7 3 20 3h475q27 0 27 -24v-111q0 -7 -0.5 -9.5t-2.5 -7.5t-8 -7t-16 -2h-168v-71q72 20 112 20q203 0 203 -206z" />
    <glyph glyph-name="afii10061" unicode="&#x40c;" horiz-adv-x="576" 
d="M418 345v-4q57 -24 83 -119l56 -197q7 -25 -25 -25h-132q-31 0 -41 8q-8 7 -16 36l-41 166q-8 32 -20 44t-31 12h-11v-240v-2q-5 -22 -28 -24h-140q-17 0 -22.5 5.5t-5.5 18.5v617q0 13 5.5 18.5t22.5 5.5h140q14 0 20.5 -5t7 -8t0.5 -11v-215h17q36 0 51 56l39 148
q5 21 13.5 27.5t31.5 6.5h136q29 0 23 -25l-47 -171q-25 -97 -86 -123zM398 913l58 -86q13 -22 -10 -35l-178 -91q-22 -11 -32 5l-43 59q-7 16 7 28l164 128q20 17 34 -8z" />
    <glyph glyph-name="uni040D" unicode="&#x40d;" horiz-adv-x="614" 
d="M240 641v-253h6q26 59 56 115l70 130q1 1 3.5 5.5t3 5.5t3 4.5t4 5t5 4t6.5 3t7.5 2t10 2t11.5 0.5h117q14 0 20.5 -5t7 -8t0.5 -11v-617v-1q0 -7 -1 -10.5t-7.5 -8t-19.5 -4.5h-140q-18 0 -23.5 5.5t-5.5 18.5v264l-4 1q-28 -60 -53 -105l-83 -151q-20 -33 -58 -33h-104
q-17 0 -22.5 5.5t-5.5 18.5v617q0 13 5.5 18.5t22.5 5.5h140q14 0 20.5 -5t7 -8t0.5 -11zM138 832l60 85q14 25 34 8l166 -133q14 -12 7 -28l-43 -58q-10 -16 -32 -5l-182 96q-23 13 -10 35z" />
    <glyph glyph-name="afii10062" unicode="&#x40e;" horiz-adv-x="577" 
d="M304 357l5 1q21 87 35 135l40 133q6 20 13 28q9 11 34 11h133q26 0 19 -25l-164 -463q-16 -47 -25 -67q-13 -29 -29 -54q-26 -41 -62 -59t-99 -21q-51 0 -80 10q-24 8 -31 18t-5 29l7 60q1 27 38 27h5q53 -2 72 24l6 12l-195 479q-11 30 18 30h138q25 0 33 -5t15 -24
l46 -146q24 -77 33 -133zM315 690q-60 0 -115 33q-55 34 -79 93q-16 34 2 51l38 34q20 14 27 12t20 -19q34 -45 56.5 -61.5t50.5 -16.5q52 0 100 73q13 19 22.5 20.5t28.5 -11.5l36 -23q11 -7 13.5 -16t0 -16.5t-10.5 -22.5q-29 -62 -79 -96t-111 -34z" />
    <glyph glyph-name="afii10145" unicode="&#x40f;" horiz-adv-x="584" 
d="M207 -138l-5 138h-129q-14 0 -21 5t-7.5 8t-0.5 11v617q0 17 12 22q10 2 16 2h139q18 0 23.5 -5.5t5.5 -18.5v-479h104v479q0 17 12 22q10 2 16 2h138q18 0 24 -5.5t6 -18.5v-617q0 -8 -1.5 -12.5t-8.5 -8t-20 -3.5h-126l-6 -130q-1 -27 -8 -33.5t-32 -6.5h-92
q-24 0 -31 5.5t-8 26.5z" />
    <glyph glyph-name="afii10017" unicode="&#x410;" horiz-adv-x="600" 
d="M367 137h-129l-25 -104q-5 -19 -14 -26t-30 -7h-125q-38 0 -28 34l162 597q5 16 7.5 20.5t12.5 9t32 5.5h145q22 0 32.5 -8t16.5 -28l169 -595q9 -35 -21 -35h-137q-24 0 -32 7.5t-13 31.5zM306 470h-4l-13 -83l-17 -104h60l-15 104q-10 76 -11 83z" />
    <glyph glyph-name="afii10018" unicode="&#x411;" horiz-adv-x="542" 
d="M44 24v617q0 24 28 24h366q29 0 29 -24v-115q0 -7 -1 -11t-8 -7.5t-20 -3.5h-197v-79h60q129 0 182 -74q46 -61 46 -141q0 -103 -66 -157q-65 -53 -162 -53h-229q-17 0 -22.5 5.5t-5.5 18.5zM330 211q0 60 -43 60h-47v-113h47q19 0 31 15t12 38z" />
    <glyph glyph-name="afii10019" unicode="&#x412;" horiz-adv-x="576" 
d="M541 204q0 -96 -56 -150q-55 -54 -142 -54h-270q-17 0 -23 5.5t-6 18.5v617q0 13 6 18.5t23 5.5h253q200 0 200 -181q0 -94 -81 -129l-1 -5q30 -11 50.5 -30.5t30 -41.5t13 -39.5t3.5 -34.5zM340 213q0 54 -43 54h-56v-106h56q43 0 43 52zM326 461q0 43 -30 43h-55v-83
h55q30 0 30 40z" />
    <glyph glyph-name="afii10020" unicode="&#x413;" horiz-adv-x="475" 
d="M440 504h-201v-480q0 -24 -33 -24h-129q-34 0 -34 24l-1 617q0 13 6.5 18.5t24.5 5.5h367q28 0 28 -24v-113q0 -8 -1 -12t-7.5 -8t-19.5 -4z" />
    <glyph glyph-name="afii10021" unicode="&#x414;" horiz-adv-x="683" 
d="M406 162v347h-69l-12 -172q-9 -110 -37 -175h118zM17 -123l-9 233q-1 31 31 40l40 11q45 44 59 192l19 271q2 41 45 41h372q29 0 29 -24v-484l37 -4q14 -1 21.5 -7t9 -12t2.5 -19l-9 -238q-1 -27 -8 -33.5t-31 -6.5h-90q-25 0 -32.5 5.5t-8.5 26.5l-7 131h-287l-10 -131
q-1 -20 -8.5 -26t-31.5 -6h-94q-23 0 -30.5 8t-8.5 32z" />
    <glyph glyph-name="afii10022" unicode="&#x415;" horiz-adv-x="506" 
d="M44 24v617q0 13 5.5 18.5t22.5 5.5h371q27 0 27 -24v-115v-2q0 -8 -0.5 -11t-6 -6t-17.5 -3h-206v-80h182q25 0 25 -20v-115v-4q0 -7 -1 -10.5t-7 -7t-17 -3.5h-182v-103h219q24 0 24 -22v-115q0 -8 -0.5 -12t-7 -8t-19.5 -4h-384q-17 0 -22.5 5.5t-5.5 18.5z" />
    <glyph glyph-name="afii10024" unicode="&#x416;" horiz-adv-x="848" 
d="M698 345v-4q57 -24 83 -119l56 -197q7 -25 -25 -25h-132q-31 0 -41 8q-8 7 -16 36l-41 166q-8 32 -19 44t-29 12h-5v-240q0 -21 -15 -25q-5 -1 -13 -1h-138q-17 0 -22.5 5.5t-5.5 18.5v242h-5q-18 0 -29 -12t-19 -44l-41 -166q-8 -29 -16 -36q-10 -8 -41 -8h-132
q-32 0 -25 25l56 197q26 95 83 119v4q-61 26 -86 123l-47 171q-6 25 23 25h136q23 0 31.5 -6.5t13.5 -27.5l39 -148q15 -56 48 -56h11v215q0 13 5.5 18.5t22.5 5.5h138q14 0 20.5 -5t7 -8t0.5 -11v-215h11q33 0 48 56l39 148q5 21 13.5 27.5t31.5 6.5h136q29 0 23 -25
l-47 -171q-25 -97 -86 -123z" />
    <glyph glyph-name="afii10025" unicode="&#x417;" horiz-adv-x="528" 
d="M414 361v-7q42 -17 64.5 -53t22.5 -82q0 -111 -68.5 -169.5t-192.5 -58.5q-33 0 -95 8q-58 7 -91 21q-28 12 -37 24.5t-7 30.5q1 18 11 67q4 21 13.5 26t39.5 1q78 -13 151 -13q40 0 58 15t18 50q0 25 -14 41t-41 16h-89q-18 0 -24.5 5.5t-6.5 21.5v93q0 29 33 29h80
q53 0 53 41q0 50 -66 50q-48 0 -128 -16q-29 -5 -38 -1t-14 23l-15 76q-3 16 5.5 27t36.5 23q69 31 178 31q115 0 175.5 -51t60.5 -142q0 -84 -73 -127z" />
    <glyph glyph-name="afii10026" unicode="&#x418;" horiz-adv-x="614" 
d="M240 641v-253h6q26 59 56 115l70 130q1 1 3.5 5.5t3 5.5t3 4.5t4 5t5 4t6.5 3t7.5 2t10 2t11.5 0.5h117q14 0 20.5 -5t7 -8t0.5 -11v-617v-1q0 -7 -1 -10.5t-7.5 -8t-19.5 -4.5h-140q-18 0 -23.5 5.5t-5.5 18.5v264l-4 1q-28 -60 -53 -105l-83 -151q-20 -33 -58 -33h-104
q-17 0 -22.5 5.5t-5.5 18.5v617q0 13 5.5 18.5t22.5 5.5h140q14 0 20.5 -5t7 -8t0.5 -11z" />
    <glyph glyph-name="afii10027" unicode="&#x419;" horiz-adv-x="614" 
d="M240 641v-253h6q26 59 56 115l70 130q1 1 3.5 5.5t3 5.5t3 4.5t4 5t5 4t6.5 3t7.5 2t10 2t11.5 0.5h117q14 0 20.5 -5t7 -8t0.5 -11v-617v-1q0 -7 -1 -10.5t-7.5 -8t-19.5 -4.5h-140q-18 0 -23.5 5.5t-5.5 18.5v264l-4 1q-28 -60 -53 -105l-83 -151q-20 -33 -58 -33h-104
q-17 0 -22.5 5.5t-5.5 18.5v617q0 13 5.5 18.5t22.5 5.5h140q14 0 20.5 -5t7 -8t0.5 -11zM320 699q-60 0 -115 33q-55 34 -79 93q-16 34 2 51l38 34q20 14 27 12t20 -19q34 -45 56.5 -61.5t50.5 -16.5q52 0 100 73q13 19 22.5 20.5t28.5 -11.5l36 -23q11 -7 13.5 -16
t0 -16.5t-10.5 -22.5q-29 -62 -79 -96t-111 -34z" />
    <glyph glyph-name="afii10028" unicode="&#x41a;" horiz-adv-x="576" 
d="M418 345v-4q57 -24 83 -119l56 -197q7 -25 -25 -25h-132q-31 0 -41 8q-8 7 -16 36l-41 166q-8 32 -20 44t-31 12h-11v-240v-2q-5 -22 -28 -24h-140q-17 0 -22.5 5.5t-5.5 18.5v617q0 13 5.5 18.5t22.5 5.5h140q14 0 20.5 -5t7 -8t0.5 -11v-215h17q36 0 51 56l39 148
q5 21 13.5 27.5t31.5 6.5h136q29 0 23 -25l-47 -171q-25 -97 -86 -123z" />
    <glyph glyph-name="afii10029" unicode="&#x41b;" horiz-adv-x="582" 
d="M540 641v-617v-1q0 -7 -1 -10.5t-7.5 -8t-19.5 -4.5h-140q-18 0 -23.5 6.5t-5.5 20.5v478h-50l-11 -183q-5 -79 -10 -115q-4 -40 -20 -91q-13 -46 -37 -73q-55 -59 -159 -60q-26 -1 -36 7t-11 26l-3 81q-1 12 3.5 16t27.5 13q34 14 44 39q12 28 16 106l25 370q2 24 32 24
h357q29 0 29 -24z" />
    <glyph glyph-name="afii10030" unicode="&#x41c;" horiz-adv-x="695" 
d="M460 24l-1 198l-4 1l-18 -47l-12 -32q-10 -31 -43 -31h-64q-33 0 -45 30l-13 33l-21 53l-4 -2v-203q0 -24 -33 -24h-125q-33 0 -33 24v617q0 24 31 24h103q29 0 39 -5t17 -22l50 -120l36 -87l25 -62h7q12 31 64 149l51 119q7 16 18 22t37 6h100q14 0 21 -5t8 -9t1 -10
v-617q0 -6 -1 -10t-8 -9t-21 -5h-131q-31 0 -31 24z" />
    <glyph glyph-name="afii10031" unicode="&#x41d;" horiz-adv-x="584" 
d="M240 423h104v218q0 8 1.5 12.5t8.5 8t20 3.5h137q14 0 21 -5t7.5 -8t0.5 -11v-617v-1q0 -7 -1 -10.5t-8 -8t-20 -4.5h-137q-18 0 -24 5.5t-6 18.5v237h-104v-237v-1q0 -7 -1 -10.5t-8 -8t-20 -4.5h-138q-17 0 -23 5.5t-6 18.5v617q0 13 6 18.5t23 5.5h138q14 0 21 -5
t7.5 -8t0.5 -11v-218z" />
    <glyph glyph-name="afii10032" unicode="&#x41e;" horiz-adv-x="619" 
d="M307 -9q-163 -4 -229 119q-19 30 -28 75q-15 74 -15 156q0 46 4 79q14 103 67 170q29 37 82 60t119 23q132 0 200 -71q57 -58 72 -166q13 -93 1 -189q-14 -114 -68 -176q-69 -80 -205 -80zM382 330q0 97 -16 136t-57 39q-37 0 -52 -40t-15 -135q0 -93 15 -132t52 -39
q39 0 56 40t17 131z" />
    <glyph glyph-name="afii10033" unicode="&#x41f;" horiz-adv-x="592" 
d="M72 665h452q14 0 20.5 -5t7 -8t0.5 -11v-617v-1q0 -7 -1 -10.5t-7.5 -8t-19.5 -4.5h-139q-18 0 -23.5 5.5t-5.5 18.5v479h-116v-479v-1q0 -7 -1 -10.5t-7.5 -8t-19.5 -4.5h-140q-17 0 -22.5 5.5t-5.5 18.5v617q0 13 5.5 18.5t22.5 5.5z" />
    <glyph glyph-name="afii10034" unicode="&#x420;" horiz-adv-x="513" 
d="M295 233h-55v-209v-1q0 -7 -1 -10.5t-8 -8t-20 -4.5h-138q-17 0 -23 5.5t-6 18.5v617q0 13 6 18.5t23 5.5h222q95 0 156 -55q62 -56 62 -158q0 -82 -41 -144q-22 -35 -68.5 -55t-108.5 -20zM312 447q0 57 -43 57h-29v-115h29q43 0 43 58z" />
    <glyph glyph-name="afii10035" unicode="&#x421;" horiz-adv-x="539" 
d="M35 332q0 108 31 187q62 154 248 154q106 0 173 -34q41 -23 36 -54l-13 -71q-4 -18 -14 -22.5t-37 -1.5q-90 9 -126 9q-90 0 -90 -163q0 -94 18 -135q19 -39 71 -39t130 9q27 2 36 -2.5t14 -21.5l15 -65q8 -32 -35 -56q-70 -36 -177 -36q-280 0 -280 342z" />
    <glyph glyph-name="afii10036" unicode="&#x422;" horiz-adv-x="487" 
d="M479 639v-111q0 -24 -32 -24h-105v-480v-1q0 -23 -29 -23h-137q-18 0 -24 5.5t-6 18.5v480h-105q-20 0 -26 5.5t-6 18.5v111q0 9 1.5 13.5t8.5 8.5t22 4h406q15 0 23.5 -7.5t8.5 -18.5z" />
    <glyph glyph-name="afii10037" unicode="&#x423;" horiz-adv-x="577" 
d="M304 357l5 1q21 87 35 135l40 133q6 20 13 28q9 11 34 11h133q26 0 19 -25l-164 -463q-16 -47 -25 -67q-13 -29 -29 -54q-26 -41 -62 -59t-99 -21q-51 0 -80 10q-24 8 -31 18t-5 29l7 60q1 27 38 27h5q53 -2 72 24l6 12l-195 479q-11 30 18 30h138q25 0 33 -5t15 -24
l46 -146q24 -77 33 -133z" />
    <glyph glyph-name="afii10038" unicode="&#x424;" horiz-adv-x="777" 
d="M295 599v42q0 9 1 13t8 7.5t20 3.5h139q22 0 26 -10q2 -5 2 -14v-43q68 -8 119.5 -33t79.5 -61.5t41.5 -75.5t13.5 -81q0 -81 -53 -154q-60 -82 -202 -98v-71q0 -18 -12 -22q-10 -2 -16 -2h-137q-18 0 -23.5 5.5t-5.5 18.5v69q-265 22 -265 252q0 76 54 152
q28 41 83.5 68t126.5 34zM231 346q0 -41 18 -68.5t47 -36.5v208q-65 -20 -65 -103zM490 450v-206q27 6 43.5 33.5t16.5 68.5t-16.5 68.5t-43.5 35.5z" />
    <glyph glyph-name="afii10039" unicode="&#x425;" horiz-adv-x="539" 
d="M530 635l-152 -290l155 -313q8 -9 1.5 -20.5t-26.5 -11.5h-136q-37 0 -47 25l-53 152l-50 -149q-6 -16 -16.5 -22t-32.5 -6h-139q-19 0 -25 10t2 24l154 311l-144 287q-7 13 0 23t25 10h134q24 0 31.5 -4t14.5 -21l46 -136l45 134q6 15 15 21t29 6h144q20 0 26.5 -10.5
t-1.5 -19.5z" />
    <glyph glyph-name="afii10040" unicode="&#x426;" horiz-adv-x="623" 
d="M240 641v-479h104v479v3q0 7 1 10.5t7 7t19 3.5h140q18 0 23.5 -5.5t5.5 -18.5v-475l44 -7q20 -3 27.5 -11t6.5 -27l-12 -244q-1 -24 -8.5 -32t-30.5 -8h-90q-21 0 -29 6.5t-10 25.5l-6 131h-360q-22 0 -26 9q-2 5 -2 15v617q0 17 12 22q10 2 16 2h140q13 0 19.5 -4
t7.5 -8t1 -12z" />
    <glyph glyph-name="afii10041" unicode="&#x427;" horiz-adv-x="568" 
d="M12 419v222v1q0 7 1 10.5t7.5 8t19.5 4.5h140q17 0 23 -5.5t6 -18.5v-211q0 -57 39 -57q31 0 79 20v248v1q0 7 1 10.5t7.5 8t19.5 4.5h140q17 0 23 -5.5t6 -18.5v-617q0 -9 -1 -13t-7.5 -7.5t-20.5 -3.5h-139q-29 0 -29 24v209q-72 -20 -111 -20q-204 0 -204 206z" />
    <glyph glyph-name="afii10042" unicode="&#x428;" horiz-adv-x="817" 
d="M745 0h-673q-22 0 -26 9q-2 5 -2 15v617q0 17 12 22q10 2 16 2h139q18 0 23.5 -5.5t5.5 -18.5v-479h66v479v1q0 7 1 10.5t7.5 8t19.5 4.5h140q17 0 23 -5.5t6 -18.5v-479h74v479v1q0 7 1 10.5t7.5 8t19.5 4.5h139q18 0 23.5 -5.5t5.5 -18.5v-617q0 -18 -12 -22
q-10 -2 -16 -2z" />
    <glyph glyph-name="afii10043" unicode="&#x429;" horiz-adv-x="856" 
d="M671 -131l-6 131h-593q-22 0 -26 9q-2 5 -2 15v617q0 17 12 22q10 2 16 2h139q18 0 23.5 -5.5t5.5 -18.5v-479h66v479v1q0 7 1 10.5t7.5 8t19.5 4.5h140q17 0 23 -5.5t6 -18.5v-479h74v479v1q0 7 1 10.5t7.5 8t19.5 4.5h139q18 0 23.5 -5.5t5.5 -18.5v-475l44 -7
q34 -6 34 -38l-12 -244q-1 -24 -8.5 -32t-30.5 -8h-90q-24 0 -31 5.5t-8 26.5z" />
    <glyph glyph-name="afii10044" unicode="&#x42a;" horiz-adv-x="673" 
d="M174 24l-1 480h-143q-29 -2 -29 22v113q0 8 1.5 13t8 9t19.5 4h313q28 0 28 -24v-216h61q129 0 182 -74q45 -62 45 -141q0 -103 -65 -157q-65 -53 -162 -53h-230q-13 0 -19.5 4t-7.5 8t-1 12zM460 211q0 60 -42 60h-47v-113h47q19 0 30.5 14.5t11.5 38.5z" />
    <glyph glyph-name="afii10045" unicode="&#x42b;" horiz-adv-x="814" 
d="M330 211q0 60 -42 60h-48v-113h48q19 0 30.5 15t11.5 38zM44 24v617q0 24 28 24h140q29 0 29 -24v-216h60q129 0 182 -74q46 -61 46 -141q0 -103 -66 -157q-65 -53 -162 -53h-229q-17 0 -22.5 5.5t-5.5 18.5zM573 24v617q0 13 6 18.5t23 5.5h138q14 0 21 -5t7.5 -8
t0.5 -11v-617v-1q0 -7 -1 -10.5t-8 -8t-20 -4.5h-138q-17 0 -23 5.5t-6 18.5z" />
    <glyph glyph-name="afii10046" unicode="&#x42c;" horiz-adv-x="542" 
d="M330 211q0 60 -42 60h-48v-113h48q19 0 30.5 15t11.5 38zM44 24v617q0 24 28 24h140q29 0 29 -24v-216h60q129 0 182 -74q46 -61 46 -141q0 -103 -66 -157q-65 -53 -162 -53h-229q-17 0 -22.5 5.5t-5.5 18.5z" />
    <glyph glyph-name="afii10047" unicode="&#x42d;" horiz-adv-x="547" 
d="M519 332q0 -342 -280 -342q-107 0 -177 36q-43 24 -35 56l15 65q4 18 14.5 22.5t35.5 1.5q78 -9 130 -9q70 0 85 105h-162q-27 0 -27 22v105q0 24 27 24h160q-5 81 -75 81q-72 0 -125 -9q-45 -11 -52 24l-13 71q-6 30 36 54q67 34 173 34q131 0 195 -74q30 -33 46 -79
q29 -76 29 -188z" />
    <glyph glyph-name="afii10048" unicode="&#x42e;" horiz-adv-x="849" 
d="M44 24v617q0 13 5.5 18.5t22.5 5.5h140q14 0 20.5 -5t7 -8t0.5 -11v-220h63q13 92 66 165q63 84 193 84q267 0 267 -331q0 -348 -267 -348q-231 0 -261 272h-61v-239v-1q0 -7 -1 -10.5t-7.5 -8t-19.5 -4.5h-140q-17 0 -22.5 5.5t-5.5 18.5zM627 329q0 94 -15 134t-49 40
q-31 0 -45 -41t-14 -133q0 -171 59 -171q64 0 64 171z" />
    <glyph glyph-name="afii10049" unicode="&#x42f;" horiz-adv-x="568" 
d="M141 288v6q-91 36 -91 162q0 103 62 156t150 53h236q30 0 30 -24v-616q0 -13 -6 -19t-23 -6h-139q-14 0 -21 5t-7.5 8t-0.5 11v225h-18q-22 0 -38 -55l-47 -160q-7 -22 -16.5 -28t-40.5 -6h-116q-16 0 -23 7t-4 18l51 172q21 71 62 91zM252 450q0 -26 10.5 -39.5
t26.5 -13.5h42v107h-39q-18 0 -29 -14.5t-11 -39.5z" />
    <glyph glyph-name="afii10065" unicode="&#x430;" horiz-adv-x="522" 
d="M279 149v46h-46q-24 0 -24 -41q0 -27 15 -27q27 0 55 22zM305 45l-3 1q-28 -27 -69 -40.5t-76 -13.5q-86 0 -113 50q-23 43 -23 101q-1 87 46 126.5t135 39.5h80v8q0 23 -11 32t-43 9t-109 -9q-28 -5 -38 -1.5t-14 21.5l-12 64q-5 28 41 47q66 26 157 26q134 0 174 -51
q37 -46 37 -144v-128q0 -32 4 -40t19 -10q18 -2 24 -6t6 -14v-82q0 -19 -37 -29q-30 -8 -67 -8q-85 0 -108 51z" />
    <glyph glyph-name="afii10066" unicode="&#x431;" horiz-adv-x="497" 
d="M212 326q-5 -23 -5 -87q0 -90 40 -90q23 0 31.5 22t8.5 71q0 44 -8 70q-6 22 -28 24t-39 -10zM215 484l4 -3q31 11 65 11q193 0 193 -252q0 -249 -229 -249q-128 0 -180 73q-30 42 -41 107q-7 47 -7 128q0 124 19 196q29 102 130 166q48 30 187 74q32 11 39 -11l28 -85
l1 -4q8 -24 -15 -33q-2 -1 -43 -16q-26 -8 -43 -15l-27 -11q-22 -8 -29 -12q-50 -25 -52 -64z" />
    <glyph glyph-name="afii10067" unicode="&#x432;" horiz-adv-x="483" 
d="M390 267v-4q31 -11 47 -33q27 -33 27 -73q0 -73 -51.5 -115t-134.5 -42h-227q-24 0 -24 22v453q0 22 24 22h216q182 0 182 -145q0 -22 -14.5 -46.5t-44.5 -38.5zM278 170q0 30 -32 30h-36v-62h36q32 0 32 32zM260 334q0 26 -26 26h-24v-50h24q26 0 26 24z" />
    <glyph glyph-name="afii10068" unicode="&#x433;" horiz-adv-x="417" 
d="M393 352h-177v-330q0 -22 -23 -22h-141q-24 0 -24 22v451q0 24 22 24h343q21 0 21 -24v-98q0 -23 -21 -23z" />
    <glyph glyph-name="afii10069" unicode="&#x434;" horiz-adv-x="606" 
d="M351 145v206h-46l-11 -106q-6 -59 -30 -100h87zM16 -108l-6 207q-1 17 6 24.5t28 14.5l25 8q21 27 29 48q10 21 16 65l21 166q5 42 23.5 57t63.5 15h284q30 0 30 -29v-327l29 -3q33 -4 32 -40l-11 -203q-1 -20 -9.5 -26t-33.5 -6h-75q-20 0 -27.5 5.5t-8.5 20.5l-5 111
h-247l-8 -111q-1 -16 -8 -21t-25 -5h-91q-19 0 -25 6t-7 23z" />
    <glyph glyph-name="afii10070" unicode="&#x435;" horiz-adv-x="481" 
d="M398 207h-186q4 -36 21 -49t53 -13q35 0 92 9q29 5 36.5 1t10.5 -27l9 -59q2 -14 1 -23t-9 -16.5t-28 -16.5q-56 -22 -144 -22q-69 0 -116.5 19.5t-71 56.5t-33 78.5t-9.5 97.5q0 263 220 263q104 0 159 -51q24 -23 37 -54q22 -50 22 -126q0 -36 -14.5 -52t-49.5 -16z
M215 310h57q2 57 -28 57q-29 0 -29 -57z" />
    <glyph glyph-name="afii10072" unicode="&#x436;" horiz-adv-x="716" 
d="M589 255v-3q35 -9 55 -34t40 -85l29 -108q7 -25 -18 -25h-124q-27 0 -36.5 6.5t-15.5 27.5l-25 94q-15 56 -37 56h-3v-160q0 -24 -23 -24h-132q-24 0 -24 24v160h-3q-22 0 -37 -56l-25 -94q-6 -21 -15.5 -27.5t-36.5 -6.5h-124q-25 0 -18 25l29 108q20 60 40 85t55 34v3
q-32 9 -53.5 36t-36.5 83l-28 97q-3 10 0.5 17.5t14.5 7.5h119q26 0 34.5 -6t17.5 -28l29 -83q16 -43 35 -43h3v137q0 24 24 24h132q23 0 23 -24v-137h3q19 0 35 43l29 83q9 22 17.5 28t34.5 6h119q11 0 14.5 -7.5t0.5 -17.5l-28 -97q-20 -59 -40 -85t-50 -34z" />
    <glyph glyph-name="afii10073" unicode="&#x437;" horiz-adv-x="438" 
d="M347 262l1 -3q76 -25 76 -106q0 -48 -20.5 -82.5t-56.5 -50.5q-65 -29 -141 -29q-98 0 -158 23q-29 12 -35 23t-1 33l12 60q4 18 10.5 21.5t30.5 -0.5q75 -11 129 -11q39 0 39 28t-38 28h-44q-15 0 -20 4.5t-5 17.5v69q0 12 4.5 16t19.5 4h29q44 0 44 25q0 26 -46 26
q-21 0 -83 -9q-29 -5 -37.5 -1.5t-12.5 22.5l-12 65q-4 25 31 43q59 30 166 30q78 0 132 -36q55 -34 55 -110q0 -72 -69 -100z" />
    <glyph glyph-name="afii10074" unicode="&#x438;" horiz-adv-x="515" 
d="M299 24v182h-4q-13 -35 -34 -75l-54 -104q-15 -27 -52 -27h-105q-24 0 -24 24v449q0 24 24 24h141q23 0 23 -24v-173h4q13 40 31 74l48 99q12 24 52 24h115q23 0 23 -24v-449q0 -24 -23 -24h-141q-24 0 -24 24z" />
    <glyph glyph-name="afii10075" unicode="&#x439;" horiz-adv-x="515" 
d="M299 24v182h-4q-13 -35 -34 -75l-54 -104q-15 -27 -52 -27h-105q-24 0 -24 24v449q0 24 24 24h141q23 0 23 -24v-173h4q13 40 31 74l48 99q12 24 52 24h115q23 0 23 -24v-449q0 -24 -23 -24h-141q-24 0 -24 24zM261 546q-59 0 -115 33q-55 34 -79 93q-16 34 2 51l38 34
q20 14 27 12t20 -19q34 -45 56.5 -61.5t50.5 -16.5q52 0 100 73q13 19 22.5 20.5t28.5 -11.5l36 -23q11 -7 13.5 -16t0 -16.5t-10.5 -22.5q-29 -62 -79 -96t-111 -34z" />
    <glyph glyph-name="afii10076" unicode="&#x43a;" horiz-adv-x="476" 
d="M346 255v-3q35 -9 55 -34t40 -85l29 -108q7 -25 -18 -25h-124q-27 0 -36.5 6.5t-15.5 27.5l-25 94q-15 56 -37 56h-3v-160q0 -24 -23 -24h-137q-24 0 -24 24v449q0 24 24 24h137q23 0 23 -24v-137h3q19 0 35 43l29 83q9 22 17.5 28t34.5 6h119q11 0 14.5 -7.5t0.5 -17.5
l-28 -97q-20 -59 -40 -85t-50 -34z" />
    <glyph glyph-name="afii10077" unicode="&#x43b;" horiz-adv-x="531" 
d="M315 22v329h-38l-17 -167q-10 -91 -45 -139q-42 -60 -172 -60q-20 0 -25.5 5.5t-6.5 21.5l-6 84q-1 12 4.5 18t24.5 14q30 12 42.5 29t17.5 60l21 203q5 45 24 61t70 16h266q13 0 19 -4.5t6.5 -7.5t0.5 -10v-453q0 -17 -13 -21q-3 -1 -13 -1h-133q-16 0 -21.5 5t-5.5 17z
" />
    <glyph glyph-name="afii10078" unicode="&#x43c;" horiz-adv-x="586" 
d="M291 265h4q13 43 33 87l52 120q6 15 15 19.5t32 4.5h108q23 0 23 -21v-453q0 -22 -23 -22h-130q-23 0 -23 22v162h-2l-32 -83q-6 -14 -11 -18.5t-17 -4.5h-56q-14 0 -18 3.5t-10 19.5l-33 83h-2v-162q0 -22 -23 -22h-127q-23 0 -23 22v452q0 22 23 22h113q24 0 32 -4.5
t14 -19.5l47 -116q21 -53 34 -91z" />
    <glyph glyph-name="afii10079" unicode="&#x43d;" horiz-adv-x="506" 
d="M480 473v-449q0 -24 -21 -24h-145q-22 0 -22 24v165h-77v-165q0 -24 -21 -24h-145q-22 0 -22 24v449q0 24 22 24h145q21 0 21 -24v-149h77v149q0 24 22 24h145q21 0 21 -24z" />
    <glyph glyph-name="afii10080" unicode="&#x43e;" horiz-adv-x="497" 
d="M473 255q0 -83 -20 -138q-39 -121 -208 -125q-113 0 -167 61q-20 23 -35 64q-19 58 -19 138q0 72 21 125q42 123 200 126q228 0 228 -251zM285 249q0 56 -7.5 77t-30.5 21q-36 0 -36 -98q0 -54 7.5 -76.5t26.5 -22.5q23 0 31.5 23t8.5 76z" />
    <glyph glyph-name="afii10081" unicode="&#x43f;" horiz-adv-x="518" 
d="M491 474v-450q0 -6 -1 -10t-7.5 -9t-19.5 -5h-129q-29 0 -29 24l1 325h-92v-325q0 -6 -1 -10t-7.5 -9t-19.5 -5h-129q-17 0 -23 5.5t-6 18.5v449q0 24 29 24h406q17 0 22.5 -5t5.5 -18z" />
    <glyph glyph-name="afii10082" unicode="&#x440;" horiz-adv-x="499" 
d="M217 -5l-3 -1v-175q0 -20 -15 -23q-3 -1 -11 -1h-133q-17 0 -22 5.5t-5 18.5v654q0 13 5 18.5t22 5.5h133q13 0 19 -5t6.5 -8t0.5 -11v-13l4 -2q47 47 99 47q97 0 130 -79q29 -70 29 -178q0 -128 -41 -195q-41 -65 -151 -65q-38 0 -67 7zM287 245q0 48 -7 67.5t-23 19.5
q-22 0 -44 -17v-161q13 -6 31 -6q25 0 34 19.5t9 77.5z" />
    <glyph glyph-name="afii10083" unicode="&#x441;" horiz-adv-x="437" 
d="M408 140l11 -70q2 -13 1 -22t-9.5 -17t-27.5 -17q-58 -23 -138 -23q-107 0 -162 53q-24 26 -37 60q-22 62 -22 146q0 256 221 256q90 0 144 -26q33 -16 28 -45l-12 -77q-3 -18 -10 -21t-34 -1q-70 7 -88 7q-62 0 -62 -90q0 -56 13 -78t46 -22q31 0 97 8q25 4 31 1.5
t10 -22.5z" />
    <glyph glyph-name="afii10084" unicode="&#x442;" horiz-adv-x="440" 
d="M416 351h-100v-329q0 -22 -23 -22h-141q-24 0 -24 22v329h-103q-20 0 -20 23v98q0 24 20 24h391q20 0 20 -24v-98q0 -23 -20 -23z" />
    <glyph glyph-name="afii10085" unicode="&#x443;" horiz-adv-x="494" 
d="M252 235h4q10 55 24 108l32 130q3 10 4.5 14t10 7t25.5 3h116q37 0 24 -30l-211 -644q-5 -17 -13 -22t-31 -5h-107q-20 0 -26 6.5t-1 22.5l63 194l-148 449q-9 29 26 29h121q19 0 27.5 -5.5t12.5 -20.5l27 -132q14 -67 20 -104z" />
    <glyph glyph-name="afii10086" unicode="&#x444;" horiz-adv-x="673" 
d="M429 -11v-142v-4q0 -6 -1 -9t-6.5 -7t-17.5 -4h-136q-16 0 -20.5 5t-4.5 19v142q-219 17 -219 264q0 93 52 166t167 89v133q0 8 1 12t6.5 8t17.5 4h136q7 0 12 -1.5t7.5 -2.5t4 -4.5t1.5 -5v-5.5v-5v-131q61 -7 105.5 -32.5t69 -63t35.5 -78t11 -83.5q0 -231 -221 -264z
M246 144v208q-53 -23 -53 -107q0 -46 11.5 -70t41.5 -31zM423 353v-209q53 23 53 104q0 85 -53 105z" />
    <glyph glyph-name="afii10087" unicode="&#x445;" horiz-adv-x="500" 
d="M496 467l-127 -214h1l130 -222q7 -11 1 -21t-23 -10h-135q-34 0 -43 19l-47 120l-45 -118q-9 -21 -41 -21h-139q-38 0 -20 31h-1l131 222l-120 214q-8 10 -2 20t23 10h135q21 0 27.5 -3.5t11.5 -15.5l41 -113l40 112q6 20 38 20h141q41 0 23 -30z" />
    <glyph glyph-name="afii10088" unicode="&#x446;" horiz-adv-x="530" 
d="M216 145h76v328q0 24 22 24h144q21 0 21 -24v-328l27 -3q16 -2 19.5 -9t1.5 -28l-10 -210q-1 -21 -6 -26.5t-23 -5.5h-94q-18 0 -24.5 5.5t-7.5 20.5l-3 111h-309q-22 0 -22 24v449q0 24 22 24h145q21 0 21 -24v-328z" />
    <glyph glyph-name="afii10089" unicode="&#x447;" horiz-adv-x="494" 
d="M15 325v148v3q0 7 1 10.5t6.5 7t17.5 3.5h135q13 0 19 -4t6.5 -7t0.5 -13v-133q0 -34 8 -47t25 -13q20 0 46 14v179v3q0 7 0.5 10.5t6.5 7t19 3.5h134q16 0 21 -5.5t5 -18.5v-449q0 -9 -1 -13t-7 -7.5t-18 -3.5h-135q-17 0 -21 5.5t-4 14.5v4v120q-48 -22 -107 -22
q-81 0 -120 46q-16 19 -25 49q-13 43 -13 108z" />
    <glyph glyph-name="afii10090" unicode="&#x448;" horiz-adv-x="722" 
d="M216 473v-325h49v325q0 24 22 24h145q21 0 21 -24v-325h51v325q0 24 23 24h144q21 0 21 -24l1 -449q0 -24 -22 -24h-621q-22 0 -22 24v449q0 24 22 24h145q21 0 21 -24z" />
    <glyph glyph-name="afii10091" unicode="&#x449;" horiz-adv-x="752" 
d="M578 0h-528q-22 0 -22 24v449q0 24 22 24h145q21 0 21 -24v-328h49v328q0 24 22 24h145q21 0 21 -24v-328h50v328q0 24 22 24h144q21 0 21 -24v-328l35 -3q15 -1 18.5 -7.5t2.5 -29.5l-10 -210q-1 -21 -6 -26.5t-23 -5.5h-90q-18 0 -24.5 5.5t-7.5 20.5z" />
    <glyph glyph-name="afii10092" unicode="&#x44a;" horiz-adv-x="579" 
d="M366 0h-200q-24 0 -24 22v329h-121q-11 0 -16 4.5t-5 17.5v103q0 10 4 15t7 5.5t10 0.5h283q23 0 23 -22v-137h39q203 0 203 -175q0 -79 -54.5 -121t-148.5 -42zM393 170q0 33 -25 33h-40v-60h40q11 0 18 7.5t7 19.5z" />
    </font>
</defs>
</svg>
