<?xml version="1.0" standalone="no"?>
<!DOCTYPE svg PUBLIC "-//W3C//DTD SVG 1.1//EN" "http://www.w3.org/Graphics/SVG/1.1/DTD/svg11.dtd" >
<svg xmlns="http://www.w3.org/2000/svg" xmlns:xlink="http://www.w3.org/1999/xlink" version="1.1">
<metadata>
Created by FontForge 20161013 at Fri Feb 21 21:38:32 2014
 By ,,,
Copyright (c) 2013 Parachute, www.parachute.gr.  All rights reserved.
</metadata>
<defs>
<font id="PFSquareSansCondPro" horiz-adv-x="484" >
  <font-face 
    font-family="PF Square Sans Cond Pro"
    font-weight="400"
    font-stretch="normal"
    units-per-em="1000"
    panose-1="2 11 5 6 4 0 0 2 0 4"
    ascent="800"
    descent="-200"
    x-height="487"
    cap-height="663"
    bbox="-143.923 -265.882 1015 891.84"
    underline-thickness="55"
    underline-position="-208"
    unicode-range="U+0020-FB05"
  />
<missing-glyph horiz-adv-x="386" 
d="M386 0h-386v700h386v-700zM193 291l-111 -232h222zM82 641l111 -233l111 233h-222zM161 350l-108 224v-449zM333 574l-108 -224l108 -225v449z" />
    <glyph glyph-name="fj" unicode="fj" horiz-adv-x="438" 
d="M241 710q77 0 127 -25q12 -4 10 -20l-4 -23q-1 -15 -23 -12q-69 10 -111 10q-84 0 -84 -95v-58h214q21 0 21 -18v-502q0 -78 -29 -122q-34 -53 -141 -48q-20 0 -22 17l-1 23q-2 17 16 20q62 15 82 33q19 18 19 75v460h-159v-408q0 -10 -4 -13.5t-15 -3.5h-35
q-21 0 -21 17v408h-40q-11 0 -14 4t-3 14v25q0 12 3 15.5t14 3.5h40v60q0 82 39 122.5t121 40.5z" />
    <glyph glyph-name="ffj" unicode="ffj" horiz-adv-x="673" 
d="M601 705q15 -7 12 -22l-4 -23q-3 -15 -25 -12q-70 10 -110 10q-84 0 -84 -95v-76h215q21 0 21 -18v-502q0 -83 -36 -128q-35 -47 -137 -42q-19 0 -20 18l-1 22q-2 17 16 20q37 9 51.5 14.5t27.5 16.5q14 11 18.5 27.5t4.5 49.5v460h-160v-408q0 -10 -4 -13.5t-15 -3.5
h-35q-20 0 -20 17v408h-160v-408q0 -10 -4 -13.5t-15 -3.5h-35q-21 0 -21 17v408h-40q-11 0 -14 4t-3 14v25q0 12 3 15.5t14 3.5h40v60q0 82 39 122.5t121 40.5q71 0 116 -19q38 37 118 37q78 0 126 -23zM240 640q-84 0 -84 -95v-58h160v78q0 30 8 68q-46 7 -84 7z" />
    <glyph glyph-name="ff" unicode="ff" horiz-adv-x="550" 
d="M459 729q57 0 103 -21q16 -7 13 -21l-5 -24q-3 -16 -20 -13q-51 9 -80 9q-42 0 -61 -22t-19 -72v-78h104q20 0 20 -18v-27q0 -18 -20 -18h-104v-406q0 -18 -19 -18h-35q-21 0 -21 18v406h-159v-406q0 -18 -19 -18h-35q-21 0 -21 18v406h-38q-11 0 -14.5 4t-3.5 14v26
q0 19 18 19h38v60q0 82 39 122t121 40q63 0 112 -17q31 37 106 37zM240 639q-84 0 -84 -94v-58h160v80q0 38 7 65q-49 7 -83 7z" />
    <glyph glyph-name="fi" unicode="fi" horiz-adv-x="438" 
d="M240 709q80 0 129 -24q14 -6 11 -21l-5 -23q-3 -15 -23 -12q-69 10 -113 10q-83 0 -83 -94v-58h215q19 0 19 -18v-452q0 -10 -4 -13.5t-15 -3.5h-35q-21 0 -21 17v407h-159v-407q0 -10 -4 -13.5t-15 -3.5h-35q-21 0 -21 17v407h-40q-11 0 -14 4t-3 14v26q0 12 3 15.5
t14 3.5h40v60q0 162 159 162z" />
    <glyph glyph-name="fl" unicode="fl" horiz-adv-x="424" 
d="M231 709q57 0 99 -13l30 7q22 4 22 -18v-667q0 -18 -19 -18h-36q-21 0 -21 18v615q-43 6 -76 6q-82 0 -82 -94v-58h88q19 0 19 -19v-26q0 -10 -4 -14t-15 -4h-88v-406q0 -18 -19 -18h-36q-21 0 -21 18v406h-39q-11 0 -14.5 4t-3.5 14v26q0 11 3.5 15t14.5 4h39v60
q0 162 159 162z" />
    <glyph glyph-name="ffi" unicode="ffi" horiz-adv-x="673" 
d="M475 727q75 0 127 -23q13 -6 10 -21l-4 -24q-3 -15 -22 -12q-70 10 -112 10q-84 0 -84 -94v-76h215q19 0 19 -18v-452q0 -10 -4 -13.5t-15 -3.5h-35q-21 0 -21 17v407h-159v-407q0 -10 -4 -13.5t-15 -3.5h-35q-21 0 -21 17v407h-159v-407q0 -10 -4 -13.5t-15 -3.5h-35
q-21 0 -21 17v407h-38q-18 0 -18 18v26q0 19 18 19h38v60q0 82 39 122t121 40q69 0 116 -19q38 37 118 37zM156 487h159v78q0 29 8 67q-46 7 -83 7q-84 0 -84 -94v-58z" />
    <glyph glyph-name="ffl" unicode="ffl" horiz-adv-x="673" 
d="M475 727q55 0 97 -13l31 7q21 3 21 -18v-685q0 -18 -19 -18h-35q-21 0 -21 18v633q-43 6 -75 6q-84 0 -84 -94v-76h88q19 0 19 -19v-26q0 -10 -4 -14t-15 -4h-88v-406q0 -18 -19 -18h-35q-21 0 -21 18v406h-159v-406q0 -18 -19 -18h-35q-21 0 -21 18v406h-40
q-16 0 -16 18v26q0 11 3 15t13 4h40v60q0 82 39 122t121 40q69 0 116 -19q38 37 118 37zM156 545v-58h159v78q0 27 8 67q-46 7 -83 7q-84 0 -84 -94z" />
    <glyph glyph-name="ft" unicode="ft" horiz-adv-x="511" 
d="M513 54l4 -23q1 -13 -9 -19q-38 -20 -96 -20t-81 25.5t-23 80.5v326h-152v-407q0 -17 -16 -17h-41q-18 0 -18 17v407h-39q-17 0 -17 17v28q0 18 17 18h40v75q0 81 34.5 121t113.5 40q54 0 100 -20q12 -4 10 -21l-4 -25q-2 -14 -22 -11q-45 7 -79 7q-42 0 -60.5 -21.5
t-18.5 -72.5v-72h153v78q0 14 17 19l40 11q17 5 17 -15v-93h93q17 0 17 -17v-29q0 -17 -17 -17h-93v-303q0 -36 9.5 -47.5t40.5 -11.5q20 0 58 5q12 1 16 -1.5t6 -11.5z" />
    <glyph glyph-name=".notdef" horiz-adv-x="386" 
d="M386 0h-386v700h386v-700zM193 291l-111 -232h222zM82 641l111 -233l111 233h-222zM161 350l-108 224v-449zM333 574l-108 -224l108 -225v449z" />
    <glyph glyph-name=".null" horiz-adv-x="0" 
 />
    <glyph glyph-name="nonmarkingreturn" horiz-adv-x="333" 
 />
    <glyph glyph-name="space" unicode=" " horiz-adv-x="240" 
 />
    <glyph glyph-name="exclam" unicode="!" horiz-adv-x="195" 
d="M135 646l-12 -464q0 -16 -12 -16h-26q-14 0 -14 16l-10 464q0 17 16 17h44q14 0 14 -17zM96 -11q-26 0 -35 11.5t-9 36.5q0 45 44 45q26 0 35.5 -10.5t9.5 -34.5q0 -25 -10 -36.5t-35 -11.5z" />
    <glyph glyph-name="quotedbl" unicode="&#x22;" horiz-adv-x="246" 
d="M199 652l-9 -169q-2 -9 -11 -9h-26q-9 0 -9 9l-10 169q0 11 12 11h43q10 0 10 -11zM112 652l-10 -169q0 -9 -11 -9h-26q-8 0 -8 9l-10 169q0 11 12 11h42q11 0 11 -11z" />
    <glyph glyph-name="numbersign" unicode="#" 
d="M217 15l54 222h-87l-54 -225q-3 -12 -11 -12h-35q-13 0 -10 15l53 222h-102q-12 0 -12 10l1 29q0 12 16 12h110l28 117h-102h-8t-4 2.5t-2 7.5l1 30q1 10 16 10h111l47 194q3 13 15 13h32q13 0 10 -15l-47 -192h87l47 194q3 13 14 13h33q14 0 11 -13l-48 -194h103
q13 0 13 -13l-1 -26q0 -11 -14 -11h-113l-29 -117h109q13 0 13 -13l-1 -28q-3 -10 -14 -10h-119l-55 -225q-3 -12 -11 -12h-34q-14 0 -11 15zM312 405h-87l-28 -117h86z" />
    <glyph glyph-name="dollar" unicode="$" 
d="M219 -83v83q-101 7 -163 33q-14 5 -9 22l5 27q3 13 17 11q90 -16 150 -19v236q-75 18 -117 51q-45 40 -44 123q2 79 44 124.5t117 52.5v82q0 8 9 8h36q9 0 9 -9v-81q79 -6 127 -26q17 -8 14 -22l-6 -27q-4 -14 -20 -13q-52 8 -115 14v-216q76 -19 114 -53q46 -38 44 -136
q-5 -165 -158 -181v-83q0 -8 -9 -8h-35q-10 0 -10 7zM353 172q1 56 -16.5 83.5t-63.5 41.5v-221q79 12 80 96zM136 485q-1 -44 18 -66t65 -35v203q-78 -13 -83 -102z" />
    <glyph glyph-name="percent" unicode="%" horiz-adv-x="688" 
d="M300 459q0 -80 -20 -141q-27 -81 -124 -81q-72 0 -107 50q-15 22 -22 54q-6 27 -8 58q-1 15 -1 60q0 208 138 208q72 0 108 -45q16 -21 23 -49q13 -43 13 -114zM237 452q0 86 -16.5 121.5t-64.5 35.5q-42 0 -58 -38.5t-16 -118.5q0 -70 12 -111q13 -44 62 -44
q46 0 63.5 37t17.5 118zM669 215q0 -80 -20 -141q-27 -81 -124 -81q-72 0 -107 50q-15 22 -22 54q-6 27 -8 58q-1 15 -1 60q0 208 138 208q72 0 108 -45q16 -21 23 -49q13 -43 13 -114zM606 208q0 86 -16.5 121.5t-64.5 35.5q-42 0 -58 -38.5t-16 -118.5q0 -70 12 -111
q13 -44 62 -44q46 0 63.5 37t17.5 118zM494 684l-238 -694q-4 -13 -17 -13h-28q-16 0 -12 16l240 693q5 14 18 14h28q13 0 9 -16z" />
    <glyph glyph-name="ampersand" unicode="&#x26;" horiz-adv-x="601" 
d="M586 -12l-16 -29q-8 -16 -26 -5q-74 40 -134 105q-89 -70 -189 -70q-89 0 -141.5 47t-52.5 137q0 130 142 224q-44 73 -44 130q0 64 35.5 105t94.5 41q56 0 91.5 -36.5t35.5 -92.5q0 -48 -28.5 -87t-88.5 -83q65 -117 152 -216q73 86 100 234q2 9 5 11.5t13 2.5h24
q17 0 17 -21q0 -70 -37 -151q-38 -83 -79 -130q51 -53 120 -97q12 -9 6 -19zM312 540q0 29 -17 48.5t-41 19.5q-25 0 -40 -23t-15 -53q0 -42 34 -98q79 51 79 106zM217 53q73 0 147 56q-79 85 -162 230q-104 -68 -104 -164q0 -61 31.5 -91t87.5 -31z" />
    <glyph glyph-name="quotesingle" unicode="'" horiz-adv-x="178" 
d="M121 652l-10 -169q0 -9 -11 -9h-26q-8 0 -8 9l-10 169q0 11 12 11h42q11 0 11 -11z" />
    <glyph glyph-name="parenleft" unicode="(" horiz-adv-x="251" 
d="M211 -82q4 -9 -6 -16l-18 -10q-14 -8 -19 2q-119 166 -119 417q0 215 119 388q8 12 18 5l19 -12q10 -7 6 -16q-33 -56 -61 -158q-27 -98 -27 -207q0 -233 88 -393z" />
    <glyph glyph-name="parenright" unicode=")" horiz-adv-x="253" 
d="M58 -82q88 160 88 393q0 109 -27 207q-28 102 -61 158q-4 9 6 16l19 12q10 7 18 -5q119 -173 119 -388q0 -251 -119 -417q-5 -10 -19 -2l-18 10q-10 7 -6 16z" />
    <glyph glyph-name="asterisk" unicode="*" horiz-adv-x="298" 
d="M153 663h13q16 0 16 -12l3 -79l59 36q11 6 20 -7l9 -15q4 -7 0 -11l-65 -48l61 -45q9 -7 4 -17l-8 -14q-7 -13 -21 -6l-59 38q0 -9 -1 -40t-1 -40q0 -7 -2.5 -9t-13.5 -2h-16q-9 0 -11.5 2t-2.5 9l-3 79l-61 -35q-12 -7 -20 4l-10 16q-4 7 4 14l62 47l-64 45q-8 5 -1 16
l8 12q9 15 22 6l60 -34l3 79q0 11 16 11z" />
    <glyph glyph-name="plus" unicode="+" 
d="M417 342v-35q0 -12 -15 -12h-125v-153q0 -14 -12 -14h-41q-13 0 -13 14v153h-130q-13 0 -13 12v35q0 13 13 13h130v145q0 14 13 14h41q12 0 12 -14v-145h125q15 0 15 -13z" />
    <glyph glyph-name="comma" unicode="," horiz-adv-x="170" 
d="M142 19q0 -51 -20 -90.5t-54 -60.5q-11 -8 -18 -1l-12 11q-8 4 3 15q30 26 30 71q0 42 -22 68q-9 14 3 21l39 34q11 10 25 -1q26 -23 26 -67z" />
    <glyph glyph-name="hyphen" unicode="-" horiz-adv-x="322" 
d="M295 338v-31q0 -12 -14 -12h-242q-14 0 -14 12v31q0 13 14 13h242q14 0 14 -13z" />
    <glyph glyph-name="period" unicode="." horiz-adv-x="162" 
d="M124 39q0 -48 -45 -48q-26 0 -35 11.5t-9 36.5q0 46 44 46q25 0 35 -11t10 -35z" />
    <glyph glyph-name="slash" unicode="/" horiz-adv-x="215" 
d="M218 678l-155 -730q-3 -12 -14 -12h-33q-13 0 -10 14l156 730q3 13 16 13h33q10 0 7 -15z" />
    <glyph glyph-name="zero" unicode="0" 
d="M243 -9q-114 0 -170 92q-19 35 -29 94q-4 23 -6 54q-3 43 -3 110v51q3 44 5 58q5 44 11 64q21 76 59 110q55 47 133 47q122 0 169 -83q31 -52 37 -115q7 -49 7 -132q0 -48 -1 -67q-2 -81 -19 -133q-22 -73 -61 -107q-50 -43 -132 -43zM378 331q0 133 -23 195
q-24 73 -112 73q-63 0 -95 -52q-14 -23 -21 -59q-13 -58 -13 -157q0 -97 12 -161q24 -105 117 -105q85 0 111 77q24 66 24 189z" />
    <glyph glyph-name="one" unicode="1" 
d="M415 57v-44q0 -13 -15 -13h-291q-15 0 -15 13v44q0 14 15 14h103v499h-95q-14 0 -14 12v24q0 14 11 17l77 32q21 8 39 8h42q11 0 14 -3.5t3 -13.5v-575h111q15 0 15 -14z" />
    <glyph glyph-name="two" unicode="2" 
d="M213 158l-74 -81l1 -6h271q18 0 18 -14v-43q0 -14 -15 -14h-356q-18 0 -18 15v46q0 12 11 28l227 253q61 73 61 141q0 64 -22 87q-22 25 -97 25q-66 0 -145 -13q-18 -3 -22 12l-6 27q-2 15 15 23q58 26 158 26q106 0 151.5 -42.5t45.5 -131.5q0 -63 -17 -105
q-16 -38 -63 -94q-29 -35 -55 -64z" />
    <glyph glyph-name="three" unicode="3" 
d="M395 563l-144 -155v-2l63 -14q123 -27 123 -157q0 -137 -57 -190q-58 -53 -168 -53q-27 0 -81 8q-52 8 -79 19q-15 6 -12 20l5 29q2 15 20 12q100 -14 149 -14q60 0 97 28q45 33 45 135q0 77 -83 92l-106 20q-18 5 -18 22v30q0 18 9 27l156 169l-1 3h-245q-18 0 -18 16
v41q0 14 17 14h326q20 0 20 -16v-41q0 -22 -18 -43z" />
    <glyph glyph-name="four" unicode="4" 
d="M469 237v-44q0 -13 -14 -13h-68v-165q0 -15 -15 -15h-48q-14 0 -14 14l1 166h-285q-15 0 -15 13v40q0 15 10 28l284 388q10 13 28 13h41q13 0 13 -12v-399h68q14 0 14 -14zM105 251h206v281l-2 1l-203 -280z" />
    <glyph glyph-name="five" unicode="5" 
d="M435 235q0 -131 -55 -187t-167 -56q-28 0 -82 8q-52 8 -79 19q-14 6 -11 21l5 26q1 15 20 13q120 -14 154 -14q64 0 99 34q36 35 36 130q0 41 -20 62t-63 30l-191 36q-26 5 -23 33l35 257q1 10 4.5 12.5t15.5 2.5h278q16 0 16 -13v-42q0 -15 -18 -15h-230l-22 -169
l172 -30q126 -23 126 -158z" />
    <glyph glyph-name="six" unicode="6" 
d="M453 186q0 -98 -56.5 -146.5t-154.5 -48.5q-56 0 -109 17q-27 11 -63 52q-16 23 -28 81q-4 24 -5 51l-3 54v61q0 119 20 200q20 77 69 118t137 45q80 0 146 -25q20 -7 15 -24l-6 -26q-3 -15 -22 -12q-79 13 -135 13q-82 0 -112 -64q-27 -54 -31 -150q117 14 173 14
q84 0 124.5 -51t40.5 -159zM373 184q0 73 -21 104.5t-75 31.5q-69 0 -164 -13q0 -147 18 -187q29 -57 114 -57q128 0 128 121z" />
    <glyph glyph-name="seven" unicode="7" 
d="M425 565l-245 -567q-6 -11 -19 -7l-51 14q-15 6 -7 20l248 567h-306q-14 0 -14 13v43q0 15 15 15h374q17 0 17 -16v-36q0 -22 -12 -46z" />
    <glyph glyph-name="eight" unicode="8" 
d="M127 352q-37 16 -60 51.5t-23 79.5q0 92 51 140.5t145 48.5q92 0 142.5 -46t50.5 -137q0 -42 -23.5 -81t-61.5 -57q49 -18 77 -63.5t28 -109.5q0 -86 -58 -136.5t-157 -50.5q-213 0 -213 185q0 132 102 176zM352 490q0 56 -29.5 83.5t-82.5 27.5q-61 0 -88 -27.5
t-27 -83.5q0 -44 28.5 -69.5t84.5 -38.5q59 11 86.5 37.5t27.5 70.5zM371 176q0 60 -34 92.5t-105 52.5q-61 -14 -93 -44.5t-32 -92.5q0 -121 131 -121q52 0 93 29q40 28 40 84z" />
    <glyph glyph-name="nine" unicode="9" 
d="M32 475q0 98 56.5 146.5t155.5 48.5q130 5 178 -88q14 -23 20 -65q5 -35 7 -74q2 -44 2 -89q0 -124 -21 -200q-37 -156 -205 -162q-95 0 -151 25q-16 7 -13 21l6 27q3 15 20 13q97 -13 140 -13q74 0 106.5 53.5t36.5 159.5q-100 -13 -173 -13q-84 0 -124.5 51t-40.5 159z
M112 476q0 -72 21 -104t76 -32q51 0 163 14q-1 146 -19 186q-27 58 -112 58q-129 0 -129 -122z" />
    <glyph glyph-name="colon" unicode=":" horiz-adv-x="170" 
d="M129 39q0 -48 -45 -48q-26 0 -35 11.5t-9 36.5q0 46 44 46q25 0 35 -11t10 -35zM129 397q0 -48 -45 -48q-26 0 -35 11.5t-9 36.5q0 46 44 46q25 0 35 -11t10 -35z" />
    <glyph glyph-name="semicolon" unicode=";" horiz-adv-x="170" 
d="M138 19q0 -51 -20 -90.5t-54 -60.5q-11 -8 -18 -1l-12 11q-8 4 3 15q30 26 30 71q0 42 -22 68q-9 14 3 21l39 34q11 10 25 -1q26 -23 26 -67zM136 397q0 -48 -45 -48q-26 0 -35 11.5t-9 36.5q0 46 44 46q25 0 35 -11t10 -35z" />
    <glyph glyph-name="semicolon" unicode="&#x37e;" horiz-adv-x="170" 
d="M138 19q0 -51 -20 -90.5t-54 -60.5q-11 -8 -18 -1l-12 11q-8 4 3 15q30 26 30 71q0 42 -22 68q-9 14 3 21l39 34q11 10 25 -1q26 -23 26 -67zM136 397q0 -48 -45 -48q-26 0 -35 11.5t-9 36.5q0 46 44 46q25 0 35 -11t10 -35z" />
    <glyph glyph-name="less" unicode="&#x3c;" 
d="M417 151v-52q0 -15 -11 -7l-326 199q-11 5 -11 18v31q0 11 10 17l325 198q12 7 12 -8v-49q0 -10 -12 -17l-250 -154v-3l251 -153q12 -6 12 -20z" />
    <glyph glyph-name="equal" unicode="=" 
d="M416 423v-36q0 -12 -14 -12h-320q-14 0 -14 12v36q0 13 14 13h320q14 0 14 -13zM416 263v-36q0 -12 -14 -12h-320q-14 0 -14 12v36q0 13 14 13h320q14 0 14 -13z" />
    <glyph glyph-name="greater" unicode="&#x3e;" 
d="M69 99v52q0 14 12 20l251 153v3l-250 154q-12 7 -12 17v49q0 15 12 8l325 -198q10 -6 10 -17v-31q0 -13 -11 -18l-326 -199q-11 -8 -11 7z" />
    <glyph glyph-name="question" unicode="?" horiz-adv-x="306" 
d="M297 519q0 -31 -12 -58q-11 -24 -22.5 -37t-36.5 -35q-44 -37 -63 -69.5t-19 -80.5q0 -39 1 -56q0 -17 -15 -17h-33q-19 0 -20 15q-3 26 -3 68q0 57 25 98.5t83 95.5q23 21 31 33.5t11 37.5q0 45 -22.5 65t-73.5 20q-39 0 -94 -7q-16 -1 -20 13l-5 26q-3 15 15 23
q42 19 111 19q162 0 162 -154zM162 40q0 -49 -45 -49q-26 0 -35.5 11.5t-9.5 37.5q0 47 45 47q25 0 35 -11.5t10 -35.5z" />
    <glyph glyph-name="at" unicode="@" horiz-adv-x="707" 
d="M373 684q141 0 222 -94q81 -93 81 -242q0 -96 -45 -151q-43 -54 -103 -54q-78 0 -104 59q-63 -39 -117 -39q-47 0 -68.5 24t-21.5 75q0 63 29.5 93t91.5 30h78v24q0 38 -14.5 53t-51.5 15q-49 0 -88 -6q-14 -1 -15 6l-4 22q-1 10 8 14q43 15 108 15q73 0 95 -31
q22 -29 22 -97v-149q0 -56 54 -56q39 0 64 42.5t25 111.5q0 128 -67 205q-66 78 -179 78q-115 0 -198 -87q-82 -85 -82 -211q0 -133 76 -216q77 -83 193 -83q53 0 101 16q14 5 17 -5l7 -20q5 -14 -10 -20q-53 -24 -120 -24q-138 0 -230 98q-91 98 -91 253q0 149 99 250
t238 101zM277 265q0 -28 9 -39t32 -11q37 0 101 40l-2 -1v81h-84q-29 0 -42.5 -16t-13.5 -54z" />
    <glyph glyph-name="A" unicode="A" horiz-adv-x="477" 
d="M384 13l-42 165h-204l-42 -162q-4 -16 -21 -16h-52q-14 0 -8 16l182 631q5 15 19 15h56q14 0 19 -15l179 -633q5 -14 -8 -14h-61q-13 0 -17 13zM244 568h-3q-23 -93 -33 -129l-52 -192h169l-49 189q-26 104 -32 132z" />
    <glyph glyph-name="B" unicode="B" horiz-adv-x="485" 
d="M455 182q0 -81 -53 -132q-53 -50 -128 -50h-195q-21 0 -21 17v629q0 16 18 16h165q93 0 143.5 -45.5t50.5 -124.5q0 -45 -21 -84.5t-64 -59.5l1 -1q55 -16 79 -65q25 -47 25 -100zM353 486q0 49 -31.5 77.5t-90.5 28.5h-96v-213h111q44 0 75.5 31t31.5 76zM373 189
q0 53 -32.5 86.5t-91.5 33.5h-114v-238h114q124 0 124 118z" />
    <glyph glyph-name="C" unicode="C" horiz-adv-x="468" 
d="M278 594q-73 0 -107 -53q-15 -23 -24 -60q-13 -60 -13 -157q0 -109 25 -177q31 -79 119 -79q53 0 146 11q16 1 20 -12l5 -26q3 -17 -11 -22q-66 -27 -164 -27q-132 0 -181 102q-42 88 -42 230q0 146 41 237q49 108 186 108q96 0 159 -25q16 -7 13 -22l-6 -28
q-4 -12 -19 -11q-85 11 -147 11z" />
    <glyph glyph-name="D" unicode="D" horiz-adv-x="537" 
d="M486 333q0 -148 -48 -235q-54 -98 -210 -98h-147q-21 0 -21 17v629q0 16 18 16h151q154 0 209 -97q48 -85 48 -232zM405 325q0 162 -53 217q-44 49 -122 49h-92v-519h84q75 0 124 42q59 50 59 211z" />
    <glyph glyph-name="E" unicode="E" horiz-adv-x="439" 
d="M409 54v-38q0 -16 -17 -16h-317q-18 0 -18 16v630q0 17 18 17h306q17 0 17 -16v-39q0 -17 -18 -17h-245v-206h219q17 0 17 -16v-38q0 -16 -17 -16h-219v-244h258q16 0 16 -17z" />
    <glyph glyph-name="F" unicode="F" horiz-adv-x="417" 
d="M61 17v630q0 16 19 16h305q17 0 17 -16v-39q0 -17 -18 -17h-246v-211h214q17 0 17 -16v-39q0 -17 -18 -17h-212v-291q0 -17 -17 -17h-43q-18 0 -18 17z" />
    <glyph glyph-name="G" unicode="G" horiz-adv-x="525" 
d="M279 670q33 0 79 -7q50 -7 78 -18q19 -7 16 -20l-6 -28q-1 -6 -2.5 -8.5t-6 -4.5t-12.5 -1q-92 13 -146 13q-90 0 -119 -83q-24 -69 -24 -189q0 -109 27 -179q33 -80 121 -80q70 0 104 15v202h-73q-13 0 -17 3.5t-4 14.5v39q0 17 20 17h133q11 0 17 -5.5t6 -12.5v-285
q0 -26 -28 -36q-72 -25 -153 -25q-123 0 -180.5 84t-57.5 249q0 144 42 237q50 108 186 108z" />
    <glyph glyph-name="H" unicode="H" horiz-adv-x="518" 
d="M460 645v-628q0 -17 -16 -17h-43q-18 0 -18 17v298h-248v-298q0 -17 -16 -17h-43q-18 0 -18 17v628q0 18 18 18h43q16 0 16 -18v-258h248v258q0 18 18 18h43q16 0 16 -18z" />
    <glyph glyph-name="I" unicode="I" horiz-adv-x="221" 
d="M150 645v-628q0 -17 -17 -17h-44q-18 0 -18 17v628q0 18 18 18h44q17 0 17 -18z" />
    <glyph glyph-name="J" unicode="J" horiz-adv-x="364" 
d="M300 645v-485q0 -169 -161 -169q-66 0 -118 21q-19 9 -15 24l7 29q3 13 18 10q64 -9 100 -9q48 0 69 24t21 77v478q0 18 18 18h43q18 0 18 -18z" />
    <glyph glyph-name="K" unicode="K" horiz-adv-x="478" 
d="M462 649l-190 -268l194 -367q3 -5 1 -9.5t-9 -4.5h-61q-15 0 -23 14l-152 297l-90 -127v-167q0 -17 -16 -17h-43q-18 0 -18 17v628q0 18 18 18h43q16 0 16 -18v-337l2 -1q32 51 102 151l135 194q8 11 23 11h61q7 0 9 -4.5t-2 -9.5z" />
    <glyph glyph-name="L" unicode="L" horiz-adv-x="421" 
d="M413 54v-38q0 -16 -16 -16h-320q-18 0 -18 16v629q0 18 17 18h44q16 0 16 -18v-574h260q10 0 13.5 -3.5t3.5 -13.5z" />
    <glyph glyph-name="M" unicode="M" horiz-adv-x="643" 
d="M584 648v-631q0 -17 -17 -17h-43q-18 0 -18 17v454h-3q-19 -55 -61 -154l-85 -201q-6 -13 -20 -13h-29q-15 0 -21 12l-94 213q-23 51 -59 143h-2v-454q0 -17 -16 -17h-42q-17 0 -17 17v631q0 15 15 15h44q14 0 22 -15l124 -292l59 -148h3q13 39 57 146l123 293
q9 16 25 16h40q15 0 15 -15z" />
    <glyph glyph-name="N" unicode="N" horiz-adv-x="547" 
d="M410 16l-192 341q-63 113 -81 154h-3v-494q0 -17 -17 -17h-41q-18 0 -18 17v631q0 15 16 15h41q15 0 25 -16l195 -345q45 -82 77 -147h3v490q0 18 17 18h42q16 0 16 -18v-629q0 -16 -16 -16h-38q-16 0 -26 16z" />
    <glyph glyph-name="O" unicode="O" horiz-adv-x="555" 
d="M506 341q0 -50 -3 -86q-7 -106 -32 -154q-54 -115 -196 -110q-140 -5 -194 110q-14 28 -22 74q-11 73 -11 166q0 100 20 175q13 45 37 79q57 76 171 76q115 0 170 -67q24 -27 38 -75q22 -71 22 -188zM426 331q0 141 -34.5 205.5t-116.5 64.5q-77 0 -111 -67t-34 -203
q0 -138 32.5 -203t112.5 -65q82 0 116.5 64.5t34.5 203.5z" />
    <glyph glyph-name="P" unicode="P" horiz-adv-x="448" 
d="M429 470q0 -77 -39 -134q-44 -67 -159 -67h-96v-252q0 -17 -17 -17h-43q-18 0 -18 17v630q0 16 18 16h155q92 0 145.5 -50.5t53.5 -142.5zM352 469q0 123 -128 123h-89v-254h95q66 0 94 34t28 97z" />
    <glyph glyph-name="Q" unicode="Q" horiz-adv-x="558" 
d="M524 -29l-17 -41q-9 -21 -30 -13l-182 75q-5 -1 -19 -1q-128 0 -180 88q-30 53 -40 124q-7 52 -7 138q0 330 227 330q116 0 171 -69q25 -31 38 -76q22 -71 22 -185q0 -243 -104 -315l110 -35q17 -6 11 -20zM427 331q0 141 -34.5 205.5t-116.5 64.5q-77 0 -111.5 -67
t-34.5 -203q0 -134 34 -201t112 -67q79 0 115 66.5t36 201.5z" />
    <glyph glyph-name="R" unicode="R" horiz-adv-x="458" 
d="M70 663h168q84 0 135 -48t51 -140q0 -67 -28.5 -117t-85.5 -68l124 -273q1 -1 1 -7q0 -10 -10 -10h-57q-16 0 -22 13l-115 266h-101v-261q0 -18 -17 -18h-43q-17 0 -17 17v630q0 16 17 16zM219 591h-89v-243h87q63 0 94.5 27t31.5 96q0 64 -31.5 92t-92.5 28z" />
    <glyph glyph-name="S" unicode="S" horiz-adv-x="458" 
d="M427 184q0 -98 -54.5 -145.5t-149.5 -47.5q-109 0 -168 28q-19 8 -14 23l6 28q3 14 22 11q117 -14 153 -14q61 0 93.5 27.5t32.5 77.5q0 66 -24 92t-91 39q-83 16 -134 48q-58 36 -58 130q0 91 50 139.5t143 48.5q100 0 158 -26q19 -8 14 -23l-5 -24q-2 -15 -24 -13
q-95 13 -143 13q-60 0 -86.5 -28t-26.5 -84q0 -54 24 -74q27 -19 95 -32t108 -36q79 -40 79 -158z" />
    <glyph glyph-name="T" unicode="T" horiz-adv-x="418" 
d="M410 647v-39q0 -17 -18 -17h-145v-574q0 -17 -16 -17h-43q-18 0 -18 17v574h-143q-18 0 -18 17v39q0 16 17 16h367q17 0 17 -16z" />
    <glyph glyph-name="U" unicode="U" horiz-adv-x="528" 
d="M264 66q69 0 101.5 41.5t32.5 129.5v407q0 19 21 19h36q20 0 20 -19v-417q0 -49 -10.5 -89t-33.5 -74t-65.5 -52.5t-101.5 -18.5q-209 0 -209 233v418q0 19 21 19h36q21 0 21 -19v-407q0 -91 30 -131t101 -40z" />
    <glyph glyph-name="V" unicode="V" horiz-adv-x="485" 
d="M101 648l89 -319q6 -18 18 -62q21 -71 40 -162h3q10 41 27 106l30 116l88 321q5 14 20 14h50q12 0 8 -16l-180 -632q-5 -14 -20 -14h-52q-15 0 -19 13l-181 634q-4 15 9 15h51q14 0 19 -14z" />
    <glyph glyph-name="W" unicode="W" horiz-adv-x="709" 
d="M358 389h-4q-15 -92 -42 -199l-43 -176q-5 -14 -18 -14h-55q-12 0 -17 14l-166 634q-3 15 10 15h52q13 0 18 -14l83 -319q30 -109 49 -207h2q12 70 43 204l46 202l-31 118q-4 16 9 16h52q14 0 19 -14l79 -326q30 -120 49 -220h3q12 70 48 229l73 317q5 14 19 14h50
q12 0 8 -18l-156 -630q-4 -15 -19 -15h-52q-17 0 -20 14l-43 171q-32 126 -46 204z" />
    <glyph glyph-name="X" unicode="X" horiz-adv-x="454" 
d="M363 14l-129 257l-129 -257q-8 -14 -23 -14h-57q-15 0 -7 15l175 330l-160 302q-4 6 -2 11t9 5h58q14 0 21 -13l115 -232l115 231q7 13 23 13h54q7 1 9.5 -4.5t-0.5 -10.5l-161 -302l176 -331q8 -14 -8 -14h-57q-14 0 -22 14z" />
    <glyph glyph-name="Y" unicode="Y" horiz-adv-x="441" 
d="M199 422l21 -50h6q9 28 50 116l76 162q8 12 21 12h52q17 0 9 -15l-173 -351v-279q0 -17 -16 -17h-42q-18 0 -18 17v279l-173 353q-6 13 8 13h59q13 0 19 -12l75 -165q3 -6 26 -63z" />
    <glyph glyph-name="Z" unicode="Z" horiz-adv-x="425" 
d="M401 55v-38q0 -17 -16 -17h-346q-16 0 -16 16v35q0 16 8 30l278 510h-249q-17 0 -17 17v39q0 16 16 16h323q16 0 16 -14v-40q0 -12 -8 -26l-275 -512h269q17 0 17 -16z" />
    <glyph glyph-name="bracketleft" unicode="[" horiz-adv-x="220" 
d="M182 -49v-37q0 -14 -15 -14h-117q-18 0 -18 16v764q0 15 17 15h119q14 0 14 -13v-37q0 -14 -16 -14h-62v-667h63q15 0 15 -13z" />
    <glyph glyph-name="backslash" unicode="\" horiz-adv-x="215" 
d="M161 -52l-155 730q-3 15 7 15h33q13 0 16 -13l156 -730q3 -14 -10 -14h-33q-11 0 -14 12z" />
    <glyph glyph-name="bracketright" unicode="]" horiz-adv-x="219" 
d="M42 -86v37q0 13 15 13h63v667h-62q-16 0 -16 14v37q0 13 14 13h119q17 0 17 -15v-764q0 -16 -18 -16h-117q-15 0 -15 14z" />
    <glyph glyph-name="asciicircum" unicode="^" horiz-adv-x="426" 
d="M416 389l-19 -14q-10 -7 -16 0l-158 225l-162 -220q-9 -8 -19 -1l-18 14q-7 6 0 16l152 241q8 12 26 12h42q20 0 28 -12l143 -246q6 -10 1 -15z" />
    <glyph glyph-name="underscore" unicode="_" horiz-adv-x="435" 
d="M443 -96v-23q0 -12 -14 -12h-426q-14 0 -14 11v24q0 14 14 14h425q15 0 15 -14z" />
    <glyph glyph-name="grave" unicode="`" horiz-adv-x="433" 
d="M216 710l62 -143q5 -11 -3 -14l-29 -13q-10 -4 -15 3l-81 135q-8 10 3 15l46 20q13 6 17 -3z" />
    <glyph glyph-name="a" unicode="a" horiz-adv-x="449" 
d="M314 119v114h-115q-89 0 -89 -100q0 -40 13.5 -55t48.5 -15q59 0 142 56zM156 -8q-64 0 -93.5 34t-29.5 104q0 87 40.5 127.5t129.5 40.5h111v28q0 54 -24 77.5t-77 23.5q-43 0 -120 -9q-17 -3 -20 9l-6 28q-3 15 16 22q58 20 143 20q100 0 131 -46q33 -47 33 -138v-214
v-6q0 -24 4 -29.5t25 -7.5q17 -2 17 -13v-25q0 -16 -20 -19q-18 -3 -33 -3q-33 0 -48.5 12t-18.5 40l-2 1q-82 -57 -158 -57z" />
    <glyph glyph-name="b" unicode="b" horiz-adv-x="443" 
d="M118 686v-214l2 -2q60 26 116 26q100 0 137 -58q37 -56 37 -188q0 -131 -44 -195t-143 -64q-97 0 -158 24q-24 9 -24 41v630q0 19 17 19h42q18 0 18 -19zM118 405v-331q54 -10 103 -10q53 0 81 39q29 40 29 143t-21 142q-20 39 -72 39q-57 0 -120 -22z" />
    <glyph glyph-name="c" unicode="c" horiz-adv-x="370" 
d="M210 -8q-87 0 -129 47q-19 24 -29 56q-18 56 -18 149q0 105 30 173q37 80 146 80q78 0 138 -23q13 -4 10 -21l-4 -23q-1 -13 -26 -11q-90 9 -115 9q-56 0 -77 -39t-21 -141q0 -108 21 -148q22 -40 77 -40q60 0 123 10q21 3 22 -13l4 -21q3 -13 -11 -21q-51 -23 -141 -23z
" />
    <glyph glyph-name="d" unicode="d" horiz-adv-x="444" 
d="M321 474l3 3v209q0 19 18 19h40q10 0 13.5 -4t3.5 -15v-669q0 -17 -17 -17h-41q-17 0 -17 17v24l-3 2q-76 -50 -142 -50q-80 0 -113 57.5t-33 185.5q0 136 39 198t135 62q60 0 114 -22zM111 236q0 -105 18.5 -138.5t59.5 -33.5q27 0 69 14q40 13 65 29v303
q-59 18 -116 18q-53 0 -74.5 -43t-21.5 -149z" />
    <glyph glyph-name="e" unicode="e" horiz-adv-x="420" 
d="M215 430q-51 0 -75 -35.5t-26 -112.5h204q-1 64 -20 102q-19 46 -83 46zM218 -9q-92 0 -135 50q-19 22 -31 57q-17 53 -17 145q0 78 16 130q32 119 166 124q108 0 146 -71q31 -58 33 -150q2 -57 -43 -57h-239q1 -86 26 -121t83 -35q48 0 122 10q19 3 23 -13l4 -22
q3 -14 -11 -20q-65 -27 -143 -27z" />
    <glyph glyph-name="f" unicode="f" horiz-adv-x="315" 
d="M230 705q54 0 100 -20q12 -4 10 -21l-4 -25q-2 -14 -22 -11q-45 7 -79 7q-42 0 -60.5 -21.5t-18.5 -72.5v-54h106q17 0 17 -17v-29q0 -17 -17 -17h-106v-407q0 -17 -16 -17h-41q-18 0 -18 17v407h-39q-17 0 -17 17v28q0 18 17 18h40v57q0 81 34.5 121t113.5 40z" />
    <glyph glyph-name="g" unicode="g" horiz-adv-x="445" 
d="M234 -184q-90 0 -145 23q-14 6 -11 21l4 23q2 14 22 11q64 -9 125 -9q56 0 78 21.5t22 75.5v36q-65 -27 -118 -27q-102 0 -138 62t-36 188q0 131 43.5 193.5t142.5 62.5q88 0 157 -24q26 -8 26 -41v-433q0 -87 -28 -131q-33 -52 -144 -52zM116 250q0 -105 21 -147t72 -42
q56 0 119 22v331q-63 10 -101 10q-54 0 -83 -35q-28 -34 -28 -139z" />
    <glyph glyph-name="h" unicode="h" horiz-adv-x="445" 
d="M117 688v-242l5 -2q76 52 143 52q88 0 112 -53q21 -44 21 -130v-296q0 -17 -18 -17h-42q-17 0 -17 17l1 300q0 64 -14.5 86.5t-52.5 22.5q-49 0 -138 -47v-362q0 -17 -18 -17h-41q-16 0 -16 17v671q0 17 16 17h41q18 0 18 -17z" />
    <glyph glyph-name="i" unicode="i" horiz-adv-x="194" 
d="M55 617q0 43 42 43q25 0 34 -11q9 -10 9 -32t-9 -34q-9 -11 -34 -11q-42 0 -42 45zM135 470v-453q0 -17 -16 -17h-41q-18 0 -18 17v453q0 17 18 17h41q16 0 16 -17z" />
    <glyph glyph-name="j" unicode="j" horiz-adv-x="209" 
d="M148 470v-504q0 -77 -28 -120q-31 -54 -145 -49q-18 0 -20 17l-2 23q-1 16 14 19q65 14 85 32t20 76v506q0 17 18 17h40q18 0 18 -17zM67 617q0 43 42 43q25 0 33 -11q9 -10 9 -32t-9 -34q-8 -11 -33 -11q-42 0 -42 45z" />
    <glyph glyph-name="k" unicode="k" horiz-adv-x="388" 
d="M299 14l-111 210l-63 -89v-118q0 -17 -18 -17h-41q-17 0 -17 17v671q0 17 17 17h41q18 0 18 -17v-438l2 -1l61 92l92 134q10 13 22 13h52q8 0 11 -6t-2 -13l-129 -181l149 -270q4 -6 0.5 -12t-10.5 -6h-51q-15 0 -23 14z" />
    <glyph glyph-name="l" unicode="l" horiz-adv-x="206" 
d="M133 -5q-42 0 -59 20t-17 63v607q0 18 20 18h34q21 0 21 -18v-584q0 -23 7.5 -29.5t31.5 -6.5q17 0 19 -11l4 -31q2 -12 -10 -17q-27 -11 -51 -11z" />
    <glyph glyph-name="m" unicode="m" horiz-adv-x="705" 
d="M121 470v-24l5 -2q76 52 134 52q87 0 113 -62q89 62 155 62q67 0 96 -34q14 -14 21 -39q12 -36 12 -110v-296q0 -17 -18 -17h-42q-17 0 -17 17l1 308q0 58 -14.5 79.5t-48.5 21.5q-22 0 -46 -10q-29 -12 -40 -18q-29 -16 -45 -26q2 -50 2 -59v-296q0 -17 -18 -17h-42
q-17 0 -17 17l1 308q0 58 -14.5 79.5t-48.5 21.5q-21 0 -46 -9q-26 -7 -39 -15q-1 0 -44 -23v-362q0 -17 -18 -17h-41q-16 0 -16 17v453q0 17 16 17h41q18 0 18 -17z" />
    <glyph glyph-name="n" unicode="n" horiz-adv-x="436" 
d="M115 470v-24l5 -2q76 52 143 52q88 0 112 -53q21 -44 21 -130v-296q0 -17 -18 -17h-42q-17 0 -17 17l1 300q0 64 -14.5 86.5t-52.5 22.5q-49 0 -138 -47v-362q0 -17 -18 -17h-41q-16 0 -16 17v453q0 17 16 17h41q18 0 18 -17z" />
    <glyph glyph-name="o" unicode="o" horiz-adv-x="439" 
d="M402 252q0 -89 -16 -143q-14 -56 -54.5 -85t-115.5 -32q-94 0 -138 55q-17 23 -28 62q-15 59 -15 143q0 245 181 245q93 0 138 -52q21 -24 31 -57q17 -53 17 -136zM325 245q0 101 -23.5 143t-85.5 42q-59 0 -81.5 -42.5t-22.5 -142.5q0 -101 22.5 -143.5t81.5 -42.5
q62 0 85.5 42t23.5 144z" />
    <glyph glyph-name="p" unicode="p" horiz-adv-x="436" 
d="M124 13l-3 -3v-167q0 -19 -18 -19h-41q-10 0 -13.5 4t-3.5 15v627q0 17 17 17h41q17 0 17 -17v-24l3 -2q76 50 142 50q79 0 112.5 -58.5t33.5 -187.5q0 -136 -39 -196.5t-135 -60.5q-59 0 -113 22zM333 251q0 105 -18.5 138.5t-59.5 33.5q-27 0 -69 -14q-40 -13 -65 -29
v-303q58 -18 116 -18q53 0 74.5 43t21.5 149z" />
    <glyph glyph-name="q" unicode="q" horiz-adv-x="445" 
d="M329 -157v173l-2 2q-60 -26 -116 -26q-99 0 -137 57q-37 58 -37 189t44 195t143 64q97 0 158 -24q24 -9 24 -41v-589q0 -19 -17 -19h-42q-18 0 -18 19zM329 83v331q-54 10 -103 10q-52 0 -81 -39q-29 -40 -29 -143q0 -102 20 -142q21 -39 73 -39q57 0 120 22z" />
    <glyph glyph-name="r" unicode="r" horiz-adv-x="285" 
d="M287 480l3 -43q1 -15 -13 -20q-89 -23 -136 -47v-353q0 -17 -17 -17h-43q-16 0 -16 17v453q0 17 16 17h42q18 0 18 -17v-38l2 -2q55 45 127 62q16 4 17 -12z" />
    <glyph glyph-name="s" unicode="s" horiz-adv-x="379" 
d="M352 140q0 -74 -45.5 -111t-121.5 -37q-89 0 -137 23q-15 8 -11 22l4 21q2 9 6.5 11.5t17.5 1.5q86 -10 123 -10q44 0 64.5 17t20.5 54q0 43 -16 59q-17 17 -64 24q-65 12 -106 37q-50 31 -50 102q0 69 41.5 106t116.5 37q81 0 133 -23q11 -6 10 -19l-4 -26
q-1 -13 -26 -10q-85 8 -114 8q-45 0 -62 -16t-17 -55q0 -34 16.5 -46.5t69.5 -21.5q63 -13 102 -38q49 -31 49 -110z" />
    <glyph glyph-name="t" unicode="t" horiz-adv-x="281" 
d="M284 54l4 -23q1 -13 -9 -19q-38 -20 -96 -20t-81 25.5t-23 80.5v326h-45q-17 0 -17 17v28q0 18 17 18h46v108q0 14 17 19l40 11q17 5 17 -15v-123h93q17 0 17 -17v-29q0 -17 -17 -17h-93v-303q0 -36 9.5 -47.5t40.5 -11.5q20 0 58 5q12 1 16 -1.5t6 -11.5z" />
    <glyph glyph-name="u" unicode="u" horiz-adv-x="436" 
d="M317 17v24l-5 2q-76 -52 -141 -52t-96 31q-33 37 -31 128v320q0 17 18 17h42q17 0 17 -17l-1 -304q0 -63 14 -84t53 -21q41 0 130 47v362q0 17 18 17h41q16 0 16 -17v-453q0 -17 -16 -17h-41q-18 0 -18 17z" />
    <glyph glyph-name="v" unicode="v" horiz-adv-x="403" 
d="M399 472l-151 -459q-4 -13 -17 -13h-46q-11 0 -16 12l-152 459q-6 16 8 16h55q11 0 16 -14l84 -280q28 -96 28 -100h2l8 33l3 12q17 57 17 58l83 278q4 13 15 13h56q12 0 7 -15z" />
    <glyph glyph-name="w" unicode="w" horiz-adv-x="599" 
d="M306 276h-2l-14 -52q-5 -21 -13 -52l-46 -159q-4 -13 -16 -13h-44q-13 0 -17 12l-135 459q-6 16 8 16h52q14 0 17 -14l68 -250l28 -112h2q12 50 27 103l48 162l-25 95q-4 16 8 16h53q11 0 16 -14l69 -249q20 -70 29 -115h2q7 33 26 108l67 257q4 13 15 13h55q12 0 7 -15
l-132 -459q-4 -13 -17 -13h-44q-14 0 -17 12l-46 157q-14 49 -29 107z" />
    <glyph glyph-name="x" unicode="x" horiz-adv-x="377" 
d="M281 13l-94 170l-93 -170q-7 -13 -21 -13h-58q-7 0 -9.5 5.5t1.5 10.5l138 233l-130 222q-4 6 -1.5 11t9.5 5h57q11 0 18 -13l90 -163l89 163q7 13 18 13h59q7 0 9.5 -5t-1.5 -11l-132 -221l140 -234q4 -6 1.5 -11t-9.5 -5h-61q-13 0 -20 13z" />
    <glyph glyph-name="y" unicode="y" horiz-adv-x="405" 
d="M208 108h6q11 41 44 152l63 214q4 13 16 13h54q11 0 7 -15l-199 -634q-5 -14 -20 -14h-46q-13 0 -9 16l52 160l-153 471q-6 16 8 16h53q11 0 16 -14l72 -231q26 -84 36 -134z" />
    <glyph glyph-name="z" unicode="z" horiz-adv-x="377" 
d="M22 14v29q0 17 9 29l227 347h-201q-17 0 -17 17v36q0 15 17 15h270q18 0 18 -14v-36q0 -17 -10 -28l-220 -338h215q18 0 18 -16v-38q0 -17 -17 -17h-294q-15 0 -15 14z" />
    <glyph glyph-name="braceleft" unicode="{" horiz-adv-x="231" 
d="M209 -67v-23q0 -14 -15 -17q-28 -5 -45 -5q-80 0 -80 93v198v18q0 19 -1 34q-1 13 -12 27q-6 11 -28 18q-12 3 -12 13v21q0 9 11 12q30 8 37 32q4 12 4 23q1 7 1 13v30v189q0 94 79 94q22 0 47 -5q14 -3 14 -16v-23q0 -13 -15 -15q-33 -3 -43 -11t-10 -30v-184
q0 -99 -52 -120l1 -2q25 -14 35 -33q6 -9 9 -16t4.5 -20t1.5 -19v-29v-193q0 -21 10.5 -29t43.5 -11q15 -1 15 -14z" />
    <glyph glyph-name="bar" unicode="|" horiz-adv-x="206" 
d="M134 679v-778q0 -17 -16 -17h-27q-18 0 -18 17v778q0 17 18 17h27q16 0 16 -17z" />
    <glyph glyph-name="braceright" unicode="}" horiz-adv-x="231" 
d="M16 -90v23q0 13 15 14q33 3 43.5 11t10.5 29v193q0 38 1 49q6 45 49 68l1 2q-52 21 -52 120v184q0 22 -10 30t-43 11q-15 2 -15 15v23q0 13 14 16q25 5 47 5q79 0 79 -94v-189v-30q0 -16 2 -26q4 -12 7 -17.5t11.5 -13.5t21.5 -11q11 -3 11 -12v-21q0 -10 -12 -13
q-19 -5 -36 -29q-5 -6 -5 -31v-37v-198q0 -93 -80 -93q-17 0 -45 5q-15 3 -15 17z" />
    <glyph glyph-name="asciitilde" unicode="~" 
d="M328 232q-26 0 -84 30q-53 27 -73 27q-14 0 -23.5 -7.5t-33.5 -35.5q-10 -9 -23 1l-14 10q-13 8 -8 19q28 79 106 79q32 0 92 -30q49 -25 67 -25q17 0 27 8.5t26 32.5q9 13 23 2l17 -12q10 -7 7 -18q-34 -81 -106 -81z" />
    <glyph glyph-name="exclamdown" unicode="&#xa1;" horiz-adv-x="224" 
d="M139 293l12 -464q0 -17 -14 -17h-44q-16 0 -16 17l10 464q0 16 14 16h26q12 0 12 -16zM112 393q-44 0 -44 45q0 25 9 36.5t35 11.5q25 0 35 -11.5t10 -36.5q0 -24 -9.5 -34.5t-35.5 -10.5z" />
    <glyph glyph-name="cent" unicode="&#xa2;" 
d="M234 -158l-31 4q-11 2 -10 12l17 138q-54 9 -84 47q-28 36 -37 79.5t-9 121.5q0 105 30 173q37 80 146 80h18l18 138q1 13 13 11l27 -3q7 0 8.5 -2.5t1.5 -11.5l-17 -137q41 -8 69 -18q13 -4 10 -21l-4 -23q-1 -13 -26 -11l-58 6l-45 -365q54 1 111 10q19 3 22 -13l3 -21
q3 -13 -11 -21q-48 -22 -133 -23l-17 -135q0 -1 -1 -4q-4 -10 -11 -11zM161 248q0 -86 13.5 -128t44.5 -54l46 362h-6q-56 0 -77 -39t-21 -141z" />
    <glyph glyph-name="sterling" unicode="&#xa3;" 
d="M276 667q76 0 140 -24q18 -7 15 -22l-7 -28q-4 -13 -18 -11q-91 13 -128 13q-43 0 -66.5 -27.5t-22.5 -76.5l2 -126h152q19 0 19 -16v-31q0 -18 -19 -18h-152v-72q0 -121 -28 -155h242q20 0 20 -18v-40q0 -9 -4.5 -12t-16.5 -3h-334q-19 0 -19 15v30q0 17 17 26
q46 25 46 138v91h-35q-20 0 -20 18v31q0 16 19 16h36q0 34 -1 65t-1 65q-1 79 44 125.5t120 46.5z" />
    <glyph glyph-name="currency" unicode="&#xa4;" 
d="M81 267q0 54 28 100l-50 50q-10 10 -2 21l28 26q10 10 19 0l49 -49q38 26 97 27q61 0 102 -29l54 55q11 11 20 1l27 -28q11 -9 0 -21l-55 -55q27 -43 27 -94q0 -59 -30 -107l57 -56q16 -12 2 -23l-27 -28q-9 -9 -21 3l-56 58q-44 -28 -100 -26q-46 0 -89 20l-57 -57
q-12 -12 -22 -2l-29 27q-9 9 4 21l56 55q-32 47 -32 111zM250 154q50 0 79 31t29 82q0 53 -28.5 83.5t-79.5 30.5q-48 0 -74.5 -30.5t-26.5 -83.5t26.5 -83t74.5 -30z" />
    <glyph glyph-name="yen" unicode="&#xa5;" 
d="M132 650l114 -274h4l119 274q6 13 22 13h46q18 0 11 -16l-152 -328h129q8 0 10.5 -2t2.5 -10v-34q0 -10 -13 -10h-137v-42h136q14 0 14 -13v-34q0 -9 -13 -9h-137v-147q0 -18 -20 -18h-37q-20 0 -20 18v147h-137q-14 0 -14 10v36q0 10 15 10h136v42h-137q-14 0 -14 10v36
q0 10 15 10h125l-150 329q-3 6 0 10.5t10 4.5h52q14 0 20 -13z" />
    <glyph glyph-name="brokenbar" unicode="&#xa6;" horiz-adv-x="206" 
d="M137 268v-367q0 -17 -16 -17h-27q-18 0 -18 17v367q0 17 18 17h27q16 0 16 -17zM137 675v-342q0 -17 -16 -17h-27q-18 0 -18 17v342q0 17 18 17h27q16 0 16 -17z" />
    <glyph glyph-name="section" unicode="&#xa7;" horiz-adv-x="391" 
d="M220 668q94 -1 138 -35q13 -8 8 -20l-8 -22q-5 -15 -27 -8q-59 18 -108 18q-47 0 -75.5 -21t-28.5 -57q-1 -43 63 -85q21 -13 49 -28q44 -23 52 -28q91 -52 84 -125q-2 -74 -54 -134q48 -51 48 -106q-2 -100 -73 -135q-53 -30 -120 -30q-34 2 -75 12q-43 11 -64 25
q-14 10 -10 21l8 21q5 15 27 8q54 -19 123 -19q42 -2 73 20.5t34 75.5q0 41 -36 67q-8 6 -21 14q-6 3 -24 12.5t-21 10.5l-27 13q-43 22 -64 37q-51 39 -55 108q2 79 54 134q-48 40 -48 108q2 74 54 111q54 38 124 37zM291 241q0 44 -36 71q-14 11 -32 23q-11 8 -43 23
l-36 18q-32 -40 -32 -82q-1 -41 34 -69.5t113 -60.5q30 42 32 77z" />
    <glyph glyph-name="dieresis" unicode="&#xa8;" horiz-adv-x="433" 
d="M355 609q0 -45 -40 -45q-23 0 -31 11t-8 34q0 42 39 42q22 0 31 -10t9 -32zM196 609q0 -45 -39 -45q-24 0 -32.5 11t-8.5 34q0 42 41 42q39 0 39 -42z" />
    <glyph glyph-name="copyright" unicode="&#xa9;" horiz-adv-x="794" 
d="M749 335q0 -146 -104 -248q-103 -102 -250 -102t-250 102t-103 248t103 248t250 102q150 0 252 -102q102 -101 102 -248zM609 121q89 89 89 214t-89 214t-214 89t-214 -89q-88 -88 -88 -214t88 -214q89 -89 214 -89t214 89zM399 114q-93 0 -123 62q-24 52 -24 148
q0 86 25 143q30 67 122 67q64 0 115 -19q10 -4 8 -17l-3 -20q-2 -11 -22 -9q-74 8 -95 8q-47 0 -65 -33t-18 -117q0 -90 18 -123.5t65 -33.5q52 0 101 9q18 2 19 -10l2 -19q3 -11 -8 -17q-41 -19 -117 -19z" />
    <glyph glyph-name="ordfeminine" unicode="&#xaa;" horiz-adv-x="304" 
d="M274 453v-133q0 -13 3.5 -20.5t6 -8.5t10.5 -3q12 -3 12 -11v-20q0 -11 -17 -14q-15 -3 -26 -3q-44 -2 -51 35q-44 -38 -103 -38q-90 0 -90 95q0 58 28.5 86t90.5 28h73v16q0 31 -15 44t-53 13q-42 0 -74 -7q-22 -5 -23 10l-3 19q-2 11 11 17q36 16 104 16t92 -27.5
t24 -93.5zM211 328v65h-79q-50 0 -50 -59q0 -22 8.5 -31t28.5 -9q39 0 92 34z" />
    <glyph glyph-name="guillemotleft" unicode="&#xab;" horiz-adv-x="366" 
d="M131 45l-88 125q-10 14 1 28l85 124q13 15 25 15h48q6 0 8 -5t-1 -9l-97 -139l102 -141q3 -4 1.5 -7.5t-5.5 -3.5h-56q-14 0 -23 13zM269 45l-88 125q-10 14 1 28l85 124q13 15 25 15h48q6 0 8 -5t-1 -9l-97 -139l102 -141q3 -4 1.5 -7.5t-5.5 -3.5h-56q-14 0 -23 13z
" />
    <glyph glyph-name="logicalnot" unicode="&#xac;" 
d="M400 132h-28q-14 0 -14 14v152h-275q-14 0 -14 14v31q0 15 15 15h316q15 0 15 -14v-197q0 -15 -15 -15z" />
    <glyph glyph-name="sfthyphen" unicode="&#xad;" horiz-adv-x="322" 
d="M294 338v-31q0 -12 -14 -12h-241q-14 0 -14 12v31q0 13 14 13h241q14 0 14 -13z" />
    <glyph glyph-name="registered" unicode="&#xae;" horiz-adv-x="519" 
d="M305 482l54 -101q7 -12 -6 -12h-29q-10 0 -13 7l-50 100h-41v-95q0 -12 -8 -12h-23q-6 0 -7.5 2t-1.5 9v249q0 10 11 10h81q37 0 59.5 -20.5t22.5 -58.5q0 -59 -49 -78zM312 560q0 41 -48 41h-44v-87h44q48 0 48 46zM38 506q0 91 64 155t157 64t157 -64q64 -63 64 -155
q0 -91 -65 -156q-64 -64 -156 -64q-93 0 -157 64t-64 156zM259 322q77 0 129 54q54 54 54 130t-54 129q-52 54 -129 54q-76 0 -130 -54q-54 -53 -54 -129q0 -75 53 -130q54 -54 131 -54z" />
    <glyph glyph-name="overscore" unicode="&#xaf;" horiz-adv-x="433" 
d="M361 623v-38q0 -12 -14 -12h-222q-14 0 -14 12v38q0 13 14 13h222q14 0 14 -13z" />
    <glyph glyph-name="degree" unicode="&#xb0;" horiz-adv-x="304" 
d="M158 654q48 0 81 -34q34 -33 34 -79q0 -47 -33 -79t-82 -32q-53 0 -85.5 31t-32.5 80q0 46 34 79q34 34 84 34zM216 539q0 29 -17.5 47.5t-42.5 18.5t-42.5 -18.5t-17.5 -47.5q0 -27 17 -45t43 -18q27 0 43.5 17.5t16.5 45.5z" />
    <glyph glyph-name="plusminus" unicode="&#xb1;" 
d="M415 345v-35q0 -12 -15 -12h-123v-153q0 -14 -12 -14h-41q-13 0 -13 14v153h-130q-13 0 -13 12v35q0 13 13 13h130v145q0 14 13 14h41q12 0 12 -14v-145h123q15 0 15 -13zM414 78v-31q0 -12 -14 -12h-317q-14 0 -14 12v31q0 13 14 13h317q14 0 14 -13z" />
    <glyph glyph-name="twosuperior" unicode="&#xb2;" horiz-adv-x="315" 
d="M224 517l-113 -124l1 -2h155q16 0 16 -17v-24q0 -17 -16 -17h-229q-18 0 -18 17v22q0 16 11 27l144 157q38 41 38 80q0 33 -14 46.5t-55 13.5q-46 0 -94 -6q-19 -2 -20 8l-4 20q-5 17 11 23q42 16 107 16q131 0 131 -114q0 -39 -11 -66.5t-40 -59.5z" />
    <glyph glyph-name="threesuperior" unicode="&#xb3;" horiz-adv-x="315" 
d="M258 680l-76 -82l-1 -6l23 -3q85 -13 85 -105q0 -85 -36.5 -119.5t-114.5 -34.5q-68 0 -107 18q-12 5 -9 22l3 14q5 17 22 14q51 -10 93 -10q43 0 64.5 20.5t21.5 73.5q0 41 -49 48l-66 11q-19 3 -19 21v20q0 11 9 20l84 89l-2 5h-139q-9 0 -12.5 3t-3.5 13v24
q0 17 16 17h209q21 0 21 -15v-27q0 -14 -16 -31z" />
    <glyph glyph-name="acute" unicode="&#xb4;" horiz-adv-x="432" 
d="M346 678l-81 -132q-5 -8 -15 -3l-29 10q-8 3 -3 14l62 143q4 9 17 3l46 -20q11 -5 3 -15z" />
    <glyph glyph-name="mu" unicode="&#xb5;" horiz-adv-x="445" 
d="M325 18v25l-5 1q-76 -54 -143 -54q-35 0 -57 12v-157q0 -20 -21 -20h-35q-12 0 -16 4t-4 16v624q0 18 20 18h37q20 0 20 -18v-318q0 -51 14.5 -70.5t50.5 -19.5q43 0 140 57v351q0 18 20 18h36q20 0 20 -18v-451q0 -18 -20 -18h-36q-21 0 -21 18z" />
    <glyph glyph-name="mu" unicode="&#x3bc;" horiz-adv-x="445" 
d="M325 18v25l-5 1q-76 -54 -143 -54q-35 0 -57 12v-157q0 -20 -21 -20h-35q-12 0 -16 4t-4 16v624q0 18 20 18h37q20 0 20 -18v-318q0 -51 14.5 -70.5t50.5 -19.5q43 0 140 57v351q0 18 20 18h36q20 0 20 -18v-451q0 -18 -20 -18h-36q-21 0 -21 18z" />
    <glyph glyph-name="paragraph" unicode="&#xb6;" horiz-adv-x="446" 
d="M207 663h203q17 0 17 -17v-35q0 -18 -17 -18h-25v-671q0 -17 -17 -17h-34q-18 0 -18 17v672h-81v-672q0 -17 -17 -17h-34q-18 0 -18 17v381q-66 0 -107 50q-40 49 -40 110q0 95 50 147.5t138 52.5z" />
    <glyph glyph-name="middot" unicode="&#xb7;" horiz-adv-x="170" 
d="M128 253q0 -49 -44 -49q-43 0 -43 49q0 47 43 47q24 0 34 -11t10 -36z" />
    <glyph glyph-name="cedilla" unicode="&#xb8;" horiz-adv-x="370" 
d="M239 -111q0 18 -10.5 24t-41.5 8q-21 2 -15 23l21 66q3 8 11 8h21q10 0 8 -8l-17 -52q43 -2 60.5 -18.5t17.5 -48.5q0 -78 -94 -78q-36 0 -66 11q-6 3 -5 10l5 19q2 8 14 6q30 -5 49 -5q42 0 42 35z" />
    <glyph glyph-name="onesuperior" unicode="&#xb9;" horiz-adv-x="270" 
d="M236 374v-24q0 -16 -14 -16h-170q-14 0 -14 16v24q0 16 14 16h50v292h-53q-10 0 -13.5 2.5t-3.5 11.5v14q0 14 12 18l50 20q13 5 27 5h27q14 0 17 -4t3 -13v-346h54q14 0 14 -16z" />
    <glyph glyph-name="ordmasculine" unicode="&#xba;" horiz-adv-x="302" 
d="M280 411q0 -60 -11 -95q-23 -79 -120 -79q-66 0 -98 38q-12 15 -20 42q-10 39 -10 94q0 162 128 162q83 0 108 -52q23 -45 23 -110zM218 406q0 61 -14.5 85.5t-54.5 24.5q-38 0 -52 -24.5t-14 -85.5t14 -86t52 -25q40 0 54.5 24.5t14.5 86.5z" />
    <glyph glyph-name="guillemotright" unicode="&#xbb;" horiz-adv-x="366" 
d="M338 170l-88 -125q-9 -13 -23 -13h-56q-4 0 -5.5 3.5t1.5 7.5l102 141l-97 139q-2 3 -2 6t2.5 5.5t6.5 2.5h48q11 0 25 -15l85 -124q11 -14 1 -28zM200 170l-88 -125q-9 -13 -23 -13h-56q-4 0 -5.5 3.5t1.5 7.5l102 141l-97 139q-2 3 -2 6t2.5 5.5t6.5 2.5h48
q11 0 25 -15l85 -124q11 -14 1 -28z" />
    <glyph glyph-name="onequarter" unicode="&#xbc;" horiz-adv-x="730" 
d="M667 148v-23q0 -16 -16 -16h-35v-93q0 -16 -18 -16h-24q-18 0 -18 15v94h-172q-19 0 -19 16v20q0 12 8 23l183 240q11 11 24 11h19q17 0 17 -15v-238h35q16 0 16 -18zM440 166h116v154zM265 284v-24q0 -16 -14 -16h-170q-14 0 -14 16v24q0 16 14 16h50v292h-53
q-10 0 -13.5 2.5t-3.5 11.5v14q0 14 12 18l50 20q13 5 27 5h27q14 0 17 -4t3 -13v-346h54q14 0 14 -16zM505 684l-238 -694q-4 -13 -17 -13h-28q-16 0 -12 16l240 693q5 14 18 14h28q13 0 9 -16z" />
    <glyph glyph-name="onehalf" unicode="&#xbd;" horiz-adv-x="730" 
d="M621 183l-113 -124l1 -2h155q16 0 16 -17v-24q0 -17 -16 -17h-229q-18 0 -18 17v22q0 16 11 27l144 157q38 41 38 80q0 33 -14 46.5t-55 13.5q-46 0 -94 -6q-19 -2 -20 8l-4 20q-5 17 11 23q42 16 107 16q131 0 131 -114q0 -39 -11 -66.5t-40 -59.5zM254 284v-24
q0 -16 -14 -16h-170q-14 0 -14 16v24q0 16 14 16h50v292h-53q-10 0 -13.5 2.5t-3.5 11.5v14q0 14 12 18l50 20q13 5 27 5h27q14 0 17 -4t3 -13v-346h54q14 0 14 -16zM487 684l-238 -694q-4 -13 -17 -13h-28q-16 0 -12 16l240 693q5 14 18 14h28q13 0 9 -16z" />
    <glyph glyph-name="threequarters" unicode="&#xbe;" horiz-adv-x="730" 
d="M695 148v-23q0 -16 -16 -16h-35v-93q0 -16 -18 -16h-24q-18 0 -18 15v94h-172q-19 0 -19 16v20q0 12 8 23l183 240q11 11 24 11h19q17 0 17 -15v-238h35q16 0 16 -18zM468 166h116v154zM269 590l-76 -82l-1 -6l23 -3q85 -13 85 -105q0 -85 -36.5 -119.5t-114.5 -34.5
q-68 0 -107 18q-12 5 -9 22l3 14q5 17 22 14q51 -10 93 -10q43 0 64.5 20.5t21.5 73.5q0 41 -49 48l-66 11q-19 3 -19 21v20q0 11 9 20l84 89l-2 5h-139q-9 0 -12.5 3t-3.5 13v24q0 17 16 17h209q21 0 21 -15v-27q0 -14 -16 -31zM521 684l-238 -694q-4 -13 -17 -13h-28
q-16 0 -12 16l240 693q5 14 18 14h28q13 0 9 -16z" />
    <glyph glyph-name="questiondown" unicode="&#xbf;" horiz-adv-x="306" 
d="M9 -41q0 31 12 57q11 25 22.5 38t36.5 35q44 37 63 69.5t19 80.5q0 39 -1 56q0 17 15 17h33q19 0 20 -15q3 -25 3 -68q0 -57 -25 -98.5t-83 -95.5q-23 -21 -31 -33.5t-11 -37.5q0 -45 22.5 -65t73.5 -20q38 0 94 7q16 1 20 -13l5 -26q3 -15 -15 -23q-42 -19 -111 -19
q-162 0 -162 154zM144 438q0 49 45 49q26 0 35.5 -11.5t9.5 -37.5q0 -47 -45 -47q-25 0 -35 11.5t-10 35.5z" />
    <glyph glyph-name="Agrave" unicode="&#xc0;" horiz-adv-x="477" 
d="M384 13l-42 165h-204l-42 -162q-4 -16 -21 -16h-52q-14 0 -8 16l182 631q5 15 19 15h56q14 0 19 -15l179 -633q5 -14 -8 -14h-61q-13 0 -17 13zM244 568h-3q-23 -93 -33 -129l-52 -192h169l-49 189q-26 104 -32 132zM103 808l28 40q9 14 20 3l110 -94q10 -7 4 -15
l-18 -23q-7 -9 -18 -3l-120 75q-12 7 -6 17z" />
    <glyph glyph-name="Aacute" unicode="&#xc1;" horiz-adv-x="477" 
d="M384 13l-42 165h-204l-42 -162q-4 -16 -21 -16h-52q-14 0 -8 16l182 631q5 15 19 15h56q14 0 19 -15l179 -633q5 -14 -8 -14h-61q-13 0 -17 13zM244 568h-3q-23 -93 -33 -129l-52 -192h169l-49 189q-26 104 -32 132zM345 848l28 -40q6 -10 -6 -17l-120 -75q-11 -6 -18 3
l-18 23q-6 8 4 15l110 94q11 11 20 -3z" />
    <glyph glyph-name="Acircumflex" unicode="&#xc2;" horiz-adv-x="477" 
d="M384 13l-42 165h-204l-42 -162q-4 -16 -21 -16h-52q-14 0 -8 16l182 631q5 15 19 15h56q14 0 19 -15l179 -633q5 -14 -8 -14h-61q-13 0 -17 13zM244 568h-3q-23 -93 -33 -129l-52 -192h169l-49 189q-26 104 -32 132zM380 729l-19 -19q-9 -9 -24 3l-95 77l-98 -82
q-12 -10 -21 -1l-18 18q-7 7 0 16l90 98q10 10 27 10h41q18 0 27 -10l87 -93q9 -11 3 -17z" />
    <glyph glyph-name="Atilde" unicode="&#xc3;" horiz-adv-x="477" 
d="M384 13l-42 165h-204l-42 -162q-4 -16 -21 -16h-52q-14 0 -8 16l182 631q5 15 19 15h56q14 0 19 -15l179 -633q5 -14 -8 -14h-61q-13 0 -17 13zM244 568h-3q-23 -93 -33 -129l-52 -192h169l-49 189q-26 104 -32 132zM312 717q-24 0 -71 26q-43 23 -60 23q-23 0 -41 -37
q-3 -7 -6 -8t-14 3l-18 8q-9 4 -6 17q14 41 37 61t50 20t75 -27q43 -23 54 -23q20 0 36 33q10 16 22 11l18 -7q11 -5 8 -17q-23 -83 -84 -83z" />
    <glyph glyph-name="Adieresis" unicode="&#xc4;" horiz-adv-x="477" 
d="M384 13l-42 165h-204l-42 -162q-4 -16 -21 -16h-52q-14 0 -8 16l182 631q5 15 19 15h56q14 0 19 -15l179 -633q5 -14 -8 -14h-61q-13 0 -17 13zM244 568h-3q-23 -93 -33 -129l-52 -192h169l-49 189q-26 104 -32 132zM277 777q0 42 38 42q23 0 31 -11q9 -10 9 -31t-8 -33
q-8 -11 -32 -11q-23 0 -30.5 10.5t-7.5 33.5zM206 777q0 -22 -8.5 -33t-30.5 -11q-24 0 -32 10.5t-8 33.5q0 42 40 42q22 0 30.5 -9.5t8.5 -32.5z" />
    <glyph glyph-name="Aring" unicode="&#xc5;" horiz-adv-x="477" 
d="M384 13l-42 165h-204l-42 -162q-4 -16 -21 -16h-52q-14 0 -8 16l182 631q5 15 19 15h56q14 0 19 -15l179 -633q5 -14 -8 -14h-61q-13 0 -17 13zM244 568h-3q-23 -93 -33 -129l-52 -192h169l-49 189q-26 104 -32 132zM287 779q0 19 -12 33t-30 14q-17 0 -29 -14.5
t-12 -32.5q0 -48 41 -48q19 0 30.5 13.5t11.5 34.5zM337 779q0 -38 -26 -64t-66 -26q-41 0 -67.5 25t-26.5 65q0 39 27 64t67 25q39 0 65.5 -26t26.5 -63z" />
    <glyph glyph-name="AE" unicode="&#xc6;" horiz-adv-x="744" 
d="M722 54v-38q0 -16 -17 -16h-300q-18 0 -18 16q-1 19 -1 162h-200l-84 -162q-7 -16 -24 -16h-58q-13 0 -6 16l334 632q8 15 23 15h322q17 0 17 -16v-39q0 -17 -18 -17h-227v-206h202q17 0 17 -16v-38q0 -16 -17 -16h-202v-244h241q16 0 16 -17zM386 247v312h-4l-161 -312
h165z" />
    <glyph glyph-name="Ccedilla" unicode="&#xc7;" horiz-adv-x="468" 
d="M278 594q-73 0 -107 -53q-15 -23 -24 -60q-13 -60 -13 -157q0 -109 25 -177q31 -79 119 -79q53 0 146 11q16 1 20 -12l5 -26q3 -17 -11 -22q-58 -25 -161 -27l-11 -34q43 -2 60.5 -18.5t17.5 -48.5q0 -78 -94 -78q-36 0 -66 11q-6 3 -5 10l5 19q2 8 14 6q30 -5 49 -5
q42 0 42 35q0 18 -10.5 24t-41.5 8q-21 2 -15 23l16 50q-109 13 -152 113q-35 90 -35 217q0 146 41 237q49 108 186 108q96 0 159 -25q16 -7 13 -22l-6 -28q-4 -12 -19 -11q-85 11 -147 11z" />
    <glyph glyph-name="Egrave" unicode="&#xc8;" horiz-adv-x="439" 
d="M409 54v-38q0 -16 -17 -16h-317q-18 0 -18 16v630q0 17 18 17h306q17 0 17 -16v-39q0 -17 -18 -17h-245v-206h219q17 0 17 -16v-38q0 -16 -17 -16h-219v-244h258q16 0 16 -17zM97 808l28 40q9 14 20 3l110 -94q10 -7 4 -15l-18 -23q-7 -9 -18 -3l-120 75q-12 7 -6 17z
" />
    <glyph glyph-name="Eacute" unicode="&#xc9;" horiz-adv-x="439" 
d="M409 54v-38q0 -16 -17 -16h-317q-18 0 -18 16v630q0 17 18 17h306q17 0 17 -16v-39q0 -17 -18 -17h-245v-206h219q17 0 17 -16v-38q0 -16 -17 -16h-219v-244h258q16 0 16 -17zM319 848l28 -40q6 -10 -6 -17l-120 -75q-11 -6 -18 3l-18 23q-6 8 4 15l110 94q11 11 20 -3z
" />
    <glyph glyph-name="Ecircumflex" unicode="&#xca;" horiz-adv-x="439" 
d="M409 54v-38q0 -16 -17 -16h-317q-18 0 -18 16v630q0 17 18 17h306q17 0 17 -16v-39q0 -17 -18 -17h-245v-206h219q17 0 17 -16v-38q0 -16 -17 -16h-219v-244h258q16 0 16 -17zM367 729l-19 -19q-9 -9 -24 3l-95 77l-98 -82q-12 -10 -21 -1l-18 18q-7 7 0 16l90 98
q10 10 27 10h41q18 0 27 -10l87 -93q9 -11 3 -17z" />
    <glyph glyph-name="Edieresis" unicode="&#xcb;" horiz-adv-x="439" 
d="M409 54v-38q0 -16 -17 -16h-317q-18 0 -18 16v630q0 17 18 17h306q17 0 17 -16v-39q0 -17 -18 -17h-245v-206h219q17 0 17 -16v-38q0 -16 -17 -16h-219v-244h258q16 0 16 -17zM264 777q0 42 38 42q23 0 31 -11q9 -10 9 -31t-8 -33q-8 -11 -32 -11q-23 0 -30.5 10.5
t-7.5 33.5zM193 777q0 -22 -8.5 -33t-30.5 -11q-24 0 -32 10.5t-8 33.5q0 42 40 42q22 0 30.5 -9.5t8.5 -32.5z" />
    <glyph glyph-name="Igrave" unicode="&#xcc;" horiz-adv-x="221" 
d="M156 645v-628q0 -17 -17 -17h-44q-18 0 -18 17v628q0 18 18 18h44q17 0 17 -18zM-4 808l28 40q9 14 20 3l110 -94q10 -7 4 -15l-18 -23q-8 -9 -18 -3l-120 75q-12 7 -6 17z" />
    <glyph glyph-name="Iacute" unicode="&#xcd;" horiz-adv-x="221" 
d="M202 848l28 -40q6 -10 -6 -17l-120 -75q-10 -6 -18 3l-18 23q-6 8 4 15l110 94q11 11 20 -3zM156 645v-628q0 -17 -17 -17h-44q-18 0 -18 17v628q0 18 18 18h44q17 0 17 -18z" />
    <glyph glyph-name="Icircumflex" unicode="&#xce;" horiz-adv-x="221" 
d="M258 729l-19 -19q-9 -9 -24 3l-95 77l-98 -82q-12 -10 -21 -1l-18 18q-7 7 0 16l90 98q10 10 27 10h41q18 0 27 -10l87 -93q9 -11 3 -17zM157 645v-628q0 -17 -17 -17h-44q-18 0 -18 17v628q0 18 18 18h44q17 0 17 -18z" />
    <glyph glyph-name="Idieresis" unicode="&#xcf;" horiz-adv-x="221" 
d="M148 777q0 42 38 42q23 0 31 -11q9 -10 9 -31t-8 -33q-8 -11 -32 -11q-23 0 -30.5 10.5t-7.5 33.5zM77 777q0 -22 -8.5 -33t-30.5 -11q-24 0 -32 10.5t-8 33.5q0 42 40 42q22 0 30.5 -9.5t8.5 -32.5zM150 645v-628q0 -17 -17 -17h-44q-18 0 -18 17v628q0 18 18 18h44
q17 0 17 -18z" />
    <glyph glyph-name="Eth" unicode="&#xd0;" horiz-adv-x="537" 
d="M486 333q0 -148 -48 -235q-54 -98 -210 -98h-147q-21 0 -21 17v288h-42q-14 0 -14 12v38q0 13 14 13h42v278q0 16 18 16h151q154 0 209 -97q48 -85 48 -232zM254 355v-38q0 -12 -14 -12h-102v-233h84q75 0 124 42q59 50 59 211q0 162 -53 217q-44 49 -122 49h-92v-223
h102q14 0 14 -13z" />
    <glyph glyph-name="Ntilde" unicode="&#xd1;" horiz-adv-x="547" 
d="M410 16l-192 341q-63 113 -81 154h-3v-494q0 -17 -17 -17h-41q-18 0 -18 17v631q0 15 16 15h41q15 0 25 -16l195 -345q45 -82 77 -147h3v490q0 18 17 18h42q16 0 16 -18v-629q0 -16 -16 -16h-38q-16 0 -26 16zM346 710q-24 0 -71 26q-43 23 -60 23q-23 0 -41 -37
q-3 -7 -6 -8t-14 3l-18 8q-9 4 -6 17q14 41 37 61t50 20t75 -27q43 -23 54 -23q20 0 36 33q10 16 22 11l18 -7q11 -5 8 -17q-23 -83 -84 -83z" />
    <glyph glyph-name="Ograve" unicode="&#xd2;" horiz-adv-x="555" 
d="M506 341q0 -50 -3 -86q-7 -106 -32 -154q-54 -115 -196 -110q-140 -5 -194 110q-14 28 -22 74q-11 73 -11 166q0 100 20 175q13 45 37 79q57 76 171 76q115 0 170 -67q24 -27 38 -75q22 -71 22 -188zM426 331q0 141 -34.5 205.5t-116.5 64.5q-77 0 -111 -67t-34 -203
q0 -138 32.5 -203t112.5 -65q82 0 116.5 64.5t34.5 203.5zM165 808l28 40q9 14 20 3l110 -94q10 -7 4 -15l-18 -23q-7 -9 -18 -3l-120 75q-12 7 -6 17z" />
    <glyph glyph-name="Oacute" unicode="&#xd3;" horiz-adv-x="555" 
d="M506 341q0 -50 -3 -86q-7 -106 -32 -154q-54 -115 -196 -110q-140 -5 -194 110q-14 28 -22 74q-11 73 -11 166q0 100 20 175q13 45 37 79q57 76 171 76q115 0 170 -67q24 -27 38 -75q22 -71 22 -188zM426 331q0 141 -34.5 205.5t-116.5 64.5q-77 0 -111 -67t-34 -203
q0 -138 32.5 -203t112.5 -65q82 0 116.5 64.5t34.5 203.5zM359 848l28 -40q6 -10 -6 -17l-120 -75q-11 -6 -18 3l-18 23q-6 8 4 15l110 94q11 11 20 -3z" />
    <glyph glyph-name="Ocircumflex" unicode="&#xd4;" horiz-adv-x="555" 
d="M506 341q0 -50 -3 -86q-7 -106 -32 -154q-54 -115 -196 -110q-140 -5 -194 110q-14 28 -22 74q-11 73 -11 166q0 100 20 175q13 45 37 79q57 76 171 76q115 0 170 -67q24 -27 38 -75q22 -71 22 -188zM426 331q0 141 -34.5 205.5t-116.5 64.5q-77 0 -111 -67t-34 -203
q0 -138 32.5 -203t112.5 -65q82 0 116.5 64.5t34.5 203.5zM423 729l-19 -19q-9 -9 -24 3l-95 77l-98 -82q-12 -10 -21 -1l-18 18q-7 7 0 16l90 98q10 10 27 10h41q18 0 27 -10l87 -93q9 -11 3 -17z" />
    <glyph glyph-name="Otilde" unicode="&#xd5;" horiz-adv-x="555" 
d="M506 341q0 -50 -3 -86q-7 -106 -32 -154q-54 -115 -196 -110q-140 -5 -194 110q-14 28 -22 74q-11 73 -11 166q0 100 20 175q13 45 37 79q57 76 171 76q115 0 170 -67q24 -27 38 -75q22 -71 22 -188zM426 331q0 141 -34.5 205.5t-116.5 64.5q-77 0 -111 -67t-34 -203
q0 -138 32.5 -203t112.5 -65q82 0 116.5 64.5t34.5 203.5zM342 728q-24 0 -71 26q-43 23 -60 23q-23 0 -41 -37q-3 -7 -6 -8t-14 3l-18 8q-9 4 -6 17q14 41 37 61t50 20t75 -27q43 -23 54 -23q20 0 36 33q10 16 22 11l18 -7q11 -5 8 -17q-23 -83 -84 -83z" />
    <glyph glyph-name="Odieresis" unicode="&#xd6;" horiz-adv-x="555" 
d="M506 341q0 -50 -3 -86q-7 -106 -32 -154q-54 -115 -196 -110q-140 -5 -194 110q-14 28 -22 74q-11 73 -11 166q0 100 20 175q13 45 37 79q57 76 171 76q115 0 170 -67q24 -27 38 -75q22 -71 22 -188zM426 331q0 141 -34.5 205.5t-116.5 64.5q-77 0 -111 -67t-34 -203
q0 -138 32.5 -203t112.5 -65q82 0 116.5 64.5t34.5 203.5zM311 777q0 42 38 42q23 0 31 -11q9 -10 9 -31t-8 -33q-8 -11 -32 -11q-23 0 -30.5 10.5t-7.5 33.5zM240 777q0 -22 -8.5 -33t-30.5 -11q-24 0 -32 10.5t-8 33.5q0 42 40 42q22 0 30.5 -9.5t8.5 -32.5z" />
    <glyph glyph-name="multiply" unicode="&#xd7;" 
d="M358 157l-105 121l-109 -126q-10 -10 -18 -1l-30 28q-9 9 1 19l114 130l-112 130q-11 7 -1 17l26 23q9 9 18 0l109 -125l104 119q10 10 19 1l29 -25q9 -8 -1 -18l-108 -125l110 -125q10 -10 1 -20l-28 -25q-8 -9 -19 2z" />
    <glyph glyph-name="Oslash" unicode="&#xd8;" horiz-adv-x="555" 
d="M506 341q0 -50 -3 -86q-7 -106 -32 -154q-54 -115 -196 -110q-92 0 -144 43l-21 -37q-7 -13 -17 -7l-24 14q-5 5 -5 6t4 10l30 51q-29 43 -39.5 106t-10.5 164q0 100 20 175q13 45 37 79q57 76 171 76q93 0 146 -44l23 40q7 12 17 7l23 -13q9 -5 2 -16l-32 -54
q51 -75 51 -250zM426 331q0 112 -21 173l-230 -396q34 -45 100 -45q82 0 116.5 64.5t34.5 203.5zM130 331q0 -112 19 -172l230 395q-35 47 -104 47q-77 0 -111 -67t-34 -203z" />
    <glyph glyph-name="Ugrave" unicode="&#xd9;" horiz-adv-x="528" 
d="M264 66q69 0 101.5 41.5t32.5 129.5v407q0 19 21 19h36q20 0 20 -19v-417q0 -49 -10.5 -89t-33.5 -74t-65.5 -52.5t-101.5 -18.5q-209 0 -209 233v418q0 19 21 19h36q21 0 21 -19v-407q0 -91 30 -131t101 -40zM157 808l28 40q9 14 20 3l110 -94q10 -7 4 -15l-18 -23
q-7 -9 -18 -3l-120 75q-12 7 -6 17z" />
    <glyph glyph-name="Uacute" unicode="&#xda;" horiz-adv-x="528" 
d="M264 66q69 0 101.5 41.5t32.5 129.5v407q0 19 21 19h36q20 0 20 -19v-417q0 -49 -10.5 -89t-33.5 -74t-65.5 -52.5t-101.5 -18.5q-209 0 -209 233v418q0 19 21 19h36q21 0 21 -19v-407q0 -91 30 -131t101 -40zM350 848l28 -40q6 -10 -6 -17l-120 -75q-10 -6 -18 3l-18 23
q-6 8 4 15l110 94q11 11 20 -3z" />
    <glyph glyph-name="Ucircumflex" unicode="&#xdb;" horiz-adv-x="528" 
d="M264 66q69 0 101.5 41.5t32.5 129.5v407q0 19 21 19h36q20 0 20 -19v-417q0 -49 -10.5 -89t-33.5 -74t-65.5 -52.5t-101.5 -18.5q-209 0 -209 233v418q0 19 21 19h36q21 0 21 -19v-407q0 -91 30 -131t101 -40zM410 729l-19 -19q-9 -9 -24 3l-95 77l-98 -82
q-12 -10 -21 -1l-18 18q-7 7 0 16l90 98q10 10 27 10h41q18 0 27 -10l87 -93q9 -11 3 -17z" />
    <glyph glyph-name="Udieresis" unicode="&#xdc;" horiz-adv-x="528" 
d="M264 66q69 0 101.5 41.5t32.5 129.5v407q0 19 21 19h36q20 0 20 -19v-417q0 -49 -10.5 -89t-33.5 -74t-65.5 -52.5t-101.5 -18.5q-209 0 -209 233v418q0 19 21 19h36q21 0 21 -19v-407q0 -91 30 -131t101 -40zM302 777q0 42 38 42q23 0 31 -11q9 -10 9 -31t-8 -33
q-8 -11 -32 -11q-23 0 -30.5 10.5t-7.5 33.5zM231 777q0 -22 -8.5 -33t-30.5 -11q-24 0 -32 10.5t-8 33.5q0 42 40 42q22 0 30.5 -9.5t8.5 -32.5z" />
    <glyph glyph-name="Yacute" unicode="&#xdd;" horiz-adv-x="441" 
d="M199 422l21 -50h6q9 28 50 116l76 162q8 12 21 12h52q17 0 9 -15l-173 -351v-279q0 -17 -16 -17h-42q-18 0 -18 17v279l-173 353q-6 13 8 13h59q13 0 19 -12l75 -165q3 -6 26 -63zM314 848l28 -40q6 -10 -6 -17l-120 -75q-10 -6 -18 3l-18 23q-6 8 4 15l110 94
q11 11 20 -3z" />
    <glyph glyph-name="Thorn" unicode="&#xde;" horiz-adv-x="448" 
d="M429 341q0 -77 -39 -134q-44 -67 -159 -67h-96v-123q0 -17 -17 -17h-43q-18 0 -18 17v629q0 17 17 17h43q18 0 18 -17v-112h95q92 0 145.5 -50.5t53.5 -142.5zM352 340q0 123 -128 123h-89v-254h95q66 0 94 34t28 97z" />
    <glyph glyph-name="germandbls" unicode="&#xdf;" horiz-adv-x="438" 
d="M306 416v-4q103 -31 103 -205q0 -101 -43 -158t-123 -57q-35 0 -59 8q-14 6 -13 18l4 30q1 16 26 13q7 -1 29 -1q99 0 99 150q0 80 -27 114.5t-89 40.5q-15 0 -15 12v32q0 15 18 20q34 7 54 39t20 75q0 45 -22.5 70t-61.5 25q-88 0 -88 -119v-505q0 -19 -20 -19h-37
q-19 0 -19 18v498q-1 98 43.5 148t119.5 50q78 0 121 -43.5t43 -124.5q0 -37 -16 -72.5t-47 -52.5z" />
    <glyph glyph-name="agrave" unicode="&#xe0;" horiz-adv-x="449" 
d="M314 119v114h-115q-89 0 -89 -100q0 -40 13.5 -55t48.5 -15q59 0 142 56zM156 -8q-64 0 -93.5 34t-29.5 104q0 87 40.5 127.5t129.5 40.5h111v28q0 54 -24 77.5t-77 23.5q-43 0 -120 -9q-17 -3 -20 9l-6 28q-3 15 16 22q58 20 143 20q100 0 131 -46q33 -47 33 -138v-214
v-6q0 -24 4 -29.5t25 -7.5q17 -2 17 -13v-25q0 -16 -20 -19q-18 -3 -33 -3q-33 0 -48.5 12t-18.5 40l-2 1q-82 -57 -158 -57zM225 710l62 -143q5 -11 -3 -14l-29 -13q-10 -4 -15 3l-81 135q-8 10 3 15l46 20q13 6 17 -3z" />
    <glyph glyph-name="aacute" unicode="&#xe1;" horiz-adv-x="449" 
d="M314 119v114h-115q-89 0 -89 -100q0 -40 13.5 -55t48.5 -15q59 0 142 56zM156 -8q-64 0 -93.5 34t-29.5 104q0 87 40.5 127.5t129.5 40.5h111v28q0 54 -24 77.5t-77 23.5q-43 0 -120 -9q-17 -3 -20 9l-6 28q-3 15 16 22q58 20 143 20q100 0 131 -46q33 -47 33 -138v-214
v-6q0 -24 4 -29.5t25 -7.5q17 -2 17 -13v-25q0 -16 -20 -19q-18 -3 -33 -3q-33 0 -48.5 12t-18.5 40l-2 1q-82 -57 -158 -57zM323 678l-81 -132q-4 -8 -15 -3l-29 10q-8 3 -3 14l62 143q4 9 17 3l46 -20q10 -5 3 -15z" />
    <glyph glyph-name="acircumflex" unicode="&#xe2;" horiz-adv-x="449" 
d="M314 119v114h-115q-89 0 -89 -100q0 -40 13.5 -55t48.5 -15q59 0 142 56zM156 -8q-64 0 -93.5 34t-29.5 104q0 87 40.5 127.5t129.5 40.5h111v28q0 54 -24 77.5t-77 23.5q-43 0 -120 -9q-17 -3 -20 9l-6 28q-3 15 16 22q58 20 143 20q100 0 131 -46q33 -47 33 -138v-214
v-6q0 -24 4 -29.5t25 -7.5q17 -2 17 -13v-25q0 -16 -20 -19q-18 -3 -33 -3q-33 0 -48.5 12t-18.5 40l-2 1q-82 -57 -158 -57zM125 541l-20 16q-8 8 -1 15l82 119q11 11 27 11h40q22 0 29 -10l79 -119q8 -11 1 -16l-21 -16q-11 -8 -16 -1l-92 104l-90 -102q-7 -9 -18 -1z" />
    <glyph glyph-name="atilde" unicode="&#xe3;" horiz-adv-x="449" 
d="M314 119v114h-115q-89 0 -89 -100q0 -40 13.5 -55t48.5 -15q59 0 142 56zM156 -8q-64 0 -93.5 34t-29.5 104q0 87 40.5 127.5t129.5 40.5h111v28q0 54 -24 77.5t-77 23.5q-43 0 -120 -9q-17 -3 -20 9l-6 28q-3 15 16 22q58 20 143 20q100 0 131 -46q33 -47 33 -138v-214
v-6q0 -24 4 -29.5t25 -7.5q17 -2 17 -13v-25q0 -16 -20 -19q-18 -3 -33 -3q-33 0 -48.5 12t-18.5 40l-2 1q-82 -57 -158 -57zM294 559q-24 0 -71 26q-43 23 -60 23q-23 0 -41 -37q-3 -7 -6 -8t-14 3l-18 8q-9 4 -6 17q14 41 37 61t50 20t75 -27q43 -23 54 -23q20 0 36 33
q10 16 22 11l18 -7q11 -5 8 -17q-23 -83 -84 -83z" />
    <glyph glyph-name="adieresis" unicode="&#xe4;" horiz-adv-x="449" 
d="M314 119v114h-115q-89 0 -89 -100q0 -40 13.5 -55t48.5 -15q59 0 142 56zM156 -8q-64 0 -93.5 34t-29.5 104q0 87 40.5 127.5t129.5 40.5h111v28q0 54 -24 77.5t-77 23.5q-43 0 -120 -9q-17 -3 -20 9l-6 28q-3 15 16 22q58 20 143 20q100 0 131 -46q33 -47 33 -138v-214
v-6q0 -24 4 -29.5t25 -7.5q17 -2 17 -13v-25q0 -16 -20 -19q-18 -3 -33 -3q-33 0 -48.5 12t-18.5 40l-2 1q-82 -57 -158 -57zM344 609q0 -45 -40 -45q-23 0 -31 11t-8 34q0 42 39 42q22 0 31 -10t9 -32zM185 609q0 -45 -39 -45q-24 0 -32.5 11t-8.5 34q0 42 41 42
q39 0 39 -42z" />
    <glyph glyph-name="aring" unicode="&#xe5;" horiz-adv-x="449" 
d="M314 119v114h-115q-89 0 -89 -100q0 -40 13.5 -55t48.5 -15q59 0 142 56zM156 -8q-64 0 -93.5 34t-29.5 104q0 87 40.5 127.5t129.5 40.5h111v28q0 54 -24 77.5t-77 23.5q-43 0 -120 -9q-17 -3 -20 9l-6 28q-3 15 16 22q58 20 143 20q100 0 131 -46q33 -47 33 -138v-214
v-6q0 -24 4 -29.5t25 -7.5q17 -2 17 -13v-25q0 -16 -20 -19q-18 -3 -33 -3q-33 0 -48.5 12t-18.5 40l-2 1q-82 -57 -158 -57zM279 617q0 19 -12 33t-30 14q-17 0 -29 -14.5t-12 -32.5q0 -48 41 -48q19 0 30.5 13.5t11.5 34.5zM329 617q0 -38 -26 -64t-66 -26q-41 0 -67.5 25
t-26.5 65q0 39 27 64t67 25q39 0 65.5 -26t26.5 -63z" />
    <glyph glyph-name="ae" unicode="&#xe6;" horiz-adv-x="694" 
d="M497 430q-51 0 -75 -35.5t-26 -112.5h204q-1 64 -20 102q-19 46 -83 46zM500 -9q-112 0 -152 76q-84 -75 -192 -75q-64 0 -93 33.5t-29 104.5q0 80 39 117t127 37h117v48q0 54 -22 74.5t-77 20.5q-56 0 -121 -9q-21 -4 -24 10l-5 26q-5 14 17 23q51 20 146 20t134 -56
q54 56 134 56q108 0 146 -71q31 -58 33 -150q2 -57 -43 -57h-239q1 -86 26 -121t83 -35q48 0 122 10q19 3 23 -13l4 -22q3 -14 -11 -20q-65 -27 -143 -27zM172 63q26 0 74 20q46 19 81 42q-10 41 -10 93h-125q-82 0 -82 -85q0 -40 13.5 -55t48.5 -15z" />
    <glyph glyph-name="ccedilla" unicode="&#xe7;" horiz-adv-x="370" 
d="M238 -111q0 18 -10.5 24t-41.5 8q-21 2 -15 23l15 49q-71 6 -111 54q-43 65 -41 197q0 105 30 173q37 80 146 80q78 0 138 -23q13 -4 10 -21l-4 -23q-1 -13 -26 -11q-90 9 -115 9q-56 0 -77 -39t-21 -141q0 -108 21 -148q22 -40 77 -40q60 0 123 10q21 3 22 -13l4 -21
q3 -13 -11 -21q-41 -18 -125 -23l-11 -34q43 -2 60.5 -18.5t17.5 -48.5q0 -78 -94 -78q-36 0 -66 11q-6 3 -5 10l5 19q2 8 14 6q30 -5 49 -5q42 0 42 35z" />
    <glyph glyph-name="egrave" unicode="&#xe8;" horiz-adv-x="420" 
d="M215 430q-51 0 -75 -35.5t-26 -112.5h204q-1 64 -20 102q-19 46 -83 46zM218 -9q-92 0 -135 50q-19 22 -31 57q-17 53 -17 145q0 78 16 130q32 119 166 124q108 0 146 -71q31 -58 33 -150q2 -57 -43 -57h-239q1 -86 26 -121t83 -35q48 0 122 10q19 3 23 -13l4 -22
q3 -14 -11 -20q-65 -27 -143 -27zM186 710l62 -143q5 -11 -3 -14l-29 -13q-10 -4 -15 3l-81 135q-8 10 3 15l46 20q13 6 17 -3z" />
    <glyph glyph-name="eacute" unicode="&#xe9;" horiz-adv-x="420" 
d="M215 430q-51 0 -75 -35.5t-26 -112.5h204q-1 64 -20 102q-19 46 -83 46zM218 -9q-92 0 -135 50q-19 22 -31 57q-17 53 -17 145q0 78 16 130q32 119 166 124q108 0 146 -71q31 -58 33 -150q2 -57 -43 -57h-239q1 -86 26 -121t83 -35q48 0 122 10q19 3 23 -13l4 -22
q3 -14 -11 -20q-65 -27 -143 -27zM316 678l-81 -132q-5 -8 -15 -3l-29 10q-8 3 -3 14l62 143q4 9 17 3l46 -20q11 -5 3 -15z" />
    <glyph glyph-name="ecircumflex" unicode="&#xea;" horiz-adv-x="420" 
d="M215 430q-51 0 -75 -35.5t-26 -112.5h204q-1 64 -20 102q-19 46 -83 46zM218 -9q-92 0 -135 50q-19 22 -31 57q-17 53 -17 145q0 78 16 130q32 119 166 124q108 0 146 -71q31 -58 33 -150q2 -57 -43 -57h-239q1 -86 26 -121t83 -35q48 0 122 10q19 3 23 -13l4 -22
q3 -14 -11 -20q-65 -27 -143 -27zM113 541l-20 16q-8 8 -1 15l82 119q11 11 27 11h40q22 0 29 -10l79 -119q8 -11 1 -16l-21 -16q-11 -8 -16 -1l-92 104l-90 -102q-7 -9 -18 -1z" />
    <glyph glyph-name="edieresis" unicode="&#xeb;" horiz-adv-x="420" 
d="M215 430q-51 0 -75 -35.5t-26 -112.5h204q-1 64 -20 102q-19 46 -83 46zM218 -9q-92 0 -135 50q-19 22 -31 57q-17 53 -17 145q0 78 16 130q32 119 166 124q108 0 146 -71q31 -58 33 -150q2 -57 -43 -57h-239q1 -86 26 -121t83 -35q48 0 122 10q19 3 23 -13l4 -22
q3 -14 -11 -20q-65 -27 -143 -27zM337 609q0 -45 -40 -45q-23 0 -31 11t-8 34q0 42 39 42q22 0 31 -10t9 -32zM178 609q0 -45 -39 -45q-24 0 -32.5 11t-8.5 34q0 42 41 42q39 0 39 -42z" />
    <glyph glyph-name="igrave" unicode="&#xec;" horiz-adv-x="223" 
d="M90 710l62 -143q5 -11 -3 -14l-29 -13q-10 -4 -15 3l-81 135q-8 10 3 15l46 20q13 6 17 -3zM157 470v-453q0 -17 -16 -17h-41q-18 0 -18 17v453q0 17 18 17h41q16 0 16 -17z" />
    <glyph glyph-name="iacute" unicode="&#xed;" horiz-adv-x="223" 
d="M209 678l-81 -132q-4 -8 -15 -3l-29 10q-8 3 -3 14l62 143q4 9 17 3l46 -20q10 -5 3 -15zM149 470v-453q0 -17 -16 -17h-41q-18 0 -18 17v453q0 17 18 17h41q16 0 16 -17z" />
    <glyph glyph-name="icircumflex" unicode="&#xee;" horiz-adv-x="223" 
d="M13 541l-20 16q-8 8 -1 15l82 119q11 11 27 11h40q22 0 29 -10l79 -119q8 -11 1 -16l-21 -16q-11 -8 -16 -1l-92 104l-90 -102q-7 -9 -18 -1zM156 470v-453q0 -17 -16 -17h-41q-18 0 -18 17v453q0 17 18 17h41q16 0 16 -17z" />
    <glyph glyph-name="idieresis" unicode="&#xef;" horiz-adv-x="223" 
d="M233 609q0 -45 -40 -45q-23 0 -31 11t-8 34q0 42 39 42q22 0 31 -10t9 -32zM74 609q0 -45 -39 -45q-24 0 -32.5 11t-8.5 34q0 42 41 42q39 0 39 -42zM149 470v-453q0 -17 -16 -17h-41q-18 0 -18 17v453q0 17 18 17h41q16 0 16 -17z" />
    <glyph glyph-name="eth" unicode="&#xf0;" horiz-adv-x="438" 
d="M300 465l6 3q-24 70 -55 109l-86 -36q-14 -6 -19 6l-9 23q-5 12 10 18l67 28q-25 23 -82 57q-21 12 -15 25l10 21q8 18 29 9q80 -38 123 -83l66 28q14 6 19 -8l10 -24q4 -10 -7 -15l-54 -22q91 -125 91 -333q0 -100 -19 -162q-34 -113 -170 -117q-105 -4 -153 86
q-12 22 -18 53q-9 53 -9 104q0 72 15 129q29 118 161 123q52 0 89 -22zM326 247q0 93 -8 143q-51 30 -106 30q-65 0 -84 -58q-16 -49 -16 -130q0 -69 17 -117q20 -58 88 -58q73 0 93 64q16 53 16 126z" />
    <glyph glyph-name="ntilde" unicode="&#xf1;" horiz-adv-x="436" 
d="M115 470v-24l5 -2q76 52 143 52q88 0 112 -53q21 -44 21 -130v-296q0 -17 -18 -17h-42q-17 0 -17 17l1 300q0 64 -14.5 86.5t-52.5 22.5q-49 0 -138 -47v-362q0 -17 -18 -17h-41q-16 0 -16 17v453q0 17 16 17h41q18 0 18 -17zM275 558q-24 0 -71 26q-43 23 -60 23
q-22 0 -41 -37q-3 -7 -6 -8t-14 3l-18 8q-9 4 -6 17q14 41 37 61t50 20t75 -27q43 -23 54 -23q12 0 19.5 7t16.5 26q10 16 22 11l18 -7q11 -5 8 -17q-23 -83 -84 -83z" />
    <glyph glyph-name="ograve" unicode="&#xf2;" horiz-adv-x="439" 
d="M402 252q0 -89 -16 -143q-14 -56 -54.5 -85t-115.5 -32q-94 0 -138 55q-17 23 -28 62q-15 59 -15 143q0 245 181 245q93 0 138 -52q21 -24 31 -57q17 -53 17 -136zM325 245q0 101 -23.5 143t-85.5 42q-59 0 -81.5 -42.5t-22.5 -142.5q0 -101 22.5 -143.5t81.5 -42.5
q62 0 85.5 42t23.5 144zM186 710l62 -143q5 -11 -3 -14l-29 -13q-10 -4 -15 3l-81 135q-8 10 3 15l46 20q13 6 17 -3z" />
    <glyph glyph-name="oacute" unicode="&#xf3;" horiz-adv-x="439" 
d="M402 252q0 -89 -16 -143q-14 -56 -54.5 -85t-115.5 -32q-94 0 -138 55q-17 23 -28 62q-15 59 -15 143q0 245 181 245q93 0 138 -52q21 -24 31 -57q17 -53 17 -136zM325 245q0 101 -23.5 143t-85.5 42q-59 0 -81.5 -42.5t-22.5 -142.5q0 -101 22.5 -143.5t81.5 -42.5
q62 0 85.5 42t23.5 144zM316 678l-81 -132q-5 -8 -15 -3l-29 10q-8 3 -3 14l62 143q4 9 17 3l46 -20q11 -5 3 -15z" />
    <glyph glyph-name="ocircumflex" unicode="&#xf4;" horiz-adv-x="439" 
d="M402 252q0 -89 -16 -143q-14 -56 -54.5 -85t-115.5 -32q-94 0 -138 55q-17 23 -28 62q-15 59 -15 143q0 245 181 245q93 0 138 -52q21 -24 31 -57q17 -53 17 -136zM325 245q0 101 -23.5 143t-85.5 42q-59 0 -81.5 -42.5t-22.5 -142.5q0 -101 22.5 -143.5t81.5 -42.5
q62 0 85.5 42t23.5 144zM114 541l-20 16q-8 8 -1 15l82 119q11 11 27 11h40q22 0 29 -10l79 -119q8 -11 1 -16l-21 -16q-11 -8 -16 -1l-92 104l-90 -102q-7 -9 -18 -1z" />
    <glyph glyph-name="otilde" unicode="&#xf5;" horiz-adv-x="439" 
d="M402 252q0 -89 -16 -143q-14 -56 -54.5 -85t-115.5 -32q-94 0 -138 55q-17 23 -28 62q-15 59 -15 143q0 245 181 245q93 0 138 -52q21 -24 31 -57q17 -53 17 -136zM325 245q0 101 -23.5 143t-85.5 42q-59 0 -81.5 -42.5t-22.5 -142.5q0 -101 22.5 -143.5t81.5 -42.5
q62 0 85.5 42t23.5 144zM290 557q-24 0 -71 26q-43 23 -60 23q-23 0 -41 -37q-3 -7 -6 -8t-14 3l-18 8q-9 4 -6 17q14 41 37 61t50 20t75 -27q43 -23 54 -23q20 0 36 33q10 16 22 11l18 -7q11 -5 8 -17q-23 -83 -84 -83z" />
    <glyph glyph-name="odieresis" unicode="&#xf6;" horiz-adv-x="439" 
d="M402 252q0 -89 -16 -143q-14 -56 -54.5 -85t-115.5 -32q-94 0 -138 55q-17 23 -28 62q-15 59 -15 143q0 245 181 245q93 0 138 -52q21 -24 31 -57q17 -53 17 -136zM325 245q0 101 -23.5 143t-85.5 42q-59 0 -81.5 -42.5t-22.5 -142.5q0 -101 22.5 -143.5t81.5 -42.5
q62 0 85.5 42t23.5 144zM337 609q0 -45 -40 -45q-23 0 -31 11t-8 34q0 42 39 42q22 0 31 -10t9 -32zM178 609q0 -45 -39 -45q-24 0 -32.5 11t-8.5 34q0 42 41 42q39 0 39 -42z" />
    <glyph glyph-name="divide" unicode="&#xf7;" 
d="M284 472q0 -49 -44 -49q-26 0 -34.5 11.5t-8.5 37.5q0 45 43 45q44 0 44 -45zM284 175q0 -48 -44 -48q-26 0 -34.5 12.5t-8.5 35.5q0 47 43 47q24 0 34 -11t10 -36zM415 344v-36q0 -13 -17 -13h-314q-16 0 -16 13v36q0 14 16 14h314q17 0 17 -14z" />
    <glyph glyph-name="oslash" unicode="&#xf8;" horiz-adv-x="439" 
d="M402 252q0 -89 -16 -143q-14 -56 -54.5 -85t-115.5 -32q-60 0 -97 22l-15 -25q-7 -13 -17 -7l-24 14q-5 5 -5 6t4 10l19 33q-46 55 -46 207q0 245 181 245q71 0 116 -33l19 31q7 12 17 7l23 -13q9 -5 2 -16l-27 -45q36 -55 36 -176zM112 245q0 -86 14 -125l167 279
q-25 31 -77 31q-59 0 -81.5 -42.5t-22.5 -142.5zM325 245q0 61 -8 101l-161 -270q23 -17 60 -17q62 0 85.5 42t23.5 144z" />
    <glyph glyph-name="ugrave" unicode="&#xf9;" horiz-adv-x="436" 
d="M317 17v24l-5 2q-76 -52 -141 -52t-96 31q-33 37 -31 128v320q0 17 18 17h42q17 0 17 -17l-1 -304q0 -63 14 -84t53 -21q41 0 130 47v362q0 17 18 17h41q16 0 16 -17v-453q0 -17 -16 -17h-41q-18 0 -18 17zM195 710l62 -143q5 -11 -3 -14l-29 -13q-10 -4 -15 3l-81 135
q-8 10 3 15l46 20q13 6 17 -3z" />
    <glyph glyph-name="uacute" unicode="&#xfa;" horiz-adv-x="436" 
d="M317 17v24l-5 2q-76 -52 -141 -52t-96 31q-33 37 -31 128v320q0 17 18 17h42q17 0 17 -17l-1 -304q0 -63 14 -84t53 -21q41 0 130 47v362q0 17 18 17h41q16 0 16 -17v-453q0 -17 -16 -17h-41q-18 0 -18 17zM321 678l-81 -132q-4 -8 -15 -3l-29 10q-8 3 -3 14l62 143
q4 9 17 3l46 -20q10 -5 3 -15z" />
    <glyph glyph-name="ucircumflex" unicode="&#xfb;" horiz-adv-x="436" 
d="M317 17v24l-5 2q-76 -52 -141 -52t-96 31q-33 37 -31 128v320q0 17 18 17h42q17 0 17 -17l-1 -304q0 -63 14 -84t53 -21q41 0 130 47v362q0 17 18 17h41q16 0 16 -17v-453q0 -17 -16 -17h-41q-18 0 -18 17zM118 541l-20 16q-8 8 -1 15l82 119q11 11 27 11h40q22 0 29 -10
l79 -119q8 -11 1 -16l-21 -16q-11 -8 -16 -1l-92 104l-90 -102q-7 -9 -18 -1z" />
    <glyph glyph-name="udieresis" unicode="&#xfc;" horiz-adv-x="436" 
d="M317 17v24l-5 2q-76 -52 -141 -52t-96 31q-33 37 -31 128v320q0 17 18 17h42q17 0 17 -17l-1 -304q0 -63 14 -84t53 -21q41 0 130 47v362q0 17 18 17h41q16 0 16 -17v-453q0 -17 -16 -17h-41q-18 0 -18 17zM348 609q0 -45 -40 -45q-23 0 -31 11t-8 34q0 42 39 42
q22 0 31 -10t9 -32zM189 609q0 -45 -39 -45q-24 0 -32.5 11t-8.5 34q0 42 41 42q39 0 39 -42z" />
    <glyph glyph-name="yacute" unicode="&#xfd;" horiz-adv-x="405" 
d="M208 108h6q11 41 44 152l63 214q4 13 16 13h54q11 0 7 -15l-199 -634q-5 -14 -20 -14h-46q-13 0 -9 16l52 160l-153 471q-6 16 8 16h53q11 0 16 -14l72 -231q26 -84 36 -134zM306 678l-81 -132q-5 -8 -15 -3l-29 10q-8 3 -3 14l62 143q4 9 17 3l46 -20q11 -5 3 -15z" />
    <glyph glyph-name="thorn" unicode="&#xfe;" horiz-adv-x="436" 
d="M124 13l-3 -3v-167q0 -19 -18 -19h-41q-10 0 -13.5 4t-3.5 15v845q0 17 17 17h41q17 0 17 -17v-242l3 -2q76 50 142 50q79 0 112.5 -58.5t33.5 -187.5q0 -136 -39 -196.5t-135 -60.5q-59 0 -113 22zM333 251q0 105 -18.5 138.5t-59.5 33.5q-27 0 -69 -14q-40 -13 -65 -29
v-303q58 -18 116 -18q53 0 74.5 43t21.5 149z" />
    <glyph glyph-name="ydieresis" unicode="&#xff;" horiz-adv-x="405" 
d="M208 108h6q11 41 44 152l63 214q4 13 16 13h54q11 0 7 -15l-199 -634q-5 -14 -20 -14h-46q-13 0 -9 16l52 160l-153 471q-6 16 8 16h53q11 0 16 -14l72 -231q26 -84 36 -134zM332 609q0 -45 -40 -45q-23 0 -31 11t-8 34q0 42 39 42q22 0 31 -10t9 -32zM173 609
q0 -45 -39 -45q-24 0 -32.5 11t-8.5 34q0 42 41 42q39 0 39 -42z" />
    <glyph glyph-name="Amacron" unicode="&#x100;" horiz-adv-x="477" 
d="M384 13l-42 165h-204l-42 -162q-4 -16 -21 -16h-52q-14 0 -8 16l182 631q5 15 19 15h56q14 0 19 -15l179 -633q5 -14 -8 -14h-61q-13 0 -17 13zM244 568h-3q-23 -93 -33 -129l-52 -192h169l-49 189q-26 104 -32 132zM366 784v-38q0 -13 -17 -13h-218q-16 0 -16 13v38
q0 14 16 14h218q17 0 17 -14z" />
    <glyph glyph-name="amacron" unicode="&#x101;" horiz-adv-x="449" 
d="M314 119v114h-115q-89 0 -89 -100q0 -40 13.5 -55t48.5 -15q59 0 142 56zM156 -8q-64 0 -93.5 34t-29.5 104q0 87 40.5 127.5t129.5 40.5h111v28q0 54 -24 77.5t-77 23.5q-43 0 -120 -9q-17 -3 -20 9l-6 28q-3 15 16 22q58 20 143 20q100 0 131 -46q33 -47 33 -138v-214
v-6q0 -24 4 -29.5t25 -7.5q17 -2 17 -13v-25q0 -16 -20 -19q-18 -3 -33 -3q-33 0 -48.5 12t-18.5 40l-2 1q-82 -57 -158 -57zM342 623v-38q0 -12 -14 -12h-222q-14 0 -14 12v38q0 13 14 13h222q14 0 14 -13z" />
    <glyph glyph-name="Abreve" unicode="&#x102;" horiz-adv-x="477" 
d="M384 13l-42 165h-204l-42 -162q-4 -16 -21 -16h-52q-14 0 -8 16l182 631q5 15 19 15h56q14 0 19 -15l179 -633q5 -14 -8 -14h-61q-13 0 -17 13zM244 568h-3q-23 -93 -33 -129l-52 -192h169l-49 189q-26 104 -32 132zM238 710q-40 0 -76.5 26.5t-56.5 71.5q-7 13 2 22
l19 17q8 7 18 -3q40 -47 57 -58t39 -11q27 0 45 18l12 12q8 11 31 37q10 10 20 3l21 -15q7 -4 3 -15q-51 -105 -134 -105z" />
    <glyph glyph-name="abreve" unicode="&#x103;" horiz-adv-x="449" 
d="M314 119v114h-115q-89 0 -89 -100q0 -40 13.5 -55t48.5 -15q59 0 142 56zM156 -8q-64 0 -93.5 34t-29.5 104q0 87 40.5 127.5t129.5 40.5h111v28q0 54 -24 77.5t-77 23.5q-43 0 -120 -9q-17 -3 -20 9l-6 28q-3 15 16 22q58 20 143 20q100 0 131 -46q33 -47 33 -138v-214
v-6q0 -24 4 -29.5t25 -7.5q17 -2 17 -13v-25q0 -16 -20 -19q-18 -3 -33 -3q-33 0 -48.5 12t-18.5 40l-2 1q-82 -57 -158 -57zM222 543q-40 0 -76 25.5t-57 70.5q-7 13 1 21l18 16q11 9 21 -3l33 -41q30 -30 62 -30q19 0 42 18q7 5 20 22q12 18 26 31q10 10 20 3l18 -14
q10 -7 2 -22q-21 -44 -57 -70.5t-73 -26.5z" />
    <glyph glyph-name="Aogonek" unicode="&#x104;" horiz-adv-x="477" 
d="M396 -98q0 -42 41 -42q21 0 45 7q13 2 14 -4l7 -24q1 -7 -6 -11q-30 -16 -62 -18q-48 -3 -74 19.5t-26 64.5q0 56 51 113l-2 6l-42 165h-204l-42 -162q-4 -16 -21 -16h-52q-14 0 -8 16l182 631q5 15 19 15h56q14 0 19 -15l179 -633q5 -14 -8 -14h-29q-37 -52 -37 -98z
M244 568h-3q-23 -93 -33 -129l-52 -192h169l-49 189q-26 104 -32 132z" />
    <glyph glyph-name="aogonek" unicode="&#x105;" horiz-adv-x="449" 
d="M156 -8q-64 0 -93.5 34t-29.5 104q0 87 40.5 127.5t129.5 40.5h111v28q0 54 -24 77.5t-77 23.5q-43 0 -120 -9q-17 -3 -20 9l-6 28q-3 15 16 22q58 20 143 20q100 0 131 -46q33 -47 33 -138v-214v-6q0 -24 4 -29.5t25 -7.5q17 -2 17 -13v-25q0 -12 -9 -16
q-38 -53 -38 -100q0 -42 41 -42q21 0 45 7q13 2 14 -4l7 -24q1 -7 -6 -11q-30 -16 -62 -18q-48 -3 -74 19.5t-26 64.5q0 52 42 103q-50 5 -54 51l-2 1q-82 -57 -158 -57zM314 119v114h-115q-89 0 -89 -100q0 -40 13.5 -55t48.5 -15q59 0 142 56z" />
    <glyph glyph-name="Cacute" unicode="&#x106;" horiz-adv-x="468" 
d="M278 594q-73 0 -107 -53q-15 -23 -24 -60q-13 -60 -13 -157q0 -109 25 -177q31 -79 119 -79q53 0 146 11q16 1 20 -12l5 -26q3 -17 -11 -22q-66 -27 -164 -27q-132 0 -181 102q-42 88 -42 230q0 146 41 237q49 108 186 108q96 0 159 -25q16 -7 13 -22l-6 -28
q-4 -12 -19 -11q-85 11 -147 11zM358 848l28 -40q6 -10 -6 -17l-120 -75q-10 -6 -18 3l-18 23q-6 8 4 15l110 94q11 11 20 -3z" />
    <glyph glyph-name="cacute" unicode="&#x107;" horiz-adv-x="370" 
d="M210 -8q-87 0 -129 47q-19 24 -29 56q-18 56 -18 149q0 105 30 173q37 80 146 80q78 0 138 -23q13 -4 10 -21l-4 -23q-1 -13 -26 -11q-90 9 -115 9q-56 0 -77 -39t-21 -141q0 -108 21 -148q22 -40 77 -40q60 0 123 10q21 3 22 -13l4 -21q3 -13 -11 -21q-51 -23 -141 -23z
M299 678l-81 -132q-5 -8 -15 -3l-29 10q-8 3 -3 14l62 143q4 9 17 3l46 -20q11 -5 3 -15z" />
    <glyph glyph-name="Ccircumflex" unicode="&#x108;" horiz-adv-x="468" 
d="M278 594q-73 0 -107 -53q-15 -23 -24 -60q-13 -60 -13 -157q0 -109 25 -177q31 -79 119 -79q53 0 146 11q16 1 20 -12l5 -26q3 -17 -11 -22q-66 -27 -164 -27q-132 0 -181 102q-42 88 -42 230q0 146 41 237q49 108 186 108q96 0 159 -25q16 -7 13 -22l-6 -28
q-4 -12 -19 -11q-85 11 -147 11zM419 729l-19 -19q-9 -9 -24 3l-95 77l-98 -82q-12 -10 -21 -1l-18 18q-7 7 0 16l90 98q10 10 27 10h41q18 0 27 -10l87 -93q9 -11 3 -17z" />
    <glyph glyph-name="ccircumflex" unicode="&#x109;" horiz-adv-x="370" 
d="M210 -8q-87 0 -129 47q-19 24 -29 56q-18 56 -18 149q0 105 30 173q37 80 146 80q78 0 138 -23q13 -4 10 -21l-4 -23q-1 -13 -26 -11q-90 9 -115 9q-56 0 -77 -39t-21 -141q0 -108 21 -148q22 -40 77 -40q60 0 123 10q21 3 22 -13l4 -21q3 -13 -11 -21q-51 -23 -141 -23z
M101 541l-20 16q-8 8 -1 15l82 119q11 11 27 11h40q22 0 29 -10l79 -119q8 -11 1 -16l-21 -16q-11 -8 -16 -1l-92 104l-90 -102q-7 -9 -18 -1z" />
    <glyph glyph-name="Cdotaccent" unicode="&#x10a;" horiz-adv-x="468" 
d="M278 594q-73 0 -107 -53q-15 -23 -24 -60q-13 -60 -13 -157q0 -109 25 -177q31 -79 119 -79q53 0 146 11q16 1 20 -12l5 -26q3 -17 -11 -22q-66 -27 -164 -27q-132 0 -181 102q-42 88 -42 230q0 146 41 237q49 108 186 108q96 0 159 -25q16 -7 13 -22l-6 -28
q-4 -12 -19 -11q-85 11 -147 11zM320 779q0 -45 -40 -45q-41 0 -41 45q0 42 41 42q40 0 40 -42z" />
    <glyph glyph-name="cdotaccent" unicode="&#x10b;" horiz-adv-x="370" 
d="M210 -8q-87 0 -129 47q-19 24 -29 56q-18 56 -18 149q0 105 30 173q37 80 146 80q78 0 138 -23q13 -4 10 -21l-4 -23q-1 -13 -26 -11q-90 9 -115 9q-56 0 -77 -39t-21 -141q0 -108 21 -148q22 -40 77 -40q60 0 123 10q21 3 22 -13l4 -21q3 -13 -11 -21q-51 -23 -141 -23z
M254 609q0 -45 -40 -45q-41 0 -41 45q0 42 41 42q40 0 40 -42z" />
    <glyph glyph-name="Ccaron" unicode="&#x10c;" horiz-adv-x="468" 
d="M278 594q-73 0 -107 -53q-15 -23 -24 -60q-13 -60 -13 -157q0 -109 25 -177q31 -79 119 -79q53 0 146 11q16 1 20 -12l5 -26q3 -17 -11 -22q-66 -27 -164 -27q-132 0 -181 102q-42 88 -42 230q0 146 41 237q49 108 186 108q96 0 159 -25q16 -7 13 -22l-6 -28
q-4 -12 -19 -11q-85 11 -147 11zM393 850l17 -18q8 -9 -1 -18l-87 -93q-9 -10 -27 -10h-41q-17 0 -27 10l-89 97q-6 8 0 15l16 20q9 11 21 -1l99 -85l95 80q15 12 24 3z" />
    <glyph glyph-name="ccaron" unicode="&#x10d;" horiz-adv-x="370" 
d="M210 -8q-87 0 -129 47q-19 24 -29 56q-18 56 -18 149q0 105 30 173q37 80 146 80q78 0 138 -23q13 -4 10 -21l-4 -23q-1 -13 -26 -11q-90 9 -115 9q-56 0 -77 -39t-21 -141q0 -108 21 -148q22 -40 77 -40q60 0 123 10q21 3 22 -13l4 -21q3 -13 -11 -21q-51 -23 -141 -23z
M311 696l21 -16q6 -5 -1 -16l-79 -119q-7 -10 -29 -10h-40q-16 0 -27 11l-82 119q-7 7 1 15l20 16q11 8 18 -1l90 -102l92 104q5 7 16 -1z" />
    <glyph glyph-name="Dcaron" unicode="&#x10e;" horiz-adv-x="537" 
d="M486 333q0 -148 -48 -235q-54 -98 -210 -98h-147q-21 0 -21 17v629q0 16 18 16h151q154 0 209 -97q48 -85 48 -232zM405 325q0 162 -53 217q-44 49 -122 49h-92v-519h84q75 0 124 42q59 50 59 211zM363 850l17 -18q8 -9 -1 -18l-87 -93q-9 -10 -27 -10h-41q-17 0 -27 10
l-89 97q-6 8 0 15l16 20q9 11 21 -1l99 -85l95 80q15 12 24 3z" />
    <glyph glyph-name="dcaron" unicode="&#x10f;" horiz-adv-x="531" 
d="M321 474l3 3v209q0 19 18 19h40q10 0 13.5 -4t3.5 -15v-669q0 -17 -17 -17h-41q-17 0 -17 17v24l-3 2q-76 -50 -142 -50q-80 0 -113 57.5t-33 185.5q0 136 39 198t135 62q60 0 114 -22zM111 236q0 -105 18.5 -138.5t59.5 -33.5q27 0 69 14q40 13 65 29v303
q-59 18 -116 18q-53 0 -74.5 -43t-21.5 -149zM548 657q0 -84 -69 -135q-13 -10 -19 -3l-12 14q-6 7 1 14q30 37 30 70q0 21 -21 57q-7 13 4 23l33 27q16 12 26 -1q27 -27 27 -66z" />
    <glyph glyph-name="Dcroat" unicode="&#x110;" horiz-adv-x="537" 
d="M486 333q0 -148 -48 -235q-54 -98 -210 -98h-147q-21 0 -21 17v288h-42q-14 0 -14 12v38q0 13 14 13h42v278q0 16 18 16h151q154 0 209 -97q48 -85 48 -232zM254 355v-38q0 -12 -14 -12h-102v-233h84q75 0 124 42q59 50 59 211q0 162 -53 217q-44 49 -122 49h-92v-223
h102q14 0 14 -13z" />
    <glyph glyph-name="dslash" unicode="&#x111;" horiz-adv-x="444" 
d="M321 474l3 3v75h-122q-14 0 -14 12v36q0 13 14 13h122v73q0 19 18 19h40q10 0 13.5 -4t3.5 -15v-73h47q14 0 14 -13v-36q0 -12 -14 -12h-47v-535q0 -17 -17 -17h-41q-17 0 -17 17v24l-3 2q-76 -50 -142 -50q-80 0 -113 57.5t-33 185.5q0 136 39 198t135 62q60 0 114 -22z
M111 236q0 -105 18.5 -138.5t59.5 -33.5q27 0 69 14q40 13 65 29v303q-59 18 -116 18q-53 0 -74.5 -43t-21.5 -149z" />
    <glyph glyph-name="Emacron" unicode="&#x112;" horiz-adv-x="439" 
d="M409 54v-38q0 -16 -17 -16h-317q-18 0 -18 16v630q0 17 18 17h306q17 0 17 -16v-39q0 -17 -18 -17h-245v-206h219q17 0 17 -16v-38q0 -16 -17 -16h-219v-244h258q16 0 16 -17zM358 784v-38q0 -13 -17 -13h-218q-16 0 -16 13v38q0 14 16 14h218q17 0 17 -14z" />
    <glyph glyph-name="emacron" unicode="&#x113;" horiz-adv-x="420" 
d="M215 430q-51 0 -75 -35.5t-26 -112.5h204q-1 64 -20 102q-19 46 -83 46zM218 -9q-92 0 -135 50q-19 22 -31 57q-17 53 -17 145q0 78 16 130q32 119 166 124q108 0 146 -71q31 -58 33 -150q2 -57 -43 -57h-239q1 -86 26 -121t83 -35q48 0 122 10q19 3 23 -13l4 -22
q3 -14 -11 -20q-65 -27 -143 -27zM344 623v-38q0 -12 -14 -12h-222q-14 0 -14 12v38q0 13 14 13h222q14 0 14 -13z" />
    <glyph glyph-name="Ebreve" unicode="&#x114;" horiz-adv-x="439" 
d="M409 54v-38q0 -16 -17 -16h-317q-18 0 -18 16v630q0 17 18 17h306q17 0 17 -16v-39q0 -17 -18 -17h-245v-206h219q17 0 17 -16v-38q0 -16 -17 -16h-219v-244h258q16 0 16 -17zM228 708q-40 0 -76.5 26.5t-56.5 71.5q-7 13 2 22l19 17q8 7 18 -3q40 -47 57 -58t39 -11
q27 0 45 18l12 12q8 11 31 37q10 10 20 3l21 -15q7 -4 3 -15q-51 -105 -134 -105z" />
    <glyph glyph-name="ebreve" unicode="&#x115;" horiz-adv-x="420" 
d="M215 430q-51 0 -75 -35.5t-26 -112.5h204q-1 64 -20 102q-19 46 -83 46zM218 -9q-92 0 -135 50q-19 22 -31 57q-17 53 -17 145q0 78 16 130q32 119 166 124q108 0 146 -71q31 -58 33 -150q2 -57 -43 -57h-239q1 -86 26 -121t83 -35q48 0 122 10q19 3 23 -13l4 -22
q3 -14 -11 -20q-65 -27 -143 -27zM216 543q-40 0 -76 25.5t-57 70.5q-7 13 1 21l18 16q10 9 21 -3l33 -41q30 -30 62 -30q19 0 42 18q7 5 20 22q13 18 26 31q10 10 20 3l18 -14q10 -7 2 -22q-21 -44 -57 -70.5t-73 -26.5z" />
    <glyph glyph-name="Edotaccent" unicode="&#x116;" horiz-adv-x="439" 
d="M409 54v-38q0 -16 -17 -16h-317q-18 0 -18 16v630q0 17 18 17h306q17 0 17 -16v-39q0 -17 -18 -17h-245v-206h219q17 0 17 -16v-38q0 -16 -17 -16h-219v-244h258q16 0 16 -17zM268 759q0 -45 -40 -45q-41 0 -41 45q0 42 41 42q40 0 40 -42z" />
    <glyph glyph-name="edotaccent" unicode="&#x117;" horiz-adv-x="420" 
d="M215 430q-51 0 -75 -35.5t-26 -112.5h204q-1 64 -20 102q-19 46 -83 46zM218 -9q-92 0 -135 50q-19 22 -31 57q-17 53 -17 145q0 78 16 130q32 119 166 124q108 0 146 -71q31 -58 33 -150q2 -57 -43 -57h-239q1 -86 26 -121t83 -35q48 0 122 10q19 3 23 -13l4 -22
q3 -14 -11 -20q-65 -27 -143 -27zM255 609q0 -45 -40 -45q-41 0 -41 45q0 42 41 42q40 0 40 -42z" />
    <glyph glyph-name="Eogonek" unicode="&#x118;" horiz-adv-x="439" 
d="M360 -98q0 -42 41 -42q21 0 45 7q13 2 14 -4l7 -24q1 -7 -6 -11q-30 -16 -62 -18q-48 -3 -74 19.5t-26 64.5q0 54 45 106h-269q-18 0 -18 16v630q0 17 18 17h306q17 0 17 -16v-39q0 -17 -18 -17h-245v-206h219q17 0 17 -16v-38q0 -16 -17 -16h-219v-244h258q16 0 16 -17
v-38q0 -14 -12 -16q-37 -52 -37 -98z" />
    <glyph glyph-name="eogonek" unicode="&#x119;" horiz-adv-x="420" 
d="M295 -93q0 -42 41 -42q21 0 45 7q13 2 14 -4l7 -24q1 -7 -6 -11q-30 -16 -62 -18q-48 -3 -74 19.5t-26 64.5q0 48 37 97q-35 -5 -53 -5q-92 0 -135 50q-19 22 -31 57q-17 53 -17 145q0 78 16 130q32 119 166 124q108 0 146 -71q31 -58 33 -150q2 -57 -43 -57h-239
q1 -86 26 -121t83 -35q48 0 122 10q19 3 23 -13l4 -22q3 -14 -11 -20q-17 -7 -27 -10q-39 -53 -39 -101zM215 430q-51 0 -75 -35.5t-26 -112.5h204q-1 64 -20 102q-19 46 -83 46z" />
    <glyph glyph-name="Ecaron" unicode="&#x11a;" horiz-adv-x="439" 
d="M409 54v-38q0 -16 -17 -16h-317q-18 0 -18 16v630q0 17 18 17h306q17 0 17 -16v-39q0 -17 -18 -17h-245v-206h219q17 0 17 -16v-38q0 -16 -17 -16h-219v-244h258q16 0 16 -17zM343 850l17 -18q8 -9 -1 -18l-87 -93q-9 -10 -27 -10h-41q-17 0 -27 10l-89 97q-6 8 0 15
l16 20q9 11 21 -1l99 -85l95 80q15 12 24 3z" />
    <glyph glyph-name="ecaron" unicode="&#x11b;" horiz-adv-x="420" 
d="M215 430q-51 0 -75 -35.5t-26 -112.5h204q-1 64 -20 102q-19 46 -83 46zM218 -9q-92 0 -135 50q-19 22 -31 57q-17 53 -17 145q0 78 16 130q32 119 166 124q108 0 146 -71q31 -58 33 -150q2 -57 -43 -57h-239q1 -86 26 -121t83 -35q48 0 122 10q19 3 23 -13l4 -22
q3 -14 -11 -20q-65 -27 -143 -27zM329 696l21 -16q6 -5 -1 -16l-79 -119q-7 -10 -29 -10h-40q-16 0 -27 11l-82 119q-7 7 1 15l20 16q11 8 18 -1l90 -102l92 104q5 7 16 -1z" />
    <glyph glyph-name="Gcircumflex" unicode="&#x11c;" horiz-adv-x="525" 
d="M279 670q33 0 79 -7q50 -7 78 -18q19 -7 16 -20l-6 -28q-1 -6 -2.5 -8.5t-6 -4.5t-12.5 -1q-92 13 -146 13q-90 0 -119 -83q-24 -69 -24 -189q0 -109 27 -179q33 -80 121 -80q70 0 104 15v202h-73q-13 0 -17 3.5t-4 14.5v39q0 17 20 17h133q11 0 17 -5.5t6 -12.5v-285
q0 -26 -28 -36q-72 -25 -153 -25q-123 0 -180.5 84t-57.5 249q0 144 42 237q50 108 186 108zM423 729l-19 -19q-9 -9 -24 3l-95 77l-98 -82q-12 -10 -21 -1l-18 18q-7 7 0 16l90 98q10 10 27 10h41q18 0 27 -10l87 -93q9 -11 3 -17z" />
    <glyph glyph-name="gcircumflex" unicode="&#x11d;" horiz-adv-x="445" 
d="M234 -184q-90 0 -145 23q-14 6 -11 21l4 23q2 14 22 11q64 -9 125 -9q56 0 78 21.5t22 75.5v36q-65 -27 -118 -27q-102 0 -138 62t-36 188q0 131 43.5 193.5t142.5 62.5q88 0 157 -24q26 -8 26 -41v-433q0 -87 -28 -131q-33 -52 -144 -52zM116 250q0 -105 21 -147t72 -42
q56 0 119 22v331q-63 10 -101 10q-54 0 -83 -35q-28 -34 -28 -139zM131 541l-20 16q-8 8 -1 15l82 119q11 11 27 11h40q22 0 29 -10l79 -119q8 -11 1 -16l-21 -16q-11 -8 -16 -1l-92 104l-90 -102q-7 -9 -18 -1z" />
    <glyph glyph-name="Gbreve" unicode="&#x11e;" horiz-adv-x="525" 
d="M279 670q33 0 79 -7q50 -7 78 -18q19 -7 16 -20l-6 -28q-1 -6 -2.5 -8.5t-6 -4.5t-12.5 -1q-92 13 -146 13q-90 0 -119 -83q-24 -69 -24 -189q0 -109 27 -179q33 -80 121 -80q70 0 104 15v202h-73q-13 0 -17 3.5t-4 14.5v39q0 17 20 17h133q11 0 17 -5.5t6 -12.5v-285
q0 -26 -28 -36q-72 -25 -153 -25q-123 0 -180.5 84t-57.5 249q0 144 42 237q50 108 186 108zM284 708q-40 0 -76.5 26.5t-56.5 71.5q-7 13 2 22l19 17q8 7 18 -3q40 -47 57 -58t39 -11q27 0 45 18l12 12q8 11 31 37q10 10 20 3l21 -15q7 -4 3 -15q-51 -105 -134 -105z" />
    <glyph glyph-name="gbreve" unicode="&#x11f;" horiz-adv-x="445" 
d="M234 -184q-90 0 -145 23q-14 6 -11 21l4 23q2 14 22 11q64 -9 125 -9q56 0 78 21.5t22 75.5v36q-65 -27 -118 -27q-102 0 -138 62t-36 188q0 131 43.5 193.5t142.5 62.5q88 0 157 -24q26 -8 26 -41v-433q0 -87 -28 -131q-33 -52 -144 -52zM116 250q0 -105 21 -147t72 -42
q56 0 119 22v331q-63 10 -101 10q-54 0 -83 -35q-28 -34 -28 -139zM236 543q-40 0 -76 25.5t-57 70.5q-7 13 1 21l18 16q11 9 21 -3l33 -41q30 -30 62 -30q19 0 42 18q7 5 20 22q12 18 26 31q10 10 20 3l18 -14q10 -7 2 -22q-21 -44 -57 -70.5t-73 -26.5z" />
    <glyph glyph-name="Gdotaccent" unicode="&#x120;" horiz-adv-x="525" 
d="M279 670q33 0 79 -7q50 -7 78 -18q19 -7 16 -20l-6 -28q-1 -6 -2.5 -8.5t-6 -4.5t-12.5 -1q-92 13 -146 13q-90 0 -119 -83q-24 -69 -24 -189q0 -109 27 -179q33 -80 121 -80q70 0 104 15v202h-73q-13 0 -17 3.5t-4 14.5v39q0 17 20 17h133q11 0 17 -5.5t6 -12.5v-285
q0 -26 -28 -36q-72 -25 -153 -25q-123 0 -180.5 84t-57.5 249q0 144 42 237q50 108 186 108zM322 759q0 -45 -40 -45q-41 0 -41 45q0 42 41 42q40 0 40 -42z" />
    <glyph glyph-name="gdotaccent" unicode="&#x121;" horiz-adv-x="445" 
d="M234 -184q-90 0 -145 23q-14 6 -11 21l4 23q2 14 22 11q64 -9 125 -9q56 0 78 21.5t22 75.5v36q-65 -27 -118 -27q-102 0 -138 62t-36 188q0 131 43.5 193.5t142.5 62.5q88 0 157 -24q26 -8 26 -41v-433q0 -87 -28 -131q-33 -52 -144 -52zM116 250q0 -105 21 -147t72 -42
q56 0 119 22v331q-63 10 -101 10q-54 0 -83 -35q-28 -34 -28 -139zM275 609q0 -45 -40 -45q-41 0 -41 45q0 42 41 42q40 0 40 -42z" />
    <glyph glyph-name="Gcommaaccent" unicode="&#x122;" horiz-adv-x="525" 
d="M279 670q33 0 79 -7q50 -7 78 -18q19 -7 16 -20l-6 -28q-1 -6 -2.5 -8.5t-6 -4.5t-12.5 -1q-92 13 -146 13q-90 0 -119 -83q-24 -69 -24 -189q0 -109 27 -179q33 -80 121 -80q70 0 104 15v202h-73q-13 0 -17 3.5t-4 14.5v39q0 17 20 17h133q11 0 17 -5.5t6 -12.5v-285
q0 -26 -28 -36q-72 -25 -153 -25q-123 0 -180.5 84t-57.5 249q0 144 42 237q50 108 186 108zM326 -111q0 -84 -69 -135q-13 -10 -19 -3l-12 14q-6 7 1 14q30 37 30 70q0 21 -21 57q-7 13 4 23l33 27q16 12 26 -1q27 -27 27 -66z" />
    <glyph glyph-name="gcommaaccent" unicode="&#x123;" horiz-adv-x="445" 
d="M200 618q0 84 69 135q13 10 19 3l12 -14q6 -6 -1 -14q-30 -38 -30 -70q0 -21 21 -57q7 -13 -4 -23l-33 -27q-16 -12 -26 1q-27 27 -27 66zM234 -184q-90 0 -145 23q-14 6 -11 21l4 23q2 14 22 11q64 -9 125 -9q56 0 78 21.5t22 75.5v36q-65 -27 -118 -27q-102 0 -138 62
t-36 188q0 131 43.5 193.5t142.5 62.5q88 0 157 -24q26 -8 26 -41v-433q0 -87 -28 -131q-33 -52 -144 -52zM116 250q0 -105 21 -147t72 -42q56 0 119 22v331q-63 10 -101 10q-54 0 -83 -35q-28 -34 -28 -139z" />
    <glyph glyph-name="Hcircumflex" unicode="&#x124;" horiz-adv-x="518" 
d="M460 645v-628q0 -17 -16 -17h-43q-18 0 -18 17v298h-248v-298q0 -17 -16 -17h-43q-18 0 -18 17v628q0 18 18 18h43q16 0 16 -18v-258h248v258q0 18 18 18h43q16 0 16 -18zM398 729l-19 -19q-9 -9 -24 3l-95 77l-98 -82q-12 -10 -21 -1l-18 18q-7 7 0 16l90 98
q10 10 27 10h41q18 0 27 -10l87 -93q9 -11 3 -17z" />
    <glyph glyph-name="hcircumflex" unicode="&#x125;" horiz-adv-x="445" 
d="M124 688v-242l5 -2q76 52 143 52q88 0 112 -53q21 -44 21 -130v-296q0 -17 -18 -17h-42q-17 0 -17 17l1 300q0 64 -14.5 86.5t-52.5 22.5q-49 0 -138 -47v-362q0 -17 -18 -17h-41q-16 0 -16 17v671q0 17 16 17h41q18 0 18 -17zM229 744l-19 -19q-9 -9 -24 3l-95 77
l-98 -82q-12 -10 -21 -1l-18 18q-7 7 0 16l90 98q10 10 27 10h41q18 0 27 -10l87 -93q9 -11 3 -17z" />
    <glyph glyph-name="Hbar" unicode="&#x126;" horiz-adv-x="518" 
d="M460 488v-471q0 -17 -16 -17h-43q-18 0 -18 17v298h-248v-298q0 -17 -16 -17h-43q-18 0 -18 17v471h-41q-14 0 -14 14v28q0 15 15 15h40v100q0 18 18 18h43q16 0 16 -18v-100h248v100q0 18 18 18h43q16 0 16 -18v-100h41q15 0 15 -15v-28q0 -14 -14 -14h-42zM135 488
v-101h248v101h-248z" />
    <glyph glyph-name="hbar" unicode="&#x127;" horiz-adv-x="445" 
d="M117 545v-99l5 -2q76 52 143 52q88 0 112 -53q21 -44 21 -130v-296q0 -17 -18 -17h-42q-17 0 -17 17l1 300q0 64 -14.5 86.5t-52.5 22.5q-49 0 -138 -47v-362q0 -17 -18 -17h-41q-16 0 -16 17v528h-47q-17 0 -17 17v26q0 18 17 18h47v82q0 17 16 17h41q18 0 18 -17v-82
h159q17 0 17 -17v-27q0 -17 -17 -17h-159z" />
    <glyph glyph-name="Itilde" unicode="&#x128;" horiz-adv-x="221" 
d="M153 645v-628q0 -17 -17 -17h-44q-18 0 -18 17v628q0 18 18 18h44q17 0 17 -18zM179 723q-24 0 -71 26q-43 23 -60 23q-23 0 -41 -37q-3 -7 -6 -8t-14 3l-18 8q-9 4 -6 17q14 41 37 61t50 20t75 -27q43 -23 54 -23q19 0 36 33q10 16 22 11l18 -7q11 -5 8 -17
q-23 -83 -84 -83z" />
    <glyph glyph-name="itilde" unicode="&#x129;" horiz-adv-x="223" 
d="M180 553q-24 0 -71 26q-43 23 -60 23q-22 0 -41 -37q-3 -7 -6 -8t-14 3l-18 8q-9 4 -6 17q14 41 37 61t50 20t75 -27q43 -23 54 -23q20 0 36 33q10 16 22 11l18 -7q11 -5 8 -17q-23 -83 -84 -83zM152 470v-453q0 -17 -16 -17h-41q-18 0 -18 17v453q0 17 18 17h41
q16 0 16 -17z" />
    <glyph glyph-name="Imacron" unicode="&#x12a;" horiz-adv-x="221" 
d="M150 645v-628q0 -17 -17 -17h-44q-18 0 -18 17v628q0 18 18 18h44q17 0 17 -18zM236 784v-38q0 -13 -17 -13h-218q-16 0 -16 13v38q0 14 16 14h218q17 0 17 -14z" />
    <glyph glyph-name="imacron" unicode="&#x12b;" horiz-adv-x="223" 
d="M149 470v-453q0 -17 -16 -17h-41q-18 0 -18 17v453q0 17 18 17h41q16 0 16 -17zM236 623v-38q0 -12 -14 -12h-222q-14 0 -14 12v38q0 13 14 13h222q14 0 14 -13z" />
    <glyph glyph-name="Ibreve" unicode="&#x12c;" horiz-adv-x="221" 
d="M119 708q-40 0 -76.5 26.5t-56.5 71.5q-7 13 2 22l19 17q7 7 18 -3q40 -47 57 -58t39 -11q27 0 45 18l12 12q8 11 31 37q10 10 20 3l21 -15q8 -4 3 -15q-51 -105 -134 -105zM157 645v-628q0 -17 -17 -17h-44q-18 0 -18 17v628q0 18 18 18h44q17 0 17 -18z" />
    <glyph glyph-name="ibreve" unicode="&#x12d;" horiz-adv-x="223" 
d="M120 549q-40 0 -76 25.5t-57 70.5q-7 13 1 21l18 16q10 9 21 -3l33 -41q30 -30 62 -30q19 0 42 18q7 5 20 22q12 17 26 31q10 10 20 3l18 -14q10 -7 2 -22q-21 -44 -57 -70.5t-73 -26.5zM156 470v-453q0 -17 -16 -17h-41q-18 0 -18 17v453q0 17 18 17h41q16 0 16 -17z
" />
    <glyph glyph-name="Iogonek" unicode="&#x12e;" horiz-adv-x="221" 
d="M79 -98q0 -42 41 -42q21 0 45 7q13 2 14 -4l7 -24q1 -7 -6 -11q-30 -16 -62 -18q-48 -3 -74 19.5t-26 64.5q0 61 53 116v635q0 18 18 18h44q17 0 17 -18v-628q0 -17 -17 -17h-17q-37 -52 -37 -98z" />
    <glyph glyph-name="iogonek" unicode="&#x12f;" horiz-adv-x="194" 
d="M66 -98q0 -42 41 -42q21 0 45 7q13 2 14 -4l7 -24q1 -7 -6 -11q-30 -16 -62 -18q-48 -3 -74 19.5t-26 64.5q0 59 55 117v6v453q0 17 18 17h41q16 0 16 -17v-453q0 -17 -16 -17h-16q-37 -52 -37 -98zM55 617q0 43 42 43q25 0 34 -11q9 -10 9 -32t-9 -34q-9 -11 -34 -11
q-42 0 -42 45z" />
    <glyph glyph-name="Idot" unicode="&#x130;" horiz-adv-x="221" 
d="M150 645v-628q0 -17 -17 -17h-44q-18 0 -18 17v628q0 18 18 18h44q17 0 17 -18zM150 779q0 -45 -40 -45q-41 0 -41 45q0 42 41 42q40 0 40 -42z" />
    <glyph glyph-name="dotlessi" unicode="&#x131;" horiz-adv-x="223" 
d="M149 470v-453q0 -17 -16 -17h-41q-18 0 -18 17v453q0 17 18 17h41q16 0 16 -17z" />
    <glyph glyph-name="IJ" unicode="&#x132;" horiz-adv-x="557" 
d="M150 645v-628q0 -17 -17 -17h-44q-18 0 -18 17v628q0 18 18 18h44q17 0 17 -18zM490 645v-485q0 -169 -161 -169q-65 0 -118 21q-19 9 -15 24l7 29q3 13 18 10q64 -9 100 -9q48 0 69 24t21 77v478q0 18 18 18h43q18 0 18 -18z" />
    <glyph glyph-name="ij" unicode="&#x133;" horiz-adv-x="387" 
d="M327 470v-504q0 -77 -28 -120q-31 -54 -145 -49q-18 0 -20 17l-2 23q-1 16 14 19q65 14 85 32t20 76v506q0 17 18 17h40q18 0 18 -17zM246 617q0 43 42 43q25 0 33 -11q9 -10 9 -32t-9 -34q-8 -11 -33 -11q-42 0 -42 45zM55 617q0 43 42 43q25 0 34 -11q9 -10 9 -32
t-9 -34q-9 -11 -34 -11q-42 0 -42 45zM135 470v-453q0 -17 -16 -17h-41q-18 0 -18 17v453q0 17 18 17h41q16 0 16 -17z" />
    <glyph glyph-name="Jcircumflex" unicode="&#x134;" horiz-adv-x="364" 
d="M300 646v-485q0 -169 -161 -169q-66 0 -118 21q-19 9 -15 24l7 29q3 13 18 10q64 -9 100 -9q48 0 69 24t21 77v478q0 18 18 18h43q18 0 18 -18zM404 731l-19 -19q-9 -9 -24 3l-95 77l-98 -82q-12 -10 -21 -1l-18 18q-7 7 0 16l90 98q10 10 27 10h41q18 0 27 -10l87 -93
q9 -11 3 -17z" />
    <glyph glyph-name="jcircumflex" unicode="&#x135;" horiz-adv-x="209" 
d="M148 470v-504q0 -77 -28 -120q-31 -54 -145 -49q-18 0 -20 17l-2 23q-1 16 14 19q65 14 85 32t20 76v506q0 17 18 17h40q18 0 18 -17zM4 541l-20 16q-8 8 -1 15l82 119q11 11 27 11h40q22 0 29 -10l79 -119q8 -11 1 -16l-21 -16q-11 -8 -16 -1l-92 104l-90 -102
q-7 -9 -18 -1z" />
    <glyph glyph-name="Kcommaaccent" unicode="&#x136;" horiz-adv-x="478" 
d="M462 649l-190 -268l194 -367q3 -5 1 -9.5t-9 -4.5h-61q-15 0 -23 14l-152 297l-90 -127v-167q0 -17 -16 -17h-43q-18 0 -18 17v628q0 18 18 18h43q16 0 16 -18v-337l2 -1q32 51 102 151l135 194q8 11 23 11h61q7 0 9 -4.5t-2 -9.5zM275 -109q0 -84 -69 -135
q-13 -10 -19 -3l-12 14q-7 7 1 14q30 37 30 70q0 21 -21 57q-7 13 4 23l33 27q16 12 26 -1q27 -27 27 -66z" />
    <glyph glyph-name="kcommaaccent" unicode="&#x137;" horiz-adv-x="388" 
d="M299 14l-111 210l-63 -89v-118q0 -17 -18 -17h-41q-17 0 -17 17v671q0 17 17 17h41q18 0 18 -17v-438l2 -1l61 92l92 134q10 13 22 13h52q8 0 11 -6t-2 -13l-129 -181l149 -270q4 -6 0.5 -12t-10.5 -6h-51q-15 0 -23 14zM239 -109q0 -84 -69 -135q-13 -10 -19 -3l-12 14
q-7 7 1 14q30 37 30 70q0 21 -21 57q-7 13 4 23l33 27q16 12 26 -1q27 -27 27 -66z" />
    <glyph glyph-name="kgreenlandic" unicode="&#x138;" horiz-adv-x="388" 
d="M299 14l-111 210l-63 -89v-118q0 -17 -18 -17h-41q-17 0 -17 17v453q0 17 17 17h41q18 0 18 -17v-220l2 -1l61 92l92 133q10 13 22 13h52q8 0 11 -5.5t-2 -13.5l-129 -180l149 -270q4 -6 0.5 -12t-10.5 -6h-51q-15 0 -23 14z" />
    <glyph glyph-name="Lacute" unicode="&#x139;" horiz-adv-x="421" 
d="M419 54v-38q0 -16 -16 -16h-320q-18 0 -18 16v629q0 18 17 18h44q16 0 16 -18v-574h260q10 0 13.5 -3.5t3.5 -13.5zM195 848l28 -40q6 -10 -6 -17l-120 -75q-11 -6 -18 3l-18 23q-6 8 4 15l110 94q11 11 20 -3z" />
    <glyph glyph-name="lacute" unicode="&#x13a;" horiz-adv-x="206" 
d="M139 -5q-42 0 -59 20t-17 63v607q0 18 20 18h34q21 0 21 -18v-584q0 -23 7.5 -29.5t31.5 -6.5q17 0 19 -11l4 -31q2 -12 -10 -17q-27 -11 -51 -11zM193 884l28 -40q6 -10 -6 -17l-120 -75q-11 -6 -18 3l-18 23q-6 8 4 15l110 94q11 11 20 -3z" />
    <glyph glyph-name="Lcommaaccent" unicode="&#x13b;" horiz-adv-x="421" 
d="M413 54v-38q0 -16 -16 -16h-320q-18 0 -18 16v629q0 18 17 18h44q16 0 16 -18v-574h260q10 0 13.5 -3.5t3.5 -13.5zM270 -112q0 -84 -69 -135q-13 -10 -19 -3l-12 14q-6 6 1 14q30 37 30 70q0 21 -21 57q-7 13 4 23l33 27q16 12 26 -1q27 -27 27 -66z" />
    <glyph glyph-name="lcommaaccent" unicode="&#x13c;" horiz-adv-x="206" 
d="M139 -5q-42 0 -59 20t-17 63v607q0 18 20 18h34q21 0 21 -18v-584q0 -23 7.5 -29.5t31.5 -6.5q17 0 19 -11l4 -31q2 -12 -10 -17q-27 -11 -51 -11zM162 -111q0 -84 -69 -135q-13 -10 -19 -3l-12 14q-6 7 1 14q30 37 30 70q0 21 -21 57q-7 13 4 23l33 27q16 12 26 -1
q27 -27 27 -66z" />
    <glyph glyph-name="Lcaron" unicode="&#x13d;" horiz-adv-x="421" 
d="M413 54v-38q0 -16 -16 -16h-320q-18 0 -18 16v629q0 18 17 18h44q16 0 16 -18v-574h260q10 0 13.5 -3.5t3.5 -13.5zM369 588q0 -84 -69 -135q-13 -10 -19 -3l-12 14q-7 6 1 14q30 38 30 70q0 21 -21 57q-7 13 4 23l33 27q16 12 26 -1q27 -27 27 -66z" />
    <glyph glyph-name="lcaron" unicode="&#x13e;" horiz-adv-x="290" 
d="M133 -5q-42 0 -59 20t-17 63v607q0 18 20 18h34q21 0 21 -18v-584q0 -23 7.5 -29.5t31.5 -6.5q17 0 19 -11l4 -31q2 -12 -10 -17q-27 -11 -51 -11zM299 637q0 -84 -69 -135q-13 -10 -19 -3l-12 14q-7 7 1 14q30 37 30 70q0 21 -21 57q-7 13 4 23l33 27q16 12 26 -1
q27 -27 27 -66z" />
    <glyph glyph-name="Ldot" unicode="&#x13f;" horiz-adv-x="421" 
d="M413 54v-38q0 -16 -16 -16h-320q-18 0 -18 16v629q0 18 17 18h44q16 0 16 -18v-574h260q10 0 13.5 -3.5t3.5 -13.5zM328 333q0 -45 -40 -45q-41 0 -41 45q0 42 41 42q40 0 40 -42z" />
    <glyph glyph-name="ldot" unicode="&#x140;" horiz-adv-x="275" 
d="M133 -5q-42 0 -59 20t-17 63v607q0 18 20 18h34q21 0 21 -18v-584q0 -23 7.5 -29.5t31.5 -6.5q17 0 19 -11l4 -31q2 -12 -10 -17q-27 -11 -51 -11zM257 350q0 -45 -40 -45q-41 0 -41 45q0 42 41 42q40 0 40 -42z" />
    <glyph glyph-name="Lslash" unicode="&#x141;" horiz-adv-x="421" 
d="M420 54v-38q0 -16 -16 -16h-320q-18 0 -18 16v202l-31 -17q-12 -7 -18 3l-15 27q-7 12 5 18l59 33v363q0 18 17 18h44q16 0 16 -18v-319l104 60q13 7 19 -4l16 -27q6 -11 -6 -17l-133 -76v-191h260q10 0 13.5 -3.5t3.5 -13.5z" />
    <glyph glyph-name="lslash" unicode="&#x142;" horiz-adv-x="206" 
d="M140 -5q-42 0 -59 20t-17 63v196l-35 -19q-12 -7 -18 3l-15 27q-7 12 5 18l63 35v347q0 18 20 18h34q21 0 21 -18v-304l49 28q13 7 19 -4l16 -27q6 -11 -6 -17l-78 -44v-216q0 -23 7.5 -29.5t31.5 -6.5q17 0 19 -11l4 -31q2 -12 -10 -17q-27 -11 -51 -11z" />
    <glyph glyph-name="Nacute" unicode="&#x143;" horiz-adv-x="547" 
d="M410 16l-192 341q-63 113 -81 154h-3v-494q0 -17 -17 -17h-41q-18 0 -18 17v631q0 15 16 15h41q15 0 25 -16l195 -345q45 -82 77 -147h3v490q0 18 17 18h42q16 0 16 -18v-629q0 -16 -16 -16h-38q-16 0 -26 16zM369 848l28 -40q6 -10 -6 -17l-120 -75q-11 -6 -18 3l-18 23
q-6 8 4 15l110 94q11 11 20 -3z" />
    <glyph glyph-name="nacute" unicode="&#x144;" horiz-adv-x="436" 
d="M115 470v-24l5 -2q76 52 143 52q88 0 112 -53q21 -44 21 -130v-296q0 -17 -18 -17h-42q-17 0 -17 17l1 300q0 64 -14.5 86.5t-52.5 22.5q-49 0 -138 -47v-362q0 -17 -18 -17h-41q-16 0 -16 17v453q0 17 16 17h41q18 0 18 -17zM294 678l-81 -132q-5 -8 -15 -3l-29 10
q-8 3 -3 14l62 143q4 9 17 3l46 -20q11 -5 3 -15z" />
    <glyph glyph-name="Ncommaaccent" unicode="&#x145;" horiz-adv-x="547" 
d="M410 16l-192 341q-63 113 -81 154h-3v-494q0 -17 -17 -17h-41q-18 0 -18 17v631q0 15 16 15h41q15 0 25 -16l195 -345q45 -82 77 -147h3v490q0 18 17 18h42q16 0 16 -18v-629q0 -16 -16 -16h-38q-16 0 -26 16zM313 -110q0 -84 -69 -135q-13 -10 -19 -3l-12 14q-7 6 1 14
q30 38 30 70q0 21 -21 57q-7 13 4 23l33 27q16 12 26 -1q27 -27 27 -66z" />
    <glyph glyph-name="ncommaaccent" unicode="&#x146;" horiz-adv-x="436" 
d="M115 470v-24l5 -2q76 52 143 52q88 0 112 -53q21 -44 21 -130v-296q0 -17 -18 -17h-42q-17 0 -17 17l1 300q0 64 -14.5 86.5t-52.5 22.5q-49 0 -138 -47v-362q0 -17 -18 -17h-41q-16 0 -16 17v453q0 17 16 17h41q18 0 18 -17zM251 -109q0 -84 -69 -135q-13 -10 -19 -3
l-12 14q-7 7 1 14q30 37 30 70q0 21 -21 57q-7 13 4 23l33 27q16 12 26 -1q27 -27 27 -66z" />
    <glyph glyph-name="Ncaron" unicode="&#x147;" horiz-adv-x="547" 
d="M410 16l-192 341q-63 113 -81 154h-3v-494q0 -17 -17 -17h-41q-18 0 -18 17v631q0 15 16 15h41q15 0 25 -16l195 -345q45 -82 77 -147h3v490q0 18 17 18h42q16 0 16 -18v-629q0 -16 -16 -16h-38q-16 0 -26 16zM400 850l17 -18q8 -9 -1 -18l-87 -93q-9 -10 -27 -10h-41
q-17 0 -27 10l-89 97q-6 8 0 15l16 20q9 11 21 -1l99 -85l95 80q15 12 24 3z" />
    <glyph glyph-name="ncaron" unicode="&#x148;" horiz-adv-x="436" 
d="M115 470v-24l5 -2q76 52 143 52q88 0 112 -53q21 -44 21 -130v-296q0 -17 -18 -17h-42q-17 0 -17 17l1 300q0 64 -14.5 86.5t-52.5 22.5q-49 0 -138 -47v-362q0 -17 -18 -17h-41q-16 0 -16 17v453q0 17 16 17h41q18 0 18 -17zM323 696l21 -16q6 -5 -1 -16l-79 -119
q-7 -10 -29 -10h-40q-16 0 -27 11l-82 119q-7 7 1 15l20 16q11 8 18 -1l90 -102l92 104q5 7 16 -1z" />
    <glyph glyph-name="napostrophe" unicode="&#x149;" horiz-adv-x="515" 
d="M200 470v-24l5 -2q76 52 143 52q88 0 112 -53q21 -44 21 -130v-296q0 -17 -18 -17h-42q-17 0 -17 17l1 300q0 64 -14.5 86.5t-52.5 22.5q-49 0 -138 -47v-362q0 -17 -18 -17h-41q-16 0 -16 17v453q0 17 16 17h41q18 0 18 -17zM118 626q0 -84 -69 -135q-13 -10 -19 -3
l-12 14q-6 6 1 14q30 38 30 70q0 21 -21 57q-7 13 4 23l33 27q16 12 26 -1q27 -27 27 -66z" />
    <glyph glyph-name="Eng" unicode="&#x14a;" horiz-adv-x="547" 
d="M414 9l-196 348q-63 113 -81 154h-3v-494q0 -17 -17 -17h-41q-18 0 -18 17v631q0 15 16 15h41q15 0 25 -16l195 -345q45 -82 77 -147h3v490q0 18 17 18h42q16 0 16 -18v-705q0 -116 -123 -116q-35 0 -54 10q-9 4 -6 15l6 36q1 12 15 10q51 -4 68.5 7t17.5 47v60z" />
    <glyph glyph-name="eng" unicode="&#x14b;" horiz-adv-x="436" 
d="M115 470v-24l5 -2q76 52 143 52q88 0 112 -53q21 -44 21 -130v-373q0 -116 -123 -116q-35 0 -54 10q-9 4 -6 15l6 36q1 12 15 10q51 -4 68.5 7t17.5 47q-2 62 0 368q0 64 -14.5 86.5t-52.5 22.5q-49 0 -138 -47v-362q0 -17 -18 -17h-41q-16 0 -16 17v453q0 17 16 17h41
q18 0 18 -17z" />
    <glyph glyph-name="Omacron" unicode="&#x14c;" horiz-adv-x="555" 
d="M506 341q0 -50 -3 -86q-7 -106 -32 -154q-54 -115 -196 -110q-140 -5 -194 110q-14 28 -22 74q-11 73 -11 166q0 100 20 175q13 45 37 79q57 76 171 76q115 0 170 -67q24 -27 38 -75q22 -71 22 -188zM426 331q0 141 -34.5 205.5t-116.5 64.5q-77 0 -111 -67t-34 -203
q0 -138 32.5 -203t112.5 -65q82 0 116.5 64.5t34.5 203.5zM402 784v-38q0 -13 -17 -13h-218q-16 0 -16 13v38q0 14 16 14h218q17 0 17 -14z" />
    <glyph glyph-name="omacron" unicode="&#x14d;" horiz-adv-x="439" 
d="M402 252q0 -89 -16 -143q-14 -56 -54.5 -85t-115.5 -32q-94 0 -138 55q-17 23 -28 62q-15 59 -15 143q0 245 181 245q93 0 138 -52q21 -24 31 -57q17 -53 17 -136zM325 245q0 101 -23.5 143t-85.5 42q-59 0 -81.5 -42.5t-22.5 -142.5q0 -101 22.5 -143.5t81.5 -42.5
q62 0 85.5 42t23.5 144zM341 623v-38q0 -12 -14 -12h-222q-14 0 -14 12v38q0 13 14 13h222q14 0 14 -13z" />
    <glyph glyph-name="Obreve" unicode="&#x14e;" horiz-adv-x="555" 
d="M506 341q0 -50 -3 -86q-7 -106 -32 -154q-54 -115 -196 -110q-140 -5 -194 110q-14 28 -22 74q-11 73 -11 166q0 100 20 175q13 45 37 79q57 76 171 76q115 0 170 -67q24 -27 38 -75q22 -71 22 -188zM426 331q0 141 -34.5 205.5t-116.5 64.5q-77 0 -111 -67t-34 -203
q0 -138 32.5 -203t112.5 -65q82 0 116.5 64.5t34.5 203.5zM277 708q-40 0 -76.5 26.5t-56.5 71.5q-7 13 2 22l19 17q7 7 18 -3q40 -47 57 -58t39 -11q27 0 45 18l12 12q8 11 31 37q10 10 20 3l21 -15q8 -4 3 -15q-51 -105 -134 -105z" />
    <glyph glyph-name="obreve" unicode="&#x14f;" horiz-adv-x="439" 
d="M402 252q0 -89 -16 -143q-14 -56 -54.5 -85t-115.5 -32q-94 0 -138 55q-17 23 -28 62q-15 59 -15 143q0 245 181 245q93 0 138 -52q21 -24 31 -57q17 -53 17 -136zM325 245q0 101 -23.5 143t-85.5 42q-59 0 -81.5 -42.5t-22.5 -142.5q0 -101 22.5 -143.5t81.5 -42.5
q62 0 85.5 42t23.5 144zM216 543q-40 0 -76 25.5t-57 70.5q-7 13 1 21l18 16q10 9 21 -3l33 -41q30 -30 62 -30q19 0 42 18q7 5 20 22q13 18 26 31q10 10 20 3l18 -14q10 -7 2 -22q-21 -44 -57 -70.5t-73 -26.5z" />
    <glyph glyph-name="Ohungarumlaut" unicode="&#x150;" horiz-adv-x="555" 
d="M506 341q0 -50 -3 -86q-7 -106 -32 -154q-54 -115 -196 -110q-140 -5 -194 110q-14 28 -22 74q-11 73 -11 166q0 100 20 175q13 45 37 79q57 76 171 76q115 0 170 -67q24 -27 38 -75q22 -71 22 -188zM426 331q0 141 -34.5 205.5t-116.5 64.5q-77 0 -111 -67t-34 -203
q0 -138 32.5 -203t112.5 -65q82 0 116.5 64.5t34.5 203.5zM290 843l28 -40q6 -10 -6 -17l-120 -75q-10 -6 -18 3l-18 23q-6 8 4 15l110 94q11 11 20 -3zM420 843l28 -40q6 -10 -6 -17l-120 -75q-10 -6 -18 3l-18 23q-6 8 4 15l110 94q11 11 20 -3z" />
    <glyph glyph-name="ohungarumlaut" unicode="&#x151;" horiz-adv-x="439" 
d="M402 252q0 -89 -16 -143q-14 -56 -54.5 -85t-115.5 -32q-94 0 -138 55q-17 23 -28 62q-15 59 -15 143q0 245 181 245q93 0 138 -52q21 -24 31 -57q17 -53 17 -136zM325 245q0 101 -23.5 143t-85.5 42q-59 0 -81.5 -42.5t-22.5 -142.5q0 -101 22.5 -143.5t81.5 -42.5
q62 0 85.5 42t23.5 144zM258 677l-81 -132q-5 -7 -15 -3l-29 10q-8 3 -3 14l62 143q4 9 17 3l46 -20q11 -4 3 -15zM366 677l-81 -132q-5 -7 -15 -3l-29 10q-8 3 -3 14l62 143q4 9 17 3l46 -20q11 -4 3 -15z" />
    <glyph glyph-name="OE" unicode="&#x152;" horiz-adv-x="671" 
d="M258 63q27 0 45 6v526q-29 6 -45 6q-81 0 -114 -65t-33 -205q0 -139 32.5 -203.5t114.5 -64.5zM638 0h-310q-33 -9 -70 -9q-128 0 -180 88q-29 51 -39 124q-5 41 -6 68q-1 19 -1 70q0 96 19 169q13 50 36 81q25 35 69.5 57.5t101.5 22.5q31 0 69 -8h300q17 0 17 -16v-39
q0 -17 -18 -17l-245 1v-212h218q17 0 17 -16v-39q0 -16 -17 -16h-218v-237l258 -1q16 0 16 -17v-38q0 -16 -17 -16z" />
    <glyph glyph-name="oe" unicode="&#x153;" horiz-adv-x="710" 
d="M365 68l-7 -1q-40 -75 -142 -75q-94 0 -138 55q-17 23 -28 62q-15 59 -15 143q0 245 181 245q103 0 147 -80l5 -1q39 81 139 81q108 0 146 -71q31 -58 33 -150q2 -57 -43 -57h-239q1 -86 26 -121t83 -35q48 0 122 10q19 3 23 -13l4 -22q3 -14 -11 -20q-65 -27 -143 -27
q-50 0 -87.5 21t-55.5 56zM325 243q-2 103 -25 145t-84 42q-59 0 -81.5 -42.5t-22.5 -142.5q0 -101 22.5 -143.5t81.5 -42.5q61 0 84 41t25 143zM505 430q-51 0 -75 -35.5t-26 -112.5h204q-1 64 -20 102q-19 46 -83 46z" />
    <glyph glyph-name="Racute" unicode="&#x154;" horiz-adv-x="458" 
d="M70 663h168q84 0 135 -48t51 -140q0 -67 -28.5 -117t-85.5 -68l124 -273q1 -1 1 -7q0 -10 -10 -10h-57q-16 0 -22 13l-115 266h-101v-261q0 -18 -17 -18h-43q-17 0 -17 17v630q0 16 17 16zM219 591h-89v-243h87q63 0 94.5 27t31.5 96q0 64 -31.5 92t-92.5 28zM285 848
l28 -40q6 -10 -6 -17l-120 -75q-11 -6 -18 3l-18 23q-6 8 4 15l110 94q11 11 20 -3z" />
    <glyph glyph-name="racute" unicode="&#x155;" horiz-adv-x="285" 
d="M287 480l3 -43q1 -15 -13 -20q-89 -23 -136 -47v-353q0 -17 -17 -17h-43q-16 0 -16 17v453q0 17 16 17h42q18 0 18 -17v-38l2 -2q55 45 127 62q16 4 17 -12zM204 678l-81 -132q-5 -8 -15 -3l-29 10q-8 3 -3 14l62 143q4 9 17 3l46 -20q11 -5 3 -15z" />
    <glyph glyph-name="Rcommaaccent" unicode="&#x156;" horiz-adv-x="458" 
d="M70 663h168q84 0 135 -48t51 -140q0 -67 -28.5 -117t-85.5 -68l124 -273q1 -1 1 -7q0 -10 -10 -10h-57q-16 0 -22 13l-115 266h-101v-261q0 -18 -17 -18h-43q-17 0 -17 17v630q0 16 17 16zM219 591h-89v-243h87q63 0 94.5 27t31.5 96q0 64 -31.5 92t-92.5 28zM266 -105
q0 -84 -69 -135q-13 -10 -19 -3l-12 14q-6 7 1 14q30 37 30 70q0 21 -21 57q-7 13 4 23l33 27q16 12 26 -1q27 -27 27 -66z" />
    <glyph glyph-name="rcommaaccent" unicode="&#x157;" horiz-adv-x="285" 
d="M293 480l3 -43q1 -15 -13 -20q-89 -23 -136 -47v-353q0 -17 -17 -17h-43q-16 0 -16 17v453q0 17 16 17h42q18 0 18 -17v-38l2 -2q55 45 127 62q16 4 17 -12zM129 -125q0 -84 -69 -135q-13 -10 -19 -3l-12 14q-7 7 1 14q30 37 30 70q0 21 -21 57q-7 13 4 23l33 27
q16 12 26 -1q27 -27 27 -66z" />
    <glyph glyph-name="Rcaron" unicode="&#x158;" horiz-adv-x="458" 
d="M70 663h168q84 0 135 -48t51 -140q0 -67 -28.5 -117t-85.5 -68l124 -273q1 -1 1 -7q0 -10 -10 -10h-57q-16 0 -22 13l-115 266h-101v-261q0 -18 -17 -18h-43q-17 0 -17 17v630q0 16 17 16zM219 591h-89v-243h87q63 0 94.5 27t31.5 96q0 64 -31.5 92t-92.5 28zM335 850
l17 -18q8 -9 -1 -18l-87 -93q-9 -10 -27 -10h-41q-17 0 -27 10l-89 97q-6 8 0 15l16 20q9 11 21 -1l99 -85l95 80q15 12 24 3z" />
    <glyph glyph-name="rcaron" unicode="&#x159;" horiz-adv-x="285" 
d="M294 480l3 -43q1 -15 -13 -20q-89 -23 -136 -47v-353q0 -17 -17 -17h-43q-16 0 -16 17v453q0 17 16 17h42q18 0 18 -17v-38l2 -2q55 45 127 62q16 4 17 -12zM261 696l21 -16q6 -5 -1 -16l-79 -119q-7 -10 -29 -10h-40q-16 0 -27 11l-82 119q-7 7 1 15l20 16q11 8 18 -1
l90 -102l92 104q5 7 16 -1z" />
    <glyph glyph-name="Sacute" unicode="&#x15a;" horiz-adv-x="458" 
d="M427 184q0 -98 -54.5 -145.5t-149.5 -47.5q-109 0 -168 28q-19 8 -14 23l6 28q3 14 22 11q117 -14 153 -14q61 0 93.5 27.5t32.5 77.5q0 66 -24 92t-91 39q-83 16 -134 48q-58 36 -58 130q0 91 50 139.5t143 48.5q100 0 158 -26q19 -8 14 -23l-5 -24q-2 -15 -24 -13
q-95 13 -143 13q-60 0 -86.5 -28t-26.5 -84q0 -54 24 -74q27 -19 95 -32t108 -36q79 -40 79 -158zM303 848l28 -40q6 -10 -6 -17l-120 -75q-11 -6 -18 3l-18 23q-6 8 4 15l110 94q11 11 20 -3z" />
    <glyph glyph-name="sacute" unicode="&#x15b;" horiz-adv-x="379" 
d="M352 140q0 -74 -45.5 -111t-121.5 -37q-89 0 -137 23q-15 8 -11 22l4 21q2 9 6.5 11.5t17.5 1.5q86 -10 123 -10q44 0 64.5 17t20.5 54q0 43 -16 59q-17 17 -64 24q-65 12 -106 37q-50 31 -50 102q0 69 41.5 106t116.5 37q81 0 133 -23q11 -6 10 -19l-4 -26
q-1 -13 -26 -10q-85 8 -114 8q-45 0 -62 -16t-17 -55q0 -34 16.5 -46.5t69.5 -21.5q63 -13 102 -38q49 -31 49 -110zM277 678l-81 -132q-4 -8 -15 -3l-29 10q-8 3 -3 14l62 143q4 9 17 3l46 -20q10 -5 3 -15z" />
    <glyph glyph-name="Scircumflex" unicode="&#x15c;" horiz-adv-x="458" 
d="M427 184q0 -98 -54.5 -145.5t-149.5 -47.5q-109 0 -168 28q-19 8 -14 23l6 28q3 14 22 11q117 -14 153 -14q61 0 93.5 27.5t32.5 77.5q0 66 -24 92t-91 39q-83 16 -134 48q-58 36 -58 130q0 91 50 139.5t143 48.5q100 0 158 -26q19 -8 14 -23l-5 -24q-2 -15 -24 -13
q-95 13 -143 13q-60 0 -86.5 -28t-26.5 -84q0 -54 24 -74q27 -19 95 -32t108 -36q79 -40 79 -158zM371 729l-19 -19q-9 -9 -24 3l-95 77l-98 -82q-12 -10 -21 -1l-18 18q-7 7 0 16l90 98q10 10 27 10h41q18 0 27 -10l87 -93q9 -11 3 -17z" />
    <glyph glyph-name="scircumflex" unicode="&#x15d;" horiz-adv-x="379" 
d="M352 140q0 -74 -45.5 -111t-121.5 -37q-89 0 -137 23q-15 8 -11 22l4 21q2 9 6.5 11.5t17.5 1.5q86 -10 123 -10q44 0 64.5 17t20.5 54q0 43 -16 59q-17 17 -64 24q-65 12 -106 37q-50 31 -50 102q0 69 41.5 106t116.5 37q81 0 133 -23q11 -6 10 -19l-4 -26
q-1 -13 -26 -10q-85 8 -114 8q-45 0 -62 -16t-17 -55q0 -34 16.5 -46.5t69.5 -21.5q63 -13 102 -38q49 -31 49 -110zM83 541l-20 16q-8 8 -1 15l82 119q11 11 27 11h40q22 0 29 -10l79 -119q8 -11 1 -16l-21 -16q-11 -8 -16 -1l-92 104l-90 -102q-7 -9 -18 -1z" />
    <glyph glyph-name="Scedilla" unicode="&#x15e;" horiz-adv-x="458" 
d="M246 -111q0 18 -10.5 24t-41.5 8q-21 2 -15 23l15 48q-95 6 -139 27q-19 8 -14 23l6 28q3 14 22 11q117 -14 153 -14q61 0 93.5 27.5t32.5 77.5q0 66 -24 92t-91 39q-83 16 -134 48q-58 36 -58 130q0 91 50 139.5t143 48.5q100 0 158 -26q19 -8 14 -23l-5 -24
q-2 -15 -24 -13q-95 13 -143 13q-60 0 -86.5 -28t-26.5 -84q0 -54 24 -74q27 -19 95 -32t108 -36q79 -40 79 -158q0 -95 -51 -143t-142 -50l-11 -33q43 -2 60.5 -18.5t17.5 -48.5q0 -78 -94 -78q-36 0 -66 11q-6 3 -5 10l5 19q2 8 14 6q30 -5 49 -5q42 0 42 35z" />
    <glyph glyph-name="scedilla" unicode="&#x15f;" horiz-adv-x="379" 
d="M210 -111q0 18 -10.5 24t-41.5 8q-21 2 -15 23l15 49q-74 5 -110 22q-15 8 -11 22l4 21q2 9 6.5 11.5t17.5 1.5q86 -10 123 -10q44 0 64.5 17t20.5 54q0 43 -16 59q-17 17 -64 24q-65 12 -106 37q-50 31 -50 102q0 69 41.5 106t116.5 37q81 0 133 -23q11 -6 10 -19
l-4 -26q-1 -13 -26 -10q-85 8 -114 8q-45 0 -62 -16t-17 -55q0 -34 16.5 -46.5t69.5 -21.5q63 -13 102 -38q49 -31 49 -110q0 -71 -41.5 -107.5t-112.5 -39.5l-11 -35q43 -2 60.5 -18.5t17.5 -48.5q0 -78 -94 -78q-36 0 -66 11q-6 3 -5 10l5 19q2 8 14 6q30 -5 49 -5
q42 0 42 35z" />
    <glyph glyph-name="Scaron" unicode="&#x160;" horiz-adv-x="458" 
d="M427 184q0 -98 -54.5 -145.5t-149.5 -47.5q-109 0 -168 28q-19 8 -14 23l6 28q3 14 22 11q117 -14 153 -14q61 0 93.5 27.5t32.5 77.5q0 66 -24 92t-91 39q-83 16 -134 48q-58 36 -58 130q0 91 50 139.5t143 48.5q100 0 158 -26q19 -8 14 -23l-5 -24q-2 -15 -24 -13
q-95 13 -143 13q-60 0 -86.5 -28t-26.5 -84q0 -54 24 -74q27 -19 95 -32t108 -36q79 -40 79 -158zM342 850l17 -18q8 -9 -1 -18l-87 -93q-9 -10 -27 -10h-41q-17 0 -27 10l-89 97q-6 8 0 15l16 20q9 11 21 -1l99 -85l95 80q15 12 24 3z" />
    <glyph glyph-name="scaron" unicode="&#x161;" horiz-adv-x="379" 
d="M352 140q0 -74 -45.5 -111t-121.5 -37q-89 0 -137 23q-15 8 -11 22l4 21q2 9 6.5 11.5t17.5 1.5q86 -10 123 -10q44 0 64.5 17t20.5 54q0 43 -16 59q-17 17 -64 24q-65 12 -106 37q-50 31 -50 102q0 69 41.5 106t116.5 37q81 0 133 -23q11 -6 10 -19l-4 -26
q-1 -13 -26 -10q-85 8 -114 8q-45 0 -62 -16t-17 -55q0 -34 16.5 -46.5t69.5 -21.5q63 -13 102 -38q49 -31 49 -110zM296 696l21 -16q6 -5 -1 -16l-79 -119q-7 -10 -29 -10h-40q-16 0 -27 11l-82 119q-7 7 1 15l20 16q11 8 18 -1l90 -102l92 104q5 7 16 -1z" />
    <glyph glyph-name="Tcommaaccent" unicode="&#x162;" horiz-adv-x="418" 
d="M410 647v-39q0 -17 -18 -17h-145v-574q0 -17 -16 -17h-43q-18 0 -18 17v574h-143q-18 0 -18 17v39q0 16 17 16h367q17 0 17 -16zM254 -125q0 -84 -69 -135q-13 -10 -19 -3l-12 14q-6 7 1 14q30 37 30 70q0 21 -21 57q-7 13 4 23l33 27q16 12 26 -1q27 -27 27 -66z" />
    <glyph glyph-name="tcommaaccent" unicode="&#x163;" horiz-adv-x="281" 
d="M284 54l4 -23q1 -13 -9 -19q-38 -20 -96 -20t-81 25.5t-23 80.5v326h-45q-17 0 -17 17v28q0 18 17 18h46v108q0 14 17 19l40 11q17 5 17 -15v-123h93q17 0 17 -17v-29q0 -17 -17 -17h-93v-303q0 -36 9.5 -47.5t40.5 -11.5q20 0 58 5q12 1 16 -1.5t6 -11.5zM173 -125
q0 -84 -69 -135q-13 -10 -19 -3l-12 14q-7 7 1 14q30 37 30 70q0 21 -21 57q-7 13 4 23l33 27q16 12 26 -1q27 -27 27 -66z" />
    <glyph glyph-name="Tcaron" unicode="&#x164;" horiz-adv-x="418" 
d="M410 647v-39q0 -17 -18 -17h-145v-574q0 -17 -16 -17h-43q-18 0 -18 17v574h-143q-18 0 -18 17v39q0 16 17 16h367q17 0 17 -16zM328 850l17 -18q8 -9 -1 -18l-87 -93q-9 -10 -27 -10h-41q-17 0 -27 10l-89 97q-6 8 0 15l16 20q9 11 21 -1l99 -85l95 80q15 12 24 3z" />
    <glyph glyph-name="tcaron" unicode="&#x165;" horiz-adv-x="326" 
d="M284 54l4 -23q1 -13 -9 -19q-38 -20 -96 -20t-81 25.5t-23 80.5v326h-45q-17 0 -17 17v28q0 18 17 18h46v108q0 14 17 19l40 11q17 5 17 -15v-123h93q17 0 17 -17v-29q0 -17 -17 -17h-93v-303q0 -36 9.5 -47.5t40.5 -11.5q20 0 58 5q12 1 16 -1.5t6 -11.5zM333 684
q0 -84 -69 -135q-13 -10 -19 -3l-12 14q-7 6 1 14q30 38 30 70q0 21 -21 57q-7 13 4 23l33 27q16 12 26 -1q27 -27 27 -66z" />
    <glyph glyph-name="Tbar" unicode="&#x166;" horiz-adv-x="418" 
d="M410 647v-39q0 -17 -18 -17h-145v-192h115q15 0 15 -15v-28q0 -14 -14 -14h-116v-325q0 -17 -16 -17h-43q-18 0 -18 17v325h-107q-14 0 -14 14v28q0 15 15 15h106v192h-143q-18 0 -18 17v39q0 16 17 16h367q17 0 17 -16z" />
    <glyph glyph-name="tbar" unicode="&#x167;" horiz-adv-x="281" 
d="M284 54l4 -23q1 -13 -9 -19q-38 -20 -96 -20t-81 25.5t-23 80.5v162h-42q-14 0 -14 14v28q0 15 15 15h41v107h-45q-17 0 -17 17v28q0 18 17 18h46v108q0 14 17 19l40 11q17 5 17 -15v-123h93q17 0 17 -17v-29q0 -17 -17 -17h-93v-107h87q15 0 15 -15v-28q0 -14 -14 -14
h-88v-139q0 -36 9.5 -47.5t40.5 -11.5q20 0 58 5q12 1 16 -1.5t6 -11.5z" />
    <glyph glyph-name="Utilde" unicode="&#x168;" horiz-adv-x="528" 
d="M264 66q69 0 101.5 41.5t32.5 129.5v407q0 19 21 19h36q20 0 20 -19v-417q0 -49 -10.5 -89t-33.5 -74t-65.5 -52.5t-101.5 -18.5q-209 0 -209 233v418q0 19 21 19h36q21 0 21 -19v-407q0 -91 30 -131t101 -40zM338 713q-24 0 -71 26q-43 23 -60 23q-23 0 -41 -37
q-3 -7 -6 -8t-14 3l-18 8q-9 4 -6 17q14 41 37 61t50 20t75 -27q43 -23 54 -23q20 0 36 33q10 16 22 11l18 -7q11 -5 8 -17q-23 -83 -84 -83z" />
    <glyph glyph-name="utilde" unicode="&#x169;" horiz-adv-x="436" 
d="M317 17v24l-5 2q-76 -52 -141 -52t-96 31q-33 37 -31 128v320q0 17 18 17h42q17 0 17 -17l-1 -304q0 -63 14 -84t53 -21q41 0 130 47v362q0 17 18 17h41q16 0 16 -17v-453q0 -17 -16 -17h-41q-18 0 -18 17zM293 553q-24 0 -71 26q-43 23 -60 23q-22 0 -41 -37
q-3 -7 -6 -8t-14 3l-18 8q-9 4 -6 17q14 41 37 61t50 20t75 -27q43 -23 54 -23q20 0 36 33q10 16 22 11l18 -7q11 -5 8 -17q-23 -83 -84 -83z" />
    <glyph glyph-name="Umacron" unicode="&#x16a;" horiz-adv-x="528" 
d="M264 66q69 0 101.5 41.5t32.5 129.5v407q0 19 21 19h36q20 0 20 -19v-417q0 -49 -10.5 -89t-33.5 -74t-65.5 -52.5t-101.5 -18.5q-209 0 -209 233v418q0 19 21 19h36q21 0 21 -19v-407q0 -91 30 -131t101 -40zM399 784v-38q0 -13 -17 -13h-218q-16 0 -16 13v38
q0 14 16 14h218q17 0 17 -14z" />
    <glyph glyph-name="umacron" unicode="&#x16b;" horiz-adv-x="436" 
d="M317 17v24l-5 2q-76 -52 -141 -52t-96 31q-33 37 -31 128v320q0 17 18 17h42q17 0 17 -17l-1 -304q0 -63 14 -84t53 -21q41 0 130 47v362q0 17 18 17h41q16 0 16 -17v-453q0 -17 -16 -17h-41q-18 0 -18 17zM347 623v-38q0 -12 -14 -12h-222q-14 0 -14 12v38q0 13 14 13
h222q14 0 14 -13z" />
    <glyph glyph-name="Ubreve" unicode="&#x16c;" horiz-adv-x="528" 
d="M264 66q69 0 101.5 41.5t32.5 129.5v407q0 19 21 19h36q20 0 20 -19v-417q0 -49 -10.5 -89t-33.5 -74t-65.5 -52.5t-101.5 -18.5q-209 0 -209 233v418q0 19 21 19h36q21 0 21 -19v-407q0 -91 30 -131t101 -40zM267 697q-40 0 -76 25.5t-57 70.5q-7 13 1 21l18 16
q11 9 21 -3l33 -41q30 -30 62 -30q19 0 42 18q7 5 20 22q12 18 26 31q10 10 20 3l18 -14q10 -7 2 -22q-21 -44 -57 -70.5t-73 -26.5z" />
    <glyph glyph-name="ubreve" unicode="&#x16d;" horiz-adv-x="436" 
d="M317 17v24l-5 2q-76 -52 -141 -52t-96 31q-33 37 -31 128v320q0 17 18 17h42q17 0 17 -17l-1 -304q0 -63 14 -84t53 -21q41 0 130 47v362q0 17 18 17h41q16 0 16 -17v-453q0 -17 -16 -17h-41q-18 0 -18 17zM222 543q-40 0 -76 25.5t-57 70.5q-7 13 1 21l18 16q10 9 21 -3
l33 -41q30 -30 62 -30q19 0 42 18q7 5 20 22q12 18 26 31q10 10 20 3l18 -14q10 -7 2 -22q-21 -44 -57 -70.5t-73 -26.5z" />
    <glyph glyph-name="Uring" unicode="&#x16e;" horiz-adv-x="528" 
d="M315 777q0 19 -12 33t-30 14q-17 0 -29 -14.5t-12 -32.5q0 -48 41 -48q19 0 30.5 13.5t11.5 34.5zM365 777q0 -38 -26 -64t-66 -26q-41 0 -67.5 25t-26.5 65q0 39 27 64t67 25q39 0 65.5 -26t26.5 -63zM264 66q69 0 101.5 41.5t32.5 129.5v407q0 19 21 19h36q20 0 20 -19
v-417q0 -49 -10.5 -89t-33.5 -74t-65.5 -52.5t-101.5 -18.5q-209 0 -209 233v418q0 19 21 19h36q21 0 21 -19v-407q0 -91 30 -131t101 -40z" />
    <glyph glyph-name="uring" unicode="&#x16f;" horiz-adv-x="436" 
d="M317 17v24l-5 2q-76 -52 -141 -52t-96 31q-33 37 -31 128v320q0 17 18 17h42q17 0 17 -17l-1 -304q0 -63 14 -84t53 -21q41 0 130 47v362q0 17 18 17h41q16 0 16 -17v-453q0 -17 -16 -17h-41q-18 0 -18 17zM260 615q0 19 -12 33t-30 14q-17 0 -29 -14.5t-12 -32.5
q0 -48 41 -48q19 0 30.5 13.5t11.5 34.5zM310 615q0 -38 -26 -64t-66 -26q-41 0 -67.5 25t-26.5 65q0 39 27 64t67 25q39 0 65.5 -26t26.5 -63z" />
    <glyph glyph-name="Uhungarumlaut" unicode="&#x170;" horiz-adv-x="528" 
d="M264 66q69 0 101.5 41.5t32.5 129.5v407q0 19 21 19h36q20 0 20 -19v-417q0 -49 -10.5 -89t-33.5 -74t-65.5 -52.5t-101.5 -18.5q-209 0 -209 233v418q0 19 21 19h36q21 0 21 -19v-407q0 -91 30 -131t101 -40zM279 843l28 -40q6 -10 -6 -17l-120 -75q-11 -6 -18 3l-18 23
q-6 8 4 15l110 94q11 11 20 -3zM409 843l28 -40q6 -10 -6 -17l-120 -75q-11 -6 -18 3l-18 23q-6 8 4 15l110 94q11 11 20 -3z" />
    <glyph glyph-name="uhungarumlaut" unicode="&#x171;" horiz-adv-x="436" 
d="M317 17v24l-5 2q-76 -52 -141 -52t-96 31q-33 37 -31 128v320q0 17 18 17h42q17 0 17 -17l-1 -304q0 -63 14 -84t53 -21q41 0 130 47v362q0 17 18 17h41q16 0 16 -17v-453q0 -17 -16 -17h-41q-18 0 -18 17zM272 677l-81 -132q-5 -7 -15 -3l-29 10q-8 3 -3 14l62 143
q4 9 17 3l46 -20q11 -4 3 -15zM380 677l-81 -132q-5 -7 -15 -3l-29 10q-8 3 -3 14l62 143q4 9 17 3l46 -20q11 -4 3 -15z" />
    <glyph glyph-name="Uogonek" unicode="&#x172;" horiz-adv-x="528" 
d="M302 -140q21 0 45 7q13 2 14 -4l7 -24q1 -7 -6 -11q-30 -16 -62 -18q-48 -3 -74 19.5t-26 64.5q0 48 39 100q-184 12 -184 232v418q0 19 21 19h36q21 0 21 -19v-407q0 -91 30 -131t101 -40q69 0 101.5 41.5t32.5 129.5v407q0 19 21 19h36q20 0 20 -19v-417
q0 -216 -181 -232q-33 -51 -33 -93t41 -42z" />
    <glyph glyph-name="uogonek" unicode="&#x173;" horiz-adv-x="436" 
d="M346 -98q0 -42 41 -42q21 0 45 7q13 2 14 -4l7 -24q1 -7 -6 -11q-30 -16 -62 -18q-48 -3 -74 19.5t-26 64.5q0 54 45 106q-13 1 -13 17v24l-5 2q-76 -52 -141 -52t-96 31q-33 37 -31 128v320q0 17 18 17h42q17 0 17 -17l-1 -304q0 -63 14 -84t53 -21q41 0 130 47v362
q0 17 18 17h41q16 0 16 -17v-453q0 -13 -9 -16q-37 -52 -37 -99z" />
    <glyph glyph-name="Wcircumflex" unicode="&#x174;" horiz-adv-x="709" 
d="M358 389h-4q-15 -92 -42 -199l-43 -176q-5 -14 -18 -14h-55q-12 0 -17 14l-166 634q-3 15 10 15h52q13 0 18 -14l83 -319q30 -109 49 -207h2q12 70 43 204l46 202l-31 118q-4 16 9 16h52q14 0 19 -14l79 -326q30 -120 49 -220h3q12 70 48 229l73 317q5 14 19 14h50
q12 0 8 -18l-156 -630q-4 -15 -19 -15h-52q-17 0 -20 14l-43 171q-32 126 -46 204zM485 729l-19 -19q-9 -9 -24 3l-95 77l-98 -82q-12 -10 -21 -1l-18 18q-7 7 0 16l90 98q10 10 27 10h41q18 0 27 -10l87 -93q9 -11 3 -17z" />
    <glyph glyph-name="wcircumflex" unicode="&#x175;" horiz-adv-x="599" 
d="M306 276h-2l-14 -52q-5 -21 -13 -52l-46 -159q-4 -13 -16 -13h-44q-13 0 -17 12l-135 459q-6 16 8 16h52q14 0 17 -14l68 -250l28 -112h2q12 50 27 103l48 162l-25 95q-4 16 8 16h53q11 0 16 -14l69 -249q20 -70 29 -115h2q7 33 26 108l67 257q4 13 15 13h55q12 0 7 -15
l-132 -459q-4 -13 -17 -13h-44q-14 0 -17 12l-46 157q-14 49 -29 107zM193 541l-20 16q-8 8 -1 15l82 119q11 11 27 11h40q22 0 29 -10l79 -119q8 -11 1 -16l-21 -16q-11 -8 -16 -1l-92 104l-90 -102q-7 -9 -18 -1z" />
    <glyph glyph-name="Ycircumflex" unicode="&#x176;" horiz-adv-x="441" 
d="M199 422l21 -50h6q9 28 50 116l76 162q8 12 21 12h52q17 0 9 -15l-173 -351v-279q0 -17 -16 -17h-42q-18 0 -18 17v279l-173 353q-6 13 8 13h59q13 0 19 -12l75 -165q3 -6 26 -63zM360 729l-19 -19q-9 -9 -24 3l-95 77l-98 -82q-12 -10 -21 -1l-18 18q-7 7 0 16l90 98
q10 10 27 10h41q18 0 27 -10l87 -93q9 -11 3 -17z" />
    <glyph glyph-name="ycircumflex" unicode="&#x177;" horiz-adv-x="405" 
d="M208 108h6q11 41 44 152l63 214q4 13 16 13h54q11 0 7 -15l-199 -634q-5 -14 -20 -14h-46q-13 0 -9 16l52 160l-153 471q-6 16 8 16h53q11 0 16 -14l72 -231q26 -84 36 -134zM103 541l-20 16q-8 8 -1 15l82 119q11 11 27 11h40q22 0 29 -10l79 -119q8 -11 1 -16l-21 -16
q-11 -8 -16 -1l-92 104l-90 -102q-7 -9 -18 -1z" />
    <glyph glyph-name="Ydieresis" unicode="&#x178;" horiz-adv-x="441" 
d="M199 422l21 -50h6q9 28 50 116l76 162q8 12 21 12h52q17 0 9 -15l-173 -351v-279q0 -17 -16 -17h-42q-18 0 -18 17v279l-173 353q-6 13 8 13h59q13 0 19 -12l75 -165q3 -6 26 -63zM260 777q0 42 38 42q23 0 31 -11q9 -10 9 -31t-8 -33q-8 -11 -32 -11q-23 0 -30.5 10.5
t-7.5 33.5zM189 777q0 -22 -8.5 -33t-30.5 -11q-24 0 -32 10.5t-8 33.5q0 42 40 42q22 0 30.5 -9.5t8.5 -32.5z" />
    <glyph glyph-name="Zacute" unicode="&#x179;" horiz-adv-x="425" 
d="M401 55v-38q0 -17 -16 -17h-346q-16 0 -16 16v35q0 16 8 30l278 510h-249q-17 0 -17 17v39q0 16 16 16h323q16 0 16 -14v-40q0 -12 -8 -26l-275 -512h269q17 0 17 -16zM281 848l28 -40q6 -10 -6 -17l-120 -75q-11 -6 -18 3l-18 23q-6 8 4 15l110 94q11 11 20 -3z" />
    <glyph glyph-name="zacute" unicode="&#x17a;" horiz-adv-x="377" 
d="M22 14v29q0 17 9 29l227 347h-201q-17 0 -17 17v36q0 15 17 15h270q18 0 18 -14v-36q0 -17 -10 -28l-220 -338h215q18 0 18 -16v-38q0 -17 -17 -17h-294q-15 0 -15 14zM273 678l-81 -132q-5 -8 -15 -3l-29 10q-8 3 -3 14l62 143q4 9 17 3l46 -20q11 -5 3 -15z" />
    <glyph glyph-name="Zdotaccent" unicode="&#x17b;" horiz-adv-x="425" 
d="M401 55v-38q0 -17 -16 -17h-346q-16 0 -16 16v35q0 16 8 30l278 510h-249q-17 0 -17 17v39q0 16 16 16h323q16 0 16 -14v-40q0 -12 -8 -26l-275 -512h269q17 0 17 -16zM258 765q0 -45 -40 -45q-41 0 -41 45q0 42 41 42q40 0 40 -42z" />
    <glyph glyph-name="zdotaccent" unicode="&#x17c;" horiz-adv-x="377" 
d="M22 14v29q0 17 9 29l227 347h-201q-17 0 -17 17v36q0 15 17 15h270q18 0 18 -14v-36q0 -17 -10 -28l-220 -338h215q18 0 18 -16v-38q0 -17 -17 -17h-294q-15 0 -15 14zM237 609q0 -45 -40 -45q-41 0 -41 45q0 42 41 42q40 0 40 -42z" />
    <glyph glyph-name="Zcaron" unicode="&#x17d;" horiz-adv-x="425" 
d="M401 55v-38q0 -17 -16 -17h-346q-16 0 -16 16v35q0 16 8 30l278 510h-249q-17 0 -17 17v39q0 16 16 16h323q16 0 16 -14v-40q0 -12 -8 -26l-275 -512h269q17 0 17 -16zM339 850l17 -18q8 -9 -1 -18l-87 -93q-9 -10 -27 -10h-41q-17 0 -27 10l-89 97q-6 8 0 15l16 20
q9 11 21 -1l99 -85l95 80q15 12 24 3z" />
    <glyph glyph-name="zcaron" unicode="&#x17e;" horiz-adv-x="377" 
d="M22 14v29q0 17 9 29l227 347h-201q-17 0 -17 17v36q0 15 17 15h270q18 0 18 -14v-36q0 -17 -10 -28l-220 -338h215q18 0 18 -16v-38q0 -17 -17 -17h-294q-15 0 -15 14zM309 696l21 -16q6 -5 -1 -16l-79 -119q-7 -10 -29 -10h-40q-16 0 -27 11l-82 119q-7 7 1 15l20 16
q11 8 18 -1l90 -102l92 104q5 7 16 -1z" />
    <glyph glyph-name="florin" unicode="&#x192;" 
d="M37 -39l5 23q4 17 26 10q25 -4 43 -4q31 0 43.5 24.5t22.5 92.5l32 229h-56q-21 0 -21 18v28q0 20 19 20h65l17 111l5 33q16 59 24 71q39 59 107 59q45 0 78 -18q10 -5 5 -16l-8 -27q-5 -16 -26 -9q-33 5 -41 5q-34 0 -48 -24t-23 -85l-14 -100h70q18 0 18 -17v-31
q0 -11 -4 -14.5t-16 -3.5h-76l-37 -267q-7 -55 -38 -100q-29 -44 -87 -44q-52 0 -82 18q-6 5 -3 18z" />
    <glyph glyph-name="Ohorn" unicode="&#x1a0;" horiz-adv-x="555" 
d="M506 341q0 -50 -3 -86q-7 -106 -32 -154q-54 -115 -196 -110q-140 -5 -194 110q-14 28 -22 74q-11 73 -11 166q0 100 20 175q13 45 37 79q57 76 171 76q97 0 151 -48h6q35 0 51 22.5t16 74.5v33q0 9 3.5 12t13.5 3h30q16 0 16 -15v-35q0 -132 -94 -151q37 -73 37 -226z
M426 331q0 141 -34.5 205.5t-116.5 64.5q-77 0 -111 -67t-34 -203q0 -138 32.5 -203t112.5 -65q82 0 116.5 64.5t34.5 203.5z" />
    <glyph glyph-name="ohorn" unicode="&#x1a1;" horiz-adv-x="451" 
d="M402 252q0 -89 -16 -143q-14 -56 -54.5 -85t-115.5 -32q-94 0 -138 55q-17 23 -28 62q-15 59 -15 143q0 245 181 245q88 0 133 -47q58 4 58 97v33q0 9 3.5 12t13.5 3h30q16 0 16 -15v-35q0 -127 -88 -149q20 -52 20 -144zM325 245q0 101 -23.5 143t-85.5 42
q-59 0 -81.5 -42.5t-22.5 -142.5q0 -101 22.5 -143.5t81.5 -42.5q62 0 85.5 42t23.5 144z" />
    <glyph glyph-name="Uhorn" unicode="&#x1af;" horiz-adv-x="571" 
d="M264 66q69 0 101.5 41.5t32.5 129.5v407q0 19 21 19h36q20 0 20 -19v-21q37 0 51 21t14 76v33q0 9 3.5 12t13.5 3h30q16 0 16 -15v-35q0 -154 -128 -154v-337q0 -49 -10.5 -89t-33.5 -74t-65.5 -52.5t-101.5 -18.5q-209 0 -209 233v418q0 19 21 19h36q21 0 21 -19v-407
q0 -91 30 -131t101 -40z" />
    <glyph glyph-name="uhorn" unicode="&#x1b0;" horiz-adv-x="509" 
d="M317 17v24l-5 2q-76 -52 -141 -52t-96 31q-33 37 -31 128v320q0 17 18 17h42q17 0 17 -17l-1 -304q0 -63 14 -84t53 -21q41 0 130 47v362q0 17 18 17h41q16 0 16 -17v-20q33 0 49 23t16 74v33q0 9 3.5 12t13.5 3h30q16 0 16 -15v-35q0 -154 -128 -154v-374q0 -17 -16 -17
h-41q-18 0 -18 17z" />
    <glyph glyph-name="AEacute" unicode="&#x1fc;" horiz-adv-x="744" 
d="M722 54v-38q0 -16 -17 -16h-300q-18 0 -18 16q-1 19 -1 162h-200l-84 -162q-7 -16 -24 -16h-58q-13 0 -6 16l334 632q8 15 23 15h322q17 0 17 -16v-39q0 -17 -18 -17h-227v-206h202q17 0 17 -16v-38q0 -16 -17 -16h-202v-244h241q16 0 16 -17zM386 247v312h-4l-161 -312
h165zM587 848l28 -40q6 -10 -6 -17l-120 -75q-11 -6 -18 3l-18 23q-6 8 4 15l110 94q11 11 20 -3z" />
    <glyph glyph-name="aeacute" unicode="&#x1fd;" horiz-adv-x="694" 
d="M497 430q-51 0 -75 -35.5t-26 -112.5h204q-1 64 -20 102q-19 46 -83 46zM500 -9q-112 0 -152 76q-84 -75 -192 -75q-64 0 -93 33.5t-29 104.5q0 80 39 117t127 37h117v48q0 54 -22 74.5t-77 20.5q-56 0 -121 -9q-21 -4 -24 10l-5 26q-5 14 17 23q51 20 146 20t134 -56
q54 56 134 56q108 0 146 -71q31 -58 33 -150q2 -57 -43 -57h-239q1 -86 26 -121t83 -35q48 0 122 10q19 3 23 -13l4 -22q3 -14 -11 -20q-65 -27 -143 -27zM172 63q26 0 74 20q46 19 81 42q-10 41 -10 93h-125q-82 0 -82 -85q0 -40 13.5 -55t48.5 -15zM460 678l-81 -132
q-5 -8 -15 -3l-29 10q-8 3 -3 14l62 143q4 9 17 3l46 -20q11 -5 3 -15z" />
    <glyph glyph-name="Oslashacute" unicode="&#x1fe;" horiz-adv-x="555" 
d="M506 341q0 -50 -3 -86q-7 -106 -32 -154q-54 -115 -196 -110q-92 0 -144 43l-21 -37q-7 -13 -17 -7l-24 14q-5 5 -5 6t4 10l30 51q-29 43 -39.5 106t-10.5 164q0 100 20 175q13 45 37 79q57 76 171 76q93 0 146 -44l23 40q7 12 17 7l23 -13q9 -5 2 -16l-32 -54
q51 -75 51 -250zM426 331q0 112 -21 173l-230 -396q34 -45 100 -45q82 0 116.5 64.5t34.5 203.5zM130 331q0 -112 19 -172l230 395q-35 47 -104 47q-77 0 -111 -67t-34 -203zM362 848l28 -40q6 -10 -6 -17l-120 -75q-10 -6 -18 3l-18 23q-6 8 4 15l110 94q11 11 20 -3z" />
    <glyph glyph-name="oslashacute" unicode="&#x1ff;" horiz-adv-x="439" 
d="M402 252q0 -89 -16 -143q-14 -56 -54.5 -85t-115.5 -32q-60 0 -97 22l-15 -25q-7 -13 -17 -7l-24 14q-5 5 -5 6t4 10l19 33q-46 55 -46 207q0 245 181 245q71 0 116 -33l19 31q7 12 17 7l23 -13q9 -5 2 -16l-27 -45q36 -55 36 -176zM112 245q0 -86 14 -125l167 279
q-25 31 -77 31q-59 0 -81.5 -42.5t-22.5 -142.5zM325 245q0 61 -8 101l-161 -270q23 -17 60 -17q62 0 85.5 42t23.5 144zM321 678l-81 -132q-5 -8 -15 -3l-29 10q-8 3 -3 14l62 143q4 9 17 3l46 -20q11 -5 3 -15z" />
    <glyph glyph-name="Scommaaccent" unicode="&#x218;" horiz-adv-x="458" 
d="M427 184q0 -98 -54.5 -145.5t-149.5 -47.5q-109 0 -168 28q-19 8 -14 23l6 28q3 14 22 11q117 -14 153 -14q61 0 93.5 27.5t32.5 77.5q0 66 -24 92t-91 39q-83 16 -134 48q-58 36 -58 130q0 91 50 139.5t143 48.5q100 0 158 -26q19 -8 14 -23l-5 -24q-2 -15 -24 -13
q-95 13 -143 13q-60 0 -86.5 -28t-26.5 -84q0 -54 24 -74q27 -19 95 -32t108 -36q79 -40 79 -158zM272 -125q0 -84 -69 -135q-13 -10 -19 -3l-12 14q-6 7 1 14q30 37 30 70q0 21 -21 57q-7 13 4 23l33 27q16 12 26 -1q27 -27 27 -66z" />
    <glyph glyph-name="scommaaccent" unicode="&#x219;" horiz-adv-x="379" 
d="M352 140q0 -74 -45.5 -111t-121.5 -37q-89 0 -137 23q-15 8 -11 22l4 21q2 9 6.5 11.5t17.5 1.5q86 -10 123 -10q44 0 64.5 17t20.5 54q0 43 -16 59q-17 17 -64 24q-65 12 -106 37q-50 31 -50 102q0 69 41.5 106t116.5 37q81 0 133 -23q11 -6 10 -19l-4 -26
q-1 -13 -26 -10q-85 8 -114 8q-45 0 -62 -16t-17 -55q0 -34 16.5 -46.5t69.5 -21.5q63 -13 102 -38q49 -31 49 -110zM233 -125q0 -84 -69 -135q-13 -10 -19 -3l-12 14q-7 7 1 14q30 37 30 70q0 21 -21 57q-7 13 4 23l33 27q16 12 26 -1q27 -27 27 -66z" />
    <glyph glyph-name="uni021A" unicode="&#x21a;" horiz-adv-x="418" 
d="M410 647v-39q0 -17 -18 -17h-145v-574q0 -17 -16 -17h-43q-18 0 -18 17v574h-143q-18 0 -18 17v39q0 16 17 16h367q17 0 17 -16zM255 -112q0 -84 -69 -135q-13 -10 -19 -3l-12 14q-7 6 1 14q30 37 30 70q0 21 -21 57q-7 13 4 23l33 27q16 12 26 -1q27 -27 27 -66z" />
    <glyph glyph-name="uni021B" unicode="&#x21b;" horiz-adv-x="281" 
d="M284 54l4 -23q1 -13 -9 -19q-38 -20 -96 -20t-81 25.5t-23 80.5v326h-45q-17 0 -17 17v28q0 18 17 18h46v108q0 14 17 19l40 11q17 5 17 -15v-123h93q17 0 17 -17v-29q0 -17 -17 -17h-93v-303q0 -36 9.5 -47.5t40.5 -11.5q20 0 58 5q12 1 16 -1.5t6 -11.5zM184 -112
q0 -84 -69 -135q-13 -10 -19 -3l-12 14q-6 6 1 14q30 37 30 70q0 21 -21 57q-7 13 4 23l33 27q16 12 26 -1q27 -27 27 -66z" />
    <glyph glyph-name="schwa" unicode="&#x259;" horiz-adv-x="420" 
d="M219 58q51 0 75 35.5t26 112.5h-204q1 -60 19 -102q22 -46 84 -46zM216 497q92 0 135 -50q19 -23 30 -57q18 -53 18 -145q0 -77 -16 -131q-32 -119 -166 -123q-108 0 -146 70q-31 59 -33 151q-2 57 43 57h239q-1 86 -26 121t-83 35q-48 0 -122 -10q-19 -3 -23 13l-4 22
q-3 14 11 20q64 27 143 27z" />
    <glyph glyph-name="primemod" unicode="&#x2b9;" horiz-adv-x="216" 
d="M212 656l-133 -237q-5 -7 -15 -3l-28 12q-8 3 -3 14l111 242q6 13 19 7l46 -20q11 -5 3 -15z" />
    <glyph glyph-name="circumflex" unicode="&#x2c6;" horiz-adv-x="438" 
d="M116 541l-20 16q-8 8 -1 15l82 119q11 11 27 11h40q22 0 29 -10l79 -119q8 -11 1 -16l-21 -16q-11 -8 -16 -1l-92 104l-90 -102q-7 -9 -18 -1z" />
    <glyph glyph-name="caron" unicode="&#x2c7;" horiz-adv-x="377" 
d="M308 696l21 -16q6 -5 -1 -16l-79 -119q-7 -10 -29 -10h-40q-16 0 -27 11l-82 119q-7 7 1 15l20 16q11 8 18 -1l90 -102l92 104q5 7 16 -1z" />
    <glyph glyph-name="breve" unicode="&#x2d8;" horiz-adv-x="445" 
d="M243 543q-40 0 -76 25.5t-57 70.5q-7 13 1 21l18 16q11 9 21 -3l33 -41q30 -30 62 -30q19 0 42 18q7 5 20 22q12 18 26 31q10 10 20 3l18 -14q10 -7 2 -22q-21 -44 -57 -70.5t-73 -26.5z" />
    <glyph glyph-name="dotaccent" unicode="&#x2d9;" horiz-adv-x="292" 
d="M188 609q0 -45 -40 -45q-41 0 -41 45q0 42 41 42q40 0 40 -42z" />
    <glyph glyph-name="ring" unicode="&#x2da;" horiz-adv-x="433" 
d="M276 615q0 19 -12 33t-30 14q-17 0 -29 -14.5t-12 -32.5q0 -48 41 -48q19 0 30.5 13.5t11.5 34.5zM326 615q0 -38 -26 -64t-66 -26q-41 0 -67.5 25t-26.5 65q0 39 27 64t67 25q39 0 65.5 -26t26.5 -63z" />
    <glyph glyph-name="ogonek" unicode="&#x2db;" horiz-adv-x="433" 
d="M225 -98q0 -42 41 -42q21 0 45 7q13 2 14 -4l7 -24q1 -7 -6 -11q-30 -16 -62 -18q-48 -3 -74 19.5t-26 64.5q0 59 55 117h51q-45 -59 -45 -109z" />
    <glyph glyph-name="tilde" unicode="&#x2dc;" horiz-adv-x="439" 
d="M286 553q-24 0 -71 26q-43 23 -60 23q-22 0 -41 -37q-3 -7 -6 -8t-14 3l-18 8q-9 4 -6 17q14 41 37 61t50 20t75 -27q43 -23 54 -23q20 0 36 33q10 16 22 11l18 -7q11 -5 8 -17q-23 -83 -84 -83z" />
    <glyph glyph-name="hungarumlaut" unicode="&#x2dd;" horiz-adv-x="438" 
d="M264 677l-81 -132q-5 -7 -15 -3l-29 10q-8 3 -3 14l62 143q4 9 17 3l46 -20q11 -4 3 -15zM372 677l-81 -132q-5 -7 -15 -3l-29 10q-8 3 -3 14l62 143q4 9 17 3l46 -20q11 -4 3 -15z" />
    <glyph glyph-name="tonos" unicode="&#x384;" horiz-adv-x="432" 
d="M316 677l-81 -132q-5 -7 -15 -3l-29 10q-8 3 -3 14l62 143q4 9 17 3l46 -20q11 -4 3 -15z" />
    <glyph glyph-name="dieresistonos" unicode="&#x385;" horiz-adv-x="288" 
d="M294 609q0 -45 -40 -45t-40 45q0 42 40 42t40 -42zM87 609q0 -45 -40 -45q-41 0 -41 45q0 42 41 42q22 0 31 -10t9 -32zM221 680l-81 -132q-4 -8 -15 -3l-29 10q-8 3 -3 14l62 143q4 9 17 3l46 -20q10 -5 3 -15z" />
    <glyph glyph-name="Alphatonos" unicode="&#x386;" horiz-adv-x="477" 
d="M383 13l-42 165h-204l-42 -162q-4 -16 -21 -16h-52q-14 0 -8 16l182 631q4 15 19 15h56q15 0 19 -15l179 -633q5 -14 -8 -14h-61q-13 0 -17 13zM243 568h-3q-22 -93 -33 -129l-52 -192h169l-49 189q-26 104 -32 132zM88 627l-81 -132q-5 -7 -15 -3l-29 10q-8 3 -3 14
l62 143q4 9 17 3l46 -20q11 -4 3 -15z" />
    <glyph glyph-name="anoteleia" unicode="&#x387;" horiz-adv-x="170" 
d="M128 394q0 -49 -44 -49q-43 0 -43 49q0 47 43 47q24 0 34 -11t10 -36z" />
    <glyph glyph-name="Epsilontonos" unicode="&#x388;" horiz-adv-x="439" 
d="M414 54v-38q0 -16 -17 -16h-317q-18 0 -18 16v630q0 17 18 17h306q17 0 17 -16v-39q0 -17 -18 -17h-245v-206h219q17 0 17 -16v-38q0 -16 -17 -16h-219v-244h258q16 0 16 -17zM4 627l-81 -132q-5 -7 -15 -3l-29 10q-8 3 -3 14l62 143q4 9 17 3l46 -20q11 -4 3 -15z" />
    <glyph glyph-name="Etatonos" unicode="&#x389;" horiz-adv-x="518" 
d="M465 645v-628q0 -17 -16 -17h-43q-18 0 -18 17v298h-248v-298q0 -17 -16 -17h-43q-18 0 -18 17v628q0 18 18 18h43q16 0 16 -18v-258h248v258q0 18 18 18h43q16 0 16 -18zM3 627l-81 -132q-4 -7 -15 -3l-29 10q-8 3 -3 14l62 143q4 9 17 3l46 -20q10 -4 3 -15z" />
    <glyph glyph-name="Iotatonos" unicode="&#x38a;" horiz-adv-x="221" 
d="M10 627l-81 -132q-5 -7 -15 -3l-29 10q-8 3 -3 14l62 143q4 9 17 3l46 -20q11 -4 3 -15zM155 645v-628q0 -17 -17 -17h-44q-18 0 -18 17v628q0 18 18 18h44q17 0 17 -18z" />
    <glyph glyph-name="Omicrontonos" unicode="&#x38c;" horiz-adv-x="555" 
d="M511 341q0 -50 -3 -86q-7 -106 -32 -154q-54 -115 -196 -110q-140 -5 -194 110q-14 28 -22 74q-11 73 -11 166q0 100 20 175q13 45 37 79q57 76 171 76q115 0 170 -67q24 -27 38 -75q22 -71 22 -188zM431 331q0 141 -34.5 205.5t-116.5 64.5q-77 0 -111 -67t-34 -203
q0 -138 32.5 -203t112.5 -65q82 0 116.5 64.5t34.5 203.5zM38 627l-81 -132q-5 -7 -15 -3l-29 10q-8 3 -3 14l62 143q4 9 17 3l46 -20q11 -4 3 -15z" />
    <glyph glyph-name="Upsilontonos" unicode="&#x38e;" horiz-adv-x="441" 
d="M202 422l21 -50h6q9 28 50 116l76 162q7 12 21 12h52q16 0 9 -15l-173 -351v-279q0 -17 -16 -17h-42q-18 0 -18 17v279l-173 353q-6 13 8 13h59q13 0 19 -12l75 -165q3 -6 26 -63zM-14 627l-81 -132q-5 -7 -15 -3l-29 10q-8 3 -3 14l62 143q4 9 17 3l46 -20q11 -4 3 -15z
" />
    <glyph glyph-name="Omegatonos" unicode="&#x38f;" horiz-adv-x="567" 
d="M452 73l1 -2h65q19 0 19 -17v-36q0 -10 -4 -14t-15 -4h-175q-20 0 -20 17v45q0 10 17 18q106 42 106 259q0 262 -157 262q-158 0 -158 -260q0 -218 100 -261q18 -8 18 -18v-45q0 -17 -21 -17h-176q-11 0 -14.5 4t-3.5 14v36q0 10 4 13.5t15 3.5h67l1 3q-72 64 -72 270
q0 48 6.5 91.5t23 87.5t42.5 76t69.5 52t98.5 20q237 0 237 -327q0 -191 -74 -271zM38 627l-81 -132q-5 -7 -15 -3l-29 10q-8 3 -3 14l62 143q4 9 17 3l46 -20q11 -4 3 -15z" />
    <glyph glyph-name="iotadieresistonos" unicode="&#x390;" horiz-adv-x="223" 
d="M260 609q0 -45 -40 -45t-40 45q0 42 40 42t40 -42zM53 609q0 -45 -40 -45q-41 0 -41 45q0 42 41 42q22 0 31 -10t9 -32zM187 680l-81 -132q-4 -8 -15 -3l-29 10q-8 3 -3 14l62 143q4 9 17 3l46 -20q10 -5 3 -15zM135 470v-453q0 -17 -16 -17h-41q-18 0 -18 17v453
q0 17 18 17h41q16 0 16 -17z" />
    <glyph glyph-name="Alpha" unicode="&#x391;" horiz-adv-x="477" 
d="M384 13l-42 165h-204l-42 -162q-4 -16 -21 -16h-52q-14 0 -8 16l182 631q5 15 19 15h56q14 0 19 -15l179 -633q5 -14 -8 -14h-61q-13 0 -17 13zM244 568h-3q-23 -93 -33 -129l-52 -192h169l-49 189q-26 104 -32 132z" />
    <glyph glyph-name="Beta" unicode="&#x392;" horiz-adv-x="485" 
d="M455 182q0 -81 -53 -132q-53 -50 -128 -50h-195q-21 0 -21 17v629q0 16 18 16h165q93 0 143.5 -45.5t50.5 -124.5q0 -45 -21 -84.5t-64 -59.5l1 -1q55 -16 79 -65q25 -47 25 -100zM353 486q0 49 -31.5 77.5t-90.5 28.5h-96v-213h111q44 0 75.5 31t31.5 76zM373 189
q0 53 -32.5 86.5t-91.5 33.5h-114v-238h114q124 0 124 118z" />
    <glyph glyph-name="Gamma" unicode="&#x393;" horiz-adv-x="395" 
d="M384 591h-246v-574q0 -17 -17 -17h-42q-18 0 -18 17v630q0 16 19 16h305q17 0 17 -16v-39q0 -17 -18 -17z" />
    <glyph glyph-name="increment" unicode="&#x394;" horiz-adv-x="480" 
d="M293 645l183 -629q4 -16 -13 -16h-436q-17 0 -12 17l183 629q4 16 25 16h43q14 0 19 -3.5t8 -13.5zM247 550h-6q-11 -58 -51 -200l-81 -279h266l-92 330q-23 82 -36 149z" />
    <glyph glyph-name="increment" unicode="&#x2206;" horiz-adv-x="480" 
d="M293 645l183 -629q4 -16 -13 -16h-436q-17 0 -12 17l183 629q4 16 25 16h43q14 0 19 -3.5t8 -13.5zM247 550h-6q-11 -58 -51 -200l-81 -279h266l-92 330q-23 82 -36 149z" />
    <glyph glyph-name="Epsilon" unicode="&#x395;" horiz-adv-x="439" 
d="M409 54v-38q0 -16 -17 -16h-317q-18 0 -18 16v630q0 17 18 17h306q17 0 17 -16v-39q0 -17 -18 -17h-245v-206h219q17 0 17 -16v-38q0 -16 -17 -16h-219v-244h258q16 0 16 -17z" />
    <glyph glyph-name="Zeta" unicode="&#x396;" horiz-adv-x="425" 
d="M401 55v-38q0 -17 -16 -17h-346q-16 0 -16 16v35q0 16 8 30l278 510h-249q-17 0 -17 17v39q0 16 16 16h323q16 0 16 -14v-40q0 -12 -8 -26l-275 -512h269q17 0 17 -16z" />
    <glyph glyph-name="Eta" unicode="&#x397;" horiz-adv-x="518" 
d="M460 645v-628q0 -17 -16 -17h-43q-18 0 -18 17v298h-248v-298q0 -17 -16 -17h-43q-18 0 -18 17v628q0 18 18 18h43q16 0 16 -18v-258h248v258q0 18 18 18h43q16 0 16 -18z" />
    <glyph glyph-name="Theta" unicode="&#x398;" horiz-adv-x="564" 
d="M515 341q0 -28 -2 -70q-2 -75 -22 -135q-52 -145 -213 -145q-130 0 -182 88q-32 55 -41 124q-7 52 -7 138q0 330 230 330q120 0 175 -69q25 -30 39 -77q23 -70 23 -184zM434 331q0 142 -34.5 206t-121.5 64q-79 0 -114 -67t-35 -203q0 -85 11 -143q13 -57 47.5 -91
t90.5 -34q82 0 119 66.5t37 201.5zM395 369v-38q0 -10 -3 -13t-15 -3h-190q-11 0 -14.5 3.5t-3.5 12.5v38q0 16 18 16h190q11 0 14.5 -3.5t3.5 -12.5z" />
    <glyph glyph-name="Iota" unicode="&#x399;" horiz-adv-x="221" 
d="M150 645v-628q0 -17 -17 -17h-44q-18 0 -18 17v628q0 18 18 18h44q17 0 17 -18z" />
    <glyph glyph-name="Kappa" unicode="&#x39a;" horiz-adv-x="478" 
d="M462 649l-190 -268l194 -367q3 -5 1 -9.5t-9 -4.5h-61q-15 0 -23 14l-152 297l-90 -127v-167q0 -17 -16 -17h-43q-18 0 -18 17v628q0 18 18 18h43q16 0 16 -18v-337l2 -1q32 51 102 151l135 194q8 11 23 11h61q7 0 9 -4.5t-2 -9.5z" />
    <glyph glyph-name="Lambda" unicode="&#x39b;" horiz-adv-x="477" 
d="M208 439l-112 -423q-4 -16 -21 -16h-52q-14 0 -8 16l182 631q5 15 19 15h56q14 0 19 -15l179 -633q5 -14 -8 -14h-61q-13 0 -17 13l-108 423q-26 104 -32 132h-3q-23 -93 -33 -129z" />
    <glyph glyph-name="Mu" unicode="&#x39c;" horiz-adv-x="643" 
d="M584 648v-631q0 -17 -17 -17h-43q-18 0 -18 17v454h-3q-19 -55 -61 -154l-85 -201q-6 -13 -20 -13h-29q-15 0 -21 12l-94 213q-23 51 -59 143h-2v-454q0 -17 -16 -17h-42q-17 0 -17 17v631q0 15 15 15h44q14 0 22 -15l124 -292l59 -148h3q13 39 57 146l123 293
q9 16 25 16h40q15 0 15 -15z" />
    <glyph glyph-name="Nu" unicode="&#x39d;" horiz-adv-x="547" 
d="M410 16l-192 341q-63 113 -81 154h-3v-494q0 -17 -17 -17h-41q-18 0 -18 17v631q0 15 16 15h41q15 0 25 -16l195 -345q45 -82 77 -147h3v490q0 18 17 18h42q16 0 16 -18v-629q0 -16 -16 -16h-38q-16 0 -26 16z" />
    <glyph glyph-name="Xi" unicode="&#x39e;" horiz-adv-x="443" 
d="M399 590h-359q-12 0 -15.5 4t-3.5 14v38q0 9 3.5 13t14.5 4h361q17 0 17 -17v-38q0 -10 -3.5 -14t-14.5 -4zM34 71h370q18 0 18 -18v-36q0 -10 -4 -13.5t-15 -3.5h-368q-11 0 -14.5 3t-3.5 14v36q0 18 17 18zM373 314h-308q-11 0 -14.5 3.5t-3.5 13.5v37q0 9 3.5 13
t14.5 4h308q11 0 14.5 -4t3.5 -13v-37q0 -10 -3.5 -13.5t-14.5 -3.5z" />
    <glyph glyph-name="Omicron" unicode="&#x39f;" horiz-adv-x="555" 
d="M506 341q0 -50 -3 -86q-7 -106 -32 -154q-54 -115 -196 -110q-140 -5 -194 110q-14 28 -22 74q-11 73 -11 166q0 100 20 175q13 45 37 79q57 76 171 76q115 0 170 -67q24 -27 38 -75q22 -71 22 -188zM426 331q0 141 -34.5 205.5t-116.5 64.5q-77 0 -111 -67t-34 -203
q0 -138 32.5 -203t112.5 -65q82 0 116.5 64.5t34.5 203.5z" />
    <glyph glyph-name="Pi" unicode="&#x3a0;" horiz-adv-x="526" 
d="M472 644v-627q0 -17 -20 -17h-35q-22 0 -22 17v572h-260v-572q0 -17 -19 -17h-37q-21 0 -21 17v627q0 11 4 15t15 4h377q11 0 14.5 -4t3.5 -15z" />
    <glyph glyph-name="Rho" unicode="&#x3a1;" horiz-adv-x="448" 
d="M429 470q0 -77 -39 -134q-44 -67 -159 -67h-96v-252q0 -17 -17 -17h-43q-18 0 -18 17v630q0 16 18 16h155q92 0 145.5 -50.5t53.5 -142.5zM352 469q0 123 -128 123h-89v-254h95q66 0 94 34t28 97z" />
    <glyph glyph-name="Sigma" unicode="&#x3a3;" horiz-adv-x="393" 
d="M388 54v-36q0 -18 -18 -18h-333q-12 0 -16 3.5t-4 13.5v35q0 12 8 30l136 261l-139 239q-8 14 -8 26v40q0 15 20 15h326q11 0 14.5 -3.5t3.5 -13.5v-37q0 -10 -3.5 -14t-15.5 -4h-258l135 -228q10 -19 0 -42l-130 -250h263q19 0 19 -17z" />
    <glyph glyph-name="Tau" unicode="&#x3a4;" horiz-adv-x="418" 
d="M410 647v-39q0 -17 -18 -17h-145v-574q0 -17 -16 -17h-43q-18 0 -18 17v574h-143q-18 0 -18 17v39q0 16 17 16h367q17 0 17 -16z" />
    <glyph glyph-name="Upsilon" unicode="&#x3a5;" horiz-adv-x="441" 
d="M199 422l21 -50h6q9 28 50 116l76 162q8 12 21 12h52q17 0 9 -15l-173 -351v-279q0 -17 -16 -17h-42q-18 0 -18 17v279l-173 353q-6 13 8 13h59q13 0 19 -12l75 -165q3 -6 26 -63z" />
    <glyph glyph-name="Phi" unicode="&#x3a6;" horiz-adv-x="659" 
d="M374 72v-55q0 -17 -17 -17h-44q-18 0 -18 17v55q-141 7 -200 91q-49 74 -48 175q1 32 7.5 63t24 65t44 60.5t71 46t101.5 24.5v48q0 18 18 18h44q17 0 17 -18v-48q146 -14 200 -99q47 -70 47 -160q0 -107 -59 -181q-58 -73 -188 -85zM121 335q0 -90 42 -137t132 -57v387
q-174 -16 -174 -193zM543 334q0 83 -42.5 134.5t-126.5 59.5v-388q84 6 126.5 56t42.5 138z" />
    <glyph glyph-name="Chi" unicode="&#x3a7;" horiz-adv-x="454" 
d="M363 14l-129 257l-129 -257q-8 -14 -23 -14h-57q-15 0 -7 15l175 330l-160 302q-4 6 -2 11t9 5h58q14 0 21 -13l115 -232l115 231q7 13 23 13h54q7 1 9.5 -4.5t-0.5 -10.5l-161 -302l176 -331q8 -14 -8 -14h-57q-14 0 -22 14z" />
    <glyph glyph-name="Psi" unicode="&#x3a8;" horiz-adv-x="602" 
d="M546 644v-245q0 -100 -56 -164.5t-154 -74.5v-142q0 -18 -20 -18h-37q-21 0 -21 18v141q-103 11 -156 73.5t-53 166.5v245q0 19 21 19h37q21 0 21 -19v-245q0 -153 130 -166v411q0 19 21 19h38q19 0 19 -19v-410q62 9 97 50.5t35 114.5v245q0 19 22 19h36q20 0 20 -19z
" />
    <glyph glyph-name="Omega" unicode="&#x3a9;" horiz-adv-x="567" 
d="M447 73l1 -2h65q19 0 19 -17v-36q0 -10 -4 -14t-15 -4h-175q-20 0 -20 17v45q0 10 17 18q106 42 106 259q0 262 -157 262q-158 0 -158 -260q0 -218 100 -261q18 -8 18 -18v-45q0 -17 -21 -17h-176q-11 0 -14.5 4t-3.5 14v36q0 10 4 13.5t15 3.5h67l1 3q-72 64 -72 270
q0 48 6.5 91.5t23 87.5t42.5 76t69.5 52t98.5 20q237 0 237 -327q0 -191 -74 -271z" />
    <glyph glyph-name="Iotadieresis" unicode="&#x3aa;" horiz-adv-x="221" 
d="M149 777q0 42 38 42q23 0 31 -11q9 -10 9 -31t-8 -33q-8 -11 -32 -11q-23 0 -30.5 10.5t-7.5 33.5zM78 777q0 -22 -8.5 -33t-30.5 -11q-24 0 -32 10.5t-8 33.5q0 42 40 42q22 0 30.5 -9.5t8.5 -32.5zM150 645v-628q0 -17 -17 -17h-44q-18 0 -18 17v628q0 18 18 18h44
q17 0 17 -18z" />
    <glyph glyph-name="Upsilondieresis" unicode="&#x3ab;" horiz-adv-x="441" 
d="M199 422l21 -50h6q9 28 50 116l76 162q8 12 21 12h52q17 0 9 -15l-173 -351v-279q0 -17 -16 -17h-42q-18 0 -18 17v279l-173 353q-6 13 8 13h59q13 0 19 -12l75 -165q3 -6 26 -63zM257 777q0 42 38 42q23 0 31 -11q9 -10 9 -31t-8 -33q-8 -11 -32 -11q-23 0 -30.5 10.5
t-7.5 33.5zM186 777q0 -22 -8.5 -33t-30.5 -11q-24 0 -32 10.5t-8 33.5q0 42 40 42q22 0 30.5 -9.5t8.5 -32.5z" />
    <glyph glyph-name="alphatonos" unicode="&#x3ac;" horiz-adv-x="455" 
d="M323 119v278q-61 31 -115 31q-53 0 -75 -43.5t-22 -148.5q0 -104 17 -140q18 -33 59 -33q27 0 67 18q38 17 69 38zM325 49h-2q-80 -56 -146 -56q-80 0 -112 57.5t-32 187.5q0 133 40.5 195t134.5 62q64 0 116 -34v8q0 10 3.5 14t15.5 4h37q12 0 15.5 -4t3.5 -15v-369
q0 -30 3.5 -35.5t25.5 -7.5q11 -1 14 -3.5t3 -9.5v-25q0 -16 -21 -19q-15 -3 -31 -3q-34 0 -50 12t-18 41zM311 677l-81 -132q-4 -7 -15 -3l-29 10q-8 3 -3 14l62 143q4 9 17 3l46 -20q10 -4 3 -15z" />
    <glyph glyph-name="epsilontonos" unicode="&#x3ad;" horiz-adv-x="375" 
d="M102 264v4q-59 26 -59 89q0 75 50 108q49 33 118 33q31 0 70 -7q43 -6 62 -15q13 -6 10 -18l-4 -24q-1 -16 -26 -13q-91 8 -106 8q-93 0 -93 -71q0 -65 93 -65h38q17 0 17 -17v-30q0 -10 -3.5 -13.5t-13.5 -3.5h-38q-40 0 -67 -13q-34 -15 -34 -69q0 -48 25 -67t78 -19
q43 0 113 10q22 4 25 -12l4 -21q3 -12 -11 -20q-46 -25 -136 -25q-46 0 -84 12q-41 14 -68 50.5t-27 88.5q0 37 18 70t49 50zM290 677l-81 -132q-5 -7 -15 -3l-29 10q-8 3 -3 14l62 143q4 9 17 3l46 -20q11 -4 3 -15z" />
    <glyph glyph-name="etatonos" unicode="&#x3ae;" horiz-adv-x="436" 
d="M115 470v-24l5 -2q76 52 143 52q88 0 112 -53q21 -44 21 -130v-296q0 -17 -18 -17h-42q-17 0 -17 17l1 300q0 64 -14.5 86.5t-52.5 22.5q-49 0 -138 -47v-362q0 -17 -18 -17h-41q-16 0 -16 17v453q0 17 16 17h41q18 0 18 -17zM293 677l-81 -132q-4 -7 -15 -3l-29 10
q-8 3 -3 14l62 143q4 9 17 3l46 -20q10 -4 3 -15z" />
    <glyph glyph-name="iotatonos" unicode="&#x3af;" horiz-adv-x="194" 
d="M193 677l-81 -132q-4 -7 -15 -3l-29 10q-8 3 -3 14l62 143q4 9 17 3l46 -20q10 -4 3 -15zM135 470v-453q0 -17 -16 -17h-41q-18 0 -18 17v453q0 17 18 17h41q16 0 16 -17z" />
    <glyph glyph-name="upsilondieresistonos" unicode="&#x3b0;" horiz-adv-x="441" 
d="M366 609q0 -45 -40 -45t-40 45q0 42 40 42t40 -42zM159 609q0 -45 -40 -45q-41 0 -41 45q0 42 41 42q22 0 31 -10t9 -32zM293 680l-81 -132q-4 -8 -15 -3l-29 10q-8 3 -3 14l62 143q4 9 17 3l46 -20q10 -5 3 -15zM340 487h37q19 0 19 -18v-286q0 -190 -178 -190
q-94 0 -134 47t-40 143v286q0 18 20 18h36q11 0 15 -3.5t4 -14.5v-291q0 -61 22 -90.5t77 -29.5q101 0 101 120v291q0 18 21 18z" />
    <glyph glyph-name="alpha" unicode="&#x3b1;" horiz-adv-x="455" 
d="M323 119v278q-61 31 -115 31q-53 0 -75 -43.5t-22 -148.5q0 -104 17 -140q18 -33 59 -33q27 0 67 18q38 17 69 38zM325 49h-2q-80 -56 -146 -56q-80 0 -112 57.5t-32 187.5q0 133 40.5 195t134.5 62q64 0 116 -34v8q0 10 3.5 14t15.5 4h37q12 0 15.5 -4t3.5 -15v-369
q0 -30 3.5 -35.5t25.5 -7.5q11 -1 14 -3.5t3 -9.5v-25q0 -16 -21 -19q-15 -3 -31 -3q-34 0 -50 12t-18 41z" />
    <glyph glyph-name="beta" unicode="&#x3b2;" horiz-adv-x="436" 
d="M118 13l-4 -3v-167q0 -10 -4 -13.5t-16 -3.5h-36q-19 0 -19 17v655q0 99 47 154.5t124 55.5q78 0 119.5 -41.5t41.5 -119.5q0 -38 -17.5 -77t-51.5 -59v-5q55 -9 78.5 -52t23.5 -120q0 -129 -40.5 -186t-139.5 -57q-53 0 -106 22zM327 228q0 68 -24 95.5t-82 27.5
q-4 0 -44 -2q-19 -1 -19 12v36q0 9 3 12t14 6q63 15 91.5 43t28.5 87q0 93 -89 93q-44 0 -67.5 -36.5t-23.5 -102.5v-422q53 -18 113 -18q52 0 75.5 39.5t23.5 129.5z" />
    <glyph glyph-name="gamma" unicode="&#x3b3;" horiz-adv-x="394" 
d="M202 119h8q4 23 33 118l74 236q5 14 19 14h47q15 0 11 -16l-155 -460v-169q0 -18 -19 -18h-36q-20 0 -20 18v169l-124 398q-7 22 -23 22q-13 0 -15 8l-5 32q-1 7 12 14q28 11 45 11q25 0 35.5 -14.5t24.5 -59.5l58 -191q16 -51 30 -112z" />
    <glyph glyph-name="delta" unicode="&#x3b4;" horiz-adv-x="442" 
d="M226 634q-45 0 -62 -15.5t-17 -54.5q0 -19 14 -36q20 -20 72 -42q87 -37 129 -91q40 -52 40 -151q0 -85 -16 -137q-31 -115 -169 -115q-93 0 -137 55q-19 23 -29 60q-15 57 -15 137q0 63 25 118.5t74 87.5q-65 30 -65 112q0 69 38.5 105.5t111.5 36.5q81 0 133 -23
q11 -6 10 -19l-4 -26q-1 -13 -26 -10q-85 8 -107 8zM326 237q0 52 -11 91q-16 59 -110 91q-49 -28 -71 -68.5t-22 -113.5q0 -93 24 -135.5t82 -42.5q61 0 84.5 40.5t23.5 137.5z" />
    <glyph glyph-name="epsilon" unicode="&#x3b5;" horiz-adv-x="375" 
d="M102 264v4q-59 26 -59 89q0 75 50 108q49 33 118 33q31 0 70 -7q43 -6 62 -15q13 -6 10 -18l-4 -24q-1 -16 -26 -13q-91 8 -106 8q-93 0 -93 -71q0 -65 93 -65h38q17 0 17 -17v-30q0 -10 -3.5 -13.5t-13.5 -3.5h-38q-40 0 -67 -13q-34 -15 -34 -69q0 -48 25 -67t78 -19
q43 0 113 10q22 4 25 -12l4 -21q3 -12 -11 -20q-46 -25 -136 -25q-46 0 -84 12q-41 14 -68 50.5t-27 88.5q0 37 18 70t49 50z" />
    <glyph glyph-name="zeta" unicode="&#x3b6;" horiz-adv-x="384" 
d="M386 474v-40q0 -18 -9 -23l-50 -31l-55 -33q-21 -12 -50 -33q-45 -30 -83 -75q-34 -40 -34 -86q0 -95 190 -95l31 1q20 0 27 -16l9 -22q6 -17 -6 -40q-30 -59 -49 -134q-6 -23 -24 -16l-33 9q-15 8 -9 27q4 23 20 66q15 41 24 57q-255 0 -255 158q0 153 244 273l-1 1
h-216q-16 0 -16 17v33q0 15 15 15h316q14 0 14 -13z" />
    <glyph glyph-name="eta" unicode="&#x3b7;" horiz-adv-x="436" 
d="M115 470v-24l5 -2q76 52 143 52q88 0 112 -53q21 -44 21 -130v-296q0 -17 -18 -17h-42q-17 0 -17 17l1 300q0 64 -14.5 86.5t-52.5 22.5q-49 0 -138 -47v-362q0 -17 -18 -17h-41q-16 0 -16 17v453q0 17 16 17h41q18 0 18 -17z" />
    <glyph glyph-name="theta" unicode="&#x3b8;" horiz-adv-x="459" 
d="M425 362q0 -56 -1 -77q-1 -31 -6 -73q-5 -43 -12 -71q-18 -73 -57 -107q-49 -42 -122 -42q-55 0 -101 24q-29 15 -58 66q-15 27 -27 98q-5 23 -6 58l-2 60v64q0 106 18 184q35 157 176 162q125 0 165 -103q33 -83 33 -243zM227 641q-59 0 -85.5 -57t-30.5 -180h238
q-3 128 -30 182.5t-92 54.5zM349 341h-239q-2 -154 23 -217q26 -65 94 -65q70 0 96 65q26 66 26 217z" />
    <glyph glyph-name="iota" unicode="&#x3b9;" horiz-adv-x="194" 
d="M135 470v-453q0 -17 -16 -17h-41q-18 0 -18 17v453q0 17 18 17h41q16 0 16 -17z" />
    <glyph glyph-name="kappa" unicode="&#x3ba;" horiz-adv-x="392" 
d="M299 14l-111 210l-63 -89v-118q0 -17 -18 -17h-41q-17 0 -17 17v453q0 17 17 17h41q18 0 18 -17v-220l2 -1l61 92l92 133q10 13 22 13h52q8 0 11 -5.5t-2 -13.5l-129 -180l149 -270q4 -6 0.5 -12t-10.5 -6h-51q-15 0 -23 14z" />
    <glyph glyph-name="lambda" unicode="&#x3bb;" horiz-adv-x="400" 
d="M247 226l-38 150h-5q-22 -80 -45 -147l-71 -214q-6 -15 -18 -15h-46q-17 0 -12 17l162 465l-28 109q-11 46 -28 55q-6 3 -13 3q-17 0 -23 -1q-12 -2 -14 8l-4 32q-2 8 11 13q20 7 45 7q41 0 59.5 -17.5t32.5 -69.5l149 -545q5 -18 9 -22q3 -3 18 -5t16 -6l3 -28
q1 -10 -10 -14q-13 -5 -36 -5q-33 0 -47.5 13.5t-23.5 49.5z" />
    <glyph glyph-name="nu" unicode="&#x3bd;" horiz-adv-x="403" 
d="M399 472l-151 -459q-4 -13 -17 -13h-46q-11 0 -16 12l-152 459q-6 16 8 16h55q11 0 16 -14l84 -280q28 -96 28 -100h2l8 33l3 12q17 57 17 58l83 278q4 13 15 13h56q12 0 7 -15z" />
    <glyph glyph-name="xi" unicode="&#x3be;" horiz-adv-x="335" 
d="M125 386v3q-92 32 -92 133q0 89 46.5 138t128.5 49q96 0 137 -23q11 -5 9 -17l-4 -25q-4 -14 -20 -13l-52 4q-36 4 -59 4q-52 0 -80 -31t-27 -86q0 -28 12 -49t31.5 -31t39.5 -14.5t41 -4.5h63q14 0 14 -15v-33q0 -16 -14 -16h-59q-140 0 -140 -167q0 -88 55 -113
q46 -20 128 -20h23q14 0 18.5 -3t8.5 -13l9 -22q6 -16 -5 -40q-29 -59 -50 -134q-6 -24 -23 -16l-34 9q-15 6 -10 27q16 74 44 122q-52 -1 -92 6.5t-75.5 28t-55 63t-19.5 104.5q0 67 27 121t76 74z" />
    <glyph glyph-name="omicron" unicode="&#x3bf;" horiz-adv-x="439" 
d="M402 252q0 -89 -16 -143q-14 -56 -54.5 -85t-115.5 -32q-94 0 -138 55q-17 23 -28 62q-15 59 -15 143q0 245 181 245q93 0 138 -52q21 -24 31 -57q17 -53 17 -136zM325 245q0 101 -23.5 143t-85.5 42q-59 0 -81.5 -42.5t-22.5 -142.5q0 -101 22.5 -143.5t81.5 -42.5
q62 0 85.5 42t23.5 144z" />
    <glyph glyph-name="pi" unicode="&#x3c0;" horiz-adv-x="444" 
d="M405 469v-452q0 -17 -18 -17h-42q-16 0 -16 17v402h-211v-402q0 -17 -17 -17h-41q-17 0 -17 17v453q0 17 17 17h328q17 0 17 -18z" />
    <glyph glyph-name="rho" unicode="&#x3c1;" horiz-adv-x="442" 
d="M122 13l-6 -4v-165q0 -20 -21 -20h-35q-12 0 -16 4t-4 16v409q0 244 184 244q98 0 140.5 -60t42.5 -188q0 -135 -39.5 -196.5t-136.5 -61.5q-52 0 -109 22zM330 252q0 98 -26 139t-81 41q-56 0 -85 -46q-10 -15 -16 -47q-6 -34 -6 -87v-7v-168q58 -18 118 -18q50 0 73 41
q23 43 23 152z" />
    <glyph glyph-name="sigma1" unicode="&#x3c2;" horiz-adv-x="379" 
d="M352 140q0 -74 -45.5 -111t-121.5 -37q-89 0 -137 23q-15 8 -11 22l4 21q2 9 6.5 11.5t17.5 1.5q86 -10 123 -10q44 0 64.5 17t20.5 54q0 43 -16 59q-17 17 -64 24q-65 12 -106 37q-50 31 -50 102q0 69 41.5 106t116.5 37q81 0 133 -23q11 -6 10 -19l-4 -26
q-1 -13 -26 -10q-85 8 -114 8q-45 0 -62 -16t-17 -55q0 -34 16.5 -46.5t69.5 -21.5q63 -13 102 -38q49 -31 49 -110z" />
    <glyph glyph-name="sigma" unicode="&#x3c3;" horiz-adv-x="448" 
d="M419 417h-59l-2 -4q43 -43 43 -166q0 -25 -2 -59q-7 -77 -26 -112q-47 -88 -159 -84q-110 -4 -155 83q-12 23 -18 54q-8 50 -8 118q0 240 183 240h203q20 0 20 -18v-34q0 -10 -4 -14t-16 -4zM214 58q62 0 86.5 42t24.5 140q0 133 -58 178q-85 7 -121 -31
q-35 -40 -35 -147q0 -99 22 -140.5t81 -41.5z" />
    <glyph glyph-name="tau" unicode="&#x3c4;" horiz-adv-x="332" 
d="M318 54l4 -21q3 -13 -10 -20q-32 -20 -93 -20q-53 0 -75.5 26t-22.5 81v319h-92q-11 0 -14.5 4t-3.5 14v31q0 11 3.5 15t14.5 4h278q11 0 14.5 -4t3.5 -14v-32q0 -10 -3.5 -14t-14.5 -4h-111v-299q0 -33 10 -44.5t37 -11.5q19 0 51 3q23 3 24 -13z" />
    <glyph glyph-name="upsilon" unicode="&#x3c5;" horiz-adv-x="441" 
d="M340 487h37q19 0 19 -18v-286q0 -190 -178 -190q-94 0 -134 47t-40 143v286q0 18 20 18h36q11 0 15 -3.5t4 -14.5v-291q0 -61 22 -90.5t77 -29.5q101 0 101 120v291q0 18 21 18z" />
    <glyph glyph-name="phi" unicode="&#x3c6;" horiz-adv-x="557" 
d="M519 243q0 -113 -52.5 -179t-151.5 -73v-150q0 -17 -20 -17h-34q-21 0 -21 17v149q-204 12 -204 259q0 80 30.5 143t90.5 93q14 7 25 -8l16 -25q5 -9 -6 -17q-81 -60 -81 -194q0 -86 33.5 -134.5t96.5 -52.5v417q0 24 23 24h45q210 0 210 -252zM446 237q0 187 -131 192
v-374q131 12 131 182z" />
    <glyph glyph-name="chi" unicode="&#x3c7;" horiz-adv-x="377" 
d="M281 13l-94 170l-93 -170q-7 -13 -21 -13h-58q-7 0 -9.5 5.5t1.5 10.5l138 233l-130 222q-4 6 -1.5 11t9.5 5h57q11 0 18 -13l90 -163l89 163q7 13 18 13h59q7 0 9.5 -5t-1.5 -11l-132 -221l140 -234q4 -6 1.5 -11t-9.5 -5h-61q-13 0 -20 13z" />
    <glyph glyph-name="psi" unicode="&#x3c8;" horiz-adv-x="511" 
d="M290 -11v-147q0 -10 -4 -13.5t-15 -3.5h-34q-12 0 -16 3t-4 14v147q-91 7 -132 52.5t-41 131.5v297q0 11 4 14t16 3h35q19 0 19 -17v-295q0 -108 99 -117v452q0 10 4 13.5t16 3.5h34q11 0 15 -3.5t4 -13.5v-452q101 8 101 117v295q0 11 4 14t17 3h33q11 0 15 -3.5
t4 -13.5v-297q0 -166 -174 -184z" />
    <glyph glyph-name="omega" unicode="&#x3c9;" horiz-adv-x="649" 
d="M536 243q-1 70 -17.5 114t-56.5 75q-16 11 -8 25l14 25q8 14 24 6q79 -36 102 -112q20 -60 20 -140q0 -244 -165 -244q-42 0 -76 20t-49 52h-3q-39 -72 -119 -72q-90 0 -128 59t-38 183q0 84 18 143q23 76 100 111q16 8 24 -6l14 -25q8 -14 -8 -25q-40 -30 -54.5 -70.5
t-15.5 -112.5q0 -99 20.5 -142.5t67.5 -43.5q54 0 71 39q13 32 13 82v122q0 18 20 18h36q19 0 19 -18v-122q1 -34 6 -58q6 -26 27 -44.5t55 -18.5q45 0 66 44t21 136z" />
    <glyph glyph-name="iotadieresis" unicode="&#x3ca;" horiz-adv-x="194" 
d="M218 609q0 -45 -40 -45q-23 0 -31 11t-8 34q0 42 39 42q22 0 31 -10t9 -32zM59 609q0 -45 -39 -45q-24 0 -32.5 11t-8.5 34q0 42 41 42q39 0 39 -42zM135 470v-453q0 -17 -16 -17h-41q-18 0 -18 17v453q0 17 18 17h41q16 0 16 -17z" />
    <glyph glyph-name="upsilondieresis" unicode="&#x3cb;" horiz-adv-x="441" 
d="M340 487h37q19 0 19 -18v-286q0 -190 -178 -190q-94 0 -134 47t-40 143v286q0 18 20 18h36q11 0 15 -3.5t4 -14.5v-291q0 -61 22 -90.5t77 -29.5q101 0 101 120v291q0 18 21 18zM339 609q0 -45 -40 -45q-23 0 -31 11t-8 34q0 42 39 42q22 0 31 -10t9 -32zM180 609
q0 -45 -39 -45q-24 0 -32.5 11t-8.5 34q0 42 41 42q39 0 39 -42z" />
    <glyph glyph-name="omicrontonos" unicode="&#x3cc;" horiz-adv-x="439" 
d="M402 252q0 -89 -16 -143q-14 -56 -54.5 -85t-115.5 -32q-94 0 -138 55q-17 23 -28 62q-15 59 -15 143q0 245 181 245q93 0 138 -52q21 -24 31 -57q17 -53 17 -136zM325 245q0 101 -23.5 143t-85.5 42q-59 0 -81.5 -42.5t-22.5 -142.5q0 -101 22.5 -143.5t81.5 -42.5
q62 0 85.5 42t23.5 144zM312 677l-81 -132q-5 -7 -15 -3l-29 10q-8 3 -3 14l62 143q4 9 17 3l46 -20q11 -4 3 -15z" />
    <glyph glyph-name="upsilontonos" unicode="&#x3cd;" horiz-adv-x="441" 
d="M340 487h37q19 0 19 -18v-286q0 -190 -178 -190q-94 0 -134 47t-40 143v286q0 18 20 18h36q11 0 15 -3.5t4 -14.5v-291q0 -61 22 -90.5t77 -29.5q101 0 101 120v291q0 18 21 18zM308 677l-81 -132q-5 -7 -15 -3l-29 10q-8 3 -3 14l62 143q4 9 17 3l46 -20q11 -4 3 -15z
" />
    <glyph glyph-name="omegatonos" unicode="&#x3ce;" horiz-adv-x="649" 
d="M536 243q-1 70 -17.5 114t-56.5 75q-16 11 -8 25l14 25q8 14 24 6q79 -36 102 -112q20 -60 20 -140q0 -244 -165 -244q-42 0 -76 20t-49 52h-3q-39 -72 -119 -72q-90 0 -128 59t-38 183q0 84 18 143q23 76 100 111q16 8 24 -6l14 -25q8 -14 -8 -25q-40 -30 -54.5 -70.5
t-15.5 -112.5q0 -99 20.5 -142.5t67.5 -43.5q54 0 71 39q13 32 13 82v122q0 18 20 18h36q19 0 19 -18v-122q1 -34 6 -58q6 -26 27 -44.5t55 -18.5q45 0 66 44t21 136zM419 677l-81 -132q-4 -7 -15 -3l-29 10q-8 3 -3 14l62 143q4 9 17 3l46 -20q10 -4 3 -15z" />
    <glyph glyph-name="uni0400" unicode="&#x400;" horiz-adv-x="439" 
d="M409 54v-38q0 -16 -17 -16h-317q-18 0 -18 16v630q0 17 18 17h306q17 0 17 -16v-39q0 -17 -18 -17h-245v-206h219q17 0 17 -16v-38q0 -16 -17 -16h-219v-244h258q16 0 16 -17zM123 808l28 40q9 14 20 3l110 -94q10 -7 4 -15l-18 -23q-7 -9 -18 -3l-120 75q-12 7 -6 17z
" />
    <glyph glyph-name="afii10023" unicode="&#x401;" horiz-adv-x="439" 
d="M409 54v-38q0 -16 -17 -16h-317q-18 0 -18 16v630q0 17 18 17h306q17 0 17 -16v-39q0 -17 -18 -17h-245v-206h219q17 0 17 -16v-38q0 -16 -17 -16h-219v-244h258q16 0 16 -17zM262 777q0 42 38 42q23 0 31 -11q9 -10 9 -31t-8 -33q-8 -11 -32 -11q-23 0 -30.5 10.5
t-7.5 33.5zM191 777q0 -22 -8.5 -33t-30.5 -11q-24 0 -32 10.5t-8 33.5q0 42 40 42q22 0 30.5 -9.5t8.5 -32.5z" />
    <glyph glyph-name="afii10051" unicode="&#x402;" horiz-adv-x="619" 
d="M248 324v-306q0 -18 -20 -18h-37q-21 0 -21 18v572h-142q-11 0 -15 4t-4 14v38q0 17 19 17h436q18 0 18 -17v-38q0 -10 -4 -14t-15 -4h-215v-187q88 52 157 52q80 0 124.5 -57.5t44.5 -163.5q0 -158 -73 -262q-16 -22 -45.5 -46.5t-55.5 -36.5q-10 -5 -15 -5.5t-8 2.5
t-7 12l-9 22q-6 13 7 20q127 85 127 301q0 144 -98 144q-67 0 -149 -61z" />
    <glyph glyph-name="afii10052" unicode="&#x403;" horiz-adv-x="395" 
d="M384 591h-246v-574q0 -17 -17 -17h-42q-18 0 -18 17v630q0 16 19 16h305q17 0 17 -16v-39q0 -17 -18 -17zM284 848l28 -40q6 -10 -6 -17l-120 -75q-10 -6 -18 3l-18 23q-6 8 4 15l110 94q11 11 20 -3z" />
    <glyph glyph-name="afii10053" unicode="&#x404;" horiz-adv-x="468" 
d="M278 594q-75 0 -107.5 -53.5t-35.5 -160.5h219q17 0 17 -16v-39q0 -16 -17 -16h-220q0 -100 27 -168q31 -73 117 -73q53 0 146 11q16 1 20 -12l5 -26q3 -17 -11 -22q-66 -27 -164 -27q-132 0 -181 102q-42 88 -42 230q0 146 41 237q49 108 186 108q96 0 159 -25
q16 -7 13 -22l-6 -28q-4 -12 -19 -11q-85 11 -147 11z" />
    <glyph glyph-name="afii10054" unicode="&#x405;" horiz-adv-x="458" 
d="M427 184q0 -98 -54.5 -145.5t-149.5 -47.5q-109 0 -168 28q-19 8 -14 23l6 28q3 14 22 11q117 -14 153 -14q61 0 93.5 27.5t32.5 77.5q0 66 -24 92t-91 39q-83 16 -134 48q-58 36 -58 130q0 91 50 139.5t143 48.5q100 0 158 -26q19 -8 14 -23l-5 -24q-2 -15 -24 -13
q-95 13 -143 13q-60 0 -86.5 -28t-26.5 -84q0 -54 24 -74q27 -19 95 -32t108 -36q79 -40 79 -158z" />
    <glyph glyph-name="afii10055" unicode="&#x406;" horiz-adv-x="221" 
d="M150 645v-628q0 -17 -17 -17h-44q-18 0 -18 17v628q0 18 18 18h44q17 0 17 -18z" />
    <glyph glyph-name="afii10056" unicode="&#x407;" horiz-adv-x="221" 
d="M147 777q0 42 38 42q23 0 31 -11q9 -10 9 -31t-8 -33q-8 -11 -32 -11q-23 0 -30.5 10.5t-7.5 33.5zM76 777q0 -22 -8.5 -33t-30.5 -11q-24 0 -32 10.5t-8 33.5q0 42 40 42q22 0 30.5 -9.5t8.5 -32.5zM150 645v-628q0 -17 -17 -17h-44q-18 0 -18 17v628q0 18 18 18h44
q17 0 17 -18z" />
    <glyph glyph-name="afii10057" unicode="&#x408;" horiz-adv-x="364" 
d="M300 645v-485q0 -169 -161 -169q-66 0 -118 21q-19 9 -15 24l7 29q3 13 18 10q64 -9 100 -9q48 0 69 24t21 77v478q0 18 18 18h43q18 0 18 -18z" />
    <glyph glyph-name="afii10058" unicode="&#x409;" horiz-adv-x="754" 
d="M357 17v573h-152l-12 -220l-5 -82q-2 -30 -6 -72q-5 -58 -24 -119q-13 -45 -48 -77q-29 -28 -86 -28q-15 0 -19.5 3.5t-4.5 14.5l-1 29q0 12 14 14q60 12 76 75q19 67 29 265l14 251q1 19 22 19h262q21 0 21 -19v-254h129q51 0 88 -17.5t56 -48t27 -63t8 -69.5
q0 -91 -51 -141.5t-133 -50.5h-183q-21 0 -21 17zM667 193q0 127 -103 127h-127v-250h119q52 0 81.5 32t29.5 91z" />
    <glyph glyph-name="afii10059" unicode="&#x40a;" horiz-adv-x="738" 
d="M720 192q0 -91 -51 -141.5t-133 -50.5h-182q-22 0 -22 17v297h-196v-296q0 -18 -20 -18h-38q-21 0 -21 18v626q0 19 21 19h38q20 0 20 -19v-257h196v257q0 18 22 18h36q21 0 21 -18v-257h126q108 0 148 -64q35 -56 35 -131zM642 193q0 121 -104 121h-127v-244h120
q52 0 81.5 32t29.5 91z" />
    <glyph glyph-name="afii10060" unicode="&#x40b;" horiz-adv-x="599" 
d="M563 272v-254q0 -18 -22 -18h-32q-21 0 -21 18v264q0 57 -21 80.5t-64 23.5q-50 0 -154 -62v-306q0 -18 -20 -18h-38q-21 0 -21 18v572h-140q-21 0 -21 18v38q0 17 21 17h428q21 0 21 -17v-38q0 -18 -22 -18h-208v-188q85 56 164 56q90 0 120 -47t30 -139z" />
    <glyph glyph-name="afii10061" unicode="&#x40c;" horiz-adv-x="478" 
d="M305 345v-4q74 -23 101 -129l48 -187q8 -25 -18 -25h-38q-22 0 -26 19l-45 180q-14 57 -44 80t-78 23h-73v-285q0 -17 -16 -17h-43q-18 0 -18 17v628q0 18 18 18h43q16 0 16 -18v-272h68q24 0 46 5q21 6 43 30t32 62l47 173q4 19 25 19h33q26 0 18 -25l-44 -169
q-12 -48 -37 -80.5t-58 -42.5zM315 848l28 -40q6 -10 -6 -17l-120 -75q-11 -6 -18 3l-18 23q-6 8 4 15l110 94q11 11 20 -3z" />
    <glyph glyph-name="uni040D" unicode="&#x40d;" horiz-adv-x="547" 
d="M58 16v629q0 18 16 18h41q18 0 18 -18v-499h3l26 52l39 76l206 373q10 16 25 16h41q16 0 16 -15v-631q0 -17 -18 -17h-41q-17 0 -17 17v505h-3q-30 -64 -77 -150l-195 -356q-10 -16 -26 -16h-38q-16 0 -16 16zM178 808l28 40q9 14 20 3l110 -94q10 -7 4 -15l-18 -23
q-8 -9 -18 -3l-120 75q-12 7 -6 17z" />
    <glyph glyph-name="afii10062" unicode="&#x40e;" horiz-adv-x="465" 
d="M239 248h6q53 174 65 209l62 184q7 22 27 22h42q18 0 14 -16l-175 -505q-32 -84 -58 -117q-27 -34 -77 -34q-26 0 -56 5q-24 4 -21 23l4 26q3 16 22 15q39 -4 60 9t37 50l12 32l-182 497q-5 14 13 14h52q18 0 22 -13l68 -201q44 -130 63 -200zM246 696q-40 0 -76 25.5
t-57 70.5q-7 13 1 21l18 16q10 9 21 -3l33 -41q30 -30 62 -30q19 0 42 18q7 5 20 22t26 31q10 10 20 3l18 -14q10 -7 2 -22q-21 -44 -57 -70.5t-73 -26.5z" />
    <glyph glyph-name="afii10145" unicode="&#x40f;" horiz-adv-x="519" 
d="M445 0h-141l-6 -131q-2 -21 -16 -21h-41q-9 0 -12.5 3t-4.5 15l-6 134h-141q-18 0 -18 18v628q0 17 18 17h43q16 0 16 -17v-574h248v574q0 17 18 17h43q16 0 16 -17v-628q0 -18 -16 -18z" />
    <glyph glyph-name="afii10017" unicode="&#x410;" horiz-adv-x="477" 
d="M384 13l-42 165h-204l-42 -162q-4 -16 -21 -16h-52q-14 0 -8 16l182 631q5 15 19 15h56q14 0 19 -15l179 -633q5 -14 -8 -14h-61q-13 0 -17 13zM244 568h-3q-23 -93 -33 -129l-52 -192h169l-49 189q-26 104 -32 132z" />
    <glyph glyph-name="afii10018" unicode="&#x411;" horiz-adv-x="462" 
d="M400 646v-39q0 -17 -18 -17h-246v-201h112q196 0 196 -197q0 -91 -55 -141.5t-146 -50.5h-167q-18 0 -18 16v630q0 15 13 16h312q17 0 17 -16zM367 193q0 63 -27 95t-94 32h-110v-250h101q130 0 130 123z" />
    <glyph glyph-name="afii10019" unicode="&#x412;" horiz-adv-x="485" 
d="M455 182q0 -81 -53 -132q-53 -50 -128 -50h-195q-21 0 -21 17v629q0 16 18 16h165q93 0 143.5 -45.5t50.5 -124.5q0 -45 -21 -84.5t-64 -59.5l1 -1q55 -16 79 -65q25 -47 25 -100zM353 486q0 49 -31.5 77.5t-90.5 28.5h-96v-213h111q44 0 75.5 31t31.5 76zM373 189
q0 53 -32.5 86.5t-91.5 33.5h-114v-238h114q124 0 124 118z" />
    <glyph glyph-name="afii10020" unicode="&#x413;" horiz-adv-x="395" 
d="M384 591h-246v-574q0 -17 -17 -17h-42q-18 0 -18 17v630q0 16 19 16h305q17 0 17 -16v-39q0 -17 -18 -17z" />
    <glyph glyph-name="afii10021" unicode="&#x414;" horiz-adv-x="567" 
d="M478 -128l-6 128h-385l-6 -128q-1 -13 -4.5 -17t-12.5 -4h-38q-12 0 -14 21l-7 171q-1 19 17 24l30 7q35 35 48 76q16 46 23 127l29 365q2 21 24 21h305q16 0 16 -18v-572l44 -4q16 -1 14 -21l-10 -176q-1 -21 -13 -21h-40q-12 0 -14 21zM142 72h278v519h-198l-22 -301
q-7 -93 -20 -143q-10 -46 -38 -75z" />
    <glyph glyph-name="afii10022" unicode="&#x415;" horiz-adv-x="439" 
d="M409 54v-38q0 -16 -17 -16h-317q-18 0 -18 16v630q0 17 18 17h306q17 0 17 -16v-39q0 -17 -18 -17h-245v-206h219q17 0 17 -16v-38q0 -16 -17 -16h-219v-244h258q16 0 16 -17z" />
    <glyph glyph-name="afii10024" unicode="&#x416;" horiz-adv-x="733" 
d="M561 345v-4q74 -23 101 -129l48 -187q8 -25 -18 -25h-38q-22 0 -26 19l-45 180q-14 57 -44 80t-78 23h-53v-285q0 -17 -16 -17h-43q-18 0 -18 17v285h-53q-48 0 -78 -23t-44 -80l-45 -180q-4 -19 -26 -19h-38q-26 0 -18 25l48 187q27 106 101 129v4q-33 10 -58 42.5
t-37 80.5l-44 169q-8 25 18 25h33q21 0 25 -19l47 -173q15 -55 44.5 -76t76.5 -21h48v272q0 18 18 18h43q16 0 16 -18v-272h48q24 0 46 5q21 6 43 30t32 62l47 173q4 19 25 19h33q26 0 18 -25l-44 -169q-12 -48 -37 -80.5t-58 -42.5z" />
    <glyph glyph-name="afii10025" unicode="&#x417;" horiz-adv-x="421" 
d="M289 354v-4q50 -12 80.5 -55t30.5 -108q0 -92 -59 -144t-157 -52q-34 0 -90 8t-81 20q-16 7 -13 23l5 24q1 16 21 13q111 -16 154 -16q137 0 137 127q0 66 -39.5 95.5t-127.5 29.5q-12 0 -14.5 2.5t-2.5 13.5v33q0 12 3 15.5t14 3.5q82 0 117.5 24t35.5 83q0 70 -38 91
q-30 17 -71 17q-44 0 -126 -12q-23 -5 -25 13l-5 23q-1 16 13 23q63 28 154 28q96 0 139.5 -42.5t43.5 -131.5q0 -49 -28.5 -90.5t-70.5 -54.5z" />
    <glyph glyph-name="afii10026" unicode="&#x418;" horiz-adv-x="547" 
d="M58 16v629q0 18 16 18h41q18 0 18 -18v-499h3l26 52l39 76l206 373q10 16 25 16h41q16 0 16 -15v-631q0 -17 -18 -17h-41q-17 0 -17 17v505h-3q-30 -64 -77 -150l-195 -356q-10 -16 -26 -16h-38q-16 0 -16 16z" />
    <glyph glyph-name="afii10027" unicode="&#x419;" horiz-adv-x="547" 
d="M58 16v629q0 18 16 18h41q18 0 18 -18v-499h3l26 52l39 76l206 373q10 16 25 16h41q16 0 16 -15v-631q0 -17 -18 -17h-41q-17 0 -17 17v505h-3q-30 -64 -77 -150l-195 -356q-10 -16 -26 -16h-38q-16 0 -16 16zM275 696q-40 0 -76 25.5t-57 70.5q-7 13 1 21l18 16
q11 9 21 -3l33 -41q30 -30 62 -30q19 0 42 18q7 5 20 22t26 31q10 10 20 3l18 -14q10 -7 2 -22q-21 -44 -57 -70.5t-73 -26.5z" />
    <glyph glyph-name="afii10028" unicode="&#x41a;" horiz-adv-x="478" 
d="M305 345v-4q74 -23 101 -129l48 -187q8 -25 -18 -25h-38q-22 0 -26 19l-45 180q-14 57 -44 80t-78 23h-73v-285q0 -17 -16 -17h-43q-18 0 -18 17v628q0 18 18 18h43q16 0 16 -18v-272h68q24 0 46 5q21 6 43 30t32 62l47 173q4 19 25 19h33q26 0 18 -25l-44 -169
q-12 -48 -37 -80.5t-58 -42.5z" />
    <glyph glyph-name="afii10029" unicode="&#x41b;" horiz-adv-x="510" 
d="M375 590h-170l-15 -283q0 -5 -4 -70q-1 -11 -7 -64q-4 -36 -12 -59q-20 -65 -48 -88q-38 -34 -95 -34q-15 0 -20 3.5t-5 14.5l-1 29q0 11 18 15q58 15 74 78q18 68 28 261l14 251q0 19 22 19h280q20 0 20 -19v-626q0 -18 -20 -18h-37q-22 0 -22 18v572z" />
    <glyph glyph-name="afii10030" unicode="&#x41c;" horiz-adv-x="643" 
d="M584 648v-631q0 -17 -17 -17h-43q-18 0 -18 17v454h-3q-19 -55 -61 -154l-85 -201q-6 -13 -20 -13h-29q-15 0 -21 12l-94 213q-23 51 -59 143h-2v-454q0 -17 -16 -17h-42q-17 0 -17 17v631q0 15 15 15h44q14 0 22 -15l124 -292l59 -148h3q13 39 57 146l123 293
q9 16 25 16h40q15 0 15 -15z" />
    <glyph glyph-name="afii10031" unicode="&#x41d;" horiz-adv-x="518" 
d="M460 645v-628q0 -17 -16 -17h-43q-18 0 -18 17v298h-248v-298q0 -17 -16 -17h-43q-18 0 -18 17v628q0 18 18 18h43q16 0 16 -18v-258h248v258q0 18 18 18h43q16 0 16 -18z" />
    <glyph glyph-name="afii10032" unicode="&#x41e;" horiz-adv-x="555" 
d="M506 341q0 -50 -3 -86q-7 -106 -32 -154q-54 -115 -196 -110q-140 -5 -194 110q-14 28 -22 74q-11 73 -11 166q0 100 20 175q13 45 37 79q57 76 171 76q115 0 170 -67q24 -27 38 -75q22 -71 22 -188zM426 331q0 141 -34.5 205.5t-116.5 64.5q-77 0 -111 -67t-34 -203
q0 -138 32.5 -203t112.5 -65q82 0 116.5 64.5t34.5 203.5z" />
    <glyph glyph-name="afii10033" unicode="&#x41f;" horiz-adv-x="526" 
d="M472 644v-627q0 -17 -20 -17h-35q-22 0 -22 17v572h-260v-572q0 -17 -19 -17h-37q-21 0 -21 17v627q0 11 4 15t15 4h377q11 0 14.5 -4t3.5 -15z" />
    <glyph glyph-name="afii10034" unicode="&#x420;" horiz-adv-x="448" 
d="M429 470q0 -77 -39 -134q-44 -67 -159 -67h-96v-252q0 -17 -17 -17h-43q-18 0 -18 17v630q0 16 18 16h155q92 0 145.5 -50.5t53.5 -142.5zM352 469q0 123 -128 123h-89v-254h95q66 0 94 34t28 97z" />
    <glyph glyph-name="afii10035" unicode="&#x421;" horiz-adv-x="468" 
d="M278 594q-73 0 -107 -53q-15 -23 -24 -60q-13 -60 -13 -157q0 -109 25 -177q31 -79 119 -79q53 0 146 11q16 1 20 -12l5 -26q3 -17 -11 -22q-66 -27 -164 -27q-132 0 -181 102q-42 88 -42 230q0 146 41 237q49 108 186 108q96 0 159 -25q16 -7 13 -22l-6 -28
q-4 -12 -19 -11q-85 11 -147 11z" />
    <glyph glyph-name="afii10036" unicode="&#x422;" horiz-adv-x="418" 
d="M410 647v-39q0 -17 -18 -17h-145v-574q0 -17 -16 -17h-43q-18 0 -18 17v574h-143q-18 0 -18 17v39q0 16 17 16h367q17 0 17 -16z" />
    <glyph glyph-name="afii10037" unicode="&#x423;" horiz-adv-x="465" 
d="M239 248h6q53 174 65 209l62 184q7 22 27 22h42q18 0 14 -16l-175 -505q-32 -84 -58 -117q-27 -34 -77 -34q-26 0 -56 5q-24 4 -21 23l4 26q3 16 22 15q39 -4 60 9t37 50l12 32l-182 497q-5 14 13 14h52q18 0 22 -13l68 -201q44 -130 63 -200z" />
    <glyph glyph-name="afii10038" unicode="&#x424;" horiz-adv-x="659" 
d="M374 72v-55q0 -17 -17 -17h-44q-18 0 -18 17v55q-141 7 -200 91q-49 74 -48 175q1 32 7.5 63t24 65t44 60.5t71 46t101.5 24.5v48q0 18 18 18h44q17 0 17 -18v-48q146 -14 200 -99q47 -70 47 -160q0 -107 -59 -181q-58 -73 -188 -85zM121 335q0 -90 42 -137t132 -57v387
q-174 -16 -174 -193zM543 334q0 83 -42.5 134.5t-126.5 59.5v-388q84 6 126.5 56t42.5 138z" />
    <glyph glyph-name="afii10039" unicode="&#x425;" horiz-adv-x="454" 
d="M363 14l-129 257l-129 -257q-8 -14 -23 -14h-57q-15 0 -7 15l175 330l-160 302q-4 6 -2 11t9 5h58q14 0 21 -13l115 -232l115 231q7 13 23 13h54q7 1 9.5 -4.5t-0.5 -10.5l-161 -302l176 -331q8 -14 -8 -14h-57q-14 0 -22 14z" />
    <glyph glyph-name="afii10040" unicode="&#x426;" horiz-adv-x="519" 
d="M435 -127l-6 127h-353q-18 0 -18 18v628q0 17 18 17h43q16 0 16 -17v-574h247v574q0 17 18 17h43q16 0 16 -17v-572l39 -4q14 -3 14 -21l-10 -176q-2 -21 -13 -21h-40q-13 0 -14 21z" />
    <glyph glyph-name="afii10041" unicode="&#x427;" horiz-adv-x="496" 
d="M361 364v282q0 17 20 17h36q21 0 21 -17v-628q0 -18 -21 -18h-36q-20 0 -20 18v275q-63 -25 -153 -25q-168 0 -168 184v192q0 19 21 19h36q21 0 21 -19v-174q0 -53 15 -87q19 -39 87 -39q78 0 141 20z" />
    <glyph glyph-name="afii10042" unicode="&#x428;" horiz-adv-x="707" 
d="M650 647v-628q0 -19 -16 -19h-558q-18 0 -18 19v628q0 17 18 17h43q16 0 16 -17v-574h181v572q0 18 18 18h44q17 0 17 -18v-572h178v574q0 17 18 17h43q16 0 16 -17z" />
    <glyph glyph-name="afii10043" unicode="&#x429;" horiz-adv-x="710" 
d="M625 -127l-6 127h-543q-18 0 -18 19v628q0 17 18 17h43q16 0 16 -17v-574h181v572q0 18 18 18h44q17 0 17 -18v-573h178v575q0 17 18 17h43q16 0 16 -17v-573l38 -4q14 -3 14 -21l-10 -176q-2 -21 -13 -21h-40q-13 0 -14 21z" />
    <glyph glyph-name="afii10044" unicode="&#x42a;" horiz-adv-x="603" 
d="M572 192q0 -91 -55 -141.5t-146 -50.5h-169q-18 0 -18 16v574h-166q-18 0 -18 17v39q0 16 17 16h228q17 0 17 -17v-256h110q200 0 200 -197zM495 193q0 127 -121 127h-112v-250h103q130 0 130 123z" />
    <glyph glyph-name="afii10045" unicode="&#x42b;" horiz-adv-x="662" 
d="M451 192q0 -91 -55 -141.5t-146 -50.5h-165q-18 0 -18 16v629q0 17 18 17h43q17 0 17 -17v-256h106q118 0 162 -65q38 -54 38 -132zM374 193q0 127 -121 127h-108v-250h99q130 0 130 123zM602 645v-628q0 -17 -17 -17h-44q-18 0 -18 17v628q0 18 18 18h44q17 0 17 -18z
" />
    <glyph glyph-name="afii10046" unicode="&#x42c;" horiz-adv-x="465" 
d="M441 192q0 -91 -55 -141.5t-146 -50.5h-165q-18 0 -18 16v629q0 17 18 17h43q17 0 17 -17v-256h106q118 0 162 -65q38 -54 38 -132zM364 193q0 127 -121 127h-108v-250h99q130 0 130 123z" />
    <glyph glyph-name="afii10047" unicode="&#x42d;" horiz-adv-x="468" 
d="M218 -8q-101 0 -159 26q-16 7 -14 23l5 28q2 17 23 12q95 -14 145 -14q144 0 152 248h-215q-10 0 -13 3.5t-3 13.5v36q0 10 3 13.5t13 3.5h214q-4 97 -27 146q-13 31 -41 48q-26 16 -68 16q-44 0 -135 -13q-23 -3 -25 12l-4 26q-1 16 13 23q55 27 151 27q110 0 162 -66
q23 -28 36 -75q22 -71 22 -191q0 -346 -235 -346z" />
    <glyph glyph-name="afii10048" unicode="&#x42e;" horiz-adv-x="725" 
d="M680 341q0 -36 -2 -82q-7 -108 -30 -153q-24 -52 -72 -85t-120 -30q-108 0 -159 69q-23 30 -36 76q-21 76 -22 178h-103v-296q0 -18 -19 -18h-38q-21 0 -21 18v626q0 19 21 19h38q19 0 19 -19v-256h104q5 90 28 151q44 127 188 132q114 0 167 -69q22 -28 36 -76
q21 -70 21 -185zM600 331q0 145 -31 207.5t-113 62.5q-75 0 -105 -65t-30 -205q0 -139 30 -203.5t105 -64.5q79 0 111.5 64.5t32.5 203.5z" />
    <glyph glyph-name="afii10049" unicode="&#x42f;" horiz-adv-x="474" 
d="M141 308v5q-45 14 -68.5 56t-23.5 97q0 95 56 146q57 51 139 51h159q17 0 17 -16v-630q0 -17 -17 -17h-43q-17 0 -17 18v270h-80q-93 0 -118 -102l-42 -167q-4 -19 -25 -19h-35q-26 0 -18 25l43 174q21 85 73 109zM130 473q0 -116 131 -116h82v234h-88q-46 0 -86 -28
q-39 -29 -39 -90z" />
    <glyph glyph-name="afii10065" unicode="&#x430;" horiz-adv-x="449" 
d="M314 119v114h-115q-89 0 -89 -100q0 -40 13.5 -55t48.5 -15q59 0 142 56zM156 -8q-64 0 -93.5 34t-29.5 104q0 87 40.5 127.5t129.5 40.5h111v28q0 54 -24 77.5t-77 23.5q-43 0 -120 -9q-17 -3 -20 9l-6 28q-3 15 16 22q58 20 143 20q100 0 131 -46q33 -47 33 -138v-214
v-6q0 -24 4 -29.5t25 -7.5q17 -2 17 -13v-25q0 -16 -20 -19q-18 -3 -33 -3q-33 0 -48.5 12t-18.5 40l-2 1q-82 -57 -158 -57z" />
    <glyph glyph-name="afii10066" unicode="&#x431;" horiz-adv-x="438" 
d="M124 467l5 -2q46 23 105 23q110 0 142 -80q30 -67 26 -177q-2 -78 -20 -130q-38 -109 -172 -109q-110 0 -148 80q-29 64 -29 159q0 185 26 277q37 127 145 161q59 20 144 37q18 4 21 -11l7 -28q5 -20 -13 -24q-60 -14 -104 -27q-70 -21 -98 -51q-28 -28 -37 -98zM230 420
q-58 0 -109 -25q-8 -59 -8 -176q0 -70 16 -111q20 -50 86 -50q72 0 92 56q18 50 18 109q1 94 -15 141q-17 56 -80 56z" />
    <glyph glyph-name="afii10067" unicode="&#x432;" horiz-adv-x="423" 
d="M318 260l-1 -5q35 -14 54 -46.5t19 -68.5q0 -62 -44 -101t-111 -39h-168q-26 0 -26 20v449q0 18 22 18h159q154 0 154 -128q0 -28 -15 -56t-43 -43zM313 143q0 78 -80 78h-116v-151h101q50 0 72.5 20.5t22.5 52.5zM217 419h-100v-133h110q33 0 53 19.5t20 49.5
q0 64 -83 64z" />
    <glyph glyph-name="afii10068" unicode="&#x433;" horiz-adv-x="366" 
d="M358 467v-29q0 -12 -4 -16t-17 -4h-218v-398q0 -11 -4.5 -15.5t-16.5 -4.5h-31q-24 0 -24 20v447q0 20 24 20h271q20 0 20 -20z" />
    <glyph glyph-name="afii10069" unicode="&#x434;" horiz-adv-x="492" 
d="M134 70h219v347h-149l-21 -158q-13 -97 -23 -131q-7 -30 -26 -58zM428 462v-393l34 -4q15 -1 14 -22l-10 -155q-2 -21 -13 -21h-37q-12 0 -14 21l-4 112h-318l-8 -112q-2 -21 -13 -21h-38q-9 0 -11.5 3t-2.5 15l-3 157q0 11 3 15t14 7l23 8q33 19 47 72l12 67l31 231
q4 25 16 35t42 10h210q26 0 26 -25z" />
    <glyph glyph-name="afii10070" unicode="&#x435;" horiz-adv-x="420" 
d="M215 430q-51 0 -75 -35.5t-26 -112.5h204q-1 64 -20 102q-19 46 -83 46zM218 -9q-92 0 -135 50q-19 22 -31 57q-17 53 -17 145q0 78 16 130q32 119 166 124q108 0 146 -71q31 -58 33 -150q2 -57 -43 -57h-239q1 -86 26 -121t83 -35q48 0 122 10q19 3 23 -13l4 -22
q3 -14 -11 -20q-65 -27 -143 -27z" />
    <glyph glyph-name="afii10072" unicode="&#x436;" horiz-adv-x="586" 
d="M461 255v-2q35 -10 51 -41q12 -22 26 -68l36 -123q8 -21 -15 -21h-41q-17 0 -21 16l-33 112q-15 51 -37.5 68t-64.5 17h-29v-199q0 -14 -14 -14h-47q-15 0 -15 14v199h-29q-42 0 -64.5 -17t-37.5 -68l-33 -112q-4 -16 -21 -16h-41q-23 0 -15 21l36 123q14 46 26 68
q16 31 51 41v2q-22 6 -36.5 30.5t-30.5 73.5l-32 107q-11 21 15 21h37q17 0 21 -16l34 -110q15 -47 37 -64t58 -17h25v192q0 15 15 15h47q14 0 14 -15v-192h25q36 0 58 17t37 64l34 110q4 16 21 16h37q23 0 15 -21l-32 -107q-16 -49 -30.5 -73.5t-36.5 -30.5z" />
    <glyph glyph-name="afii10073" unicode="&#x437;" horiz-adv-x="358" 
d="M2 37l5 21q4 17 25 13q59 -10 111 -10q54 0 79 19t25 67q0 45 -27 64t-87 19q-11 0 -14 2.5t-3 12.5v32q0 9 3 11.5t14 2.5q55 0 80 15.5t25 51.5q0 70 -78 70q-48 0 -109 -8q-23 -4 -24 14l-4 23q-1 11 12 18q22 11 62 17q42 6 68 6q153 0 153 -132q0 -31 -18 -59
t-48 -43q76 -28 76 -112q0 -81 -47 -120.5t-127 -39.5q-95 0 -141 26q-14 8 -11 19z" />
    <glyph glyph-name="afii10074" unicode="&#x438;" horiz-adv-x="450" 
d="M331 20v326l-4 1q-25 -45 -71 -113l-148 -219q-11 -15 -28 -15h-17q-11 0 -15.5 4.5t-4.5 15.5v446q0 12 4.5 16.5t15.5 4.5h33q22 0 22 -21v-310l6 -1q33 55 85 133l124 184q13 15 27 15h25q21 0 21 -19v-448q0 -20 -22 -20h-30q-23 0 -23 20z" />
    <glyph glyph-name="afii10075" unicode="&#x439;" horiz-adv-x="450" 
d="M331 20v326l-4 1q-25 -45 -71 -113l-148 -219q-11 -15 -28 -15h-17q-11 0 -15.5 4.5t-4.5 15.5v446q0 12 4.5 16.5t15.5 4.5h33q22 0 22 -21v-310l6 -1q33 55 85 133l124 184q13 15 27 15h25q21 0 21 -19v-448q0 -20 -22 -20h-30q-23 0 -23 20zM228 543q-40 0 -76 25.5
t-57 70.5q-7 13 1 21l18 16q10 9 21 -3l33 -41q30 -30 62 -30q19 0 42 18q7 5 20 22q12 18 26 31q10 10 20 3l18 -14q10 -7 2 -22q-21 -44 -57 -70.5t-73 -26.5z" />
    <glyph glyph-name="afii10076" unicode="&#x43a;" horiz-adv-x="396" 
d="M263 255v-2q35 -10 51 -41q12 -22 26 -68l36 -123q8 -21 -15 -21h-41q-17 0 -21 16l-33 112q-15 51 -37.5 68t-64.5 17h-45v-199q0 -14 -14 -14h-47q-15 0 -15 14v458q0 15 15 15h47q14 0 14 -15v-192h41q36 0 58 17t37 64l34 110q4 16 21 16h37q23 0 15 -21l-32 -107
q-16 -49 -30.5 -73.5t-36.5 -30.5z" />
    <glyph glyph-name="afii10077" unicode="&#x43b;" horiz-adv-x="442" 
d="M171 487h204q23 0 23 -21v-446q0 -20 -21 -20h-33q-21 0 -21 20v398h-145l-17 -250q-6 -78 -27 -120q-25 -55 -112 -57q-22 0 -22 16v27q0 7 2 9.5t11 4.5q41 12 57 43.5t22 100.5l21 246q3 27 16.5 38t41.5 11z" />
    <glyph glyph-name="afii10078" unicode="&#x43c;" horiz-adv-x="521" 
d="M262 170h2q6 17 49 110l92 191q7 16 27 16h28q19 0 19 -19v-448q0 -20 -21 -20h-32q-22 0 -22 20v281h-4l-102 -214q-8 -14 -24 -14h-25q-17 0 -24 13l-104 216h-3v-282q0 -20 -22 -20h-32q-21 0 -21 20v448q0 19 20 19h33q18 0 26 -15l91 -190q37 -81 49 -112z" />
    <glyph glyph-name="afii10079" unicode="&#x43d;" horiz-adv-x="447" 
d="M403 466v-446q0 -20 -22 -20h-29q-24 0 -24 20v205h-210v-205q0 -20 -22 -20h-31q-22 0 -22 20v446q0 21 22 21h31q22 0 22 -21v-174h210v174q0 21 24 21h29q22 0 22 -21z" />
    <glyph glyph-name="afii10080" unicode="&#x43e;" horiz-adv-x="439" 
d="M402 252q0 -89 -16 -143q-14 -56 -54.5 -85t-115.5 -32q-94 0 -138 55q-17 23 -28 62q-15 59 -15 143q0 245 181 245q93 0 138 -52q21 -24 31 -57q17 -53 17 -136zM325 245q0 101 -23.5 143t-85.5 42q-59 0 -81.5 -42.5t-22.5 -142.5q0 -101 22.5 -143.5t81.5 -42.5
q62 0 85.5 42t23.5 144z" />
    <glyph glyph-name="afii10081" unicode="&#x43f;" horiz-adv-x="444" 
d="M405 469v-452q0 -17 -18 -17h-42q-16 0 -16 17v402h-211v-402q0 -17 -17 -17h-41q-17 0 -17 17v453q0 17 17 17h328q17 0 17 -18z" />
    <glyph glyph-name="afii10082" unicode="&#x440;" horiz-adv-x="436" 
d="M124 13l-3 -3v-167q0 -19 -18 -19h-41q-10 0 -13.5 4t-3.5 15v627q0 17 17 17h41q17 0 17 -17v-24l3 -2q76 50 142 50q79 0 112.5 -58.5t33.5 -187.5q0 -136 -39 -196.5t-135 -60.5q-59 0 -113 22zM333 251q0 105 -18.5 138.5t-59.5 33.5q-27 0 -69 -14q-40 -13 -65 -29
v-303q58 -18 116 -18q53 0 74.5 43t21.5 149z" />
    <glyph glyph-name="afii10083" unicode="&#x441;" horiz-adv-x="370" 
d="M210 -8q-87 0 -129 47q-19 24 -29 56q-18 56 -18 149q0 105 30 173q37 80 146 80q78 0 138 -23q13 -4 10 -21l-4 -23q-1 -13 -26 -11q-90 9 -115 9q-56 0 -77 -39t-21 -141q0 -108 21 -148q22 -40 77 -40q60 0 123 10q21 3 22 -13l4 -21q3 -13 -11 -21q-51 -23 -141 -23z
" />
    <glyph glyph-name="afii10084" unicode="&#x442;" horiz-adv-x="366" 
d="M361 467v-28q0 -12 -5 -16.5t-18 -4.5h-117v-398q0 -20 -22 -20h-29q-24 0 -24 20v398h-117q-24 0 -24 21v28q0 20 23 20h311q22 0 22 -20z" />
    <glyph glyph-name="afii10085" unicode="&#x443;" horiz-adv-x="405" 
d="M208 108h6q11 41 44 152l63 214q4 13 16 13h54q11 0 7 -15l-199 -634q-5 -14 -20 -14h-46q-13 0 -9 16l52 160l-153 471q-6 16 8 16h53q11 0 16 -14l72 -231q26 -84 36 -134z" />
    <glyph glyph-name="afii10086" unicode="&#x444;" horiz-adv-x="553" 
d="M34 237q0 48 9 89t30 80t63.5 62.5t103.5 26.5v149q0 18 20 18h32q21 0 21 -18v-149q125 -6 166 -84q38 -66 38 -168q0 -113 -52.5 -179t-151.5 -73v-152q0 -16 -17 -16h-36q-20 0 -20 18v150q-101 7 -153.5 70.5t-52.5 175.5zM111 237q0 -170 129 -182v374
q-129 -5 -129 -192zM441 237q0 187 -128 192v-374q128 12 128 182z" />
    <glyph glyph-name="afii10087" unicode="&#x445;" horiz-adv-x="377" 
d="M281 13l-94 170l-93 -170q-7 -13 -21 -13h-58q-7 0 -9.5 5.5t1.5 10.5l138 233l-130 222q-4 6 -1.5 11t9.5 5h57q11 0 18 -13l90 -163l89 163q7 13 18 13h59q7 0 9.5 -5t-1.5 -11l-132 -221l140 -234q4 -6 1.5 -11t-9.5 -5h-61q-13 0 -20 13z" />
    <glyph glyph-name="afii10088" unicode="&#x446;" horiz-adv-x="452" 
d="M388 467l1 -395l31 -2q16 -1 14 -21l-10 -154q-2 -21 -13 -21h-38q-13 0 -14 21l-3 105h-291q-22 0 -22 21v446q0 20 22 20h32q21 0 21 -20v-397h195v397q0 20 23 20h29q23 0 23 -20z" />
    <glyph glyph-name="afii10089" unicode="&#x447;" horiz-adv-x="412" 
d="M21 336v134q0 17 21 17h36q20 0 20 -17v-119q0 -63 13.5 -85.5t51.5 -22.5q27 0 65 16q41 17 64 31v180q0 17 21 17h36q19 0 19 -17v-453q0 -17 -19 -17h-36q-21 0 -21 17v205q-70 -49 -140 -49q-84 0 -110 50q-21 43 -21 113z" />
    <glyph glyph-name="afii10090" unicode="&#x448;" horiz-adv-x="596" 
d="M552 466v-444q0 -22 -20 -22h-467q-22 0 -22 22v444q0 21 22 21h31q22 0 22 -21v-396h145v396q0 21 23 21h29q23 0 23 -21v-396h139v396q0 21 24 21h31q11 0 15.5 -4.5t4.5 -16.5z" />
    <glyph glyph-name="afii10091" unicode="&#x449;" horiz-adv-x="614" 
d="M522 -108l-4 108h-453q-22 0 -22 22v444q0 21 22 21h31q22 0 22 -21v-396h144v396q0 21 23 21h29q23 0 23 -21v-396h138v396q0 21 24 21h31q11 0 15.5 -4.5t4.5 -16.5v-395l32 -3q16 -1 14 -21l-9 -155q-1 -21 -13 -21h-38q-12 0 -14 21z" />
    <glyph glyph-name="afii10092" unicode="&#x44a;" horiz-adv-x="494" 
d="M133 20v398h-110q-23 0 -23 20v30q0 11 4.5 15t17.5 4h164q22 0 22 -20v-170h106q81 0 119.5 -39.5t38.5 -108.5q0 -70 -46.5 -109.5t-122.5 -39.5h-145q-25 0 -25 20zM398 149q0 39 -19.5 58.5t-67.5 19.5h-103v-157h96q45 0 69.5 20t24.5 59z" />
    <glyph glyph-name="afii10093" unicode="&#x44b;" horiz-adv-x="555" 
d="M514 466v-446q0 -20 -22 -20h-31q-23 0 -23 20v446q0 21 23 21h31q22 0 22 -21zM308 149q0 78 -77 78h-113v-157h106q40 0 62 20.5t22 58.5zM382 149q0 -68 -44.5 -108.5t-114.5 -40.5h-155q-25 0 -25 20v447q0 20 25 20h28q22 0 22 -20v-170h116q75 0 111.5 -40
t36.5 -108z" />
    <glyph glyph-name="afii10094" unicode="&#x44c;" horiz-adv-x="405" 
d="M308 149q0 78 -77 78h-113v-157h106q40 0 62 20.5t22 58.5zM382 149q0 -68 -44.5 -108.5t-114.5 -40.5h-155q-25 0 -25 20v447q0 20 25 20h28q22 0 22 -20v-170h116q75 0 111.5 -40t36.5 -108z" />
    <glyph glyph-name="afii10095" unicode="&#x44d;" horiz-adv-x="378" 
d="M18 39l4 20q3 14 25 13q79 -9 119 -9q51 0 73 36t25 124h-163q-14 0 -19 4t-5 16v26q0 11 5 15t19 4h162q-3 76 -25.5 109.5t-71.5 33.5q-30 0 -106 -10q-26 -1 -27 12l-4 21q-2 15 11 21q49 24 133 24q86 0 128 -51q17 -20 28 -57q15 -54 15 -142q0 -119 -34 -184
q-36 -71 -144 -71q-93 0 -137 23q-12 6 -11 22z" />
    <glyph glyph-name="afii10096" unicode="&#x44e;" horiz-adv-x="583" 
d="M546 252q0 -37 -1 -49q0 -58 -14 -100q-18 -57 -51 -79q-45 -32 -111 -32q-83 0 -126 52q-19 25 -28 55q-17 50 -17 125h-80v-203q0 -21 -23 -21h-28q-24 0 -24 21v444q0 22 24 22h28q23 0 23 -22v-172h80q10 204 171 204q90 0 134 -53q17 -22 28 -58q15 -55 15 -134z
M469 245q0 100 -20 140.5t-80 40.5q-62 0 -79 -51q-15 -44 -15 -130q0 -98 17 -140q18 -41 77 -41q63 0 81 42q19 41 19 139z" />
    <glyph glyph-name="afii10097" unicode="&#x44f;" horiz-adv-x="430" 
d="M113 216l-1 3q-70 22 -70 120q0 70 45 109.5t118 39.5h158q25 0 25 -20v-447q0 -20 -25 -20h-28q-22 0 -22 20v178h-102q-31 0 -48.5 -18t-29.5 -62l-29 -103q-4 -16 -21 -16h-41q-23 0 -15 21l33 115q18 60 53 80zM116 339q0 -75 93 -75h104v154h-104q-41 0 -67 -21
t-26 -58z" />
    <glyph glyph-name="uni0450" unicode="&#x450;" horiz-adv-x="420" 
d="M215 430q-51 0 -75 -35.5t-26 -112.5h204q-1 64 -20 102q-19 46 -83 46zM218 -9q-92 0 -135 50q-19 22 -31 57q-17 53 -17 145q0 78 16 130q32 119 166 124q108 0 146 -71q31 -58 33 -150q2 -57 -43 -57h-239q1 -86 26 -121t83 -35q48 0 122 10q19 3 23 -13l4 -22
q3 -14 -11 -20q-65 -27 -143 -27zM198 710l62 -143q5 -11 -3 -14l-29 -13q-10 -4 -15 3l-81 135q-8 10 3 15l46 20q13 6 17 -3z" />
    <glyph glyph-name="afii10071" unicode="&#x451;" horiz-adv-x="420" 
d="M215 430q-51 0 -75 -35.5t-26 -112.5h204q-1 64 -20 102q-19 46 -83 46zM218 -9q-92 0 -135 50q-19 22 -31 57q-17 53 -17 145q0 78 16 130q32 119 166 124q108 0 146 -71q31 -58 33 -150q2 -57 -43 -57h-239q1 -86 26 -121t83 -35q48 0 122 10q19 3 23 -13l4 -22
q3 -14 -11 -20q-65 -27 -143 -27zM336 616q0 -45 -40 -45q-23 0 -31 11t-8 34q0 42 39 42q22 0 31 -10t9 -32zM177 616q0 -45 -39 -45q-24 0 -32.5 11t-8.5 34q0 42 41 42q39 0 39 -42z" />
    <glyph glyph-name="afii10099" unicode="&#x452;" horiz-adv-x="478" 
d="M30 607h38v79q0 18 19 18h36q20 0 20 -18v-79h161q11 0 15 -4t4 -14v-27q0 -10 -3.5 -14t-15.5 -4h-161v-113q71 40 135 41q76 1 120.5 -61t44.5 -176q0 -96 -44 -186q-43 -88 -132 -136q-15 -7 -20.5 -5t-10.5 14l-9 21q-5 13 8 20q129 83 129 282q0 76 -27 116t-73 40
q-52 0 -123 -42l2 1v-342q0 -18 -19 -18h-35q-21 0 -21 18v526h-38q-12 0 -16 4t-4 14v26q0 19 20 19z" />
    <glyph glyph-name="afii10100" unicode="&#x453;" horiz-adv-x="366" 
d="M358 467v-29q0 -12 -4 -16t-17 -4h-218v-398q0 -11 -4.5 -15.5t-16.5 -4.5h-31q-24 0 -24 20v447q0 20 24 20h271q20 0 20 -20zM271 678l-81 -132q-4 -8 -15 -3l-29 10q-8 3 -3 14l62 143q4 9 17 3l46 -20q10 -5 3 -15z" />
    <glyph glyph-name="afii10101" unicode="&#x454;" horiz-adv-x="382" 
d="M210 -8q-87 0 -129 47q-19 24 -29 56q-18 56 -18 149q0 105 30 173q37 80 146 80q78 0 138 -23q13 -4 10 -21l-4 -23q-1 -13 -26 -11q-90 9 -115 9q-51 0 -72.5 -31.5t-25.5 -109.5h167q13 0 17 -3.5t4 -15.5v-24q0 -13 -4 -16.5t-17 -3.5h-167q2 -92 24 -128t74 -36
q60 0 123 10q21 3 22 -13l4 -21q3 -13 -11 -21q-51 -23 -141 -23z" />
    <glyph glyph-name="afii10102" unicode="&#x455;" horiz-adv-x="379" 
d="M352 140q0 -74 -45.5 -111t-121.5 -37q-89 0 -137 23q-15 8 -11 22l4 21q2 9 6.5 11.5t17.5 1.5q86 -10 123 -10q44 0 64.5 17t20.5 54q0 43 -16 59q-17 17 -64 24q-65 12 -106 37q-50 31 -50 102q0 69 41.5 106t116.5 37q81 0 133 -23q11 -6 10 -19l-4 -26
q-1 -13 -26 -10q-85 8 -114 8q-45 0 -62 -16t-17 -55q0 -34 16.5 -46.5t69.5 -21.5q63 -13 102 -38q49 -31 49 -110z" />
    <glyph glyph-name="afii10103" unicode="&#x456;" horiz-adv-x="194" 
d="M55 617q0 43 42 43q25 0 34 -11q9 -10 9 -32t-9 -34q-9 -11 -34 -11q-42 0 -42 45zM135 470v-453q0 -17 -16 -17h-41q-18 0 -18 17v453q0 17 18 17h41q16 0 16 -17z" />
    <glyph glyph-name="afii10104" unicode="&#x457;" horiz-adv-x="223" 
d="M232 609q0 -45 -40 -45q-23 0 -31 11t-8 34q0 42 39 42q22 0 31 -10t9 -32zM73 609q0 -45 -39 -45q-24 0 -32.5 11t-8.5 34q0 42 41 42q39 0 39 -42zM149 470v-453q0 -17 -16 -17h-41q-18 0 -18 17v453q0 17 18 17h41q16 0 16 -17z" />
    <glyph glyph-name="afii10105" unicode="&#x458;" horiz-adv-x="209" 
d="M148 470v-504q0 -77 -28 -120q-31 -54 -145 -49q-18 0 -20 17l-2 23q-1 16 14 19q65 14 85 32t20 76v506q0 17 18 17h40q18 0 18 -17zM67 617q0 43 42 43q25 0 33 -11q9 -10 9 -32t-9 -34q-8 -11 -33 -11q-42 0 -42 45z" />
    <glyph glyph-name="afii10106" unicode="&#x459;" horiz-adv-x="663" 
d="M299 20v399l-121 -1l-17 -250q-6 -78 -27 -120q-25 -55 -112 -57q-22 0 -22 16v27q0 7 2 9.5t11 4.5q36 6 63 47q5 9 8 26l4 27q2 8 3 33q1 5 1 11l21 246q3 27 16.5 38t41.5 11h182q21 0 21 -20v-170h108q81 0 119.5 -39.5t38.5 -108.5q0 -70 -46.5 -109.5t-122.5 -39.5
h-147q-25 0 -25 20zM566 149q0 39 -19.5 58.5t-67.5 19.5h-105v-157h98q45 0 69.5 20t24.5 59z" />
    <glyph glyph-name="afii10107" unicode="&#x45a;" horiz-adv-x="637" 
d="M618 149q0 -70 -46.5 -109.5t-123.5 -39.5h-145q-25 0 -25 20v208h-159v-208q0 -20 -21 -20h-31q-23 0 -23 20v446q0 21 23 21h31q21 0 21 -21v-173h159v174q0 20 25 20h28q22 0 22 -20v-170h106q81 0 120 -39.5t39 -108.5zM544 149q0 39 -20 58.5t-68 19.5h-103v-157h96
q95 0 95 79z" />
    <glyph glyph-name="afii10108" unicode="&#x45b;" horiz-adv-x="445" 
d="M117 543v-110l5 -2q76 52 143 52q88 0 112 -53q21 -44 21 -130v-283q0 -17 -18 -17h-42q-17 0 -17 17l1 287q0 64 -14.5 86.5t-52.5 22.5q-49 0 -138 -47v-349q0 -17 -18 -17h-41q-16 0 -16 17v526h-28q-11 0 -14.5 4t-3.5 14v26q0 11 3.5 15t14.5 4h28v82q0 17 16 17h41
q18 0 18 -17v-82h169q11 0 14.5 -4t3.5 -14v-27q0 -10 -3.5 -14t-14.5 -4h-169z" />
    <glyph glyph-name="afii10109" unicode="&#x45c;" horiz-adv-x="396" 
d="M263 255v-2q35 -10 51 -41q12 -22 26 -68l36 -123q8 -21 -15 -21h-41q-17 0 -21 16l-33 112q-15 51 -37.5 68t-64.5 17h-45v-199q0 -14 -14 -14h-47q-15 0 -15 14v458q0 15 15 15h47q14 0 14 -15v-192h41q36 0 58 17t37 64l34 110q4 16 21 16h37q23 0 15 -21l-32 -107
q-16 -49 -30.5 -73.5t-36.5 -30.5zM287 678l-81 -132q-4 -8 -15 -3l-29 10q-8 3 -3 14l62 143q4 9 17 3l46 -20q10 -5 3 -15z" />
    <glyph glyph-name="uni045D" unicode="&#x45d;" horiz-adv-x="450" 
d="M331 20v326l-4 1q-25 -45 -71 -113l-148 -219q-11 -15 -28 -15h-17q-11 0 -15.5 4.5t-4.5 15.5v446q0 12 4.5 16.5t15.5 4.5h33q22 0 22 -21v-310l6 -1q33 55 85 133l124 184q13 15 27 15h25q21 0 21 -19v-448q0 -20 -22 -20h-30q-23 0 -23 20zM205 710l62 -143
q5 -11 -3 -14l-29 -13q-11 -4 -15 3l-81 135q-7 10 3 15l46 20q13 6 17 -3z" />
    <glyph glyph-name="afii10110" unicode="&#x45e;" horiz-adv-x="405" 
d="M208 108h6q11 41 44 152l63 214q4 13 16 13h54q11 0 7 -15l-199 -634q-5 -14 -20 -14h-46q-13 0 -9 16l52 160l-153 471q-6 16 8 16h53q11 0 16 -14l72 -231q26 -84 36 -134zM223 561q-40 0 -75.5 25t-55.5 70q-8 17 0 25l19 17q7 8 20 -5l20 -24l8 -10q4 -4 8.5 -8
t8.5 -8q20 -17 49 -17q27 0 45 18l12 12q8 11 31 37q10 10 20 3l21 -15q6 -3 1 -17q-49 -103 -132 -103z" />
    <glyph glyph-name="afii10193" unicode="&#x45f;" horiz-adv-x="444" 
d="M380 0h-119l-6 -112q-1 -21 -13 -21h-38q-14 0 -14 21l-6 112h-119q-22 0 -22 21v446q0 20 22 20h31q22 0 22 -20v-397h208v397q0 20 24 20h30q22 0 22 -20v-446q0 -21 -22 -21z" />
    <glyph glyph-name="afii10050" unicode="&#x490;" horiz-adv-x="417" 
d="M408 771v-159q0 -21 -16 -21h-252v-574q0 -17 -16 -17h-44q-18 0 -18 17v630q0 16 18 16h258l14 110q1 12 4 15.5t11 3.5h29q12 0 12 -21z" />
    <glyph glyph-name="afii10098" unicode="&#x491;" horiz-adv-x="365" 
d="M356 586v-143q0 -24 -15 -24h-211v-399q0 -11 -4.5 -15.5t-16.5 -4.5h-30q-24 0 -24 20v447q0 20 24 20h214l16 99q1 13 11 13h25q11 0 11 -13z" />
    <glyph glyph-name="schwacyrillic" unicode="&#x4d9;" horiz-adv-x="420" 
d="M219 58q51 0 75 35.5t26 112.5h-204q1 -60 19 -102q22 -46 84 -46zM216 497q92 0 135 -50q19 -23 30 -57q18 -53 18 -145q0 -77 -16 -131q-32 -119 -166 -123q-108 0 -146 70q-31 59 -33 151q-2 57 43 57h239q-1 86 -26 121t-83 35q-48 0 -122 -10q-19 -3 -23 13l-4 22
q-3 14 11 20q64 27 143 27z" />
    <glyph glyph-name="Wgrave" unicode="&#x1e80;" horiz-adv-x="709" 
d="M358 389h-4q-15 -92 -42 -199l-43 -176q-5 -14 -18 -14h-55q-12 0 -17 14l-166 634q-3 15 10 15h52q13 0 18 -14l83 -319q30 -109 49 -207h2q12 70 43 204l46 202l-31 118q-4 16 9 16h52q14 0 19 -14l79 -326q30 -120 49 -220h3q12 70 48 229l73 317q5 14 19 14h50
q12 0 8 -18l-156 -630q-4 -15 -19 -15h-52q-17 0 -20 14l-43 171q-32 126 -46 204zM229 808l28 40q9 14 20 3l110 -94q10 -7 4 -15l-18 -23q-7 -9 -18 -3l-120 75q-12 7 -6 17z" />
    <glyph glyph-name="wgrave" unicode="&#x1e81;" horiz-adv-x="599" 
d="M306 276h-2l-14 -52q-5 -21 -13 -52l-46 -159q-4 -13 -16 -13h-44q-13 0 -17 12l-135 459q-6 16 8 16h52q14 0 17 -14l68 -250l28 -112h2q12 50 27 103l48 162l-25 95q-4 16 8 16h53q11 0 16 -14l69 -249q20 -70 29 -115h2q7 33 26 108l67 257q4 13 15 13h55q12 0 7 -15
l-132 -459q-4 -13 -17 -13h-44q-14 0 -17 12l-46 157q-14 49 -29 107zM275 710l62 -143q5 -11 -3 -14l-29 -13q-10 -4 -15 3l-81 135q-8 10 3 15l46 20q13 6 17 -3z" />
    <glyph glyph-name="Wacute" unicode="&#x1e82;" horiz-adv-x="709" 
d="M358 389h-4q-15 -92 -42 -199l-43 -176q-5 -14 -18 -14h-55q-12 0 -17 14l-166 634q-3 15 10 15h52q13 0 18 -14l83 -319q30 -109 49 -207h2q12 70 43 204l46 202l-31 118q-4 16 9 16h52q14 0 19 -14l79 -326q30 -120 49 -220h3q12 70 48 229l73 317q5 14 19 14h50
q12 0 8 -18l-156 -630q-4 -15 -19 -15h-52q-17 0 -20 14l-43 171q-32 126 -46 204zM449 848l28 -40q6 -10 -6 -17l-120 -75q-11 -6 -18 3l-18 23q-6 8 4 15l110 94q11 11 20 -3z" />
    <glyph glyph-name="wacute" unicode="&#x1e83;" horiz-adv-x="599" 
d="M306 276h-2l-14 -52q-5 -21 -13 -52l-46 -159q-4 -13 -16 -13h-44q-13 0 -17 12l-135 459q-6 16 8 16h52q14 0 17 -14l68 -250l28 -112h2q12 50 27 103l48 162l-25 95q-4 16 8 16h53q11 0 16 -14l69 -249q20 -70 29 -115h2q7 33 26 108l67 257q4 13 15 13h55q12 0 7 -15
l-132 -459q-4 -13 -17 -13h-44q-14 0 -17 12l-46 157q-14 49 -29 107zM397 678l-81 -132q-5 -8 -15 -3l-29 10q-8 3 -3 14l62 143q4 9 17 3l46 -20q11 -5 3 -15z" />
    <glyph glyph-name="Wdieresis" unicode="&#x1e84;" horiz-adv-x="709" 
d="M358 389h-4q-15 -92 -42 -199l-43 -176q-5 -14 -18 -14h-55q-12 0 -17 14l-166 634q-3 15 10 15h52q13 0 18 -14l83 -319q30 -109 49 -207h2q12 70 43 204l46 202l-31 118q-4 16 9 16h52q14 0 19 -14l79 -326q30 -120 49 -220h3q12 70 48 229l73 317q5 14 19 14h50
q12 0 8 -18l-156 -630q-4 -15 -19 -15h-52q-17 0 -20 14l-43 171q-32 126 -46 204zM394 777q0 42 38 42q23 0 31 -11q9 -10 9 -31t-8 -33q-8 -11 -32 -11q-23 0 -30.5 10.5t-7.5 33.5zM323 777q0 -22 -8.5 -33t-30.5 -11q-24 0 -32 10.5t-8 33.5q0 42 40 42q22 0 30.5 -9.5
t8.5 -32.5z" />
    <glyph glyph-name="wdieresis" unicode="&#x1e85;" horiz-adv-x="599" 
d="M306 276h-2l-14 -52q-5 -21 -13 -52l-46 -159q-4 -13 -16 -13h-44q-13 0 -17 12l-135 459q-6 16 8 16h52q14 0 17 -14l68 -250l28 -112h2q12 50 27 103l48 162l-25 95q-4 16 8 16h53q11 0 16 -14l69 -249q20 -70 29 -115h2q7 33 26 108l67 257q4 13 15 13h55q12 0 7 -15
l-132 -459q-4 -13 -17 -13h-44q-14 0 -17 12l-46 157q-14 49 -29 107zM424 609q0 -45 -40 -45q-23 0 -31 11t-8 34q0 42 39 42q22 0 31 -10t9 -32zM265 609q0 -45 -39 -45q-24 0 -32.5 11t-8.5 34q0 42 41 42q39 0 39 -42z" />
    <glyph glyph-name="Ygrave" unicode="&#x1ef2;" horiz-adv-x="441" 
d="M199 422l21 -50h6q9 28 50 116l76 162q8 12 21 12h52q17 0 9 -15l-173 -351v-279q0 -17 -16 -17h-42q-18 0 -18 17v279l-173 353q-6 13 8 13h59q13 0 19 -12l75 -165q3 -6 26 -63zM109 808l28 40q9 14 20 3l110 -94q10 -7 4 -15l-18 -23q-7 -9 -18 -3l-120 75
q-12 7 -6 17z" />
    <glyph glyph-name="ygrave" unicode="&#x1ef3;" horiz-adv-x="405" 
d="M208 108h6q11 41 44 152l63 214q4 13 16 13h54q11 0 7 -15l-199 -634q-5 -14 -20 -14h-46q-13 0 -9 16l52 160l-153 471q-6 16 8 16h53q11 0 16 -14l72 -231q26 -84 36 -134zM180 710l62 -143q5 -11 -3 -14l-29 -13q-10 -4 -15 3l-81 135q-8 10 3 15l46 20q13 6 17 -3z
" />
    <glyph glyph-name="uni2012" unicode="&#x2012;" horiz-adv-x="492" 
d="M463 267v-28q0 -14 -14 -14h-405q-14 0 -14 14v28q0 15 15 15h403q15 0 15 -15z" />
    <glyph glyph-name="endash" unicode="&#x2013;" horiz-adv-x="435" 
d="M413 267v-28q0 -14 -14 -14h-355q-14 0 -14 14v28q0 15 15 15h353q15 0 15 -15z" />
    <glyph glyph-name="emdash" unicode="&#x2014;" horiz-adv-x="701" 
d="M681 267v-28q0 -14 -14 -14h-623q-14 0 -14 14v28q0 15 15 15h621q15 0 15 -15z" />
    <glyph glyph-name="afii00208" unicode="&#x2015;" horiz-adv-x="701" 
d="M681 267v-28q0 -14 -14 -14h-623q-14 0 -14 14v28q0 15 15 15h621q15 0 15 -15z" />
    <glyph glyph-name="quoteleft" unicode="&#x2018;" horiz-adv-x="183" 
d="M42 525q0 51 20 90.5t54 60.5q11 8 18 1l12 -11q4 -4 -3 -15q-30 -39 -30 -71q0 -42 22 -68q9 -14 -3 -21l-39 -34q-11 -10 -25 1q-26 23 -26 67z" />
    <glyph glyph-name="quoteright" unicode="&#x2019;" horiz-adv-x="183" 
d="M149 612q0 -51 -20 -90.5t-54 -60.5q-11 -8 -18 -1l-12 11q-7 5 3 15q29 29 30 71t-22 68q-9 13 3 21l39 34q11 10 25 -1q26 -23 26 -67z" />
    <glyph glyph-name="quotesinglbase" unicode="&#x201a;" horiz-adv-x="170" 
d="M139 18q0 -46 -20.5 -86.5t-50.5 -62.5q-13 -10 -19 -3l-12 14q-5 4 3 15q55 67 7 137q-7 13 4 23l35 30q14 12 27 -1q26 -26 26 -66z" />
    <glyph glyph-name="quotereversed" unicode="&#x201b;" horiz-adv-x="183" 
d="M144 613q-35 -30 -35 -83q0 -28 18 -57q4 -4 -2 -9l-15 -13q-8 -8 -17 4q-44 59 -44 122q0 78 41 101q17 10 28 -4l27 -39q10 -14 -1 -22z" />
    <glyph glyph-name="quotedblleft" unicode="&#x201c;" horiz-adv-x="271" 
d="M32 525q0 51 20 90.5t54 60.5q11 8 18 1l12 -11q8 -4 -3 -15q-29 -29 -30 -71t22 -68q9 -14 -3 -21l-39 -34q-11 -10 -25 1q-26 23 -26 67zM142 525q0 51 20 90.5t54 60.5q11 8 18 1l12 -11q8 -4 -3 -15q-30 -33 -30 -71q0 -42 22 -68q9 -14 -3 -21l-39 -34
q-11 -10 -25 1q-26 23 -26 67z" />
    <glyph glyph-name="quotedblright" unicode="&#x201d;" horiz-adv-x="271" 
d="M254 612q0 -51 -20 -90.5t-54 -60.5q-11 -8 -18 -1l-12 11q-8 5 3 15q30 34 30 71q0 42 -22 68q-7 11 3 21l39 34q11 10 25 -1q26 -23 26 -67zM144 612q0 -51 -20 -90.5t-54 -60.5q-11 -8 -18 -1l-12 11q-8 5 3 15q29 29 30 71t-22 68q-7 11 3 21l39 34q11 10 25 -1
q26 -23 26 -67z" />
    <glyph glyph-name="quotedblbase" unicode="&#x201e;" horiz-adv-x="271" 
d="M139 18q0 -46 -20.5 -86.5t-50.5 -62.5q-13 -10 -19 -3l-12 14q-5 4 3 15q55 67 7 137q-7 13 4 23l35 30q14 12 27 -1q26 -26 26 -66zM249 18q0 -46 -20.5 -86.5t-50.5 -62.5q-13 -10 -19 -3l-12 14q-5 4 3 15q55 67 7 137q-7 13 4 23l35 30q14 12 27 -1q26 -26 26 -66z
" />
    <glyph glyph-name="uni201F" unicode="&#x201f;" horiz-adv-x="271" 
d="M135 613q-35 -30 -35 -83q0 -28 18 -57q4 -4 -2 -9l-15 -13q-8 -8 -17 4q-44 59 -44 122q0 78 41 101q17 10 28 -4l27 -39q10 -14 -1 -22zM240 613q-35 -30 -35 -83q0 -28 18 -57q4 -4 -2 -9l-15 -13q-8 -8 -17 4q-44 59 -44 122q0 78 41 101q17 10 28 -4l27 -39
q10 -14 -1 -22z" />
    <glyph glyph-name="dagger" unicode="&#x2020;" horiz-adv-x="420" 
d="M405 474v-34q0 -17 -18 -17h-140v-454q0 -17 -17 -17h-37q-18 0 -18 17v454h-141q-18 0 -18 17v34q0 16 17 16h142v184q0 17 18 17h37q17 0 17 -17v-184h141q17 0 17 -16z" />
    <glyph glyph-name="daggerdbl" unicode="&#x2021;" horiz-adv-x="420" 
d="M16 170v34q0 17 18 17h140v202h-140q-18 0 -18 17v34q0 16 17 16h141v188q2 14 17 14h37q18 0 18 -17v-185h140q17 0 17 -16v-34q0 -17 -18 -17h-139v-202h139q18 0 18 -17v-34q0 -16 -17 -16h-140v-188q-2 -14 -17 -14h-37q-16 0 -18 14v188h-141q-17 0 -17 16z" />
    <glyph glyph-name="bullet" unicode="&#x2022;" horiz-adv-x="246" 
d="M207 253q0 -35 -24.5 -59.5t-58.5 -24.5q-35 0 -59.5 24.5t-24.5 59.5q0 34 25 59t59 25t58.5 -25t24.5 -59z" />
    <glyph glyph-name="trianglebullet" unicode="&#x2023;" horiz-adv-x="440" 
d="M66 62v420l349 -205z" />
    <glyph glyph-name="ellipsis" unicode="&#x2026;" horiz-adv-x="540" 
d="M508 40q0 -49 -44 -49q-26 0 -35 11.5t-9 37.5q0 47 44 47t44 -47zM316 40q0 -49 -42 -49q-26 0 -35 11.5t-9 37.5q0 47 44 47q23 0 32.5 -11.5t9.5 -35.5zM121 40q0 -49 -43 -49q-26 0 -35 11.5t-9 37.5q0 47 44 47q24 0 33.5 -11.5t9.5 -35.5z" />
    <glyph glyph-name="perthousand" unicode="&#x2030;" horiz-adv-x="1028" 
d="M300 459q0 -80 -20 -141q-27 -81 -124 -81q-72 0 -107 50q-15 22 -22 54q-6 27 -8 58q-1 15 -1 60q0 208 138 208q72 0 108 -45q16 -21 23 -49q13 -43 13 -114zM237 452q0 86 -16.5 121.5t-64.5 35.5q-42 0 -58 -38.5t-16 -118.5q0 -70 12 -111q13 -44 62 -44
q46 0 63.5 37t17.5 118zM695 215q0 -80 -20 -141q-27 -81 -124 -81q-72 0 -107 50q-15 22 -22 54q-6 27 -8 58q-1 15 -1 60q0 208 138 208q72 0 108 -45q16 -21 23 -49q13 -43 13 -114zM632 208q0 86 -16.5 121.5t-64.5 35.5q-42 0 -58 -38.5t-16 -118.5q0 -70 12 -111
q13 -44 62 -44q46 0 63.5 37t17.5 118zM1015 215q0 -80 -20 -141q-27 -81 -124 -81q-72 0 -107 50q-15 22 -22 54q-6 27 -8 58q-1 15 -1 60q0 208 138 208q72 0 108 -45q16 -21 23 -49q13 -43 13 -114zM952 208q0 86 -16.5 121.5t-64.5 35.5q-42 0 -58 -38.5t-16 -118.5
q0 -70 12 -111q13 -44 62 -44q46 0 63.5 37t17.5 118zM508 684l-238 -694q-4 -13 -17 -13h-28q-16 0 -12 16l240 693q5 14 18 14h28q13 0 9 -16z" />
    <glyph glyph-name="minute" unicode="&#x2032;" horiz-adv-x="177" 
d="M150 639l-70 -214q-6 -9 -17 -7l-26 7q-9 1 -8 14l51 220q5 15 20 11l42 -15q12 -5 8 -16z" />
    <glyph glyph-name="second" unicode="&#x2033;" horiz-adv-x="289" 
d="M150 639l-70 -214q-6 -9 -17 -7l-26 7q-9 1 -8 14l51 220q5 15 20 11l42 -15q12 -5 8 -16zM262 639l-70 -215q-3 -9 -17 -6l-26 7q-9 3 -7 14l50 220q5 15 21 11l40 -15q13 -4 9 -16z" />
    <glyph glyph-name="uni2034" unicode="&#x2034;" horiz-adv-x="391" 
d="M150 639l-70 -214q-6 -9 -17 -7l-26 7q-9 1 -8 14l51 220q5 15 20 11l42 -15q12 -5 8 -16zM258 639l-70 -215q-3 -9 -17 -6l-26 7q-9 3 -7 14l50 220q5 15 21 11l40 -15q13 -4 9 -16zM364 639l-70 -215q-3 -9 -17 -6l-26 7q-9 3 -7 14l50 220q5 15 21 11l40 -15
q13 -4 9 -16z" />
    <glyph glyph-name="guilsinglleft" unicode="&#x2039;" horiz-adv-x="228" 
d="M131 45l-88 125q-10 14 1 28l85 124q13 15 25 15h48q6 0 8 -5t-1 -9l-97 -139l102 -141q3 -4 1.5 -7.5t-5.5 -3.5h-56q-14 0 -23 13z" />
    <glyph glyph-name="guilsinglright" unicode="&#x203a;" horiz-adv-x="228" 
d="M200 170l-88 -125q-9 -13 -23 -13h-56q-4 0 -5.5 3.5t1.5 7.5l102 141l-97 139q-2 3 -2 6t2.5 5.5t6.5 2.5h48q11 0 25 -15l85 -124q11 -14 1 -28z" />
    <glyph glyph-name="fraction" unicode="&#x2044;" horiz-adv-x="98" 
d="M205 684l-238 -694q-4 -13 -17 -13h-28q-16 0 -12 16l240 693q5 14 18 14h28q13 0 9 -16z" />
    <glyph glyph-name="fraction" unicode="&#x2215;" horiz-adv-x="98" 
d="M205 684l-238 -694q-4 -13 -17 -13h-28q-16 0 -12 16l240 693q5 14 18 14h28q13 0 9 -16z" />
    <glyph glyph-name="zerosuperior" unicode="&#x2070;" horiz-adv-x="315" 
d="M301 549q0 -80 -20 -141q-27 -81 -124 -81q-72 0 -107 50q-15 22 -22 54q-6 27 -8 58q-1 15 -1 60q0 208 138 208q72 0 108 -45q16 -21 23 -49q13 -43 13 -114zM238 542q0 86 -16.5 121.5t-64.5 35.5q-42 0 -58 -38.5t-16 -118.5q0 -70 12 -111q13 -44 62 -44
q46 0 63.5 37t17.5 118z" />
    <glyph glyph-name="foursuperior" unicode="&#x2074;" horiz-adv-x="315" 
d="M308 482v-23q0 -16 -16 -16h-35v-93q0 -16 -18 -16h-24q-18 0 -18 15v94h-172q-19 0 -19 16v20q0 12 8 23l183 240q11 11 24 11h19q17 0 17 -15v-238h35q16 0 16 -18zM81 500h116v154z" />
    <glyph glyph-name="fivesuperior" unicode="&#x2075;" horiz-adv-x="315" 
d="M142 334q-64 0 -107 17q-13 5 -9 21l4 14q5 13 10 14t13 0q53 -8 92 -8q41 0 60.5 21t19.5 73q0 39 -47 48l-130 24q-17 3 -13 27l22 157q1 15 21 15h178q15 0 15 -15v-26q0 -16 -15 -16h-144l-12 -91l104 -17q38 -6 61.5 -34t23.5 -71q0 -84 -35.5 -118.5t-111.5 -34.5z
" />
    <glyph glyph-name="sixsuperior" unicode="&#x2076;" horiz-adv-x="315" 
d="M169 757q63 0 99 -18q14 -8 11 -20l-5 -18q-4 -11 -20 -10q-51 8 -86 8q-76 0 -84 -116q68 6 104 6q112 0 112 -135q0 -64 -38.5 -95.5t-104.5 -31.5q-71 0 -106 35q-15 19 -22 44q-11 48 -11 122t14 125q28 104 137 104zM235 453q0 40 -12 57t-43 17q-48 0 -98 -7
q0 -85 12 -109q16 -30 65 -30q76 0 76 72z" />
    <glyph glyph-name="sevensuperior" unicode="&#x2077;" horiz-adv-x="293" 
d="M58 362l151 334h-188q-15 0 -15 16v24q0 17 16 17h238q20 0 20 -18v-21q0 -12 -6 -24l-158 -351q-8 -18 -26 -10l-25 10q-15 6 -7 23z" />
    <glyph glyph-name="eightsuperior" unicode="&#x2078;" horiz-adv-x="315" 
d="M13 446q0 70 56 108q-44 24 -44 80q0 60 34 91.5t98 31.5q61 0 95 -31t34 -90q0 -22 -12.5 -45.5t-31.5 -36.5q58 -33 58 -104q0 -56 -39 -90t-106 -34q-142 0 -142 120zM234 446q0 59 -80 86q-76 -18 -76 -80q0 -68 77 -68q34 0 56.5 16.5t22.5 45.5zM221 638
q0 29 -17 45t-47 16q-67 0 -67 -61q0 -43 65 -57q66 12 66 57z" />
    <glyph glyph-name="ninesuperior" unicode="&#x2079;" horiz-adv-x="315" 
d="M144 327q-62 0 -104 18q-13 6 -8 22l4 17q2 8 5.5 9.5t17.5 -0.5q43 -7 82 -7q46 0 67 29t25 86q-58 -6 -104 -6q-112 0 -112 135q0 64 37.5 95.5t103.5 31.5q73 0 106 -37q14 -14 22 -45q11 -39 11 -119q0 -75 -14 -126q-29 -103 -139 -103zM82 630q0 -39 12 -56.5
t42 -17.5q46 0 98 6q0 82 -11 106q-16 31 -66 31q-75 0 -75 -69z" />
    <glyph glyph-name="plussuperior" unicode="&#x207a;" horiz-adv-x="293" 
d="M255 550v-19q0 -17 -18 -17h-62v-76q0 -19 -18 -19h-22q-19 0 -19 19v76h-62q-20 0 -20 17v19q0 12 4 15.5t16 3.5h62v70q0 19 19 19h22q11 0 14.5 -4t3.5 -15v-70h62q18 0 18 -19z" />
    <glyph glyph-name="hyphensuperior" unicode="&#x207b;" horiz-adv-x="198" 
d="M188 547v-17q0 -17 -18 -17h-143q-18 0 -18 17v17q0 11 4 15t14 4h143q18 0 18 -19z" />
    <glyph glyph-name="equalsuperior" unicode="&#x207c;" horiz-adv-x="280" 
d="M255 508v-21q0 -17 -16 -17h-187q-10 0 -14 3t-4 14v21q0 18 18 18h187q16 0 16 -18zM255 597v-20q0 -18 -16 -18h-187q-18 0 -18 18v20q0 17 18 17h187q16 0 16 -17z" />
    <glyph glyph-name="parenleftsuperior" unicode="&#x207d;" horiz-adv-x="164" 
d="M136 295q7 -13 -3 -19l-14 -9q-18 -10 -28 6q-66 111 -66 257q0 125 68 244q6 10 11 11t14 -6l16 -13q7 -7 3 -16q-49 -108 -49 -220q0 -138 48 -235z" />
    </font>
</defs>
</svg>
